*
G04 Job   : C:\Users\MartinJohansson\OneDrive - E-Sharp AB\DesignLabs\PLM\Projects\ELECTRONICS\Fixture_Link\Fixture_Link_R2\PCB\Panel\fixture_link\fixture_link.pnl*
G04 User  : ESHARP-MARTIN:MartinJohansson*
G04 Layer : Pastetop.gtp*
G04 Date  : Wed Dec 10 09:10:18 2025*
G04 Solderpaste top*
%ICAS*%
%MOMM*%
%FSLAX24Y24*%
%OFA0.0000B0.0000*%
G90*
G74*
%AMVB_RECTANGLE*
21,1,$1,$2,0,0,$3*
%
%AMVB_FINGER0*
$3=$1/2*
$4=$2/2*
$5=0-$4*
1,1,$2,$3-$4,0*
21,1,$1-$4,$2,$5/2,0,0*
%
%AMVB_FINGER90*
$3=$1/2*
$4=$2/2*
$5=0-$4*
1,1,$2,0,$3-$4*
21,1,$2,$1-$4,0,$5/2,0*
%
%AMVB_FINGER180*
$3=$1/2*
$4=$2/2*
1,1,$2,$4-$3,0*
21,1,$1-$4,$2,$4/2,0,0*
%
%AMVB_FINGER270*
$3=$1/2*
$4=$2/2*
1,1,$2,0,$4-$3*
21,1,$2,$1-$4,0,$4/2,0*
%
%ADD10C,1.00000*%
%ADD17VB_RECTANGLE,0.25000X0.60000X0.00000*%
%ADD12VB_RECTANGLE,0.40000X0.60000X0.00000*%
%ADD11VB_RECTANGLE,0.40000X0.60000X270.00000*%
%ADD14VB_RECTANGLE,0.40000X1.50000X180.00000*%
%ADD23VB_RECTANGLE,0.60000X1.10000X180.00000*%
%ADD19VB_RECTANGLE,0.62000X0.62000X90.00000*%
%ADD13VB_RECTANGLE,0.95000X1.00000X0.00000*%
%ADD15VB_RECTANGLE,0.95000X1.00000X90.00000*%
%ADD70VB_RECTANGLE,1.15000X1.45000X180.00000*%
%ADD16VB_RECTANGLE,1.15000X1.45000X90.00000*%
%ADD18VB_RECTANGLE,1.50000X2.00000X270.00000*%
%ADD22VB_FINGER0,0.85000X0.30000*%
%ADD71VB_FINGER90,0.85000X0.30000*%
%ADD20VB_FINGER180,0.85000X0.30000*%
%ADD21VB_FINGER270,0.85000X0.30000*%
G01*
G36*
X129000Y244500D02*
Y246750D01*
X132750*
Y250500*
X135500*
Y244500*
X129000*
X129400Y234500D02*
X140000D01*
Y237500*
X129400*
Y234500*
Y239500D02*
X140000D01*
Y242500*
X129400*
Y239500*
X135500Y232500D02*
Y226500D01*
X132750*
Y230250*
X129000*
Y232500*
X135500*
X142000Y234500D02*
X152600D01*
Y237500*
X142000*
Y234500*
Y239500D02*
X152600D01*
Y242500*
X142000*
Y239500*
X146500Y244500D02*
Y250500D01*
X149250*
Y246750*
X153000*
Y244500*
X146500*
X153000Y232500D02*
Y230250D01*
X149250*
Y226500*
X146500*
Y232500*
X153000*
X182750Y600250D02*
X194000D01*
Y611500*
X182750*
Y600250*
Y612500D02*
X194000D01*
Y623750*
X182750*
Y612500*
X195000Y600250D02*
X206250D01*
Y611500*
X195000*
Y600250*
Y612500D02*
X206250D01*
Y623750*
X195000*
Y612500*
X721750Y224250D02*
X733000D01*
Y235500*
X721750*
Y224250*
Y236500D02*
X733000D01*
Y247750*
X721750*
Y236500*
X734000Y224250D02*
X745250D01*
Y235500*
X734000*
Y224250*
Y236500D02*
X745250D01*
Y247750*
X734000*
Y236500*
X775000Y615500D02*
Y617750D01*
X778750*
Y621500*
X781500*
Y615500*
X775000*
X775400Y605500D02*
X786000D01*
Y608500*
X775400*
Y605500*
Y610500D02*
X786000D01*
Y613500*
X775400*
Y610500*
X781500Y603500D02*
Y597500D01*
X778750*
Y601250*
X775000*
Y603500*
X781500*
X788000Y605500D02*
X798600D01*
Y608500*
X788000*
Y605500*
Y610500D02*
X798600D01*
Y613500*
X788000*
Y610500*
X792500Y615500D02*
Y621500D01*
X795250*
Y617750*
X799000*
Y615500*
X792500*
X799000Y603500D02*
Y601250D01*
X795250*
Y597500*
X792500*
Y603500*
X799000*
X973000Y244500D02*
Y246750D01*
X976750*
Y250500*
X979500*
Y244500*
X973000*
X973400Y234500D02*
X984000D01*
Y237500*
X973400*
Y234500*
Y239500D02*
X984000D01*
Y242500*
X973400*
Y239500*
X979500Y232500D02*
Y226500D01*
X976750*
Y230250*
X973000*
Y232500*
X979500*
X986000Y234500D02*
X996600D01*
Y237500*
X986000*
Y234500*
Y239500D02*
X996600D01*
Y242500*
X986000*
Y239500*
X990500Y244500D02*
Y250500D01*
X993250*
Y246750*
X997000*
Y244500*
X990500*
X997000Y232500D02*
Y230250D01*
X993250*
Y226500*
X990500*
Y232500*
X997000*
X1026750Y600250D02*
X1038000D01*
Y611500*
X1026750*
Y600250*
Y612500D02*
X1038000D01*
Y623750*
X1026750*
Y612500*
X1039000Y600250D02*
X1050250D01*
Y611500*
X1039000*
Y600250*
Y612500D02*
X1050250D01*
Y623750*
X1039000*
Y612500*
X1565750Y224250D02*
X1577000D01*
Y235500*
X1565750*
Y224250*
Y236500D02*
X1577000D01*
Y247750*
X1565750*
Y236500*
X1578000Y224250D02*
X1589250D01*
Y235500*
X1578000*
Y224250*
Y236500D02*
X1589250D01*
Y247750*
X1578000*
Y236500*
X1619000Y615500D02*
Y617750D01*
X1622750*
Y621500*
X1625500*
Y615500*
X1619000*
X1619400Y605500D02*
X1630000D01*
Y608500*
X1619400*
Y605500*
Y610500D02*
X1630000D01*
Y613500*
X1619400*
Y610500*
X1625500Y603500D02*
Y597500D01*
X1622750*
Y601250*
X1619000*
Y603500*
X1625500*
X1632000Y605500D02*
X1642600D01*
Y608500*
X1632000*
Y605500*
Y610500D02*
X1642600D01*
Y613500*
X1632000*
Y610500*
X1636500Y615500D02*
Y621500D01*
X1639250*
Y617750*
X1643000*
Y615500*
X1636500*
X1643000Y603500D02*
Y601250D01*
X1639250*
Y597500*
X1636500*
Y603500*
X1643000*
G37*
G54D10*
X50000Y50000D03*
Y798000D03*
X886000Y424000D03*
X1722000Y50000D03*
X1742000Y818000D03*
G54D11*
X126000Y359000D03*
Y368000D03*
X127000Y487500D03*
Y496500D03*
X136000Y206500D03*
Y215500D03*
Y359000D03*
Y368000D03*
X137000Y487500D03*
Y496500D03*
X139500Y455000D03*
Y464000D03*
X141500Y261500D03*
Y270500D03*
X146000Y359000D03*
Y368000D03*
X147000Y487500D03*
Y496500D03*
X149500Y455000D03*
Y464000D03*
X151000Y256500D03*
Y265500D03*
X154500Y557500D03*
Y566500D03*
X164500Y557500D03*
Y566500D03*
Y640000D03*
Y649000D03*
X167500Y229000D03*
Y238000D03*
Y249000D03*
Y258000D03*
X168500Y274000D03*
Y283000D03*
X174500Y562500D03*
Y571500D03*
X177000Y455000D03*
Y464000D03*
Y656500D03*
Y665500D03*
X183500Y274000D03*
Y283000D03*
X187500Y455000D03*
Y464000D03*
X192000Y657500D03*
Y666500D03*
X196000Y274000D03*
Y283000D03*
X202000Y657500D03*
Y666500D03*
X211000Y274000D03*
Y283000D03*
X212000Y652500D03*
Y661500D03*
X217000Y562500D03*
Y571500D03*
X222000Y652500D03*
Y661500D03*
X223500Y264000D03*
Y273000D03*
X232000Y600000D03*
Y609000D03*
Y622500D03*
Y631500D03*
Y657500D03*
Y666500D03*
X233500Y274000D03*
Y283000D03*
X248500Y274000D03*
Y283000D03*
X257000Y662500D03*
Y671500D03*
X261000Y274000D03*
Y283000D03*
X264500Y562500D03*
Y571500D03*
X269500Y662500D03*
Y671500D03*
X274500Y562500D03*
Y571500D03*
X276000Y274000D03*
Y283000D03*
X282000Y662500D03*
Y671500D03*
X285000Y264000D03*
Y273000D03*
X298500Y274000D03*
Y283000D03*
X300000Y585500D03*
Y594500D03*
X309000Y585500D03*
Y594500D03*
X313500Y274000D03*
Y283000D03*
X326000Y274000D03*
Y283000D03*
X332000Y565000D03*
Y574000D03*
X341000Y274000D03*
Y283000D03*
X350000Y264000D03*
Y273000D03*
X363500Y274000D03*
Y283000D03*
X378500Y274000D03*
Y283000D03*
X379500Y590000D03*
Y599000D03*
Y607500D03*
Y616500D03*
X391000Y274000D03*
Y283000D03*
X406000Y274000D03*
Y283000D03*
X415000Y264000D03*
Y273000D03*
X424000Y276500D03*
Y285500D03*
X434500Y274000D03*
Y283000D03*
X439500Y662500D03*
Y671500D03*
X448500Y274000D03*
Y283000D03*
X449500Y565000D03*
Y574000D03*
Y662500D03*
Y671500D03*
X458500Y274000D03*
Y283000D03*
X459500Y565000D03*
Y574000D03*
X468500Y274000D03*
Y283000D03*
X469500Y565000D03*
Y574000D03*
X478500Y176500D03*
Y185500D03*
Y274000D03*
Y283000D03*
X479500Y565000D03*
Y574000D03*
X488500Y176500D03*
Y185500D03*
X493500Y565000D03*
Y574000D03*
X504000Y562500D03*
Y571500D03*
X513000Y575000D03*
Y584000D03*
X522000Y565000D03*
Y574000D03*
X537000Y565000D03*
Y574000D03*
X548500Y231500D03*
Y240500D03*
Y249000D03*
Y258000D03*
X549500Y565000D03*
Y574000D03*
X564500Y565000D03*
Y574000D03*
X578000Y575000D03*
Y584000D03*
X587000Y565000D03*
Y574000D03*
X596000Y274000D03*
Y283000D03*
X602000Y565000D03*
Y574000D03*
X614500Y565000D03*
Y574000D03*
X619000Y253500D03*
Y262500D03*
X628000Y253500D03*
Y262500D03*
X629500Y565000D03*
Y574000D03*
X643000Y575000D03*
Y584000D03*
X646000Y176500D03*
Y185500D03*
X652000Y565000D03*
Y574000D03*
X653500Y276500D03*
Y285500D03*
X658500Y176500D03*
Y185500D03*
X663500Y276500D03*
Y285500D03*
X667000Y565000D03*
Y574000D03*
X671000Y176500D03*
Y185500D03*
X679500Y565000D03*
Y574000D03*
X694500Y565000D03*
Y574000D03*
X696000Y181500D03*
Y190500D03*
Y216500D03*
Y225500D03*
Y239000D03*
Y248000D03*
X704500Y575000D03*
Y584000D03*
X706000Y186500D03*
Y195500D03*
X711000Y276500D03*
Y285500D03*
X716000Y186500D03*
Y195500D03*
X717000Y565000D03*
Y574000D03*
X726000Y181500D03*
Y190500D03*
X732000Y565000D03*
Y574000D03*
X736000Y181500D03*
Y190500D03*
X740500Y384000D03*
Y393000D03*
X744500Y565000D03*
Y574000D03*
X751000Y182500D03*
Y191500D03*
Y384000D03*
Y393000D03*
X753500Y276500D03*
Y285500D03*
X759500Y565000D03*
Y574000D03*
X760500Y590000D03*
Y599000D03*
Y610000D03*
Y619000D03*
X763500Y199000D03*
Y208000D03*
Y281500D03*
Y290500D03*
X773500Y281500D03*
Y290500D03*
X777000Y582500D03*
Y591500D03*
X778500Y384000D03*
Y393000D03*
X781000Y351500D03*
Y360500D03*
X782000Y480000D03*
Y489000D03*
X786500Y577500D03*
Y586500D03*
X788500Y384000D03*
Y393000D03*
X791000Y351500D03*
Y360500D03*
X792000Y480000D03*
Y489000D03*
Y632500D03*
Y641500D03*
X801000Y351500D03*
Y360500D03*
X802000Y480000D03*
Y489000D03*
X970000Y359000D03*
Y368000D03*
X971000Y487500D03*
Y496500D03*
X980000Y206500D03*
Y215500D03*
Y359000D03*
Y368000D03*
X981000Y487500D03*
Y496500D03*
X983500Y455000D03*
Y464000D03*
X985500Y261500D03*
Y270500D03*
X990000Y359000D03*
Y368000D03*
X991000Y487500D03*
Y496500D03*
X993500Y455000D03*
Y464000D03*
X995000Y256500D03*
Y265500D03*
X998500Y557500D03*
Y566500D03*
X1008500Y557500D03*
Y566500D03*
Y640000D03*
Y649000D03*
X1011500Y229000D03*
Y238000D03*
Y249000D03*
Y258000D03*
X1012500Y274000D03*
Y283000D03*
X1018500Y562500D03*
Y571500D03*
X1021000Y455000D03*
Y464000D03*
Y656500D03*
Y665500D03*
X1027500Y274000D03*
Y283000D03*
X1031500Y455000D03*
Y464000D03*
X1036000Y657500D03*
Y666500D03*
X1040000Y274000D03*
Y283000D03*
X1046000Y657500D03*
Y666500D03*
X1055000Y274000D03*
Y283000D03*
X1056000Y652500D03*
Y661500D03*
X1061000Y562500D03*
Y571500D03*
X1066000Y652500D03*
Y661500D03*
X1067500Y264000D03*
Y273000D03*
X1076000Y600000D03*
Y609000D03*
Y622500D03*
Y631500D03*
Y657500D03*
Y666500D03*
X1077500Y274000D03*
Y283000D03*
X1092500Y274000D03*
Y283000D03*
X1101000Y662500D03*
Y671500D03*
X1105000Y274000D03*
Y283000D03*
X1108500Y562500D03*
Y571500D03*
X1113500Y662500D03*
Y671500D03*
X1118500Y562500D03*
Y571500D03*
X1120000Y274000D03*
Y283000D03*
X1126000Y662500D03*
Y671500D03*
X1129000Y264000D03*
Y273000D03*
X1142500Y274000D03*
Y283000D03*
X1144000Y585500D03*
Y594500D03*
X1153000Y585500D03*
Y594500D03*
X1157500Y274000D03*
Y283000D03*
X1170000Y274000D03*
Y283000D03*
X1176000Y565000D03*
Y574000D03*
X1185000Y274000D03*
Y283000D03*
X1194000Y264000D03*
Y273000D03*
X1207500Y274000D03*
Y283000D03*
X1222500Y274000D03*
Y283000D03*
X1223500Y590000D03*
Y599000D03*
Y607500D03*
Y616500D03*
X1235000Y274000D03*
Y283000D03*
X1250000Y274000D03*
Y283000D03*
X1259000Y264000D03*
Y273000D03*
X1268000Y276500D03*
Y285500D03*
X1278500Y274000D03*
Y283000D03*
X1283500Y662500D03*
Y671500D03*
X1292500Y274000D03*
Y283000D03*
X1293500Y565000D03*
Y574000D03*
Y662500D03*
Y671500D03*
X1302500Y274000D03*
Y283000D03*
X1303500Y565000D03*
Y574000D03*
X1312500Y274000D03*
Y283000D03*
X1313500Y565000D03*
Y574000D03*
X1322500Y176500D03*
Y185500D03*
Y274000D03*
Y283000D03*
X1323500Y565000D03*
Y574000D03*
X1332500Y176500D03*
Y185500D03*
X1337500Y565000D03*
Y574000D03*
X1348000Y562500D03*
Y571500D03*
X1357000Y575000D03*
Y584000D03*
X1366000Y565000D03*
Y574000D03*
X1381000Y565000D03*
Y574000D03*
X1392500Y231500D03*
Y240500D03*
Y249000D03*
Y258000D03*
X1393500Y565000D03*
Y574000D03*
X1408500Y565000D03*
Y574000D03*
X1422000Y575000D03*
Y584000D03*
X1431000Y565000D03*
Y574000D03*
X1440000Y274000D03*
Y283000D03*
X1446000Y565000D03*
Y574000D03*
X1458500Y565000D03*
Y574000D03*
X1463000Y253500D03*
Y262500D03*
X1472000Y253500D03*
Y262500D03*
X1473500Y565000D03*
Y574000D03*
X1487000Y575000D03*
Y584000D03*
X1490000Y176500D03*
Y185500D03*
X1496000Y565000D03*
Y574000D03*
X1497500Y276500D03*
Y285500D03*
X1502500Y176500D03*
Y185500D03*
X1507500Y276500D03*
Y285500D03*
X1511000Y565000D03*
Y574000D03*
X1515000Y176500D03*
Y185500D03*
X1523500Y565000D03*
Y574000D03*
X1538500Y565000D03*
Y574000D03*
X1540000Y181500D03*
Y190500D03*
Y216500D03*
Y225500D03*
Y239000D03*
Y248000D03*
X1548500Y575000D03*
Y584000D03*
X1550000Y186500D03*
Y195500D03*
X1555000Y276500D03*
Y285500D03*
X1560000Y186500D03*
Y195500D03*
X1561000Y565000D03*
Y574000D03*
X1570000Y181500D03*
Y190500D03*
X1576000Y565000D03*
Y574000D03*
X1580000Y181500D03*
Y190500D03*
X1584500Y384000D03*
Y393000D03*
X1588500Y565000D03*
Y574000D03*
X1595000Y182500D03*
Y191500D03*
Y384000D03*
Y393000D03*
X1597500Y276500D03*
Y285500D03*
X1603500Y565000D03*
Y574000D03*
X1604500Y590000D03*
Y599000D03*
Y610000D03*
Y619000D03*
X1607500Y199000D03*
Y208000D03*
Y281500D03*
Y290500D03*
X1617500Y281500D03*
Y290500D03*
X1621000Y582500D03*
Y591500D03*
X1622500Y384000D03*
Y393000D03*
X1625000Y351500D03*
Y360500D03*
X1626000Y480000D03*
Y489000D03*
X1630500Y577500D03*
Y586500D03*
X1632500Y384000D03*
Y393000D03*
X1635000Y351500D03*
Y360500D03*
X1636000Y480000D03*
Y489000D03*
Y632500D03*
Y641500D03*
X1645000Y351500D03*
Y360500D03*
X1646000Y480000D03*
Y489000D03*
G54D12*
X132500Y627000D03*
X137500Y477000D03*
X141500Y627000D03*
X146500Y213500D03*
Y477000D03*
X152500Y627000D03*
X155500Y213500D03*
X161500Y627000D03*
X171500Y176000D03*
X179000Y265000D03*
X180500Y176000D03*
X188000Y265000D03*
X189000Y175310D03*
X196500Y265000D03*
X198000Y175310D03*
X205500Y265000D03*
X206500Y176000D03*
X215500D03*
X225000Y579500D03*
Y589500D03*
Y642000D03*
X227500Y567000D03*
X229000Y176000D03*
X234000Y579500D03*
Y589500D03*
Y642000D03*
X236500Y567000D03*
X238000Y176000D03*
X241500Y265000D03*
X245000Y564500D03*
X246500Y176000D03*
X250500Y265000D03*
X254000Y564500D03*
X255500Y176000D03*
X259000Y265000D03*
X264000Y176000D03*
X268000Y265000D03*
X273000Y176000D03*
X291500D03*
X300500D03*
X304000Y265000D03*
X309000Y176000D03*
X313000Y265000D03*
X318000Y176000D03*
X321500Y265000D03*
X326500Y176000D03*
X330500Y265000D03*
X335500Y176000D03*
X354000D03*
X363000D03*
X366500Y265000D03*
X371500Y176000D03*
X375500Y265000D03*
X380500Y176000D03*
X384000Y265000D03*
X389000Y176000D03*
X393000Y265000D03*
X398000Y176000D03*
X417500Y664500D03*
X419000Y186000D03*
X426500Y664500D03*
X428000Y186000D03*
X436500D03*
X445500D03*
X459000Y176000D03*
X460000Y672000D03*
X468000Y176000D03*
X469000Y672000D03*
X482500Y662000D03*
X491500D03*
X500000D03*
X501500Y183500D03*
X509000Y662000D03*
X510500Y183500D03*
X530000Y672000D03*
X535000Y583000D03*
X539000Y672000D03*
X544000Y583000D03*
X547500Y672000D03*
X552500Y583000D03*
X556500Y672000D03*
X561500Y583000D03*
X565000Y672000D03*
X574000D03*
X592500D03*
X597500Y583000D03*
X601500Y672000D03*
X606500Y583000D03*
X610000Y672000D03*
X615000Y583000D03*
X619000Y672000D03*
X624000Y583000D03*
X627500Y672000D03*
X636500D03*
X655000D03*
X660000Y583000D03*
X664000Y672000D03*
X669000Y583000D03*
X672500Y672000D03*
X674000Y283500D03*
X677500Y583000D03*
X681500Y672000D03*
X683000Y283500D03*
X686500Y583000D03*
X690000Y672000D03*
X691500Y281000D03*
X694000Y206000D03*
Y258500D03*
Y268500D03*
X699000Y672000D03*
X700500Y281000D03*
X703000Y206000D03*
Y258500D03*
Y268500D03*
X712500Y672000D03*
X721500D03*
X722500Y583000D03*
X730000Y672690D03*
X731500Y583000D03*
X739000Y672690D03*
X740000Y583000D03*
X747500Y672000D03*
X749000Y583000D03*
X756500Y672000D03*
X766500Y221000D03*
X772500Y634500D03*
X775500Y221000D03*
X781500Y371000D03*
Y634500D03*
X786500Y221000D03*
X790500Y371000D03*
X795500Y221000D03*
X976500Y627000D03*
X981500Y477000D03*
X985500Y627000D03*
X990500Y213500D03*
Y477000D03*
X996500Y627000D03*
X999500Y213500D03*
X1005500Y627000D03*
X1015500Y176000D03*
X1023000Y265000D03*
X1024500Y176000D03*
X1032000Y265000D03*
X1033000Y175310D03*
X1040500Y265000D03*
X1042000Y175310D03*
X1049500Y265000D03*
X1050500Y176000D03*
X1059500D03*
X1069000Y579500D03*
Y589500D03*
Y642000D03*
X1071500Y567000D03*
X1073000Y176000D03*
X1078000Y579500D03*
Y589500D03*
Y642000D03*
X1080500Y567000D03*
X1082000Y176000D03*
X1085500Y265000D03*
X1089000Y564500D03*
X1090500Y176000D03*
X1094500Y265000D03*
X1098000Y564500D03*
X1099500Y176000D03*
X1103000Y265000D03*
X1108000Y176000D03*
X1112000Y265000D03*
X1117000Y176000D03*
X1135500D03*
X1144500D03*
X1148000Y265000D03*
X1153000Y176000D03*
X1157000Y265000D03*
X1162000Y176000D03*
X1165500Y265000D03*
X1170500Y176000D03*
X1174500Y265000D03*
X1179500Y176000D03*
X1198000D03*
X1207000D03*
X1210500Y265000D03*
X1215500Y176000D03*
X1219500Y265000D03*
X1224500Y176000D03*
X1228000Y265000D03*
X1233000Y176000D03*
X1237000Y265000D03*
X1242000Y176000D03*
X1261500Y664500D03*
X1263000Y186000D03*
X1270500Y664500D03*
X1272000Y186000D03*
X1280500D03*
X1289500D03*
X1303000Y176000D03*
X1304000Y672000D03*
X1312000Y176000D03*
X1313000Y672000D03*
X1326500Y662000D03*
X1335500D03*
X1344000D03*
X1345500Y183500D03*
X1353000Y662000D03*
X1354500Y183500D03*
X1374000Y672000D03*
X1379000Y583000D03*
X1383000Y672000D03*
X1388000Y583000D03*
X1391500Y672000D03*
X1396500Y583000D03*
X1400500Y672000D03*
X1405500Y583000D03*
X1409000Y672000D03*
X1418000D03*
X1436500D03*
X1441500Y583000D03*
X1445500Y672000D03*
X1450500Y583000D03*
X1454000Y672000D03*
X1459000Y583000D03*
X1463000Y672000D03*
X1468000Y583000D03*
X1471500Y672000D03*
X1480500D03*
X1499000D03*
X1504000Y583000D03*
X1508000Y672000D03*
X1513000Y583000D03*
X1516500Y672000D03*
X1518000Y283500D03*
X1521500Y583000D03*
X1525500Y672000D03*
X1527000Y283500D03*
X1530500Y583000D03*
X1534000Y672000D03*
X1535500Y281000D03*
X1538000Y206000D03*
Y258500D03*
Y268500D03*
X1543000Y672000D03*
X1544500Y281000D03*
X1547000Y206000D03*
Y258500D03*
Y268500D03*
X1556500Y672000D03*
X1565500D03*
X1566500Y583000D03*
X1574000Y672690D03*
X1575500Y583000D03*
X1583000Y672690D03*
X1584000Y583000D03*
X1591500Y672000D03*
X1593000Y583000D03*
X1600500Y672000D03*
X1610500Y221000D03*
X1616500Y634500D03*
X1619500Y221000D03*
X1625500Y371000D03*
Y634500D03*
X1630500Y221000D03*
X1634500Y371000D03*
X1639500Y221000D03*
G54D13*
X334000Y667000D03*
X350000D03*
X364000D03*
X374000Y567000D03*
X380000Y667000D03*
X390000Y567000D03*
X538000Y281000D03*
X548000Y181000D03*
X554000Y281000D03*
X564000Y181000D03*
X578000D03*
X594000D03*
X1178000Y667000D03*
X1194000D03*
X1208000D03*
X1218000Y567000D03*
X1224000Y667000D03*
X1234000Y567000D03*
X1382000Y281000D03*
X1392000Y181000D03*
X1398000Y281000D03*
X1408000Y181000D03*
X1422000D03*
X1438000D03*
G54D14*
X178250Y191500D03*
Y250500D03*
X184750Y191500D03*
Y250500D03*
X191250Y191500D03*
Y250500D03*
X197750Y191500D03*
Y250500D03*
X204250Y191500D03*
Y250500D03*
X210750Y191500D03*
Y250500D03*
X217250Y191500D03*
Y250500D03*
X223750Y191500D03*
Y250500D03*
X238250Y191500D03*
Y250500D03*
X244750Y191500D03*
Y250500D03*
X247500Y587500D03*
Y646500D03*
X251250Y191500D03*
Y250500D03*
X254000Y587500D03*
Y646500D03*
X257750Y191500D03*
Y250500D03*
X260500Y587500D03*
Y646500D03*
X264250Y191500D03*
Y250500D03*
X267000Y587500D03*
Y646500D03*
X270750Y191500D03*
Y250500D03*
X273500Y587500D03*
Y646500D03*
X277250Y191500D03*
Y250500D03*
X280000Y587500D03*
Y646500D03*
X283750Y191500D03*
Y250500D03*
X286500Y587500D03*
Y646500D03*
X300750Y191500D03*
Y250500D03*
X307250Y191500D03*
Y250500D03*
X313750Y191500D03*
Y250500D03*
X319250Y587500D03*
Y646500D03*
X320250Y191500D03*
Y250500D03*
X325750Y587500D03*
Y646500D03*
X326750Y191500D03*
Y250500D03*
X332250Y587500D03*
Y646500D03*
X333250Y191500D03*
Y250500D03*
X338750Y587500D03*
Y646500D03*
X339750Y191500D03*
Y250500D03*
X345250Y587500D03*
Y646500D03*
X346250Y191500D03*
Y250500D03*
X351750Y587500D03*
Y646500D03*
X358250Y587500D03*
Y646500D03*
X363250Y191500D03*
Y250500D03*
X364750Y587500D03*
Y646500D03*
X369750Y191500D03*
Y250500D03*
X376250Y191500D03*
Y250500D03*
X382750Y191500D03*
Y250500D03*
X389250Y191500D03*
Y250500D03*
X395750Y191500D03*
Y250500D03*
X397500Y587500D03*
Y646500D03*
X402250Y191500D03*
Y250500D03*
X404000Y587500D03*
Y646500D03*
X408750Y191500D03*
Y250500D03*
X410500Y587500D03*
Y646500D03*
X417000Y587500D03*
Y646500D03*
X423500Y587500D03*
Y646500D03*
X429000Y201500D03*
Y260500D03*
X430000Y587500D03*
Y646500D03*
X435500Y201500D03*
Y260500D03*
X436500Y587500D03*
Y646500D03*
X442000Y201500D03*
Y260500D03*
X448500Y201500D03*
Y260500D03*
X455000Y201500D03*
Y260500D03*
X460000Y587500D03*
Y646500D03*
X461500Y201500D03*
Y260500D03*
X466500Y587500D03*
Y646500D03*
X468000Y201500D03*
Y260500D03*
X473000Y587500D03*
Y646500D03*
X479500Y587500D03*
Y646500D03*
X486000Y587500D03*
Y646500D03*
X491500Y201500D03*
Y260500D03*
X492500Y587500D03*
Y646500D03*
X498000Y201500D03*
Y260500D03*
X499000Y587500D03*
Y646500D03*
X504500Y201500D03*
Y260500D03*
X511000Y201500D03*
Y260500D03*
X517500Y201500D03*
Y260500D03*
X519250Y597500D03*
Y656500D03*
X524000Y201500D03*
Y260500D03*
X525750Y597500D03*
Y656500D03*
X530500Y201500D03*
Y260500D03*
X532250Y597500D03*
Y656500D03*
X538750Y597500D03*
Y656500D03*
X545250Y597500D03*
Y656500D03*
X551750Y597500D03*
Y656500D03*
X558250Y597500D03*
Y656500D03*
X563250Y201500D03*
Y260500D03*
X564750Y597500D03*
Y656500D03*
X569750Y201500D03*
Y260500D03*
X576250Y201500D03*
Y260500D03*
X581750Y597500D03*
Y656500D03*
X582750Y201500D03*
Y260500D03*
X588250Y597500D03*
Y656500D03*
X589250Y201500D03*
Y260500D03*
X594750Y597500D03*
Y656500D03*
X595750Y201500D03*
Y260500D03*
X601250Y597500D03*
Y656500D03*
X602250Y201500D03*
Y260500D03*
X607750Y597500D03*
Y656500D03*
X608750Y201500D03*
Y260500D03*
X614250Y597500D03*
Y656500D03*
X620750Y597500D03*
Y656500D03*
X627250Y597500D03*
Y656500D03*
X641500Y201500D03*
Y260500D03*
X644250Y597500D03*
Y656500D03*
X648000Y201500D03*
Y260500D03*
X650750Y597500D03*
Y656500D03*
X654500Y201500D03*
Y260500D03*
X657250Y597500D03*
Y656500D03*
X661000Y201500D03*
Y260500D03*
X663750Y597500D03*
Y656500D03*
X667500Y201500D03*
Y260500D03*
X670250Y597500D03*
Y656500D03*
X674000Y201500D03*
Y260500D03*
X676750Y597500D03*
Y656500D03*
X680500Y201500D03*
Y260500D03*
X683250Y597500D03*
Y656500D03*
X689750Y597500D03*
Y656500D03*
X704250Y597500D03*
Y656500D03*
X710750Y597500D03*
Y656500D03*
X717250Y597500D03*
Y656500D03*
X723750Y597500D03*
Y656500D03*
X730250Y597500D03*
Y656500D03*
X736750Y597500D03*
Y656500D03*
X743250Y597500D03*
Y656500D03*
X749750Y597500D03*
Y656500D03*
X1022250Y191500D03*
Y250500D03*
X1028750Y191500D03*
Y250500D03*
X1035250Y191500D03*
Y250500D03*
X1041750Y191500D03*
Y250500D03*
X1048250Y191500D03*
Y250500D03*
X1054750Y191500D03*
Y250500D03*
X1061250Y191500D03*
Y250500D03*
X1067750Y191500D03*
Y250500D03*
X1082250Y191500D03*
Y250500D03*
X1088750Y191500D03*
Y250500D03*
X1091500Y587500D03*
Y646500D03*
X1095250Y191500D03*
Y250500D03*
X1098000Y587500D03*
Y646500D03*
X1101750Y191500D03*
Y250500D03*
X1104500Y587500D03*
Y646500D03*
X1108250Y191500D03*
Y250500D03*
X1111000Y587500D03*
Y646500D03*
X1114750Y191500D03*
Y250500D03*
X1117500Y587500D03*
Y646500D03*
X1121250Y191500D03*
Y250500D03*
X1124000Y587500D03*
Y646500D03*
X1127750Y191500D03*
Y250500D03*
X1130500Y587500D03*
Y646500D03*
X1144750Y191500D03*
Y250500D03*
X1151250Y191500D03*
Y250500D03*
X1157750Y191500D03*
Y250500D03*
X1163250Y587500D03*
Y646500D03*
X1164250Y191500D03*
Y250500D03*
X1169750Y587500D03*
Y646500D03*
X1170750Y191500D03*
Y250500D03*
X1176250Y587500D03*
Y646500D03*
X1177250Y191500D03*
Y250500D03*
X1182750Y587500D03*
Y646500D03*
X1183750Y191500D03*
Y250500D03*
X1189250Y587500D03*
Y646500D03*
X1190250Y191500D03*
Y250500D03*
X1195750Y587500D03*
Y646500D03*
X1202250Y587500D03*
Y646500D03*
X1207250Y191500D03*
Y250500D03*
X1208750Y587500D03*
Y646500D03*
X1213750Y191500D03*
Y250500D03*
X1220250Y191500D03*
Y250500D03*
X1226750Y191500D03*
Y250500D03*
X1233250Y191500D03*
Y250500D03*
X1239750Y191500D03*
Y250500D03*
X1241500Y587500D03*
Y646500D03*
X1246250Y191500D03*
Y250500D03*
X1248000Y587500D03*
Y646500D03*
X1252750Y191500D03*
Y250500D03*
X1254500Y587500D03*
Y646500D03*
X1261000Y587500D03*
Y646500D03*
X1267500Y587500D03*
Y646500D03*
X1273000Y201500D03*
Y260500D03*
X1274000Y587500D03*
Y646500D03*
X1279500Y201500D03*
Y260500D03*
X1280500Y587500D03*
Y646500D03*
X1286000Y201500D03*
Y260500D03*
X1292500Y201500D03*
Y260500D03*
X1299000Y201500D03*
Y260500D03*
X1304000Y587500D03*
Y646500D03*
X1305500Y201500D03*
Y260500D03*
X1310500Y587500D03*
Y646500D03*
X1312000Y201500D03*
Y260500D03*
X1317000Y587500D03*
Y646500D03*
X1323500Y587500D03*
Y646500D03*
X1330000Y587500D03*
Y646500D03*
X1335500Y201500D03*
Y260500D03*
X1336500Y587500D03*
Y646500D03*
X1342000Y201500D03*
Y260500D03*
X1343000Y587500D03*
Y646500D03*
X1348500Y201500D03*
Y260500D03*
X1355000Y201500D03*
Y260500D03*
X1361500Y201500D03*
Y260500D03*
X1363250Y597500D03*
Y656500D03*
X1368000Y201500D03*
Y260500D03*
X1369750Y597500D03*
Y656500D03*
X1374500Y201500D03*
Y260500D03*
X1376250Y597500D03*
Y656500D03*
X1382750Y597500D03*
Y656500D03*
X1389250Y597500D03*
Y656500D03*
X1395750Y597500D03*
Y656500D03*
X1402250Y597500D03*
Y656500D03*
X1407250Y201500D03*
Y260500D03*
X1408750Y597500D03*
Y656500D03*
X1413750Y201500D03*
Y260500D03*
X1420250Y201500D03*
Y260500D03*
X1425750Y597500D03*
Y656500D03*
X1426750Y201500D03*
Y260500D03*
X1432250Y597500D03*
Y656500D03*
X1433250Y201500D03*
Y260500D03*
X1438750Y597500D03*
Y656500D03*
X1439750Y201500D03*
Y260500D03*
X1445250Y597500D03*
Y656500D03*
X1446250Y201500D03*
Y260500D03*
X1451750Y597500D03*
Y656500D03*
X1452750Y201500D03*
Y260500D03*
X1458250Y597500D03*
Y656500D03*
X1464750Y597500D03*
Y656500D03*
X1471250Y597500D03*
Y656500D03*
X1485500Y201500D03*
Y260500D03*
X1488250Y597500D03*
Y656500D03*
X1492000Y201500D03*
Y260500D03*
X1494750Y597500D03*
Y656500D03*
X1498500Y201500D03*
Y260500D03*
X1501250Y597500D03*
Y656500D03*
X1505000Y201500D03*
Y260500D03*
X1507750Y597500D03*
Y656500D03*
X1511500Y201500D03*
Y260500D03*
X1514250Y597500D03*
Y656500D03*
X1518000Y201500D03*
Y260500D03*
X1520750Y597500D03*
Y656500D03*
X1524500Y201500D03*
Y260500D03*
X1527250Y597500D03*
Y656500D03*
X1533750Y597500D03*
Y656500D03*
X1548250Y597500D03*
Y656500D03*
X1554750Y597500D03*
Y656500D03*
X1561250Y597500D03*
Y656500D03*
X1567750Y597500D03*
Y656500D03*
X1574250Y597500D03*
Y656500D03*
X1580750Y597500D03*
Y656500D03*
X1587250Y597500D03*
Y656500D03*
X1593750Y597500D03*
Y656500D03*
G54D15*
X163500Y343000D03*
Y359000D03*
X304500Y631500D03*
Y647500D03*
X379500Y631500D03*
Y647500D03*
X548500Y200500D03*
Y216500D03*
X623500Y200500D03*
Y216500D03*
X764500Y489000D03*
Y505000D03*
X1007500Y343000D03*
Y359000D03*
X1148500Y631500D03*
Y647500D03*
X1223500Y631500D03*
Y647500D03*
X1392500Y200500D03*
Y216500D03*
X1467500Y200500D03*
Y216500D03*
X1608500Y489000D03*
Y505000D03*
G54D16*
X156000Y309500D03*
Y327500D03*
X158500Y180500D03*
Y198500D03*
X186000Y304500D03*
Y322500D03*
X742000Y525500D03*
Y543500D03*
X769500Y649500D03*
Y667500D03*
X772000Y520500D03*
Y538500D03*
X1000000Y309500D03*
Y327500D03*
X1002500Y180500D03*
Y198500D03*
X1030000Y304500D03*
Y322500D03*
X1586000Y525500D03*
Y543500D03*
X1613500Y649500D03*
Y667500D03*
X1616000Y520500D03*
Y538500D03*
G54D17*
X138750Y229500D03*
Y247500D03*
X143250Y229500D03*
Y247500D03*
X784750Y600500D03*
Y618500D03*
X789250Y600500D03*
Y618500D03*
X982750Y229500D03*
Y247500D03*
X987250Y229500D03*
Y247500D03*
X1628750Y600500D03*
Y618500D03*
X1633250Y600500D03*
Y618500D03*
G54D18*
X178000Y494500D03*
Y524500D03*
X750000Y323500D03*
Y353500D03*
X1022000Y494500D03*
Y524500D03*
X1594000Y323500D03*
Y353500D03*
G54D19*
X131400Y259000D03*
Y268000D03*
X151000Y274100D03*
Y283100D03*
X777000Y564900D03*
Y573900D03*
X796600Y580000D03*
Y589000D03*
X975400Y259000D03*
Y268000D03*
X995000Y274100D03*
Y283100D03*
X1621000Y564900D03*
Y573900D03*
X1640600Y580000D03*
Y589000D03*
G54D20*
X214000Y599500D03*
Y604500D03*
Y609500D03*
Y614500D03*
Y619500D03*
Y624500D03*
X753000Y223500D03*
Y228500D03*
Y233500D03*
Y238500D03*
Y243500D03*
Y248500D03*
X1058000Y599500D03*
Y604500D03*
Y609500D03*
Y614500D03*
Y619500D03*
Y624500D03*
X1597000Y223500D03*
Y228500D03*
Y233500D03*
Y238500D03*
Y243500D03*
Y248500D03*
G54D21*
X182000Y631500D03*
X187000D03*
X192000D03*
X197000D03*
X202000D03*
X207000D03*
X721000Y255500D03*
X726000D03*
X731000D03*
X736000D03*
X741000D03*
X746000D03*
X1026000Y631500D03*
X1031000D03*
X1036000D03*
X1041000D03*
X1046000D03*
X1051000D03*
X1565000Y255500D03*
X1570000D03*
X1575000D03*
X1580000D03*
X1585000D03*
X1590000D03*
G54D22*
X175000Y599500D03*
Y604500D03*
Y609500D03*
Y614500D03*
Y619500D03*
Y624500D03*
X714000Y223500D03*
Y228500D03*
Y233500D03*
Y238500D03*
Y243500D03*
Y248500D03*
X1019000Y599500D03*
Y604500D03*
Y609500D03*
Y614500D03*
Y619500D03*
Y624500D03*
X1558000Y223500D03*
Y228500D03*
Y233500D03*
Y238500D03*
Y243500D03*
Y248500D03*
G54D23*
X132500Y583000D03*
Y611000D03*
X142000Y583000D03*
Y611000D03*
X151500Y583000D03*
Y611000D03*
X776500Y237000D03*
Y265000D03*
X786000Y237000D03*
Y265000D03*
X795500Y237000D03*
Y265000D03*
X976500Y583000D03*
Y611000D03*
X986000Y583000D03*
Y611000D03*
X995500Y583000D03*
Y611000D03*
X1620500Y237000D03*
Y265000D03*
X1630000Y237000D03*
Y265000D03*
X1639500Y237000D03*
Y265000D03*
G54D70*
X133000Y648500D03*
X151000D03*
X298000Y567500D03*
X316000D03*
X612000Y280500D03*
X630000D03*
X777000Y199500D03*
X795000D03*
X977000Y648500D03*
X995000D03*
X1142000Y567500D03*
X1160000D03*
X1456000Y280500D03*
X1474000D03*
X1621000Y199500D03*
X1639000D03*
G54D71*
X182000Y592500D03*
X187000D03*
X192000D03*
X197000D03*
X202000D03*
X207000D03*
X721000Y216500D03*
X726000D03*
X731000D03*
X736000D03*
X741000D03*
X746000D03*
X1026000Y592500D03*
X1031000D03*
X1036000D03*
X1041000D03*
X1046000D03*
X1051000D03*
X1565000Y216500D03*
X1570000D03*
X1575000D03*
X1580000D03*
X1585000D03*
X1590000D03*
M02*
