*
G04 Job   : C:\Users\MartinJohansson\OneDrive - E-Sharp AB\DesignLabs\PLM\Projects\ELECTRONICS\Fixture_Link\Fixture_Link_R2\PCB\Panel\fixture_link\fixture_link.pnl*
G04 User  : ESHARP-MARTIN:MartinJohansson*
G04 Layer : Pastebottom.gbp*
G04 Date  : Wed Dec 10 09:10:18 2025*
G04 Solderpaste bottom*
%ICAS*%
%MOMM*%
%FSLAX24Y24*%
%OFA0.0000B0.0000*%
G90*
G74*
%AMVB_RECTANGLE*
21,1,$1,$2,0,0,$3*
%
%ADD10C,1.00000*%
%ADD12VB_RECTANGLE,0.50000X0.80000X0.00000*%
%ADD14VB_RECTANGLE,0.70000X0.90000X180.00000*%
%ADD11VB_RECTANGLE,0.70000X0.90000X90.00000*%
%ADD13VB_RECTANGLE,1.50000X1.00000X0.00000*%
G01*
G54D10*
X50000Y50000D03*
Y798000D03*
X886000Y424000D03*
X1722000Y50000D03*
X1742000Y818000D03*
G54D11*
X163500Y273500D03*
X183500Y264000D03*
Y283000D03*
X196000Y264000D03*
Y283000D03*
X216000Y273500D03*
X228500D03*
X248500Y264000D03*
Y283000D03*
X261000Y264000D03*
Y283000D03*
X281000Y273500D03*
X293500D03*
X313500Y264000D03*
Y283000D03*
X326000Y264000D03*
Y283000D03*
X346000Y273500D03*
X358500D03*
X378500Y264000D03*
Y283000D03*
X391000Y264000D03*
Y283000D03*
X411000Y273500D03*
X517000Y574500D03*
X537000Y565000D03*
Y584000D03*
X549500Y565000D03*
Y584000D03*
X569500Y574500D03*
X582000D03*
X602000Y565000D03*
Y584000D03*
X614500Y565000D03*
Y584000D03*
X634500Y574500D03*
X647000D03*
X667000Y565000D03*
Y584000D03*
X679500Y565000D03*
Y584000D03*
X699500Y574500D03*
X712000D03*
X732000Y565000D03*
Y584000D03*
X744500Y565000D03*
Y584000D03*
X764500Y574500D03*
X1007500Y273500D03*
X1027500Y264000D03*
Y283000D03*
X1040000Y264000D03*
Y283000D03*
X1060000Y273500D03*
X1072500D03*
X1092500Y264000D03*
Y283000D03*
X1105000Y264000D03*
Y283000D03*
X1125000Y273500D03*
X1137500D03*
X1157500Y264000D03*
Y283000D03*
X1170000Y264000D03*
Y283000D03*
X1190000Y273500D03*
X1202500D03*
X1222500Y264000D03*
Y283000D03*
X1235000Y264000D03*
Y283000D03*
X1255000Y273500D03*
X1361000Y574500D03*
X1381000Y565000D03*
Y584000D03*
X1393500Y565000D03*
Y584000D03*
X1413500Y574500D03*
X1426000D03*
X1446000Y565000D03*
Y584000D03*
X1458500Y565000D03*
Y584000D03*
X1478500Y574500D03*
X1491000D03*
X1511000Y565000D03*
Y584000D03*
X1523500Y565000D03*
Y584000D03*
X1543500Y574500D03*
X1556000D03*
X1576000Y565000D03*
Y584000D03*
X1588500Y565000D03*
Y584000D03*
X1608500Y574500D03*
G54D12*
X158000Y464000D03*
X159500Y384000D03*
X166000Y464000D03*
X167500Y384000D03*
X290500Y464000D03*
X298500D03*
X299500Y384000D03*
X307500D03*
X400500Y464000D03*
X408500D03*
X409500Y384000D03*
X417500D03*
X510500Y464000D03*
X518500D03*
X519500Y384000D03*
X527500D03*
X620500Y464000D03*
X628500D03*
X629500Y384000D03*
X637500D03*
X760500Y464000D03*
X762000Y384000D03*
X768500Y464000D03*
X770000Y384000D03*
X1002000Y464000D03*
X1003500Y384000D03*
X1010000Y464000D03*
X1011500Y384000D03*
X1134500Y464000D03*
X1142500D03*
X1143500Y384000D03*
X1151500D03*
X1244500Y464000D03*
X1252500D03*
X1253500Y384000D03*
X1261500D03*
X1354500Y464000D03*
X1362500D03*
X1363500Y384000D03*
X1371500D03*
X1464500Y464000D03*
X1472500D03*
X1473500Y384000D03*
X1481500D03*
X1604500Y464000D03*
X1606000Y384000D03*
X1612500Y464000D03*
X1614000Y384000D03*
G54D13*
X144500Y459500D03*
X146000Y388500D03*
X179500Y459500D03*
X181000Y388500D03*
X277000Y459500D03*
X286000Y388500D03*
X312000Y459500D03*
X321000Y388500D03*
X387000Y459500D03*
X396000Y388500D03*
X422000Y459500D03*
X431000Y388500D03*
X497000Y459500D03*
X506000Y388500D03*
X532000Y459500D03*
X541000Y388500D03*
X607000Y459500D03*
X616000Y388500D03*
X642000Y459500D03*
X651000Y388500D03*
X747000Y459500D03*
X748500Y388500D03*
X782000Y459500D03*
X783500Y388500D03*
X988500Y459500D03*
X990000Y388500D03*
X1023500Y459500D03*
X1025000Y388500D03*
X1121000Y459500D03*
X1130000Y388500D03*
X1156000Y459500D03*
X1165000Y388500D03*
X1231000Y459500D03*
X1240000Y388500D03*
X1266000Y459500D03*
X1275000Y388500D03*
X1341000Y459500D03*
X1350000Y388500D03*
X1376000Y459500D03*
X1385000Y388500D03*
X1451000Y459500D03*
X1460000Y388500D03*
X1486000Y459500D03*
X1495000Y388500D03*
X1591000Y459500D03*
X1592500Y388500D03*
X1626000Y459500D03*
X1627500Y388500D03*
G54D14*
X350000Y479500D03*
X359000Y368500D03*
X359500Y459500D03*
X368500Y388500D03*
X369000Y479500D03*
X378000Y368500D03*
X550000Y479500D03*
X559000Y368500D03*
X559500Y459500D03*
X568500Y388500D03*
X569000Y479500D03*
X578000Y368500D03*
X1194000Y479500D03*
X1203000Y368500D03*
X1203500Y459500D03*
X1212500Y388500D03*
X1213000Y479500D03*
X1222000Y368500D03*
X1394000Y479500D03*
X1403000Y368500D03*
X1403500Y459500D03*
X1412500Y388500D03*
X1413000Y479500D03*
X1422000Y368500D03*
M02*
