; Version : LOCAL
; Job     : C:\Users\MartinJohansson\OneDrive - E-Sharp AB\DesignLabs\PLM\Projects\ELECTRONICS\Sparrow_Fixture_Electronics\Sparrow_FE_R3\PCB\sparrow_fixture.pcb
; User    : ESHARP-MARTIN:MartinJohansson
; Date    : Mon Dec 22 10:40:39 2025
; Format  : 3.3 / Absolute / MM / Leading
; Contents: Thru / Drill / Plated
M48
METRIC,TZ
FMAT,2
ICI,OFF
T05C0.250
T02C0.600
T03C1.100
T06C3.200
T01C4.200
%
M71
G90
G93X0Y0
T05
X124250Y1250
X123250
X122250
X121250
X120250
X119250
X118250
X117250
X116250
X115250
X40950Y2000
X38500Y1600
X37500
X24250Y3500
X32500
X38000
X42250
X46250
X114750Y3550
X115750
X116750
X117750
X118750
X119750
X120750
X121750
X122750
X123750
X129000Y6900
X124250Y7250
X123750Y6300
X122750
X122250Y7250
X121250
X120750Y6300
X119750
X119250Y7300
X118250
X117750Y6300
X115250Y7300
X114750Y6300
X95000Y7250
X93500
X79000
X77500
X59000Y7000
X56000
X46250Y5000
X42250
X38000
X32500
X24250
X57000Y8000
X110250Y7500
X111250
X112250
X113250
Y9500
X114250Y7500
X121750Y9500
X123250
X125750Y7500
X126750
X127750
Y9500
X129300Y8000
X130550Y9150
X138500Y10500
X138100Y12050
X132400Y11150
X129500Y10250
X126200Y10500
X124400
X119500Y10200
X116500
X114200
X110500Y11750
X108500Y10750
X75850Y12450
X68200Y10000
Y12150
X66900Y12000
X66850Y10000
X58300Y12000
X57300
X56300Y11850
X25500Y14000
X31250
X43250Y13750
X45200
Y14750
X47000Y13225
X49100
X52850Y14500
X52900Y13225
X55200Y14500
X56800
X64250Y13875
X65105Y13225
Y14525
X66000Y12500
X68800Y12950
X69900Y13690
Y14960
X73100
X76600Y13550
X103400Y13250
X103500Y14250
X109050Y12550
X111600Y13000
X138800Y17350
X136700
X135500Y15225
Y16525
X133400Y15225
X111550Y15000
X103500Y16750
X103400Y15750
X101700Y15250
X96310
X96300Y16250
X93950Y15250
X93940Y16250
X88550
X82940Y15250
X77550
Y16250
X75400Y15000
X73100Y16230
X72000Y16950
X69900Y16230
X67400Y16800
X65105Y15825
X58550Y15700
X56800Y15500
X55200
X45200Y15750
Y16750
X43300Y15250
X43250Y16750
X31250Y15500
X25500
X23000Y19000
X32500Y18000
X37500Y18250
X38750
X40000
X46750Y19250
X47000Y17775
X48200Y18600
X49250Y19000
X51239Y19012
X52850Y17775
X53263Y18988
X54500Y19000
X55050Y17775
X64850Y19000
X65105Y17775
X67000Y19000
X67300Y17800
X69900Y17500
Y18750
X73100Y17500
Y18770
X101850Y19850
X103400Y18250
X103500Y19250
X111550Y17500
X133400Y19775
X135500Y18475
Y19775
X136350Y19125
X136550Y21000
X135050Y21600
X133950
X126850Y21250
X121750Y21500
X111600Y22000
X111550Y20000
X103500Y21750
X103400Y20750
X93940Y21000
X88550
X82940Y20000
X77560
X74600Y22050
X73100Y21250
X72300Y20350
X69900Y20040
X67600Y21450
X67000Y20000
X66775Y22450
X65850Y20150
X64625
X63350
X62350
X61000Y20750
Y21750
X59600Y20150
X59525Y22450
X58600Y20150
X57375
X56100
X55100
X53750Y20750
Y21750
X52400Y20150
X52275Y22450
X51350Y20150
X50125
X48900
X47850
X46500Y20750
Y21750
X38750Y20250
X34000Y22000
X27000Y20000
X26000Y20500
X24500Y21000
X51200Y24750
X52275Y24650
X59525
X66775
X68000Y22500
X69000Y23100
X70000
X70750Y24800
X71000Y22500
X72500
X73500Y23100
X73750Y24600
X74500Y23100
X75500Y22500
X76500
X77560Y24750
X82940
X93950
X96300Y23250
X101690
X111950Y24100
X121750Y22500
Y24000
X126800Y23250
X133400Y23475
X135500
Y24775
X139050Y24150
X138800Y25600
X136700
X136350Y27375
X135500Y26725
X132450Y25450
X126850Y25250
X125200Y26250
X121750Y25000
X120750Y26250
X115600Y25750
X114240Y25100
X113760Y26400
X112400Y25750
X108900Y26750
X93940Y25750
X88550
X77550
X73250Y27200
X70250
X67750
X66750
X65750
X64750
X63738Y27213
X58250Y27200
X53500Y25750
X45975Y26300
X44500Y27000
X43000Y29000
X44500Y28500
X47725Y28350
X50325
X51625Y27550
X52275Y28350
X54450Y28950
Y29950
X55625Y28350
X59525
X62225
X64250Y28150
X65250
X66250
X67250
X69650Y28850
X71250Y28000
X72850Y29200
X74250
X82050Y29050
X94900Y29800
X95900
X112500Y28700
X114250Y28650
X119100Y29800
X120750Y27750
Y28750
X125000Y29500
X125200Y28250
X129350Y29600
X130750Y29100
X133400Y28025
X135500
X136000Y29750
X138300Y27600
X138750Y30750
X137750Y30650
X136750Y30750
X135750
X134750
X133750
X127000Y31500
X126100Y32400
X125200Y30500
X123800Y31250
X120750Y30250
X118750Y32100
X118250Y31150
X117750Y32100
X117250Y31150
X116750Y32100
X116250Y31150
X115750Y32100
X115650Y30150
X115250Y31150
X114750Y32100
X114250Y31150
X113800Y30250
X113750Y32100
X113250Y31150
X112750Y32100
X112250Y31150
X110750Y32100
X109800Y30350
X109750Y32100
X109100Y31100
X108200Y30350
X107500Y31100
X107250Y32100
X97500Y31150
X96750Y32100
X96250Y31150
X95750Y32100
X95250Y31150
X94750Y32100
X94250Y31150
X93750Y32100
X93250Y31150
X92750Y32100
X92250Y31150
X91750Y32100
X91250Y31150
X90750Y32100
X90250Y31150
X89750Y32100
X89250Y31150
X88750Y32100
X88250Y31150
X87250
X86700Y30300
X85300Y31100
X84750Y32100
X84250Y31150
X83750Y32100
X82050Y30950
X79800Y30750
Y31750
X77200Y30750
Y31750
X72250Y30250
X71250Y30600
X69700Y32350
X69000Y30500
X68500Y31500
X68000Y30500
X67250Y31975
X66775Y30550
X65800Y30900
X64825Y31350
X62350Y31950
X62225Y30550
X60750Y30250
X60000Y31500
X59525Y30550
X58550Y30900
X57575Y31350
X53500Y31000
X52275Y30550
X48500Y31200
X47725Y30550
X41500Y30500
X47650Y33900
X52800Y33500
Y34500
X55200Y34000
X55350Y32950
X56000Y34750
X57000
X58000
X59000
X60000
X61000
X66500
X67500
X68500
X69500
X76350Y33200
X103850Y34950
X121500Y33500
X124450Y33650
X127750Y33500
Y34500
X129850Y34775
X130500Y33000
X130700Y34125
X135750
X136600Y33475
Y34775
X137750Y32850
X138800Y33475
Y35425
Y36725
X136600
X135750Y36075
Y37375
X132900Y36725
X130700Y35425
Y36725
X129850Y36075
X127750Y35500
Y36500
X110500Y35000
X109500Y35050
X106850Y36150
X106200Y35350
X104850Y36150
X103850
X91500Y35500
X89500Y36000
X87750Y35000
Y36500
X86800Y35500
X85250Y35000
X69000Y35700
X68000
X67000
X66000
X60500
X59500
X56500
X45000Y35000
X43500Y36500
X43000Y38000
X44300Y39750
X45250Y39250
X49500Y39000
X55200Y37500
X62200Y37750
Y38750
X64800Y37750
Y38750
X69500Y38000
X70700Y39850
X84250Y39400
X85250
X88250
X89250
X90250
X91250
X92250
X93250
X94250
X95250
X96250
X97500
X100500Y39000
X101500
X105250Y39400
X106250
X107250
X108250
X109250
X110250
X112250
X113250
X114250
X115250
X116250
X117250
X118250
X120550Y37950
X124200Y38900
X126000Y39850
X126600Y38400
X127600Y38450
X127750Y39500
X129900Y38650
X130700Y38025
X133000Y38000
Y39500
X136600Y38025
Y39475
X138800
Y41425
X136600Y40775
X135750Y40125
Y42075
X130700Y40125
Y41425
X129850Y40775
Y42075
X127750Y40500
Y41500
X125000Y40850
X119700Y41800
X118750Y40350
X117750
X116750
X115750
X114750
X113750
X112750
Y41800
X110750Y40550
X110650Y42400
X109600Y40900
X108750Y40350
X107750
X106750
X106250Y42300
X105750Y40350
X104500
X102500Y42300
X96750Y40350
X95750
X94750
X93750
X92750
X91750
X90750
X89750
X88750
X87750Y40400
X85600
X84400
X82900Y42300
X76800Y40500
X72250Y41700
X71250
X68000Y41000
X56150Y40000
Y41000
Y42000
X55200Y40500
Y41500
X45250Y40250
Y41250
Y42250
X44300Y40750
Y41750
Y42750
Y43750
X45250Y43250
Y44250
X55200Y42500
Y43500
X56150Y43000
Y44000
X68500Y43000
X68700Y44500
X70800
X71250Y42700
X72250
X75000Y43400
X80250Y43500
X82250Y43750
X87350Y44500
X89500
X91450Y42800
X102600Y44500
X103500Y42800
X104475Y44500
X105250Y42800
X109750Y44850
X120250Y43350
X127000Y44500
X127500Y43500
X127750Y42500
X130700Y42725
Y44025
X132900Y42725
X135500Y44450
X135750Y43375
X136600Y42725
Y44025
X138800Y42725
X138750Y47250
X138500Y45000
X137000Y45500
Y46500
X135500Y46550
X130000Y46200
X129250Y45000
X129000Y46200
X128250Y45000
X128000Y46000
X126250Y47150
X124000
X123000Y47250
X121300Y45300
X115400Y47000
X113550Y45300
X111090Y45500
X110750Y47150
X109750
X109250Y46150
X107910Y45500
X105900
Y46500
X102600Y45500
Y46500
X102000Y47300
X100000Y47450
X99000
X96950Y45000
X89500Y45500
X87350
X83500Y47400
X75000Y46600
X74100Y45000
X62550Y45850
X62000Y47400
X45250Y46750
X44300Y47250
Y48250
X45250Y47750
Y48750
Y49750
X55200Y49500
X57350Y48900
X59550Y47500
Y48500
Y49500
X62850Y49200
X66400Y49350
X67600
X68726Y49150
X71150Y49800
X84275Y49750
X84500Y47500
X85500
Y49500
X86500Y47650
X99000Y49550
X100000
X102000Y49600
X103000Y47750
Y49700
X104000
X104475Y47500
X105000Y49850
X108550Y49200
X112400Y47800
X112450Y49200
X113700Y48050
Y49350
X115900Y48050
X116000Y49050
X119600Y48700
X125000Y49200
X126950
X127000Y48000
X129000Y47800
X130000
X131200Y49250
X134300Y47500
X132000Y50250
X131050Y50800
X129800Y52250
X128200
X126950Y51400
X125950Y51500
X123700Y51400
X121800Y51950
X119600
X115900
X113700Y51300
X112450Y51400
X109200
X87650Y50950
X82850Y50750
X81800Y51500
X79700
X78550Y51750
X76450
X73000Y50500
X71950Y51800
X71150Y52450
X67600Y51650
X66400
X62850Y50500
Y51800
X61950Y51150
X59550Y50500
Y51500
X45250Y50750
Y51750
X44300Y51250
X35000Y50500
X55950Y52750
X58050
Y53750
X59250Y54150
X59550Y52500
X60250Y54300
X61250
X62250Y54400
X62650Y53200
X67250Y54150
X68250Y54250
X69250
X70250Y54400
X73500Y54200
X76450Y52750
X78550
X83250Y54450
X84250Y54950
X84275Y52750
X86150
X86250Y54950
X106150Y54050
X113700Y54550
X115900
X119100Y54000
X121800
X124500Y54500
X125900Y52750
X127200Y52800
X127500Y54500
X128200Y53250
X129650Y54650
X129800Y53250
X131050Y52600
X132000Y53400
X133000
X133400Y56300
X132950Y55200
X131800Y56050
X131250Y55100
X130750Y56050
X129750Y55650
X129000Y57350
X125050Y57400
X124050
X123050Y55100
Y57300
X121800Y55200
Y56500
X119600Y57150
X115900Y56500
X113700Y55850
X112450Y55100
X111800Y57300
X111150Y55100
X109850Y57300
X108550Y55100
Y57300
X94050Y55100
Y56100
X87650Y55100
Y56100
X78000Y57200
X74900Y55750
X73500Y56300
X73000Y57450
X69250Y56250
X67775Y56500
X61250Y56250
X59775Y56500
X51400Y58550
X52000Y59500
X58350Y57500
X59775Y59500
X61650
X66350Y57500
X67775Y59500
X69650
X70650Y58350
X75900Y57850
X77950Y59400
X90050Y57500
X93500Y58100
X98750
X104250
X107250
X115900Y57950
X119600Y58450
X121800
X125500Y59000
X127350Y58300
X130250Y58050
X133300Y59400
X136600Y58475
X138800
Y59775
X136600Y61725
X135750Y62375
X127550Y61250
X126550Y60250
X123750Y61250
X122750
X121750
X120750
X119750
X118750Y61150
X117750Y61250
X114300
Y62250
X112700Y61250
Y62250
X108500Y61000
X107500
X106500
X104450
X101250
X95750
X94250
X78950Y60050
X69750Y61700
X67750
X66750Y61200
X61750Y61700
X59750
X58750Y61200
X49050Y63900
X50375
X55050Y63400
Y64550
X55950Y63950
X60050Y63900
X61375
X66050Y63400
Y64550
X78750Y62950
X91150Y64550
X108500Y62500
X109500Y64800
X110200Y64050
X117250Y64400
X119250Y63450
X120250
X120750Y64400
X122750
X127350Y63200
X129000Y63850
X130000Y63450
X136600Y63025
X138800
X139000Y66000
X136750Y65750
X135750
X134750
X134000Y67000
X133250Y66250
X129250
Y67250
X129100Y65200
X128100Y66900
X125800Y66500
X124850Y66000
Y67000
X122750Y66000
X121850Y67400
X118150
X117250Y66000
X115150Y66500
X114200Y66000
Y67000
X111750Y65500
X109750Y66250
X107750Y66350
X107250Y65400
X106750Y66350
X106250Y65400
X105250
X104750Y66350
X104250Y65400
X101250
X98750Y66350
X95750
X95250Y65400
X94750Y66350
X94250Y65400
X93500Y66350
X93050Y67300
X92850Y65550
X91250Y66050
X79750Y66200
X78750Y65050
Y66200
X77300Y67000
X73850Y66950
X72950Y66150
X70850Y65550
Y67450
X67000Y66500
X66050Y66150
Y67300
X62850Y66500
X61100Y67150
X60050Y66100
X55950Y65100
Y66700
X55050Y66150
Y67300
X51850Y66500
X50100Y67150
X49050Y66100
X29000Y66500
X51500Y67500
X51700Y68700
X52950Y69550
X55150Y69600
X55950Y67850
X57350Y69600
X63000Y68700
X63950Y69550
X66100
X68300
X73850Y68050
X74950Y69500
X75650Y68600
X77100Y69600
X78750Y68300
X79350Y69550
X86750Y69700
X94500Y67500
X103250Y69700
X104250
X108900Y68100
X109750Y67500
Y68750
X114200Y68000
Y69000
X115150Y67500
Y68500
Y69500
X116750Y67500
X123250
X124850Y68000
Y69000
X125800Y67500
Y68500
Y69500
X128500Y68000
Y69000
X131200Y69250
X132700Y67900
X132800Y69250
X137350Y67900
X132800Y70250
X131200
X128500Y70000
Y71000
Y72000
X125800Y70500
Y71500
X124850Y70000
Y71000
X123250
X121850Y71100
X118150
X116750Y71000
X115150Y70500
Y71500
X114200Y70000
Y71000
Y72000
X111800Y71000
X110750Y71250
X109750Y70000
X104250Y71800
X103250
X96300Y70750
X94200
X93250Y71250
X86750Y71800
X80000Y71500
X79200Y70600
Y72200
X77125Y70600
Y72200
X74950
X72400Y70500
X71450Y72100
X68200Y70600
Y72200
X66125Y70600
Y72200
X63950
X61400Y70500
X60450Y72100
X59200Y70800
X57200Y70600
Y72200
X55125Y70600
Y72200
X52950
X50400Y70500
X49450Y72100
X89000Y72500
X94000Y74750
X94150Y73750
X96000Y74750
X99000Y74600
X99900Y73250
X100700Y74100
X111750Y72500
Y73500
X115150Y72500
X117250
Y74100
X118250
X119250Y72500
Y74100
X121250
X122250
X122750Y72500
X123250Y74100
X123900Y73200
X128500Y73000
X128700Y74100
X129800Y73350
X122750Y75050
X121750
X119400Y76700
X118750Y75050
X117750
X117250Y77250
X116750Y75050
X115750Y77250
X113250Y76450
X112250
X104400Y75550
X101200Y76800
X99000Y76475
X96000
X94150Y77400
X94000Y75750
X80000Y76000
X64850Y75000
X97000Y77900
X97800Y78500
X100750Y77750
X112250Y78550
X113250
X116050Y78650
X117350Y78700
X120000Y79250
X121000
X122650Y78700
X123250Y77500
X124250
T02
X127800Y1680
X111200
Y3930
X113175Y2800
X125825
X127800Y3930
T03
X22771Y8077
X25540
X28309
X31078
X33847
X36616
X39385
X42154
X44923
X47692
X50461
X53230
X82097
X84866
X87635
X90404
X91788Y10922
X89019
X86250
X83481
X80712
X54614
X51845
X49076
X46307
X43538
X40769
X38000
X35231
X32462
X29693
X26924
X24155
X21386
T06
X4000Y4000
X136000
Y76000
X4000
T01
X17100Y22750
X101000Y28750
Y54250
X17100Y62750
X45000Y62900
X85000
T00
M30
