; Version : LOCAL
; Job     : C:\Users\MartinJohansson\OneDrive - E-Sharp AB\DesignLabs\PLM\Projects\ELECTRONICS\Fixture_Link\Fixture_Link_R2\PCB\Panel\fixture_link\fixture_link.pnl
; User    : ESHARP-MARTIN:MartinJohansson
; Date    : Wed Dec 10 09:07:16 2025
; Format  : 3.3 / Absolute / MM / Leading
; Contents: Thru / Drill / Plated
M48
METRIC,TZ
FMAT,2
ICI,OFF
T04C0.250
T02C1.100
%
M71
G90
G93X0Y0
T04
X12700Y14950
X13700
X14700
X15700
X16700
X17700
X18700
X19700
X20700
X21700
X22700
X23700
X24700
X25700
X26700
X27700
X28700
X29700
X30700
X31700
X32700
X33700
X34700
X35700
X36700
X37700
X38700
X39700
X40700
X41700
X43700
X46600
X47600
X48600
X51200
X52700
X53700
X54700
X55700
X56700
X57700
X58700
X59700
X60700
X61700
X62700
X63700
X65200
X66200
X67200
X68200
X69200
X70350
X71350
X72350
X73350
X74350
X75700
X76700
X77700
X79950
X97100
X98100
X99100
X100100
X101100
X102100
X103100
X104100
X105100
X106100
X107100
X108100
X109100
X110100
X111100
X112100
X113100
X114100
X115100
X116100
X117100
X118100
X119100
X120100
X121100
X122100
X123100
X124100
X125100
X126100
X128100
X131000
X132000
X133000
X135600
X137100
X138100
X139100
X140100
X141100
X142100
X143100
X144100
X145100
X146100
X147100
X148100
X149600
X150600
X151600
X152600
X153600
X154750
X155750
X156750
X157750
X158750
X160100
X161100
X162100
X164350
X164750Y15950
X163650Y15800
X162650
X160450Y16950
X159250Y16900
X158250
X157750Y15950
X156250Y16900
X155750Y15950
X155250Y16900
X154000Y17600
X151500Y17100
X150250
X149000
X141100Y15950
X139600
X137600
X136600
X135600
X135450Y17700
X133900
X133000Y15950
X131500
X130500
Y16950
X129500Y15950
Y16950
X128500Y15950
Y16950
X127500Y15950
X127000Y16950
X126000Y16850
X125550Y15950
X124550
X122000Y16950
X119800
X117950
X116200
X113550
X112250Y17600
X110950Y16950
X109950
X108300
X107300
X105950
X105100Y16400
X104200Y16881
X102550Y16950
X101550
X80350Y15950
X79250Y15800
X78250
X76050Y16950
X74850Y16900
X73850
X73350Y15950
X71850Y16900
X71350Y15950
X70850Y16900
X69600Y17600
X67100Y17100
X65850
X64600
X56700Y15950
X55200
X53200
X52200
X51200
X51050Y17700
X49500
X48600Y15950
X47100
X46100
Y16950
X45100Y15950
Y16950
X44100Y15950
Y16950
X43100Y15950
X42600Y16950
X41600Y16850
X41150Y15950
X40150
X37600Y16950
X35400
X33550
X31800
X29150
X27850Y17600
X26550Y16950
X25550
X23900
X22900
X21550
X20700Y16400
X19800Y16881
X18150Y16950
X17150
X12400Y19150
Y20150
X13400Y19150
X13600Y20150
X14800Y18450
Y19450
X16900Y18450
Y19450
X40350Y17950
X41900Y19250
X45100Y18650
X46100
X53050Y18100
X54850Y19250
X60225Y18950
X62350Y19250
X68050Y18950
X69600Y19600
X71600Y18100
X73100Y19850
X74250Y18150
X75750Y18250
X76350Y19350
X78100Y18900
X96800Y19150
Y20150
X97800Y19150
X98000Y20150
X99200Y18450
Y19450
X101300Y18450
Y19450
X124750Y17950
X126300Y19250
X129500Y18650
X130500
X137450Y18100
X139250Y19250
X144625Y18950
X146750Y19250
X152450Y18950
X154000Y19600
X156000Y18100
X157500Y19850
X158650Y18150
X160150Y18250
X160750Y19350
X162500Y18900
X163950Y21450
X163200Y22850
X162500Y21000
X161450Y21450
X158700Y22650
X158000Y20800
X157000
X156800Y22650
X156000Y20800
X154700Y21250
X154650Y22550
X153350Y21950
X153250Y20600
X152450Y21350
X151800Y22200
X150500
X149850Y21350
X149200Y22200
X148550Y21350
X145275
X143400Y21500
X139250Y22600
X137450Y21350
X135500Y22200
X134850Y21350
X133550
X131200
X129250Y22200
X127300Y21350
X125275Y21200
X124625Y20350
X123975Y22600
X123325Y20350
X122675Y21200
X122025Y20350
X120725
X119025Y21200
X118375Y20350
X117750Y22450
X116425Y20350
X115775Y22250
X115125Y21200
X114475Y20350
X112775Y21200
X112125Y20350
X110825Y22250
X109525Y20600
X108225Y20350
X106775Y21200
X106125Y20350
X104825Y22600
X103525Y20350
X102225
X99750Y22350
X98725Y22200
X97700
X79550Y21450
X78800Y22850
X78100Y21000
X77050Y21450
X74300Y22650
X73600Y20800
X72600
X72400Y22650
X71600Y20800
X70300Y21250
X70250Y22550
X68950Y21950
X68850Y20600
X68050Y21350
X67400Y22200
X66100
X65450Y21350
X64800Y22200
X64150Y21350
X60875
X59000Y21500
X54850Y22600
X53050Y21350
X51100Y22200
X50450Y21350
X49150
X46800
X44850Y22200
X42900Y21350
X40875Y21200
X40225Y20350
X39575Y22600
X38925Y20350
X38275Y21200
X37625Y20350
X36325
X34625Y21200
X33975Y20350
X33350Y22450
X32025Y20350
X31375Y22250
X30725Y21200
X30075Y20350
X28375Y21200
X27725Y20350
X26425Y22250
X25125Y20600
X23825Y20350
X22375Y21200
X21725Y20350
X20425Y22600
X19125Y20350
X17825
X15350Y22350
X14325Y22200
X13300
X16750Y24350
X17400Y22900
X17825Y23850
X21075Y23400
X23825Y23850
X27075Y23600
X30075Y23850
X32700
X36325
X36975Y23000
X42900Y24850
X43550Y24000
X44200Y24850
X45500
X46150Y24000
X49150Y24850
X49800Y24000
X50450Y24850
X51750
X53900Y23300
X55700
X56300Y24750
X56975Y24000
X57625Y24850
X58275Y24000
X59575
X60875Y24850
X61900Y24800
X64150Y24750
X65450Y24850
X66100Y24000
X66750Y24850
X67200Y23800
X68050Y24850
X68300Y23000
X69000Y24500
X69600Y23350
X70300Y25200
X70550Y23850
X72400Y24550
X74300
X76150Y23350
X76950Y25000
X101150Y24350
X101800Y22900
X102225Y23850
X105475Y23400
X108225Y23850
X111475Y23600
X114475Y23850
X117100
X120725
X121375Y23000
X127300Y24850
X127950Y24000
X128600Y24850
X129900
X130550Y24000
X133550Y24850
X134200Y24000
X134850Y24850
X136150
X138300Y23300
X140100
X140700Y24750
X141375Y24000
X142025Y24850
X142675Y24000
X143975
X145275Y24850
X146300Y24800
X148550Y24750
X149850Y24850
X150500Y24000
X151150Y24850
X151600Y23800
X152450Y24850
X152700Y23000
X153400Y24500
X154000Y23350
X154700Y25200
X154950Y23850
X156800Y24550
X158700
X160550Y23350
X161350Y25000
X163950Y27500
X160850
X159750Y27150
X158900Y26400
X158200Y27150
X157500Y26400
X157000Y27350
X156500Y26400
X155750Y25450
X153250Y25850
Y26850
X152700Y27750
X148550Y27150
X147000Y27000
X146000
X143250Y27250
X141375
X140200Y26100
X139500Y27300
X138600Y25800
X138500Y27300
X136800Y27200
X133650Y27850
X126800Y27150
X125150Y26700
X124250Y27400
X121500
X120300Y26700
X118650
X117750Y27400
X115000
X114100Y26700
X112150
X111250Y27400
X108500
X107500Y26700
X105900
X104750Y27400
X102000
X101150Y26700
X98725Y25500
X98550Y27600
X97550Y27550
X79550Y27500
X76450
X75350Y27150
X74500Y26400
X73800Y27150
X73100Y26400
X72600Y27350
X72100Y26400
X71350Y25450
X68850Y25850
Y26850
X68300Y27750
X64150Y27150
X62600Y27000
X61600
X58850Y27250
X56975
X55800Y26100
X55100Y27300
X54200Y25800
X54100Y27300
X52400Y27200
X49250Y27850
X42400Y27150
X40750Y26700
X39850Y27400
X37100
X35900Y26700
X34250
X33350Y27400
X30600
X29700Y26700
X27750
X26850Y27400
X24100
X23100Y26700
X21500
X20350Y27400
X17600
X16750Y26700
X14325Y25500
X14150Y27600
X13150Y27550
X15100Y29050
X16850Y29100
X17600Y28400
X18350Y29100
X19600
X20350Y28400
X21100Y29100
X22350Y28150
X23350Y29100
X24100Y28400
X24850Y29100
X26100
X26850Y28400
X27600Y29100
X28500Y28150
X29850Y29100
X30600Y28400
X31350Y29100
X32600
X33350Y28400
X34100Y29100
X35000Y28150
X36350Y29100
X37100Y28400
X37850Y29100
X39100
X39850Y28400
X40750Y28850
X41500Y28150
X42400Y29100
X43450
X44850Y28800
X45850
X46850
X47850
X54100Y28900
X55100
X59600Y28850
X61600Y29100
X62600
X64150Y28150
X65350Y29100
X66350
X67400Y29000
X69150Y28750
X70150Y29600
X71100Y29100
X75350
X77950Y29050
X99500
X101250Y29100
X102000Y28400
X102750Y29100
X104000
X104750Y28400
X105500Y29100
X106750Y28150
X107750Y29100
X108500Y28400
X109250Y29100
X110500
X111250Y28400
X112000Y29100
X112900Y28150
X114250Y29100
X115000Y28400
X115750Y29100
X117000
X117750Y28400
X118500Y29100
X119400Y28150
X120750Y29100
X121500Y28400
X122250Y29100
X123500
X124250Y28400
X125150Y28850
X125900Y28150
X126800Y29100
X127850
X129250Y28800
X130250
X131250
X132250
X138500Y28900
X139500
X144000Y28850
X146000Y29100
X147000
X148550Y28150
X149750Y29100
X150750
X151800Y29000
X153550Y28750
X154550Y29600
X155500Y29100
X159750
X162350Y29050
X104050Y31850
X101950
X101050Y32350
X98950
X19650Y31850
X17550
X16650Y32350
X14550
Y35350
X15550Y34600
X17150
X73700Y33200
Y34500
X76300Y33200
Y34500
X78100Y34600
X79100
X80100
X98950Y35350
X99950Y34600
X101550
X158100Y33200
Y34500
X160700Y33200
Y34500
X162500Y34600
X163500
X164500
X164000Y37100
X163250Y37850
X162250
X161800Y36050
X161450Y37250
X159500Y37850
X158450
X152650Y35800
X150100Y35950
X149000
X143900Y37450
X142850Y36950
X140950Y36800
X137950Y37900
X120900Y37850
X103050Y37900
X102350Y37000
X101550Y35600
X100300Y37100
X99950Y35600
X79600Y37100
X78850Y37850
X77850
X77400Y36050
X77050Y37250
X75100Y37850
X74050
X68250Y35800
X65700Y35950
X64600
X59500Y37450
X58450Y36950
X56550Y36800
X53550Y37900
X36500Y37850
X18650Y37900
X17950Y37000
X17150Y35600
X15900Y37100
X15550Y35600
X15850Y39250
X16450Y40250
X16850Y39250
X19300Y38850
X20600Y38750
X30400Y39650
X33300Y38850
X35050Y38800
X36150Y38850
X40850Y39250
X41850
X44250Y40100
X44300Y38850
X46050Y40050
X51850Y39250
X52850
X55300Y38850
X57550
X62850Y39250
X63850
X66300Y38850
X74000Y40200
X75100
X76100Y39250
X77100
X77900Y40200
X78850Y39850
X79550Y38850
X100250Y39250
X100850Y40250
X101250Y39250
X103700Y38850
X105000Y38750
X114800Y39650
X117700Y38850
X119450Y38800
X120550Y38850
X125250Y39250
X126250
X128650Y40100
X128700Y38850
X130450Y40050
X136250Y39250
X137250
X139700Y38850
X141950
X147250Y39250
X148250
X150700Y38850
X158400Y40200
X159500
X160500Y39250
X161500
X162300Y40200
X163250Y39850
X163950Y38850
X13950Y44950
X14900Y44600
X15700Y45550
X16700
X17700Y44600
X18800
X28950Y45550
X29950
X39950
X40950
X46750Y44750
X48550Y44700
X50950Y45550
X51950
X62400Y45150
X75950Y45550
X76350Y44550
X76950Y45550
X98350Y44950
X99300Y44600
X100100Y45550
X101100
X102100Y44600
X103200
X113350Y45550
X114350
X124350
X125350
X131150Y44750
X132950Y44700
X135350Y45550
X136350
X146800Y45150
X160350Y45550
X160750Y44550
X161350Y45550
X161300Y47700
X159250Y47800
X158550Y46900
X157900Y45950
X156600Y46050
X143900Y45950
X142150Y46000
X141050Y45950
X140700Y46950
X132900Y45950
X123650Y46900
X121900Y45950
X120650Y48000
X119650Y45950
X118750Y47850
X117700Y47350
X110900Y45950
X103150Y46950
X102100
X100150Y47550
X99350Y46950
X98350
X97650Y45950
X97600Y47700
X76900
X74850Y47800
X74150Y46900
X73500Y45950
X72200Y46050
X59500Y45950
X57750Y46000
X56650Y45950
X56300Y46950
X48500Y45950
X39250Y46900
X37500Y45950
X36250Y48000
X35250Y45950
X34350Y47850
X33300Y47350
X26500Y45950
X18750Y46950
X17700
X15750Y47550
X14950Y46950
X13950
X13250Y45950
X13200Y47700
X12700Y50200
X13700
X14700
X15400Y48750
X16500Y50300
X19100
X24550Y49000
X27100Y48850
X28200
X75650Y49200
Y50200
X77250Y49200
Y50200
X78250Y49450
X97100Y50200
X98100
X99100
X99800Y48750
X100900Y50300
X103500
X108950Y49000
X111500Y48850
X112600
X160050Y49200
Y50200
X161650Y49200
Y50200
X162650Y49450
Y52450
X160550
X159650Y52950
X157550
X103500Y51600
X100900
X78250Y52450
X76150
X75250Y52950
X73150
X19100Y51600
X16500
X14850Y55750
X17450Y55700
X21700
X22650Y55200
X25400Y55800
X26450Y55700
X27450
X30200
X31200
X49350
X50400
X53700
X54950
X56450
X58700
X60200
X61450
X62950
X65200
X66700
X67950
X69450
X71700
X73200
X74450
X75950
X77700Y55750
X99250
X101850Y55700
X106100
X107050Y55200
X109800Y55800
X110850Y55700
X111850
X114600
X115600
X133750
X134800
X138100
X139350
X140850
X143100
X144600
X145850
X147350
X149600
X151100
X152350
X153850
X156100
X157600
X158850
X160350
X162100Y55750
X164050Y57250
X163050Y57200
X160450Y58100
X159600Y56400
Y57400
X156850Y56400
Y57400
X155700Y58100
X154850Y56650
X154100Y58100
X153100Y56400
Y57400
X150350Y56400
Y57400
X149450Y58100
X148700Y56650
X147500Y58100
X146600Y56400
Y57400
X143850Y56400
Y57400
X142950Y58100
X142200Y56650
X141300Y58100
X140100Y56400
Y57400
X137350Y56400
Y57400
X136450Y55950
Y58100
X135700Y56650
X134800Y57650
X132350Y56000
X131350
X130350
X129350
X127950Y56950
X124800Y57600
X123100Y55900
Y57500
X122100Y55900
Y57500
X120225Y57550
X118350
X117600Y55950
X115600Y57800
X114600
X113050Y56650
Y57650
X108900Y57050
X108350Y57950
X108050Y56050
X105100Y58400
X104600Y57450
X104100Y58400
X103400Y57650
X102700Y58400
X101850Y57650
X100750Y57300
X97650
X79650Y57250
X78650Y57200
X76050Y58100
X75200Y56400
Y57400
X72450Y56400
Y57400
X71300Y58100
X70450Y56650
X69700Y58100
X68700Y56400
Y57400
X65950Y56400
Y57400
X65050Y58100
X64300Y56650
X63100Y58100
X62200Y56400
Y57400
X59450Y56400
Y57400
X58550Y58100
X57800Y56650
X56900Y58100
X55700Y56400
Y57400
X52950Y56400
Y57400
X52050Y55950
Y58100
X51300Y56650
X50400Y57650
X47950Y56000
X46950
X45950
X44950
X43550Y56950
X40400Y57600
X38700Y55900
Y57500
X37700Y55900
Y57500
X35825Y57550
X33950
X33200Y55950
X31200Y57800
X30200
X28650Y56650
Y57650
X24500Y57050
X23950Y57950
X23650Y56050
X20700Y58400
X20200Y57450
X19700Y58400
X19000Y57650
X18300Y58400
X17450Y57650
X16350Y57300
X13250
X15850Y59800
X18500Y60250
X20400
X21450Y59350
X22250Y60950
X22500Y59600
X23800Y60300
X23950Y58950
X24750Y59950
X26050
X26700Y60800
X27350Y59950
X28650Y60050
X30900Y60000
X31925Y59950
X33225Y60800
X34525
X35175Y59950
X35825Y60800
X36500Y60050
X37000Y58700
X38600Y59000
X41050Y59950
X42350
X43000Y60800
X43650Y59950
X46650Y60800
X47300Y59950
X48600
X49250Y60800
X49900Y59950
X56475Y60950
X60100
X62725
X68975
X74975
X76050Y60450
X78475Y59300
X100250Y59800
X102900Y60250
X104800
X105850Y59350
X106650Y60950
X106900Y59600
X108200Y60300
X108350Y58950
X109150Y59950
X110450
X111100Y60800
X111750Y59950
X113050Y60050
X115300Y60000
X116325Y59950
X117625Y60800
X118925
X119575Y59950
X120225Y60800
X120900Y60050
X121400Y58700
X123000Y59000
X125450Y59950
X126750
X127400Y60800
X128050Y59950
X131050Y60800
X131700Y59950
X133000
X133650Y60800
X134300Y59950
X140875Y60950
X144500
X147125
X153375
X159375
X160450Y60450
X162875Y59300
X163900Y62600
X162875
X161850Y62450
X159800Y61900
X156775Y62200
X156125Y61400
X150775Y62550
X150125Y61200
X145825Y62550
X143850Y62350
X140225Y61800
X137625Y62200
X134300Y63450
X132350Y62600
X130400Y63450
X128050
X126750
X126100Y62600
X124150Y63450
X123300Y61500
X122350Y62200
X121500Y61500
X118200Y63300
X116325Y63450
X113050
X112400Y62600
X111750Y63450
X111100Y62600
X110000Y61000
X109800Y62600
X109150Y63450
X108900Y61800
X108250Y62850
X107600Y61450
X106950Y62250
X104800Y62150
X102900
X101050Y61450
X100150Y63350
X98400Y61950
X97650Y63350
X79500Y62600
X78475
X77450Y62450
X75400Y61900
X72375Y62200
X71725Y61400
X66375Y62550
X65725Y61200
X61425Y62550
X59450Y62350
X55825Y61800
X53225Y62200
X49900Y63450
X47950Y62600
X46000Y63450
X43650
X42350
X41700Y62600
X39750Y63450
X38900Y61500
X37950Y62200
X37100Y61500
X33800Y63300
X31925Y63450
X28650
X28000Y62600
X27350Y63450
X26700Y62600
X25600Y61000
X25400Y62600
X24750Y63450
X24500Y61800
X23850Y62850
X23200Y61450
X22550Y62250
X20400Y62150
X18500
X16650Y61450
X15750Y63350
X14000Y61950
X13250Y63350
X14700Y63800
Y65900
X16450Y65450
X19200Y64000
X19700Y64950
X20200Y64000
X21200
X22500Y63550
X23200Y65200
X23950Y64200
X24750Y65850
X30450Y65550
X32575Y65850
X37950Y65550
X50900
X51925Y63600
X52575Y64450
X53875
X54525Y63600
X55175Y64450
X56475
X58175Y63600
X58825Y64450
X60775
X62075Y63600
X62725Y64450
X64425Y63600
X65075Y64450
X67675Y64200
X68975Y64450
X70425Y63600
X71075Y64450
X73675
X74975
X75900Y65350
X78000
X79200Y64650
X79400Y65650
X80400Y64650
Y65650
X99100Y63800
Y65900
X100850Y65450
X103600Y64000
X104100Y64950
X104600Y64000
X105600
X106900Y63550
X107600Y65200
X108350Y64200
X109150Y65850
X114850Y65550
X116975Y65850
X122350Y65550
X135300
X136325Y63600
X136975Y64450
X138275
X138925Y63600
X139575Y64450
X140875
X142575Y63600
X143225Y64450
X145175
X146475Y63600
X147125Y64450
X148825Y63600
X149475Y64450
X152075Y64200
X153375Y64450
X154825Y63600
X155475Y64450
X158075
X159375
X160300Y65350
X162400
X163600Y64650
X163800Y65650
X164800Y64650
Y65650
X162400Y66350
X160300
X160050Y67850
X159050
X157400Y67919
X156500Y68400
X155650Y67850
X154300
X153300
X151650
X150650
X149350Y67200
X148050Y67850
X145400
X143650
X141800
X139600
X136850Y66850
X135600Y67950
X134600Y67850
X133100
X132100Y66150
Y67850
X131100Y66150
Y67850
X127700Y67100
X126150
X124150Y66700
X112600Y67700
X111350
X110100
X107600Y67200
X106350Y67900
X105600Y66700
X105350Y67900
X103350
X102950Y66650
X102350Y67900
X101450Y66550
X101150Y67850
X78000Y66350
X75900
X75650Y67850
X74650
X73000Y67919
X72100Y68400
X71250Y67850
X69900
X68900
X67250
X66250
X64950Y67200
X63650Y67850
X61000
X59250
X57400
X55200
X52450Y66850
X51200Y67950
X50200Y67850
X48700
X47700Y66150
Y67850
X46700Y66150
Y67850
X43300Y67100
X41750
X39750Y66700
X28200Y67700
X26950
X25700
X23200Y67200
X21950Y67900
X21200Y66700
X20950Y67900
X18950
X18550Y66650
X17950Y67900
X17050Y66550
X16750Y67850
X12450Y68850
X12850Y69850
X13550Y69000
X14550
X15100Y69850
X16100
X17100
X18450
X19450Y68850
Y69850
X20450
X21450Y68850
Y69850
X22450
X23600
X24600
X25600
X26600
X27600
X29100
X30100
X31100
X32100
X33100
X34100
X35100
X36100Y68850
Y69850
X37100
X37600Y68850
X38100Y69850
X39100
X39600Y68850
X40100Y69850
X40600Y68850
X41600
Y69850
X44200Y68850
Y69850
X45200
X45700Y68850
X46200Y69850
X46700Y68850
X47700
X48700
X49100Y69850
X49700Y68850
X51100Y69850
X51650Y68850
X52100Y69850
X52650Y68850
X53100Y69850
X54100
X55100
X56100
X57100
X58100
X59100
X60100
X61100
X62100
X63100
X64100
X65100
X66100
X67100
X68100
X69100
X70100
X71100
X72100
X73100
X74100
X75100
X76100
X77100
X78100
X79100
X80100
X96850Y68850
X97250Y69850
X97950Y69000
X98950
X99500Y69850
X100500
X101500
X102850
X103850Y68850
Y69850
X104850
X105850Y68850
Y69850
X106850
X108000
X109000
X110000
X111000
X112000
X113500
X114500
X115500
X116500
X117500
X118500
X119500
X120500Y68850
Y69850
X121500
X122000Y68850
X122500Y69850
X123500
X124000Y68850
X124500Y69850
X125000Y68850
X126000
Y69850
X128600Y68850
Y69850
X129600
X130100Y68850
X130600Y69850
X131100Y68850
X132100
X133100
X133500Y69850
X134100Y68850
X135500Y69850
X136050Y68850
X136500Y69850
X137050Y68850
X137500Y69850
X138500
X139500
X140500
X141500
X142500
X143500
X144500
X145500
X146500
X147500
X148500
X149500
X150500
X151500
X152500
X153500
X154500
X155500
X156500
X157500
X158500
X159500
X160500
X161500
X162500
X163500
X164500
T02
X147501Y32178
X144732
X141963
X139194
X136425
X133656
X130887
X128118
X125349
X122580
X119811
X117042
X114273
X63101
X60332
X57563
X54794
X52025
X49256
X46487
X43718
X40949
X38180
X35411
X32642
X29873
X31258Y35023
X34027
X36796
X39565
X42334
X45103
X47872
X50641
X53410
X56179
X58948
X61717
X115658
X118427
X121196
X123965
X126734
X129503
X132272
X135041
X137810
X140579
X143348
X146117
X31084Y49777
X33853
X36622
X39391
X42160
X44929
X47698
X50467
X53236
X56005
X58774
X61543
X115484
X118253
X121022
X123791
X126560
X129329
X132098
X134867
X137636
X140405
X143174
X145943
X147327Y52622
X144558
X141789
X139020
X136251
X133482
X130713
X127944
X125175
X122406
X119637
X116868
X114099
X62927
X60158
X57389
X54620
X51851
X49082
X46313
X43544
X40775
X38006
X35237
X32468
X29699
T00
M30
