; Version : LOCAL
; Job     : C:\Users\MartinJohansson\OneDrive - E-Sharp AB\DesignLabs\PLM\Projects\ELECTRONICS\Fixture_Link\Fixture_Link_R2\PCB\Panel\fixture_link\fixture_link.pnl
; User    : ESHARP-MARTIN:MartinJohansson
; Date    : Wed Dec 10 09:07:16 2025
; Format  : 3.3 / Absolute / MM / Leading
; Contents: Thru / Drill / Non-Plated
M48
METRIC,TZ
FMAT,2
ICI,OFF
T05C0.500
T01C1.100
T06C3.000
%
M71
G90
G93X0Y0
T05
X174000Y11600
X173100
X172200
X171300
X170400
X90400
X89500
X88600
X87700
X86800
X6800
X5900
X5000
X4100
X3200
X165600Y17300
X96000
X81200
X11600
Y18200
Y19100
Y20000
X81200Y18200
Y19100
Y20000
X96000Y18200
Y19100
Y20000
X165600Y18200
Y19100
Y20000
Y20900
X96000
X81200
X11600
X165600Y36900
Y37800
X96000Y36900
Y37800
X81200Y36900
Y37800
X11600Y36900
Y37800
Y38700
Y39600
Y40500
X81200Y38700
Y39600
Y40500
X96000Y38700
Y39600
Y40500
X165600Y38700
Y39600
Y40500
X165400Y41600
X164500
X163600
X162700
X161800
X99800
X98900
X98000
X97100
X96200
X81000
X80100
X79200
X78300
X77400
X15400
X14500
X13600
X12700
X11800
X11600Y44300
Y45200
X11800Y43200
X12700
X13600
X14500
X15400
X77400
X78300
X79200
X80100
X81000
X81200Y44300
Y45200
X96000Y44300
Y45200
X96200Y43200
X97100
X98000
X98900
X99800
X161800
X162700
X163600
X164500
X165400
X165600Y44300
Y45200
Y46100
Y47000
Y47900
X96000Y46100
Y47000
Y47900
X81200Y46100
Y47000
Y47900
X11600Y46100
Y47000
Y47900
Y63900
Y64800
Y65700
X81200Y63900
Y64800
Y65700
X96000Y63900
Y64800
Y65700
X165600Y63900
Y64800
Y65700
Y66600
Y67500
X96000Y66600
Y67500
X81200Y66600
Y67500
X11600Y66600
Y67500
X174000Y73200
X173100
X172200
X171300
X170400
X90400
X89500
X88600
X87700
X86800
X6800
X5900
X5000
X4100
X3200
T01
X163600Y17600
X98000
X79200
X13600
X163600Y67200
X98000
X79200
X13600
T06
X5000Y20000
X172200
X5000Y64800
X172200
T00
M30
