; Version : LOCAL
; Job     : C:\Users\MartinJohansson\OneDrive - E-Sharp AB\DesignLabs\PLM\Projects\ELECTRONICS\Sparrow_Fixture_Electronics\Sparrow_NTop_R3\PCB\Panel\sparrow_n-top\sparrow_n-top.pnl
; User    : ESHARP-MARTIN:MartinJohansson
; Date    : Fri Dec 12 09:34:59 2025
; Format  : 3.3 / Absolute / MM / Leading
; Contents: Thru / Drill / Plated
M48
METRIC,TZ
FMAT,2
ICI,OFF
T03C0.250
T02C1.000
T01C4.200
%
M71
G90
G93X0Y0
T03
X18300Y14450
X20400
X23900Y13050
X46050Y12850
X76850
X97900Y14450
X100000
X103500Y13050
X125650Y12850
X156450
X163200Y16000
X103500Y15650
X97250Y15350
Y16350
X95650Y15350
Y16350
X94500Y15600
Y16600
X92400Y15600
Y16600
X83600Y16000
X23900Y15650
X17650Y15350
Y16350
X16050Y15350
Y16350
X14900Y15600
Y16600
X12800Y15600
Y16600
X14250Y19050
X16700Y18150
X18000
X19150Y19150
X20800Y18200
X21850
X23550Y18600
Y19600
X25800Y18600
Y19600
X67700Y17600
X69950Y19200
X71850
X73650Y19150
X75950Y19450
X77900Y19150
X80550Y19550
X81850Y17700
X93850Y19050
X96300Y18150
X97600
X98750Y19150
X100400Y18200
X101450
X103150Y18600
Y19600
X105400Y18600
Y19600
X147300Y17600
X149550Y19200
X151450
X153250Y19150
X155550Y19450
X157500Y19150
X160150Y19550
X161450Y17700
X166000Y21350
X160250Y21850
X157800Y22350
X155600Y21850
X146700Y20500
Y22250
X145700Y20500
Y22250
X138050Y22100
X137350Y21350
X136700Y22250
X135700Y20500
X135000Y21300
X107800Y21650
X107650Y20600
X105550
X103150Y21600
X101500Y22000
X100450
X98750Y20600
X98300Y21500
X96350Y20100
X96100Y21200
Y22200
X93500Y20100
X86400Y21350
X80650Y21850
X78200Y22350
X76000Y21850
X67100Y20500
Y22250
X66100Y20500
Y22250
X58450Y22100
X57750Y21350
X57100Y22250
X56100Y20500
X55400Y21300
X28200Y21650
X28050Y20600
X25950
X23550Y21600
X21900Y22000
X20850
X19150Y20600
X18700Y21500
X16750Y20100
X16500Y21200
Y22200
X13900Y20100
X16500Y23200
X18800Y24550
X22750Y22650
X24700Y22550
X25050Y24350
X26000Y22550
X26650Y24350
X27850Y24100
X29850
X37350Y24650
X42350
X54800Y24350
X55300Y23400
X55800Y24350
X58450Y23100
Y24100
X60950Y24650
X61950
X62250Y23550
X62900Y22750
X64750Y24600
X65750
X68000Y24050
X68850Y22550
Y24650
X70350Y24750
X71850Y22550
Y24650
X74100Y22550
Y24650
X77000Y22650
X77100Y24650
X78500Y23950
X79350Y22550
X79400Y24550
X82350Y22550
Y24650
X84600Y22550
Y24650
X87600Y22550
Y24650
X88400Y23300
X96100Y23200
X98400Y24550
X102350Y22650
X104300Y22550
X104650Y24350
X105600Y22550
X106250Y24350
X107450Y24100
X109450
X116950Y24650
X121950
X134400Y24350
X134900Y23400
X135400Y24350
X138050Y23100
Y24100
X140550Y24650
X141550
X141850Y23550
X142500Y22750
X144350Y24600
X145350
X147600Y24050
X148450Y22550
Y24650
X149950Y24750
X151450Y22550
Y24650
X153700Y22550
Y24650
X156600Y22650
X156700Y24650
X158100Y23950
X158950Y22550
X159000Y24550
X161950Y22550
Y24650
X164200Y22550
Y24650
X167200Y22550
Y24650
X168000Y23300
X160650Y26550
X159950Y25250
X158150Y25150
X155800Y25200
X155050Y26550
X150250Y27450
X149700Y26100
X110600Y25150
X109450Y25100
X107450
X106250Y25350
X106200Y27200
X104650Y25350
X104000Y26250
X101900
X98900Y25600
X98400Y27150
X96450Y26650
X81050Y26550
X80350Y25250
X78550Y25150
X76200Y25200
X75450Y26550
X70650Y27450
X70100Y26100
X31000Y25150
X29850Y25100
X27850
X26650Y25350
X26600Y27200
X25050Y25350
X24400Y26250
X22300
X19300Y25600
X18800Y27150
X16850Y26650
X34850Y27550
X37350Y28650
X39850Y27550
X42350Y28650
X44850Y27550
X46050Y28400
X52700Y29750
X54550Y28650
X55050Y27700
X55550Y28650
X56350Y28000
X57350
X58350Y27600
Y28600
X61250Y27550
Y28650
X62250Y27550
Y28650
X64750Y27600
Y28600
X65800Y28200
X66950Y27800
X69750Y28450
X71850
X73650Y28400
X75450Y29050
X77900Y28400
X81050Y29900
X81100Y28900
X114450Y27550
X116950Y28650
X119450Y27550
X121950Y28650
X124450Y27550
X125650Y28400
X132300Y29750
X134150Y28650
X134650Y27700
X135150Y28650
X135950Y28000
X136950
X137950Y27600
Y28600
X140850Y27550
Y28650
X141850Y27550
Y28650
X144350Y27600
Y28600
X145400Y28200
X146550Y27800
X149350Y28450
X151450
X153250Y28400
X155050Y29050
X157500Y28400
X160650Y29900
X160700Y28900
X167200Y31800
X164200
X161950
X160050Y31100
X158950Y31800
X157700Y31650
X156700Y31800
X155600Y31100
X153700Y31800
X151450
X148450
X146100Y32300
X145350Y31600
X144350
X141850Y32100
X140651Y31600
X137950Y32100
X136600Y31550
X135600
X131400Y30800
X130700Y32300
X124450Y31550
X119450
X114450
X110150Y30500
X106150
X105450Y32350
X102450Y31900
X99450Y32350
X95500Y32050
X94400
X87600Y31800
X84600
X82350
X80450Y31100
X79350Y31800
X78100Y31650
X77100Y31800
X76000Y31100
X74100Y31800
X71850
X68850
X66500Y32300
X65750Y31600
X64750
X62250Y32100
X61051Y31600
X58350Y32100
X57000Y31550
X56000
X51800Y30800
X51100Y32300
X44850Y31550
X39850
X34850
X30550Y30500
X26550
X25850Y32350
X22850Y31900
X19850Y32350
X15900Y32050
X14800
Y33650
X15900
X17200Y32650
X18200Y32900
X19850Y33350
X20000Y34700
X25850Y33350
X28300
Y34350
X29900Y33350
Y34350
X32600Y33100
Y34100
X34850
X35100Y32600
X36450Y32550
X36850Y34100
X39100Y33100
Y34100
X48250Y33350
X49400Y34450
X50200Y32850
X54100Y34350
X55100
X56100Y33950
X57100
X58100Y34950
X58350Y33100
X61100Y32600
X62250Y33100
X65100Y34100
X66100Y33950
X67100
X67800Y32900
X68850Y33900
X71850
X74100
X76200Y34450
X77100Y33900
X78550Y34400
X78650Y32950
X79400Y33800
X80250Y34450
X82350Y33900
X84600
X87600
X94400Y33650
X95500
X96800Y32650
X97800Y32900
X99450Y33350
X99600Y34700
X105450Y33350
X107900
Y34350
X109500Y33350
Y34350
X112200Y33100
Y34100
X114450
X114700Y32600
X116050Y32550
X116450Y34100
X118700Y33100
Y34100
X127850Y33350
X129000Y34450
X129800Y32850
X133700Y34350
X134700
X135700Y33950
X136700
X137700Y34950
X137950Y33100
X140700Y32600
X141850Y33100
X144700Y34100
X145700Y33950
X146700
X147400Y32900
X148450Y33900
X151450
X153700
X155800Y34450
X156700Y33900
X158150Y34400
X158250Y32950
X159000Y33800
X159850Y34450
X161950Y33900
X164200
X167200
X160650Y35800
X155050
X146700Y35700
X145700
X136700
X135700
X135000Y36750
X133700Y35900
X132700Y35800
X131700Y35900
X122000Y35600
Y36600
X120400Y35600
Y36600
X119400Y37100
X118500Y36600
X116950Y35050
X116650Y36900
X115950Y35050
X114950
X114750Y36900
X113850Y35700
X112900Y37100
X111650Y35850
X109700
Y36850
X107000Y35350
Y36350
X105400Y35350
Y36350
X104450Y36950
X104300Y35300
X103500Y36300
X101400
X100600Y35300
X100450Y37250
X98750Y36350
X97900Y37250
X97750Y35300
X96950Y36300
X94850
X94050Y35300
X93900Y37250
X81050Y35800
X75450
X67100Y35700
X66100
X57100
X56100
X55400Y36750
X54100Y35900
X53100Y35800
X52100Y35900
X42400Y35600
Y36600
X40800Y35600
Y36600
X39800Y37100
X38900Y36600
X37350Y35050
X37050Y36900
X36350Y35050
X35350
X35150Y36900
X34250Y35700
X33300Y37100
X32050Y35850
X30100
Y36850
X27400Y35350
Y36350
X25800Y35350
Y36350
X24850Y36950
X24700Y35300
X23900Y36300
X21800
X21000Y35300
X20850Y37250
X19150Y36350
X18300Y37250
X18150Y35300
X17350Y36300
X15250
X14450Y35300
X14300Y37250
X15250Y37900
X16550Y39700
X17350Y37900
X17550Y39700
X19350Y39600
X21000Y38900
X21800Y37900
X23900
X24700Y38900
X25700Y37850
X26600Y39100
X30100Y37850
Y38850
Y39850
X32050Y37850
Y38850
Y39850
X33300Y38100
X35150Y38800
X37050
X38900Y37600
Y38600
X41450Y39100
X46550Y38400
X47000Y39850
X50600Y38900
X55600
X81400Y38600
X87600
X94850Y37900
X96150Y39700
X96950Y37900
X97150Y39700
X98950Y39600
X100600Y38900
X101400Y37900
X103500
X104300Y38900
X105300Y37850
X106200Y39100
X109700Y37850
Y38850
Y39850
X111650Y37850
Y38850
Y39850
X112900Y38100
X114750Y38800
X116650
X118500Y37600
Y38600
X121050Y39100
X126150Y38400
X126600Y39850
X130200Y38900
X135200
X161000Y38600
X167200
X168000Y41100
Y42100
X166400Y41100
Y42100
X165825Y40000
X165175Y40800
X165000Y41900
X164525Y40000
X163875Y40800
X163400Y41900
X162575Y40800
X161925Y40000
X160500Y41100
Y42100
X158900Y41100
Y42100
X156050Y40050
X155175Y40800
X155150Y41800
X154525Y40000
X153875Y40800
X152575
X151925Y40000
X133700Y40300
X132700
X131750Y42350
X131700Y40300
X120950Y40100
X119450Y41100
Y42100
X116950Y40650
X115950
X115450Y41600
X114950Y40650
X114450Y41600
X111950Y41100
X110700
X99750Y41000
X98350Y41200
X97350
X94450Y41350
X93300Y41600
X88400Y41100
Y42100
X86800Y41100
Y42100
X86225Y40000
X85575Y40800
X85400Y41900
X84925Y40000
X84275Y40800
X83800Y41900
X82975Y40800
X82325Y40000
X80900Y41100
Y42100
X79300Y41100
Y42100
X76450Y40050
X75575Y40800
X75550Y41800
X74925Y40000
X74275Y40800
X72975
X72325Y40000
X54100Y40300
X53100
X52150Y42350
X52100Y40300
X41350Y40100
X39850Y41100
Y42100
X37350Y40650
X36350
X35850Y41600
X35350Y40650
X34850Y41600
X32350Y41100
X31100
X20150Y41000
X18750Y41200
X17750
X14850Y41350
X13700Y41600
Y44100
X14600Y43400
X17750Y43600
X18100Y44600
X18850Y43600
X27300Y44300
X29900
X32050Y43050
X32900Y44350
X33800Y44800
X34850Y43850
Y44900
X35850Y43850
Y44850
X36850Y43850
X42600Y44400
X45200
X59450Y44650
X61850Y44100
X71600Y44400
X72150Y43550
X73350
X74000Y42750
X76225Y43700
X81400Y44750
X82150Y43550
X83350
X86225Y43700
X93300Y44100
X94200Y43400
X97350Y43600
X97700Y44600
X98450Y43600
X106900Y44300
X109500
X111650Y43050
X112500Y44350
X113400Y44800
X114450Y43850
Y44900
X115450Y43850
Y44850
X116450Y43850
X122200Y44400
X124800
X139050Y44650
X141450Y44100
X151200Y44400
X151750Y43550
X152950
X153600Y42750
X155825Y43700
X161000Y44750
X161750Y43550
X162950
X165825Y43700
X167300Y45100
X166600Y47350
X166450Y46000
X165600Y46750
X164900Y46000
X162800Y46750
X162000Y47350
X161750Y46000
X160100Y45600
X157300Y45100
X156600Y47350
X156450Y46000
X155600Y46750
X154900Y46000
X152800Y46750
X152000Y47350
X151750Y46000
X148400Y45800
X147310Y45350
X143950Y45850
X142400Y45800
X134400Y46850
X124800Y46300
X122550Y45350
X122200Y46400
X121500Y47300
X119900Y47450
X118150Y46650
X117800Y45600
X114600Y46150
X112650
X109500Y45900
X106900
X106050Y45350
X105350Y46100
X102950Y45100
X102250Y45850
X97700Y45650
X94200
X93300Y46600
X87700Y45100
X87000Y47350
X86850Y46000
X86000Y46750
X85300Y46000
X83200Y46750
X82400Y47350
X82150Y46000
X80500Y45600
X77700Y45100
X77000Y47350
X76850Y46000
X76000Y46750
X75300Y46000
X73200Y46750
X72400Y47350
X72150Y46000
X68800Y45800
X67710Y45350
X64350Y45850
X62800Y45800
X54800Y46850
X45200Y46300
X42950Y45350
X42600Y46400
X41900Y47300
X40300Y47450
X38550Y46650
X38200Y45600
X35000Y46150
X33050
X29900Y45900
X27300
X26450Y45350
X25750Y46100
X23350Y45100
X22650Y45850
X18100Y45650
X14600
X13700Y46600
Y49100
X18650Y49600
X19600Y49100
X20100Y48000
X20600Y48900
X21500Y49600
X22100Y48800
X23350Y47850
X25750Y48850
X27400Y49750
X31800Y48450
X33100Y47650
X35050Y48450
X36100Y49600
X36200Y47800
X38450Y48450
X41050
X42600Y49100
X44100Y47600
X44350Y49700
X46350Y49650
X55000
X55300Y47800
X55700Y48800
X57600Y49350
X58250Y47650
X59550Y48000
X60850Y48800
X61500Y48000
X62800
X64900Y48800
X65550Y48000
X67500
X68800
X72450Y48350
Y49350
X74000Y48250
Y49450
X75200Y48250
Y49450
X76750Y48350
X79150Y47750
X80175
X81125Y49850
X82450Y48350
Y49350
X84000Y48250
Y49450
X85200Y48250
Y49450
X86750Y48350
X93300Y49100
X98250Y49600
X99200Y49100
X99700Y48000
X100200Y48900
X101100Y49600
X101700Y48800
X102950Y47850
X105350Y48850
X107000Y49750
X111400Y48450
X112700Y47650
X114650Y48450
X115700Y49600
X115800Y47800
X118050Y48450
X120650
X122200Y49100
X123700Y47600
X123950Y49700
X125950Y49650
X134600
X134900Y47800
X135300Y48800
X137200Y49350
X137850Y47650
X139150Y48000
X140450Y48800
X141100Y48000
X142400
X144500Y48800
X145150Y48000
X147100
X148400
X152050Y48350
Y49350
X153600Y48250
Y49450
X154800Y48250
Y49450
X156350Y48350
X158750Y47750
X159775
X160725Y49850
X162050Y48350
Y49350
X163600Y48250
Y49450
X164800Y48250
Y49450
X166350Y48350
X168250Y51400
X167800Y52400
X166400Y51800
X162150Y52000
X160725Y52450
X147750Y51700
X145800
X145150Y50900
X144500Y51700
X141750
X141100Y50900
X139800Y51700
X139200Y50600
X138500Y51700
X137950Y50650
X136950
X135450Y50250
X134450Y50650
X132450
X131450
X130450
X129450
X128450
X127450
X126450
X125450
X124450
X121550Y52300
X121350Y50100
X120650Y50850
X118700Y51600
X117200
X114650Y50850
X107950Y50250
Y52350
X102900Y52400
X100450Y52000
X99450
X98200Y52100
X97200
X96050Y50450
Y51500
X95050Y50450
Y51450
X88650Y51400
X88200Y52400
X86800Y51800
X82550Y52000
X81125Y52450
X68150Y51700
X66200
X65550Y50900
X64900Y51700
X62150
X61500Y50900
X60200Y51700
X59600Y50600
X58900Y51700
X58350Y50650
X57350
X55850Y50250
X54850Y50650
X52850
X51850
X50850
X49850
X48850
X47850
X46850
X45850
X44850
X41950Y52300
X41750Y50100
X41050Y50850
X39100Y51600
X37600
X35050Y50850
X28350Y50250
Y52350
X23300Y52400
X20850Y52000
X19850
X18600Y52100
X17600
X16450Y50450
Y51500
X15450Y50450
Y51450
X18350Y54150
X19350
X24500Y52550
X24510Y54950
X25850Y54400
X26450Y53300
X27400Y52850
X28350Y54950
X31150Y54350
X33100Y53100
X34400Y54350
X37150
X39100Y54100
X39600Y53100
X41950Y53400
X43850Y54650
X44350Y53550
X44850Y54650
X45350Y53550
X45850Y54650
X46350Y53550
X46850Y54650
X47350Y53550
X47850Y54650
X48350Y53550
X48850Y54650
X49350Y53550
X49850Y54650
X50350Y53550
X50850Y54650
X51350Y53550
X51850Y54650
X52350Y53550
X52850Y54650
X53350Y53550
X53850Y54650
X54850
X55900Y53550
Y54650
X57000Y53550
Y54550
X58900Y53900
Y54900
X64900Y53900
X66850
X70350Y54350
X73150Y54250
X74150
X75150Y53250
X76150
X77050Y54850
X78650
X80050Y52800
X81200Y53600
X83150Y54250
X84150
X85150Y53250
X86150
X87050Y54850
X88650
X97950Y54150
X98950
X104100Y52550
X104110Y54950
X105450Y54400
X106050Y53300
X107000Y52850
X107950Y54950
X110750Y54350
X112700Y53100
X114000Y54350
X116750
X118700Y54100
X119200Y53100
X121550Y53400
X123450Y54650
X123950Y53550
X124450Y54650
X124950Y53550
X125450Y54650
X125950Y53550
X126450Y54650
X126950Y53550
X127450Y54650
X127950Y53550
X128450Y54650
X128950Y53550
X129450Y54650
X129950Y53550
X130450Y54650
X130950Y53550
X131450Y54650
X131950Y53550
X132450Y54650
X132950Y53550
X133450Y54650
X134450
X135500Y53550
Y54650
X136600Y53550
Y54550
X138500Y53900
Y54900
X144500Y53900
X146450
X149950Y54350
X152750Y54250
X153750
X154750Y53250
X155750
X156650Y54850
X158250
X159650Y52800
X160800Y53600
X162750Y54250
X163750
X164750Y53250
X165750
X166650Y54850
X168250
X165150Y55300
X164200Y56650
X163200
X159200Y57100
X155200Y56650
X154200
X147100Y57150
X141500Y55000
X140600Y56650
X139750Y55000
X121550Y56050
X118050Y56750
X116750
X115700Y56100
X112050Y56750
X110750
X108900Y55500
X108450Y57150
X106900Y56850
X102250Y55600
X85550Y55300
X84600Y56650
X83600
X79600Y57100
X75600Y56650
X74600
X67500Y57150
X61900Y55000
X61000Y56650
X60150Y55000
X41950Y56050
X38450Y56750
X37150
X36100Y56100
X32450Y56750
X31150
X29300Y55500
X28850Y57150
X27300Y56850
X22650Y55600
X17800Y58600
Y59600
X19900Y58600
Y59600
X20700Y57950
X24505
X26450Y59050
X27250Y58000
X28250
Y59750
X29450
X31200Y58750
Y59750
X33700Y58300
X35200
X37700Y59050
X37800Y57550
X39750Y57600
X42100Y57550
X43100
X44350
X45350
X46350
X47350
X47950Y59600
X48350Y57550
X49350
X50350
X50500Y59400
X51350Y57550
X52350
X53250Y59350
X53350Y57550
X54350
X55350
X55500Y59500
X56350Y57550
X56450Y58550
X57250Y59200
X57350Y57550
X58350
X58800Y58850
Y59850
X60900Y58850
Y59850
X61950Y58750
X63000
X70050Y57800
X70850Y58900
X71900Y58700
X72650Y57800
X72950Y59150
X73650Y57650
X74150Y58600
X75150Y58700
X76150
X77600Y59100
X78550Y59750
X78900Y58400
X80050Y58200
X80700Y59700
X81600Y59150
X81650Y57600
X82600Y58700
X83600Y58650
X84600
X86050Y57800
X88650
X97400Y58600
Y59600
X99500Y58600
Y59600
X100300Y57950
X104105
X106050Y59050
X106850Y58000
X107850
Y59750
X109050
X110800Y58750
Y59750
X113300Y58300
X114800
X117300Y59050
X117400Y57550
X119350Y57600
X121700Y57550
X122700
X123950
X124950
X125950
X126950
X127550Y59600
X127950Y57550
X128950
X129950
X130100Y59400
X130950Y57550
X131950
X132850Y59350
X132950Y57550
X133950
X134950
X135100Y59500
X135950Y57550
X136050Y58550
X136850Y59200
X136950Y57550
X137950
X138400Y58850
Y59850
X140500Y58850
Y59850
X141550Y58750
X142600
X149650Y57800
X150450Y58900
X151500Y58700
X152250Y57800
X152550Y59150
X153250Y57650
X153750Y58600
X154750Y58700
X155750
X157200Y59100
X158150Y59750
X158500Y58400
X159650Y58200
X160300Y59700
X161200Y59150
X161250Y57600
X162200Y58700
X163200Y58650
X164200
X165650Y57800
X168250
X164700Y60350
Y61350
X163800Y62050
X162050Y61250
X160300Y61100
X158200Y60750
X157300Y62100
X153800Y61100
X152900Y60650
X149550Y61850
X148400Y62200
X138200Y62300
X136450Y60350
Y61600
X134300Y60150
Y62050
X133700Y61100
X131850
X131100Y62000
X131050Y60150
X129050
Y62050
X128500Y61100
X127250Y60600
Y61600
X125150Y60600
Y61600
X122250Y60050
X122000Y61600
X119900
X119700Y60550
X118900Y62250
X117900Y61800
X114150Y60100
Y61100
X111600Y60350
X110850Y62300
X110800Y60950
X109050
X107850
X100290Y60350
X98550Y61850
X97700Y61100
X96620Y60500
X95350
X95100Y61700
X94070Y60500
X92800
X85100Y60350
Y61350
X84200Y62050
X82450Y61250
X80700Y61100
X78600Y60750
X77700Y62100
X74200Y61100
X73300Y60650
X69950Y61850
X68800Y62200
X58600Y62300
X56850Y60350
Y61600
X54700Y60150
Y62050
X54100Y61100
X52250
X51500Y62000
X51450Y60150
X49450
Y62050
X48900Y61100
X47650Y60600
Y61600
X45550Y60600
Y61600
X42650Y60050
X42400Y61600
X40300
X40100Y60550
X39300Y62250
X38300Y61800
X34550Y60100
Y61100
X32000Y60350
X31250Y62300
X31200Y60950
X29450
X28250
X20690Y60350
X18950Y61850
X18100Y61100
X17020Y60500
X15750
X15500Y61700
X14470Y60500
X13200
X16450Y63450
X17600Y63600
X18950Y62850
X20450Y63450
X21500Y63500
X24450Y63450
X28250Y62700
X28850Y63500
X29450Y62700
X31700Y63350
X34550Y63100
X36450Y63150
X37500Y62650
X40300Y62600
X42400
X57550Y62550
X58700Y63300
X66850Y63100
X72700Y62550
X74850Y63100
X75850
X76850
X77850
X79050Y62750
X80050
X81350Y63100
X82350
X83350
X84350
X96050Y63450
X97200Y63600
X98550Y62850
X100050Y63450
X101100Y63500
X104050Y63450
X107850Y62700
X108450Y63500
X109050Y62700
X111300Y63350
X114150Y63100
X116050Y63150
X117100Y62650
X119900Y62600
X122000
X137150Y62550
X138300Y63300
X146450Y63100
X152300Y62550
X154450Y63100
X155450
X156450
X157450
X158650Y62750
X159650
X160950Y63100
X161950
X162950
X163950
X156450Y67450
X125650
X76850
X46050
X16050Y69950
X17650
X18300Y69050
X20400
X23900Y67650
X95650Y69950
X97250
X97900Y69050
X100000
X103500Y67650
X163200Y70600
X161450Y72300
X147300Y72200
X103500Y70250
X97250Y70950
X95650
X94500Y70200
Y71200
X92400Y70200
Y71200
X83600Y70600
X81850Y72300
X67700Y72200
X23900Y70250
X17650Y70950
X16050
X14900Y70200
Y71200
X12800Y70200
Y71200
X13900Y74700
X14250Y73650
X16700Y72750
X16750Y74700
X18000Y72750
X19150Y73750
X20800Y72800
X21850
X23550Y73200
Y74200
X25800Y73200
Y74200
X69950Y73800
X71850
X73650Y73750
X75950Y74050
X77900Y73750
X80550Y74150
X93500Y74700
X93850Y73650
X96300Y72750
X96350Y74700
X97600Y72750
X98750Y73750
X100400Y72800
X101450
X103150Y73200
Y74200
X105400Y73200
Y74200
X149550Y73800
X151450
X153250Y73750
X155550Y74050
X157500Y73750
X160150Y74150
X167200Y77150
X166000Y75950
X164200Y77150
X161950
X160250Y76450
X158950Y77150
X157800Y76950
X156600Y77250
X155600Y76450
X153700Y77150
X151450
X148450
X146700Y75100
Y76850
X145700Y75100
Y76850
X142500Y77350
X138050Y76700
X137350Y75950
X136700Y76850
X135700Y75100
X135000Y75900
X107800Y76250
X107650Y75200
X105600Y77150
X105550Y75200
X104300Y77150
X103150Y76200
X102350Y77250
X101500Y76600
X100450
X98750Y75200
X98300Y76100
X96100Y75800
Y76800
X87600Y77150
X86400Y75950
X84600Y77150
X82350
X80650Y76450
X79350Y77150
X78200Y76950
X77000Y77250
X76000Y76450
X74100Y77150
X71850
X68850
X67100Y75100
Y76850
X66100Y75100
Y76850
X62900Y77350
X58450Y76700
X57750Y75950
X57100Y76850
X56100Y75100
X55400Y75900
X28200Y76250
X28050Y75200
X26000Y77150
X25950Y75200
X24700Y77150
X23550Y76200
X22750Y77250
X21900Y76600
X20850
X19150Y75200
X18700Y76100
X16500Y75800
Y76800
Y77800
X18800Y79150
X25050Y78950
Y79950
X26650Y78950
Y79950
X27850Y78700
Y79700
X29850Y78700
Y79700
X31000Y79750
X37350Y79250
X42350
X54800Y78950
X55300Y78000
X55800Y78950
X58450Y77700
Y78700
X60950Y79250
X61950
X62250Y78150
X64750Y79200
X65750
X68000Y78650
X68850Y79250
X70350Y79350
X71850Y79250
X74100
X76200Y79800
X77100Y79250
X78500Y78550
X78550Y79750
X79400Y79150
X80350Y79850
X82350Y79250
X84600
X87600
X88400Y77900
X96100Y77800
X98400Y79150
X104650Y78950
Y79950
X106250Y78950
Y79950
X107450Y78700
Y79700
X109450Y78700
Y79700
X110600Y79750
X116950Y79250
X121950
X134400Y78950
X134900Y78000
X135400Y78950
X138050Y77700
Y78700
X140550Y79250
X141550
X141850Y78150
X144350Y79200
X145350
X147600Y78650
X148450Y79250
X149950Y79350
X151450Y79250
X153700
X155800Y79800
X156700Y79250
X158100Y78550
X158150Y79750
X159000Y79150
X159950Y79850
X161950Y79250
X164200
X167200
X168000Y77900
X160650Y81150
X155050
X150250Y82050
X149700Y80700
X146550Y82400
X144350Y82200
X141850Y82150
X140850
X137950Y82200
X134650Y82300
X124450Y82150
X119450
X114450
X106200Y81800
X104000Y80850
X101900
X98900Y80200
X98400Y81750
X96450Y81250
X81050Y81150
X75450
X70650Y82050
X70100Y80700
X66950Y82400
X64750Y82200
X62250Y82150
X61250
X58350Y82200
X55050Y82300
X44850Y82150
X39850
X34850
X26600Y81800
X24400Y80850
X22300
X19300Y80200
X18800Y81750
X16850Y81250
X37350Y83250
X42350
X46050Y83000
X52700Y84350
X54550Y83250
X55550
X56350Y82600
X57350
X58350Y83200
X61250Y83250
X62250
X64750Y83200
X65800Y82800
X69750Y83050
X71850
X73650Y83000
X75450Y83650
X77900Y83000
X81050Y84500
X81100Y83500
X116950Y83250
X121950
X125650Y83000
X132300Y84350
X134150Y83250
X135150
X135950Y82600
X136950
X137950Y83200
X140850Y83250
X141850
X144350Y83200
X145400Y82800
X149350Y83050
X151450
X153250Y83000
X155050Y83650
X157500Y83000
X160650Y84500
X160700Y83500
X167200Y86400
X164200
X161950
X160050Y85700
X158950Y86400
X157700Y86250
X156700Y86400
X155600Y85700
X153700Y86400
X151450
X148450
X146100Y86900
X145350Y86200
X144350
X141850Y86700
X140700Y87200
X140651Y86200
X137950Y86700
X136600Y86150
X135600
X131400Y85400
X130700Y86900
X129800Y87450
X124450Y86150
X119450
X116050Y87150
X114700Y87200
X114450Y86150
X110150Y85100
X106150
X105450Y86950
X102450Y86500
X99450Y86950
X96800Y87250
X95500Y86650
X94400
X87600Y86400
X84600
X82350
X80450Y85700
X79350Y86400
X78100Y86250
X77100Y86400
X76000Y85700
X74100Y86400
X71850
X68850
X66500Y86900
X65750Y86200
X64750
X62250Y86700
X61100Y87200
X61051Y86200
X58350Y86700
X57000Y86150
X56000
X51800Y85400
X51100Y86900
X50200Y87450
X44850Y86150
X39850
X36450Y87150
X35100Y87200
X34850Y86150
X30550Y85100
X26550
X25850Y86950
X22850Y86500
X19850Y86950
X17200Y87250
X15900Y86650
X14800
X14450Y89900
X14800Y88250
X15900
X18150Y89900
X18200Y87500
X19850Y87950
X20000Y89300
X21000Y89900
X24700
X25800Y89950
X25850Y87950
X27400Y89950
X28300Y87950
Y88950
X29900Y87950
Y88950
X32600Y87700
Y88700
X34850
X35350Y89650
X36350
X36850Y88700
X37350Y89650
X39100Y87700
Y88700
X48250Y87950
X49400Y89050
X54100Y88950
X55100
X56100Y88550
X57100
X58100Y89550
X58350Y87700
X62250
X65100Y88700
X66100Y88550
X67100
X67800Y87500
X68850Y88500
X71850
X74100
X76200Y89050
X77100Y88500
X78550Y89000
X78650Y87550
X79400Y88400
X80250Y89050
X82350Y88500
X84600
X87600
X94050Y89900
X94400Y88250
X95500
X97750Y89900
X97800Y87500
X99450Y87950
X99600Y89300
X100600Y89900
X104300
X105400Y89950
X105450Y87950
X107000Y89950
X107900Y87950
Y88950
X109500Y87950
Y88950
X112200Y87700
Y88700
X114450
X114950Y89650
X115950
X116450Y88700
X116950Y89650
X118700Y87700
Y88700
X127850Y87950
X129000Y89050
X133700Y88950
X134700
X135700Y88550
X136700
X137700Y89550
X137950Y87700
X141850
X144700Y88700
X145700Y88550
X146700
X147400Y87500
X148450Y88500
X151450
X153700
X155800Y89050
X156700Y88500
X158150Y89000
X158250Y87550
X159000Y88400
X159850Y89050
X161950Y88500
X164200
X167200
X160650Y90400
X155050
X146700Y90300
X145700
X136700
X135700
X135000Y91350
X133700Y90500
X132700Y90400
X131700Y90500
X122000Y90200
Y91200
X120400Y90200
Y91200
X119400Y91700
X118500Y91200
Y92200
X116650Y91500
X114750
X113850Y90300
X112900Y91700
X111650Y90450
Y92450
X109700Y90450
Y91450
Y92450
X107000Y90950
X105400
X105300Y92450
X104450Y91550
X103500Y90900
X101400
X100450Y91850
X98750Y90950
X97900Y91850
X96950Y90900
X94850
X93900Y91850
X81050Y90400
X75450
X67100Y90300
X66100
X57100
X56100
X55400Y91350
X54100Y90500
X53100Y90400
X52100Y90500
X42400Y90200
Y91200
X40800Y90200
Y91200
X39800Y91700
X38900Y91200
Y92200
X37050Y91500
X35150
X34250Y90300
X33300Y91700
X32050Y90450
Y92450
X30100Y90450
Y91450
Y92450
X27400Y90950
X25800
X25700Y92450
X24850Y91550
X23900Y90900
X21800
X20850Y91850
X19150Y90950
X18300Y91850
X17350Y90900
X15250
X14300Y91850
X15250Y92500
X16550Y94300
X17350Y92500
X17550Y94300
X19350Y94200
X21000Y93500
X21800Y92500
X23900
X24700Y93500
X26600Y93700
X30100Y93450
Y94450
X32050Y93450
Y94450
X33300Y92700
X35150Y93400
X37050
X38900Y93200
X41350Y94700
X41450Y93700
X46550Y93000
X47000Y94450
X50600Y93500
X52100Y94900
X53100
X54100
X55600Y93500
X72325Y94600
X74925
X76450Y94650
X81400Y93200
X82325Y94600
X84925
X86225
X87600Y93200
X94850Y92500
X96150Y94300
X96950Y92500
X97150Y94300
X98950Y94200
X100600Y93500
X101400Y92500
X103500
X104300Y93500
X106200Y93700
X109700Y93450
Y94450
X111650Y93450
Y94450
X112900Y92700
X114750Y93400
X116650
X118500Y93200
X120950Y94700
X121050Y93700
X126150Y93000
X126600Y94450
X130200Y93500
X131700Y94900
X132700
X133700
X135200Y93500
X151925Y94600
X154525
X156050Y94650
X161000Y93200
X161925Y94600
X164525
X165825
X167200Y93200
X168000Y95700
Y96700
X166400Y95700
Y96700
X165175Y95400
X165000Y96500
X163875Y95400
X163400Y96500
X162575Y95400
X160500Y95700
Y96700
X158900Y95700
Y96700
X155175Y95400
X155150Y96400
X153875Y95400
X153600Y97350
X152575Y95400
X131750Y96950
X119450Y95700
Y96700
X116950Y95250
X115950
X115450Y96200
X114950Y95250
X114450Y96200
X111950Y95700
X110700
X99750Y95600
X98350Y95800
X97350
X94450Y95950
X93300Y96200
X88400Y95700
Y96700
X86800Y95700
Y96700
X85575Y95400
X85400Y96500
X84275Y95400
X83800Y96500
X82975Y95400
X80900Y95700
Y96700
X79300Y95700
Y96700
X75575Y95400
X75550Y96400
X74275Y95400
X74000Y97350
X72975Y95400
X52150Y96950
X39850Y95700
Y96700
X37350Y95250
X36350
X35850Y96200
X35350Y95250
X34850Y96200
X32350Y95700
X31100
X20150Y95600
X18750Y95800
X17750
X14850Y95950
X13700Y96200
Y98700
X14600Y98000
X17750Y98200
X18100Y99200
X18850Y98200
X23350Y99700
X26450Y99950
X27300Y98900
X29900
X32050Y97650
X32900Y98950
X33800Y99400
X34850Y98450
Y99500
X35850Y98450
Y99450
X36850Y98450
X42600Y99000
X42950Y99950
X45200Y99000
X59450Y99250
X61850Y98700
X67710Y99950
X71600Y99000
X72150Y98150
X73350
X76225Y98300
X77700Y99700
X81400Y99350
X82150Y98150
X83350
X86225Y98300
X87700Y99700
X93300Y98700
X94200Y98000
X97350Y98200
X97700Y99200
X98450Y98200
X102950Y99700
X106050Y99950
X106900Y98900
X109500
X111650Y97650
X112500Y98950
X113400Y99400
X114450Y98450
Y99500
X115450Y98450
Y99450
X116450Y98450
X122200Y99000
X122550Y99950
X124800Y99000
X139050Y99250
X141450Y98700
X147310Y99950
X151200Y99000
X151750Y98150
X152950
X155825Y98300
X157300Y99700
X161000Y99350
X161750Y98150
X162950
X165825Y98300
X167300Y99700
X166600Y101950
X166450Y100600
X165600Y101350
X164900Y100600
X162800Y101350
X162000Y101950
X161750Y100600
X160100Y100200
X159775Y102350
X158750
X156600Y101950
X156450Y100600
X155600Y101350
X154900Y100600
X152800Y101350
X152000Y101950
X151750Y100600
X148400Y100400
X143950Y100450
X142400Y100400
X137850Y102250
X134900Y102400
X134400Y101450
X124800Y100900
X123700Y102200
X122200Y101000
X121500Y101900
X119900Y102050
X118150Y101250
X117800Y100200
X115800Y102400
X114600Y100750
X112700Y102250
X112650Y100750
X109500Y100500
X106900
X105350Y100700
X102950Y102450
X102250Y100450
X97700Y100250
X94200
X93300Y101200
X87000Y101950
X86850Y100600
X86000Y101350
X85300Y100600
X83200Y101350
X82400Y101950
X82150Y100600
X80500Y100200
X80175Y102350
X79150
X77000Y101950
X76850Y100600
X76000Y101350
X75300Y100600
X73200Y101350
X72400Y101950
X72150Y100600
X68800Y100400
X64350Y100450
X62800Y100400
X58250Y102250
X55300Y102400
X54800Y101450
X45200Y100900
X44100Y102200
X42600Y101000
X41900Y101900
X40300Y102050
X38550Y101250
X38200Y100200
X36200Y102400
X35000Y100750
X33100Y102250
X33050Y100750
X29900Y100500
X27300
X25750Y100700
X23350Y102450
X22650Y100450
X18100Y100250
X14600
X13700Y101200
Y103700
X18650Y104200
X19600Y103700
X20100Y102600
X20600Y103500
X21500Y104200
X22100Y103400
X25750Y103450
X27400Y104350
X28350Y104850
X31800Y103050
X35050
X36100Y104200
X38450Y103050
X41050
X41750Y104700
X42600Y103700
X44350Y104300
X46350Y104250
X55000
X55700Y103400
X55850Y104850
X57600Y103950
X59550Y102600
X60850Y103400
X61500Y102600
X62800
X64900Y103400
X65550Y102600
X67500
X68800
X72450Y102950
Y103950
X74000Y102850
Y104050
X75200Y102850
Y104050
X76750Y102950
X81125Y104450
X82450Y102950
Y103950
X84000Y102850
Y104050
X85200Y102850
Y104050
X86750Y102950
X93300Y103700
X98250Y104200
X99200Y103700
X99700Y102600
X100200Y103500
X101100Y104200
X101700Y103400
X105350Y103450
X107000Y104350
X107950Y104850
X111400Y103050
X114650
X115700Y104200
X118050Y103050
X120650
X121350Y104700
X122200Y103700
X123950Y104300
X125950Y104250
X134600
X135300Y103400
X135450Y104850
X137200Y103950
X139150Y102600
X140450Y103400
X141100Y102600
X142400
X144500Y103400
X145150Y102600
X147100
X148400
X152050Y102950
Y103950
X153600Y102850
Y104050
X154800Y102850
Y104050
X156350Y102950
X160725Y104450
X162050Y102950
Y103950
X163600Y102850
Y104050
X164800Y102850
Y104050
X166350Y102950
X168250Y106000
X167800Y107000
X166400Y106400
X162150Y106600
X160725Y107050
X159650Y107400
X147750Y106300
X145800
X145150Y105500
X144500Y106300
X141750
X141100Y105500
X139800Y106300
X139200Y105200
X138500Y106300
X137950Y105250
X136950
X134450
X132450
X131450
X130450
X129450
X128450
X127450
X126450
X125450
X124450
X121550Y106900
X120650Y105450
X118700Y106200
X117200
X114650Y105450
X107950Y106950
X107000Y107450
X104100Y107150
X102900Y107000
X100450Y106600
X99450
X98200Y106700
X97200
X96050Y105050
Y106100
X95050Y105050
Y106050
X88650Y106000
X88200Y107000
X86800Y106400
X82550Y106600
X81125Y107050
X80050Y107400
X68150Y106300
X66200
X65550Y105500
X64900Y106300
X62150
X61500Y105500
X60200Y106300
X59600Y105200
X58900Y106300
X58350Y105250
X57350
X54850
X52850
X51850
X50850
X49850
X48850
X47850
X46850
X45850
X44850
X41950Y106900
X41050Y105450
X39100Y106200
X37600
X35050Y105450
X28350Y106950
X27400Y107450
X24500Y107150
X23300Y107000
X20850Y106600
X19850
X18600Y106700
X17600
X16450Y105050
Y106100
X15450Y105050
Y106050
X18350Y108750
X19350
X24510Y109550
X25850Y109000
X26450Y107900
X28350Y109550
X31150Y108950
X33100Y107700
X34400Y108950
X37150
X39100Y108700
X39600Y107700
X41950Y108000
X43850Y109250
X44350Y108150
X44850Y109250
X45350Y108150
X45850Y109250
X46350Y108150
X46850Y109250
X47350Y108150
X47850Y109250
X48350Y108150
X48850Y109250
X49350Y108150
X49850Y109250
X50350Y108150
X50850Y109250
X51350Y108150
X51850Y109250
X52350Y108150
X52850Y109250
X53350Y108150
X53850Y109250
X54850
X55900Y108150
Y109250
X57000Y108150
Y109150
X58900Y108500
Y109500
X60150Y109600
X61900
X64900Y108500
X66850
X70350Y108950
X73150Y108850
X74150
X75150Y107850
X76150
X77050Y109450
X78650
X81200Y108200
X83150Y108850
X84150
X85150Y107850
X85550Y109900
X86150Y107850
X87050Y109450
X88650
X97950Y108750
X98950
X104110Y109550
X105450Y109000
X106050Y107900
X107950Y109550
X110750Y108950
X112700Y107700
X114000Y108950
X116750
X118700Y108700
X119200Y107700
X121550Y108000
X123450Y109250
X123950Y108150
X124450Y109250
X124950Y108150
X125450Y109250
X125950Y108150
X126450Y109250
X126950Y108150
X127450Y109250
X127950Y108150
X128450Y109250
X128950Y108150
X129450Y109250
X129950Y108150
X130450Y109250
X130950Y108150
X131450Y109250
X131950Y108150
X132450Y109250
X132950Y108150
X133450Y109250
X134450
X135500Y108150
Y109250
X136600Y108150
Y109150
X138500Y108500
Y109500
X139750Y109600
X141500
X144500Y108500
X146450
X149950Y108950
X152750Y108850
X153750
X154750Y107850
X155750
X156650Y109450
X158250
X160800Y108200
X162750Y108850
X163750
X164750Y107850
X165150Y109900
X165750Y107850
X166650Y109450
X168250
Y112400
X165650
X164200Y111250
X163200
X161250Y112200
X159200Y111700
X155200Y111250
X154200
X153250Y112250
X152250Y112400
X149650
X147100Y111750
X140600Y111250
X137950Y112150
X136950
X135950
X134950
X133950
X132950
X131950
X130950
X129950
X128950
X127950
X126950
X125950
X124950
X123950
X122700
X121700
X121550Y110650
X119350Y112200
X118050Y111350
X117400Y112150
X116750Y111350
X115700Y110700
X112050Y111350
X110750
X108900Y110100
X108450Y111750
X106900Y111450
X102250Y110200
X88650Y112400
X86050
X84600Y111250
X83600
X81650Y112200
X79600Y111700
X75600Y111250
X74600
X73650Y112250
X72650Y112400
X70050
X67500Y111750
X61000Y111250
X58350Y112150
X57350
X56350
X55350
X54350
X53350
X52350
X51350
X50350
X49350
X48350
X47350
X46350
X45350
X44350
X43100
X42100
X41950Y110650
X39750Y112200
X38450Y111350
X37800Y112150
X37150Y111350
X36100Y110700
X32450Y111350
X31150
X29300Y110100
X28850Y111750
X27300Y111450
X22650Y110200
X17800Y113200
Y114200
X19900Y113200
Y114200
X20690Y114950
X20700Y112550
X24505
X26450Y113650
X27250Y112600
X28250
Y114350
X29450
X31200Y113350
Y114350
X32000Y114950
X33700Y112900
X34550Y114700
X35200Y112900
X37700Y113650
X42650Y114650
X47950Y114200
X49450Y114750
X50500Y114000
X51450Y114750
X53250Y113950
X54700Y114750
X55500Y114100
X56450Y113150
X56850Y114950
X57250Y113800
X58800Y113450
Y114450
X60900Y113450
Y114450
X61950Y113350
X63000
X70850Y113500
X71900Y113300
X72950Y113750
X74150Y113200
X75150Y113300
X76150
X77600Y113700
X78550Y114350
X78900Y113000
X80050Y112800
X80700Y114300
X81600Y113750
X82600Y113300
X83600Y113250
X84600
X85100Y114950
X97400Y113200
Y114200
X99500Y113200
Y114200
X100290Y114950
X100300Y112550
X104105
X106050Y113650
X106850Y112600
X107850
Y114350
X109050
X110800Y113350
Y114350
X111600Y114950
X113300Y112900
X114150Y114700
X114800Y112900
X117300Y113650
X122250Y114650
X127550Y114200
X129050Y114750
X130100Y114000
X131050Y114750
X132850Y113950
X134300Y114750
X135100Y114100
X136050Y113150
X136450Y114950
X136850Y113800
X138400Y113450
Y114450
X140500Y113450
Y114450
X141550Y113350
X142600
X150450Y113500
X151500Y113300
X152550Y113750
X153750Y113200
X154750Y113300
X155750
X157200Y113700
X158150Y114350
X158500Y113000
X159650Y112800
X160300Y114300
X161200Y113750
X162200Y113300
X163200Y113250
X164200
X164700Y114950
Y115950
X163800Y116650
X162050Y115850
X160300Y115700
X159650Y117350
X158650
X158200Y115350
X157300Y116700
X153800Y115700
X152900Y115250
X152300Y117150
X149550Y116450
X148400Y116800
X138200Y116900
X137150Y117150
X136450Y116200
X134300Y116650
X133700Y115700
X131850
X131100Y116600
X129050Y116650
X128500Y115700
X127250Y115200
Y116200
X125150Y115200
Y116200
X122000
Y117200
X119900Y116200
Y117200
X119700Y115150
X118900Y116850
X117900Y116400
X117100Y117250
X114150Y115700
X110850Y116900
X110800Y115550
X109050
Y117300
X107850Y115550
Y117300
X98550Y116450
Y117450
X97700Y115700
X96620Y115100
X95350
X95100Y116300
X94070Y115100
X92800
X85100Y115950
X84200Y116650
X82450Y115850
X80700Y115700
X80050Y117350
X79050
X78600Y115350
X77700Y116700
X74200Y115700
X73300Y115250
X72700Y117150
X69950Y116450
X68800Y116800
X58600Y116900
X57550Y117150
X56850Y116200
X54700Y116650
X54100Y115700
X52250
X51500Y116600
X49450Y116650
X48900Y115700
X47650Y115200
Y116200
X45550Y115200
Y116200
X42400
Y117200
X40300Y116200
Y117200
X40100Y115150
X39300Y116850
X38300Y116400
X37500Y117250
X34550Y115700
X31250Y116900
X31200Y115550
X29450
Y117300
X28250Y115550
Y117300
X18950Y116450
Y117450
X18100Y115700
X17020Y115100
X15750
X15500Y116300
X14470Y115100
X13200
X16450Y118050
X17600Y118200
X20450Y118050
X21500Y118100
X24450Y118050
X28850Y118100
X31700Y117950
X34550Y117700
X36450Y117750
X58700Y117900
X66850Y117700
X74850
X75850
X76850
X77850
X81350
X82350
X83350
X84350
X96050Y118050
X97200Y118200
X100050Y118050
X101100Y118100
X104050Y118050
X108450Y118100
X111300Y117950
X114150Y117700
X116050Y117750
X138300Y117900
X146450Y117700
X154450
X155450
X156450
X157450
X160950
X161950
X162950
X163950
T02
X142300Y20625
X62700
X142300Y35575
X62700
X142300Y75225
X62700
X142300Y90175
X62700
T01
X141200Y16730
X61600
X130200Y21100
X50600
X61600Y39470
X141200
X130200Y46600
X50600
X141200Y71330
X61600
X130200Y75700
X50600
X61600Y94070
X141200
X130200Y101200
X50600
T00
M30
