; Version : LOCAL
; Job     : C:\Users\MartinJohansson\OneDrive - E-Sharp AB\DesignLabs\PLM\Projects\ELECTRONICS\Sparrow_Fixture_Electronics\Sparrow_NTop_R3\PCB\Panel\sparrow_n-top\sparrow_n-top.pnl
; User    : ESHARP-MARTIN:MartinJohansson
; Date    : Fri Dec 12 09:34:59 2025
; Format  : 3.3 / Absolute / MM / Leading
; Contents: Thru / Drill / Non-Plated
M48
METRIC,TZ
FMAT,2
ICI,OFF
T04C0.500
T05C1.450
T06C3.000
%
M71
G90
G93X0Y0
T04
X177600Y11600
X176700
X175800
X174900
X174000
X160000
X159100
X158200
X157300
X156400
X104000
X103100
X102200
X101300
X100400
X80400
X79500
X78600
X77700
X76800
X24400
X23500
X22600
X21700
X20800
X6800
X5900
X5000
X4100
X3200
X169200Y36300
Y37200
X91200Y36300
Y37200
X89600Y36300
Y37200
X11600Y36300
Y37200
Y38100
Y39000
Y39900
X89600Y38100
Y39000
Y39900
X91200Y38100
Y39000
Y39900
X169200Y38100
Y39000
Y39900
X20800Y64600
X21700
X22600
X23500
X24400
X76800
X77700
X78600
X79500
X80400
X100400
X101300
X102200
X103100
X104000
X156400
X157300
X158200
X159100
X160000
Y66200
X159100
X158200
X157300
X156400
X104000
X103100
X102200
X101300
X100400
X80400
X79500
X78600
X77700
X76800
X24400
X23500
X22600
X21700
X20800
X169200Y90900
Y91800
X91200Y90900
Y91800
X89600Y90900
Y91800
X11600Y90900
Y91800
Y92700
Y93600
Y94500
X89600Y92700
Y93600
Y94500
X91200Y92700
Y93600
Y94500
X169200Y92700
Y93600
Y94500
X3200Y119200
X4100
X5000
X5900
X6800
X20800
X21700
X22600
X23500
X24400
X76800
X77700
X78600
X79500
X80400
X100400
X101300
X102200
X103100
X104000
X156400
X157300
X158200
X159100
X160000
X174000
X174900
X175800
X176700
X177600
T05
X140350Y22100
X60750
Y34100
X140350
Y76700
X60750
Y88700
X140350
T06
X175800Y20000
X5000
X175800Y110800
X5000
T00
M30
