; Version : LOCAL
; Job     : C:\Users\MartinJohansson\OneDrive - E-Sharp AB\DesignLabs\PLM\Projects\ELECTRONICS\Sparrow_IDC_N-TOP\fe_n-top_R3\PCB\Panel\fe_n-top\fe_n-top.pnl
; User    : ESHARP-MARTIN:MartinJohansson
; Date    : Fri Apr 17 11:26:49 2026
; Format  : 3.3 / Absolute / MM / Leading
; Contents: Thru / Drill / Plated
M48
METRIC,TZ
FMAT,2
ICI,OFF
T02C0.300
T03C0.500
T01C4.200
%
M71
G90
G93X0Y0
T02
X17700Y13600
X21100Y14100
X21900Y14750
X22700Y13100
X22800Y14100
X25400Y13400
X26300Y13600
X28700Y13400
X29950Y13300
X32500Y13700
X34700Y13400
X35600Y14300
X36000Y13300
X37100Y12500
X38200Y13400
X39000Y13500
X41200Y13300
X42900Y13400
X43800Y14700
X45700Y13300
X45800Y14700
X47650
X49400Y13400
X49550Y14700
X51400
X53200Y13400
X53300Y14700
X55400
X57200Y13400
X57300Y14700
X62100Y14100
X65600Y13900
X74800Y14100
X78400
X83150Y14050
X83850Y13250
X97300Y13600
X100700Y14100
X101500Y14750
X102300Y13100
X102400Y14100
X105000Y13400
X105900Y13600
X108300Y13400
X109550Y13300
X112100Y13700
X114300Y13400
X115200Y14300
X115600Y13300
X116700Y12500
X117800Y13400
X118600Y13500
X120800Y13300
X122500Y13400
X123400Y14700
X125300Y13300
X125400Y14700
X127250
X129000Y13400
X129150Y14700
X131000
X132800Y13400
X132900Y14700
X135000
X136800Y13400
X136900Y14700
X141700Y14100
X145200Y13900
X154400Y14100
X158000
X162750Y14050
X163450Y13250
X165200Y15200
X158740Y17350
X158000Y15200
X156200Y17350
X154700Y16500
X153660Y17350
X151120
X149600Y17200
X148580Y17350
X146040
X145200Y15000
X143500Y17350
X140960
X126400Y15600
X121700Y15100
X119400Y16200
X118400Y17100
X118100Y16100
X116900Y16200
X114400
X112800Y17100
X111800Y16200
X109320
X107700
X106700
X105700Y17200
X105300Y16200
X104200
X103200Y16300
X101700Y16200
X100300Y17100
X95100Y16400
X92500
X85600Y15200
X79140Y17350
X78400Y15200
X76600Y17350
X75100Y16500
X74060Y17350
X71520
X70000Y17200
X68980Y17350
X66440
X65600Y15000
X63900Y17350
X61360
X46800Y15600
X42100Y15100
X39800Y16200
X38800Y17100
X38500Y16100
X37300Y16200
X34800
X33200Y17100
X32200Y16200
X29720
X28100
X27100
X26100Y17200
X25700Y16200
X24600
X23600Y16300
X22100Y16200
X20700Y17100
X15500Y16400
X12900
X17600Y18200
X18100Y19200
X18700Y18100
X20700Y19100
X23300Y19500
X24500
X26100Y18600
Y19600
X27700Y19500
X30800
X31100Y18100
X32350Y19600
X33200Y18600
X33800Y17600
X34000Y19500
X37300
X38600Y19600
X38800Y18600
X40200Y19500
X42600Y19600
X44500Y18300
X46600Y18600
Y19600
X53750Y17850
X55600Y18300
X56700
X83150Y19175
X85550
X97200Y18200
X97700Y19200
X98300Y18100
X100300Y19100
X102900Y19500
X104100
X105700Y18600
Y19600
X107300Y19500
X110400
X110700Y18100
X111950Y19600
X112800Y18600
X113400Y17600
X113600Y19500
X116900
X118200Y19600
X118400Y18600
X119800Y19500
X122200Y19600
X124100Y18300
X126200Y18600
Y19600
X133350Y17850
X135200Y18300
X136300
X162750Y19175
X165150
X162750Y20925
X149800Y21400
X149100Y20600
X147300
X144700Y22300
X135300Y21800
X126100Y20800
X123400
X120400Y22000
X115900Y22100
X103200Y22400
X102200Y20600
X100300Y20800
X98300Y21800
X97200Y22100
X83150Y20925
X70200Y21400
X69500Y20600
X67700
X65100Y22300
X55700Y21800
X46500Y20800
X43800
X40800Y22000
X36300Y22100
X23600Y22400
X22600Y20600
X20700Y20800
X18700Y21800
X17600Y22100
X14900Y24500
X20500Y23550
X20700Y22550
X28100Y23100
Y24450
X28700Y24000
X29700Y24800
X31100Y23100
X33200Y23800
X33600Y24600
X33800Y23300
X35800Y24200
X36300Y22950
X38250Y24150
X38550Y23150
X40800Y24250
X41100Y23450
X43400Y23300
Y24300
X44500Y23500
Y24300
X45600Y24600
X46600
X54850
X56350
X57300Y23600
X57350Y24600
X59850Y23600
Y24600
X60000Y22600
X61360Y22750
X62350Y24400
X63900Y22750
X65100Y23300
Y24300
X66440Y22750
X67400Y24100
X68980Y22750
X69800Y24700
X71520Y22750
X73100Y24500
X74060Y22750
X75200Y22900
Y23900
X76600Y22750
X77700Y23900
X79140Y22750
X94500Y24500
X100100Y23550
X100300Y22550
X107700Y23100
Y24450
X108300Y24000
X109300Y24800
X110700Y23100
X112800Y23800
X113200Y24600
X113400Y23300
X115400Y24200
X115900Y22950
X117850Y24150
X118150Y23150
X120400Y24250
X120700Y23450
X123000Y23300
Y24300
X124100Y23500
Y24300
X125200Y24600
X126200
X134450
X135950
X136900Y23600
X136950Y24600
X139450Y23600
Y24600
X139600Y22600
X140960Y22750
X141950Y24400
X143500Y22750
X144700Y23300
Y24300
X146040Y22750
X147000Y24100
X148580Y22750
X149400Y24700
X151120Y22750
X152700Y24500
X153660Y22750
X154800Y22900
Y23900
X156200Y22750
X157300Y23900
X158740Y22750
X165150Y26300
X162700Y25450
X160250Y25400
X159750Y26350
X158000Y25100
Y26200
X154450Y25100
X150700Y25300
X150500Y27000
X149600Y26100
X132600Y25100
Y26350
X131400Y25975
X130200Y25100
X129000Y25975
X127600Y26400
X110800Y26100
X110000Y26700
X109750Y25550
X108950Y26550
X106200Y25100
Y26100
X102300Y25100
X95400Y27100
X92500
X85550Y26300
X83100Y25450
X80650Y25400
X80150Y26350
X78400Y25100
Y26200
X74850Y25100
X71100Y25300
X70900Y27000
X70000Y26100
X53000Y25100
Y26350
X51800Y25975
X50600Y25100
X49400Y25975
X48000Y26400
X31200Y26100
X30400Y26700
X30150Y25550
X29350Y26550
X26600Y25100
Y26100
X22700Y25100
X15800Y27100
X12900
X22500Y28100
Y29600
X24600Y28600
X25600Y28100
Y29600
X27500Y28100
X28600Y28500
X32850Y27550
X33850Y28650
X34250Y27550
X34850Y28100
X35450Y27550
Y28650
X36750Y27550
Y28650
X37350Y28100
X37950Y27550
Y28650
X39250Y27550
Y28650
X39850Y28100
X40400Y27550
Y28650
X41800Y27550
Y28650
X42350Y28100
X42900Y27550
Y28650
X44250Y27550
Y28650
X44850Y28100
X45450Y27550
Y28650
X47100Y27600
Y28650
X50096Y28600
X52200Y28100
X54850Y27550
Y28600
X56250Y27550
Y28650
X56850Y28100
X57450Y27550
Y28650
X58750Y27550
Y28650
X59350Y28100
X59950Y27550
Y28650
X60650Y28100
X61250Y27550
Y28650
X61850Y28100
X62450Y27550
Y28650
X63750Y27550
Y28650
X64350Y28100
X64950Y27550
Y28650
X66250Y27550
Y28650
X66850Y28100
X67450Y27550
Y28650
X68750Y27550
X68800Y28650
X69800Y27750
X70100Y29900
X77800Y29950
X78000Y28100
X79600Y29400
X102100Y28100
Y29600
X104200Y28600
X105200Y28100
Y29600
X107100Y28100
X108200Y28500
X112450Y27550
X113450Y28650
X113850Y27550
X114450Y28100
X115050Y27550
Y28650
X116350Y27550
Y28650
X116950Y28100
X117550Y27550
Y28650
X118850Y27550
Y28650
X119450Y28100
X120000Y27550
Y28650
X121400Y27550
Y28650
X121950Y28100
X122500Y27550
Y28650
X123850Y27550
Y28650
X124450Y28100
X125050Y27550
Y28650
X126700Y27600
Y28650
X129696Y28600
X131800Y28100
X134450Y27550
Y28600
X135850Y27550
Y28650
X136450Y28100
X137050Y27550
Y28650
X138350Y27550
Y28650
X138950Y28100
X139550Y27550
Y28650
X140250Y28100
X140850Y27550
Y28650
X141450Y28100
X142050Y27550
Y28650
X143350Y27550
Y28650
X143950Y28100
X144550Y27550
Y28650
X145850Y27550
Y28650
X146450Y28100
X147050Y27550
Y28650
X148350Y27550
X148400Y28650
X149400Y27750
X149700Y29900
X157400Y29950
X157600Y28100
X159200Y29400
X158000Y32100
X156800Y30800
X156000Y31450
X155650Y30150
X154400Y32100
X148700Y31600
X147450
X145950
X143450
X141700Y32200
X140950Y31600
X139950
X138450
X135950
X133700
X130700Y31300
X128700Y32200
X126700Y31600
X125450
X123950
X121700
X119700
X118700
X116900
X115200
X113900Y31900
X112950Y31600
X107200Y30700
X106000Y31900
X102300Y32000
X100500Y30600
X99200Y31400
X78400Y32100
X77200Y30800
X76400Y31450
X76050Y30150
X74800Y32100
X69100Y31600
X67850
X66350
X63850
X62100Y32200
X61350Y31600
X60350
X58850
X56350
X54100
X51100Y31300
X49100Y32200
X47100Y31600
X45850
X44350
X42100
X40100
X39100
X37300
X35600
X34300Y31900
X33350Y31600
X27600Y30700
X26400Y31900
X22700Y32000
X20900Y30600
X19600Y31400
X25700Y34700
X35500Y32600
X38500Y33900
X39100Y32600
X41100
Y34600
X43350Y32550
X46000Y34000
X46900Y33100
X50000Y32900
Y34900
X50100Y33900
X50800Y34900
X51600
X54200Y32800
Y34400
X55300Y34800
X55350Y32550
X57850
X60400Y33850
X60800Y32600
X65000Y34900
X65300Y33900
X66350Y32600
X72800Y33500
X74600Y32900
X78400Y33100
X105300Y34700
X115100Y32600
X118100Y33900
X118700Y32600
X120700
Y34600
X122950Y32550
X125600Y34000
X126500Y33100
X129600Y32900
Y34900
X129700Y33900
X130400Y34900
X131200
X133800Y32800
Y34400
X134900Y34800
X134950Y32550
X137450
X140000Y33850
X140400Y32600
X144600Y34900
X144900Y33900
X145950Y32600
X152400Y33500
X154200Y32900
X158000Y33100
X165200Y37100
X162700
X158740Y35225
X156200
X153660
X151118Y35227
X148580Y35225
X146040
X143500
X140960
X136200Y36100
X135100
X134500Y37350
X133300Y36500
X132200Y36100
X131200Y37100
X129200
X128200Y36100
X127500Y35600
X127100Y36600
X126500Y35050
X126100Y36200
Y37200
X123500Y37050
X119440Y35225
X118450Y36400
X116900Y35225
X114360
X111820
X109280
X107800Y35500
X106740Y35225
X104200
X101660
X97000Y36100
X85600Y37100
X83100
X79140Y35225
X76600
X74060
X71518Y35227
X68980Y35225
X66440
X63900
X61360
X56600Y36100
X55500
X54900Y37350
X53700Y36500
X52600Y36100
X51600Y37100
X49600
X48600Y36100
X47900Y35600
X47500Y36600
X46900Y35050
X46500Y36200
Y37200
X43900Y37050
X39840Y35225
X38850Y36400
X37300Y35225
X34760
X32220
X29680
X28200Y35500
X27140Y35225
X24600
X22060
X17400Y36100
X15800Y38000
X16350Y39675
X40200Y38550
X41600Y38650
X43700Y38600
X44600Y39700
X46500Y39100
X47500Y37700
Y38500
Y39800
X49600Y39100
X51600
X53700Y37600
Y38600
X54800Y39100
X54950Y38100
X61700Y38450
X65000Y39200
X83150Y38800
X95400Y38000
X95950Y39675
X119800Y38550
X121200Y38650
X123300Y38600
X124200Y39700
X126100Y39100
X127100Y37700
Y38500
Y39800
X129200Y39100
X131200
X133300Y37600
Y38600
X134400Y39100
X134550Y38100
X141300Y38450
X144600Y39200
X162750Y38800
X158740Y40625
X157300Y42100
X156200Y40625
X153660
X151120
X148580
X147000Y40400
X146040Y40625
X143500
X142205Y42040
X140960Y40625
X135800Y40350
X134200Y40150
X133300Y40900
X132400Y40300
X131800Y41200
X131300Y42200
X130700Y41200
X129700
X128600
X128200Y40200
X127400Y40700
X123900Y42200
X123000Y40000
Y41000
X120900Y41600
X120700Y40300
X119440Y40625
X116900
X114360
X111820
X109280
X108200Y41400
X106740Y40625
X105300Y42100
X104200Y40625
X103100Y42100
X101660Y40625
X97000Y41600
X79140Y40625
X77700Y42100
X76600Y40625
X74060
X71520
X68980
X67400Y40400
X66440Y40625
X63900
X62605Y42040
X61360Y40625
X56200Y40350
X54600Y40150
X53700Y40900
X52800Y40300
X52200Y41200
X51700Y42200
X51100Y41200
X50100
X49000
X48600Y40200
X47800Y40700
X44300Y42200
X43400Y40000
Y41000
X41300Y41600
X41100Y40300
X39840Y40625
X37300
X34760
X32220
X29680
X28600Y41400
X27140Y40625
X25700Y42100
X24600Y40625
X23500Y42100
X22060Y40625
X17400Y41600
X26400Y43000
Y44100
X35100Y43000
X39100Y44300
X40400Y43400
X47950Y42800
X65600Y42900
Y43900
X74850Y42850
X78400Y44300
X106000Y43000
Y44100
X114700Y43000
X118700Y44300
X120000Y43400
X127550Y42800
X145200Y42900
Y43900
X154450Y42850
X158000Y44300
X121500Y45600
X117350Y45200
X41900Y45600
X37750Y45200
X22800Y49400
X26400Y49600
X36475Y49150
X39100Y49400
X56000Y48700
X56450Y49400
X57750Y48900
X59900Y49600
X62100Y49400
X65600Y49700
X74850Y49850
X78400Y49400
X102400
X106000Y49600
X116075Y49150
X118700Y49400
X135600Y48700
X136050Y49400
X137350Y48900
X139500Y49600
X141700Y49400
X145200Y49700
X154450Y49850
X158000Y49400
X157400Y51600
X145200Y50700
X139500Y51500
X138600Y50900
X137700Y50553
X135000Y50600
X134150Y50100
X133200Y50600
X132400
X131400
X129000
X118000Y51600
X110700Y52100
X110350Y50600
X106000Y50700
X77800Y51600
X65600Y50700
X59900Y51500
X59000Y50900
X58100Y50553
X55400Y50600
X54550Y50100
X53600Y50600
X52800
X51800
X49400
X38400Y51600
X31100Y52100
X30750Y50600
X26400Y50700
X16200Y54000
X17500
X22060Y53100
X24600
X27140
X29680
X31100Y54100
X32220Y53100
X33600Y54100
X34751Y53100
X37300
X39840
X43900Y54200
X45350Y54000
X48350Y54100
X50850
X53550Y53650
X54800Y53600
X55700Y54000
X57300Y54600
X60400Y54450
X61400Y53100
X63900
X66440
X68980
X71520
X74060
X76600
X79140
X83150Y54925
X85550
X95800Y54000
X97100
X101660Y53100
X104200
X106740
X109280
X110700Y54100
X111820Y53100
X113200Y54100
X114351Y53100
X116900
X119440
X123500Y54200
X124950Y54000
X127950Y54100
X130450
X133150Y53650
X134400Y53600
X135300Y54000
X136900Y54600
X140000Y54450
X141000Y53100
X143500
X146040
X148580
X151120
X153660
X156200
X158740
X162750Y54925
X165150
X162750Y56675
X154800Y56650
X146100Y56300
X144450Y55750
X143350
X138600Y56100
X120400Y56850
X117850Y56700
X83150Y56675
X75200Y56650
X66500Y56300
X64850Y55750
X63750
X59000Y56100
X40800Y56850
X38250Y56700
X16350Y57550
X22060Y58500
X24600
X27140
X29680
X32220
X34760
X36100Y59600
X37300Y58500
X38450Y59000
X38850Y57950
X39840Y58500
X40800Y58000
X44300Y58500
X46200Y57600
X48800Y57800
X50000
X50850Y59100
X53300
X54500Y57600
X54800Y59000
X55600Y57600
X56200Y59900
X61360Y58500
X62600Y59000
X63900Y58500
X66440
X68980
X71520
X74060
X76600
X79140
X95950Y57550
X101660Y58500
X104200
X106740
X109280
X111820
X114360
X115700Y59600
X116900Y58500
X118050Y59000
X118450Y57950
X119440Y58500
X120400Y58000
X123900Y58500
X125800Y57600
X128400Y57800
X129600
X130450Y59100
X132900
X134100Y57600
X134400Y59000
X135200Y57600
X135800Y59900
X140960Y58500
X142200Y59000
X143500Y58500
X146040
X148580
X151120
X153660
X156200
X158740
X158300Y61900
X158000Y60800
X154400Y60900
X145200Y60600
Y61600
X141700Y60900
X140400Y61550
X135800Y60800
Y61800
X131550Y60800
X129450Y61800
X128950Y60800
X126300Y61400
X124700Y61100
Y62100
X119000Y61900
X118700Y60900
X115200Y60600
X106000Y60900
Y62000
X102400Y60900
X78700Y61900
X78400Y60800
X74800Y60900
X65600Y60600
Y61600
X62100Y60900
X60800Y61550
X56200Y60800
Y61800
X51950Y60800
X49850Y61800
X49350Y60800
X46700Y61400
X45100Y61100
Y62100
X39400Y61900
X39100Y60900
X35600Y60600
X26400Y60900
Y62000
X22800Y60900
X47600Y62600
X50600
X53300
X58800Y62500
X59900Y62600
X127200
X130200
X132900
X138400Y62500
X139500Y62600
X116700Y67100
X37100
X17700Y68200
X21100Y68700
X21900Y69350
X22700Y67700
X22800Y68700
X25400Y68000
X26300Y68200
X28700Y68000
X29950Y67900
X32500Y68300
X34700Y68000
X35600Y68900
X36000Y67900
X38200Y68000
X39000Y68100
X41200Y67900
X42100Y69700
X42900Y68000
X43800Y69300
X45700Y67900
X45800Y69300
X47650
X49400Y68000
X49550Y69300
X51400
X53200Y68000
X53300Y69300
X55400
X57200Y68000
X57300Y69300
X62100Y68700
X65600Y68500
Y69600
X74800Y68700
X78400
Y69800
X83150Y68650
X83850Y67850
X85600Y69800
X97300Y68200
X100700Y68700
X101500Y69350
X102300Y67700
X102400Y68700
X105000Y68000
X105900Y68200
X108300Y68000
X109550Y67900
X112100Y68300
X114300Y68000
X115200Y68900
X115600Y67900
X117800Y68000
X118600Y68100
X120800Y67900
X121700Y69700
X122500Y68000
X123400Y69300
X125300Y67900
X125400Y69300
X127250
X129000Y68000
X129150Y69300
X131000
X132800Y68000
X132900Y69300
X135000
X136800Y68000
X136900Y69300
X141700Y68700
X145200Y68500
Y69600
X154400Y68700
X158000
Y69800
X162750Y68650
X163450Y67850
X165200Y69800
X158740Y71950
X156200
X154700Y71100
X153660Y71950
X151120
X149600Y71800
X148580Y71950
X146040
X143500
X140960
X133350Y72450
X126400Y70200
X119400Y70800
X118400Y71700
X118100Y70700
X116900Y70800
X114400
X113400Y72200
X112800Y71700
X111800Y70800
X109320
X107700
X106700
X105700Y71800
X105300Y70800
X104200
X103200Y70900
X101700Y70800
X100300Y71700
X95100Y71000
X92500
X79140Y71950
X76600
X75100Y71100
X74060Y71950
X71520
X70000Y71800
X68980Y71950
X66440
X63900
X61360
X53750Y72450
X46800Y70200
X39800Y70800
X38800Y71700
X38500Y70700
X37300Y70800
X34800
X33800Y72200
X33200Y71700
X32200Y70800
X29720
X28100
X27100
X26100Y71800
X25700Y70800
X24600
X23600Y70900
X22100Y70800
X20700Y71700
X15500Y71000
X12900
X17600Y72800
X18100Y73800
X18700Y72700
X20700Y73700
X23300Y74100
X24500
X26100Y73200
Y74200
X27700Y74100
X30800
X31100Y72700
X32350Y74200
X33200Y73200
X34000Y74100
X37300
X38600Y74200
X38800Y73200
X40200Y74100
X42600Y74200
X44500Y72900
X46600Y73200
Y74200
X55600Y72900
X56700
X83150Y73775
X85550
X97200Y72800
X97700Y73800
X98300Y72700
X100300Y73700
X102900Y74100
X104100
X105700Y73200
Y74200
X107300Y74100
X110400
X110700Y72700
X111950Y74200
X112800Y73200
X113600Y74100
X116900
X118200Y74200
X118400Y73200
X119800Y74100
X122200Y74200
X124100Y72900
X126200Y73200
Y74200
X135200Y72900
X136300
X162750Y73775
X165150
X162750Y75525
X158740Y77350
X156200
X153660
X151120
X149800Y76000
X149100Y75200
X148580Y77350
X147300Y75200
X146040Y77350
X144700Y76900
X143500Y77350
X140960
X139600Y77200
X135300Y76400
X126100Y75400
X123400
X120400Y76600
X115900Y76700
X103200Y77000
X102200Y75200
X100300Y75400
Y77150
X98300Y76400
X97200Y76700
X83150Y75525
X79140Y77350
X76600
X74060
X71520
X70200Y76000
X69500Y75200
X68980Y77350
X67700Y75200
X66440Y77350
X65100Y76900
X63900Y77350
X61360
X60000Y77200
X55700Y76400
X46500Y75400
X43800
X40800Y76600
X36300Y76700
X23600Y77000
X22600Y75200
X20700Y75400
Y77150
X18700Y76400
X17600Y76700
X14900Y79100
X20500Y78150
X22700Y79700
X26600
X28100Y77700
Y79050
X28700Y78600
X29700Y79400
X31100Y77700
X33200Y78400
X33600Y79200
X33800Y77900
X35800Y78800
X36300Y77550
X38250Y78750
X38550Y77750
X40800Y78850
X41100Y78050
X43400Y77900
Y78900
X44500Y78100
Y78900
X45600Y79200
X46600
X50600Y79700
X53000
X54850Y79200
X56350
X57300Y78200
X57350Y79200
X59850Y78200
Y79200
X62350Y79000
X65100Y77900
Y78900
X67400Y78700
X69800Y79300
X71100Y79900
X73100Y79100
X74850Y79700
X75200Y77500
Y78500
X77700
X78400Y79700
X94500Y79100
X100100Y78150
X102300Y79700
X106200
X107700Y77700
Y79050
X108300Y78600
X109300Y79400
X110700Y77700
X112800Y78400
X113200Y79200
X113400Y77900
X115400Y78800
X115900Y77550
X117850Y78750
X118150Y77750
X120400Y78850
X120700Y78050
X123000Y77900
Y78900
X124100Y78100
Y78900
X125200Y79200
X126200
X130200Y79700
X132600
X134450Y79200
X135950
X136900Y78200
X136950Y79200
X139450Y78200
Y79200
X141950Y79000
X144700Y77900
Y78900
X147000Y78700
X149400Y79300
X150700Y79900
X152700Y79100
X154450Y79700
X154800Y77500
Y78500
X157300
X158000Y79700
X165150Y80900
X162700Y80050
X160250Y80000
X159750Y80950
X158000Y80800
X150500Y81600
X149600Y80700
X149400Y82350
X148350Y82150
X147050
X145850
X144550
X143350
X142050
X140850
X139550
X138350
X137050
X135850
X134450
X132600Y80950
X131400Y80575
X129000
X127600Y81000
X126700Y82200
X125050Y82150
X123850
X122500
X121400
X120000
X118850
X117550
X116350
X115050
X113850
X112450
X110800Y80700
X110000Y81300
X109750Y80150
X108950Y81150
X106200Y80700
X95400Y81700
X92500
X85550Y80900
X83100Y80050
X80650Y80000
X80150Y80950
X78400Y80800
X70900Y81600
X70000Y80700
X69800Y82350
X68750Y82150
X67450
X66250
X64950
X63750
X62450
X61250
X59950
X58750
X57450
X56250
X54850
X53000Y80950
X51800Y80575
X49400
X48000Y81000
X47100Y82200
X45450Y82150
X44250
X42900
X41800
X40400
X39250
X37950
X36750
X35450
X34250
X32850
X31200Y80700
X30400Y81300
X30150Y80150
X29350Y81150
X26600Y80700
X15800Y81700
X12900
X22500Y82700
Y84200
X24600Y83200
X25600Y82700
Y84200
X27500Y82700
X28600Y83100
X33850Y83250
X34850Y82700
X35450Y83250
X36750
X37350Y82700
X37950Y83250
X39250
X39850Y82700
X40400Y83250
X41800
X42350Y82700
X42900Y83250
X44250
X44850Y82700
X45450Y83250
X47100
X50096Y83200
X52200Y82700
X54850Y83200
X56250Y83250
X56850Y82700
X57450Y83250
X58750
X59350Y82700
X59950Y83250
X60650Y82700
X61250Y83250
X61850Y82700
X62450Y83250
X63750
X64350Y82700
X64950Y83250
X66250
X66850Y82700
X67450Y83250
X68800
X70100Y84500
X76050Y84750
X77800Y84550
X78000Y82700
X79600Y84000
X102100Y82700
Y84200
X104200Y83200
X105200Y82700
Y84200
X107100Y82700
X108200Y83100
X113450Y83250
X114450Y82700
X115050Y83250
X116350
X116950Y82700
X117550Y83250
X118850
X119450Y82700
X120000Y83250
X121400
X121950Y82700
X122500Y83250
X123850
X124450Y82700
X125050Y83250
X126700
X129696Y83200
X131800Y82700
X134450Y83200
X135850Y83250
X136450Y82700
X137050Y83250
X138350
X138950Y82700
X139550Y83250
X140250Y82700
X140850Y83250
X141450Y82700
X142050Y83250
X143350
X143950Y82700
X144550Y83250
X145850
X146450Y82700
X147050Y83250
X148400
X149700Y84500
X155650Y84750
X157400Y84550
X157600Y82700
X159200Y84000
X158000Y86700
X156800Y85400
X156000Y86050
X154400Y86700
X148700Y86200
X147450
X145950
Y87200
X143450Y86200
X141700Y86800
X140950Y86200
X140400Y87200
X139950Y86200
X138450
X137450Y87150
X135950Y86200
X134950Y87150
X133800Y87400
X133700Y86200
X130700Y85900
X128700Y86800
X126700Y86200
X125450
X123950
X122950Y87150
X121700Y86200
X120700Y87200
X119700Y86200
X118700
Y87200
X116900Y86200
X115200
X115100Y87200
X113900Y86500
X112950Y86200
X107200Y85300
X106000Y86500
X102300Y86600
X100500Y85200
X99200Y86000
X78400Y86700
X77200Y85400
X76400Y86050
X74800Y86700
X69100Y86200
X67850
X66350
Y87200
X63850Y86200
X62100Y86800
X61350Y86200
X60800Y87200
X60350Y86200
X58850
X57850Y87150
X56350Y86200
X55350Y87150
X54200Y87400
X54100Y86200
X51100Y85900
X49100Y86800
X47100Y86200
X45850
X44350
X43350Y87150
X42100Y86200
X41100Y87200
X40100Y86200
X39100
Y87200
X37300Y86200
X35600
X35500Y87200
X34300Y86500
X33350Y86200
X27600Y85300
X26400Y86500
X22700Y86600
X20900Y85200
X19600Y86000
X22060Y89825
X24600
X25700Y89300
X27140Y89825
X29680
X32220
X34760
X37300
X38500Y88500
X39840Y89825
X41100Y89200
X46000Y88600
X46900Y87700
Y89650
X50000Y87500
Y89500
X50100Y88500
X50800Y89500
X51600
X54200Y89000
X55300Y89400
X60400Y88450
X61360Y89825
X63900
X65000Y89500
X65300Y88500
X66440Y89825
X68980
X71518Y89827
X72800Y88100
X74060Y89825
X74600Y87500
X76600Y89825
X78400Y87700
X79140Y89825
X101660
X104200
X105300Y89300
X106740Y89825
X109280
X111820
X114360
X116900
X118100Y88500
X119440Y89825
X120700Y89200
X125600Y88600
X126500Y87700
Y89650
X129600Y87500
Y89500
X129700Y88500
X130400Y89500
X131200
X133800Y89000
X134900Y89400
X140000Y88450
X140960Y89825
X143500
X144600Y89500
X144900Y88500
X146040Y89825
X148580
X151118Y89827
X152400Y88100
X153660Y89825
X154200Y87500
X156200Y89825
X158000Y87700
X158740Y89825
X165200Y91700
X162700
X136200Y90700
X135100
X134500Y91950
X133300Y91100
Y92200
X132200Y90700
X131200Y91700
X129200
X128200Y90700
X127500Y90200
X127100Y91200
Y92300
X126100Y90800
Y91800
X123500Y91650
X118450Y91000
X107800Y90100
X97000Y90700
X85600Y91700
X83100
X56600Y90700
X55500
X54900Y91950
X53700Y91100
Y92200
X52600Y90700
X51600Y91700
X49600
X48600Y90700
X47900Y90200
X47500Y91200
Y92300
X46500Y90800
Y91800
X43900Y91650
X38850Y91000
X28200Y90100
X17400Y90700
X15800Y92600
X16350Y94275
X40200Y93150
X41100Y94900
X41600Y93250
X43400Y94600
X43700Y93200
X44600Y94300
X46500Y93700
X47500Y93100
Y94400
X48600Y94800
X49600Y93700
X51600
X52800Y94900
X53700Y93200
X54600Y94750
X54800Y93700
X54950Y92700
X56200Y94950
X61700Y93050
X65000Y93800
X83150Y93400
X95400Y92600
X95950Y94275
X119800Y93150
X120700Y94900
X121200Y93250
X123000Y94600
X123300Y93200
X124200Y94300
X126100Y93700
X127100Y93100
Y94400
X128200Y94800
X129200Y93700
X131200
X132400Y94900
X133300Y93200
X134200Y94750
X134400Y93700
X134550Y92700
X135800Y94950
X141300Y93050
X144600Y93800
X162750Y93400
X158740Y95225
X157300Y96700
X156200Y95225
X154450Y97450
X153660Y95225
X151120
X148580
X147000Y95000
X146040Y95225
X143500
X142205Y96640
X140960Y95225
X133300Y95500
X131800Y95800
X131300Y96800
X130700Y95800
X129700
X128600
X127550Y97400
X127400Y95300
X123900Y96800
X123000Y95600
X120900Y96200
X119440Y95225
X116900
X114360
X111820
X109280
X108200Y96000
X106740Y95225
X105300Y96700
X104200Y95225
X103100Y96700
X101660Y95225
X97000Y96200
X79140Y95225
X77700Y96700
X76600Y95225
X74850Y97450
X74060Y95225
X71520
X68980
X67400Y95000
X66440Y95225
X63900
X62605Y96640
X61360Y95225
X53700Y95500
X52200Y95800
X51700Y96800
X51100Y95800
X50100
X49000
X47950Y97400
X47800Y95300
X44300Y96800
X43400Y95600
X41300Y96200
X39840Y95225
X37300
X34760
X32220
X29680
X28600Y96000
X27140Y95225
X25700Y96700
X24600Y95225
X23500Y96700
X22060Y95225
X17400Y96200
X26400Y97600
Y98700
X35100Y97600
X37750Y99800
X39100Y98900
X40400Y98000
X65600Y97500
Y98500
X78400Y98900
X106000Y97600
Y98700
X114700Y97600
X117350Y99800
X118700Y98900
X120000Y98000
X145200Y97500
Y98500
X158000Y98900
X121500Y100200
X41900
X22800Y104000
X26400Y104200
X36475Y103750
X39100Y104000
X54550Y104700
X56000Y103300
X56450Y104000
X57750Y103500
X59900Y104200
X62100Y104000
X65600Y104300
X74850Y104450
X78400Y104000
X102400
X106000Y104200
X116075Y103750
X118700Y104000
X134150Y104700
X135600Y103300
X136050Y104000
X137350Y103500
X139500Y104200
X141700Y104000
X145200Y104300
X154450Y104450
X158000Y104000
X157400Y106200
X145200Y105300
X139500Y106100
X138600Y105500
X137700Y105153
X135000Y105200
X133200
X132400
X131400
X129000
X118000Y106200
X110700Y106700
X110350Y105200
X106000Y105300
X77800Y106200
X65600Y105300
X59900Y106100
X59000Y105500
X58100Y105153
X55400Y105200
X53600
X52800
X51800
X49400
X38400Y106200
X31100Y106700
X30750Y105200
X26400Y105300
X16200Y108600
X17500
X22060Y107700
X24600
X27140
X29680
X31100Y108700
X32220Y107700
X33600Y108700
X34751Y107700
X37300
X39840
X43900Y108800
X45350Y108600
X48350Y108700
X50850
X53550Y108250
X54800Y108200
X55700Y108600
X57300Y109200
X60400Y109050
X61400Y107700
X63900
X66440
X68980
X71520
X74060
X76600
X79140
X83150Y109525
X85550
X95800Y108600
X97100
X101660Y107700
X104200
X106740
X109280
X110700Y108700
X111820Y107700
X113200Y108700
X114351Y107700
X116900
X119440
X123500Y108800
X124950Y108600
X127950Y108700
X130450
X133150Y108250
X134400Y108200
X135300Y108600
X136900Y109200
X140000Y109050
X141000Y107700
X143500
X146040
X148580
X151120
X153660
X156200
X158740
X162750Y109525
X165150
X162750Y111275
X154800Y111250
X146100Y110900
X144450Y110350
X143350
X138600Y110700
X135200Y112200
X134100
X129600Y112400
X128400
X125800Y112200
X120400Y111450
X117850Y111300
X95950Y112150
X83150Y111275
X75200Y111250
X66500Y110900
X64850Y110350
X63750
X59000Y110700
X55600Y112200
X54500
X50000Y112400
X48800
X46200Y112200
X40800Y111450
X38250Y111300
X16350Y112150
X22060Y113100
X24600
X27140
X29680
X32220
X34760
X36100Y114200
X37300Y113100
X38450Y113600
X38850Y112550
X39840Y113100
X40800Y112600
X44300Y113100
X50850Y113700
X53300
X54800Y113600
X56200Y114500
X61360Y113100
X62600Y113600
X63900Y113100
X66440
X68980
X71520
X74060
X76600
X79140
X101660
X104200
X106740
X109280
X111820
X114360
X115700Y114200
X116900Y113100
X118050Y113600
X118450Y112550
X119440Y113100
X120400Y112600
X123900Y113100
X130450Y113700
X132900
X134400Y113600
X135800Y114500
X140960Y113100
X142200Y113600
X143500Y113100
X146040
X148580
X151120
X153660
X156200
X158740
X158300Y116500
X158000Y115400
X154400Y115500
X145200Y115200
Y116200
X141700Y115500
X140400Y116150
X139500Y117200
X138400Y117100
X135800Y115400
Y116400
X132900Y117200
X131550Y115400
X130200Y117200
X129450Y116400
X128950Y115400
X127200Y117200
X126300Y116000
X124700Y115700
Y116700
X119000Y116500
X118700Y115500
X115200Y115200
X106000Y115500
Y116600
X102400Y115500
X78700Y116500
X78400Y115400
X74800Y115500
X65600Y115200
Y116200
X62100Y115500
X60800Y116150
X59900Y117200
X58800Y117100
X56200Y115400
Y116400
X53300Y117200
X51950Y115400
X50600Y117200
X49850Y116400
X49350Y115400
X47600Y117200
X46700Y116000
X45100Y115700
Y116700
X39400Y116500
X39100Y115500
X35600Y115200
X26400Y115500
Y116600
X22800Y115500
T03
X138420Y15053
X123300Y17300
X99120Y15053
X96400Y16300
X93860
X58820Y15053
X43700Y17300
X19520Y15053
X16800Y16300
X14260
X67600Y18109
X72600
X77850
X81680Y19647
X147200Y18109
X152200
X157450
X161280Y19647
X157450Y21591
X152200
X147200
X142200Y20341
X138420Y20453
X124054Y22100
X121980Y20453
X99120Y20600
X77850Y21591
X72600
X67600
X62600Y20341
X58820Y20453
X44454Y22100
X42380Y20453
X19520Y20600
X83704Y23600
X163304
X161280Y25047
X96800Y27000
X93500
X81680Y25047
X17200Y27000
X13900
X138400Y37400
X121980Y37473
X99120Y37400
X58800
X42380Y37473
X19520Y37400
X13900Y37750
X23225Y38091
X28350
X33350
X38600
X62600
X67850
X72950
X77700
X81680Y37522
X93500Y37750
X102825Y38091
X107950
X112950
X118200
X142200
X147450
X152550
X157300
X161280Y37522
X163304Y41350
X123874Y41250
X83704Y41350
X44274Y41250
X19520Y42922
X42380Y42829
X58800Y42800
X81680Y42922
X99120
X121980Y42829
X138400Y42800
X161280Y42922
X157450Y46850
X152450
X147450
X142200
X118200
X112950
X107950
X102950
X77850
X72850
X67850
X62600
X38600
X33350
X28350
X23350
X161300Y50900
X136300Y50500
X122000Y50600
X99120Y50803
X81700Y50900
X56700Y50500
X42400Y50600
X19520Y50803
X54350Y54542
X56700Y53700
X59900Y53100
X133950Y54542
X136300Y53700
X139500Y53100
X43600Y57800
X44324Y59600
X45000Y57800
X56600Y57700
X83704Y59100
X123200Y57800
X123924Y59600
X124600Y57800
X136200Y57700
X163304Y59100
X161300Y60700
X122000Y61100
X99120Y60797
X81700Y60700
X42400Y61100
X19520Y60797
X23350Y63209
X28350
X33350
X38600
X62600
X67850
X72850
X77850
X102950
X107950
X112950
X118200
X142200
X147450
X152450
X157450
X19520Y69653
X58820
X99120
X138420
X123300Y71900
X96400Y70900
X93860
X43700Y71900
X16800Y70900
X14260
X62600Y74941
X67600Y72709
X72600
X77850
X81680Y74247
X142200Y74941
X147200Y72709
X152200
X157450
X161280Y74247
X157450Y76191
X152200
X147200
X138420Y75053
X124054Y76700
X121980Y75053
X99120Y75200
X77850Y76191
X72600
X67600
X58820Y75053
X44454Y76700
X42380Y75053
X19520Y75200
X81680Y79647
X83704Y78200
X161280Y79647
X163304Y78200
X96800Y81600
X93500
X17200
X13900
X161280Y92122
X138400Y92000
X121980Y92073
X99120Y92000
X93500Y92350
X81680Y92122
X58800Y92000
X42380Y92073
X19520Y92000
X13900Y92350
X23225Y92691
X28350
X33350
X38600
X62600
X67850
X72950
X77700
X102825
X107950
X112950
X118200
X142200
X147450
X152550
X157300
X163304Y95950
X138400Y97400
X123874Y95850
X121980Y97429
X83704Y95950
X58800Y97400
X44274Y95850
X42380Y97429
X19520Y97522
X81680
X99120
X161280
X157450Y101450
X152450
X147450
X142200
X118200
X112950
X107950
X102950
X77850
X72850
X67850
X62600
X38600
X33350
X28350
X23350
X161300Y105500
X136300Y105100
X122000Y105200
X99120Y105403
X81700Y105500
X56700Y105100
X42400Y105200
X19520Y105403
X54350Y109142
X56700Y108300
X59900Y107700
X133950Y109142
X136300Y108300
X139500Y107700
X136200Y112300
X124600Y112400
X123200
X56600Y112300
X45000Y112400
X43600
X44324Y114200
X83704Y113700
X123924Y114200
X163304Y113700
X161300Y115300
X122000Y115700
X99120Y115397
X81700Y115300
X42400Y115700
X19520Y115397
X23350Y117809
X28350
X33350
X38600
X62600
X67850
X72850
X77850
X102950
X107950
X112950
X118200
X142200
X147450
X152450
X157450
T01
X130200Y21100
X50600
X130200Y46600
X50600
X130200Y75700
X50600
X130200Y101200
X50600
T00
M30
