; Version : LOCAL
; Job     : C:\Users\MartinJohansson\OneDrive - E-Sharp AB\DesignLabs\PLM\Projects\ELECTRONICS\Sparrow_IDC_N-TOP\fe_n-top_R3\PCB\Panel\fe_n-top\fe_n-top.pnl
; User    : ESHARP-MARTIN:MartinJohansson
; Date    : Fri Apr 17 11:26:49 2026
; Format  : 3.3 / Absolute / MM / Leading
; Contents: Thru / Drill / Non-Plated
M48
METRIC,TZ
FMAT,2
ICI,OFF
T04C0.500
T05C3.000
%
M71
G90
G93X0Y0
T04
X160000Y11600
X159100
X158200
X157300
X156400
X104000
X103100
X102200
X101300
X100400
X80400
X79500
X78600
X77700
X76800
X24400
X23500
X22600
X21700
X20800
X169200Y36300
Y37200
X91200Y36300
Y37200
X89600Y36300
Y37200
X11600Y36300
Y37200
Y38100
Y39000
Y39900
X89600Y38100
Y39000
Y39900
X91200Y38100
Y39000
Y39900
X169200Y38100
Y39000
Y39900
X20800Y64600
X21700
X22600
X23500
X24400
X76800
X77700
X78600
X79500
X80400
X100400
X101300
X102200
X103100
X104000
X156400
X157300
X158200
X159100
X160000
Y66200
X159100
X158200
X157300
X156400
X104000
X103100
X102200
X101300
X100400
X80400
X79500
X78600
X77700
X76800
X24400
X23500
X22600
X21700
X20800
X169200Y90900
Y91800
X91200Y90900
Y91800
X89600Y90900
Y91800
X11600Y90900
Y91800
Y92700
Y93600
Y94500
X89600Y92700
Y93600
Y94500
X91200Y92700
Y93600
Y94500
X169200Y92700
Y93600
Y94500
X20800Y119200
X21700
X22600
X23500
X24400
X76800
X77700
X78600
X79500
X80400
X100400
X101300
X102200
X103100
X104000
X156400
X157300
X158200
X159100
X160000
T05
X175300Y11500
X5500
Y119400
X175300
T00
M30
