*
G04 Job   : C:\PADS_WDIR\PADSProVX.2.14.1\PCCD\207cd633-8e29-413e-93b2-d20470c3fcf6\PCB\Board1.pcb*
G04 User  : ESHARP-MTRO_1:MartinTrob踄k*
G04 Layer : layer1.gtl*
G04 Date  : Fri Feb 20 17:46:45 2026*
G04 Copper layer 1 (top)*
%ICAS*%
%MOIN*%
%FSLAX26Y26*%
%OFA0.0000B0.0000*%
G90*
G74*
%AMVB_RECTANGLE*
21,1,$1,$2,0,0,$3*
%
%ADD10C,0.00500*%
%ADD12C,0.00787*%
%ADD13C,0.00945*%
%ADD11C,0.01575*%
%ADD14C,0.01969*%
%ADD15C,0.02362*%
%ADD17C,0.09449*%
%ADD16C,0.10039*%
%ADD18VB_RECTANGLE,0.01575X0.02362X90.00000*%
G01*
G36*
X19685Y2811960D02*
G02X22685Y2814960I3000D01*
G01X62991*
Y2602361*
G03X70865Y2594487I7874*
G01X108267*
Y763778*
G03X113456Y751251I17715*
G01X142821Y721886*
G02X143700Y719765I2120J2121*
G01Y659033*
G02X143221Y657407I3000*
G03X139763Y645668I18195J11739*
X143221Y633930I21652*
G02X143700Y632303I2520J1627*
G01Y391653*
G02X143130Y389895I3000*
G03X139763Y379503I14349J10391*
G01Y348010*
G02X139285Y346383I3000*
G03X135826Y334645I18195J11737*
X157480Y312991I21653*
X179133Y334645J21654*
X175675Y346383I21653*
G02X175196Y348010I2520J1627*
G01Y371290*
G02X175766Y373050I3000*
G03X179133Y383440I14350J10390*
G01Y632303*
G02X179612Y633930I3000*
G03X183070Y645668I18196J11737*
X179612Y657407I21654*
G02X179133Y659033I2520J1625*
G01Y728345*
G03X173945Y740873I17717*
G01X144578Y770238*
G02X143700Y772360I2122J2122*
G01Y1274883*
G02X144578Y1277005I3000*
G01X175196Y1307621*
Y807086*
G03X194881Y785522I21653*
G01Y157480*
G03X216535Y135826I21653*
X238188Y157480J21653*
X216535Y179133I21653*
X194881Y157480J21653*
G01Y354330*
G03X216535Y332676I21653*
X238188Y354330J21654*
X216535Y375983I21653*
X194881Y354330J21652*
G01Y785522*
G03X196850Y785432I1968J21563*
X218503Y807086J21653*
X196850Y828740I21653*
X175196Y807086J21653*
G01Y1141731*
G03X196850Y1120078I21653*
X218503Y1141731J21652*
X196850Y1163385I21653*
X175196Y1141731J21654*
G01Y1307621*
X225761Y1358187*
G02X226502Y1358730I2122J2122*
G03X238188Y1377952I9967J19222*
X226502Y1397175I21653*
G02X225761Y1397717I1380J2662*
G01X164263Y1459215*
G02X163385Y1461336I2122J2120*
G01Y1637087*
G02X164263Y1639210I3000*
G01X194881Y1669826*
Y1633857*
G03X216535Y1612205I21653*
X238188Y1633857J21652*
X216535Y1655511I21653*
X194881Y1633857J21653*
G01Y1669826*
X209377Y1684322*
G03X214566Y1696850I12527J12527*
G01Y1718918*
G02X215045Y1720545I3000*
G03X218503Y1732282I18195J11737*
X196850Y1753936I21653*
X175196Y1732282J21653*
X178655Y1720545I21653*
G02X179133Y1718918I2521J1626*
G01Y1705430*
G02X178255Y1703310I3000*
G01X133141Y1658196*
G03X127952Y1645668I12527J12527*
G01Y1452755*
G03X133141Y1440227I17715*
G01X193295Y1380073*
G02X194175Y1377952I2120J2120*
X193295Y1375830I3000*
G01X113456Y1295991*
G03X108267Y1283465I12527J12526*
G01Y2594487*
X175196*
Y1909448*
G03X196850Y1887795I21653*
X218503Y1909448J21653*
X196850Y1931101I21653*
X175196Y1909448J21652*
G01Y2594487*
X308345*
Y332676*
G03X361810Y279212I53465*
X415275Y332676J53463*
X361810Y386141I53465*
X308345Y332676J53465*
G01Y1036220*
G03X361810Y982755I53465*
X391731Y991912J53464*
G01Y645668*
G03X413385Y624015I21654*
X435038Y645668J21652*
X413385Y667322I21652*
X391731Y645668J21654*
G01Y991912*
G03X415275Y1036220I29920J44307*
X361810Y1089685I53465*
X308345Y1036220J53465*
G01Y1740156*
G03X332676Y1695327I53465*
G01Y1397637*
G03X354330Y1375983I21654*
X375983Y1397637J21654*
X354330Y1419290I21652*
X332676Y1397637J21652*
G01Y1695327*
G03X361810Y1686692I29134J44828*
X415275Y1740156J53463*
X361810Y1793621I53465*
X308345Y1740156J53465*
G01Y2594487*
X431101*
Y1535432*
G03X452755Y1513780I21654*
X474408Y1535432J21652*
X452755Y1557086I21652*
X431101Y1535432J21653*
G01Y2594487*
X470471*
Y2125983*
G03X492125Y2104330I21654*
X513780Y2125983J21652*
X492125Y2147637I21654*
X470471Y2125983J21654*
G01Y2594487*
X529527*
Y1535432*
G03X533465Y1522982I21652*
G01Y1444881*
G03X555117Y1423227I21652*
X576771Y1444881J21653*
X555117Y1466535I21653*
X533465Y1444881J21653*
G01Y1522982*
G03X551180Y1513780I17715J12450*
X572835Y1535432J21652*
X551180Y1557086I21654*
X529527Y1535432J21653*
G01Y2594487*
X568897*
Y2165353*
G03X590550Y2143700I21652*
X612205Y2165353J21652*
X590550Y2187007I21654*
X568897Y2165353J21654*
G01Y2594487*
X627952*
Y1535432*
G03X649605Y1513780I21652*
X671260Y1535432J21652*
X649605Y1557086I21654*
X627952Y1535432J21653*
G01Y2594487*
X687007*
Y1949040*
G03X694960Y1932271I21652*
G02X696062Y1929948I1897J2322*
G01Y1770145*
G02X693947Y1767278I3000*
G03X687007Y1757873I2902J9405*
G01Y1742125*
G03X690527Y1734582I9842*
G02X691600Y1732282I1927J2300*
X690527Y1729983I3000*
G03X687007Y1722440I6322J7542*
G01Y1706692*
G03X693947Y1697287I9842*
G02X696062Y1694421I885J2866*
G01Y1572417*
G03X699242Y1564050I12597*
G02X700000Y1562057I2242J1992*
G01Y1530902*
G02X698897Y1528578I3000*
G03X690945Y1511810I13700J16767*
X712597Y1490156I21652*
X734251Y1511810J21654*
X726298Y1528578I21653*
G02X725196Y1530902I1897J2324*
G01Y1568480*
G03X722016Y1576847I12598*
G02X721260Y1578840I2243J1992*
G01Y1694421*
G02X723375Y1697287I3000*
G03X730315Y1706692I2903J9405*
G01Y1722440*
G03X726795Y1729983I9843*
G02X725721Y1732282I1926J2299*
X726795Y1734582I3000*
G03X730315Y1742125I6323J7542*
G01Y1757873*
G03X723375Y1767278I9843*
G02X721260Y1770145I885J2866*
G01Y1929948*
G02X722361Y1932271I3000*
G03X730315Y1949040I13700J16768*
X708660Y1970693I21654*
X687007Y1949040J21653*
G01Y2594487*
X789370*
Y1511810*
G03X811023Y1490156I21653*
X832676Y1511810J21654*
X824723Y1528578I21652*
G02X823621Y1530902I1897J2324*
G01Y1569061*
G02X824500Y1571183I3000*
G01X826540Y1573223*
G03X830230Y1582131I8907J8907*
G01Y1700150*
G02X832345Y1703017I3000*
G03X839285Y1712422I2902J9405*
G01Y1728170*
G03X835765Y1735713I9842*
G02X834692Y1738012I1927J2299*
X835765Y1740312I3000*
G03X839285Y1747855I6322J7542*
G01Y1763603*
G03X832345Y1773008I9842*
G02X830230Y1775875I885J2866*
G01Y1928516*
G03X826850Y1937105I12597*
G02X826045Y1939150I2195J2045*
X826947Y1941295I3000*
G03X833465Y1956780I15137J15484*
X811810Y1978432I21654*
X790156Y1956780J21652*
X798110Y1940010I21654*
G02X799212Y1937687I1897J2322*
G01Y1934338*
G03X802902Y1925430I12597*
G01X804155Y1924176*
G02X805033Y1922055I2121J2120*
G01Y1775875*
G02X802918Y1773008I3000*
G03X795978Y1763603I2902J9405*
G01Y1747855*
G03X799498Y1740312I9842*
G02X800571Y1738012I1927J2300*
X799498Y1735713I3000*
G03X795978Y1728170I6322J7542*
G01Y1712422*
G03X802918Y1703017I9842*
G02X805033Y1700150I885J2867*
G01Y1588593*
G02X804155Y1586471I3000*
G01X802115Y1584431*
G03X798425Y1575523I8908J8907*
G01Y1530902*
G02X797322Y1528578I3000*
G03X789370Y1511810I13700J16767*
G01Y2594487*
X891731*
Y1511810*
G03X913385Y1490156I21654*
X935038Y1511810J21654*
X913385Y1533465I21652*
X891731Y1511810J21654*
G01Y2594487*
X982282*
Y1742125*
G03X985803Y1734582I9842*
G02X986875Y1732282I1927J2300*
X985802Y1729983I3000*
G03X982282Y1722440I6322J7542*
G01Y1706692*
G03X989222Y1697287I9842*
G02X991338Y1694421I884J2866*
G01Y1576355*
G03X994517Y1567986I12597*
G02X995275Y1565995I2242J1991*
G01Y1530902*
G02X994173Y1528578I3000*
G03X986220Y1511810I13700J16767*
X990156Y1499360I21653*
G01Y818897*
Y818896*
G03X1011810Y797243I21654*
X1033430Y817683J21652*
G02X1034303Y819636I2995J167*
G01X1041338Y826670*
Y791338*
G03X1062991Y769685I21652*
X1079760Y777637J21653*
G02X1082083Y778740I2323J1897*
G01X1108345*
Y332676*
G03X1161810Y279212I53465*
X1215275Y332676J53463*
X1161810Y386141I53465*
X1108345Y332676J53465*
G01Y778740*
X1151018*
G02X1153140Y777860J3000*
G01X1175017Y755983*
G02X1175895Y753862I2122J2120*
X1175810Y753152I3000*
G03X1175196Y748030I21039J5122*
X1196850Y726377I21653*
X1218503Y748030J21652*
X1198063Y769650I21653*
G02X1196110Y770525I167J2995*
G01X1166388Y800246*
G03X1157480Y803936I8908J8907*
G01X1082083*
G02X1079760Y805038J3000*
G03X1062991Y812991I16768J13700*
X1041338Y791338J21652*
G01Y826670*
X1043710Y829042*
G02X1045830Y829920I2120J2122*
G01X1174640*
G02X1176762Y829042J3000*
G01X1199752Y806051*
G03X1208660Y802361I8907J8909*
G01X1236813*
G02X1239136Y801260J3000*
G03X1255905Y793306I16769J13700*
X1277558Y814960J21654*
X1255905Y836613I21652*
X1239136Y828660J21652*
G02X1236813Y827558I2322J1897*
G01X1215121*
G02X1213000Y828437J3000*
G01X1190010Y851427*
G03X1181101Y855117I8909J8907*
G01X1039370*
G03X1030461Y851427J12597*
G01X1019763Y840730*
G02X1017641Y839851I2122J2121*
X1016932Y839936J3000*
G03X1011810Y840550I5122J21038*
X990156Y818897J21652*
G01Y1499360*
G03X1007873Y1490156I17717J12450*
X1021653Y1495107J21654*
G01Y1240156*
G03X1043306Y1218503I21652*
X1060075Y1226456J21652*
G02X1062398Y1227558I2323J1897*
G01X1108345*
Y1036220*
G03X1161810Y982755I53465*
X1215275Y1036220J53464*
X1161810Y1089685I53465*
X1108345Y1036220J53465*
G01Y1227558*
X1283465*
G03X1292372Y1231248J12597*
G01X1400835Y1339710*
G02X1402787Y1340585I2120J2120*
G03X1415353Y1345500I1212J21620*
G01Y826771*
G03X1435038Y805207I21654*
G01Y354330*
G03X1442912Y337626I21654*
G01Y248030*
G03X1464566Y226377I21653*
X1486220Y248030J21652*
X1464566Y269685I21653*
X1442912Y248030J21654*
G01Y337626*
G03X1456692Y332676I13780J16704*
X1478345Y354330J21654*
X1456692Y375983I21652*
X1435038Y354330J21652*
G01Y805207*
G03X1437007Y805117I1969J21563*
X1458660Y826771J21653*
X1437007Y848425I21652*
X1415353Y826771J21653*
G01Y1240156*
G03X1437007Y1218503I21654*
X1458660Y1240156J21652*
X1437007Y1261810I21652*
X1415353Y1240156J21654*
G01Y1345500*
G03X1423227Y1362205I13778J16704*
X1401575Y1383857I21652*
X1379920Y1362205J21652*
X1380535Y1357082I21654*
G02X1380620Y1356372I2915J710*
X1379741Y1354251I3000*
G01X1279125Y1253635*
G02X1277003Y1252755I2121J2120*
G01X1062398*
G02X1060075Y1253857J3000*
G03X1043306Y1261810I16768J13701*
X1021653Y1240156J21654*
G01Y1495107*
G03X1029527Y1511810I13780J16702*
X1021573Y1528578I21654*
G02X1020471Y1530902I1897J2324*
G01Y1572417*
G03X1017292Y1580785I12597*
G02X1016535Y1582776I2242J1991*
G01Y1694421*
G02X1018650Y1697287I3000*
G03X1025590Y1706692I2902J9405*
G01Y1722440*
G03X1022070Y1729983I9842*
G02X1020997Y1732282I1927J2299*
X1022070Y1734582I3000*
G03X1025590Y1742125I6322J7542*
G01Y1757873*
G03X1018650Y1767278I9842*
G02X1016535Y1770145I884J2866*
G01Y1930322*
G02X1017413Y1932443I3000*
G01X1020718Y1935748*
G03X1024408Y1944657I8907J8909*
G01Y1948006*
G02X1025510Y1950330I3000*
G03X1033465Y1967098I13700J16768*
X1011810Y1988751I21654*
X990156Y1967098J21652*
X996667Y1951620I21654*
G02X997570Y1949475I2097J2145*
X996690Y1947355I3000*
G01X995028Y1945691*
G03X991338Y1936783I8907J8907*
G01Y1770145*
G02X989222Y1767278I3000*
G03X982282Y1757873I2902J9405*
G01Y2594487*
X1080708*
Y1742125*
G03X1084228Y1734582I9842*
G02X1085301Y1732282I1927J2300*
X1084228Y1729983I3000*
G03X1080708Y1722440I6322J7542*
G01Y1706692*
G03X1087647Y1697287I9842*
G02X1089763Y1694421I884J2866*
G01Y1692912*
G03X1093453Y1684005I12597*
G01X1100695Y1676762*
G02X1101575Y1674640I2120J2122*
G01Y1539370*
G03X1105265Y1530461I12597*
G01X1119900Y1515826*
G02X1120777Y1513705I2122J2121*
X1120692Y1512995I3000*
G03X1120078Y1507873I21038J5122*
X1135826Y1487040I21652*
G01Y1318897*
G03X1157480Y1297243I21653*
X1174248Y1305196J21654*
G02X1176571Y1306298I2322J1897*
G01X1244687*
G02X1247010Y1305196J3000*
G03X1263780Y1297243I16769J13701*
X1285432Y1318897J21654*
X1263780Y1340550I21652*
X1247010Y1332597J21652*
G02X1244687Y1331495I2322J1897*
G01X1176571*
G02X1174248Y1332597J3000*
G03X1157480Y1340550I16768J13700*
X1135826Y1318897J21652*
G01Y1487040*
G03X1141731Y1486220I5905J20832*
X1163385Y1507873J21653*
X1142945Y1529493I21654*
G02X1140992Y1530366I167J2995*
G01X1127650Y1543710*
G02X1126771Y1545830I2121J2120*
G01Y1681101*
G03X1123081Y1690010I12598*
G01X1119193Y1693897*
G02X1118315Y1696020I2122J2122*
X1119646Y1698512I3000*
G03X1121630Y1700267I5473J8180*
G02X1123902Y1701310I2272J1957*
X1125916Y1700533J3000*
G03X1161810Y1686692I35894J39622*
X1215275Y1740156J53463*
X1161810Y1793621I53465*
X1120290Y1773840J53465*
G02X1117960Y1772730I2329J1890*
X1114960Y1775730J3000*
G01Y1895113*
G02X1115838Y1897235I3000*
G01X1123081Y1904476*
G03X1126771Y1913385I8908J8909*
G01Y1929726*
G02X1127873Y1932050I3000*
G03X1135826Y1948818I13700J16767*
X1114172Y1970471I21653*
X1092520Y1948818J21652*
X1100472Y1932050I21652*
G02X1101575Y1929726I1897J2324*
G01Y1919846*
G02X1100695Y1917725I3000*
G01X1093453Y1910482*
G03X1089763Y1901575I8907J8907*
G01Y1770145*
G02X1087648Y1767278I3000*
G03X1080708Y1757873I2902J9405*
G01Y2594487*
X1081602*
G03X1089476Y2602361J7873*
G01Y2736220*
G03X1081602Y2744093I7873*
G01X70865*
G03X62991Y2736220J7873*
G01Y2814960*
X1415353*
Y1692912*
G03X1437007Y1671260I21654*
X1458660Y1692912J21652*
X1437007Y1714566I21652*
X1415353Y1692912J21653*
G01Y2814960*
X1573920*
Y678251*
G03X1614131Y621580I60038*
G02X1616141Y618748I990J2832*
G01Y446435*
G02X1615662Y444808I3000*
G03X1612205Y433070I18195J11737*
X1615662Y421331I21652*
G02X1616141Y419705I2521J1625*
G01Y229900*
G02X1615662Y228273I3000*
G03X1612205Y216535I18195J11738*
X1633857Y194881I21652*
X1655511Y216535J21653*
X1652053Y228273I21653*
G02X1651575Y229900I2521J1626*
G01Y419705*
G02X1652053Y421331I3000*
G03X1655511Y433070I18195J11739*
X1652053Y444808I21653*
G02X1651575Y446435I2521J1627*
G01Y618678*
G02X1653593Y621513I3000*
G03X1693998Y678251I19635J56737*
X1653593Y734990I60040*
G02X1651575Y737825I981J2835*
G01Y774036*
G02X1652053Y775662I3000*
G03X1655511Y787401I18195J11738*
X1652053Y799140I21653*
G02X1651575Y800766I2521J1626*
G01Y900020*
G02X1652053Y901646I3000*
G03X1655511Y913385I18195J11739*
X1652053Y925123I21653*
G02X1651575Y926750I2521J1627*
G01Y1128366*
G02X1652053Y1129993I3000*
G03X1655511Y1141731I18195J11737*
X1652053Y1153470I21653*
G02X1651575Y1155096I2521J1625*
G01Y1541752*
G02X1652053Y1543378I3000*
G03X1655511Y1555117I18195J11739*
X1633857Y1576771I21653*
X1612205Y1555117J21653*
X1615662Y1543378I21652*
G02X1616141Y1541752I2521J1625*
G01Y1155096*
G02X1615662Y1153470I3000*
G03X1612205Y1141731I18195J11739*
X1615662Y1129993I21652*
G02X1616141Y1128366I2521J1627*
G01Y926750*
G02X1615662Y925123I3000*
G03X1612205Y913385I18195J11737*
X1615662Y901646I21652*
G02X1616141Y900020I2521J1625*
G01Y800766*
G02X1615662Y799140I3000*
G03X1612205Y787401I18195J11738*
X1615662Y775662I21652*
G02X1616141Y774036I2521J1626*
G01Y737755*
G02X1614131Y734922I3000*
G03X1573920Y678251I19827J56671*
G01Y2814960*
X1631890*
Y1811023*
G03X1635347Y1799285I21652*
G02X1635826Y1797658I2521J1626*
G01Y1686592*
G02X1635347Y1684966I3000*
G03X1631890Y1673227I18195J11738*
X1653542Y1651575I21652*
X1675196Y1673227J21652*
X1671738Y1684966I21653*
G02X1671260Y1686592I2521J1626*
G01Y1797658*
G02X1671738Y1799285I3000*
G03X1675196Y1811023I18195J11738*
X1653542Y1832676I21653*
X1631890Y1811023J21652*
G01Y2814960*
X1750000*
Y220471*
G03X1771653Y198818I21653*
X1793306Y220471J21652*
X1771653Y242125I21652*
X1750000Y220471J21654*
G01Y511810*
G03X1771653Y490156I21653*
X1793306Y511810J21654*
X1771653Y533465I21652*
X1750000Y511810J21654*
G01Y866141*
G03X1771653Y844487I21653*
X1793306Y866141J21653*
X1771653Y887795I21652*
X1750000Y866141J21653*
G01Y1259842*
G03X1771653Y1238188I21653*
X1793306Y1259842J21654*
X1771653Y1281495I21652*
X1750000Y1259842J21652*
G01Y1633857*
G03X1771653Y1612205I21653*
X1793306Y1633857J21652*
X1771653Y1655511I21652*
X1750000Y1633857J21653*
G01Y2814960*
X1855590*
Y332676*
G03X1909055Y279212I53464*
X1962520Y332676J53463*
X1909055Y386141I53465*
X1855590Y332676J53465*
G01Y1036220*
G03X1909055Y982755I53464*
X1962520Y1036220J53464*
X1909055Y1089685I53465*
X1855590Y1036220J53465*
G01Y1740156*
G03X1909055Y1686692I53464*
X1946850Y1702341J53463*
G01Y1259842*
G03X1968503Y1238188I21653*
X1990156Y1259842J21654*
X1968503Y1281495I21652*
X1946850Y1259842J21652*
G01Y1515747*
G03X1968503Y1494093I21653*
X1990156Y1515747J21654*
X1968503Y1537401I21652*
X1946850Y1515747J21653*
G01Y1702341*
G03X1962520Y1740156I37795J37815*
X1909055Y1793621I53465*
X1855590Y1740156J53465*
G01Y2814960*
X2045275*
Y1228345*
G03X2066928Y1206692I21652*
X2088582Y1228345J21652*
X2066928Y1250000I21654*
X2045275Y1228345J21654*
G01Y1496062*
G03X2066928Y1474408I21652*
X2088582Y1496062J21654*
X2066928Y1517716I21654*
X2045275Y1496062J21653*
G01Y2814960*
X2139763*
Y755905*
G03X2161416Y734251I21652*
X2183070Y755905J21654*
X2161416Y777558I21654*
X2139763Y755905J21652*
G01Y2814960*
X2143700*
Y1259842*
G03X2165353Y1238188I21652*
X2187007Y1259842J21654*
X2165353Y1281495I21654*
X2143700Y1259842J21652*
G01Y1496062*
G03X2165353Y1474408I21652*
X2187007Y1496062J21654*
X2165353Y1517716I21654*
X2143700Y1496062J21653*
G01Y2814960*
X2214566*
Y751968*
G03X2236220Y730315I21653*
X2257873Y751968J21653*
X2236220Y773621I21653*
X2214566Y751968J21652*
G01Y2814960*
X2242125*
Y1259842*
G03X2246062Y1247392I21654*
G01Y791338*
G03X2267716Y769685I21653*
X2267753J21653*
G01Y550622*
G03X2323950Y494425I56197*
X2380147Y550622J56197*
X2323950Y606820I56197*
X2267753Y550622J56197*
G01Y769685*
G03X2289370Y791338I37J21653*
X2267716Y812991I21653*
X2246062Y791338J21652*
G01Y1247392*
G03X2263780Y1238188I17717J12450*
X2285432Y1259842J21654*
X2263780Y1281495I21652*
X2242125Y1259842J21652*
G01Y1496062*
G03X2263780Y1474408I21654*
X2285432Y1496062J21654*
X2263780Y1517716I21652*
X2242125Y1496062J21653*
G01Y2814960*
X2340550*
Y1496062*
G03X2362205Y1474408I21654*
X2383857Y1496062J21654*
X2362205Y1517716I21652*
X2340550Y1496062J21653*
G01Y2814960*
X2438975*
Y1496062*
G03X2460630Y1474408I21654*
X2482282Y1496062J21654*
X2460630Y1517716I21652*
X2438975Y1496062J21653*
G01Y2814960*
X2537401*
Y1496062*
G03X2559055Y1474408I21653*
X2580708Y1496062J21654*
X2559055Y1517716I21653*
X2537401Y1496062J21653*
G01Y2814960*
X2639763*
Y1488188*
G03X2655590Y1467333I21652*
G01Y332676*
G03X2709055Y279212I53464*
X2762520Y332676J53463*
X2709055Y386141I53465*
X2655590Y332676J53465*
G01Y1036220*
G03X2709055Y982755I53464*
X2762520Y1036220J53464*
X2709055Y1089685I53465*
X2655590Y1036220J53465*
G01Y1467333*
G03X2661416Y1466535I5825J20855*
X2683070Y1488188J21653*
X2661416Y1509842I21654*
X2639763Y1488188J21654*
G01Y2814960*
X2655590*
Y1740156*
G03X2709055Y1686692I53464*
X2762520Y1740156J53463*
X2709055Y1793621I53465*
X2655590Y1740156J53465*
G01Y2814960*
X2785117*
Y2267716*
G03X2911416Y2121356I147952*
G01Y1751968*
G03X2931101Y1730405I21654*
G01Y1574802*
G03X2946850Y1553970I21654*
G01Y905511*
G03X2954723Y888807I21653*
G01Y354330*
G03X2976377Y332676I21654*
X2998030Y354330J21654*
X2976377Y375983I21652*
X2954723Y354330J21652*
G01Y888808*
G03X2968503Y883857I13780J16702*
X2970471Y883947J21653*
G01Y429133*
G03X2992125Y407480I21654*
X3013780Y429133J21653*
X2992125Y450786I21654*
X2970471Y429133J21652*
G01Y883947*
G03X2990156Y905511I1967J21563*
X2968503Y927165I21652*
X2946850Y905511J21653*
G01Y1553970*
G03X2952755Y1553150I5905J20832*
X2970471Y1562352J21652*
G01Y1062991*
G03X2992125Y1041338I21654*
X3013780Y1062991J21652*
X2992125Y1084645I21654*
X2970471Y1062991J21654*
G01Y1562352*
G03X2974408Y1574802I17715J12450*
X2952755Y1596456I21652*
X2931101Y1574802J21653*
G01Y1730405*
G03X2933070Y1730315I1969J21563*
X2954723Y1751968J21653*
X2933070Y1773621I21652*
X2911416Y1751968J21652*
G01Y2121356*
G03X2933070Y2119763I21654J146360*
X3081023Y2267716J147952*
X2933070Y2415668I147952*
X2785117Y2267716J147952*
G01Y2814960*
X3167322*
Y2582676*
G03X3175275Y2565908I21652*
G02X3176377Y2563585I1897J2322*
G01Y621453*
G02X3175275Y619130I3000*
G03X3167322Y602361I13700J16769*
X3188975Y580708I21652*
X3210630Y602361J21652*
X3202676Y619130I21654*
G02X3201575Y621453I1898J2322*
G01Y2563585*
G02X3202676Y2565908I3000*
G03X3210630Y2582676I13700J16767*
X3188975Y2604330I21654*
X3167322Y2582676J21654*
G01Y2814960*
X3226377*
Y2539370*
G03X3234330Y2522601I21652*
G02X3235432Y2520278I1897J2322*
G01Y1062398*
G02X3234330Y1060075I3000*
G03X3226377Y1043306I13700J16768*
X3248030Y1021653I21652*
X3269685Y1043306J21652*
X3261731Y1060075I21654*
G02X3260630Y1062398I1898J2323*
G01Y2520278*
G02X3261731Y2522601I3000*
G03X3269685Y2539370I13700J16768*
X3248030Y2561023I21654*
X3226377Y2539370J21653*
G01Y2814960*
X3285432*
Y2492125*
G03X3293385Y2475357I21653*
G02X3294487Y2473033I1897J2324*
G01Y1011217*
G02X3293385Y1008893I3000*
G03X3285432Y992125I13700J16767*
X3307086Y970471I21653*
X3328740Y992125J21654*
X3320786Y1008893I21653*
G02X3319685Y1011217I1898J2324*
G01Y2473033*
G02X3320786Y2475357I3000*
G03X3328740Y2492125I13700J16767*
X3307086Y2513780I21653*
X3285432Y2492125J21654*
G01Y2814960*
X3368110*
Y2488188*
G03X3376062Y2471420I21653*
G02X3377165Y2469096I1897J2324*
G01Y479720*
G02X3376062Y477397I3000*
G03X3368110Y460630I13700J16767*
X3389763Y438975I21653*
X3411416Y460630J21654*
X3403463Y477397I21652*
G02X3402361Y479720I1897J2322*
G01Y2469096*
G02X3403463Y2471420I3000*
G03X3411416Y2488188I13700J16767*
G01Y2456692*
G03X3419370Y2439925I21654*
G02X3420471Y2437600I1899J2324*
G01Y1550587*
G02X3419370Y1548263I3000*
G03X3411416Y1531495I13700J16767*
X3433070Y1509842I21654*
X3444496Y1513101J21652*
G01Y984967*
G03X3484235Y928465I60039*
G02X3486220Y925641I1015J2823*
G01Y840136*
G02X3485740Y838510I3000*
G03X3482282Y826771I18195J11738*
X3503936Y805117I21653*
X3525590Y826771J21653*
X3522132Y838510I21654*
G02X3521653Y840136I2520J1626*
G01Y925225*
G02X3523695Y928067I3000*
G03X3564575Y984967I19160J56900*
X3523695Y1041867I60039*
G02X3521653Y1044710I957J2842*
G01Y1337028*
G02X3522132Y1338655I3000*
G03X3525590Y1350393I18196J11738*
X3522132Y1362131I21654*
G02X3521653Y1363758I2520J1627*
G01Y1620492*
G02X3522132Y1622120I3000*
G03X3525590Y1633857I18196J11737*
X3522132Y1645596I21654*
G02X3521653Y1647222I2520J1626*
G01Y1758288*
G02X3522132Y1759915I3000*
G03X3525590Y1771653I18196J11738*
X3513903Y1790876I21654*
G02X3513163Y1791418I1381J2663*
G01X3502846Y1801735*
G02X3501968Y1803856I2122J2121*
G01Y2179547*
G02X3502447Y2181175I3000*
G03X3505905Y2192912I18196J11737*
X3502447Y2204651I21654*
G02X3501968Y2206277I2520J1626*
G01Y2329155*
G02X3502447Y2330780I3000*
G03X3505905Y2342520I18196J11739*
X3484251Y2364172I21654*
X3462597Y2342520J21652*
X3466055Y2330780I21653*
G02X3466535Y2329155I2520J1625*
G01Y2206277*
G02X3466055Y2204651I3000*
G03X3462597Y2192912I18195J11738*
X3466055Y2181175I21653*
G02X3466535Y2179547I2520J1627*
G01Y1795275*
G03X3471723Y1782747I17716*
G01X3481415Y1773056*
G02X3482292Y1771022I2121J2120*
G03X3485740Y1759915I21643J630*
G02X3486220Y1758288I2520J1626*
G01Y1647222*
G02X3485740Y1645596I3000*
G03X3482282Y1633857I18195J11738*
X3485740Y1622120I21653*
G02X3486220Y1620492I2520J1627*
G01Y1363758*
G02X3485740Y1362131I3000*
G03X3482282Y1350393I18195J11737*
X3485740Y1338655I21653*
G02X3486220Y1337028I2520J1626*
G01Y1044295*
G02X3484235Y1041470I3000*
G03X3444496Y984967I20300J56502*
G01Y1513101*
G03X3454723Y1531495I11425J18394*
X3446770Y1548263I21652*
G02X3445668Y1550587I1897J2324*
G01Y2437600*
G02X3446770Y2439925I3000*
G03X3454723Y2456692I13700J16767*
X3433070Y2478345I21652*
X3411416Y2456692J21652*
G01Y2488188*
G03X3389763Y2509842I21652*
X3368110Y2488188J21654*
G01Y2814960*
X3462597*
Y2440945*
G03X3470551Y2424176I21653*
G02X3471653Y2421852I1897J2323*
G01Y2401575*
G03X3475343Y2392665I12597*
G01X3525892Y2342116*
G02X3526771Y2339995I2121J2120*
G01Y2042713*
G02X3525670Y2040390I3000*
G03X3517716Y2023621I13700J16768*
X3539370Y2001968I21653*
X3561023Y2023621J21652*
X3553070Y2040390I21653*
G02X3551968Y2042713I1898J2323*
G01Y2346456*
G03X3548278Y2355365I12598*
G01X3497728Y2405915*
G02X3496850Y2408035I2121J2120*
G01Y2421852*
G02X3497951Y2424175I3000*
G03X3505905Y2440945I13700J16769*
X3484251Y2462597I21654*
X3462597Y2440945J21652*
G01Y2814960*
X3521653*
Y2421260*
G03X3543306Y2399605I21652*
X3548428Y2400220J21654*
G02X3549138Y2400305I710J2915*
X3551260Y2399426J3000*
G01X3600695Y2349990*
G02X3601575Y2347870I2120J2120*
G01Y1983657*
G02X3600472Y1981335I3000*
G03X3592520Y1964566I13700J16768*
X3614172Y1942912I21652*
X3635826Y1964566J21653*
X3627873Y1981335I21653*
G02X3626771Y1983657I1897J2322*
G01Y2354330*
G03X3623081Y2363238I12598*
G01X3565800Y2420520*
G02X3564926Y2422472I2120J2121*
G03X3543306Y2442913I21620J1212*
X3521653Y2421260J21653*
G01Y2814960*
X3643700*
Y1968503*
G03X3651653Y1951735I21652*
G02X3652755Y1949411I1897J2324*
G01Y845862*
G02X3651653Y843540I3000*
G03X3643700Y826771I13700J16768*
X3665353Y805117I21652*
X3687007Y826771J21653*
X3679055Y843540I21654*
G02X3677952Y845862I1897J2322*
G01Y1949411*
G02X3679055Y1951735I3000*
G03X3687007Y1968503I13701J16767*
X3665353Y1990156I21654*
X3643700Y1968503J21652*
G01Y2814960*
X3690945*
Y618110*
G03X3712597Y596456I21652*
X3729366Y604410J21653*
G02X3731690Y605511I2323J1898*
G01X3736220*
X3736220*
G03X3745128Y609201J12598*
G01X3788435Y652508*
G03X3792125Y661416I8907J8907*
G01Y1433070*
G03X3788435Y1441978I12597*
G01X3786187Y1444227*
G02X3785308Y1446348I2120J2120*
X3785323Y1446650I3000*
G03X3785432Y1448818I21543J2168*
X3763780Y1470472I21652*
X3742125Y1448818J21654*
X3763780Y1427165I21654*
X3763910J21652*
G02X3763928I17J3000*
X3766928Y1424165J3000*
G01Y1058905*
G02X3763928Y1055905I3000*
G01X3739563*
G02X3737240Y1057006J3000*
G03X3720471Y1064960I16769J13700*
X3698818Y1043306J21654*
X3720471Y1021653I21652*
X3737240Y1029606J21652*
G02X3739563Y1030708I2322J1897*
G01X3763928*
G02X3766928Y1027708J3000*
G01Y842370*
G02X3763928Y839370I3000*
G01X3739563*
G02X3737240Y840471J3000*
G03X3720471Y848425I16769J13700*
X3698818Y826771J21653*
X3720471Y805117I21652*
X3737240Y813070J21653*
G02X3739563Y814172I2322J1897*
G01X3763928*
G02X3766928Y811172J3000*
G01Y667877*
G02X3766050Y665756I3000*
G01X3732915Y632622*
G02X3730795Y631743I2120J2120*
X3728580Y632720J3000*
G03X3712597Y639763I15982J14610*
X3690945Y618110J21653*
G01Y2814960*
X3797243*
Y1712597*
G03X3805196Y1695830I21654*
G02X3806298Y1693506I1897J2323*
G01Y1677165*
G03X3809988Y1668256I12599*
G01X3813295Y1664951*
G02X3814172Y1662830I2122J2121*
G01Y1369485*
G02X3813070Y1367161I3000*
G03X3805117Y1350393I13700J16767*
X3813070Y1333625I21653*
G02X3814172Y1331301I1897J2323*
G01Y562398*
G02X3813070Y560075I3000*
G03X3805117Y543306I13700J16768*
X3826771Y521653I21653*
X3848425Y543306J21652*
X3840471Y560075I21653*
G02X3839370Y562398I1898J2323*
G01Y1331301*
G02X3840471Y1333625I3000*
G03X3848425Y1350393I13700J16768*
X3840471Y1367161I21653*
G02X3839370Y1369485I1898J2323*
G01Y1669290*
G03X3835680Y1678200I12598*
G01X3832375Y1681505*
G02X3831495Y1683625I2120J2120*
G01Y1693506*
G02X3832597Y1695830I3000*
G03X3840550Y1712597I13700J16767*
X3818897Y1734251I21652*
X3797243Y1712597J21653*
G01Y2814960*
X3895668*
Y590550*
G03X3917322Y568897I21654*
X3938975Y590550J21652*
X3931022Y607318I21652*
G02X3929920Y609642I1897J2324*
G01Y989601*
G02X3930800Y991722I3000*
G01X3938041Y998965*
G03X3941731Y1007873I8907J8907*
G01Y1024215*
G02X3942833Y1026538I3000*
G03X3950786Y1043306I13700J16767*
X3929133Y1064960I21652*
X3907480Y1043306J21654*
X3915433Y1026538I21653*
G02X3916535Y1024215I1898J2322*
G01Y1014335*
G02X3915656Y1012213I3000*
G01X3908413Y1004970*
G03X3904723Y996062I8909J8907*
G01Y609642*
G02X3903621Y607320I3000*
G03X3895668Y590550I13701J16769*
G01Y1771653*
G03X3917322Y1750000I21654*
X3938100Y1765560J21653*
G02X3940980Y1767716I2879J844*
G01X3941093*
G02X3944093Y1764716J3000*
G01Y1554525*
G02X3942992Y1552200I3000*
G03X3935038Y1535432I13700J16767*
X3956692Y1513780I21654*
X3962597Y1514600J21652*
G01Y1358267*
G03X3970551Y1341498I21653*
G02X3971653Y1339175I1897J2322*
G01Y841925*
G02X3970551Y839602I3000*
G03X3962597Y822835I13700J16767*
X3984251Y801180I21653*
X4005905Y822835J21654*
X3997951Y839602I21654*
G02X3996850Y841925I1898J2322*
G01Y1339175*
G02X3997951Y1341498I3000*
G03X4005905Y1358267I13700J16769*
X3984251Y1379920I21654*
X3962597Y1358267J21652*
G01Y1514600*
G03X3978345Y1535432I5905J20832*
X3970392Y1552200I21652*
G02X3969290Y1554525I1897J2324*
G01Y1949411*
G02X3970392Y1951735I3000*
G03X3978345Y1968503I13700J16767*
X3956692Y1990156I21652*
X3935913Y1974596J21652*
G02X3933035Y1972440I2878J844*
G01X3932920*
G02X3929920Y1975440J3000*
G01Y2139207*
G02X3930800Y2141330I3000*
G01X3938041Y2148571*
G03X3941731Y2157480I8907J8908*
G01Y2173821*
G02X3942833Y2176145I3000*
G03X3950786Y2192912I13700J16767*
X3929133Y2214566I21652*
X3907480Y2192912J21653*
X3915433Y2176145I21653*
G02X3916535Y2173821I1898J2323*
G01Y2163940*
G02X3915656Y2161820I3000*
G01X3908413Y2154577*
G03X3904723Y2145668I8909J8909*
G01Y1790745*
G02X3903621Y1788421I3000*
G03X3895668Y1771653I13701J16767*
G01Y2814960*
X3978345*
Y2472440*
G03X4000000Y2450786I21654*
X4013780Y2455737J21654*
G01Y1633857*
G03X4017236Y1622120I21652*
G02X4017716Y1620492I2520J1627*
G01Y1606298*
G03X4022905Y1593771I17716*
G01X4036522Y1580153*
G02X4037401Y1578032I2121J2120*
G01Y1371632*
G02X4036921Y1370005I3000*
G03X4033465Y1358267I18196J11737*
X4036921Y1346528I21652*
G02X4037401Y1344902I2520J1625*
G01Y840136*
G02X4036921Y838510I3000*
G03X4033465Y826771I18196J11738*
X4055117Y805117I21652*
X4076771Y826771J21653*
X4073313Y838510I21653*
G02X4072835Y840136I2521J1626*
G01Y1344902*
G02X4073313Y1346528I3000*
G03X4076771Y1358267I18195J11739*
X4073313Y1370005I21653*
G02X4072835Y1371632I2521J1627*
G01Y1586613*
G03X4067645Y1599141I17717*
G01X4054027Y1612758*
G02X4053150Y1614880I2122J2121*
G01Y1620492*
G02X4053628Y1622120I3000*
G03X4057086Y1633857I18195J11737*
X4035432Y1655511I21653*
X4013780Y1633857J21653*
G01Y2455737*
G03X4021653Y2472440I13780J16702*
X4013700Y2489208I21653*
G02X4012597Y2491531I1897J2322*
G01Y2568341*
G02X4013476Y2570462I3000*
G01X4058315Y2615301*
G02X4060268Y2616175I2120J2121*
G03X4080708Y2637794I1213J21618*
X4059055Y2659448I21653*
X4037401Y2637794J21654*
X4038015Y2632672I21653*
G02X4038100Y2631963I2915J709*
X4037221Y2629842I3000*
G01X3991091Y2583711*
G03X3987401Y2574802I8908J8908*
G01Y2491531*
G02X3986300Y2489208I3000*
G03X3978345Y2472440I13700J16767*
G01Y2814960*
X4238188*
Y2015747*
G03X4246141Y1998980I21654*
G02X4247243Y1996655I1897J2324*
G01Y1980315*
G03X4250423Y1971947I12599*
G02X4251180Y1969955I2242J1992*
G01Y963972*
G02X4250078Y961650I3000*
G03X4242125Y944881I13701J16768*
X4263780Y923227I21654*
X4285432Y944881J21653*
X4277480Y961650I21652*
G02X4276377Y963972I1897J2322*
G01Y1976377*
G03X4273197Y1984745I12599*
G02X4272440Y1986737I2242J1992*
G01Y1996655*
G02X4273542Y1998980I3000*
G03X4281495Y2015747I13700J16767*
X4259842Y2037401I21652*
X4238188Y2015747J21653*
G01Y2814960*
X4328740*
Y1740156*
G03X4336692Y1723388I21653*
G02X4337795Y1721065I1897J2322*
G01Y373421*
G02X4336692Y371098I3000*
G03X4328740Y354330I13700J16767*
X4350393Y332676I21653*
X4372046Y354330J21654*
X4364093Y371098I21652*
G02X4362991Y373421I1897J2322*
G01Y1721065*
G02X4364093Y1723388I3000*
G03X4372046Y1740156I13700J16767*
X4350393Y1761810I21652*
X4328740Y1740156J21654*
G01Y2814960*
X4379920*
Y1354330*
G03X4401575Y1332676I21654*
X4406696Y1333291J21654*
G02X4407405Y1333376I709J2915*
X4409527Y1332497J3000*
G01X4415656Y1326368*
G02X4416535Y1324247I2121J2120*
G01Y924602*
G02X4415433Y922280I3000*
G03X4407480Y905511I13700J16768*
X4429133Y883857I21653*
X4449912Y899418J21653*
G02X4452790Y901575I2877J843*
G01X4452905*
G02X4455905Y898575J3000*
G01Y629327*
G02X4454803Y627005I3000*
G03X4446850Y610235I13700J16769*
X4468503Y588582I21653*
X4489282Y604142J21652*
G02X4492160Y606298I2877J844*
G01X4492275*
G02X4495275Y603298J3000*
G01Y432476*
G02X4494173Y430153I3000*
G03X4486220Y413385I13700J16767*
X4507873Y391731I21653*
X4529527Y413385J21654*
X4521573Y430153I21654*
G02X4520471Y432476I1897J2322*
G01Y1142325*
G02X4521573Y1144648I3000*
G03X4529527Y1161416I13700J16767*
X4507873Y1183070I21654*
X4486220Y1161416J21654*
X4494173Y1144648I21653*
G02X4495275Y1142325I1897J2322*
G01Y1050243*
G02X4492275Y1047243I3000*
G01X4492160*
G02X4489282Y1049400J3000*
G03X4468503Y1064960I20779J6093*
X4447725Y1049400J21654*
G02X4444845Y1047243I2879J843*
G01X4444731*
G02X4441731Y1050243J3000*
G01Y1330708*
G03X4438041Y1339616I12597*
G01X4424067Y1353590*
G02X4423193Y1355543I2122J2120*
G03X4401575Y1375985I21618J1212*
X4379920Y1354330J21654*
G01Y2814960*
X4388781*
Y2536121*
G03X4429087Y2479417I60040*
G02X4431101Y2476585I986J2832*
G01Y1529112*
G02X4430622Y1527486I3000*
G03X4427165Y1515747I18195J11738*
X4448818Y1494093I21653*
X4470471Y1515747J21654*
X4467015Y1527486I21652*
G02X4466535Y1529112I2520J1626*
G01Y1952383*
G02X4469535Y1955383I3000*
X4471805Y1954345J3000*
G03X4488188Y1946850I16383J14157*
X4493310Y1947465J21653*
G02X4494020Y1947550I709J2915*
X4496141Y1946670J3000*
G01X4538335Y1904476*
G03X4545275Y1900941I8907J8909*
G01Y1082676*
G03X4553228Y1065908I21652*
G02X4554330Y1063585I1897J2322*
G01Y649012*
G02X4553228Y646690I3000*
G03X4545275Y629920I13700J16769*
X4566928Y608267I21652*
X4588582Y629920J21652*
X4580628Y646690I21654*
G02X4579527Y649012I1899J2322*
G01Y1063585*
G02X4580628Y1065908I3000*
G03X4588582Y1082676I13700J16767*
X4566928Y1104330I21654*
X4545275Y1082676J21654*
G01Y1900941*
G03X4547243Y1900786I1967J12444*
G01X4604330*
Y1122046*
G03X4612283Y1105278I21652*
G02X4613385Y1102955I1897J2322*
G01Y550587*
G02X4612283Y548263I3000*
G03X4604330Y531495I13700J16767*
X4625983Y509842I21652*
X4647637Y531495J21652*
X4639685Y548263I21654*
G02X4638582Y550587I1897J2324*
G01Y918260*
G02X4641582Y921260I3000*
G01X4641696*
G02X4644575Y919103J3000*
G03X4665353Y903542I20777J6092*
X4667322Y903632J21653*
G01Y755905*
G03X4683070Y735072I21652*
G01Y708660*
G03X4704723Y687007I21652*
X4726377Y708660J21652*
X4704723Y730315I21654*
X4683070Y708660J21654*
G01Y735072*
G03X4688975Y734251I5905J20832*
X4710630Y755905J21654*
X4688975Y777558I21654*
X4667322Y755905J21652*
G01Y903632*
G03X4687007Y925196I1969J21563*
X4679055Y941965I21654*
G02X4677952Y944287I1897J2322*
G01Y1240750*
G02X4679055Y1243073I3000*
G03X4687007Y1259842I13701J16769*
X4665353Y1281495I21654*
X4643700Y1259842J21652*
X4651653Y1243073I21652*
G02X4652755Y1240750I1897J2322*
G01Y1128983*
G02X4649755Y1125983I3000*
G01X4649641*
G02X4646762Y1128140J3000*
G03X4625983Y1143700I20779J6093*
X4604330Y1122046J21654*
G01Y1900786*
X4722440*
Y1476377*
G03X4730393Y1459610I21652*
G02X4731495Y1457285I1897J2324*
G01Y1062398*
G02X4730393Y1060075I3000*
G03X4722440Y1043306I13700J16768*
X4744093Y1021653I21652*
X4765747Y1043306J21652*
X4757795Y1060075I21654*
G02X4756692Y1062398I1897J2323*
G01Y1457285*
G02X4757795Y1459610I3000*
G03X4765747Y1476377I13701J16767*
X4744093Y1498030I21654*
X4722440Y1476377J21652*
G01Y1900786*
X5135826*
Y1574802*
G03X5156573Y1553168I21653*
G02X5159448Y1550170I125J2997*
G01Y1359821*
G02X5158970Y1358195I3000*
G03X5155511Y1346456I18195J11738*
X5158970Y1334717I21653*
G02X5159448Y1333091I2521J1626*
G01Y141083*
G03X5159450Y140782I17716*
G02X5159451Y140731I3000J51*
X5159450Y140680I3001*
G03X5159448Y140380I17714J300*
G01Y68482*
G02X5158970Y66856I3000*
G03X5155511Y55117I18195J11738*
X5177165Y33465I21653*
X5198818Y55117J21652*
X5195360Y66856I21653*
G02X5194881Y68482I2520J1626*
G01Y136928*
G02X5194932Y137478I3000*
G03X5195233Y140731I17416J3252*
X5194932Y143985I17717*
G02X5194881Y144535I2948J550*
G01Y1333091*
G02X5195360Y1334717I3000*
G03X5198818Y1346456I18195J11738*
X5195360Y1358195I21653*
G02X5194881Y1359821I2520J1626*
G01Y1559055*
G03X5189692Y1571582I17716*
G01X5177245Y1584030*
G02X5176702Y1584770I2121J2120*
G03X5157480Y1596456I19222J9967*
X5135826Y1574802J21653*
G01Y1900786*
X5235432*
Y877952*
G03X5239122Y869043I12597*
G01X5344487Y763678*
Y59055*
G03X5354330Y49212I9842*
G01X5787401*
G03X5797243Y59055J9842*
G01Y492125*
G03X5787401Y501968I9842*
G01X5741710*
G02X5740085Y502447J3000*
G03X5728345Y505905I11739J18196*
X5716607Y502447J21654*
G02X5714980Y501968I1627J2520*
G01X5354330*
G03X5344487Y492125J9842*
G01Y763678*
X5371867Y736298*
G02X5372746Y734177I2121J2120*
X5372661Y733467I3000*
G03X5372046Y728345I21039J5122*
X5393700Y706692I21654*
X5415353Y728345J21652*
X5394913Y749965I21652*
G02X5392960Y750840I167J2995*
G01X5371362Y772437*
G02X5370485Y774558I2122J2120*
X5373485Y777558I3000*
G01X5687007*
Y649605*
G03X5708660Y627952I21652*
X5718503Y630318J21652*
G01Y551180*
G03X5740156Y529527I21652*
X5761810Y551180J21652*
X5740156Y572835I21654*
X5718503Y551180J21654*
G01Y630318*
G03X5730315Y649605I9842J19287*
X5708660Y671260I21654*
X5687007Y649605J21654*
G01Y748030*
G03X5708660Y726377I21652*
X5730315Y748030J21652*
X5708660Y769685I21654*
X5687007Y748030J21654*
G01Y777558*
X5787401*
G03X5797243Y787401J9842*
G01Y1220471*
G03X5787401Y1230315I9842*
G01X5373865*
G02X5370865Y1233315J3000*
G01Y1520278*
G02X5371967Y1522601I3000*
G03X5379920Y1539370I13700J16768*
X5358267Y1561023I21652*
X5336613Y1539370J21653*
X5344566Y1522601I21654*
G02X5345668Y1520278I1897J2322*
G01Y1225851*
G02X5345392Y1224595I3000*
G03X5344487Y1220471I8937J4123*
G01Y1092865*
G02X5343530Y1090666I3000*
G03X5336613Y1074802I14737J15863*
X5343530Y1058938I21654*
G02X5344487Y1056740I2042J2197*
G01Y961862*
G02X5341487Y958862I3000*
X5338657Y960868J3000*
G03X5335680Y965600I11886J4175*
G01X5316626Y984655*
G02X5315747Y986775I2121J2120*
G01Y1186451*
G02X5316626Y1188573I3000*
G01X5323868Y1195815*
G03X5327558Y1204723I8907J8907*
G01Y1221065*
G02X5328660Y1223388I3000*
G03X5336613Y1240156I13700J16767*
X5314960Y1261810I21652*
X5293306Y1240156J21654*
X5301260Y1223388I21654*
G02X5302361Y1221065I1898J2322*
G01Y1211185*
G02X5301483Y1209063I3000*
G01X5294240Y1201821*
G03X5290550Y1192912I8909J8908*
G01Y980315*
G03X5294240Y971405I12599*
G01X5313295Y952352*
G02X5314172Y950231I2122J2121*
G01Y948818*
G03X5317862Y939910I12598*
G01X5328560Y929212*
G02X5329440Y927090I2120J2122*
X5329355Y926381I3001*
G03X5328740Y921260I21038J5121*
X5342571Y901067I21653*
G02X5344487Y898270I1083J2797*
G01Y806555*
G02X5341487Y803555I3000*
X5339366Y804433J3000*
G01X5261508Y882291*
G02X5260629Y884413I2120J2122*
G01Y1387240*
G02X5261508Y1389360I3000*
G01X5278787Y1406640*
G02X5280740Y1407513I2120J2121*
G03X5301180Y1429133I1212J21620*
X5279527Y1450786I21652*
X5257873Y1429133J21652*
X5258487Y1424011I21654*
G02X5258573Y1423301I2915J710*
X5257694Y1421180I3000*
G01X5239122Y1402608*
G03X5235432Y1393700I8907J8907*
G01Y1900786*
X5341487*
G02X5344487Y1897786J3000*
G01Y1614172*
G03X5354330Y1604330I9842*
G01X5787401*
G03X5797243Y1614172J9842*
G01Y1696751*
Y1696850*
Y1696948*
Y2047243*
G03X5787401Y2057086I9842*
G01X5779898*
G02X5776898Y2060086J3000*
X5777937Y2062355I3000*
G03X5785432Y2078740I14159J16384*
X5763780Y2100393I21652*
X5742125Y2078740J21653*
X5749620Y2062355I21654*
G02X5750660Y2060086I1960J2269*
X5747660Y2057086I3000*
G01X5354330*
G03X5344487Y2047243J9842*
G01Y1928983*
G02X5341487Y1925983I3000*
G01X4553705*
G02X4551583Y1926862J3000*
G01X4510681Y1967763*
G02X4509807Y1969716I2122J2122*
G03X4488188Y1990157I21619J1212*
X4471805Y1982661J21654*
G02X4469535Y1981623I2270J1962*
X4466535Y1984623J3000*
G01Y2476582*
G02X4468550Y2479415I3000*
G03X4505905Y2517516I19728J56705*
G01X4505905Y2192912*
G03X4527558Y2171258I21652*
X4549178Y2191700J21654*
G02X4550051Y2193652I2995J168*
G01X4803551Y2447152*
G02X4805673Y2448030I2122J2122*
G01X5341487*
G02X5344487Y2445030J3000*
G01Y2342520*
G03X5354330Y2332676I9842*
G01X5706692*
Y2185038*
G03X5728345Y2163385I21652*
X5750000Y2185038J21652*
X5728345Y2206692I21654*
X5706692Y2185038J21654*
G01Y2332676*
X5726377*
Y2263780*
G03X5748030Y2242125I21652*
X5769685Y2263780J21654*
X5748030Y2285432I21654*
X5726377Y2263780J21652*
G01Y2332676*
X5787401*
G03X5797243Y2342520J9843*
G01Y2718918*
G02X5797722Y2720545I3000*
G03X5801180Y2732282I18195J11737*
X5797722Y2744021I21652*
G02X5797243Y2745647I2520J1626*
G01Y2775590*
G03X5787401Y2785432I9842*
G01X5354330*
G03X5344487Y2775590J9842*
G01Y2476227*
G02X5341487Y2473227I3000*
G01X4799212*
G03X4790303Y2469537J12597*
G01X4535511Y2214745*
G02X4533390Y2213866I2121J2120*
X4532680Y2213951J3000*
G03X4527558Y2214566I5122J21038*
X4505905Y2192912J21653*
G01Y2517516*
G03X4508860Y2536121I57084J18605*
X4468550Y2592827I60039*
G02X4466535Y2595660I985J2832*
G01Y2620492*
G02X4467013Y2622119I3000*
G03X4470471Y2633857I18195J11738*
X4448818Y2655511I21652*
X4427165Y2633857J21653*
X4430622Y2622119I21653*
G02X4431101Y2620492I2521J1626*
G01Y2595658*
G02X4429087Y2592825I3000*
G03X4388781Y2536121I19733J56704*
G01Y2814960*
X6159448*
Y2763780*
G03X6181101Y2742125I21652*
X6192840Y2745583J21654*
G02X6194466Y2746062I1625J2520*
G01X6263071*
X6263072*
G02X6265193Y2745183J3000*
G01X6276680Y2733697*
G02X6277558Y2731575I2121J2122*
G01Y1359821*
G02X6277080Y1358195I3000*
G03X6273621Y1346456I18195J11738*
X6295275Y1324802I21654*
X6316928Y1346456J21653*
X6313470Y1358195I21652*
G02X6312991Y1359821I2520J1626*
G01Y2740157*
G03X6307802Y2752685I17715*
G01X6284180Y2776306*
G03X6271653Y2781495I12527J12526*
G01X6194466*
G02X6192840Y2781975J3000*
G03X6181101Y2785432I11739J18195*
X6159448Y2763780J21652*
G01Y2814960*
X6356298*
Y338582*
G03X6377952Y316928I21654*
X6399605Y338582J21654*
X6377952Y360235I21652*
X6356298Y338582J21652*
G01Y437007*
G03X6377952Y415353I21654*
X6399605Y437007J21654*
X6377952Y458660I21652*
X6356298Y437007J21652*
G01Y531495*
G03X6377952Y509842I21654*
X6399605Y531495J21652*
X6377952Y553150I21652*
X6356298Y531495J21654*
G01Y637795*
G03X6377952Y616141I21654*
X6399605Y637795J21653*
X6377952Y659448I21652*
X6356298Y637795J21653*
G01Y740156*
G03X6377952Y718503I21654*
X6399605Y740156J21652*
X6377952Y761810I21652*
X6356298Y740156J21654*
G01Y838582*
G03X6377952Y816928I21654*
X6399605Y838582J21654*
X6377952Y860235I21652*
X6356298Y838582J21652*
G01Y940945*
G03X6377952Y919290I21654*
X6399605Y940945J21654*
X6377952Y962597I21652*
X6356298Y940945J21652*
G01Y1039370*
G03X6377952Y1017716I21654*
X6399605Y1039370J21653*
X6377952Y1061023I21652*
X6356298Y1039370J21653*
G01Y2814960*
X6375983*
Y1791338*
G03X6397637Y1769685I21654*
X6419290Y1791338J21653*
X6397637Y1812991I21652*
X6375983Y1791338J21652*
G01Y1889763*
G03X6397637Y1868110I21654*
X6419290Y1889763J21653*
X6397637Y1911416I21652*
X6375983Y1889763J21652*
G01Y1988188*
G03X6397637Y1966535I21654*
X6419290Y1988188J21653*
X6397637Y2009842I21652*
X6375983Y1988188J21654*
G01Y2106298*
G03X6397637Y2084645I21654*
X6419290Y2106298J21652*
X6397637Y2127952I21652*
X6375983Y2106298J21654*
G01Y2204723*
G03X6397637Y2183070I21654*
X6419290Y2204723J21652*
X6397637Y2226377I21652*
X6375983Y2204723J21654*
G01Y2283465*
G03X6397637Y2261810I21654*
X6419290Y2283465J21654*
X6397637Y2305117I21652*
X6375983Y2283465J21652*
G01Y2401575*
G03X6397637Y2379920I21654*
X6419290Y2401575J21654*
X6397637Y2423227I21652*
X6375983Y2401575J21652*
G01Y2500000*
G03X6397637Y2478345I21654*
X6419290Y2500000J21654*
X6397637Y2521653I21652*
X6375983Y2500000J21653*
G01Y2814960*
X6434007*
G02X6437007Y2811960J3000*
G01Y22685*
G02X6434007Y19685I3000*
G01X227408*
G02X224408Y22685J3000*
G01Y90550*
X22685*
G02X19685Y93550J3000*
G01Y2811960*
X5354330Y489125D02*
G02X5357330Y492125I3000D01*
G01X5417621*
Y169685*
G03X5470865Y116440I53244*
X5524110Y169685J53244*
X5470865Y222928I53244*
X5417621Y169685J53243*
G01Y369685*
G03X5470865Y316440I53244*
X5524110Y369685J53244*
X5470865Y422928I53244*
X5417621Y369685J53243*
G01Y492125*
X5617621*
Y169685*
G03X5670865Y116440I53244*
X5724110Y169685J53244*
X5670865Y222928I53244*
X5617621Y169685J53243*
G01Y369685*
G03X5670865Y316440I53244*
X5724110Y369685J53244*
X5670865Y422928I53244*
X5617621Y369685J53243*
G01Y492125*
X5704180*
G02X5707180Y489125J3000*
X5707120Y488532I3001*
G03X5706692Y484251I21225J4281*
X5728345Y462597I21652*
X5734251Y463418J21653*
G01Y244093*
G03X5755905Y222440I21654*
X5777558Y244093J21652*
X5755905Y265747I21652*
X5734251Y244093J21654*
G01Y463418*
G03X5750000Y484251I5905J20832*
X5749572Y488532I21654*
G02X5749512Y489125I2940J592*
X5752512Y492125I3000*
G01X5784401*
G02X5787401Y489125J3000*
G01Y62055*
G02X5784401Y59055I3000*
G01X5357330*
G02X5354330Y62055J3000*
G01Y212575*
G02X5355527Y214972I3000*
G03X5364172Y232282I13007J17310*
G01Y232283*
G03X5355527Y249593I21652*
G02X5354330Y251991I1802J2397*
G01Y489125*
Y829291D02*
G02X5357330Y832291I3000D01*
X5358881Y831860J3000*
G03X5370078Y828740I11197J18533*
X5391731Y850393J21653*
X5391622Y852562I21652*
G02X5391607Y852863I2985J300*
X5392486Y854985I3000*
G01X5402608Y865106*
G03X5406298Y874015I8907J8909*
G01Y1185632*
G02X5407400Y1187955I3000*
G03X5415353Y1204723I13700J16767*
X5412235Y1215920I21652*
G02X5411802Y1217471I2567J1550*
X5414802Y1220471I3000*
G01X5417621*
Y919685*
G03X5470865Y866440I53244*
X5524110Y919685J53244*
X5470865Y972928I53244*
X5417621Y919685J53243*
G01Y1119685*
G03X5470865Y1066440I53244*
X5524110Y1119685J53244*
X5470865Y1172928I53244*
X5417621Y1119685J53243*
G01Y1220471*
X5617621*
Y919685*
G03X5670865Y866440I53244*
X5724110Y919685J53244*
X5670865Y972928I53244*
X5617621Y919685J53243*
G01Y1119685*
G03X5670865Y1066440I53244*
X5702755Y1077046J53244*
G01Y1031495*
G03X5724408Y1009842I21652*
X5726377Y1009931J21652*
G01Y846456*
G03X5748030Y824802I21652*
X5769685Y846456J21653*
X5748030Y868110I21654*
X5726377Y846456J21653*
G01Y1009931*
G03X5746062Y1031495I1969J21564*
X5724408Y1053150I21654*
X5702755Y1031495J21654*
G01Y1077046*
G03X5724110Y1119685I31890J42638*
X5670865Y1172928I53244*
X5617621Y1119685J53243*
G01Y1220471*
X5784401*
G02X5787401Y1217471J3000*
G01Y1084375*
G02X5784401Y1081375I3000*
X5781891Y1082731J3000*
G03X5763780Y1092520I18111J11865*
X5742125Y1070865J21654*
X5763780Y1049212I21654*
X5781891Y1059000J21652*
G02X5784401Y1060355I2510J1644*
X5787401Y1057355J3000*
G01Y790401*
G02X5784401Y787401I3000*
G01X5357641*
G02X5355520Y788280J3000*
G01X5355208Y788591*
G02X5354330Y790712I2122J2121*
G01Y829291*
Y2044243D02*
G02X5357330Y2047243I3000D01*
G01X5417621*
Y1711023*
G03X5470865Y1657780I53244*
X5524110Y1711023J53243*
X5470865Y1764267I53244*
X5417621Y1711023J53244*
G01Y1911023*
G03X5470865Y1857780I53244*
X5524110Y1911023J53243*
X5470865Y1964267I53244*
X5417621Y1911023J53244*
G01Y2047243*
X5617621*
Y1711023*
G03X5670865Y1657780I53244*
X5724110Y1711023J53243*
X5670865Y1764267I53244*
X5617621Y1711023J53244*
G01Y1911023*
G03X5670865Y1857780I53244*
X5720060Y1890657J53243*
G02X5722832Y1892510I2772J1147*
X5723630Y1892402J3000*
G01X5724177Y1892251*
G02X5726377Y1889500I797J2891*
G01Y1791338*
G03X5748030Y1769685I21652*
X5769685Y1791338J21653*
X5748030Y1812991I21654*
X5726377Y1791338J21652*
G01Y1889500*
G02X5726380Y1889408I2997J140*
G03X5748030Y1868110I21650J355*
X5769685Y1889763J21653*
X5748030Y1911417I21654*
X5729616Y1901156J21654*
G02X5727065Y1899735I2550J1578*
X5726270Y1899842J3000*
G01X5725721Y1899993*
G02X5723517Y1902885I796J2892*
X5723550Y1903320I3000*
G03X5724110Y1911023I52684J7703*
X5670865Y1964267I53244*
X5617621Y1911023J53244*
G01Y2047243*
X5706692*
Y2007873*
G03X5728345Y1986220I21652*
X5750000Y2007873J21653*
X5728345Y2029527I21654*
X5706692Y2007873J21654*
G01Y2047243*
X5784401*
G02X5787401Y2044243J3000*
G01Y1719875*
G02X5784401Y1716875I3000*
X5783328Y1717073J3000*
G03X5775590Y1718503I7737J20223*
X5753936Y1696850J21653*
X5775590Y1675196I21654*
X5783328Y1676626J21653*
G02X5784401Y1676825I1072J2801*
X5787401Y1673825J3000*
G01Y1617172*
G02X5784401Y1614172I3000*
G01X5357330*
G02X5354330Y1617172J3000*
G01Y2044243*
Y2772590D02*
G02X5357330Y2775590I3000D01*
G01X5413685*
Y2461023*
G03X5466928Y2407780I53243*
X5520172Y2461023J53243*
X5466928Y2514267I53244*
X5413685Y2461023J53244*
G01Y2661023*
G03X5466928Y2607780I53243*
X5520172Y2661023J53243*
X5466928Y2714267I53244*
X5413685Y2661023J53244*
G01Y2775590*
X5613685*
Y2461023*
G03X5666928Y2407780I53243*
X5720172Y2461023J53243*
X5666928Y2514267I53244*
X5613685Y2461023J53244*
G01Y2661023*
G03X5666928Y2607780I53243*
X5720172Y2661023J53243*
X5666928Y2714267I53244*
X5613685Y2661023J53244*
G01Y2775590*
X5726377*
Y2397637*
G03X5748030Y2375983I21652*
X5769685Y2397637J21654*
X5748030Y2419290I21654*
X5726377Y2397637J21652*
G01Y2775590*
X5784401*
G02X5787401Y2772590J3000*
G01Y2756450*
G02X5784401Y2753450I3000*
X5783807Y2753510J3000*
G03X5779527Y2753936I4280J21227*
X5757873Y2732282J21653*
X5779527Y2710630I21654*
X5783807Y2711056J21652*
G02X5784401Y2711116I593J2940*
X5787401Y2708116J3000*
G01Y2345520*
G02X5784401Y2342520I3000*
G01X5357330*
G02X5354330Y2345520J3000*
G01Y2772590*
G37*
G54D10*
X2323950Y550622D02*
X2264753D01*
X2323950D02*
Y609820D01*
Y550622D02*
Y491425D01*
Y550622D02*
X2383147D01*
X5466928Y2461023D02*
X5523172D01*
X5466928D02*
Y2517267D01*
Y2461023D02*
X5410685D01*
X5466928D02*
Y2404780D01*
Y2661023D02*
Y2717267D01*
Y2661023D02*
Y2604780D01*
Y2661023D02*
X5523172D01*
X5466928D02*
X5410685D01*
X5470865Y169685D02*
X5414621D01*
X5470865D02*
Y113440D01*
Y169685D02*
X5527110D01*
X5470865D02*
Y225928D01*
Y369685D02*
Y425928D01*
Y369685D02*
X5527110D01*
X5470865D02*
X5414621D01*
X5470865D02*
Y313440D01*
Y919685D02*
X5527110D01*
X5470865D02*
X5414621D01*
X5470865D02*
Y863440D01*
Y919685D02*
Y975928D01*
Y1119685D02*
X5414621D01*
X5470865D02*
Y1175928D01*
Y1119685D02*
X5527110D01*
X5470865D02*
Y1063440D01*
Y1711023D02*
Y1654780D01*
Y1711023D02*
Y1767267D01*
Y1711023D02*
X5414621D01*
X5470865D02*
X5527110D01*
X5470865Y1911023D02*
X5527110D01*
X5470865D02*
Y1967267D01*
Y1911023D02*
X5414621D01*
X5470865D02*
Y1854780D01*
X5666928Y2461023D02*
Y2517267D01*
Y2461023D02*
X5723172D01*
X5666928D02*
Y2404780D01*
Y2461023D02*
X5610685D01*
X5666928Y2661023D02*
X5610685D01*
X5666928D02*
Y2717267D01*
Y2661023D02*
Y2604780D01*
Y2661023D02*
X5723172D01*
X5670865Y169685D02*
X5727110D01*
X5670865D02*
Y225928D01*
Y169685D02*
X5614621D01*
X5670865D02*
Y113440D01*
Y369685D02*
Y313440D01*
Y369685D02*
X5727110D01*
X5670865D02*
X5614621D01*
X5670865D02*
Y425928D01*
Y919685D02*
Y863440D01*
Y919685D02*
X5727110D01*
X5670865D02*
Y975928D01*
Y919685D02*
X5614621D01*
X5670865Y1119685D02*
X5614621D01*
X5670865D02*
Y1063440D01*
Y1119685D02*
X5727110D01*
X5670865D02*
Y1175928D01*
Y1711023D02*
Y1654780D01*
Y1711023D02*
Y1767267D01*
Y1711023D02*
X5614621D01*
X5670865D02*
X5727110D01*
X5670865Y1911023D02*
Y1967267D01*
Y1911023D02*
Y1854780D01*
Y1911023D02*
X5614621D01*
X5670865D02*
X5727103Y1911847D01*
G54D11*
X78740Y2671080D02*
X125267D01*
X153900Y2728345D02*
X78740D01*
Y2610236*
X153900*
X257692Y2699712D02*
X252323Y2710450D01*
X241586Y2721187*
X232640Y2728345*
X211165*
X202217Y2721187*
X191480Y2710450*
X186111Y2699712*
X182532Y2683607*
Y2654975*
X186111Y2638868*
X191480Y2626342*
X202217Y2615605*
X211165Y2610236*
X232640*
X241586Y2615605*
X252323Y2626342*
X257692Y2638868*
Y2654975*
X232640*
X286325Y2610236D02*
Y2728345D01*
X334642*
X350747Y2721187*
X356116Y2715818*
X361485Y2705081*
Y2688975*
X356116Y2676448*
X350747Y2671080*
X334642Y2665711*
X286325*
X390117Y2705081D02*
X397275Y2710450D01*
X406223Y2726555*
Y2610236*
X467067Y2726555D02*
X450961Y2721187D01*
X440225Y2705081*
X434855Y2676448*
Y2660343*
X440225Y2631710*
X450961Y2615605*
X467067Y2610236*
X477805*
X493910Y2615605*
X504647Y2631710*
X510015Y2660343*
Y2676448*
X504647Y2705081*
X493910Y2721187*
X477805Y2726555*
X467067*
X570860D02*
X554753Y2721187D01*
X544016Y2705081*
X538648Y2676448*
Y2660343*
X544016Y2631710*
X554753Y2615605*
X570860Y2610236*
X581596*
X597702Y2615605*
X608440Y2631710*
X613808Y2660343*
Y2676448*
X608440Y2705081*
X597702Y2721187*
X581596Y2726555*
X570860*
X674652D02*
X658546Y2721187D01*
X647810Y2705081*
X642440Y2676448*
Y2660343*
X647810Y2631710*
X658546Y2615605*
X674652Y2610236*
X685390*
X701495Y2615605*
X712232Y2631710*
X717600Y2660343*
Y2676448*
X712232Y2705081*
X701495Y2721187*
X685390Y2726555*
X674652*
X746233Y2705081D02*
X753391Y2710450D01*
X762340Y2726555*
Y2610236*
X817815Y2726555D02*
X801708Y2721187D01*
X796340Y2710450*
Y2699712*
X801708Y2687186*
X812445Y2681817*
X833920Y2676448*
X850026Y2671080*
X860763Y2660343*
X866131Y2649606*
Y2631710*
X860763Y2620973*
X855395Y2615605*
X839288Y2610236*
X817815*
X801708Y2615605*
X796340Y2620973*
X790971Y2631710*
Y2649606*
X796340Y2660343*
X807077Y2671080*
X823183Y2676448*
X844657Y2681817*
X855395Y2687186*
X860763Y2699712*
Y2710450*
X855395Y2721187*
X839288Y2726555*
X817815*
X894765D02*
X969925D01*
X916238Y2610236*
X1068348Y2710450D02*
X1062980Y2721187D01*
X1045085Y2726555*
X1032557*
X1014662Y2721187*
X1003925Y2705081*
X998556Y2676448*
Y2649606*
X1003925Y2626342*
X1014662Y2615605*
X1032557Y2610236*
X1037926*
X1055821Y2615605*
X1068348Y2626342*
X1073716Y2642448*
Y2649606*
X1068348Y2665711*
X1055821Y2676448*
X1037926Y2681817*
X1032557*
X1014662Y2676448*
X1003925Y2665711*
X998556Y2649606*
G54D12*
X39370Y69433D02*
X42232Y71580D01*
X45811Y78022*
Y31496*
G54D13*
X708660Y1750000D02*
Y1949040D01*
X712597Y1511810D02*
Y1568480D01*
X708660Y1572417*
Y1714566*
X811023Y1511810D02*
Y1575522D01*
X817632Y1582131*
Y1720296*
X811810Y1956780D02*
Y1934338D01*
X817632Y1928516*
Y1755730*
X1007873Y1511810D02*
Y1572417D01*
X1003936Y1576355*
Y1714566*
X1011810Y1967098D02*
Y1944657D01*
X1003936Y1936783*
Y1750000*
X1062991Y791338D02*
X1157480D01*
X1196850Y751968*
Y748030*
X1114172Y1948818D02*
Y1913385D01*
X1102361Y1901575*
Y1750000*
X1141731Y1507873D02*
Y1511810D01*
X1114172Y1539370*
Y1681101*
X1102361Y1692912*
Y1714566*
X1157480Y1318897D02*
X1263780D01*
X1255905Y814960D02*
X1208660D01*
X1181101Y842520*
X1039370*
X1015747Y818897*
X1011810*
X1401575Y1362205D02*
Y1358267D01*
X1283465Y1240156*
X1043306*
X3188975Y602361D02*
Y2582676D01*
X3248030Y2539370D02*
Y1043306D01*
X3307086Y2492125D02*
Y992125D01*
X3389763Y460630D02*
Y2488188D01*
X3433070Y1531495D02*
Y2456692D01*
X3539370Y2023621D02*
Y2346456D01*
X3484251Y2401575*
Y2440945*
X3543306Y2421260D02*
X3547243D01*
X3614172Y2354330*
Y1964566*
X3665353Y1968503D02*
Y826771D01*
X3712597Y618110D02*
X3736220D01*
X3779527Y661416*
Y826771*
Y1043306*
Y826771D02*
X3720471D01*
X3779527Y1043306D02*
X3720471D01*
X3779527D02*
Y1433070D01*
X3763780Y1448818*
X3818897Y1712597D02*
Y1677165D01*
X3826771Y1669290*
Y1350393*
Y543306*
X3929133Y1043306D02*
Y1007873D01*
X3917322Y996062*
Y590550*
X3929133Y2192912D02*
Y2157480D01*
X3917322Y2145668*
Y1771653*
X3956692Y1968503D02*
Y1535432D01*
X3984251Y1358267D02*
Y822835D01*
X4059055Y2637794D02*
Y2633857D01*
X4000000Y2574802*
Y2472440*
X4259842Y2015747D02*
Y1980315D01*
X4263780Y1976377*
Y944881*
X4350393Y1740156D02*
Y354330D01*
X4401575Y1354330D02*
X4405511D01*
X4429133Y1330708*
Y905511*
X4468503Y610235D02*
Y1043306D01*
X4488188Y1968503D02*
X4492125D01*
X4547243Y1913385*
X5468503*
X5470865Y1911023*
X4507873Y413385D02*
Y1161416D01*
X4527558Y2192912D02*
X4531495D01*
X4799212Y2460630*
X5466535*
X5466928Y2461023*
X4566928Y629920D02*
Y1082676D01*
X4625983Y1122046D02*
Y531495D01*
X4665353Y925196D02*
Y1259842D01*
X4744093Y1043306D02*
Y1476377D01*
X5279527Y1429133D02*
Y1425196D01*
X5248030Y1393700*
Y877952*
X5393700Y732282*
Y728345*
X5314960Y1240156D02*
Y1204723D01*
X5303150Y1192912*
Y980315*
X5326771Y956692*
Y948818*
X5350393Y925196*
Y921260*
X5358267Y1539370D02*
Y1074802D01*
X5370078Y850393D02*
X5393700Y874015D01*
Y1204723*
X5470865Y169685D02*
X5670865D01*
X5470865D02*
Y369685D01*
Y919685D02*
X5670865D01*
X5470865Y1119685D02*
Y919685D01*
Y1711023D02*
Y1911023D01*
X5670865Y169685D02*
Y369685D01*
Y919685D02*
Y1119685D01*
Y1711023D02*
Y1911023D01*
X5470865*
G54D14*
X161416Y645668D02*
Y728345D01*
X125983Y763780*
Y1283465*
X216535Y1374015*
Y1377952*
X161416Y645668D02*
Y383440D01*
X157480Y379503*
Y334645*
X196850Y1732282D02*
Y1696850D01*
X145668Y1645668*
Y1452755*
X216535Y1381890*
Y1377952*
X1633857Y433070D02*
Y216535D01*
Y433070D02*
Y678150D01*
X1633958Y678251*
X1633857Y787401D02*
Y913385D01*
Y1141731D02*
Y1555117D01*
Y1141731D02*
Y913385D01*
X1633958Y678251D02*
X1633857Y678352D01*
Y787401*
X1653542Y1673227D02*
Y1811023D01*
X3484251Y2192912D02*
Y2342520D01*
X3503936Y1350393D02*
Y1633857D01*
Y1771653D02*
Y1633857D01*
Y1771653D02*
Y1775590D01*
X3484251Y1795275*
Y2192912*
X3504535Y984967D02*
X3503936Y985566D01*
Y1350393*
X3504535Y984967D02*
X3503936Y984368D01*
Y826771*
X4035432Y1633857D02*
Y1606298D01*
X4055117Y1586613*
Y1358267*
Y826771D02*
Y1358267D01*
X4448821Y2536121D02*
X4448818Y2536118D01*
Y1515747*
X4448821Y2536121D02*
X4448818Y2536125D01*
Y2633857*
X5177165Y1346456D02*
Y1559055D01*
X5161416Y1574802*
X5157480*
X5177516Y140731D02*
X5177165Y140380D01*
Y55117*
X5177516Y140731D02*
X5177165Y141083D01*
Y1346456*
X6181101Y2763780D02*
X6271653D01*
X6295275Y2740156*
Y1346456*
G54D15*
X39370Y669290D03*
Y1141731D03*
Y1614172D03*
Y2047243D03*
Y2421260D03*
Y2795275D03*
X47243Y125983D03*
X157480Y334645D03*
X161416Y645668D03*
X196850Y807086D03*
Y1141731D03*
Y1732282D03*
Y1909448D03*
X216535Y157480D03*
Y291338D03*
Y354330D03*
Y1377952D03*
Y1633857D03*
X255905Y1736220D03*
X275590Y1358267D03*
X299212Y665353D03*
X346456Y1240156D03*
X354330Y1397637D03*
X413385Y645668D03*
Y2322835D03*
X452755Y1535432D03*
X488188Y1039370D03*
X492125Y2125983D03*
X531495Y1736220D03*
Y2165353D03*
X551180Y1535432D03*
X555117Y1444881D03*
X590550Y2165353D03*
X649605Y1535432D03*
Y2165353D03*
X708660Y1949040D03*
X712597Y1511810D03*
X767716Y39370D03*
X811023Y1511810D03*
X811810Y1956780D03*
X826771Y2086613D03*
X913385Y1511810D03*
X933070Y1736220D03*
X1007873Y1511810D03*
X1011810Y818897D03*
Y1967098D03*
X1043306Y1240156D03*
X1062991Y791338D03*
X1070865Y1039370D03*
X1102361Y2795275D03*
X1114172Y1948818D03*
X1122046Y2086613D03*
X1141731Y1507873D03*
X1157480Y1318897D03*
X1196850Y748030D03*
X1220471Y618110D03*
X1240156Y1472440D03*
X1255905Y814960D03*
X1263780Y1318897D03*
X1346456Y503936D03*
X1401575Y1362205D03*
X1421260Y2267716D03*
X1437007Y826771D03*
Y1240156D03*
Y1692912D03*
X1456692Y354330D03*
Y1980315D03*
X1464566Y248030D03*
X1535432Y1633857D03*
Y1850393D03*
X1555117Y1141731D03*
X1559055Y917322D03*
X1574802Y216535D03*
Y433070D03*
X1633857Y216535D03*
Y433070D03*
Y787401D03*
Y913385D03*
Y1141731D03*
Y1555117D03*
X1653542Y39370D03*
Y1673227D03*
Y1811023D03*
X1771653Y220471D03*
Y511810D03*
Y866141D03*
Y1259842D03*
Y1633857D03*
X1807086Y1460630D03*
Y2795275D03*
X1968503Y1259842D03*
Y1515747D03*
X2007873Y334645D03*
X2062991Y1744093D03*
X2066928Y1228345D03*
Y1496062D03*
X2161416Y755905D03*
X2165353Y1259842D03*
Y1496062D03*
X2208660Y370078D03*
X2236220Y751968D03*
X2263780Y1259842D03*
Y1496062D03*
X2267716Y791338D03*
X2307086Y287401D03*
X2362205Y1496062D03*
X2405511Y366141D03*
X2460630Y1496062D03*
X2464566Y1744093D03*
X2480315Y39370D03*
X2559055Y1496062D03*
X2610235Y366141D03*
X2633857Y2795275D03*
X2657480Y2177165D03*
X2661416Y1488188D03*
X2779527Y1452755D03*
X2874015Y334645D03*
X2933070Y1751968D03*
X2952755Y1574802D03*
X2968503Y905511D03*
X2976377Y354330D03*
X2992125Y429133D03*
Y1062991D03*
X3078740Y1866141D03*
X3086613Y1625983D03*
X3188975Y602361D03*
Y2582676D03*
X3248030Y39370D03*
Y1043306D03*
Y2539370D03*
X3307086Y177165D03*
Y992125D03*
Y2492125D03*
X3354330Y2192912D03*
X3389763Y460630D03*
Y2488188D03*
X3433070Y1531495D03*
Y2456692D03*
X3484251Y2192912D03*
Y2342520D03*
Y2440945D03*
X3503936Y826771D03*
Y1350393D03*
Y1633857D03*
Y1771653D03*
X3507873Y2625983D03*
X3539370Y2023621D03*
X3543306Y2421260D03*
X3574802Y1696850D03*
X3614172Y1964566D03*
X3665353Y826771D03*
Y1968503D03*
X3712597Y618110D03*
X3720471Y826771D03*
Y1043306D03*
X3724408Y2188975D03*
X3759842Y2791338D03*
X3763780Y1448818D03*
X3818897Y39370D03*
Y1712597D03*
X3826771Y543306D03*
Y1350393D03*
X3874015Y2342520D03*
X3917322Y590550D03*
Y1771653D03*
X3929133Y1043306D03*
Y2192912D03*
X3956692Y1535432D03*
Y1968503D03*
X3984251Y822835D03*
Y1358267D03*
X4000000Y2472440D03*
X4007873Y425196D03*
X4035432Y1633857D03*
X4055117Y826771D03*
Y1358267D03*
X4059055Y2637794D03*
X4114172Y185038D03*
Y1511810D03*
X4145668Y1704723D03*
X4208660Y1440945D03*
X4212597Y610235D03*
X4251968Y2192912D03*
X4259842Y2015747D03*
X4263780Y944881D03*
X4314960Y1437007D03*
X4334645Y2346456D03*
X4350393Y354330D03*
Y1740156D03*
X4397637Y39370D03*
X4401575Y1354330D03*
X4429133Y905511D03*
X4448818Y1515747D03*
Y2633857D03*
X4468503Y610235D03*
Y1043306D03*
X4488188Y1968503D03*
X4507873Y413385D03*
Y1161416D03*
X4527558Y2192912D03*
X4566928Y629920D03*
Y1082676D03*
X4622046Y2629920D03*
X4625983Y531495D03*
Y1122046D03*
X4665353Y925196D03*
Y1259842D03*
X4681101Y2480315D03*
X4688975Y755905D03*
X4704723Y708660D03*
X4728345Y1696850D03*
X4744093Y1043306D03*
Y1476377D03*
X4897637Y1625983D03*
X4905511Y188975D03*
X5157480Y1574802D03*
X5173227Y1622046D03*
X5177165Y55117D03*
Y1346456D03*
X5279527Y1429133D03*
X5314960Y1240156D03*
X5318897Y2791338D03*
X5322835Y1692912D03*
X5342520Y232282D03*
X5350393Y921260D03*
X5358267Y1074802D03*
Y1539370D03*
X5370078Y850393D03*
X5393700Y728345D03*
Y1204723D03*
X5610235Y35432D03*
X5708660Y649605D03*
Y748030D03*
X5724408Y1031495D03*
X5728345Y484251D03*
Y2007873D03*
Y2185038D03*
X5740156Y551180D03*
X5748030Y846456D03*
Y1791338D03*
Y1889763D03*
Y2263780D03*
Y2397637D03*
X5755905Y244093D03*
X5763780Y1070865D03*
Y2078740D03*
X5775590Y1696850D03*
X5779527Y2732282D03*
X5905511Y177165D03*
Y1641731D03*
X6035432Y2791338D03*
X6181101Y177165D03*
Y2763780D03*
X6185038Y1637795D03*
X6295275Y1346456D03*
X6342520Y1692912D03*
X6350393Y2783465D03*
X6358267Y236220D03*
Y2342520D03*
X6370078Y582676D03*
Y1842520D03*
X6374015Y996062D03*
X6377952Y338582D03*
Y437007D03*
Y531495D03*
Y637795D03*
Y740156D03*
Y838582D03*
Y940945D03*
Y1039370D03*
X6397637Y1791338D03*
Y1889763D03*
Y1988188D03*
Y2106298D03*
Y2204723D03*
Y2283465D03*
Y2401575D03*
Y2500000D03*
G54D16*
X1633958Y678251D03*
X2323950Y550622D03*
X3504535Y984967D03*
X4448821Y2536121D03*
G54D17*
X5466928Y2461023D03*
Y2661023D03*
X5470865Y169685D03*
Y369685D03*
Y919685D03*
Y1119685D03*
Y1711023D03*
Y1911023D03*
X5666928Y2461023D03*
Y2661023D03*
X5670865Y169685D03*
Y369685D03*
Y919685D03*
Y1119685D03*
Y1711023D03*
Y1911023D03*
G54D18*
X708660Y1714566D03*
Y1750000D03*
X817632Y1720296D03*
Y1755730D03*
X1003936Y1714566D03*
Y1750000D03*
X1102361Y1714566D03*
Y1750000D03*
M02*
