*
G04 Job   : C:\PADS_WDIR\PADSProVX.2.14.1\PCCD\207cd633-8e29-413e-93b2-d20470c3fcf6\PCB\Board1.pcb*
G04 User  : ESHARP-MTRO_1:MartinTrobäck*
G04 Layer : Masktop.gts*
G04 Date  : Fri Feb 20 17:46:45 2026*
G04 Soldermask top*
%ICAS*%
%MOIN*%
%FSLAX26Y26*%
%OFA0.0000B0.0000*%
G90*
G74*
%AMVB_RECTANGLE*
21,1,$1,$2,0,0,$3*
%
%ADD12C,0.07283*%
%ADD11C,0.10039*%
%ADD10C,0.10236*%
%ADD13VB_RECTANGLE,0.02165X0.02953X90.00000*%
G01*
G54D10*
X1633958Y678251D03*
X2323950Y550622D03*
X3504535Y984967D03*
X4448821Y2536121D03*
G54D11*
X5466928Y2461023D03*
Y2661023D03*
X5470865Y169685D03*
Y369685D03*
Y919685D03*
Y1119685D03*
Y1711023D03*
Y1911023D03*
X5666928Y2461023D03*
Y2661023D03*
X5670865Y169685D03*
Y369685D03*
Y919685D03*
Y1119685D03*
Y1711023D03*
Y1911023D03*
G54D12*
X361810Y332676D03*
Y1036220D03*
Y1740156D03*
X1161810Y332676D03*
Y1036220D03*
Y1740156D03*
X1909055Y332676D03*
Y1036220D03*
Y1740156D03*
X2709055Y332676D03*
Y1036220D03*
Y1740156D03*
G54D13*
X708660Y1714566D03*
Y1750000D03*
X817632Y1720296D03*
Y1755730D03*
X1003936Y1714566D03*
Y1750000D03*
X1102361Y1714566D03*
Y1750000D03*
M02*
