*
G04 Job   : C:\PADS_WDIR\PADSProVX.2.14.1\PCCD\207cd633-8e29-413e-93b2-d20470c3fcf6\PCB\Board1.pcb*
G04 User  : ESHARP-MTRO_1:MartinTrob踄k*
G04 Layer : Silktop.gto*
G04 Date  : Fri Feb 20 17:46:45 2026*
G04 Silkscreen top*
%ICAS*%
%MOIN*%
%FSLAX26Y26*%
%OFA0.0000B0.0000*%
G90*
G74*
%ADD15C,0.00394*%
%ADD14C,0.00492*%
%ADD13C,0.00591*%
%ADD12C,0.00787*%
%ADD11C,0.01575*%
%ADD10C,0.03937*%
G01*
G36*
X1658655Y2475736D02*
X1652303D01*
Y2484785*
X1630368*
Y2469496*
X1649460*
Y2463070*
X1630368*
Y2446267*
X1652303*
Y2455610*
X1658655*
Y2439842*
X1615965*
Y2446267*
X1622612*
Y2484785*
X1615965*
Y2491210*
X1658655*
Y2475736*
X1663493Y2454060D02*
X1685650D01*
Y2461076*
X1663493*
Y2454060*
X1725718Y2454175D02*
X1725671Y2452882D01*
X1725532Y2451636*
X1725301Y2450435*
X1724976Y2449280*
X1724560Y2448171*
X1724050Y2447108*
X1723447Y2446091*
X1722751Y2445120*
X1721965Y2444195*
X1721083Y2443315*
X1720135Y2442500*
X1719141Y2441772*
X1718105Y2441130*
X1717025Y2440572*
X1715900Y2440100*
X1714730Y2439715*
X1713518Y2439415*
X1712261Y2439201*
X1710961Y2439072*
X1709617Y2439030*
X1708227Y2439080*
X1706866Y2439232*
X1705533Y2439485*
X1704228Y2439840*
X1702951Y2440295*
X1701702Y2440851*
X1700481Y2441508*
X1699288Y2442267*
X1698125Y2443127*
X1696987Y2444090*
Y2439842*
X1690562*
Y2458491*
X1696987*
Y2453948*
X1697940Y2452356*
X1698947Y2450931*
X1700013Y2449673*
X1701135Y2448583*
X1702315Y2447661*
X1703550Y2446907*
X1704843Y2446320*
X1706193Y2445901*
X1707600Y2445650*
X1709063Y2445566*
X1709811Y2445590*
X1710537Y2445660*
X1711238Y2445775*
X1711916Y2445938*
X1712571Y2446147*
X1713201Y2446403*
X1713810Y2446706*
X1714392Y2447055*
X1714952Y2447450*
X1715488Y2447892*
X1715986Y2448372*
X1716432Y2448880*
X1716825Y2449418*
X1717166Y2449985*
X1717455Y2450580*
X1717691Y2451203*
X1717875Y2451855*
X1718005Y2452536*
X1718085Y2453247*
X1718110Y2453986*
X1718090Y2454696*
X1718025Y2455366*
X1717918Y2455995*
X1717768Y2456582*
X1717575Y2457130*
X1717340Y2457635*
X1717061Y2458100*
X1716740Y2458523*
X1716375Y2458906*
X1715968Y2459248*
X1715502Y2459570*
X1714960Y2459890*
X1714341Y2460210*
X1713646Y2460530*
X1712876Y2460850*
X1712030Y2461170*
X1711106Y2461488*
X1710107Y2461806*
X1709032Y2462125*
X1707881Y2462442*
X1706536Y2462810*
X1705262Y2463172*
X1704060Y2463532*
X1702930Y2463887*
X1701871Y2464238*
X1700885Y2464585*
X1699968Y2464927*
X1699125Y2465266*
X1698352Y2465601*
X1697652Y2465932*
X1697001Y2466275*
X1696376Y2466645*
X1695780Y2467045*
X1695208Y2467471*
X1694665Y2467926*
X1694150Y2468410*
X1693660Y2468920*
X1693197Y2469460*
X1692761Y2470027*
X1692353Y2470622*
X1691977Y2471243*
X1691641Y2471886*
X1691345Y2472551*
X1691088Y2473240*
X1690871Y2473950*
X1690693Y2474683*
X1690555Y2475440*
X1690456Y2476217*
X1690397Y2477018*
X1690377Y2477841*
X1690420Y2479108*
X1690550Y2480322*
X1690765Y2481485*
X1691065Y2482595*
X1691452Y2483653*
X1691926Y2484660*
X1692485Y2485613*
X1693130Y2486515*
X1693862Y2487365*
X1694680Y2488163*
X1695561Y2488896*
X1696488Y2489552*
X1697458Y2490131*
X1698472Y2490633*
X1699530Y2491057*
X1700632Y2491405*
X1701778Y2491675*
X1702968Y2491868*
X1704202Y2491985*
X1705480Y2492022*
X1706705Y2491982*
X1707912Y2491863*
X1709101Y2491663*
X1710272Y2491385*
X1711426Y2491025*
X1712562Y2490586*
X1713680Y2490068*
X1714780Y2489470*
X1715863Y2488792*
X1716928Y2488035*
Y2491468*
X1723207*
Y2475885*
X1716928*
Y2479466*
X1716108Y2480596*
X1715228Y2481607*
X1714288Y2482498*
X1713290Y2483271*
X1712230Y2483925*
X1711110Y2484461*
X1709931Y2484877*
X1708692Y2485175*
X1707393Y2485352*
X1706035Y2485412*
X1705212Y2485392*
X1704430Y2485335*
X1703685Y2485237*
X1702980Y2485102*
X1702315Y2484927*
X1701687Y2484715*
X1701100Y2484462*
X1700551Y2484171*
X1700042Y2483841*
X1699572Y2483473*
X1699145Y2483078*
X1698761Y2482667*
X1698423Y2482242*
X1698130Y2481801*
X1697882Y2481345*
X1697680Y2480875*
X1697522Y2480388*
X1697410Y2479886*
X1697342Y2479370*
X1697320Y2478840*
X1697331Y2478430*
X1697365Y2478031*
X1697422Y2477642*
X1697503Y2477265*
X1697605Y2476895*
X1697731Y2476536*
X1697880Y2476187*
X1698052Y2475848*
X1698247Y2475520*
X1698465Y2475201*
X1698700Y2474895*
X1698947Y2474606*
X1699207Y2474335*
X1699480Y2474078*
X1699766Y2473840*
X1700065Y2473617*
X1700375Y2473411*
X1700698Y2473222*
X1701033Y2473050*
X1701382Y2472893*
X1701770Y2472740*
X1702228Y2472575*
X1702755Y2472397*
X1703350Y2472208*
X1704013Y2472007*
X1704745Y2471795*
X1705546Y2471571*
X1706416Y2471335*
X1707355Y2471088*
X1708362Y2470830*
X1709685Y2470477*
X1710931Y2470131*
X1712105Y2469790*
X1713202Y2469452*
X1714225Y2469120*
X1715175Y2468792*
X1716048Y2468470*
X1716848Y2468150*
X1717572Y2467837*
X1718223Y2467528*
X1718827Y2467201*
X1719415Y2466832*
X1719985Y2466423*
X1720538Y2465973*
X1721075Y2465482*
X1721595Y2464950*
X1722097Y2464377*
X1722582Y2463763*
X1723051Y2463108*
X1723502Y2462412*
X1723923Y2461685*
X1724300Y2460936*
X1724632Y2460165*
X1724920Y2459375*
X1725165Y2458561*
X1725363Y2457726*
X1725518Y2456871*
X1725630Y2455993*
X1725696Y2455095*
X1725718Y2454175*
X1770992Y2439842D02*
X1757883D01*
Y2461705*
X1757880Y2462490*
X1757872Y2463221*
X1757860Y2463898*
X1757841Y2464522*
X1757818Y2465092*
X1757790Y2465608*
X1757756Y2466070*
X1757717Y2466478*
X1757673Y2466832*
X1757625Y2467132*
X1757563Y2467401*
X1757485Y2467660*
X1757387Y2467910*
X1757272Y2468148*
X1757140Y2468378*
X1756988Y2468600*
X1756820Y2468810*
X1756631Y2469011*
X1756426Y2469203*
X1756202Y2469385*
X1755965Y2469553*
X1755720Y2469705*
X1755466Y2469837*
X1755205Y2469952*
X1754933Y2470050*
X1754653Y2470130*
X1754365Y2470191*
X1754070Y2470236*
X1753765Y2470262*
X1753451Y2470271*
X1752617Y2470225*
X1751738Y2470086*
X1750815Y2469855*
X1749847Y2469532*
X1748835Y2469117*
X1747780Y2468610*
X1746678Y2468010*
X1745533Y2467317*
X1744345Y2466532*
X1743111Y2465655*
Y2446082*
X1749315*
Y2439842*
X1729632*
Y2446082*
X1736095*
Y2484968*
X1729632*
Y2491210*
X1743111*
Y2471490*
X1744368Y2472458*
X1745612Y2473325*
X1746843Y2474090*
X1748062Y2474751*
X1749270Y2475312*
X1750463Y2475770*
X1751645Y2476127*
X1752813Y2476382*
X1753970Y2476535*
X1755113Y2476586*
X1755810Y2476571*
X1756481Y2476527*
X1757127Y2476453*
X1757748Y2476350*
X1758345Y2476216*
X1758915Y2476055*
X1759461Y2475862*
X1759981Y2475640*
X1760477Y2475390*
X1760948Y2475110*
X1761391Y2474805*
X1761805Y2474480*
X1762190Y2474137*
X1762546Y2473776*
X1762873Y2473396*
X1763170Y2472997*
X1763438Y2472580*
X1763678Y2472143*
X1763887Y2471687*
X1764068Y2471213*
X1764226Y2470707*
X1764367Y2470156*
X1764492Y2469560*
X1764600Y2468920*
X1764691Y2468235*
X1764766Y2467506*
X1764825Y2466732*
X1764866Y2465913*
X1764891Y2465050*
X1764900Y2464141*
Y2446082*
X1770992*
Y2439842*
X1774907Y2450551D02*
X1774945Y2451531D01*
X1775060Y2452477*
X1775251Y2453390*
X1775518Y2454267*
X1775862Y2455112*
X1776283Y2455922*
X1776780Y2456698*
X1777353Y2457441*
X1778003Y2458150*
X1778730Y2458823*
X1779510Y2459448*
X1780320Y2460006*
X1781163Y2460500*
X1781628Y2460726*
Y2450588*
X1781645Y2450095*
X1781696Y2449616*
X1781782Y2449155*
X1781902Y2448710*
X1782057Y2448280*
X1782246Y2447867*
X1782470Y2447470*
X1782727Y2447090*
X1783020Y2446726*
X1783345Y2446378*
X1783701Y2446055*
X1784081Y2445766*
X1784487Y2445512*
X1784917Y2445291*
X1785371Y2445105*
X1785851Y2444951*
X1786355Y2444832*
X1786885Y2444747*
X1787438Y2444696*
X1788016Y2444680*
X1789030Y2444722*
X1790033Y2444851*
X1791025Y2445065*
X1792005Y2445365*
X1792975Y2445750*
X1793932Y2446221*
X1794880Y2446778*
X1795816Y2447421*
X1796741Y2448150*
X1797655Y2448963*
Y2453136*
X1796745Y2453810*
X1795835Y2454412*
X1794920Y2454945*
X1794003Y2455405*
X1793085Y2455795*
X1792165Y2456115*
X1791242Y2456362*
X1790317Y2456540*
X1789390Y2456646*
X1788460Y2456681*
X1787886Y2456665*
X1787331Y2456613*
X1786796Y2456528*
X1786280Y2456410*
X1785782Y2456256*
X1785305Y2456070*
X1784846Y2455850*
X1784406Y2455595*
X1783986Y2455305*
X1783585Y2454983*
X1783213Y2454633*
X1782880Y2454263*
X1782587Y2453873*
X1782332Y2453465*
X1782117Y2453035*
X1781941Y2452585*
X1781805Y2452116*
X1781706Y2451626*
X1781647Y2451117*
X1781628Y2450588*
Y2460726*
X1782038Y2460927*
X1782943Y2461288*
X1783880Y2461585*
X1784850Y2461815*
X1785850Y2461978*
X1786880Y2462077*
X1787942Y2462110*
X1788943Y2462080*
X1789938Y2461990*
X1790926Y2461837*
X1791907Y2461625*
X1792882Y2461353*
X1793850Y2461020*
X1794811Y2460626*
X1795765Y2460172*
X1796713Y2459657*
X1797655Y2459081*
Y2462627*
X1797650Y2463161*
X1797635Y2463670*
X1797608Y2464153*
X1797572Y2464612*
X1797526Y2465045*
X1797470Y2465455*
X1797402Y2465837*
X1797325Y2466195*
X1797236Y2466528*
X1797138Y2466836*
X1797020Y2467130*
X1796875Y2467415*
X1796703Y2467696*
X1796502Y2467971*
X1796275Y2468240*
X1796020Y2468503*
X1795735Y2468760*
X1795425Y2469011*
X1795086Y2469256*
X1794720Y2469495*
X1794327Y2469720*
X1793912Y2469921*
X1793473Y2470098*
X1793011Y2470252*
X1792526Y2470382*
X1792018Y2470488*
X1791486Y2470571*
X1790931Y2470630*
X1790353Y2470666*
X1789752Y2470677*
X1788725Y2470635*
X1787756Y2470510*
X1786846Y2470298*
X1785995Y2470005*
X1785200Y2469625*
X1784465Y2469162*
X1783788Y2468615*
X1783170Y2467983*
X1782610Y2467267*
X1782108Y2466468*
X1775387Y2468240*
X1776345Y2469826*
X1777435Y2471245*
X1778653Y2472496*
X1780001Y2473581*
X1781480Y2474500*
X1783090Y2475250*
X1784827Y2475835*
X1786696Y2476252*
X1788695Y2476502*
X1790823Y2476586*
X1791617Y2476575*
X1792390Y2476542*
X1793140Y2476488*
X1793870Y2476411*
X1794576Y2476313*
X1795261Y2476193*
X1795925Y2476052*
X1796566Y2475888*
X1797186Y2475703*
X1797785Y2475496*
X1798356Y2475272*
X1798900Y2475036*
X1799411Y2474786*
X1799895Y2474525*
X1800346Y2474250*
X1800770Y2473963*
X1801162Y2473665*
X1801525Y2473352*
X1801857Y2473027*
X1802160Y2472690*
X1802440Y2472345*
X1802700Y2471992*
X1802940Y2471635*
X1803162Y2471272*
X1803365Y2470903*
X1803550Y2470530*
X1803715Y2470150*
X1803862Y2469765*
X1803990Y2469375*
X1804100Y2468978*
X1804193Y2468556*
X1804278Y2468086*
X1804353Y2467570*
X1804418Y2467005*
X1804473Y2466393*
X1804518Y2465735*
X1804553Y2465028*
X1804578Y2464275*
X1804593Y2463475*
X1804598Y2462627*
Y2446082*
X1810617*
Y2439842*
X1798357*
Y2444200*
X1797326Y2443260*
X1796271Y2442418*
X1795193Y2441676*
X1794091Y2441032*
X1792965Y2440488*
X1791816Y2440043*
X1790643Y2439696*
X1789446Y2439450*
X1788226Y2439300*
X1786982Y2439251*
X1786020Y2439283*
X1785083Y2439378*
X1784172Y2439537*
X1783287Y2439760*
X1782426Y2440045*
X1781592Y2440395*
X1780782Y2440807*
X1779998Y2441283*
X1779240Y2441823*
X1778507Y2442427*
X1777823Y2443080*
X1777211Y2443768*
X1776671Y2444492*
X1776203Y2445251*
X1775807Y2446045*
X1775483Y2446876*
X1775231Y2447741*
X1775051Y2448642*
X1774943Y2449580*
X1774907Y2450551*
X1782475Y2689693D02*
X1776926Y2656502D01*
X1713486*
X1708380Y2626395*
X1771790Y2626411*
X1766131Y2593107*
X1702732*
X1697333Y2561285*
X1761008*
X1755460Y2528093*
X1691702*
X1691701Y2528085*
X1655385*
X1682802Y2689710*
X1719120*
X1719117Y2689693*
X1782475*
X1822810Y2521491D02*
X1819290Y2499362D01*
X1782972*
X1786492Y2521491*
X1822810*
X1842043Y2469052D02*
X1840640D01*
X1839596Y2469042*
X1838607Y2469010*
X1837671Y2468956*
X1836790Y2468881*
X1835965Y2468785*
X1835191Y2468667*
X1834473Y2468528*
X1833810Y2468367*
X1833200Y2468185*
X1832645Y2467981*
X1832131Y2467750*
X1831643Y2467483*
X1831185Y2467181*
X1830751Y2466845*
X1830346Y2466472*
X1829968Y2466065*
X1829618Y2465623*
X1829295Y2465145*
X1829000Y2464633*
X1828730Y2464086*
X1828488Y2463476*
X1828272Y2462776*
X1828081Y2461987*
X1827915Y2461108*
X1827775Y2460140*
X1827660Y2459080*
X1827571Y2457932*
X1827508Y2456695*
X1827470Y2455366*
X1827457Y2453950*
Y2446082*
X1835250*
Y2439842*
X1813240*
Y2446082*
X1820440*
Y2469348*
X1813240*
Y2475590*
X1826053*
Y2467538*
X1826298Y2468155*
X1826563Y2468751*
X1826845Y2469325*
X1827146Y2469878*
X1827466Y2470410*
X1827805Y2470920*
X1828160Y2471408*
X1828535Y2471875*
X1828928Y2472321*
X1829340Y2472745*
X1829763Y2473145*
X1830191Y2473516*
X1830625Y2473860*
X1831062Y2474175*
X1831505Y2474462*
X1831952Y2474722*
X1832405Y2474953*
X1832861Y2475156*
X1833323Y2475331*
X1833790Y2475478*
X1834276Y2475605*
X1834796Y2475717*
X1835351Y2475817*
X1835940Y2475903*
X1836565Y2475976*
X1837222Y2476036*
X1837915Y2476083*
X1838641Y2476116*
X1839402Y2476136*
X1840197Y2476143*
X1842043*
Y2469052*
X1843693Y2649908D02*
X1830455Y2567877D01*
X1794362*
X1807391Y2649908*
X1843693*
X1844776Y2430055D02*
X1851312D01*
Y2469348*
X1845293*
Y2475590*
X1858218*
Y2457198*
X1858230Y2456610*
X1858267Y2456027*
X1858328Y2455450*
X1858413Y2454876*
X1858523Y2454308*
X1858657Y2453746*
X1858815Y2453190*
X1858998Y2452637*
X1859205Y2452090*
X1859436Y2451548*
X1859695Y2451018*
X1859982Y2450505*
X1860297Y2450010*
X1860642Y2449530*
X1861015Y2449070*
X1861417Y2448626*
X1861848Y2448200*
X1862308Y2447790*
X1862797Y2447400*
X1863315Y2447025*
X1863855Y2446677*
X1864415Y2446366*
X1864993Y2446092*
X1865590Y2445855*
X1866205Y2445653*
X1866837Y2445490*
X1867490Y2445361*
X1868160Y2445270*
X1868848Y2445215*
X1869555Y2445196*
X1870542Y2445230*
X1871495Y2445331*
X1872410Y2445500*
X1873292Y2445735*
X1874140Y2446037*
X1874950Y2446406*
X1875727Y2446843*
X1876468Y2447347*
X1877175Y2447918*
X1877846Y2448557*
X1878467Y2449255*
X1879022Y2450002*
X1879512Y2450800*
X1879937Y2451647*
X1880297Y2452545*
X1880591Y2453493*
X1880820Y2454492*
X1880983Y2455541*
X1881081Y2456640*
X1881115Y2457790*
X1881080Y2458910*
X1880977Y2459978*
X1880806Y2460997*
X1880567Y2461966*
X1880260Y2462885*
X1879885Y2463755*
X1879440Y2464572*
X1878928Y2465340*
X1878347Y2466058*
X1877698Y2466726*
X1877006Y2467336*
X1876295Y2467883*
X1875565Y2468365*
X1874815Y2468782*
X1874047Y2469135*
X1873260Y2469425*
X1872455Y2469650*
X1871630Y2469810*
X1870786Y2469906*
X1869925Y2469940*
X1869005Y2469905*
X1868108Y2469800*
X1867235Y2469625*
X1866382Y2469380*
X1865553Y2469066*
X1864746Y2468682*
X1863962Y2468230*
X1863200Y2467705*
X1862461Y2467112*
X1861745Y2466450*
X1861075Y2465728*
X1860475Y2464962*
X1859946Y2464151*
X1859488Y2463295*
X1859100Y2462391*
X1858782Y2461445*
X1858536Y2460450*
X1858360Y2459412*
X1858253Y2458328*
X1858218Y2457198*
Y2475590*
X1858330*
Y2469975*
X1859400Y2471147*
X1860515Y2472196*
X1861675Y2473121*
X1862878Y2473922*
X1864127Y2474601*
X1865420Y2475156*
X1866756Y2475588*
X1868137Y2475896*
X1869562Y2476081*
X1871032Y2476143*
X1872513Y2476091*
X1873941Y2475936*
X1875318Y2475677*
X1876642Y2475315*
X1877915Y2474850*
X1879135Y2474281*
X1880303Y2473610*
X1881420Y2472835*
X1882485Y2471955*
X1883496Y2470973*
X1884432Y2469908*
X1885271Y2468780*
X1886010Y2467591*
X1886651Y2466340*
X1887193Y2465027*
X1887637Y2463652*
X1887982Y2462215*
X1888230Y2460715*
X1888376Y2459155*
X1888426Y2457531*
X1888372Y2455832*
X1888212Y2454206*
X1887945Y2452653*
X1887570Y2451173*
X1887087Y2449766*
X1886498Y2448433*
X1885802Y2447172*
X1884998Y2445985*
X1884088Y2444871*
X1883071Y2443830*
X1881985Y2442876*
X1880870Y2442022*
X1879725Y2441270*
X1878551Y2440616*
X1877347Y2440063*
X1876115Y2439611*
X1874851Y2439260*
X1873558Y2439008*
X1872236Y2438858*
X1870885Y2438808*
X1869483Y2438862*
X1868115Y2439026*
X1866777Y2439300*
X1865472Y2439682*
X1864201Y2440175*
X1862961Y2440775*
X1861755Y2441486*
X1860580Y2442306*
X1859438Y2443235*
X1858330Y2444273*
Y2430055*
X1865271*
Y2423815*
X1844776*
Y2430055*
X1856782Y2728656D02*
X1851390Y2696303D01*
X1815072*
X1820465Y2728656*
X1856782*
X1909845Y2446267D02*
X1916060D01*
X1929686Y2484300*
Y2463920*
X1944340*
X1937505Y2485412*
X1936802*
X1929686Y2463920*
Y2484300*
X1930085Y2485412*
X1923877*
Y2491210*
X1950135*
Y2485412*
X1943713*
X1958088Y2446267*
X1963835*
Y2439842*
X1943708*
Y2446267*
X1950097*
X1946277Y2457900*
X1927771*
X1923841Y2446267*
X1930082*
Y2439842*
X1909845*
Y2446267*
X1912212Y2521491D02*
X1908693Y2499362D01*
X1872616*
X1876136Y2521491*
X1912212*
X1933457Y2649908D02*
X1919885Y2567877D01*
X1883781*
X1897020Y2649908*
X1933457*
X1946426Y2728656D02*
X1940635Y2696303D01*
X1904476*
X1909868Y2728656*
X1946426*
X1946453Y2561285D02*
X1939960Y2528093D01*
X1913262*
X1913261Y2528085*
X1877185*
X1877186Y2528093*
X1823860*
X1823858Y2528085*
X1787540*
X1787542Y2528093*
X1763420*
X1768846Y2561285*
X1946453*
X1964705Y2689693D02*
X1958211Y2656502D01*
X1784416*
X1789843Y2689693*
X1813971*
X1813975Y2689710*
X1850291*
X1850288Y2689693*
X1903375*
X1903377Y2689710*
X1939455*
X1939451Y2689693*
X1964705*
X1964942Y2491210D02*
X1979012D01*
Y2446267*
X1981930*
X1983045Y2446273*
X1984097Y2446290*
X1985088Y2446320*
X1986018Y2446360*
X1986887Y2446410*
X1987695Y2446473*
X1988441Y2446548*
X1989126Y2446635*
X1989750Y2446731*
X1990312Y2446840*
X1990835Y2446970*
X1991337Y2447131*
X1991820Y2447323*
X1992283Y2447546*
X1992726Y2447800*
X1993150Y2448085*
X1993555Y2448401*
X1993940Y2448748*
X1994305Y2449126*
X1994651Y2449536*
X1994971Y2449972*
X1995256Y2450433*
X1995508Y2450918*
X1995727Y2451426*
X1995912Y2451960*
X1996063Y2452516*
X1996180Y2453096*
X1996265Y2453701*
X1996315Y2454330*
X1996332Y2454983*
X1996315Y2455580*
X1996267Y2456155*
X1996187Y2456711*
X1996075Y2457248*
X1995930Y2457766*
X1995753Y2458265*
X1995545Y2458742*
X1995305Y2459201*
X1995030Y2459640*
X1994725Y2460060*
X1994395Y2460456*
X1994046Y2460825*
X1993678Y2461167*
X1993292Y2461481*
X1992888Y2461768*
X1992465Y2462028*
X1992025Y2462260*
X1991565Y2462465*
X1991086Y2462643*
X1990590Y2462793*
X1990062Y2462923*
X1989495Y2463040*
X1988885Y2463141*
X1988232Y2463230*
X1987538Y2463305*
X1986802Y2463367*
X1986025Y2463415*
X1985206Y2463450*
X1984346Y2463470*
X1983445Y2463476*
X1979012*
Y2469828*
X1983850*
X1984925Y2469848*
X1985932Y2469906*
X1986873Y2470003*
X1987746Y2470138*
X1988553Y2470313*
X1989295Y2470526*
X1989967Y2470778*
X1990575Y2471068*
X1991113Y2471398*
X1991586Y2471766*
X1992005Y2472172*
X1992377Y2472615*
X1992707Y2473095*
X1992992Y2473610*
X1993235Y2474162*
X1993432Y2474751*
X1993586Y2475377*
X1993696Y2476040*
X1993762Y2476737*
X1993785Y2477472*
X1993685Y2478862*
X1993386Y2480105*
X1992890Y2481201*
X1992195Y2482152*
X1991300Y2482956*
X1990207Y2483615*
X1988916Y2484126*
X1987426Y2484492*
X1985737Y2484711*
X1983850Y2484785*
X1979012*
Y2491210*
X1982040*
X1983416Y2491201*
X1984721Y2491176*
X1985955Y2491133*
X1987120Y2491075*
X1988212Y2490997*
X1989235Y2490905*
X1990187Y2490793*
X1991070Y2490666*
X1991880Y2490522*
X1992620Y2490360*
X1993317Y2490165*
X1993998Y2489916*
X1994661Y2489616*
X1995308Y2489265*
X1995940Y2488860*
X1996553Y2488405*
X1997150Y2487895*
X1997731Y2487335*
X1998295Y2486723*
X1998843Y2486058*
X1999355Y2485355*
X1999813Y2484630*
X2000218Y2483878*
X2000568Y2483105*
X2000865Y2482305*
X2001107Y2481483*
X2001296Y2480636*
X2001431Y2479766*
X2001512Y2478871*
X2001540Y2477952*
X2001523Y2477243*
X2001475Y2476548*
X2001395Y2475866*
X2001282Y2475200*
X2001137Y2474546*
X2000961Y2473906*
X2000752Y2473281*
X2000511Y2472670*
X2000238Y2472073*
X1999932Y2471490*
X1999596Y2470928*
X1999230Y2470395*
X1998835Y2469888*
X1998408Y2469410*
X1997952Y2468960*
X1997466Y2468538*
X1996951Y2468145*
X1996405Y2467780*
X1995830Y2467442*
X1995225Y2467132*
X1996061Y2466817*
X1996858Y2466465*
X1997616Y2466071*
X1998335Y2465640*
X1999015Y2465170*
X1999653Y2464661*
X2000253Y2464115*
X2000813Y2463528*
X2001335Y2462903*
X2001816Y2462240*
X2002255Y2461546*
X2002646Y2460833*
X2002993Y2460101*
X2003293Y2459350*
X2003547Y2458578*
X2003755Y2457787*
X2003916Y2456977*
X2004031Y2456147*
X2004101Y2455298*
X2004125Y2454430*
X2004107Y2453675*
X2004055Y2452935*
X2003970Y2452210*
X2003850Y2451498*
X2003695Y2450800*
X2003506Y2450117*
X2003282Y2449447*
X2003025Y2448792*
X2002733Y2448150*
X2002406Y2447523*
X2002052Y2446917*
X2001675Y2446338*
X2001275Y2445788*
X2000853Y2445266*
X2000408Y2444771*
X1999940Y2444305*
X1999451Y2443867*
X1998938Y2443457*
X1998403Y2443076*
X1997846Y2442722*
X1997272Y2442393*
X1996687Y2442087*
X1996091Y2441803*
X1995485Y2441540*
X1994868Y2441300*
X1994241Y2441082*
X1993603Y2440887*
X1992955Y2440713*
X1992295Y2440562*
X1991625Y2440432*
X1990923Y2440320*
X1990175Y2440220*
X1989375Y2440131*
X1988527Y2440055*
X1987630Y2439990*
X1986685Y2439936*
X1985690Y2439895*
X1984645Y2439865*
X1983552Y2439848*
X1982410Y2439842*
X1964942*
Y2446267*
X1971257*
Y2484785*
X1964942*
Y2491210*
G37*
G54D10*
X4925196Y1752922D02*
Y1853137D01*
X4944285Y1896086*
X4972917Y1924720*
X5001550Y1939035*
X5044500Y1953352*
X5120853*
X5163802Y1939035*
X5197207Y1924720*
X5225840Y1896086*
X5240156Y1853137*
Y1752922*
X4925196*
X4948818Y861607D02*
X5173108D01*
X5220830Y875923*
X5249462Y904556*
X5263778Y947505*
Y976138*
X5249462Y1019087*
X5220830Y1047720*
X5173108Y1062036*
X4948818*
X4996540Y785253D02*
X4967906Y756620D01*
X4948818Y713671*
Y656406*
X4967906Y613456*
X4996540Y584825*
X5025172*
X5053805Y599140*
X5068121Y613456*
X5087210Y642090*
X5115842Y727988*
X5130160Y756620*
X5144475Y770937*
X5173108Y785253*
X5220830*
X5249462Y756620*
X5263778Y713671*
X5263779Y656406*
X5249462Y613456*
X5220830Y584825*
X5240156Y2306490D02*
X4925196D01*
X5240156Y2406705*
X4925196Y2506918*
X5240156*
Y2029706D02*
X4925196D01*
X5240156Y2129920*
X4925196Y2230135*
X5240156*
X5263779Y308040D02*
X4948818D01*
Y436888*
X4967906Y479837*
X4982223Y494153*
X5010856Y508470*
X5053805*
X5087210Y494153*
X5101526Y479837*
X5115842Y436888*
Y308040*
G54D11*
X78740Y2521475D02*
X125267D01*
X153900Y2578740D02*
X78740D01*
Y2460630*
X153900*
X257692Y2560843D02*
X246955Y2571580D01*
X230850Y2578740*
X209375*
X193270Y2571580*
X182532Y2560843*
Y2550106*
X187900Y2539370*
X193270Y2534000*
X204006Y2526842*
X236218Y2516105*
X246955Y2510736*
X252323Y2505368*
X257692Y2494631*
Y2476735*
X246955Y2465998*
X230850Y2460630*
X209375*
X193270Y2465998*
X182532Y2476735*
X286325Y2521475D02*
X361485D01*
X286325Y2578740D02*
Y2460630D01*
X361485Y2578740D02*
Y2460630D01*
X390117Y2555475D02*
X397275Y2560843D01*
X406223Y2576950*
Y2460630*
X467067Y2576950D02*
X450961Y2571580D01*
X440225Y2555475*
X434855Y2526842*
Y2510736*
X440225Y2482105*
X450961Y2465998*
X467067Y2460630*
X477805*
X493910Y2465998*
X504647Y2482105*
X510015Y2510736*
Y2526842*
X504647Y2555475*
X493910Y2571580*
X477805Y2576950*
X467067*
X570860D02*
X554753Y2571580D01*
X544016Y2555475*
X538648Y2526842*
Y2510736*
X544016Y2482105*
X554753Y2465998*
X570860Y2460630*
X581596*
X597702Y2465998*
X608440Y2482105*
X613808Y2510736*
Y2526842*
X608440Y2555475*
X597702Y2571580*
X581596Y2576950*
X570860*
X674652D02*
X658546Y2571580D01*
X647810Y2555475*
X642440Y2526842*
Y2510736*
X647810Y2482105*
X658546Y2465998*
X674652Y2460630*
X685390*
X701495Y2465998*
X712232Y2482105*
X717600Y2510736*
Y2526842*
X712232Y2555475*
X701495Y2571580*
X685390Y2576950*
X674652*
X778445D02*
X762340Y2571580D01*
X751602Y2555475*
X746233Y2526842*
Y2510736*
X751602Y2482105*
X762340Y2465998*
X778445Y2460630*
X789182*
X805287Y2465998*
X816025Y2482105*
X821393Y2510736*
Y2526842*
X816025Y2555475*
X805287Y2571580*
X789182Y2576950*
X778445*
X919817Y2560843D02*
X914450Y2571580D01*
X896553Y2576950*
X884027*
X866131Y2571580*
X855395Y2555475*
X850026Y2526842*
Y2500000*
X855395Y2476735*
X866131Y2465998*
X884027Y2460630*
X889395*
X907290Y2465998*
X919817Y2476735*
X925186Y2492841*
Y2500000*
X919817Y2516105*
X907290Y2526842*
X889395Y2532211*
X884027*
X866131Y2526842*
X855395Y2516105*
X850026Y2500000*
X1018241Y2576950D02*
X964555D01*
X959187Y2526842*
X964555Y2532211*
X980661Y2537580*
X996767*
X1012873Y2532211*
X1023610Y2521475*
X1028978Y2505368*
Y2492841*
X1023610Y2476735*
X1012873Y2465998*
X996767Y2460630*
X980661*
X964555Y2465998*
X959187Y2471367*
X953818Y2482105*
X1107718Y2576950D02*
Y2460630D01*
Y2576950D02*
X1057611Y2500000D01*
X1132771*
X1190036Y2460630D02*
Y2578740D01*
X1238353*
X1254460Y2571580*
X1259827Y2566212*
X1265196Y2555475*
Y2544737*
X1259827Y2534000*
X1254460Y2526842*
X1238353Y2521475*
X1190036*
X1227616D02*
X1265196Y2460630D01*
X1326040Y2576950D02*
X1309935Y2571580D01*
X1299197Y2555475*
X1293828Y2526842*
Y2510736*
X1299197Y2482105*
X1309935Y2465998*
X1326040Y2460630*
X1336777*
X1352883Y2465998*
X1363620Y2482105*
X1368990Y2510736*
Y2526842*
X1363620Y2555475*
X1352883Y2571580*
X1336777Y2576950*
X1326040*
G54D12*
X685040Y1579573D02*
Y1604626D01*
Y1592100D02*
X724408D01*
X685040Y1614170D02*
X724408Y1639222D01*
X685040D02*
X724408Y1614170D01*
X685040Y2011807D02*
X724408Y2036860D01*
X685040D02*
X724408Y2011807D01*
X685636Y1482940D02*
X724408D01*
X685636D02*
X711285Y1466240D01*
Y1491291*
X685636Y1509783D02*
X687425Y1504415D01*
X691005Y1502625*
X694583*
X698758Y1504415*
X700548Y1507993*
X702337Y1515151*
X704127Y1520520*
X707706Y1524100*
X711285Y1525888*
X717250*
X720830Y1524100*
X722618Y1522310*
X724408Y1516941*
Y1509783*
X722618Y1504415*
X720830Y1502625*
X717250Y1500835*
X711285*
X707706Y1502625*
X704127Y1506205*
X702337Y1511572*
X700548Y1518730*
X698758Y1522310*
X694583Y1524100*
X691005*
X687425Y1522310*
X685636Y1516941*
Y1509783*
Y1556906D02*
Y1539011D01*
X702337Y1537222*
X700548Y1539011*
X698758Y1544380*
Y1549748*
X700548Y1555116*
X704127Y1558695*
X709495Y1560485*
X713671*
X719040Y1558695*
X722618Y1555116*
X724408Y1549748*
Y1544380*
X722618Y1539011*
X720830Y1537222*
X717250Y1535432*
X685636Y1880578D02*
X724408D01*
X685636D02*
X711285Y1863876D01*
Y1888930*
X685636Y1907421D02*
X687425Y1902052D01*
X691005Y1900263*
X694583*
X698758Y1902052*
X700548Y1905631*
X702337Y1912790*
X704127Y1918157*
X707706Y1921736*
X711285Y1923526*
X717250*
X720830Y1921736*
X722618Y1919947*
X724408Y1914580*
Y1907421*
X722618Y1902052*
X720830Y1900263*
X717250Y1898473*
X711285*
X707706Y1900263*
X704127Y1903842*
X702337Y1909210*
X700548Y1916368*
X698758Y1919947*
X694583Y1921736*
X691005*
X687425Y1919947*
X685636Y1914580*
Y1907421*
Y1954545D02*
Y1936650D01*
X702337Y1934860*
X700548Y1936650*
X698758Y1942017*
Y1947386*
X700548Y1952755*
X704127Y1956333*
X709495Y1958123*
X713671*
X719040Y1956333*
X722618Y1952755*
X724408Y1947386*
Y1942017*
X722618Y1936650*
X720830Y1934860*
X717250Y1933070*
X691005Y1456695D02*
X687425Y1453116D01*
X685040Y1447747*
Y1440590*
X687425Y1435221*
X691005Y1431642*
X694583*
X698162Y1433431*
X699951Y1435221*
X702337Y1438800*
X705916Y1449537*
X707706Y1453116*
X709495Y1454905*
X713075Y1456695*
X719040*
X722618Y1453116*
X724408Y1447747*
Y1440590*
X722618Y1435221*
X719040Y1431642*
X691005Y1854332D02*
X687425Y1850753D01*
X685040Y1845385*
Y1838227*
X687425Y1832860*
X691005Y1829280*
X694583*
X698162Y1831070*
X699951Y1832860*
X702337Y1836437*
X705916Y1847175*
X707706Y1850753*
X709495Y1852543*
X713075Y1854332*
X719040*
X722618Y1850753*
X724408Y1845385*
Y1838227*
X722618Y1832860*
X719040Y1829280*
X704127Y1989737D02*
X724408Y2002263D01*
X704127Y1409571D02*
X724408Y1422098D01*
X704127Y1807210D02*
X724408Y1819736D01*
X707706Y1648766D02*
Y1673820D01*
Y2046405D02*
Y2071457D01*
X724408Y1977211D02*
X685040D01*
Y1993316*
X687425Y1998685*
X689215Y2000475*
X692793Y2002263*
X696372*
X699951Y2000475*
X702337Y1998685*
X704127Y1993316*
Y1977211*
X724408Y1397045D02*
X685040D01*
Y1413150*
X687425Y1418520*
X689215Y1420308*
X692793Y1422098*
X696372*
X699951Y1420308*
X702337Y1418520*
X704127Y1413150*
Y1397045*
X724408Y1794683D02*
X685040D01*
Y1810788*
X687425Y1816157*
X689215Y1817946*
X692793Y1819736*
X696372*
X699951Y1817946*
X702337Y1816157*
X704127Y1810788*
Y1794683*
X795275Y1579573D02*
Y1604626D01*
Y1592100D02*
X834645D01*
X795275Y1614170D02*
X834645Y1639222D01*
X795275D02*
X834645Y1614170D01*
X795275Y2007870D02*
X834645Y2032923D01*
X795275D02*
X834645Y2007870D01*
X795872Y1482940D02*
X821521Y1466240D01*
Y1491291*
X795872Y1482940D02*
X834645D01*
X795872Y1509783D02*
X797661Y1504415D01*
X801240Y1502625*
X804820*
X808995Y1504415*
X810785Y1507993*
X812575Y1515151*
X814363Y1520520*
X817942Y1524100*
X821521Y1525888*
X827486*
X831065Y1524100*
X832855Y1522310*
X834645Y1516941*
Y1509783*
X832855Y1504415*
X831065Y1502625*
X827486Y1500835*
X821521*
X817942Y1502625*
X814363Y1506205*
X812575Y1511572*
X810785Y1518730*
X808995Y1522310*
X804820Y1524100*
X801240*
X797661Y1522310*
X795872Y1516941*
Y1509783*
Y1556906D02*
Y1539011D01*
X812575Y1537222*
X810785Y1539011*
X808995Y1544380*
Y1549748*
X810785Y1555116*
X814363Y1558695*
X819732Y1560485*
X823907*
X829276Y1558695*
X832855Y1555116*
X834645Y1549748*
Y1544380*
X832855Y1539011*
X831065Y1537222*
X827486Y1535432*
X795872Y1876641D02*
X834645D01*
X795872D02*
X821521Y1859940D01*
Y1884992*
X795872Y1903485D02*
X797661Y1898115D01*
X801240Y1896326*
X804820*
X808995Y1898115*
X810785Y1901695*
X812575Y1908852*
X814363Y1914220*
X817942Y1917800*
X821521Y1919590*
X827486*
X831065Y1917800*
X832855Y1916010*
X834645Y1910642*
Y1903485*
X832855Y1898115*
X831065Y1896326*
X827486Y1894536*
X821521*
X817942Y1896326*
X814363Y1899905*
X812575Y1905273*
X810785Y1912431*
X808995Y1916010*
X804820Y1917800*
X801240*
X797661Y1916010*
X795872Y1910642*
Y1903485*
Y1950607D02*
Y1932712D01*
X812575Y1930922*
X810785Y1932712*
X808995Y1938080*
Y1943450*
X810785Y1948817*
X814363Y1952396*
X819732Y1954186*
X823907*
X829276Y1952396*
X832855Y1948817*
X834645Y1943450*
Y1938080*
X832855Y1932712*
X831065Y1930922*
X827486Y1929133*
X801240Y1661293D02*
X834645D01*
X801240Y2054993D02*
X834645D01*
X801240Y1456695D02*
X797661Y1453116D01*
X795275Y1447747*
Y1440590*
X797661Y1435221*
X801240Y1431642*
X804820*
X808398Y1433431*
X810188Y1435221*
X812575Y1438800*
X816153Y1449537*
X817942Y1453116*
X819732Y1454905*
X823311Y1456695*
X829276*
X832855Y1453116*
X834645Y1447747*
Y1440590*
X832855Y1435221*
X829276Y1431642*
X801240Y1850395D02*
X797661Y1846816D01*
X795275Y1841448*
Y1834290*
X797661Y1828922*
X801240Y1825343*
X804820*
X808398Y1827132*
X810188Y1828922*
X812575Y1832500*
X816153Y1843237*
X817942Y1846816*
X819732Y1848606*
X823311Y1850395*
X829276*
X832855Y1846816*
X834645Y1841448*
Y1834290*
X832855Y1828922*
X829276Y1825343*
X814363Y1985800D02*
X834645Y1998326D01*
X814363Y1409571D02*
X834645Y1422098D01*
X814363Y1803272D02*
X834645Y1815800D01*
X817942Y1648766D02*
Y1673820D01*
Y2042467D02*
Y2067520D01*
X834645Y1973275D02*
X795275D01*
Y1989380*
X797661Y1994747*
X799451Y1996537*
X803030Y1998326*
X806610*
X810188Y1996537*
X812575Y1994747*
X814363Y1989380*
Y1973275*
X834645Y1397045D02*
X795275D01*
Y1413150*
X797661Y1418520*
X799451Y1420308*
X803030Y1422098*
X806610*
X810188Y1420308*
X812575Y1418520*
X814363Y1413150*
Y1397045*
X834645Y1790746D02*
X795275D01*
Y1806851*
X797661Y1812220*
X799451Y1814010*
X803030Y1815800*
X806610*
X810188Y1814010*
X812575Y1812220*
X814363Y1806851*
Y1790746*
X980315Y1559175D02*
X1019683D01*
X980315Y1584227D02*
X1019683D01*
X980315Y1602718D02*
X982701Y1599735D01*
X986280Y1596753*
X989860Y1594963*
X995227Y1593770*
X1004771*
X1010140Y1594963*
X1014315Y1596753*
X1017895Y1599735*
X1019683Y1602718*
Y1609280*
X1017895Y1612262*
X1014315Y1615841*
X1010140Y1617035*
X1004771Y1618823*
X995227*
X989860Y1617035*
X986280Y1615841*
X982701Y1612262*
X980315Y1609280*
Y1602718*
Y1662965D02*
Y1688017D01*
Y1675490D02*
X1019683D01*
X980315Y1962895D02*
Y1937842D01*
X1019683*
Y1962895*
X980315Y1972440D02*
X1019683Y1984965D01*
X980315Y1997491*
Y2007035D02*
X1019683D01*
X980315Y2076230D02*
Y2051176D01*
X1019683*
Y2076230*
X980315Y1480436D02*
Y1492963D01*
X982701Y1498331*
X986280Y1501910*
X989860Y1503700*
X995227Y1505490*
X1004771*
X1010140Y1503700*
X1014315Y1501910*
X1017895Y1498331*
X1019683Y1492963*
Y1480436*
X980315*
Y1824508D02*
Y1837035D01*
X982701Y1842402*
X986280Y1845981*
X989860Y1847771*
X995227Y1849560*
X1004771*
X1010140Y1847771*
X1014315Y1845981*
X1017895Y1842402*
X1019683Y1837035*
Y1824508*
X980315*
Y1903245D02*
Y1915771D01*
X982701Y1921140*
X986280Y1924720*
X989860Y1926508*
X995227Y1928298*
X1004771*
X1010140Y1926508*
X1014315Y1924720*
X1017895Y1921140*
X1019683Y1915771*
Y1903245*
X980315*
X986280Y1653420D02*
X982701Y1649841D01*
X980315Y1644473*
Y1637315*
X982701Y1631946*
X986280Y1628367*
X989860*
X993438Y1630157*
X995227Y1631946*
X997613Y1635525*
X1001192Y1646262*
X1002981Y1649841*
X1004771Y1651630*
X1008350Y1653420*
X1014315*
X1017895Y1649841*
X1019683Y1644473*
Y1637315*
X1017895Y1631946*
X1014315Y1628367*
X986280Y1470892D02*
X982701Y1467313D01*
X980315Y1461945*
Y1454787*
X982701Y1449418*
X986280Y1445840*
X989860*
X993438Y1447630*
X995227Y1449418*
X997613Y1452997*
X1001192Y1463735*
X1002982Y1467313*
X1004771Y1469103*
X1008350Y1470892*
X1014315*
X1017895Y1467313*
X1019683Y1461945*
Y1454787*
X1017895Y1449418*
X1014315Y1445840*
X986280Y1814965D02*
X982701Y1811385D01*
X980315Y1806016*
Y1798858*
X982701Y1793490*
X986280Y1789911*
X989860*
X993438Y1791700*
X995227Y1793490*
X997613Y1797070*
X1001192Y1807806*
X1002982Y1811385*
X1004771Y1813175*
X1008350Y1814965*
X1014315*
X1017895Y1811385*
X1019683Y1806016*
Y1798858*
X1017895Y1793490*
X1014315Y1789911*
X989860Y2041632D02*
X986280Y2039843D01*
X982701Y2036265*
X980315Y2033281*
Y2026123*
X982701Y2023141*
X986280Y2019562*
X989860Y2017772*
X995227Y2016580*
X1004771*
X1010140Y2017772*
X1014315Y2019562*
X1017895Y2023141*
X1019683Y2026123*
Y2033281*
X1017895Y2036265*
X1014315Y2039843*
X1010140Y2041632*
X999402Y1559175D02*
Y1584227D01*
Y1937842D02*
Y1953351D01*
Y2051176D02*
Y2066685D01*
X1006560Y1519208D02*
Y1535910D01*
Y1863280D02*
Y1879982D01*
X1019683Y1515033D02*
X980315Y1527560D01*
X1019683Y1540086*
Y1859105D02*
X980315Y1871631D01*
X1019683Y1884157*
X1078740Y1962895D02*
Y1937842D01*
X1118110*
Y1962895*
X1078740Y1972440D02*
X1118110Y1984965D01*
X1078740Y1997491*
Y2007035D02*
X1118110D01*
X1078740Y2076230D02*
Y2051176D01*
X1118110*
Y2076230*
X1078740Y1859105D02*
X1118110D01*
Y1884157*
X1078740Y1903245D02*
Y1915771D01*
X1081126Y1921140*
X1084705Y1924720*
X1088285Y1926508*
X1093652Y1928298*
X1103196*
X1108565Y1926508*
X1112740Y1924720*
X1116320Y1921140*
X1118110Y1915771*
Y1903245*
X1078740*
X1082677Y1559175D02*
X1122046D01*
X1082677Y1584227D02*
X1122046D01*
X1082677Y1602718D02*
X1085063Y1599735D01*
X1088642Y1596753*
X1092221Y1594963*
X1097590Y1593770*
X1107133*
X1112502Y1594963*
X1116677Y1596753*
X1120256Y1599735*
X1122046Y1602718*
Y1609280*
X1120256Y1612262*
X1116677Y1615841*
X1112502Y1617035*
X1107133Y1618823*
X1097590*
X1092221Y1617035*
X1088642Y1615841*
X1085063Y1612262*
X1082677Y1609280*
Y1602718*
Y1662965D02*
Y1688017D01*
Y1675490D02*
X1122046D01*
X1082677Y1515033D02*
X1122046D01*
Y1540086*
X1084705Y1814965D02*
X1081126Y1811385D01*
X1078740Y1806016*
Y1798858*
X1081126Y1793490*
X1084705Y1789911*
X1088285*
X1091863Y1791700*
X1093652Y1793490*
X1096038Y1797070*
X1099617Y1807806*
X1101407Y1811385*
X1103196Y1813175*
X1106775Y1814965*
X1112740*
X1116320Y1811385*
X1118110Y1806016*
Y1798858*
X1116320Y1793490*
X1112740Y1789911*
X1088285Y2041632D02*
X1084705Y2039843D01*
X1081126Y2036265*
X1078740Y2033281*
Y2026123*
X1081126Y2023141*
X1084705Y2019562*
X1088285Y2017772*
X1093652Y2016580*
X1103196*
X1108565Y2017772*
X1112740Y2019562*
X1116320Y2023141*
X1118110Y2026123*
Y2033281*
X1116320Y2036265*
X1112740Y2039843*
X1108565Y2041632*
X1088285Y1849560D02*
X1084705Y1847771D01*
X1081126Y1844192*
X1078740Y1841210*
Y1834052*
X1081126Y1831070*
X1084705Y1827490*
X1088285Y1825701*
X1093652Y1824508*
X1103196*
X1108565Y1825701*
X1112740Y1827490*
X1116320Y1831070*
X1118110Y1834052*
Y1841210*
X1116320Y1844192*
X1112740Y1847771*
X1108565Y1849560*
X1088642Y1653420D02*
X1085063Y1649841D01*
X1082677Y1644473*
Y1637315*
X1085063Y1631946*
X1088642Y1628367*
X1092221*
X1095800Y1630157*
X1097590Y1631946*
X1099975Y1635525*
X1103555Y1646262*
X1105345Y1649841*
X1107133Y1651630*
X1110712Y1653420*
X1116677*
X1120256Y1649841*
X1122046Y1644473*
Y1637315*
X1120256Y1631946*
X1116677Y1628367*
X1088642Y1470892D02*
X1085063Y1467313D01*
X1082677Y1461945*
Y1454787*
X1085063Y1449418*
X1088642Y1445840*
X1092221*
X1095800Y1447630*
X1097590Y1449418*
X1099975Y1452997*
X1103555Y1463735*
X1105345Y1467313*
X1107133Y1469103*
X1110712Y1470892*
X1116677*
X1120256Y1467313*
X1122046Y1461945*
Y1454787*
X1120256Y1449418*
X1116677Y1445840*
X1092221Y1505490D02*
X1088642Y1503700D01*
X1085063Y1500121*
X1082677Y1497138*
Y1489980*
X1085063Y1486998*
X1088642Y1483420*
X1092221Y1481630*
X1097590Y1480436*
X1107133*
X1112502Y1481630*
X1116677Y1483420*
X1120256Y1486998*
X1122046Y1489980*
Y1497138*
X1120256Y1500121*
X1116677Y1503700*
X1112502Y1505490*
X1097828Y1937842D02*
Y1953351D01*
Y2051176D02*
Y2066685D01*
X1101765Y1559175D02*
Y1584227D01*
G54D13*
X1588525Y608565D02*
Y610355D01*
X1590313Y613935*
X1592103Y615723*
X1595682Y618110*
X1602840*
X1606420Y615723*
X1608208Y613935*
X1609997Y610355*
Y606776*
X1608208Y603197*
X1604630Y597232*
X1586735Y578740*
X1611787*
X1621331Y618110D02*
X1633857Y578740D01*
X1646385Y618110*
X1677402Y617513D02*
X1659507D01*
X1657717Y600811*
X1659507Y602600*
X1664875Y604390*
X1670245*
X1675612Y602600*
X1679191Y599021*
X1680980Y593653*
Y589477*
X1679191Y584110*
X1675612Y580530*
X1670245Y578740*
X1664875*
X1659507Y580530*
X1657717Y582320*
X1655928Y585898*
X2304700Y470770D02*
X2302911Y474350D01*
X2299332Y477928*
X2296350Y480315*
X2289191*
X2286210Y477928*
X2282630Y474350*
X2280840Y470770*
X2279648Y465402*
Y455858*
X2280840Y450490*
X2282630Y446315*
X2286210Y442735*
X2289191Y440945*
X2296350*
X2299332Y442735*
X2302911Y446315*
X2304700Y450490*
Y455858*
X2296350*
X2314245Y440945D02*
Y480315D01*
X2339297Y440945*
Y480315*
X2348841D02*
X2361368D01*
X2366736Y477928*
X2370315Y474350*
X2372105Y470770*
X2373895Y465402*
Y455858*
X2372105Y450490*
X2370315Y446315*
X2366736Y442735*
X2361368Y440945*
X2348841*
Y480315*
X3364952Y924600D02*
X3347058D01*
X3345268Y907897*
X3347058Y909687*
X3352426Y911476*
X3357795*
X3363163Y909687*
X3366742Y906108*
X3368531Y900740*
Y896565*
X3366742Y891196*
X3363163Y887617*
X3357795Y885827*
X3352426*
X3347058Y887617*
X3345268Y889406*
X3343480Y892985*
X3378075Y925196D02*
X3390602Y885827D01*
X3403128Y925196*
X3447270Y919231D02*
X3443690Y922810D01*
X3438322Y925196*
X3431163*
X3425795Y922810*
X3422216Y919231*
Y915652*
X3424006Y912073*
X3425795Y910283*
X3429375Y907897*
X3440111Y904320*
X3443690Y902530*
X3445480Y900740*
X3447270Y897161*
Y891196*
X3443690Y887617*
X3438322Y885827*
X3431163*
X3425795Y887617*
X3422216Y891196*
X3465760Y925196D02*
X3462778Y922810D01*
X3459795Y919231*
X3458006Y915652*
X3456813Y910283*
Y900740*
X3458006Y895371*
X3459795Y891196*
X3462778Y887617*
X3465760Y885827*
X3472322*
X3475305Y887617*
X3478883Y891196*
X3480076Y895371*
X3481866Y900740*
Y910283*
X3480076Y915652*
X3478883Y919231*
X3475305Y922810*
X3472322Y925196*
X3465760*
X3491410D02*
Y885827D01*
X3516462*
X3526006Y906108D02*
X3541515D01*
X3551060Y925196D02*
X3526006D01*
Y885827*
X3551060*
X3560603D02*
Y925196D01*
X3585656Y885827*
Y925196*
X3604147D02*
X3601165Y922810D01*
X3598182Y919231*
X3596393Y915652*
X3595200Y910283*
Y900740*
X3596393Y895371*
X3598182Y891196*
X3601165Y887617*
X3604147Y885827*
X3610710*
X3613691Y887617*
X3617270Y891196*
X3618463Y895371*
X3620253Y900740*
Y910283*
X3618463Y915652*
X3617270Y919231*
X3613691Y922810*
X3610710Y925196*
X3604147*
X3629797D02*
Y885827D01*
X3639341Y925196D02*
X3651867D01*
X3657236Y922810*
X3660815Y919231*
X3662605Y915652*
X3664393Y910283*
Y900740*
X3662605Y895371*
X3660815Y891196*
X3657236Y887617*
X3651867Y885827*
X3639341*
Y925196*
X4440467Y2463970D02*
X4422572D01*
X4420783Y2447268*
X4422572Y2449057*
X4427940Y2450846*
X4433310*
X4438677Y2449057*
X4442256Y2445478*
X4444046Y2440110*
Y2435935*
X4442256Y2430566*
X4438677Y2426987*
X4433310Y2425197*
X4427940*
X4422572Y2426987*
X4420783Y2428776*
X4418993Y2432355*
X4453590Y2464566D02*
X4466116Y2425197D01*
X4478643Y2464566*
G54D14*
X697835Y1727361D02*
Y1737205D01*
X719487Y1727361D02*
Y1737205D01*
X806805Y1733091D02*
Y1742935D01*
X828458Y1733091D02*
Y1742935D01*
X993110Y1727361D02*
Y1737205D01*
X1014763Y1727361D02*
Y1737205D01*
X1091535Y1727361D02*
Y1737205D01*
X1113188Y1727361D02*
Y1737205D01*
X1601213Y759588D02*
X1616245D01*
X1608728D02*
Y735970D01*
X1621970D02*
Y759588D01*
X1631632*
X1634853Y758157*
X1635927Y757083*
X1637000Y754936*
Y751715*
X1635927Y749210*
X1634853Y748136*
X1631632Y747063*
X1621970*
X1642726Y754936D02*
X1644158Y756010D01*
X1645947Y759230*
Y735970*
X1665630Y756010D02*
X1664557Y758157D01*
X1660978Y759230*
X1658473*
X1654895Y758157*
X1652747Y754936*
X1651673Y749210*
Y743842*
X1652747Y739190*
X1654895Y737042*
X1658473Y735970*
X1659546*
X1663125Y737042*
X1665630Y739190*
X1666705Y742410*
Y743842*
X1665630Y747063*
X1663125Y749210*
X1659546Y750283*
X1658473*
X1654895Y749210*
X1652747Y747063*
X1651673Y743842*
X2291205Y631960D02*
X2306235D01*
X2298720D02*
Y608340D01*
X2311961D02*
Y631960D01*
X2321625*
X2324845Y630528*
X2325918Y629455*
X2326992Y627307*
Y624086*
X2325918Y621581*
X2324845Y620508*
X2321625Y619435*
X2311961*
X2332718Y627307D02*
X2334150Y628381D01*
X2335940Y631602*
Y608340*
X2351685Y631602D02*
X2341665Y616213D01*
X2356695*
X2351685Y631602D02*
Y608340D01*
X3471790Y1066305D02*
X3486820D01*
X3479305D02*
Y1042685D01*
X3492546D02*
Y1066305D01*
X3502210*
X3505430Y1064873*
X3506503Y1063800*
X3507577Y1061652*
Y1058432*
X3506503Y1055926*
X3505430Y1054853*
X3502210Y1053780*
X3492546*
X3513303Y1061652D02*
X3514735Y1062726D01*
X3516525Y1065947*
Y1042685*
X3522250Y1065947D02*
X3537281D01*
X3526545Y1042685*
X4416075Y2617460D02*
X4431106D01*
X4423590D02*
Y2593840D01*
X4436832D02*
Y2617460D01*
X4446495*
X4449716Y2616027*
X4450790Y2614953*
X4451863Y2612806*
Y2609585*
X4450790Y2607080*
X4449716Y2606007*
X4446495Y2604933*
X4436832*
X4457590Y2612806D02*
X4459020Y2613880D01*
X4460810Y2617101*
Y2593840*
X4479420Y2617101D02*
X4468683D01*
X4467610Y2607080*
X4468683Y2608155*
X4471905Y2609227*
X4475125*
X4478345Y2608155*
X4480493Y2606007*
X4481566Y2602786*
Y2600281*
X4480493Y2597060*
X4478345Y2594912*
X4475125Y2593840*
X4471905*
X4468683Y2594912*
X4467610Y2595986*
X4466535Y2598133*
X5662991Y2510571D02*
Y2611475D01*
Y2510571*
X5666928Y219233D02*
Y320135D01*
Y219233*
Y969233D02*
Y1070135D01*
Y969233*
Y1760571D02*
Y1861475D01*
Y1760571*
X6540945Y2330708D02*
Y2330707D01*
X6414960*
Y2293306*
X6184897*
X5662991Y2330981*
Y2330982*
Y2411475*
Y2330982*
X6184897Y2293306*
X6414960*
Y2330708*
X6414960*
X6540945*
Y2791337*
X6414960*
X6414960Y2791338*
Y2828740*
X6184897*
X5662991Y2791063*
Y2710571*
Y2791065*
X6184897Y2828740*
X6414960*
Y2791338*
X6540945*
Y2330708*
X6544881Y39370D02*
X6418897D01*
Y1968*
Y1967*
X6188835*
X5666928Y39643*
Y120135*
Y39643*
X6188835Y1968*
X6418896*
Y39370*
X6418897*
X6544881*
Y500000*
X6418897*
X6418896*
Y537400*
X6188835*
X5666928Y499725*
Y419233*
Y499725*
X6188835Y537401*
X6418897*
Y500000*
X6544881*
Y39370*
Y789370D02*
X6418897D01*
Y751968*
Y751967*
X6188835*
X5666928Y789643*
Y870135*
Y789643*
X6188835Y751968*
X6418896*
Y789370*
X6418897*
X6544881*
Y1250000*
X6418897*
X6418896*
Y1287400*
X6188835*
X5666928Y1249725*
Y1169233*
Y1249725*
X6188835Y1287401*
X6418897*
Y1250000*
X6544881*
Y789370*
Y1580708D02*
Y1580707D01*
X6418897*
Y1543306*
X6188835*
X5666928Y1580981*
Y1580982*
Y1661475*
Y1580982*
X6188835Y1543306*
X6418896*
Y1580708*
X6418897*
X6544881*
Y2041337*
X6418897*
X6418896Y2041338*
Y2078740*
X6188835*
X5666928Y2041063*
Y1960571*
Y2041065*
X6188835Y2078740*
X6418897*
Y2041338*
X6544881*
Y1580708*
G54D15*
X0Y0D02*
X6456692D01*
Y2834645*
X0*
Y0*
X666851Y1760555D02*
X690470D01*
Y1750892*
X689040Y1747671*
X687965Y1746597*
X685818Y1745525*
X683671*
X681523Y1746597*
X680092Y1747671*
X679018Y1750892*
Y1760555*
Y1753040D02*
X666851Y1745525D01*
X690112Y1706158D02*
Y1716895D01*
X680092Y1717968*
X681166Y1716895*
X682240Y1713673*
Y1710452*
X681166Y1707231*
X679018Y1705085*
X675797Y1704010*
X673292*
X670071Y1705085*
X667925Y1707231*
X666851Y1710452*
Y1713673*
X667925Y1716895*
X668998Y1717968*
X671145Y1719041*
X690112Y1729777D02*
X666851D01*
X690112D02*
X674725Y1739798D01*
Y1724767*
X775822Y1766285D02*
X799441D01*
Y1756622*
X798010Y1753401*
X796936Y1752327*
X794790Y1751255*
X792642*
X790495Y1752327*
X789063Y1753401*
X787990Y1756622*
Y1766285*
Y1758770D02*
X775822Y1751255D01*
X795863Y1710815D02*
X798010Y1711888D01*
X799085Y1715466*
Y1717971*
X798010Y1721550*
X794790Y1723697*
X789063Y1724771*
X783695*
X779043Y1723697*
X776895Y1721550*
X775822Y1717971*
Y1716898*
X776895Y1713320*
X779043Y1710815*
X782263Y1709740*
X783695*
X786916Y1710815*
X789063Y1713320*
X790137Y1716898*
Y1717971*
X789063Y1721550*
X786916Y1723697*
X783695Y1724771*
X799085Y1735507D02*
X783695Y1745528D01*
Y1730497*
X799085Y1735507D02*
X775822D01*
X962126Y1760555D02*
X985746D01*
Y1750892*
X984315Y1747671*
X983241Y1746597*
X981093Y1745525*
X978946*
X976800Y1746597*
X975368Y1747671*
X974295Y1750892*
Y1760555*
Y1753040D02*
X962126Y1745525D01*
X985388Y1719041D02*
Y1704010D01*
X962126Y1714747*
X985388Y1729777D02*
X962126D01*
X985388D02*
X970000Y1739798D01*
Y1724767*
X1060551Y1760555D02*
X1084171D01*
Y1750892*
X1082740Y1747671*
X1081666Y1746597*
X1079520Y1745525*
X1077371*
X1075225Y1746597*
X1073793Y1747671*
X1072720Y1750892*
Y1760555*
Y1753040D02*
X1060551Y1745525D01*
X1083813Y1713673D02*
X1082740Y1716895D01*
X1080592Y1717968*
X1078445*
X1075940Y1716895*
X1074866Y1714747*
X1073793Y1710452*
X1072720Y1707231*
X1070572Y1705085*
X1068425Y1704010*
X1064846*
X1062700Y1705085*
X1061625Y1706158*
X1060551Y1709380*
Y1713673*
X1061625Y1716895*
X1062700Y1717968*
X1064846Y1719041*
X1068425*
X1070572Y1717968*
X1072720Y1715820*
X1073793Y1712600*
X1074866Y1708305*
X1075940Y1706158*
X1078445Y1705085*
X1080592*
X1082740Y1706158*
X1083813Y1709380*
Y1713673*
Y1729777D02*
X1060551D01*
X1083813D02*
X1068425Y1739798D01*
Y1724767*
X5322357Y2545275D02*
Y2576770D01*
X5335242*
X5339537Y2574862*
X5340968Y2573430*
X5342400Y2570567*
Y2566272*
X5340968Y2562932*
X5339537Y2561500*
X5335242Y2560068*
X5322357*
X5326295Y1003936D02*
Y1035432D01*
X5339180*
X5343475Y1033523*
X5344905Y1032091*
X5346337Y1029228*
Y1024933*
X5344905Y1021593*
X5343475Y1020161*
X5339180Y1018730*
X5326295*
Y1795275D02*
Y1826770D01*
X5339180*
X5343475Y1824862*
X5344905Y1823430*
X5346337Y1820567*
Y1816272*
X5344905Y1812932*
X5343475Y1811500*
X5339180Y1810068*
X5326295*
X5342042Y253936D02*
Y285432D01*
X5354927*
X5359222Y283523*
X5360653Y282091*
X5362085Y279228*
Y274933*
X5360653Y271593*
X5359222Y270161*
X5354927Y268730*
X5342042*
X5355405Y1027796D02*
Y1029228D01*
X5356836Y1032091*
X5358267Y1033523*
X5361130Y1035432*
X5366857*
X5369720Y1033523*
X5371152Y1032091*
X5372583Y1029228*
Y1026365*
X5371152Y1023502*
X5368288Y1018730*
X5353972Y1003936*
X5374015*
X5356836Y1826293D02*
X5372583D01*
X5363993Y1814363*
X5368288*
X5371152Y1812932*
X5372583Y1811500*
X5374015Y1807205*
Y1803865*
X5372583Y1799570*
X5369720Y1796707*
X5365425Y1795275*
X5361130*
X5356836Y1796707*
X5355405Y1798138*
X5353972Y1801001*
X5363397Y2576293D02*
Y2545275D01*
Y2576293D02*
X5350035Y2555773D01*
X5370078*
X5369720Y279228D02*
X5371630Y280660D01*
X5374015Y284955*
Y253936*
M02*
