; Version : LOCAL
; Job     : C:\PADS_WDIR\PADSProVX.2.14.1\PCCD\207cd633-8e29-413e-93b2-d20470c3fcf6\PCB\Board1.pcb
; User    : ESHARP-MTRO_1:MartinTrob‰ck
; Date    : Fri Feb 20 18:07:45 2026
; Format  : 3.3 / Absolute / MM / Leading
; Contents: Thru / Drill / Plated
M48
METRIC,TZ
FMAT,2
ICI,OFF
T02C0.300
T01C1.600
%
M71
G90
G93X0Y0
T02
X142500Y900
X131500Y1400
X111700Y1000
X97000
X82500
X63000
X42000
X19500
X1200Y3200
X5500Y4000
X84000Y4500
X104500Y4700
X124600Y4800
X150000Y4500
X157000
X161500Y6000
X146200Y6200
X135700Y5900
X58600Y7300
X45000Y5600
X41500Y5500
X40000
X37200Y6300
X5500Y7400
X4000Y8500
X5500Y9000
X37000
X51000Y8500
X56100Y9400
X61100Y9300
X66300
X73000Y8500
X75600Y9000
X110500
X162000Y8600
Y11100
X145500Y12300
X114500Y10500
X101800Y10800
X86100Y11700
X76000Y10900
X41500Y11000
X40000
X34200Y12800
X45000Y13000
X97200Y13800
X99500Y15000
X117500Y13500
X145800Y14000
X161800Y14800
X162000Y13500
Y16200
X145000Y16500
X116000Y16000
X113500Y15500
X107000
X94300Y15700
X81000Y15300
X31000Y15700
X10500Y16400
X7600Y16900
X4100Y16400
X1000Y17000
X27000Y20100
X30400Y19000
X41500Y20000
X54900Y19200
X56800Y19100
X57600Y20100
X119100Y19200
X119500Y18000
X137000Y18500
X145000Y19000
X162000Y18800
Y21300
X146000Y21500
X136400Y21600
X103000Y21000
X101200Y20900
X94500Y21000
X93100
X89000
X45000Y22000
X36500Y21000
X31900Y20700
X25700Y20800
X5000Y20500
X39600Y23300
X41500Y23200
X75400Y23000
X84000Y25200
X108300Y24000
X112500Y23000
X118500Y23500
X135900Y23400
X161900Y25300
X162000Y23900
Y26400
X146400Y27200
X145400Y26200
X136100Y27300
X120500Y26500
X116000Y27500
X113500Y26500
X99800
X94500
X82500
X76000Y27000
X27200Y26400
X12400
X1000Y29000
X5000
X39500
X41500
X114500Y29500
X117500Y28500
X137000Y30600
X135000Y31500
X118500Y32000
X57500
X55000
X52500Y31200
X50000Y32000
X45000
X36500Y31500
X26500
X8800
X5500Y35000
X7000Y34500
X9000Y35500
X29400Y33500
X32100
X35600Y34600
X89000Y34300
X97200
X101200Y34500
X103000
X111800Y34400
X131500Y34200
X159900
X134100Y36300
X120500Y37500
X109600Y36500
X106900Y36600
X95600Y36800
X70600Y36900
X67600Y37800
X65000Y38000
X62500
X60000
X57500
X55000
X52500
X45900Y37100
X31500Y37400
X14100Y36700
X11500Y39000
X14000
X16500
X18100Y38400
X20600
X23200
X25600
X29000Y38300
X41500Y39500
X50000Y38500
X75000Y40000
X87200Y38900
X100500Y39000
X104500Y38400
X113000Y38500
X131000Y40000
X136100Y39100
X161100Y43000
X157100Y41600
X150000Y41700
X146700Y43100
X135200Y43000
X131400Y41200
X124400Y41300
X120100Y43100
X102500Y41500
X90800Y43100
X89000Y41500
X78400Y41300
X45000Y41500
X42000Y42500
X39000Y41500
X36500Y43000
X5500Y41500
X1000Y41000
X5000Y44000
X6500Y44100
X13500
X23700
X52400Y44300
X62600
X74500Y44500
X89000Y45000
X97000Y43500
X99500Y45000
X105300Y43300
X110500Y44200
X146000Y45500
X162500
Y48000
X161800Y46800
X146000Y48000
X78200Y47400
X42000Y46000
X39000Y47000
X5000Y48500
X18000Y49506
X20620Y49702
X25700Y49964
X28300Y49500
X37000Y50300
X91800Y49900
X93100Y50000
X100500
X114000
X162500Y50500
X146400Y52800
X145500Y51000
X108200Y51200
X89900Y51400
X28500Y53000
X21000
X1000Y52000
X12500Y54000
X13500Y55000
X15000
X16500
X67500Y55300
X85200Y55700
X88500
X94600Y55600
X99800Y55700
X108000
X115000
X145500Y55500
X162500Y53500
Y56000
Y58000
X146000Y57500
X36100Y57600
X10500Y59000
X88500Y59500
X98400
X110100Y59600
X146000Y60900
X161500Y59500
X162500Y61000
X118900Y63000
X101600Y62800
X90000Y61500
X88500Y62000
X87200Y62400
X86100Y63200
X84000Y63300
X1000Y61500
X81000Y65600
X82500Y64500
X162500Y63500
X117400Y66800
X113000Y66900
X103100Y67000
X89100Y66700
X1000Y71000
X28000
X45900
X66900
X95500Y70900
X135100
X146800Y69400
X153300Y70900
X157000Y70200
X161300Y70700
T01
X138960Y4310
X144040
X138960Y9390
X144040
X138960Y23360
X144040
X138960Y28440
X144040
X138960Y43460
X144040
X138960Y48540
X144040
X143940Y62510
X138860
X143940Y67590
X138860
T00
M30
