*
G04 Job   : C:\Users\MartinJohansson\OneDrive - E-Sharp AB\DesignLabs\PLM\Projects\ELECTRONICS\Sparrow_Fixture_Electronics\Sparrow_FE_R3\PCB\sparrow_fixture.pcb*
G04 User  : ESHARP-MARTIN:MartinJohansson*
G04 Layer : Maskbottom.gbs*
G04 Date  : Mon Dec 22 10:50:30 2025*
G04 Soldermask bottom*
%ICAS*%
%MOMM*%
%FSLAX24Y24*%
%OFA0.0000B0.0000*%
G90*
G74*
%AMVB_RECTANGLE*
21,1,$1,$2,0,0,$3*
%
%ADD70C,0.90000*%
%ADD12C,1.00000*%
%ADD10C,1.55000*%
%ADD71C,1.60000*%
%ADD20C,1.65000*%
%ADD11C,3.40000*%
%ADD15C,6.35000*%
%ADD21O,3.95000X1.85000*%
%ADD13VB_RECTANGLE,0.65000X0.95000X0.00000*%
%ADD16VB_RECTANGLE,0.85000X1.05000X0.00000*%
%ADD19VB_RECTANGLE,0.85000X1.05000X270.00000*%
%ADD14VB_RECTANGLE,1.65000X1.15000X0.00000*%
%ADD17VB_RECTANGLE,1.70000X0.45000X270.00000*%
%ADD18VB_RECTANGLE,2.90000X1.35000X270.00000*%
G01*
G54D10*
X-66000Y-66000D03*
Y866000D03*
X87500Y22500D03*
Y777500D03*
X1312500Y22500D03*
X1370000Y700000D03*
X1466000Y-66000D03*
X1486000Y886000D03*
G54D11*
X40000Y40000D03*
Y760000D03*
X1360000Y40000D03*
Y760000D03*
G54D12*
X0Y82000D03*
Y91000D03*
Y100000D03*
Y109000D03*
Y118000D03*
Y682000D03*
Y691000D03*
Y700000D03*
Y709000D03*
Y718000D03*
X382000Y0D03*
Y800000D03*
X391000Y0D03*
Y800000D03*
X400000Y0D03*
Y800000D03*
X409000Y0D03*
Y800000D03*
X418000Y0D03*
Y800000D03*
X982000Y0D03*
Y800000D03*
X991000Y0D03*
Y800000D03*
X1000000Y0D03*
Y800000D03*
X1009000Y0D03*
Y800000D03*
X1018000Y0D03*
Y800000D03*
X1400000Y82000D03*
Y91000D03*
Y100000D03*
Y109000D03*
Y118000D03*
Y682000D03*
Y691000D03*
Y700000D03*
Y709000D03*
Y718000D03*
G54D13*
X376000Y24500D03*
X384000D03*
G54D14*
X362500Y20000D03*
X397500D03*
G54D15*
X171000Y227500D03*
Y627500D03*
X450000Y629000D03*
X850000D03*
X1010000Y287500D03*
Y542500D03*
G54D16*
X233000Y62500D03*
X242500Y42500D03*
X245500Y127500D03*
X252000Y62500D03*
X255000Y147500D03*
X264500Y127500D03*
X303000D03*
X312500Y147500D03*
X315500Y62500D03*
X322000Y127500D03*
X325000Y42500D03*
X334500Y62500D03*
X370500D03*
X373000Y127500D03*
X380000Y42500D03*
X382500Y147500D03*
X389500Y62500D03*
X392000Y127500D03*
X413000Y62500D03*
X422500Y42500D03*
X432000Y62500D03*
X453000D03*
X462500Y42500D03*
X472000Y62500D03*
X505500Y212500D03*
X515000Y232500D03*
X524500Y212500D03*
X723000Y182500D03*
X732500Y202500D03*
X742000Y182500D03*
G54D17*
X557500Y260000D03*
X560000Y335500D03*
X562500Y260000D03*
X565000Y335500D03*
X567500Y260000D03*
X570000Y335500D03*
X572500Y260000D03*
X575000Y335500D03*
X577500Y260000D03*
X580000Y335500D03*
X582500Y260000D03*
X585000Y335500D03*
X587500Y260000D03*
X590000Y335500D03*
X592500Y260000D03*
X595000Y335500D03*
X597500Y260000D03*
X600000Y335500D03*
X602500Y260000D03*
X605000Y335500D03*
X607500Y260000D03*
X610000Y335500D03*
X612500Y260000D03*
X635000Y335500D03*
X637500Y260000D03*
X640000Y335500D03*
X642500Y260000D03*
X645000Y335500D03*
X647500Y260000D03*
X650000Y335500D03*
X652500Y260000D03*
X655000Y335500D03*
X657500Y260000D03*
X660000Y335500D03*
X662500Y260000D03*
X665000Y335500D03*
X667500Y260000D03*
X670000Y335500D03*
X672500Y260000D03*
X675000Y335500D03*
X677500Y260000D03*
X680000Y335500D03*
X682500Y260000D03*
X685000Y335500D03*
X687500Y260000D03*
X690000Y335500D03*
X692500Y260000D03*
X695000Y335500D03*
X697500Y260000D03*
X700000Y335500D03*
X702500Y260000D03*
X705000Y335500D03*
X707500Y260000D03*
X710000Y335500D03*
X712500Y260000D03*
X715000Y335500D03*
X717500Y260000D03*
X720000Y335500D03*
X722500Y260000D03*
X725000Y335500D03*
X727500Y260000D03*
X730000Y335500D03*
X732500Y260000D03*
X735000Y335500D03*
X737500Y260000D03*
X740000Y335500D03*
X742500Y260000D03*
G54D18*
X546500Y267750D03*
X753500D03*
G54D19*
X740000Y148000D03*
Y167000D03*
X760000Y157500D03*
X782500Y72500D03*
X792500Y300000D03*
X802500Y63000D03*
Y82000D03*
X812500Y290500D03*
Y309500D03*
X922500Y63000D03*
Y82000D03*
X942500Y72500D03*
G54D20*
X213860Y109224D03*
X227705Y80774D03*
X241550Y109224D03*
X255395Y80774D03*
X269240Y109224D03*
X283085Y80774D03*
X296930Y109224D03*
X310775Y80774D03*
X324620Y109224D03*
X338465Y80774D03*
X352310Y109224D03*
X366155Y80774D03*
X380000Y109224D03*
X393845Y80774D03*
X407690Y109224D03*
X421535Y80774D03*
X435380Y109224D03*
X449225Y80774D03*
X463070Y109224D03*
X476915Y80774D03*
X490760Y109224D03*
X504605Y80774D03*
X518450Y109224D03*
X532295Y80774D03*
X546140Y109224D03*
X807120D03*
X820965Y80774D03*
X834810Y109224D03*
X848655Y80774D03*
X862500Y109224D03*
X876345Y80774D03*
X890190Y109224D03*
X904035Y80774D03*
X917880Y109224D03*
G54D21*
X144800Y95000D03*
X615200D03*
X737550D03*
X987450D03*
G54D70*
X1112000Y16800D03*
Y39300D03*
X1131750Y28000D03*
X1258250D03*
X1278000Y16800D03*
Y39300D03*
G54D71*
X1127500Y44800D03*
X1262500D03*
M02*
