*
G04 Job   : C:\Users\MartinJohansson\OneDrive - E-Sharp AB\DesignLabs\PLM\Projects\ELECTRONICS\Sparrow_Fixture_Electronics\Sparrow_FE_R3\PCB\sparrow_fixture.pcb*
G04 User  : ESHARP-MARTIN:MartinJohansson*
G04 Layer : Pastebottom.gbp*
G04 Date  : Mon Dec 22 10:50:29 2025*
G04 Solderpaste bottom*
%ICAS*%
%MOMM*%
%FSLAX24Y24*%
%OFA0.0000B0.0000*%
G90*
G74*
%AMVB_RECTANGLE*
21,1,$1,$2,0,0,$3*
%
%ADD10VB_RECTANGLE,0.50000X0.80000X0.00000*%
%ADD12VB_RECTANGLE,0.70000X0.90000X0.00000*%
%ADD15VB_RECTANGLE,0.70000X0.90000X270.00000*%
%ADD11VB_RECTANGLE,1.50000X1.00000X0.00000*%
%ADD13VB_RECTANGLE,1.55000X0.30000X270.00000*%
%ADD14VB_RECTANGLE,2.75000X1.20000X270.00000*%
G01*
G36*
X447500Y598101D02*
G02X419101Y626500I2500J30899D01*
G01X428898*
G03X447500Y607898I21102J2500*
G01Y598101*
Y650102D02*
G03X428898Y631500I2500J21102D01*
G01X419101*
G02X447500Y659899I30899J2500*
G01Y650102*
X471102Y631500D02*
G03X452500Y650102I21102J2500D01*
G01Y659899*
G02X480899Y631500I2500J30899*
G01X471102*
X480899Y626500D02*
G02X452500Y598101I30899J2500D01*
G01Y607898*
G03X471102Y626500I2500J21102*
G01X480899*
X847500Y598101D02*
G02X819101Y626500I2500J30899D01*
G01X828898*
G03X847500Y607898I21102J2500*
G01Y598101*
Y650102D02*
G03X828898Y631500I2500J21102D01*
G01X819101*
G02X847500Y659899I30899J2500*
G01Y650102*
X871102Y631500D02*
G03X852500Y650102I21102J2500D01*
G01Y659899*
G02X880899Y631500I2500J30899*
G01X871102*
X880899Y626500D02*
G02X852500Y598101I30899J2500D01*
G01Y607898*
G03X871102Y626500I2500J21102*
G01X880899*
X1007500Y256601D02*
G02X979101Y285000I2500J30899D01*
G01X988898*
G03X1007500Y266398I21102J2500*
G01Y256601*
Y308602D02*
G03X988898Y290000I2500J21102D01*
G01X979101*
G02X1007500Y318399I30899J2500*
G01Y308602*
Y511601D02*
G02X979101Y540000I2500J30899D01*
G01X988898*
G03X1007500Y521398I21102J2500*
G01Y511601*
Y563602D02*
G03X988898Y545000I2500J21102D01*
G01X979101*
G02X1007500Y573399I30899J2500*
G01Y563602*
X1031102Y290000D02*
G03X1012500Y308602I21102J2500D01*
G01Y318399*
G02X1040899Y290000I2500J30899*
G01X1031102*
Y545000D02*
G03X1012500Y563602I21102J2500D01*
G01Y573399*
G02X1040899Y545000I2500J30899*
G01X1031102*
X1040899Y285000D02*
G02X1012500Y256601I30899J2500D01*
G01Y266398*
G03X1031102Y285000I2500J21102*
G01X1040899*
Y540000D02*
G02X1012500Y511601I30899J2500D01*
G01Y521398*
G03X1031102Y540000I2500J21102*
G01X1040899*
G37*
G54D10*
X376000Y24500D03*
X384000D03*
G54D11*
X362500Y20000D03*
X397500D03*
G54D12*
X233000Y62500D03*
X242500Y42500D03*
X245500Y127500D03*
X252000Y62500D03*
X255000Y147500D03*
X264500Y127500D03*
X303000D03*
X312500Y147500D03*
X315500Y62500D03*
X322000Y127500D03*
X325000Y42500D03*
X334500Y62500D03*
X370500D03*
X373000Y127500D03*
X380000Y42500D03*
X382500Y147500D03*
X389500Y62500D03*
X392000Y127500D03*
X413000Y62500D03*
X422500Y42500D03*
X432000Y62500D03*
X453000D03*
X462500Y42500D03*
X472000Y62500D03*
X505500Y212500D03*
X515000Y232500D03*
X524500Y212500D03*
X723000Y182500D03*
X732500Y202500D03*
X742000Y182500D03*
G54D13*
X557500Y260000D03*
X560000Y335500D03*
X562500Y260000D03*
X565000Y335500D03*
X567500Y260000D03*
X570000Y335500D03*
X572500Y260000D03*
X575000Y335500D03*
X577500Y260000D03*
X580000Y335500D03*
X582500Y260000D03*
X585000Y335500D03*
X587500Y260000D03*
X590000Y335500D03*
X592500Y260000D03*
X595000Y335500D03*
X597500Y260000D03*
X600000Y335500D03*
X602500Y260000D03*
X605000Y335500D03*
X607500Y260000D03*
X610000Y335500D03*
X612500Y260000D03*
X635000Y335500D03*
X637500Y260000D03*
X640000Y335500D03*
X642500Y260000D03*
X645000Y335500D03*
X647500Y260000D03*
X650000Y335500D03*
X652500Y260000D03*
X655000Y335500D03*
X657500Y260000D03*
X660000Y335500D03*
X662500Y260000D03*
X665000Y335500D03*
X667500Y260000D03*
X670000Y335500D03*
X672500Y260000D03*
X675000Y335500D03*
X677500Y260000D03*
X680000Y335500D03*
X682500Y260000D03*
X685000Y335500D03*
X687500Y260000D03*
X690000Y335500D03*
X692500Y260000D03*
X695000Y335500D03*
X697500Y260000D03*
X700000Y335500D03*
X702500Y260000D03*
X705000Y335500D03*
X707500Y260000D03*
X710000Y335500D03*
X712500Y260000D03*
X715000Y335500D03*
X717500Y260000D03*
X720000Y335500D03*
X722500Y260000D03*
X725000Y335500D03*
X727500Y260000D03*
X730000Y335500D03*
X732500Y260000D03*
X735000Y335500D03*
X737500Y260000D03*
X740000Y335500D03*
X742500Y260000D03*
G54D14*
X546500Y267750D03*
X753500D03*
G54D15*
X740000Y148000D03*
Y167000D03*
X760000Y157500D03*
X782500Y72500D03*
X792500Y300000D03*
X802500Y63000D03*
Y82000D03*
X812500Y290500D03*
Y309500D03*
X922500Y63000D03*
Y82000D03*
X942500Y72500D03*
M02*
