*
G04 Job   : C:\Users\MartinJohansson\OneDrive - E-Sharp AB\DesignLabs\PLM\Projects\ELECTRONICS\Sparrow_Fixture_Electronics\Sparrow_FE_R3\PCB\sparrow_fixture.pcb*
G04 User  : ESHARP-MARTIN:MartinJohansson*
G04 Layer : Pastetop.gtp*
G04 Date  : Mon Dec 22 10:50:29 2025*
G04 Solderpaste top*
%ICAS*%
%MOMM*%
%FSLAX24Y24*%
%OFA0.0000B0.0000*%
G90*
G74*
%AMVB_RECTANGLE*
21,1,$1,$2,0,0,$3*
%
%ADD25C,1.70000*%
%ADD18VB_RECTANGLE,0.23000X1.30000X0.00000*%
%ADD29VB_RECTANGLE,0.25000X0.60000X0.00000*%
%ADD30VB_RECTANGLE,0.25000X0.60000X270.00000*%
%ADD73VB_RECTANGLE,0.29000X0.90000X0.00000*%
%ADD72VB_RECTANGLE,0.29000X0.90000X270.00000*%
%ADD22VB_RECTANGLE,0.30000X0.70000X90.00000*%
%ADD27VB_RECTANGLE,0.30000X1.63000X0.00000*%
%ADD26VB_RECTANGLE,0.30000X1.80000X0.00000*%
%ADD17VB_RECTANGLE,0.35000X1.30000X0.00000*%
%ADD10VB_RECTANGLE,0.40000X0.60000X0.00000*%
%ADD12VB_RECTANGLE,0.40000X0.60000X90.00000*%
%ADD70VB_RECTANGLE,0.40000X1.50000X180.00000*%
%ADD23VB_RECTANGLE,0.40000X1.50000X90.00000*%
%ADD40VB_RECTANGLE,0.60000X1.20000X180.00000*%
%ADD34VB_RECTANGLE,0.60000X1.20000X90.00000*%
%ADD41VB_RECTANGLE,0.60000X1.54000X270.00000*%
%ADD39VB_RECTANGLE,0.60000X1.55000X270.00000*%
%ADD13VB_RECTANGLE,0.62000X0.62000X180.00000*%
%ADD11VB_RECTANGLE,0.62000X0.62000X270.00000*%
%ADD28VB_RECTANGLE,0.70000X0.90000X180.00000*%
%ADD31VB_RECTANGLE,0.70000X0.90000X90.00000*%
%ADD35VB_RECTANGLE,0.95000X1.00000X180.00000*%
%ADD36VB_RECTANGLE,0.95000X1.00000X270.00000*%
%ADD37VB_RECTANGLE,1.00000X1.50000X90.00000*%
%ADD71VB_RECTANGLE,1.15000X1.45000X180.00000*%
%ADD14VB_RECTANGLE,1.15000X1.45000X270.00000*%
%ADD32VB_RECTANGLE,1.47500X0.45000X0.00000*%
%ADD24VB_RECTANGLE,1.50000X2.00000X0.00000*%
%ADD42VB_RECTANGLE,1.50000X2.00000X270.00000*%
%ADD20VB_RECTANGLE,1.55000X0.30000X0.00000*%
%ADD15VB_RECTANGLE,1.75000X1.05000X0.00000*%
%ADD16VB_RECTANGLE,1.75000X1.05000X270.00000*%
%ADD21VB_RECTANGLE,2.75000X1.20000X0.00000*%
%ADD33VB_RECTANGLE,2.86000X1.82000X90.00000*%
%ADD38VB_RECTANGLE,3.30000X1.50000X90.00000*%
%ADD19VB_RECTANGLE,3.40000X2.15000X90.00000*%
G01*
G36*
X140101Y230000D02*
G02X168500Y258399I30899J2500D01*
G01Y248602*
G03X149898Y230000I2500J21102*
G01X140101*
Y630000D02*
G02X168500Y658399I30899J2500D01*
G01Y648602*
G03X149898Y630000I2500J21102*
G01X140101*
X168500Y196601D02*
G02X140101Y225000I2500J30899D01*
G01X149898*
G03X168500Y206398I21102J2500*
G01Y196601*
Y596601D02*
G02X140101Y625000I2500J30899D01*
G01X149898*
G03X168500Y606398I21102J2500*
G01Y596601*
X173500Y196601D02*
Y206398D01*
G03X192102Y225000I2500J21102*
G01X201899*
G02X173500Y196601I30899J2500*
G01Y596601D02*
Y606398D01*
G03X192102Y625000I2500J21102*
G01X201899*
G02X173500Y596601I30899J2500*
G01X192102Y230000D02*
G03X173500Y248602I21102J2500D01*
G01Y258399*
G02X201899Y230000I2500J30899*
G01X192102*
Y630000D02*
G03X173500Y648602I21102J2500D01*
G01Y658399*
G02X201899Y630000I2500J30899*
G01X192102*
X588000Y586000D02*
Y588250D01*
X591750*
Y592000*
X594500*
Y586000*
X588000*
X588400Y576000D02*
X599000D01*
Y579000*
X588400*
Y576000*
Y581000D02*
X599000D01*
Y584000*
X588400*
Y581000*
X594500Y574000D02*
Y568000D01*
X591750*
Y571750*
X588000*
Y574000*
X594500*
X601000Y576000D02*
X611600D01*
Y579000*
X601000*
Y576000*
Y581000D02*
X611600D01*
Y584000*
X601000*
Y581000*
X605500Y586000D02*
Y592000D01*
X608250*
Y588250*
X612000*
Y586000*
X605500*
X612000Y574000D02*
Y571750D01*
X608250*
Y568000*
X605500*
Y574000*
X612000*
X668000Y586000D02*
Y588250D01*
X671750*
Y592000*
X674500*
Y586000*
X668000*
X668400Y576000D02*
X679000D01*
Y579000*
X668400*
Y576000*
Y581000D02*
X679000D01*
Y584000*
X668400*
Y581000*
X674500Y574000D02*
Y568000D01*
X671750*
Y571750*
X668000*
Y574000*
X674500*
X681000Y576000D02*
X691600D01*
Y579000*
X681000*
Y576000*
Y581000D02*
X691600D01*
Y584000*
X681000*
Y581000*
X685500Y586000D02*
Y592000D01*
X688250*
Y588250*
X692000*
Y586000*
X685500*
X692000Y574000D02*
Y571750D01*
X688250*
Y568000*
X685500*
Y574000*
X692000*
X833000Y518500D02*
Y520750D01*
X836750*
Y524500*
X839500*
Y518500*
X833000*
X833400Y508500D02*
X844000D01*
Y511500*
X833400*
Y508500*
Y513500D02*
X844000D01*
Y516500*
X833400*
Y513500*
X839500Y506500D02*
Y500500D01*
X836750*
Y504250*
X833000*
Y506500*
X839500*
X846000Y508500D02*
X856600D01*
Y511500*
X846000*
Y508500*
Y513500D02*
X856600D01*
Y516500*
X846000*
Y513500*
X850500Y518500D02*
Y524500D01*
X853250*
Y520750*
X857000*
Y518500*
X850500*
X857000Y506500D02*
Y504250D01*
X853250*
Y500500*
X850500*
Y506500*
X857000*
X969000Y750500D02*
X966750D01*
Y754250*
X963000*
Y757000*
X969000*
Y750500*
Y768000D02*
X963000D01*
Y770750*
X966750*
Y774500*
X969000*
Y768000*
X971000Y750900D02*
X974000D01*
Y761500*
X971000*
Y750900*
Y763500D02*
X974000D01*
Y774100*
X971000*
Y763500*
X976000Y750900D02*
X979000D01*
Y761500*
X976000*
Y750900*
Y763500D02*
X979000D01*
Y774100*
X976000*
Y763500*
X981000Y757000D02*
X987000D01*
Y754250*
X983250*
Y750500*
X981000*
Y757000*
Y774500D02*
X983250D01*
Y770750*
X987000*
Y768000*
X981000*
Y774500*
X1030500Y466000D02*
Y468250D01*
X1034250*
Y472000*
X1037000*
Y466000*
X1030500*
X1030900Y456000D02*
X1041500D01*
Y459000*
X1030900*
Y456000*
Y461000D02*
X1041500D01*
Y464000*
X1030900*
Y461000*
X1037000Y454000D02*
Y448000D01*
X1034250*
Y451750*
X1030500*
Y454000*
X1037000*
X1043500Y456000D02*
X1054100D01*
Y459000*
X1043500*
Y456000*
Y461000D02*
X1054100D01*
Y464000*
X1043500*
Y461000*
X1048000Y466000D02*
Y472000D01*
X1050750*
Y468250*
X1054500*
Y466000*
X1048000*
X1054500Y454000D02*
Y451750D01*
X1050750*
Y448000*
X1048000*
Y454000*
X1054500*
X1119637Y35568D02*
G02X1112000Y30800I7637J3732D01*
X1103500Y39300J8500*
X1112000Y47800I8500*
X1115451Y47068J8500*
G01X1119637Y35568*
X1136133Y35283D02*
X1124313Y32115D01*
G03X1123250Y28000I7437J4115*
X1131750Y19500I8500*
X1140250Y28000J8500*
X1136133Y35283I8500*
G01X1179500Y672000D02*
X1189000D01*
Y681500*
X1179500*
Y672000*
Y682500D02*
X1189000D01*
Y692000*
X1179500*
Y682500*
Y693000D02*
X1189000D01*
Y702500*
X1179500*
Y693000*
Y703500D02*
X1189000D01*
Y713000*
X1179500*
Y703500*
X1190000Y672000D02*
X1199500D01*
Y681500*
X1190000*
Y672000*
Y682500D02*
X1199500D01*
Y692000*
X1190000*
Y682500*
Y693000D02*
X1199500D01*
Y702500*
X1190000*
Y693000*
Y703500D02*
X1199500D01*
Y713000*
X1190000*
Y703500*
X1200500Y672000D02*
X1210000D01*
Y681500*
X1200500*
Y672000*
Y682500D02*
X1210000D01*
Y692000*
X1200500*
Y682500*
Y693000D02*
X1210000D01*
Y702500*
X1200500*
Y693000*
Y703500D02*
X1210000D01*
Y713000*
X1200500*
Y703500*
X1211000Y672000D02*
X1220500D01*
Y681500*
X1211000*
Y672000*
Y682500D02*
X1220500D01*
Y692000*
X1211000*
Y682500*
Y693000D02*
X1220500D01*
Y702500*
X1211000*
Y693000*
Y703500D02*
X1220500D01*
Y713000*
X1211000*
Y703500*
X1253867Y35283D02*
X1265687Y32115D01*
G02X1266750Y28000I7437J4115*
X1258250Y19500I8500*
X1249750Y28000J8500*
X1253867Y35283I8500*
G01X1270363Y35568D02*
G03X1278000Y30800I7637J3732D01*
X1286500Y39300J8500*
X1278000Y47800I8500*
X1274549Y47068J8500*
G01X1270363Y35568*
G37*
G54D10*
X438000Y137500D03*
Y147500D03*
Y157500D03*
Y167500D03*
X447000Y137500D03*
Y147500D03*
Y157500D03*
Y167500D03*
X470500Y207500D03*
Y217500D03*
X473000Y192500D03*
X479500Y207500D03*
Y217500D03*
X482000Y192500D03*
X488000Y207500D03*
Y217500D03*
X490500Y310000D03*
Y645000D03*
Y655000D03*
X497000Y207500D03*
Y217500D03*
X498000Y190000D03*
X499500Y310000D03*
Y645000D03*
Y655000D03*
X505500Y207500D03*
Y217500D03*
X507000Y190000D03*
X508000Y310000D03*
Y645000D03*
Y655000D03*
X514500Y207500D03*
Y217500D03*
X517000Y310000D03*
Y645000D03*
Y655000D03*
X518000Y190000D03*
X523000Y207500D03*
X527000Y190000D03*
X532000Y207500D03*
X543000D03*
Y217500D03*
X552000Y207500D03*
Y217500D03*
X560500Y127500D03*
Y207500D03*
Y217500D03*
X569500Y127500D03*
Y207500D03*
Y217500D03*
X578000Y130000D03*
Y207500D03*
Y217500D03*
X585500Y315000D03*
Y325000D03*
X587000Y130000D03*
Y207500D03*
Y217500D03*
X594500Y315000D03*
Y325000D03*
X595500Y207500D03*
X600500Y475000D03*
Y485000D03*
Y495000D03*
Y505000D03*
Y515000D03*
Y525000D03*
Y645000D03*
Y655000D03*
X604500Y207500D03*
X609500Y475000D03*
Y485000D03*
Y495000D03*
Y505000D03*
Y515000D03*
Y525000D03*
Y645000D03*
Y655000D03*
X615500Y207500D03*
Y217500D03*
X618000Y645000D03*
Y655000D03*
X624500Y207500D03*
Y217500D03*
X627000Y645000D03*
Y655000D03*
X633000Y207500D03*
Y217500D03*
X642000Y207500D03*
Y217500D03*
X650500Y207500D03*
Y217500D03*
X655500Y190000D03*
X658000Y315000D03*
Y325000D03*
X659500Y207500D03*
Y217500D03*
X664500Y190000D03*
X667000Y315000D03*
Y325000D03*
X690500Y237500D03*
X699500D03*
X715500Y505000D03*
X720500Y667500D03*
X724500Y505000D03*
X729500Y667500D03*
X733000Y427500D03*
Y472500D03*
X735500Y237500D03*
X742000Y427500D03*
Y472500D03*
X744500Y237500D03*
X900500Y712500D03*
X909500D03*
X918000D03*
X927000D03*
X945500Y747500D03*
Y757500D03*
X948000Y777500D03*
X954500Y747500D03*
Y757500D03*
X957000Y777500D03*
X993000Y757500D03*
Y777500D03*
X998000Y747500D03*
Y767500D03*
X1002000Y757500D03*
Y777500D03*
X1007000Y747500D03*
Y767500D03*
X1040500Y132500D03*
Y142500D03*
Y157500D03*
Y167500D03*
Y182500D03*
Y192500D03*
Y207500D03*
Y217500D03*
X1049500Y132500D03*
Y142500D03*
Y157500D03*
Y167500D03*
Y182500D03*
Y192500D03*
Y207500D03*
Y217500D03*
X1070500Y132500D03*
Y142500D03*
Y157500D03*
Y167500D03*
Y182500D03*
Y192500D03*
Y207500D03*
Y217500D03*
X1075500Y712500D03*
X1079500Y132500D03*
Y142500D03*
Y157500D03*
Y167500D03*
Y182500D03*
Y192500D03*
Y207500D03*
Y217500D03*
X1084500Y712500D03*
X1090500Y107500D03*
Y117500D03*
X1093000Y712500D03*
X1099500Y107500D03*
Y117500D03*
X1102000Y712500D03*
X1103000Y662500D03*
Y675000D03*
Y687500D03*
Y700000D03*
X1112000Y662500D03*
Y675000D03*
Y687500D03*
Y700000D03*
X1123000Y655000D03*
Y667500D03*
Y680000D03*
Y692500D03*
Y705000D03*
Y715000D03*
Y725000D03*
Y735000D03*
X1132000Y655000D03*
Y667500D03*
Y680000D03*
Y692500D03*
Y705000D03*
Y715000D03*
Y725000D03*
Y735000D03*
X1160500Y780000D03*
X1169500D03*
X1218000Y262500D03*
Y295000D03*
X1223000Y215000D03*
Y225000D03*
Y240000D03*
Y250000D03*
X1227000Y262500D03*
Y295000D03*
X1232000Y215000D03*
Y225000D03*
Y240000D03*
Y250000D03*
X1235500Y262500D03*
Y272500D03*
Y285000D03*
Y295000D03*
Y305000D03*
Y320000D03*
Y330000D03*
X1244500Y262500D03*
Y272500D03*
Y285000D03*
Y295000D03*
Y305000D03*
Y320000D03*
Y330000D03*
X1270500Y680000D03*
Y690000D03*
Y700000D03*
Y710000D03*
Y720000D03*
Y730000D03*
X1279500Y680000D03*
Y690000D03*
Y700000D03*
Y710000D03*
Y720000D03*
Y730000D03*
X1280500Y602500D03*
Y612500D03*
X1283000Y335000D03*
Y345000D03*
Y355000D03*
Y365000D03*
Y395000D03*
Y405000D03*
Y415000D03*
Y425000D03*
X1289500Y602500D03*
Y612500D03*
X1292000Y335000D03*
Y345000D03*
Y355000D03*
Y365000D03*
Y395000D03*
Y405000D03*
Y415000D03*
Y425000D03*
X1298000Y662500D03*
Y672500D03*
X1307000Y662500D03*
Y672500D03*
X1318000Y662500D03*
Y672500D03*
X1327000Y662500D03*
Y672500D03*
X1330500Y210000D03*
X1339500D03*
X1350500D03*
X1359500D03*
G54D11*
X592500Y548000D03*
Y557000D03*
X620000Y480500D03*
Y489500D03*
Y523000D03*
Y532000D03*
X622500Y550500D03*
Y559500D03*
X672500Y548000D03*
Y557000D03*
X702500Y550500D03*
Y559500D03*
X745000Y670500D03*
Y679500D03*
X835000Y480500D03*
Y489500D03*
X865000Y483000D03*
Y492000D03*
X1020000Y480500D03*
Y489500D03*
X1050000Y483000D03*
Y492000D03*
X1090000Y133000D03*
Y142000D03*
Y158000D03*
Y167000D03*
Y183000D03*
Y192000D03*
Y208000D03*
Y217000D03*
X1097500Y478000D03*
Y487000D03*
X1107500Y478000D03*
Y487000D03*
X1187500Y618000D03*
Y627000D03*
X1240000Y478000D03*
Y487000D03*
X1242500Y215500D03*
Y224500D03*
Y240500D03*
Y249500D03*
X1262500Y478000D03*
Y487000D03*
X1280000Y583000D03*
Y592000D03*
Y623000D03*
Y632000D03*
X1290000Y583000D03*
Y592000D03*
Y623000D03*
Y632000D03*
X1297500Y563000D03*
Y572000D03*
Y643000D03*
Y652000D03*
X1327500Y563000D03*
Y572000D03*
Y643000D03*
Y652000D03*
X1377500Y313000D03*
Y322000D03*
Y458000D03*
Y467000D03*
G54D12*
X375000Y188000D03*
Y197000D03*
X387500Y188000D03*
Y197000D03*
X400000Y188000D03*
Y197000D03*
X455000Y268000D03*
Y277000D03*
X460000Y138000D03*
Y147000D03*
Y155500D03*
Y164500D03*
X465000Y268000D03*
Y277000D03*
X535000Y263000D03*
Y272000D03*
X555000Y185500D03*
Y194500D03*
X560000Y320500D03*
Y329500D03*
X565000Y185500D03*
Y194500D03*
X570000Y320500D03*
Y329500D03*
X580000Y555500D03*
Y564500D03*
X587500Y598000D03*
Y607000D03*
X597500Y603000D03*
Y612000D03*
X602500Y548000D03*
Y557000D03*
X607500Y288000D03*
Y297000D03*
Y598000D03*
Y607000D03*
X612500Y548000D03*
Y557000D03*
X617500Y603000D03*
Y612000D03*
X630000Y310500D03*
Y319500D03*
X640000Y310500D03*
Y319500D03*
X655000Y105500D03*
Y114500D03*
X662500Y553000D03*
Y562000D03*
X667500Y598000D03*
Y607000D03*
X668500Y105500D03*
Y114500D03*
X670000Y205500D03*
Y214500D03*
X677500Y603000D03*
Y612000D03*
X680000Y230500D03*
Y239500D03*
Y290500D03*
Y299500D03*
X682000Y105500D03*
Y114500D03*
X682500Y548000D03*
Y557000D03*
X687500Y598000D03*
Y607000D03*
X692500Y548000D03*
Y557000D03*
X697500Y603000D03*
Y612000D03*
X710000Y230500D03*
Y239500D03*
Y660500D03*
Y669500D03*
X725000Y230500D03*
Y239500D03*
X755000Y230500D03*
Y239500D03*
Y670500D03*
Y679500D03*
X757500Y155500D03*
Y164500D03*
Y173000D03*
Y182000D03*
Y190500D03*
Y199500D03*
X760000Y135500D03*
Y144500D03*
Y208000D03*
Y217000D03*
X765000Y670500D03*
Y679500D03*
X822500Y405500D03*
Y414500D03*
Y423000D03*
Y432000D03*
X825000Y485500D03*
Y494500D03*
X832500Y530500D03*
Y539500D03*
X842500Y535500D03*
Y544500D03*
X845000Y480500D03*
Y489500D03*
X852500Y530500D03*
Y539500D03*
X855000Y480500D03*
Y489500D03*
X862500Y535500D03*
Y544500D03*
X870000Y138000D03*
Y147000D03*
Y185500D03*
Y194500D03*
Y233000D03*
Y242000D03*
X960000Y190500D03*
Y199500D03*
X1025000Y428000D03*
Y437000D03*
X1030000Y483000D03*
Y492000D03*
X1035000Y433000D03*
Y442000D03*
X1040000Y483000D03*
Y492000D03*
X1052500Y433000D03*
Y442000D03*
X1060000Y133000D03*
Y142000D03*
Y158000D03*
Y167000D03*
Y183000D03*
Y192000D03*
Y208000D03*
Y217000D03*
Y478000D03*
Y487000D03*
X1062500Y428000D03*
Y437000D03*
X1097500Y423000D03*
Y432000D03*
X1102500Y80500D03*
Y89500D03*
X1112500Y80500D03*
Y89500D03*
X1117500Y278000D03*
Y287000D03*
Y423000D03*
Y432000D03*
Y478000D03*
Y487000D03*
X1122500Y80500D03*
Y89500D03*
X1132500Y80500D03*
Y89500D03*
X1135000Y278000D03*
Y287000D03*
X1142500Y80500D03*
Y89500D03*
X1152500Y80500D03*
Y89500D03*
X1157500Y758000D03*
Y767000D03*
X1162500Y80500D03*
Y89500D03*
X1167500Y758000D03*
Y767000D03*
X1172500Y80500D03*
Y89500D03*
X1177500Y618000D03*
Y627000D03*
Y758000D03*
Y767000D03*
X1180000Y778000D03*
Y787000D03*
X1182500Y80500D03*
Y89500D03*
X1187500Y758000D03*
Y767000D03*
X1190000Y778000D03*
Y787000D03*
X1192500Y80500D03*
Y89500D03*
X1197500Y618000D03*
Y627000D03*
X1200000Y778000D03*
Y787000D03*
X1202500Y80500D03*
Y89500D03*
X1207500Y618000D03*
Y627000D03*
X1210000Y778000D03*
Y787000D03*
X1212500Y760500D03*
Y769500D03*
X1215000Y275500D03*
Y284500D03*
X1217500Y80500D03*
Y89500D03*
Y618000D03*
Y627000D03*
X1220000Y778000D03*
Y787000D03*
X1222500Y760500D03*
Y769500D03*
X1225000Y275500D03*
Y284500D03*
Y310500D03*
Y319500D03*
X1227500Y618000D03*
Y627000D03*
X1230000Y478000D03*
Y487000D03*
X1232500Y80500D03*
Y89500D03*
Y760500D03*
Y769500D03*
X1237500Y618000D03*
Y627000D03*
X1242500Y760500D03*
Y769500D03*
X1257500Y80500D03*
Y89500D03*
X1267500Y80500D03*
Y89500D03*
X1277500Y80500D03*
Y89500D03*
X1282500Y375500D03*
Y384500D03*
Y435500D03*
Y444500D03*
X1292500Y375500D03*
Y384500D03*
Y435500D03*
Y444500D03*
X1300000Y585500D03*
Y594500D03*
Y620500D03*
Y629500D03*
X1307500Y565500D03*
Y574500D03*
Y643000D03*
Y652000D03*
X1317500Y565500D03*
Y574500D03*
Y643000D03*
Y652000D03*
X1337500Y313000D03*
Y322000D03*
Y643000D03*
Y652000D03*
X1347500Y313000D03*
Y322000D03*
Y643000D03*
Y652000D03*
X1357500Y313000D03*
Y322000D03*
Y643000D03*
Y652000D03*
X1367500Y313000D03*
Y322000D03*
Y643000D03*
Y652000D03*
X1372500Y160500D03*
Y169500D03*
Y178000D03*
Y187000D03*
Y243000D03*
Y252000D03*
Y260500D03*
Y269500D03*
X1382500Y160500D03*
Y169500D03*
Y178000D03*
Y187000D03*
Y243000D03*
Y252000D03*
Y260500D03*
Y269500D03*
X1387500Y313000D03*
Y322000D03*
Y458000D03*
Y467000D03*
G54D13*
X495500Y680000D03*
X503000Y665000D03*
X504500Y680000D03*
X512000Y665000D03*
X600500Y465000D03*
Y535000D03*
X605500Y680000D03*
X609500Y465000D03*
Y535000D03*
X613000Y665000D03*
X614500Y680000D03*
X622000Y665000D03*
X715500Y680000D03*
X724500D03*
X943000Y767500D03*
X948000Y737500D03*
X952000Y767500D03*
X957000Y737500D03*
X1100500Y130000D03*
Y145000D03*
Y155000D03*
Y170000D03*
Y180000D03*
Y195000D03*
Y205000D03*
Y220000D03*
X1109500Y130000D03*
Y145000D03*
Y155000D03*
Y170000D03*
Y180000D03*
Y195000D03*
Y205000D03*
Y220000D03*
X1253000Y212500D03*
Y227500D03*
Y237500D03*
Y252500D03*
X1258000Y262500D03*
Y277500D03*
Y287500D03*
Y305000D03*
X1262000Y212500D03*
Y227500D03*
Y237500D03*
Y252500D03*
X1267000Y262500D03*
Y277500D03*
Y287500D03*
Y305000D03*
G54D14*
X540000Y696000D03*
Y714000D03*
X562500Y696000D03*
Y714000D03*
X570000Y523500D03*
Y541500D03*
X650000Y696000D03*
Y714000D03*
X672500Y696000D03*
Y714000D03*
X697500Y441000D03*
Y459000D03*
X760000Y696000D03*
Y714000D03*
X775000Y513500D03*
Y531500D03*
X782500Y696000D03*
Y714000D03*
X807500Y501000D03*
Y519000D03*
X952500Y703500D03*
Y721500D03*
G54D15*
X852500Y142500D03*
Y172500D03*
Y190000D03*
Y220000D03*
Y237500D03*
Y267500D03*
G54D16*
X975000Y192500D03*
X1005000D03*
G54D17*
X826900Y332000D03*
Y383000D03*
X936900Y592000D03*
Y643000D03*
X973100Y332000D03*
Y383000D03*
X1046900Y332000D03*
Y383000D03*
X1083100Y592000D03*
Y643000D03*
X1193100Y332000D03*
Y383000D03*
G54D18*
X832500Y332000D03*
Y383000D03*
X837500Y332000D03*
Y383000D03*
X842500Y332000D03*
Y383000D03*
X847500Y332000D03*
Y383000D03*
X852500Y332000D03*
Y383000D03*
X857500Y332000D03*
Y383000D03*
X862500Y332000D03*
Y383000D03*
X867500Y332000D03*
Y383000D03*
X872500Y332000D03*
Y383000D03*
X877500Y332000D03*
Y383000D03*
X882500Y332000D03*
Y383000D03*
X887500Y332000D03*
Y383000D03*
X892500Y332000D03*
Y383000D03*
X897500Y332000D03*
Y383000D03*
X902500Y332000D03*
Y383000D03*
X907500Y332000D03*
Y383000D03*
X912500Y332000D03*
Y383000D03*
X917500Y332000D03*
Y383000D03*
X922500Y332000D03*
Y383000D03*
X927500Y332000D03*
Y383000D03*
X932500Y332000D03*
Y383000D03*
X937500Y332000D03*
Y383000D03*
X942500Y332000D03*
Y383000D03*
Y592000D03*
Y643000D03*
X947500Y332000D03*
Y383000D03*
Y592000D03*
Y643000D03*
X952500Y332000D03*
Y383000D03*
Y592000D03*
Y643000D03*
X957500Y332000D03*
Y383000D03*
Y592000D03*
Y643000D03*
X962500Y332000D03*
Y383000D03*
Y592000D03*
Y643000D03*
X967500Y332000D03*
Y383000D03*
Y592000D03*
Y643000D03*
X972500Y592000D03*
Y643000D03*
X977500Y592000D03*
Y643000D03*
X982500Y592000D03*
Y643000D03*
X987500Y592000D03*
Y643000D03*
X992500Y592000D03*
Y643000D03*
X997500Y592000D03*
Y643000D03*
X1002500Y592000D03*
Y643000D03*
X1007500Y592000D03*
Y643000D03*
X1012500Y592000D03*
Y643000D03*
X1017500Y592000D03*
Y643000D03*
X1022500Y592000D03*
Y643000D03*
X1027500Y592000D03*
Y643000D03*
X1032500Y592000D03*
Y643000D03*
X1037500Y592000D03*
Y643000D03*
X1042500Y592000D03*
Y643000D03*
X1047500Y592000D03*
Y643000D03*
X1052500Y332000D03*
Y383000D03*
Y592000D03*
Y643000D03*
X1057500Y332000D03*
Y383000D03*
Y592000D03*
Y643000D03*
X1062500Y332000D03*
Y383000D03*
Y592000D03*
Y643000D03*
X1067500Y332000D03*
Y383000D03*
Y592000D03*
Y643000D03*
X1072500Y332000D03*
Y383000D03*
Y592000D03*
Y643000D03*
X1077500Y332000D03*
Y383000D03*
Y592000D03*
Y643000D03*
X1082500Y332000D03*
Y383000D03*
X1087500Y332000D03*
Y383000D03*
X1092500Y332000D03*
Y383000D03*
X1097500Y332000D03*
Y383000D03*
X1102500Y332000D03*
Y383000D03*
X1107500Y332000D03*
Y383000D03*
X1112500Y332000D03*
Y383000D03*
X1117500Y332000D03*
Y383000D03*
X1122500Y332000D03*
Y383000D03*
X1127500Y332000D03*
Y383000D03*
X1132500Y332000D03*
Y383000D03*
X1137500Y332000D03*
Y383000D03*
X1142500Y332000D03*
Y383000D03*
X1147500Y332000D03*
Y383000D03*
X1152500Y332000D03*
Y383000D03*
X1157500Y332000D03*
Y383000D03*
X1162500Y332000D03*
Y383000D03*
X1167500Y332000D03*
Y383000D03*
X1172500Y332000D03*
Y383000D03*
X1177500Y332000D03*
Y383000D03*
X1182500Y332000D03*
Y383000D03*
X1187500Y332000D03*
Y383000D03*
G54D19*
X503250Y760000D03*
X561750D03*
X613250D03*
X671750D03*
X723250D03*
X781750D03*
G54D20*
X464500Y337500D03*
Y342500D03*
Y347500D03*
Y352500D03*
Y357500D03*
Y362500D03*
Y367500D03*
Y372500D03*
Y377500D03*
Y382500D03*
Y387500D03*
Y392500D03*
Y397500D03*
Y402500D03*
Y407500D03*
Y412500D03*
Y417500D03*
Y422500D03*
Y427500D03*
Y432500D03*
Y437500D03*
Y442500D03*
Y467500D03*
Y472500D03*
Y477500D03*
Y482500D03*
Y487500D03*
Y492500D03*
Y497500D03*
Y502500D03*
Y507500D03*
Y512500D03*
Y517500D03*
X540000Y335000D03*
Y340000D03*
Y345000D03*
Y350000D03*
Y355000D03*
Y360000D03*
Y365000D03*
Y370000D03*
Y375000D03*
Y380000D03*
Y385000D03*
Y390000D03*
Y395000D03*
Y400000D03*
Y405000D03*
Y410000D03*
Y415000D03*
Y420000D03*
Y425000D03*
Y430000D03*
Y435000D03*
Y440000D03*
Y465000D03*
Y470000D03*
Y475000D03*
Y480000D03*
Y485000D03*
Y490000D03*
Y495000D03*
Y500000D03*
Y505000D03*
Y510000D03*
Y515000D03*
Y520000D03*
G54D21*
X532250Y324000D03*
Y531000D03*
G54D22*
X1085800Y448500D03*
Y455000D03*
Y461500D03*
X1104200Y448500D03*
Y455000D03*
Y461500D03*
X1130800Y251000D03*
Y257500D03*
Y264000D03*
X1149200Y251000D03*
Y257500D03*
Y264000D03*
G54D23*
X480500Y132250D03*
Y138750D03*
Y145250D03*
Y151750D03*
Y158250D03*
Y164750D03*
Y171250D03*
Y177750D03*
X539500Y132250D03*
Y138750D03*
Y145250D03*
Y151750D03*
Y158250D03*
Y164750D03*
Y171250D03*
Y177750D03*
X603000Y132250D03*
Y138750D03*
Y145250D03*
Y151750D03*
Y158250D03*
Y164750D03*
Y171250D03*
Y177750D03*
X662000Y132250D03*
Y138750D03*
Y145250D03*
Y151750D03*
Y158250D03*
Y164750D03*
Y171250D03*
Y177750D03*
X1148000Y480500D03*
Y487000D03*
Y493500D03*
Y500000D03*
Y506500D03*
Y513000D03*
Y519500D03*
Y545500D03*
Y552000D03*
Y558500D03*
Y565000D03*
Y571500D03*
Y578000D03*
Y584500D03*
X1207000Y480500D03*
Y487000D03*
Y493500D03*
Y500000D03*
Y506500D03*
Y513000D03*
Y519500D03*
Y545500D03*
Y552000D03*
Y558500D03*
Y565000D03*
Y571500D03*
Y578000D03*
Y584500D03*
X1285500Y152250D03*
Y158750D03*
Y165250D03*
Y171750D03*
Y178250D03*
Y184750D03*
Y191250D03*
Y197750D03*
Y234750D03*
Y241250D03*
Y247750D03*
Y254250D03*
Y260750D03*
Y267250D03*
Y273750D03*
Y280250D03*
X1318000Y334750D03*
Y341250D03*
Y347750D03*
Y354250D03*
Y360750D03*
Y367250D03*
Y373750D03*
Y380250D03*
Y394750D03*
Y401250D03*
Y407750D03*
Y414250D03*
Y420750D03*
Y427250D03*
Y433750D03*
Y440250D03*
Y584750D03*
Y591250D03*
Y597750D03*
Y604250D03*
Y610750D03*
Y617250D03*
Y623750D03*
Y630250D03*
X1344500Y152250D03*
Y158750D03*
Y165250D03*
Y171750D03*
Y178250D03*
Y184750D03*
Y191250D03*
Y197750D03*
Y234750D03*
Y241250D03*
Y247750D03*
Y254250D03*
Y260750D03*
Y267250D03*
Y273750D03*
Y280250D03*
X1377000Y334750D03*
Y341250D03*
Y347750D03*
Y354250D03*
Y360750D03*
Y367250D03*
Y373750D03*
Y380250D03*
Y394750D03*
Y401250D03*
Y407750D03*
Y414250D03*
Y420750D03*
Y427250D03*
Y433750D03*
Y440250D03*
Y584750D03*
Y591250D03*
Y597750D03*
Y604250D03*
Y610750D03*
Y617250D03*
Y623750D03*
Y630250D03*
G54D24*
X540000Y642500D03*
Y670000D03*
X570000Y642500D03*
Y670000D03*
X650000Y642500D03*
Y670000D03*
X680000Y642500D03*
Y670000D03*
G54D25*
X1112000Y16800D03*
X1278000D03*
G54D26*
X1147500Y50800D03*
X1152500D03*
X1157500D03*
X1162500D03*
X1167500D03*
X1172500D03*
X1177500D03*
X1182500D03*
X1187500D03*
X1192500D03*
X1197500D03*
X1202500D03*
X1207500D03*
X1212500D03*
X1217500D03*
X1222500D03*
X1227500D03*
X1232500D03*
X1237500D03*
X1242500D03*
G54D27*
X1147500Y24050D03*
X1152500D03*
X1157500D03*
X1162500D03*
X1167500D03*
X1172500D03*
X1177500D03*
X1182500D03*
X1187500D03*
X1192500D03*
X1197500D03*
X1202500D03*
X1207500D03*
X1212500D03*
X1217500D03*
X1222500D03*
X1227500D03*
X1232500D03*
X1237500D03*
X1242500D03*
G54D28*
X1135500Y445000D03*
X1145000Y465000D03*
X1154500Y445000D03*
X1213000D03*
X1222500Y465000D03*
X1232000Y445000D03*
G54D29*
X597750Y571000D03*
Y589000D03*
X602250Y571000D03*
Y589000D03*
X677750Y571000D03*
Y589000D03*
X682250Y571000D03*
Y589000D03*
X842750Y503500D03*
Y521500D03*
X847250Y503500D03*
Y521500D03*
X1040250Y451000D03*
Y469000D03*
X1044750Y451000D03*
Y469000D03*
G54D30*
X966000Y760250D03*
Y764750D03*
X984000Y760250D03*
Y764750D03*
G54D31*
X1090000Y240500D03*
Y259500D03*
X1110000Y250000D03*
G54D32*
X640620Y485500D03*
Y492000D03*
Y498500D03*
Y505000D03*
Y511500D03*
Y518000D03*
Y524500D03*
X699380Y485500D03*
Y492000D03*
Y498500D03*
Y505000D03*
Y511500D03*
Y518000D03*
Y524500D03*
G54D33*
X670000Y505000D03*
G54D34*
X494500Y695500D03*
Y705000D03*
Y714500D03*
X520500Y695500D03*
Y705000D03*
Y714500D03*
X604500Y695500D03*
Y705000D03*
Y714500D03*
X630500Y695500D03*
Y705000D03*
Y714500D03*
X714500Y695500D03*
Y705000D03*
Y714500D03*
X724500Y440500D03*
Y459500D03*
X740500Y695500D03*
Y705000D03*
Y714500D03*
X750500Y440500D03*
Y450000D03*
Y459500D03*
G54D35*
X594500Y190000D03*
X610500D03*
X624500D03*
X640500D03*
X1287000Y470000D03*
X1303000D03*
G54D36*
X560000Y142000D03*
Y158000D03*
X577500Y142000D03*
Y158000D03*
Y174500D03*
Y190500D03*
X1135000Y609500D03*
Y625500D03*
X1290000Y519500D03*
Y535500D03*
X1320000Y689500D03*
Y705500D03*
G54D37*
X916500Y734500D03*
Y757500D03*
Y780500D03*
X1091500Y734500D03*
Y757500D03*
Y780500D03*
G54D38*
X853500Y757500D03*
X1028500D03*
G54D39*
X688000Y136900D03*
Y149600D03*
Y162300D03*
Y175000D03*
Y187700D03*
Y200400D03*
Y213100D03*
X742000Y136900D03*
Y149600D03*
Y162300D03*
Y175000D03*
Y187700D03*
Y200400D03*
Y213100D03*
G54D40*
X703000Y289500D03*
Y315500D03*
X712500Y289500D03*
Y315500D03*
X722000Y289500D03*
Y315500D03*
X1310500Y517000D03*
Y543000D03*
X1320000Y517000D03*
Y543000D03*
X1329500Y517000D03*
Y543000D03*
G54D41*
X775550Y144800D03*
Y170200D03*
Y192300D03*
Y217700D03*
Y239800D03*
Y265200D03*
X829450Y144800D03*
Y170200D03*
Y192300D03*
Y217700D03*
Y239800D03*
Y265200D03*
X885550Y144800D03*
Y170200D03*
Y192300D03*
Y217700D03*
Y239800D03*
Y265200D03*
X939450Y144800D03*
Y170200D03*
Y192300D03*
Y217700D03*
Y239800D03*
Y265200D03*
X963050Y144800D03*
Y170200D03*
Y214800D03*
Y240200D03*
X1016950Y144800D03*
Y170200D03*
Y214800D03*
Y240200D03*
G54D42*
X635000Y367500D03*
Y397500D03*
X785000Y297500D03*
Y327500D03*
G54D70*
X477250Y235500D03*
Y294500D03*
X483750Y235500D03*
Y294500D03*
X490250Y235500D03*
Y294500D03*
X496750Y235500D03*
Y294500D03*
X503250Y235500D03*
Y294500D03*
X509750Y235500D03*
Y294500D03*
X516250Y235500D03*
Y294500D03*
X522750Y235500D03*
Y294500D03*
X549750Y235500D03*
Y294500D03*
X556250Y235500D03*
Y294500D03*
X562750Y235500D03*
Y294500D03*
X569250Y235500D03*
Y294500D03*
X575750Y235500D03*
Y294500D03*
X582250Y235500D03*
Y294500D03*
X588750Y235500D03*
Y294500D03*
X595250Y235500D03*
Y294500D03*
X622250Y235500D03*
Y294500D03*
X628750Y235500D03*
Y294500D03*
X635250Y235500D03*
Y294500D03*
X641750Y235500D03*
Y294500D03*
X648250Y235500D03*
Y294500D03*
X654750Y235500D03*
Y294500D03*
X661250Y235500D03*
Y294500D03*
X667750Y235500D03*
Y294500D03*
X1085500Y503000D03*
Y562000D03*
X1092000Y503000D03*
Y562000D03*
X1098500Y503000D03*
Y562000D03*
X1105000Y503000D03*
Y562000D03*
X1111500Y503000D03*
Y562000D03*
X1118000Y503000D03*
Y562000D03*
X1124500Y503000D03*
Y562000D03*
X1230500Y503000D03*
Y562000D03*
X1237000Y503000D03*
Y562000D03*
X1243500Y503000D03*
Y562000D03*
X1250000Y503000D03*
Y562000D03*
X1256500Y503000D03*
Y562000D03*
X1263000Y503000D03*
Y562000D03*
X1269500Y503000D03*
Y562000D03*
G54D71*
X721000Y552500D03*
X739000D03*
X783500Y640000D03*
Y672500D03*
X801500Y640000D03*
Y672500D03*
X853500Y707500D03*
X871500D03*
X986000Y485000D03*
X1004000D03*
X1028500Y707500D03*
X1046500D03*
X1118500Y775000D03*
X1136500D03*
X1341000Y455000D03*
X1359000D03*
G54D72*
X1159500Y660000D03*
Y665000D03*
Y670000D03*
Y675000D03*
Y680000D03*
Y685000D03*
Y690000D03*
Y695000D03*
Y700000D03*
Y705000D03*
Y710000D03*
Y715000D03*
Y720000D03*
Y725000D03*
X1240500Y660000D03*
Y665000D03*
Y670000D03*
Y675000D03*
Y680000D03*
Y685000D03*
Y690000D03*
Y695000D03*
Y700000D03*
Y705000D03*
Y710000D03*
Y715000D03*
Y720000D03*
Y725000D03*
G54D73*
X1167500Y652000D03*
Y733000D03*
X1172500Y652000D03*
Y733000D03*
X1177500Y652000D03*
Y733000D03*
X1182500Y652000D03*
Y733000D03*
X1187500Y652000D03*
Y733000D03*
X1192500Y652000D03*
Y733000D03*
X1197500Y652000D03*
Y733000D03*
X1202500Y652000D03*
Y733000D03*
X1207500Y652000D03*
Y733000D03*
X1212500Y652000D03*
Y733000D03*
X1217500Y652000D03*
Y733000D03*
X1222500Y652000D03*
Y733000D03*
X1227500Y652000D03*
Y733000D03*
X1232500Y652000D03*
Y733000D03*
M02*
