*
G04 Job   : C:\Users\MartinJohansson\OneDrive - E-Sharp AB\DesignLabs\PLM\Projects\ELECTRONICS\Sparrow_Fixture_Electronics\Sparrow_FE_R3\PCB\sparrow_fixture.pcb*
G04 User  : ESHARP-MARTIN:MartinJohansson*
G04 Layer : Silkbottom.gbo*
G04 Date  : Mon Dec 22 10:50:29 2025*
G04 Silkscreen bottom*
%ICAS*%
%MOMM*%
%FSLAX24Y24*%
%OFA0.0000B0.0000*%
G90*
G74*
%ADD11C,0.10000*%
%ADD10C,0.12500*%
%ADD12C,0.20000*%
%ADD13C,0.50000*%
G01*
G36*
X97962Y395294D02*
X97958Y395047D01*
X97944Y394803*
X97920Y394563*
X97888Y394325*
X97846Y394091*
X97796Y393860*
X97736Y393632*
X97667Y393407*
X97590Y393185*
X97503Y392966*
X97407Y392755*
X97303Y392554*
X97190Y392363*
X97069Y392182*
X96939Y392012*
X96801Y391852*
X96654Y391702*
X96499Y391562*
X96336Y391432*
X96164Y391312*
X95983Y391203*
X95792Y391106*
X95589Y391020*
X95377Y390946*
X95154Y390883*
X94920Y390831*
X94676Y390791*
X94421Y390763*
X94156Y390746*
X93880Y390740*
X93614Y390747*
X93355Y390770*
X93105Y390807*
X92863Y390859*
X92630Y390927*
X92405Y391009*
X92188Y391105*
X91979Y391217*
X91779Y391343*
X91587Y391484*
X91405Y391639*
X91235Y391808*
X91076Y391990*
X90928Y392186*
X90793Y392395*
X90668Y392618*
X90556Y392854*
X90455Y393103*
X90365Y393366*
X90287Y393642*
X91437Y393933*
X91488Y393719*
X91548Y393516*
X91617Y393324*
X91695Y393143*
X91781Y392972*
X91876Y392812*
X91979Y392663*
X92091Y392525*
X92212Y392398*
X92341Y392281*
X92479Y392175*
X92622Y392080*
X92770Y391997*
X92925Y391924*
X93085Y391863*
X93252Y391813*
X93424Y391774*
X93602Y391746*
X93786Y391729*
X93976Y391724*
X94134Y391728*
X94289Y391740*
X94442Y391760*
X94593Y391789*
X94742Y391825*
X94888Y391870*
X95032Y391923*
X95174Y391985*
X95314Y392054*
X95451Y392132*
X95584Y392218*
X95709Y392313*
X95827Y392415*
X95938Y392526*
X96043Y392645*
X96139Y392773*
X96229Y392909*
X96312Y393053*
X96387Y393206*
X96455Y393367*
X96516Y393535*
X96571Y393708*
X96619Y393887*
X96661Y394072*
X96696Y394263*
X96725Y394459*
X96748Y394661*
X96764Y394868*
X96774Y395081*
X96777Y395300*
X96775Y395471*
X96766Y395641*
X96753Y395810*
X96734Y395979*
X96710Y396146*
X96680Y396312*
X96644Y396478*
X96603Y396642*
X96557Y396805*
X96505Y396968*
X96446Y397126*
X96380Y397277*
X96305Y397422*
X96222Y397561*
X96132Y397693*
X96034Y397818*
X95928Y397937*
X95814Y398050*
X95692Y398156*
X95562Y398255*
X95424Y398346*
X95280Y398428*
X95129Y398500*
X94971Y398562*
X94807Y398615*
X94636Y398658*
X94459Y398691*
X94275Y398715*
X94085Y398729*
X93888Y398734*
X93717Y398730*
X93552Y398717*
X93392Y398695*
X93239Y398665*
X93091Y398626*
X92949Y398579*
X92813Y398523*
X92683Y398458*
X92559Y398385*
X92441Y398303*
X92329Y398211*
X92222Y398109*
X92121Y397997*
X92026Y397874*
X91936Y397742*
X91851Y397598*
X91772Y397445*
X91698Y397282*
X91629Y397108*
X91566Y396924*
X90433Y397189*
X90509Y397424*
X90596Y397648*
X90693Y397862*
X90801Y398064*
X90920Y398256*
X91049Y398438*
X91189Y398608*
X91340Y398767*
X91501Y398916*
X91673Y399054*
X91855Y399180*
X92045Y399293*
X92243Y399393*
X92450Y399479*
X92664Y399552*
X92887Y399612*
X93119Y399658*
X93359Y399691*
X93607Y399711*
X93863Y399718*
X94091Y399713*
X94315Y399697*
X94535Y399670*
X94751Y399634*
X94963Y399586*
X95172Y399529*
X95377Y399461*
X95578Y399382*
X95775Y399294*
X95968Y399195*
X96155Y399084*
X96333Y398965*
X96502Y398835*
X96663Y398696*
X96815Y398548*
X96958Y398390*
X97093Y398222*
X97219Y398044*
X97337Y397857*
X97445Y397660*
X97543Y397455*
X97631Y397243*
X97709Y397023*
X97776Y396797*
X97833Y396564*
X97879Y396324*
X97916Y396077*
X97942Y395823*
X97957Y395562*
X97962Y395294*
X103707Y409082D02*
X103689Y408512D01*
X103635Y407968*
X103545Y407452*
X103418Y406963*
X103256Y406501*
X103058Y406066*
X102823Y405658*
X102553Y405277*
X102247Y404923*
X101904Y404597*
X101529Y404299*
X101122Y404032*
X100686Y403796*
X100218Y403593*
X99720Y403420*
X99191Y403279*
X98631Y403170*
X98041Y403091*
X97419Y403044*
X96767Y403029*
X96183Y403043*
X95625Y403087*
X95092Y403159*
X94584Y403260*
X94101Y403390*
X93643Y403550*
X93211Y403738*
X92803Y403955*
X92421Y404201*
X92064Y404476*
X91738Y404776*
X91446Y405097*
X91188Y405440*
X90965Y405804*
X90775Y406189*
X90621Y406595*
X90500Y407023*
X90414Y407472*
X90362Y407943*
X90345Y408435*
X90358Y408862*
X90398Y409270*
X90463Y409660*
X90554Y410030*
X90672Y410382*
X90816Y410715*
X90986Y411030*
X91182Y411325*
X91404Y411603*
X91652Y411861*
X91933Y412105*
X92252Y412341*
X92610Y412568*
X93007Y412787*
X93442Y412996*
X93916Y413197*
X94428Y413389*
X94978Y413573*
X95568Y413748*
X96195Y413915*
X98378Y414462*
X98709Y414551*
X99020Y414647*
X99311Y414748*
X99584Y414856*
X99837Y414970*
X100071Y415091*
X100286Y415218*
X100482Y415351*
X100658Y415490*
X100814Y415636*
X100954Y415789*
X101079Y415954*
X101189Y416129*
X101285Y416316*
X101366Y416513*
X101432Y416721*
X101484Y416939*
X101521Y417169*
X101543Y417409*
X101550Y417660*
X101539Y417990*
X101505Y418304*
X101449Y418604*
X101369Y418888*
X101268Y419157*
X101144Y419411*
X100997Y419649*
X100827Y419872*
X100636Y420080*
X100421Y420273*
X100186Y420449*
X99933Y420606*
X99661Y420745*
X99370Y420866*
X99061Y420968*
X98733Y421052*
X98387Y421117*
X98022Y421164*
X97638Y421192*
X97236Y421201*
X96810Y421190*
X96402Y421157*
X96015Y421103*
X95647Y421027*
X95298Y420929*
X94969Y420810*
X94659Y420669*
X94369Y420506*
X94098Y420321*
X93847Y420115*
X93618Y419889*
X93412Y419645*
X93230Y419382*
X93070Y419102*
X92935Y418803*
X92822Y418486*
X92733Y418151*
X92667Y417798*
X92624Y417427*
X92605Y417038*
X90865*
X90889Y417564*
X90945Y418066*
X91034Y418545*
X91155Y419000*
X91308Y419430*
X91494Y419837*
X91712Y420220*
X91962Y420579*
X92244Y420914*
X92558Y421226*
X92903Y421510*
X93273Y421765*
X93669Y421989*
X94091Y422184*
X94538Y422348*
X95011Y422483*
X95510Y422587*
X96034Y422662*
X96584Y422707*
X97160Y422722*
X97704Y422708*
X98226Y422667*
X98726Y422598*
X99204Y422502*
X99659Y422379*
X100092Y422228*
X100503Y422050*
X100891Y421844*
X101257Y421611*
X101601Y421351*
X101917Y421068*
X102200Y420768*
X102449Y420449*
X102665Y420112*
X102848Y419757*
X102997Y419384*
X103114Y418993*
X103197Y418584*
X103247Y418156*
X103263Y417711*
X103252Y417309*
X103220Y416926*
X103165Y416561*
X103089Y416214*
X102990Y415886*
X102869Y415576*
X102727Y415284*
X102562Y415011*
X102375Y414757*
X102166Y414521*
X101929Y414297*
X101657Y414082*
X101349Y413875*
X101005Y413675*
X100627Y413484*
X100212Y413301*
X99763Y413125*
X99278Y412958*
X98757Y412799*
X98201Y412648*
X96423Y412204*
X95918Y412067*
X95448Y411928*
X95012Y411785*
X94611Y411639*
X94245Y411489*
X93914Y411336*
X93617Y411180*
X93355Y411021*
X93128Y410859*
X92935Y410693*
X92769Y410518*
X92620Y410327*
X92488Y410122*
X92374Y409901*
X92278Y409665*
X92199Y409414*
X92137Y409148*
X92093Y408866*
X92067Y408569*
X92058Y408257*
X92071Y407919*
X92108Y407596*
X92171Y407289*
X92259Y406995*
X92371Y406717*
X92509Y406454*
X92671Y406205*
X92859Y405972*
X93071Y405753*
X93308Y405549*
X93568Y405362*
X93846Y405194*
X94143Y405046*
X94458Y404918*
X94792Y404810*
X95145Y404721*
X95516Y404652*
X95906Y404603*
X96315Y404574*
X96742Y404564*
X97228Y404576*
X97692Y404613*
X98134Y404673*
X98553Y404759*
X98950Y404868*
X99324Y405003*
X99676Y405161*
X100006Y405344*
X100314Y405551*
X100599Y405783*
X100860Y406036*
X101094Y406310*
X101301Y406603*
X101481Y406915*
X101634Y407248*
X101760Y407600*
X101859Y407972*
X101931Y408364*
X101976Y408776*
X101994Y409208*
X103707*
Y409082*
X105695Y390888D02*
X99216D01*
Y391913*
X104546*
Y394869*
X99744*
Y395886*
X104546*
Y398546*
X99418*
Y399570*
X105695*
Y390888*
X110023Y390740D02*
X109166D01*
X106654Y399718*
X107507*
X110023Y390740*
X116263Y393163D02*
X116236Y392948D01*
X116196Y392742*
X116143Y392545*
X116077Y392356*
X115998Y392176*
X115906Y392004*
X115802Y391841*
X115684Y391687*
X115554Y391541*
X115410Y391404*
X115256Y391278*
X115093Y391165*
X114921Y391065*
X114741Y390979*
X114552Y390906*
X114354Y390846*
X114147Y390800*
X113932Y390766*
X113709Y390746*
X113476Y390740*
X113193Y390750*
X112922Y390782*
X112663Y390835*
X112417Y390908*
X112183Y391003*
X111961Y391119*
X111751Y391256*
X111554Y391414*
X111368Y391593*
X111195Y391794*
X111065Y391969*
X110949Y392151*
X110846Y392339*
X110757Y392533*
X110682Y392734*
X110620Y392941*
X110571Y393154*
X110537Y393373*
X110516Y393599*
X110509Y393832*
X110517Y394075*
X110540Y394309*
X110580Y394534*
X110634Y394750*
X110705Y394957*
X110790Y395155*
X110892Y395344*
X111009Y395524*
X111143Y395695*
X111291Y395857*
X111451Y396006*
X111618Y396140*
X111792Y396258*
X111973Y396361*
X112161Y396447*
X112357Y396518*
X112559Y396573*
X112769Y396612*
X112985Y396636*
X113209Y396644*
X113381Y396638*
X113550Y396622*
X113718Y396595*
X113885Y396557*
X114049Y396507*
X114213Y396447*
X114374Y396377*
X114535Y396295*
X114694Y396202*
X114851Y396099*
X114382Y398433*
X110918*
Y399451*
X115234*
X116076Y394992*
X115076Y394863*
X115027Y394936*
X114974Y395006*
X114917Y395073*
X114857Y395138*
X114794Y395200*
X114727Y395259*
X114657Y395316*
X114583Y395370*
X114505Y395421*
X114423Y395470*
X114339Y395514*
X114253Y395554*
X114165Y395589*
X114075Y395619*
X113983Y395645*
X113889Y395666*
X113793Y395682*
X113696Y395694*
X113596Y395701*
X113494Y395703*
X113332Y395698*
X113175Y395682*
X113025Y395655*
X112882Y395618*
X112744Y395571*
X112614Y395513*
X112489Y395444*
X112371Y395365*
X112259Y395275*
X112154Y395175*
X112057Y395066*
X111969Y394950*
X111892Y394825*
X111826Y394693*
X111769Y394553*
X111723Y394405*
X111687Y394250*
X111661Y394087*
X111645Y393916*
X111640Y393738*
X111646Y393549*
X111662Y393368*
X111688Y393195*
X111726Y393030*
X111774Y392872*
X111832Y392722*
X111902Y392579*
X111982Y392445*
X112072Y392318*
X112173Y392199*
X112282Y392088*
X112396Y391989*
X112515Y391902*
X112638Y391826*
X112766Y391762*
X112898Y391710*
X113035Y391669*
X113178Y391640*
X113324Y391623*
X113476Y391617*
X113602Y391621*
X113725Y391633*
X113843Y391654*
X113958Y391683*
X114069Y391720*
X114177Y391765*
X114281Y391819*
X114381Y391881*
X114477Y391951*
X114570Y392029*
X114657Y392115*
X114738Y392209*
X114812Y392312*
X114879Y392422*
X114940Y392541*
X114994Y392668*
X115042Y392803*
X115083Y392946*
X115118Y393097*
X115146Y393257*
X116263Y393163*
X117302Y395408D02*
X117306Y395720D01*
X117317Y396017*
X117335Y396299*
X117360Y396566*
X117393Y396817*
X117433Y397054*
X117480Y397275*
X117535Y397481*
X117597Y397673*
X117666Y397849*
X117743Y398014*
X117826Y398171*
X117916Y398320*
X118012Y398462*
X118115Y398596*
X118225Y398722*
X118341Y398841*
X118464Y398951*
X118486Y398969*
Y396728*
X118491Y396548*
X118505Y396377*
X118529Y396213*
X118562Y396057*
X118605Y395910*
X118657Y395770*
X118719Y395638*
X118791Y395515*
X118872Y395399*
X118962Y395292*
X119060Y395193*
X119163Y395105*
X119272Y395028*
X119385Y394960*
X119504Y394903*
X119629Y394856*
X119758Y394820*
X119893Y394794*
X120034Y394778*
X120179Y394773*
X120324Y394778*
X120463Y394794*
X120599Y394820*
X120729Y394856*
X120855Y394903*
X120977Y394960*
X121093Y395028*
X121206Y395105*
X121313Y395193*
X121416Y395292*
X121511Y395398*
X121596Y395511*
X121670Y395630*
X121735Y395755*
X121790Y395887*
X121835Y396025*
X121869Y396169*
X121894Y396319*
X121909Y396475*
X121914Y396638*
X121909Y396819*
X121893Y396994*
X121867Y397162*
X121830Y397323*
X121782Y397477*
X121724Y397624*
X121656Y397764*
X121576Y397898*
X121487Y398024*
X121386Y398144*
X121279Y398254*
X121168Y398352*
X121054Y398439*
X120936Y398514*
X120814Y398578*
X120689Y398631*
X120559Y398671*
X120427Y398700*
X120290Y398718*
X120150Y398724*
X120015Y398718*
X119883Y398702*
X119755Y398675*
X119632Y398637*
X119513Y398589*
X119397Y398530*
X119286Y398460*
X119179Y398379*
X119075Y398287*
X118976Y398185*
X118883Y398073*
X118799Y397954*
X118726Y397827*
X118662Y397693*
X118608Y397551*
X118564Y397401*
X118530Y397244*
X118506Y397080*
X118491Y396907*
X118486Y396728*
Y398969*
X118594Y399054*
X118730Y399150*
X118873Y399236*
X119018Y399314*
X119166Y399382*
X119317Y399442*
X119470Y399492*
X119626Y399533*
X119785Y399565*
X119947Y399588*
X120112Y399602*
X120279Y399607*
X120510Y399599*
X120733Y399574*
X120948Y399534*
X121155Y399477*
X121354Y399405*
X121546Y399316*
X121729Y399211*
X121905Y399090*
X122072Y398953*
X122232Y398800*
X122380Y398634*
X122512Y398457*
X122629Y398270*
X122730Y398073*
X122816Y397866*
X122886Y397648*
X122941Y397420*
X122980Y397182*
X123003Y396933*
X123011Y396675*
X123004Y396424*
X122981Y396183*
X122944Y395952*
X122892Y395731*
X122824Y395519*
X122742Y395318*
X122645Y395127*
X122533Y394945*
X122407Y394774*
X122265Y394613*
X122113Y394465*
X121953Y394332*
X121787Y394215*
X121615Y394113*
X121435Y394027*
X121250Y393957*
X121057Y393902*
X120858Y393863*
X120653Y393840*
X120441Y393832*
X120313Y393835*
X120186Y393844*
X120061Y393860*
X119938Y393882*
X119817Y393911*
X119698Y393946*
X119581Y393987*
X119466Y394035*
X119353Y394089*
X119242Y394150*
X119134Y394215*
X119030Y394284*
X118931Y394357*
X118836Y394434*
X118746Y394514*
X118661Y394599*
X118580Y394687*
X118505Y394779*
X118434Y394874*
X118367Y394974*
X118366Y394946*
X118365Y394920*
X118364Y394895*
X118363Y394872*
Y394850*
X118362Y394829*
Y394810*
X118361Y394792*
Y394776*
Y394761*
X118363Y394629*
X118368Y394497*
X118376Y394366*
X118387Y394235*
X118402Y394104*
X118420Y393974*
X118440Y393845*
X118464Y393715*
X118491Y393586*
X118521Y393458*
X118554Y393333*
X118588Y393213*
X118624Y393099*
X118661Y392990*
X118700Y392886*
X118741Y392787*
X118783Y392694*
X118826Y392605*
X118871Y392522*
X118918Y392445*
X118967Y392371*
X119018Y392300*
X119072Y392232*
X119129Y392167*
X119188Y392105*
X119250Y392047*
X119315Y391991*
X119382Y391938*
X119452Y391889*
X119525Y391843*
X119601Y391800*
X119679Y391762*
X119759Y391728*
X119842Y391698*
X119927Y391674*
X120014Y391653*
X120103Y391637*
X120195Y391626*
X120290Y391619*
X120386Y391617*
X120500Y391620*
X120609Y391630*
X120713Y391646*
X120814Y391669*
X120910Y391698*
X121002Y391734*
X121090Y391777*
X121174Y391826*
X121253Y391881*
X121328Y391943*
X121399Y392012*
X121465Y392089*
X121527Y392174*
X121584Y392267*
X121636Y392368*
X121683Y392476*
X121726Y392593*
X121764Y392718*
X121798Y392851*
X121826Y392992*
X122849Y392896*
X122818Y392695*
X122777Y392504*
X122725Y392322*
X122663Y392149*
X122591Y391986*
X122508Y391831*
X122415Y391686*
X122312Y391550*
X122199Y391423*
X122076Y391306*
X121943Y391198*
X121802Y391102*
X121654Y391017*
X121499Y390944*
X121336Y390881*
X121166Y390830*
X120988Y390791*
X120803Y390763*
X120610Y390746*
X120410Y390740*
X120221Y390745*
X120037Y390760*
X119857Y390786*
X119683Y390822*
X119513Y390869*
X119348Y390926*
X119189Y390993*
X119034Y391071*
X118883Y391159*
X118738Y391257*
X118599Y391364*
X118466Y391481*
X118341Y391608*
X118223Y391744*
X118112Y391889*
X118008Y392044*
X117911Y392208*
X117821Y392382*
X117738Y392565*
X117662Y392757*
X117594Y392961*
X117532Y393178*
X117478Y393409*
X117431Y393654*
X117392Y393912*
X117360Y394185*
X117334Y394470*
X117317Y394769*
X117306Y395082*
X117302Y395408*
X121117Y403549D02*
X119406D01*
Y412597*
X108720*
Y403549*
X106980*
Y422240*
X108720*
Y414132*
X119406*
Y422240*
X121117*
Y403549*
X124238Y410275D02*
X124255Y410937D01*
X124304Y411568*
X124385Y412169*
X124500Y412740*
X124647Y413280*
X124826Y413789*
X125038Y414268*
X125283Y414716*
X125560Y415134*
X125869Y415521*
X125877Y415529*
Y410275*
X125889Y409739*
X125925Y409228*
X125985Y408743*
X126068Y408282*
X126176Y407847*
X126307Y407437*
X126462Y407052*
X126641Y406693*
X126844Y406358*
X127070Y406049*
X127319Y405767*
X127587Y405515*
X127876Y405292*
X128184Y405099*
X128513Y404935*
X128861Y404802*
X129230Y404698*
X129619Y404623*
X130028Y404579*
X130457Y404564*
X130881Y404579*
X131286Y404624*
X131671Y404698*
X132037Y404803*
X132384Y404938*
X132711Y405103*
X133019Y405297*
X133308Y405522*
X133577Y405777*
X133826Y406062*
X134054Y406373*
X134259Y406709*
X134438Y407070*
X134594Y407454*
X134726Y407863*
X134834Y408297*
X134918Y408755*
X134977Y409237*
X135013Y409744*
X135025Y410275*
X135013Y410808*
X134977Y411316*
X134918Y411800*
X134834Y412260*
X134726Y412694*
X134594Y413104*
X134438Y413490*
X134259Y413851*
X134054Y414187*
X133826Y414499*
X133577Y414783*
X133308Y415038*
X133019Y415263*
X132711Y415457*
X132384Y415622*
X132037Y415757*
X131671Y415862*
X131286Y415937*
X130881Y415982*
X130457Y415997*
X130028Y415982*
X129619Y415937*
X129230Y415862*
X128861Y415758*
X128513Y415624*
X128184Y415459*
X127876Y415265*
X127587Y415042*
X127319Y414788*
X127070Y414505*
X126844Y414194*
X126641Y413859*
X126462Y413498*
X126307Y413112*
X126176Y412702*
X126068Y412266*
X125985Y411806*
X125925Y411321*
X125889Y410810*
X125877Y410275*
Y415529*
X126209Y415874*
X126575Y416190*
X126968Y416468*
X127387Y416710*
X127832Y416915*
X128304Y417082*
X128803Y417212*
X129328Y417305*
X129879Y417361*
X130457Y417380*
X131033Y417361*
X131581Y417305*
X132104Y417212*
X132599Y417082*
X133069Y416915*
X133511Y416710*
X133928Y416468*
X134317Y416190*
X134681Y415874*
X135017Y415521*
X135325Y415134*
X135600Y414716*
X135843Y414268*
X136054Y413789*
X136232Y413280*
X136377Y412740*
X136491Y412169*
X136572Y411568*
X136620Y410937*
X136636Y410275*
X136620Y409615*
X136572Y408986*
X136491Y408388*
X136377Y407820*
X136232Y407282*
X136054Y406775*
X135843Y406299*
X135600Y405854*
X135325Y405438*
X135017Y405054*
X134681Y404703*
X134317Y404389*
X133928Y404112*
X133511Y403871*
X133069Y403668*
X132599Y403502*
X132104Y403373*
X131581Y403281*
X131033Y403225*
X130457Y403207*
X129876Y403225*
X129323Y403281*
X128796Y403373*
X128296Y403503*
X127823Y403670*
X127377Y403874*
X126958Y404115*
X126566Y404392*
X126201Y404708*
X125863Y405060*
X125554Y405445*
X125278Y405861*
X125034Y406307*
X124823Y406783*
X124644Y407289*
X124498Y407826*
X124384Y408393*
X124303Y408990*
X124254Y409617*
X124238Y410275*
X126882Y390740D02*
X126023D01*
X123513Y399718*
X124365*
X126882Y390740*
X133260Y390965D02*
X133259Y390888D01*
X127523*
Y391913*
X131779*
X131743Y391971*
X131705Y392029*
X131665Y392087*
X131623Y392145*
X131579Y392203*
X131533Y392261*
X131485Y392318*
X131435Y392376*
X131384Y392434*
X131330Y392492*
X131269Y392554*
X131193Y392627*
X131104Y392710*
X131002Y392804*
X130885Y392908*
X130755Y393022*
X130611Y393146*
X130453Y393281*
X130282Y393427*
X130097Y393583*
X129875Y393773*
X129665Y393955*
X129468Y394128*
X129285Y394293*
X129114Y394450*
X128956Y394599*
X128811Y394739*
X128679Y394872*
X128561Y394995*
X128455Y395111*
X128359Y395222*
X128269Y395331*
X128184Y395440*
X128105Y395548*
X128031Y395654*
X127963Y395760*
X127901Y395864*
X127845Y395968*
X127794Y396070*
X127748Y396171*
X127708Y396272*
X127671Y396373*
X127639Y396475*
X127612Y396577*
X127588Y396679*
X127569Y396782*
X127554Y396885*
X127544Y396988*
X127537Y397091*
X127535Y397195*
X127543Y397396*
X127564Y397591*
X127601Y397780*
X127651Y397962*
X127717Y398137*
X127797Y398305*
X127891Y398467*
X128000Y398622*
X128123Y398770*
X128261Y398912*
X128413Y399044*
X128574Y399162*
X128746Y399266*
X128929Y399356*
X129121Y399433*
X129324Y399495*
X129538Y399544*
X129762Y399579*
X129996Y399600*
X130240Y399607*
X130483Y399600*
X130715Y399581*
X130938Y399549*
X131150Y399504*
X131352Y399446*
X131544Y399375*
X131726Y399291*
X131898Y399194*
X132060Y399084*
X132212Y398962*
X132353Y398828*
X132481Y398682*
X132597Y398525*
X132700Y398355*
X132791Y398175*
X132869Y397982*
X132935Y397778*
X132989Y397562*
X133030Y397334*
X133058Y397095*
X131962Y396982*
X131957Y397142*
X131942Y397295*
X131918Y397440*
X131885Y397579*
X131843Y397710*
X131791Y397835*
X131731Y397952*
X131661Y398062*
X131582Y398165*
X131494Y398261*
X131399Y398349*
X131298Y398428*
X131190Y398497*
X131076Y398557*
X130956Y398608*
X130830Y398650*
X130698Y398682*
X130559Y398705*
X130414Y398719*
X130263Y398724*
X130120Y398719*
X129983Y398706*
X129851Y398684*
X129725Y398654*
X129604Y398615*
X129488Y398567*
X129379Y398510*
X129274Y398445*
X129176Y398371*
X129082Y398288*
X128996Y398199*
X128919Y398105*
X128851Y398008*
X128792Y397907*
X128742Y397802*
X128701Y397693*
X128669Y397580*
X128647Y397463*
X128633Y397342*
X128628Y397218*
X128633Y397097*
X128648Y396974*
X128673Y396849*
X128708Y396724*
X128753Y396596*
X128808Y396468*
X128873Y396337*
X128947Y396205*
X129032Y396072*
X129127Y395937*
X129236Y395796*
X129363Y395646*
X129508Y395486*
X129672Y395317*
X129854Y395138*
X130054Y394949*
X130273Y394751*
X130511Y394543*
X130767Y394326*
X131041Y394099*
X131219Y393951*
X131388Y393807*
X131549Y393667*
X131701Y393530*
X131844Y393397*
X131979Y393267*
X132105Y393141*
X132223Y393019*
X132332Y392900*
X132433Y392785*
X132527Y392671*
X132616Y392557*
X132699Y392442*
X132777Y392327*
X132850Y392212*
X132918Y392096*
X132980Y391979*
X133037Y391863*
X133089Y391745*
X133136Y391628*
X133161Y391557*
X133184Y391485*
X133203Y391413*
X133220Y391340*
X133234Y391266*
X133245Y391192*
X133253Y391117*
X133258Y391041*
X133260Y390965*
X134207Y395169D02*
X134209Y395422D01*
X134215Y395665*
X134225Y395896*
X134239Y396118*
X134257Y396328*
X134278Y396528*
X134304Y396717*
X134333Y396896*
X134367Y397064*
X134404Y397222*
X134445Y397372*
X134489Y397517*
X134535Y397658*
X134584Y397794*
X134637Y397925*
X134692Y398052*
X134750Y398174*
X134811Y398292*
X134875Y398405*
X134941Y398513*
X135012Y398616*
X135086Y398715*
X135164Y398809*
X135246Y398897*
X135302Y398952*
Y395169*
X135307Y394757*
X135322Y394374*
X135348Y394019*
X135383Y393692*
X135428Y393394*
X135483Y393124*
X135549Y392883*
X135624Y392669*
X135709Y392484*
X135804Y392328*
X135907Y392193*
X136014Y392071*
X136125Y391965*
X136242Y391872*
X136363Y391794*
X136488Y391730*
X136618Y391681*
X136753Y391645*
X136893Y391624*
X137037Y391617*
X137182Y391624*
X137323Y391645*
X137458Y391681*
X137589Y391730*
X137715Y391794*
X137836Y391872*
X137952Y391964*
X138064Y392070*
X138171Y392191*
X138273Y392326*
X138368Y392481*
X138454Y392665*
X138529Y392878*
X138594Y393119*
X138649Y393390*
X138693Y393688*
X138728Y394016*
X138753Y394371*
X138768Y394756*
X138773Y395169*
X138768Y395583*
X138751Y395971*
X138724Y396331*
X138685Y396665*
X138635Y396971*
X138575Y397251*
X138503Y397504*
X138420Y397730*
X138327Y397929*
X138222Y398101*
X138132Y398219*
X138036Y398325*
X137934Y398418*
X137825Y398499*
X137711Y398568*
X137591Y398624*
X137465Y398668*
X137333Y398699*
X137195Y398718*
X137050Y398724*
X136903Y398717*
X136762Y398696*
X136625Y398660*
X136493Y398611*
X136366Y398547*
X136244Y398470*
X136127Y398378*
X136014Y398272*
X135907Y398153*
X135804Y398019*
X135709Y397863*
X135624Y397679*
X135549Y397466*
X135483Y397224*
X135428Y396954*
X135383Y396654*
X135348Y396326*
X135322Y395969*
X135307Y395583*
X135302Y395169*
Y398952*
X135331Y398981*
X135420Y399059*
X135513Y399133*
X135609Y399201*
X135709Y399265*
X135812Y399324*
X135919Y399377*
X136029Y399425*
X136143Y399467*
X136261Y399504*
X136382Y399535*
X136506Y399561*
X136634Y399581*
X136765Y399595*
X136899Y399604*
X137037Y399607*
X137224Y399602*
X137404Y399586*
X137578Y399561*
X137745Y399525*
X137905Y399479*
X138059Y399423*
X138207Y399356*
X138348Y399279*
X138483Y399192*
X138611Y399095*
X138733Y398989*
X138849Y398875*
X138958Y398752*
X139061Y398620*
X139158Y398480*
X139249Y398331*
X139334Y398173*
X139412Y398007*
X139484Y397832*
X139550Y397648*
X139611Y397454*
X139665Y397249*
X139713Y397031*
X139755Y396801*
X139790Y396559*
X139818Y396306*
X139841Y396040*
X139857Y395761*
X139866Y395471*
X139869Y395169*
X139861Y394694*
X139835Y394246*
X139792Y393825*
X139732Y393431*
X139654Y393065*
X139560Y392725*
X139448Y392413*
X139319Y392128*
X139173Y391870*
X139009Y391640*
X138861Y391469*
X138701Y391316*
X138531Y391181*
X138351Y391064*
X138159Y390965*
X137957Y390884*
X137743Y390821*
X137519Y390776*
X137284Y390749*
X137037Y390740*
X136851Y390745*
X136670Y390760*
X136496Y390786*
X136329Y390822*
X136168Y390868*
X136013Y390925*
X135865Y390992*
X135724Y391069*
X135589Y391156*
X135461Y391253*
X135339Y391359*
X135223Y391474*
X135113Y391598*
X135010Y391730*
X134913Y391871*
X134822Y392020*
X134737Y392178*
X134659Y392345*
X134587Y392520*
X134521Y392703*
X134462Y392897*
X134408Y393102*
X134361Y393319*
X134320Y393548*
X134286Y393789*
X134258Y394042*
X134236Y394306*
X134220Y394582*
X134210Y394870*
X134207Y395169*
X138919Y403803D02*
X138967Y403846D01*
X139013Y403893*
X139057Y403946*
X139099Y404002*
X139140Y404063*
X139178Y404129*
X139215Y404199*
X139250Y404274*
X139283Y404353*
X139314Y404437*
X139343Y404526*
X139370Y404619*
X139396Y404717*
X139419Y404819*
X139440Y404926*
X139459Y405038*
X139477Y405154*
X139492Y405274*
X139506Y405399*
X139517Y405529*
X139757Y408333*
X139801Y408794*
X139851Y409223*
X139906Y409620*
X139967Y409985*
X140034Y410319*
X140107Y410620*
X140186Y410889*
X140270Y411126*
X140361Y411331*
X140457Y411505*
X140562Y411658*
X140680Y411804*
X140811Y411941*
X140956Y412070*
X141113Y412191*
X141283Y412304*
X141466Y412408*
X141662Y412505*
X141871Y412593*
X142093Y412674*
X141806Y412782*
X141532Y412903*
X141273Y413038*
X141027Y413187*
X140795Y413349*
X140578Y413524*
X140374Y413713*
X140184Y413916*
X140008Y414131*
X139845Y414361*
X139699Y414602*
X139567Y414855*
X139452Y415118*
X139351Y415392*
X139267Y415677*
X139197Y415973*
X139143Y416280*
X139105Y416598*
X139082Y416926*
X139074Y417265*
X139080Y417541*
X139098Y417812*
X139128Y418076*
X139169Y418335*
X139222Y418587*
X139288Y418833*
X139365Y419073*
X139454Y419308*
X139555Y419536*
X139668Y419759*
X139793Y419974*
X139927Y420179*
X140072Y420375*
X140227Y420561*
X140392Y420738*
X140568Y420905*
X140753Y421062*
X140849Y421135*
Y417216*
X140861Y416828*
X140895Y416463*
X140953Y416120*
X141033Y415799*
X141136Y415500*
X141262Y415223*
X141412Y414968*
X141584Y414735*
X141778Y414524*
X141996Y414336*
X142241Y414167*
X142515Y414015*
X142818Y413882*
X143150Y413766*
X143512Y413669*
X143903Y413589*
X144323Y413527*
X144773Y413482*
X145251Y413456*
X145759Y413447*
X150720*
Y420707*
X145861*
X145541Y420705*
X145239Y420701*
X144955Y420693*
X144690Y420682*
X144444Y420668*
X144216Y420651*
X144006Y420631*
X143815Y420608*
X143643Y420582*
X143488Y420553*
X143346Y420520*
X143208Y420484*
X143073Y420443*
X142943Y420398*
X142817Y420350*
X142695Y420297*
X142577Y420240*
X142462Y420179*
X142352Y420113*
X142246Y420044*
X142114Y419952*
X141989Y419855*
X141870Y419752*
X141757Y419643*
X141651Y419527*
X141551Y419407*
X141456Y419280*
X141369Y419147*
X141287Y419009*
X141211Y418865*
X141142Y418716*
X141080Y418563*
X141026Y418407*
X140979Y418248*
X140939Y418085*
X140907Y417918*
X140882Y417748*
X140864Y417574*
X140853Y417397*
X140849Y417216*
Y421135*
X140948Y421210*
X141154Y421349*
X141369Y421478*
X141516Y421557*
X141669Y421631*
X141826Y421701*
X141988Y421767*
X142155Y421828*
X142327Y421884*
X142504Y421935*
X142685Y421982*
X142871Y422024*
X143062Y422062*
X143269Y422096*
X143499Y422126*
X143754Y422153*
X144032Y422176*
X144334Y422195*
X144660Y422211*
X145010Y422224*
X145385Y422233*
X145783Y422238*
X146205Y422240*
X152433*
Y403549*
X150720*
Y411912*
X145265*
X144843Y411905*
X144450Y411884*
X144087Y411849*
X143752Y411799*
X143447Y411736*
X143170Y411658*
X142924Y411567*
X142706Y411461*
X142518Y411341*
X142359Y411207*
X142220Y411048*
X142091Y410851*
X141973Y410617*
X141866Y410346*
X141769Y410038*
X141683Y409692*
X141608Y409310*
X141543Y408890*
X141489Y408433*
X141445Y407939*
X141230Y405466*
X141219Y405331*
X141208Y405200*
X141195Y405074*
X141181Y404951*
X141167Y404833*
X141151Y404720*
X141134Y404611*
X141117Y404506*
X141098Y404406*
X141078Y404310*
X141057Y404218*
X141035Y404129*
X141012Y404044*
X140988Y403963*
X140963Y403885*
X140937Y403811*
X140911Y403740*
X140883Y403673*
X140854Y403609*
X140824Y403549*
X138919*
Y403803*
X140953Y395169D02*
X140955Y395422D01*
X140961Y395665*
X140970Y395896*
X140983Y396118*
X141001Y396328*
X141022Y396528*
X141047Y396717*
X141076Y396896*
X141109Y397064*
X141146Y397222*
X141187Y397372*
X141231Y397517*
X141277Y397658*
X141327Y397794*
X141380Y397925*
X141435Y398052*
X141494Y398174*
X141555Y398292*
X141620Y398405*
X141687Y398513*
X141758Y398616*
X141832Y398715*
X141910Y398809*
X141992Y398897*
X142048Y398953*
Y395169*
X142053Y394757*
X142068Y394374*
X142093Y394019*
X142128Y393692*
X142173Y393394*
X142228Y393124*
X142293Y392883*
X142368Y392669*
X142453Y392484*
X142548Y392328*
X142650Y392193*
X142757Y392071*
X142869Y391965*
X142985Y391872*
X143107Y391794*
X143232Y391730*
X143363Y391681*
X143499Y391645*
X143639Y391624*
X143783Y391617*
X143928Y391624*
X144068Y391645*
X144203Y391681*
X144333Y391730*
X144459Y391794*
X144580Y391872*
X144696Y391964*
X144808Y392070*
X144915Y392191*
X145017Y392326*
X145112Y392481*
X145198Y392665*
X145273Y392878*
X145338Y393119*
X145393Y393390*
X145437Y393688*
X145472Y394016*
X145497Y394371*
X145512Y394756*
X145517Y395169*
X145512Y395583*
X145495Y395971*
X145468Y396331*
X145429Y396665*
X145380Y396971*
X145320Y397251*
X145248Y397504*
X145166Y397730*
X145073Y397929*
X144968Y398101*
X144877Y398219*
X144781Y398325*
X144678Y398418*
X144570Y398499*
X144456Y398568*
X144336Y398624*
X144210Y398668*
X144078Y398699*
X143940Y398718*
X143796Y398724*
X143649Y398717*
X143507Y398696*
X143370Y398660*
X143237Y398611*
X143110Y398547*
X142988Y398470*
X142870Y398378*
X142758Y398272*
X142650Y398153*
X142548Y398019*
X142453Y397863*
X142368Y397679*
X142293Y397466*
X142228Y397224*
X142173Y396954*
X142128Y396654*
X142093Y396326*
X142068Y395969*
X142053Y395583*
X142048Y395169*
Y398953*
X142077Y398981*
X142166Y399059*
X142258Y399133*
X142354Y399201*
X142453Y399265*
X142556Y399324*
X142664Y399377*
X142774Y399425*
X142888Y399467*
X143006Y399504*
X143127Y399535*
X143251Y399561*
X143379Y399581*
X143510Y399595*
X143645Y399604*
X143783Y399607*
X143969Y399602*
X144149Y399586*
X144322Y399561*
X144489Y399525*
X144650Y399479*
X144804Y399423*
X144952Y399356*
X145093Y399279*
X145227Y399192*
X145355Y399095*
X145477Y398989*
X145593Y398875*
X145702Y398752*
X145806Y398620*
X145903Y398480*
X145994Y398331*
X146079Y398173*
X146158Y398007*
X146230Y397832*
X146296Y397648*
X146356Y397454*
X146410Y397249*
X146458Y397031*
X146499Y396801*
X146534Y396559*
X146562Y396306*
X146585Y396040*
X146601Y395761*
X146610Y395471*
X146613Y395169*
X146605Y394694*
X146579Y394246*
X146536Y393825*
X146476Y393431*
X146399Y393065*
X146305Y392725*
X146193Y392413*
X146065Y392128*
X145919Y391870*
X145755Y391640*
X145606Y391469*
X145447Y391316*
X145277Y391181*
X145095Y391064*
X144904Y390965*
X144701Y390884*
X144488Y390821*
X144263Y390776*
X144029Y390749*
X143783Y390740*
X143596Y390745*
X143414Y390760*
X143240Y390786*
X143072Y390822*
X142911Y390868*
X142757Y390925*
X142609Y390992*
X142468Y391069*
X142333Y391156*
X142205Y391253*
X142084Y391359*
X141968Y391474*
X141859Y391598*
X141755Y391730*
X141658Y391871*
X141567Y392020*
X141483Y392178*
X141404Y392345*
X141332Y392520*
X141265Y392703*
X141206Y392897*
X141153Y393102*
X141106Y393319*
X141065Y393548*
X141031Y393789*
X141003Y394042*
X140981Y394306*
X140966Y394582*
X140956Y394870*
X140953Y395169*
X146414Y441711D02*
X144981Y441236D01*
X143429Y439786*
X141823Y437601*
X140225Y434924*
X138699Y431996*
X137308Y429058*
X136115Y426353*
X135185Y424121*
X134581Y422605*
X134365Y422046*
X126322Y428335*
X125249Y430853*
X123850Y433658*
X122154Y436697*
X120187Y439920*
X117977Y443275*
X115551Y446711*
X112936Y450177*
X110160Y453622*
X107249Y456994*
X104232Y460243*
X102882Y461717*
X101469Y463191*
X100041Y464629*
X98647Y465994*
X97335Y467249*
X96152Y468359*
X95149Y469286*
X94372Y469993*
X93871Y470444*
X93693Y470603*
X93724Y470645*
X93809Y470761*
X93935Y470934*
X94090Y471148*
X94262Y471387*
X94438Y471634*
X94606Y471875*
X94754Y472091*
X94869Y472268*
X94939Y472389*
X95270Y472254*
X95622Y472084*
X95981Y471891*
X96335Y471685*
X96670Y471480*
X96973Y471286*
X97232Y471115*
X97433Y470979*
X97563Y470889*
X97609Y470856*
X99181Y469892*
X100772Y468836*
X102374Y467698*
X103979Y466487*
X105579Y465210*
X107165Y463876*
X108730Y462496*
X110265Y461077*
X111761Y459628*
X113211Y458158*
X116243Y454900*
X119083Y451648*
X121701Y448481*
X124066Y445479*
X126150Y442720*
X127922Y440286*
X129352Y438254*
X130411Y436704*
X131068Y435716*
X131293Y435369*
X131354Y435500*
X131530Y435874*
X131812Y436463*
X132189Y437237*
X132651Y438167*
X133190Y439225*
X133794Y440381*
X134454Y441607*
X135160Y442873*
X135902Y444151*
X136169Y444459*
X136441Y444752*
X136717Y445029*
X136997Y445287*
X137280Y445526*
X137567Y445744*
X137856Y445939*
X138149Y446110*
X138445Y446256*
X138742Y446375*
X139596Y446467*
X140550Y446242*
X141560Y445771*
X142579Y445129*
X143565Y444386*
X144471Y443616*
X145254Y442891*
X145869Y442284*
X146270Y441866*
X146414Y441711*
X153497Y390965D02*
X153496Y390888D01*
X147755*
Y391913*
X152015*
X151979Y391971*
X151940Y392029*
X151899Y392087*
X151857Y392145*
X151813Y392203*
X151766Y392261*
X151719Y392318*
X151669Y392376*
X151617Y392434*
X151564Y392492*
X151503Y392554*
X151428Y392627*
X151339Y392710*
X151236Y392804*
X151120Y392908*
X150990Y393022*
X150846Y393146*
X150689Y393281*
X150517Y393427*
X150332Y393583*
X150109Y393773*
X149899Y393955*
X149702Y394128*
X149518Y394293*
X149347Y394450*
X149189Y394599*
X149045Y394739*
X148914Y394872*
X148796Y394995*
X148691Y395111*
X148595Y395222*
X148504Y395331*
X148418Y395440*
X148339Y395548*
X148265Y395654*
X148197Y395760*
X148135Y395864*
X148078Y395968*
X148027Y396070*
X147982Y396171*
X147941Y396272*
X147905Y396373*
X147873Y396475*
X147845Y396577*
X147821Y396679*
X147802Y396782*
X147787Y396885*
X147776Y396988*
X147769Y397091*
X147767Y397195*
X147775Y397396*
X147797Y397591*
X147833Y397780*
X147884Y397962*
X147950Y398137*
X148030Y398305*
X148125Y398467*
X148234Y398622*
X148358Y398770*
X148496Y398912*
X148647Y399044*
X148809Y399162*
X148980Y399266*
X149162Y399356*
X149355Y399433*
X149558Y399495*
X149771Y399544*
X149995Y399579*
X150229Y399600*
X150474Y399607*
X150716Y399600*
X150949Y399581*
X151171Y399549*
X151383Y399504*
X151586Y399446*
X151778Y399375*
X151960Y399291*
X152132Y399194*
X152294Y399084*
X152445Y398962*
X152587Y398828*
X152715Y398682*
X152831Y398525*
X152935Y398355*
X153026Y398175*
X153104Y397982*
X153170Y397778*
X153223Y397562*
X153265Y397334*
X153293Y397095*
X152197Y396982*
X152192Y397142*
X152177Y397295*
X152154Y397440*
X152120Y397579*
X152078Y397710*
X152027Y397835*
X151966Y397952*
X151897Y398062*
X151818Y398165*
X151730Y398261*
X151635Y398349*
X151533Y398428*
X151425Y398497*
X151311Y398557*
X151191Y398608*
X151065Y398650*
X150932Y398682*
X150794Y398705*
X150649Y398719*
X150498Y398724*
X150355Y398719*
X150218Y398706*
X150086Y398684*
X149960Y398654*
X149839Y398615*
X149724Y398567*
X149614Y398510*
X149510Y398445*
X149411Y398371*
X149318Y398288*
X149231Y398199*
X149154Y398105*
X149086Y398008*
X149027Y397907*
X148977Y397802*
X148937Y397693*
X148905Y397580*
X148883Y397463*
X148870Y397342*
X148865Y397218*
X148870Y397097*
X148885Y396974*
X148910Y396849*
X148944Y396724*
X148989Y396596*
X149043Y396468*
X149108Y396337*
X149182Y396205*
X149267Y396072*
X149361Y395937*
X149470Y395796*
X149597Y395646*
X149743Y395486*
X149907Y395317*
X150089Y395138*
X150289Y394949*
X150508Y394751*
X150745Y394543*
X151000Y394326*
X151273Y394099*
X151452Y393951*
X151621Y393807*
X151782Y393667*
X151934Y393530*
X152078Y393397*
X152213Y393267*
X152340Y393141*
X152458Y393019*
X152568Y392900*
X152669Y392785*
X152763Y392671*
X152851Y392557*
X152935Y392442*
X153013Y392327*
X153085Y392212*
X153153Y392096*
X153215Y391979*
X153272Y391863*
X153323Y391745*
X153369Y391628*
X153395Y391557*
X153418Y391485*
X153438Y391413*
X153455Y391340*
X153470Y391266*
X153481Y391192*
X153489Y391117*
X153494Y391041*
X153497Y390965*
X185436Y437576D02*
X185914Y443498D01*
X187297Y449115*
X189511Y454353*
X192347Y458924*
Y437576*
X192421Y435474*
X192638Y433412*
X192995Y431394*
X193485Y429426*
X194104Y427513*
X194847Y425659*
X195709Y423869*
X196685Y422148*
X197771Y420501*
X198960Y418933*
X201726Y421698*
X201454Y421916*
X200795Y422532*
X200157Y423222*
X199561Y423978*
X199028Y424796*
X198558Y425675*
X198150Y426615*
X197805Y427617*
X197523Y428679*
X197303Y429803*
X197147Y430987*
X197053Y432233*
X197021Y433540*
X197035Y434404*
X197077Y435241*
X197146Y436052*
X197243Y436837*
X197367Y437596*
X197520Y438328*
X197700Y439035*
X197907Y439715*
X198143Y440368*
X198406Y440996*
X198693Y441594*
X198998Y442162*
X199322Y442698*
X199664Y443203*
X200025Y443677*
X200404Y444119*
X200802Y444531*
X201205Y444899*
Y433391*
X201225Y432406*
X201284Y431470*
X201381Y430586*
X201518Y429751*
X201695Y428967*
X201910Y428233*
X202165Y427549*
X202459Y426915*
X202792Y426332*
X203164Y425799*
X203301Y425633*
Y414593*
X204869Y413404*
X206516Y412318*
X208237Y411342*
X210026Y410479*
X211881Y409736*
X213794Y409116*
X215762Y408626*
X217779Y408269*
X219841Y408051*
X221943Y407978*
X226744Y408365*
X231299Y409487*
X235545Y411282*
X239423Y413689*
X242872Y416647*
X245830Y420096*
X248237Y423974*
X250031Y428221*
X251153Y432775*
X251540Y437576*
X251467Y439678*
X251249Y441740*
X250893Y443758*
X250403Y445726*
X249784Y447639*
X249040Y449493*
X248178Y451283*
X247202Y453004*
X246117Y454651*
X244927Y456219*
X242030Y453322*
Y420187*
X238092*
Y434951*
X230462*
X229270Y434982*
X228151Y435075*
X227104Y435229*
X226130Y435446*
X225230Y435725*
X224665Y435957*
X217972Y429264*
Y420187*
X214176*
Y423482*
X213927Y423105*
X213669Y422747*
X213401Y422408*
X213125Y422088*
X212839Y421788*
X212545Y421507*
X212241Y421244*
X211928Y421001*
X211606Y420777*
X211274Y420572*
X210934Y420386*
X210585Y420219*
X210228Y420072*
X209862Y419945*
X209487Y419837*
X209104Y419749*
X208712Y419681*
X208344Y419636*
X203301Y414593*
Y425633*
X203562Y425316*
X203971Y424884*
X204391Y424503*
X204470Y424443*
X214221Y434194*
X214215Y434478*
X214156Y435371*
X214057Y436218*
X213918Y437021*
X213739Y437778*
X213521Y438489*
X213262Y439156*
X212965Y439777*
X212627Y440353*
X212250Y440884*
X211848Y441366*
X211434Y441798*
X211010Y442178*
X210575Y442509*
X210128Y442788*
X209671Y443016*
X209203Y443194*
X208725Y443321*
X208235Y443397*
X207734Y443423*
X207193Y443399*
X206669Y443326*
X206162Y443204*
X205672Y443035*
X205200Y442816*
X204744Y442549*
X204306Y442234*
X203885Y441870*
X203481Y441457*
X203094Y440996*
X202735Y440483*
X202414Y439915*
X202131Y439291*
X201885Y438613*
X201678Y437880*
X201508Y437092*
X201375Y436249*
X201281Y435352*
X201224Y434399*
X201205Y433391*
Y444899*
X201218Y444911*
X201653Y445260*
X202106Y445578*
X202574Y445865*
X203052Y446122*
X203541Y446349*
X204040Y446545*
X204548Y446711*
X205067Y446847*
X205597Y446953*
X206136Y447028*
X206686Y447074*
X207246Y447089*
X207647Y447080*
X208041Y447054*
X208427Y447010*
X208806Y446948*
X209177Y446869*
X209540Y446772*
X209896Y446658*
X210244Y446526*
X210586Y446377*
X210919Y446210*
X211246Y446025*
X211565Y445822*
X211878Y445601*
X212183Y445362*
X212482Y445104*
X212773Y444829*
X213058Y444536*
X213336Y444224*
X213606Y443895*
X213870Y443547*
Y456503*
X217972*
Y437945*
X220406Y440378*
X220216Y440814*
X219941Y441596*
X219716Y442414*
X219540Y443268*
X219415Y444159*
X219340Y445086*
X219315Y446049*
X219331Y446780*
X219377Y447488*
X219453Y448173*
X219561Y448835*
X219699Y449473*
X219868Y450089*
X220068Y450681*
X220298Y451249*
X220559Y451795*
X220851Y452317*
X221169Y452811*
X221507Y453273*
X221866Y453702*
X222246Y454100*
X222647Y454465*
X223069Y454798*
X223377Y455008*
Y445851*
X223394Y445204*
X223445Y444590*
X223529Y444010*
X223619Y443592*
X228140Y448113*
Y439432*
X228379Y439385*
X229010Y439303*
X229679Y439253*
X230388Y439237*
X238092*
Y449384*
X228140Y439432*
Y448113*
X232244Y452217*
X230462*
X229867Y452211*
X229309Y452194*
X228790Y452166*
X228308Y452126*
X227865Y452075*
X227459Y452012*
X227091Y451938*
X226761Y451852*
X226469Y451755*
X226214Y451647*
X225983Y451523*
X225758Y451381*
X225540Y451218*
X225329Y451037*
X225125Y450836*
X224927Y450616*
X224737Y450376*
X224553Y450117*
X224377Y449839*
X224207Y449542*
X224050Y449228*
X223909Y448903*
X223784Y448565*
X223676Y448214*
X223585Y447851*
X223510Y447476*
X223452Y447088*
X223410Y446688*
X223386Y446276*
X223377Y445851*
Y455008*
X223511Y455099*
X223974Y455368*
X224458Y455605*
X224963Y455809*
X225361Y455941*
X225800Y456059*
X226280Y456163*
X226802Y456253*
X227366Y456329*
X227972Y456392*
X228619Y456440*
X229307Y456475*
X230037Y456496*
X230809Y456503*
X236530*
X240587Y460560*
X239019Y461749*
X237372Y462834*
X235651Y463810*
X233861Y464673*
X232007Y465416*
X230093Y466035*
X228125Y466525*
X226108Y466882*
X224045Y467099*
X221943Y467173*
X217142Y466785*
X212588Y465664*
X208342Y463869*
X204464Y461462*
X201016Y458504*
X198057Y455055*
X195651Y451177*
X193856Y446931*
X192735Y442377*
X192347Y437576*
Y458924*
X192480Y459137*
X196129Y463391*
X200382Y467040*
X205166Y470009*
X210404Y472223*
X216021Y473606*
X221943Y474084*
X227865Y473606*
X233483Y472223*
X238722Y470009*
X243505Y467040*
X247759Y463391*
X251408Y459137*
X254377Y454353*
X256591Y449115*
X257974Y443498*
X258452Y437576*
X257974Y431654*
X256591Y426036*
X254377Y420798*
X251408Y416014*
X247759Y411760*
X243505Y408110*
X238722Y405141*
X233483Y402927*
X227865Y401544*
X221943Y401066*
X219319Y401159*
X216745Y401433*
X214227Y401883*
X211773Y402502*
X209387Y403284*
X207077Y404222*
X204848Y405309*
X202707Y406541*
X200661Y407910*
X198715Y409410*
X198689Y410686*
X198597Y412076*
X198409Y413555*
X198096Y415104*
X197629Y416700*
X196977Y418321*
X196110Y419945*
X194999Y421552*
X193615Y423119*
X191926Y424624*
X191463Y424975*
X190988Y425308*
X190504Y425621*
X190010Y425917*
X189507Y426195*
X188998Y426455*
X188481Y426700*
X187959Y426928*
X187432Y427141*
X186900Y427339*
X186629Y428319*
X186384Y429310*
X186166Y430311*
X185975Y431322*
X185813Y432342*
X185679Y433372*
X185573Y434411*
X185498Y435458*
X185452Y436513*
X185436Y437576*
X196201Y392859D02*
X196203Y392977D01*
X196209Y393093*
X196220Y393208*
X196234Y393320*
X196252Y393429*
X196274Y393537*
X196300Y393643*
X196330Y393746*
X196364Y393848*
X196402Y393947*
X196444Y394043*
X196490Y394136*
X196539Y394226*
X196592Y394314*
X196648Y394398*
X196707Y394480*
X196770Y394560*
X196836Y394636*
X196906Y394710*
X196979Y394781*
X197056Y394849*
X197136Y394912*
X197220Y394972*
X197307Y395028*
X197398Y395080*
X197492Y395128*
X197590Y395173*
X197692Y395213*
X197797Y395249*
X197803Y395251*
Y392968*
X200611Y392974*
X200599Y393030*
X200587Y393084*
X200575Y393135*
X200563Y393185*
X200551Y393232*
X200539Y393276*
X200527Y393318*
X200515Y393358*
X200503Y393396*
X200491Y393431*
X200479Y393465*
X200465Y393499*
X200450Y393534*
X200433Y393569*
X200416Y393604*
X200397Y393640*
X200376Y393676*
X200355Y393713*
X200332Y393750*
X200308Y393787*
X200283Y393823*
X200256Y393859*
X200228Y393895*
X200198Y393929*
X200167Y393963*
X200134Y393996*
X200099Y394028*
X200063Y394060*
X200026Y394090*
X199987Y394120*
X199948Y394149*
X199907Y394177*
X199865Y394203*
X199823Y394228*
X199780Y394252*
X199736Y394274*
X199691Y394295*
X199646Y394314*
X199600Y394332*
X199553Y394349*
X199506Y394363*
X199458Y394376*
X199410Y394388*
X199361Y394398*
X199313Y394406*
X199263Y394413*
X199214Y394418*
X199164Y394422*
X199115Y394424*
X199064Y394425*
X199021Y394424*
X198978Y394423*
X198936Y394421*
X198895Y394418*
X198854Y394413*
X198814Y394408*
X198774Y394402*
X198735Y394395*
X198696Y394387*
X198658Y394378*
X198621Y394368*
X198584Y394358*
X198549Y394346*
X198514Y394334*
X198481Y394321*
X198448Y394307*
X198416Y394292*
X198385Y394276*
X198355Y394260*
X198325Y394242*
X198297Y394223*
X198270Y394203*
X198243Y394183*
X198217Y394161*
X198191Y394139*
X198166Y394116*
X198142Y394092*
X198118Y394067*
X198095Y394041*
X198073Y394015*
X198052Y393988*
X198032Y393959*
X198013Y393931*
X197994Y393901*
X197977Y393871*
X197960Y393840*
X197944Y393808*
X197929Y393775*
X197915Y393741*
X197902Y393707*
X197890Y393672*
X197879Y393638*
X197869Y393604*
X197859Y393571*
X197851Y393540*
X197843Y393508*
X197836Y393478*
X197830Y393449*
X197825Y393420*
X197821Y393392*
X197818Y393363*
X197815Y393331*
X197813Y393296*
X197810Y393258*
X197808Y393217*
X197806Y393174*
X197805Y393127*
X197804Y393077*
X197803Y393024*
Y392968*
Y395251*
X197905Y395281*
X198016Y395310*
X198128Y395336*
X198242Y395359*
X198356Y395379*
X198472Y395395*
X198589Y395409*
X198707Y395419*
X198827Y395427*
X198947Y395431*
X199069Y395433*
X199198Y395431*
X199326Y395426*
X199453Y395417*
X199579Y395404*
X199704Y395388*
X199828Y395368*
X199950Y395344*
X200072Y395317*
X200193Y395286*
X200312Y395251*
X200430Y395211*
X200544Y395167*
X200657Y395117*
X200766Y395063*
X200874Y395003*
X200978Y394938*
X201080Y394868*
X201179Y394792*
X201276Y394712*
X201370Y394626*
X201461Y394536*
X201548Y394441*
X201631Y394341*
X201710Y394235*
X201784Y394125*
X201854Y394009*
X201920Y393888*
X201982Y393762*
X202040Y393631*
X202093Y393495*
X202142Y393356*
X202186Y393216*
X202225Y393075*
X202259Y392933*
X202287Y392791*
X202311Y392647*
X202329Y392503*
X202342Y392358*
X202350Y392212*
X202352Y392066*
X202350Y391933*
X202343Y391802*
X202332Y391672*
X202316Y391543*
X202296Y391415*
X202272Y391289*
X202243Y391163*
X202209Y391039*
X202171Y390916*
X202129Y390794*
X202082Y390675*
X202031Y390559*
X201974Y390447*
X201912Y390340*
X201846Y390236*
X201775Y390136*
X201698Y390039*
X201617Y389947*
X201531Y389858*
X201440Y389773*
X201345Y389692*
X201247Y389616*
X201145Y389546*
X201041Y389481*
X200934Y389421*
X200823Y389367*
X200710Y389317*
X200593Y389273*
X200473Y389234*
X200350Y389201*
X200225Y389171*
X200096Y389145*
X199963Y389121*
X199828Y389101*
X199689Y389083*
X199546Y389069*
X199401Y389058*
X199252Y389050*
X199099Y389045*
X198943Y389044*
X198854*
X198764Y389046*
X198674Y389048*
X198585Y389052*
X198496Y389056*
X198406Y389061*
X198317Y389068*
X198228Y389075*
X198139Y389083*
X198050Y389093*
X197959Y389103*
X197864Y389115*
X197765Y389129*
X197662Y389145*
X197555Y389163*
X197443Y389183*
X197328Y389204*
X197208Y389227*
X197085Y389252*
X196957Y389279*
X196929Y389457*
X196902Y389623*
X196877Y389779*
X196853Y389923*
X196830Y390056*
X196809Y390178*
X196788Y390289*
X196769Y390388*
X196752Y390476*
X196735Y390553*
X196867Y390510*
X196995Y390470*
X197119Y390433*
X197240Y390398*
X197357Y390366*
X197470Y390336*
X197579Y390310*
X197685Y390285*
X197787Y390264*
X197885Y390245*
X197981Y390228*
X198075Y390212*
X198168Y390199*
X198260Y390187*
X198350Y390177*
X198439Y390169*
X198527Y390162*
X198613Y390158*
X198698Y390155*
X198781Y390154*
X198852Y390155*
X198924Y390158*
X198995Y390164*
X199067Y390172*
X199139Y390182*
X199211Y390194*
X199283Y390208*
X199356Y390225*
X199428Y390244*
X199501Y390265*
X199573Y390288*
X199644Y390314*
X199712Y390343*
X199778Y390373*
X199842Y390407*
X199904Y390443*
X199964Y390481*
X200022Y390522*
X200077Y390565*
X200131Y390611*
X200183Y390658*
X200232Y390708*
X200279Y390760*
X200322Y390813*
X200364Y390870*
X200403Y390928*
X200439Y390988*
X200473Y391050*
X200504Y391115*
X200533Y391181*
X200559Y391248*
X200583Y391317*
X200604Y391388*
X200622Y391459*
X200637Y391533*
X200649Y391607*
X200659Y391683*
X200666Y391760*
X200670Y391839*
X200671Y391919*
Y391946*
Y391975*
X200670Y392006*
X200669Y392039*
X200668Y392073*
X200667Y392109*
X200665Y392147*
X200664Y392187*
X200662Y392229*
X200659Y392273*
X196262Y392279*
X196251Y392338*
X196241Y392398*
X196231Y392456*
X196224Y392515*
X196217Y392573*
X196211Y392631*
X196207Y392688*
X196204Y392745*
X196202Y392802*
X196201Y392859*
X198879Y398554D02*
X197900Y397574D01*
X197846Y397721*
X197695Y398127*
X197460Y398741*
X197158Y399510*
X196804Y400383*
X196412Y401308*
X195998Y402233*
X195577Y403106*
X195164Y403876*
X194773Y404490*
X194676Y404429*
X194405Y404262*
X193992Y404014*
X193467Y403707*
X192862Y403367*
X192207Y403017*
X191534Y402681*
X190873Y402383*
X190255Y402148*
X189712Y401999*
X189189Y401926*
X188616Y401909*
X188002Y401953*
X187355Y402066*
X186684Y402257*
X185997Y402532*
X185304Y402899*
X184613Y403365*
X183931Y403938*
X183269Y404626*
X182685Y405308*
X182098Y406028*
X181506Y406811*
X180905Y407679*
X180293Y408656*
X179667Y409767*
X179024Y411034*
X178361Y412483*
X177675Y414136*
X176964Y416017*
X176867Y416299*
X176744Y416675*
X176604Y417118*
X176453Y417604*
X176299Y418106*
X176150Y418600*
X176012Y419060*
X175894Y419459*
X175803Y419774*
X175746Y419978*
X175414Y421142*
X175086Y422137*
X174759Y422984*
X174429Y423705*
X174092Y424321*
X173747Y424854*
X173389Y425326*
X173015Y425758*
X172622Y426173*
X172207Y426591*
Y427517*
X172554Y427556*
X173523Y427639*
X175010Y427714*
X176911Y427729*
X179122Y427632*
X181538Y427372*
X184054Y426897*
X186566Y426155*
X188970Y425094*
X191160Y423663*
X192997Y421987*
X194440Y420245*
X195537Y418465*
X196335Y416676*
X196881Y414908*
X197222Y413189*
X197405Y411548*
X197477Y410014*
X197486Y408615*
X197478Y407382*
X196408Y406003*
X194934Y407769*
X194808Y413238*
X193582Y414759*
Y410093*
X192303Y411374*
Y416267*
X191008Y418142*
Y412939*
X188790Y415156*
X188801Y415221*
X188828Y415403*
X188859Y415685*
X188886Y416048*
X188897Y416474*
X188882Y416945*
X188832Y417442*
X188735Y417948*
X188582Y418444*
X188363Y418912*
X188358Y418839*
X188342Y418641*
X188314Y418344*
X188274Y417976*
X188219Y417565*
X188149Y417140*
X188062Y416726*
X187959Y416354*
X187837Y416049*
X187695Y415841*
X187548Y415940*
X187146Y416210*
X186549Y416611*
X185815Y417102*
X185004Y417643*
X184175Y418193*
X183388Y418712*
X182701Y419160*
X182174Y419496*
X181865Y419679*
X182276Y419327*
X183402Y418332*
X185082Y416790*
X187155Y414794*
X189462Y412438*
X191842Y409817*
X194134Y407024*
X196178Y404153*
X197813Y401298*
X198879Y398554*
X202930Y392859D02*
X202932Y392977D01*
X202938Y393093*
X202948Y393208*
X202962Y393320*
X202980Y393429*
X203002Y393537*
X203028Y393643*
X203059Y393746*
X203093Y393848*
X203131Y393947*
X203173Y394043*
X203219Y394136*
X203267Y394226*
X203320Y394314*
X203375Y394398*
X203435Y394480*
X203497Y394560*
X203564Y394636*
X203634Y394710*
X203707Y394781*
X203784Y394849*
X203864Y394912*
X203948Y394972*
X204035Y395028*
X204126Y395080*
X204221Y395128*
X204319Y395173*
X204420Y395213*
X204526Y395249*
X204531Y395250*
Y392968*
X207339Y392974*
X207328Y393030*
X207316Y393084*
X207304Y393135*
X207292Y393185*
X207280Y393232*
X207268Y393276*
X207256Y393318*
X207244Y393358*
X207232Y393396*
X207219Y393431*
X207207Y393465*
X207193Y393499*
X207178Y393534*
X207162Y393569*
X207144Y393604*
X207125Y393640*
X207105Y393676*
X207084Y393713*
X207061Y393750*
X207037Y393787*
X207012Y393823*
X206985Y393859*
X206956Y393895*
X206926Y393929*
X206895Y393963*
X206862Y393996*
X206828Y394028*
X206792Y394060*
X206754Y394090*
X206715Y394120*
X206675Y394149*
X206635Y394177*
X206593Y394203*
X206551Y394228*
X206508Y394252*
X206464Y394274*
X206419Y394295*
X206374Y394314*
X206328Y394332*
X206280Y394349*
X206233Y394363*
X206185Y394376*
X206137Y394388*
X206088Y394398*
X206040Y394406*
X205990Y394413*
X205941Y394418*
X205891Y394422*
X205842Y394424*
X205791Y394425*
X205749Y394424*
X205706Y394423*
X205665Y394421*
X205624Y394418*
X205583Y394413*
X205543Y394408*
X205503Y394402*
X205464Y394395*
X205425Y394387*
X205387Y394378*
X205350Y394368*
X205313Y394358*
X205278Y394346*
X205243Y394334*
X205209Y394321*
X205176Y394307*
X205144Y394292*
X205113Y394276*
X205083Y394260*
X205053Y394242*
X205025Y394223*
X204997Y394203*
X204971Y394183*
X204944Y394161*
X204919Y394139*
X204894Y394116*
X204869Y394092*
X204846Y394067*
X204823Y394041*
X204801Y394015*
X204780Y393988*
X204760Y393959*
X204741Y393931*
X204723Y393901*
X204705Y393871*
X204689Y393840*
X204673Y393808*
X204658Y393775*
X204644Y393741*
X204631Y393707*
X204619Y393672*
X204608Y393638*
X204598Y393604*
X204588Y393571*
X204580Y393540*
X204572Y393508*
X204565Y393478*
X204559Y393449*
X204554Y393420*
X204550Y393392*
X204547Y393363*
X204543Y393331*
X204540Y393296*
X204538Y393258*
X204536Y393217*
X204534Y393174*
X204533Y393127*
X204532Y393077*
X204531Y393024*
Y392968*
Y395250*
X204634Y395281*
X204745Y395310*
X204857Y395336*
X204971Y395359*
X205085Y395379*
X205201Y395395*
X205318Y395409*
X205436Y395419*
X205555Y395427*
X205676Y395431*
X205797Y395433*
X205927Y395431*
X206055Y395426*
X206182Y395417*
X206308Y395404*
X206433Y395388*
X206556Y395368*
X206679Y395344*
X206800Y395317*
X206920Y395286*
X207039Y395251*
X207157Y395211*
X207272Y395167*
X207385Y395117*
X207494Y395063*
X207602Y395003*
X207706Y394938*
X207808Y394868*
X207908Y394792*
X208005Y394712*
X208099Y394626*
X208190Y394536*
X208276Y394441*
X208359Y394341*
X208437Y394235*
X208511Y394125*
X208582Y394009*
X208648Y393888*
X208710Y393762*
X208768Y393631*
X208821Y393495*
X208870Y393356*
X208914Y393216*
X208953Y393075*
X208986Y392933*
X209014Y392791*
X209037Y392647*
X209055Y392503*
X209068Y392358*
X209076Y392212*
X209078Y392066*
X209076Y391933*
X209069Y391802*
X209058Y391672*
X209043Y391543*
X209023Y391415*
X208999Y391289*
X208970Y391163*
X208937Y391039*
X208899Y390916*
X208857Y390794*
X208811Y390675*
X208759Y390559*
X208702Y390447*
X208641Y390340*
X208574Y390236*
X208503Y390136*
X208426Y390039*
X208345Y389947*
X208258Y389858*
X208167Y389773*
X208072Y389692*
X207974Y389616*
X207873Y389546*
X207768Y389481*
X207661Y389421*
X207551Y389367*
X207437Y389317*
X207321Y389273*
X207202Y389234*
X207079Y389201*
X206953Y389171*
X206824Y389145*
X206692Y389121*
X206556Y389101*
X206417Y389083*
X206274Y389069*
X206129Y389058*
X205980Y389050*
X205827Y389045*
X205671Y389044*
X205581*
X205492Y389046*
X205402Y389048*
X205313Y389052*
X205223Y389056*
X205134Y389061*
X205045Y389068*
X204955Y389075*
X204866Y389083*
X204777Y389093*
X204687Y389103*
X204592Y389115*
X204493Y389129*
X204390Y389145*
X204283Y389163*
X204172Y389183*
X204056Y389204*
X203937Y389227*
X203814Y389252*
X203686Y389279*
X203658Y389457*
X203631Y389623*
X203606Y389779*
X203582Y389923*
X203559Y390056*
X203537Y390178*
X203517Y390289*
X203498Y390388*
X203481Y390476*
X203464Y390553*
X203595Y390510*
X203723Y390470*
X203847Y390433*
X203967Y390398*
X204084Y390366*
X204197Y390336*
X204306Y390310*
X204412Y390285*
X204515Y390264*
X204613Y390245*
X204709Y390228*
X204803Y390212*
X204896Y390199*
X204988Y390187*
X205078Y390177*
X205167Y390169*
X205255Y390162*
X205341Y390158*
X205426Y390155*
X205510Y390154*
X205581Y390155*
X205652Y390158*
X205724Y390164*
X205795Y390172*
X205867Y390182*
X205939Y390194*
X206011Y390208*
X206084Y390225*
X206157Y390244*
X206230Y390265*
X206302Y390288*
X206373Y390314*
X206441Y390343*
X206507Y390373*
X206571Y390407*
X206633Y390443*
X206692Y390481*
X206750Y390522*
X206806Y390565*
X206859Y390611*
X206911Y390658*
X206960Y390708*
X207007Y390760*
X207051Y390813*
X207093Y390870*
X207132Y390928*
X207168Y390988*
X207202Y391050*
X207233Y391115*
X207262Y391181*
X207288Y391248*
X207312Y391317*
X207332Y391388*
X207350Y391459*
X207365Y391533*
X207378Y391607*
X207387Y391683*
X207394Y391760*
X207398Y391839*
X207399Y391919*
Y391946*
Y391975*
X207398Y392006*
Y392039*
X207397Y392073*
X207395Y392109*
X207394Y392147*
X207392Y392187*
X207390Y392229*
X207387Y392273*
X202989Y392279*
X202978Y392338*
X202968Y392398*
X202959Y392456*
X202952Y392515*
X202945Y392573*
X202940Y392631*
X202936Y392688*
X202933Y392745*
X202931Y392802*
X202930Y392859*
X213732Y389044D02*
X213630Y389046D01*
X213531Y389049*
X213435Y389051*
X213342Y389053*
X213251Y389054*
X213164Y389055*
X213079Y389057*
X212997*
X212918Y389058*
X212842*
X212766*
X212688Y389057*
X212608*
X212527Y389055*
X212445Y389054*
X212360Y389053*
X212274Y389051*
X212187Y389049*
X212098Y389046*
X212007Y389044*
X212011Y389128*
X212014Y389209*
X212016Y389287*
X212018Y389362*
X212020Y389435*
X212022Y389504*
X212023Y389571*
X212024Y389635*
Y389695*
Y389753*
Y389899*
X212023Y390046*
X212022Y390194*
X212019Y390342*
X212017Y390491*
X212013Y390640*
X212009Y390789*
X212004Y390939*
X211998Y391089*
X211992Y391240*
X211986Y391387*
X211979Y391525*
X211972Y391654*
X211964Y391774*
X211957Y391886*
X211949Y391988*
X211940Y392081*
X211932Y392166*
X211923Y392241*
X211914Y392308*
X211903Y392387*
X211890Y392463*
X211876Y392536*
X211861Y392606*
X211845Y392673*
X211827Y392737*
X211808Y392798*
X211789Y392855*
X211767Y392910*
X211745Y392962*
X211717Y393024*
X211687Y393083*
X211656Y393141*
X211623Y393197*
X211589Y393250*
X211553Y393302*
X211516Y393352*
X211477Y393399*
X211437Y393444*
X211395Y393488*
X211352Y393529*
X211308Y393569*
X211263Y393606*
X211216Y393641*
X211169Y393674*
X211120Y393705*
X211070Y393733*
X211019Y393760*
X210967Y393784*
X210914Y393806*
X210860Y393826*
X210804Y393844*
X210747Y393859*
X210688Y393873*
X210627Y393884*
X210565Y393893*
X210501Y393901*
X210436Y393906*
X210368Y393909*
X210299Y393910*
X210241Y393909*
X210182Y393906*
X210121Y393902*
X210059Y393895*
X209995Y393887*
X209930Y393876*
X209864Y393864*
X209797Y393849*
X209728Y393833*
X209657Y393814*
X209668Y393982*
X209677Y394145*
X209685Y394302*
X209692Y394453*
X209698Y394597*
X209703Y394736*
X209706Y394869*
X209709Y394996*
X209711Y395117*
Y395232*
X209762Y395243*
X209812Y395253*
X209862Y395262*
X209912Y395269*
X209961Y395275*
X210010Y395281*
X210059Y395285*
X210108Y395288*
X210156Y395289*
X210204Y395290*
X210256Y395289*
X210307Y395288*
X210358Y395285*
X210408Y395281*
X210459Y395275*
X210509Y395269*
X210559Y395262*
X210608Y395253*
X210658Y395243*
X210707Y395232*
X210756Y395219*
X210804Y395204*
X210851Y395189*
X210897Y395173*
X210943Y395156*
X210987Y395138*
X211030Y395119*
X211073Y395099*
X211115Y395078*
X211155Y395056*
X211195Y395033*
X211234Y395009*
X211272Y394984*
X211310Y394958*
X211346Y394931*
X211382Y394904*
X211417Y394875*
X211452Y394846*
X211485Y394816*
X211518Y394785*
X211551Y394751*
X211586Y394715*
X211621Y394674*
X211658Y394631*
X211697Y394584*
X211736Y394534*
X211777Y394480*
X211819Y394423*
X211863Y394363*
X211907Y394300*
X211877Y395146*
X211976Y395144*
X212071Y395142*
X212162Y395140*
X212249Y395138*
X212332Y395137*
X212411Y395136*
X212486Y395135*
X212557Y395134*
X212625*
X212688*
X212744*
X212805*
X212873Y395135*
X212946Y395136*
X213025Y395137*
X213111Y395138*
X213202Y395140*
X213299Y395142*
X213402Y395144*
X213510Y395146*
X213508Y395054*
X213506Y394970*
X213504Y394894*
X213503Y394825*
X213501Y394764*
X213500Y394711*
X213499Y394665*
Y394628*
X213498Y394598*
Y394576*
Y394473*
X213499Y394371*
Y394268*
X213500Y394165*
X213501Y394063*
X213503Y393960*
X213504Y393858*
X213506Y393755*
X213508Y393652*
X213510Y393550*
X213558Y391894*
X213732Y389044*
X218611Y393935D02*
X217867D01*
X218048Y390035*
X218119Y389044*
X218016Y389046*
X217916Y389049*
X217821Y389051*
X217729Y389053*
X217642Y389054*
X217558Y389055*
X217478Y389057*
X217402*
X217330Y389058*
X217262*
X217196*
X217124Y389057*
X217049*
X216969Y389055*
X216884Y389054*
X216795Y389053*
X216702Y389051*
X216604Y389049*
X216501Y389046*
X216394Y389044*
X216381Y389543*
X216367Y390040*
X216352Y390535*
X216336Y391028*
X216319Y391518*
X216301Y392006*
X216282Y392492*
X216261Y392975*
X216240Y393456*
X216217Y393935*
X214777*
X214770Y394084*
X214763Y394226*
X214756Y394360*
X214749Y394488*
X214742Y394609*
X214735Y394723*
X214727Y394830*
X214720Y394931*
X214713Y395024*
X214705Y395111*
X216234*
X216235Y395332*
Y395376*
X216234Y395419*
X216233Y395461*
X216231Y395502*
X216229Y395542*
X216227Y395581*
X216224Y395618*
X216220Y395655*
X216217Y395690*
X216212Y395724*
X216207Y395758*
X216200Y395791*
X216193Y395823*
X216186Y395855*
X216177Y395885*
X216168Y395914*
X216157Y395943*
X216146Y395971*
X216135Y395997*
X216122Y396023*
X216108Y396048*
X216094Y396071*
X216079Y396094*
X216064Y396116*
X216048Y396136*
X216031Y396156*
X216013Y396175*
X215995Y396193*
X215976Y396210*
X215956Y396226*
X215936Y396241*
X215914Y396256*
X215892Y396270*
X215868Y396284*
X215843Y396296*
X215817Y396308*
X215790Y396319*
X215761Y396330*
X215732Y396340*
X215701Y396349*
X215670Y396358*
X215638Y396365*
X215605Y396372*
X215571Y396378*
X215538Y396383*
X215503Y396387*
X215468Y396390*
X215433Y396392*
X215397Y396393*
X215360Y396394*
X215264Y396392*
X215166Y396386*
X215066Y396376*
X214964Y396362*
X214860Y396344*
X214754Y396321*
X214646Y396295*
X214536Y396265*
X214424Y396230*
X214310Y396191*
X214319Y396288*
X214328Y396390*
X214336Y396495*
X214343Y396604*
X214350Y396717*
X214357Y396835*
X214363Y396955*
X214368Y397080*
X214372Y397209*
X214376Y397341*
X214528Y397378*
X214677Y397411*
X214826Y397440*
X214973Y397465*
X215118Y397486*
X215262Y397504*
X215404Y397517*
X215545Y397527*
X215684Y397533*
X215821Y397535*
X215889Y397534*
X215955Y397532*
X216022Y397529*
X216088Y397525*
X216153Y397520*
X216218Y397513*
X216283Y397506*
X216348Y397497*
X216412Y397487*
X216476Y397476*
X216539Y397464*
X216601Y397449*
X216662Y397433*
X216722Y397415*
X216781Y397394*
X216839Y397372*
X216896Y397347*
X216952Y397320*
X217007Y397292*
X217061Y397261*
X217113Y397229*
X217163Y397195*
X217210Y397161*
X217255Y397125*
X217297Y397088*
X217338Y397050*
X217375Y397011*
X217411Y396970*
X217444Y396929*
X217474Y396886*
X217503Y396841*
X217530Y396795*
X217555Y396745*
X217578Y396694*
X217599Y396640*
X217618Y396583*
X217635Y396524*
X217651Y396462*
X217665Y396398*
X217676Y396332*
X217687Y396261*
X217696Y396184*
X217704Y396100*
X217711Y396011*
X217717Y395916*
X217722Y395815*
X217725Y395708*
X217728Y395595*
X217730Y395476*
Y395351*
Y395111*
X218545*
X218547Y395071*
X218548Y395027*
X218550Y394979*
X218553Y394926*
X218555Y394869*
X218558Y394808*
X218561Y394742*
X218564Y394673*
X218568Y394599*
X218571Y394521*
X218576Y394441*
X218581Y394366*
X218585Y394296*
X218589Y394231*
X218593Y394170*
X218597Y394114*
X218601Y394063*
X218604Y394016*
X218608Y393973*
X218611Y393935*
X221955Y664925D02*
X221961Y665146D01*
X221979Y665362*
X222008Y665572*
X222049Y665778*
X222102Y665979*
X222167Y666175*
X222243Y666366*
X222331Y666552*
X222430Y666733*
X222542Y666909*
X222664Y667078*
X222796Y667236*
X222939Y667385*
X223091Y667524*
X223253Y667653*
X223426Y667773*
X223608Y667882*
X223801Y667982*
X223935Y668041*
Y665066*
X223939Y664900*
X223952Y664740*
X223973Y664587*
X224003Y664439*
X224041Y664298*
X224088Y664163*
X224144Y664033*
X224208Y663910*
X224280Y663793*
X224361Y663682*
X224449Y663578*
X224542Y663482*
X224640Y663394*
X224743Y663314*
X224850Y663241*
X224963Y663177*
X225081Y663120*
X225203Y663071*
X225331Y663031*
X225464Y662998*
X225606Y662970*
X225765Y662945*
X225939Y662923*
X226128Y662904*
X226333Y662888*
X226554Y662875*
X226790Y662865*
X227042Y662858*
X227310Y662854*
X227593Y662852*
X228334*
Y667223*
X227208*
X226979Y667221*
X226760Y667216*
X226552Y667208*
X226355Y667195*
X226168Y667180*
X225992Y667161*
X225826Y667138*
X225671Y667112*
X225527Y667083*
X225393Y667050*
X225267Y667011*
X225146Y666966*
X225029Y666914*
X224917Y666855*
X224809Y666789*
X224707Y666716*
X224609Y666637*
X224515Y666550*
X224427Y666456*
X224343Y666356*
X224265Y666249*
X224196Y666137*
X224135Y666021*
X224081Y665899*
X224037Y665773*
X224000Y665641*
X223971Y665505*
X223951Y665364*
X223939Y665217*
X223935Y665066*
Y668041*
X224003Y668072*
X224216Y668152*
X224062Y668230*
X223916Y668316*
X223777Y668409*
X223646Y668509*
X223523Y668616*
X223407Y668730*
X223299Y668852*
X223198Y668980*
X223105Y669116*
X223020Y669259*
X222942Y669407*
X222873Y669558*
X222812Y669714*
X222759Y669872*
X222714Y670035*
X222677Y670201*
X222649Y670370*
X222628Y670543*
X222616Y670720*
X222612Y670900*
X222619Y671134*
X222639Y671361*
X222674Y671582*
X222722Y671797*
X222783Y672006*
X222859Y672209*
X222948Y672405*
X223050Y672596*
X223167Y672781*
X223297Y672959*
X223436Y673128*
X223579Y673283*
X223727Y673426*
X223878Y673555*
X224034Y673671*
X224194Y673773*
X224359Y673863*
X224527Y673939*
X224582Y673959*
Y670778*
X224587Y670592*
X224604Y670414*
X224632Y670246*
X224671Y670087*
X224721Y669937*
X224783Y669797*
X224855Y669666*
X224939Y669544*
X225034Y669432*
X225140Y669329*
X225260Y669235*
X225397Y669152*
X225551Y669078*
X225722Y669014*
X225910Y668960*
X226115Y668915*
X226337Y668881*
X226576Y668856*
X226832Y668842*
X227105Y668837*
X228334*
Y672635*
X227105*
X226626Y672617*
X226197Y672561*
X225818Y672468*
X225490Y672338*
X225213Y672171*
X224985Y671967*
X224809Y671725*
X224683Y671447*
X224607Y671131*
X224582Y670778*
Y673959*
X224700Y674002*
X224877Y674052*
X225065Y674093*
X225271Y674129*
X225495Y674162*
X225737Y674190*
X225997Y674214*
X226275Y674233*
X226570Y674248*
X226884Y674259*
X227215Y674265*
X227565Y674268*
X231907*
Y672635*
X230303*
Y662852*
X231907*
Y661220*
X227471*
X227181Y661222*
X226903Y661226*
X226638Y661234*
X226385Y661244*
X226145Y661258*
X225917Y661274*
X225702Y661294*
X225499Y661316*
X225308Y661342*
X225130Y661370*
X224960Y661403*
X224793Y661441*
X224628Y661485*
X224466Y661535*
X224306Y661591*
X224150Y661651*
X223996Y661718*
X223844Y661790*
X223696Y661868*
X223550Y661952*
X223408Y662041*
X223273Y662138*
X223142Y662243*
X223018Y662354*
X222899Y662472*
X222786Y662598*
X222679Y662730*
X222578Y662870*
X222482Y663017*
X222392Y663171*
X222309Y663330*
X222235Y663493*
X222169Y663660*
X222112Y663830*
X222064Y664004*
X222025Y664181*
X221995Y664361*
X221973Y664546*
X221960Y664734*
X221955Y664925*
X223657Y391882D02*
X223428Y391887D01*
X223203Y391892*
X222984Y391896*
X222770Y391900*
X222562Y391904*
X222359Y391906*
X222161Y391909*
X221968Y391910*
X221781Y391911*
X221599Y391912*
X221412Y391911*
X221221Y391910*
X221024Y391909*
X220823Y391906*
X220617Y391904*
X220406Y391900*
X220190Y391896*
X219970Y391892*
X219745Y391887*
X219515Y391882*
X219510Y392020*
X219504Y392154*
X219497Y392285*
X219489Y392412*
X219481Y392535*
X219472Y392654*
X219462Y392769*
X219451Y392880*
X219440Y392987*
X219427Y393091*
X219657Y393087*
X219881Y393084*
X220101Y393081*
X220316Y393078*
X220526Y393075*
X220731Y393073*
X220932Y393072*
X221127Y393071*
X221317Y393070*
X221502*
X221686*
X221875Y393071*
X222069Y393072*
X222268Y393073*
X222472Y393075*
X222681Y393078*
X222896Y393081*
X223115Y393084*
X223340Y393087*
X223569Y393091*
X223573Y392966*
X223578Y392842*
X223584Y392719*
X223591Y392597*
X223599Y392475*
X223609Y392354*
X223619Y392235*
X223631Y392116*
X223643Y391998*
X223657Y391882*
X224473Y397378D02*
X224570Y397376D01*
X224664Y397374*
X224756Y397372*
X224847Y397371*
X224936Y397369*
X225023Y397368*
X225107*
X225190Y397367*
X225271*
X225350*
X225413*
X225481*
X225554Y397368*
X225633*
X225716Y397369*
X225806Y397371*
X225900Y397372*
X226000Y397374*
X226105Y397376*
X226215Y397378*
Y396970*
X226216Y396799*
X226217Y396630*
X226219Y396462*
X226222Y396296*
X226226Y396132*
X226231Y395969*
X226237Y395807*
X226244Y395647*
X226251Y395489*
X226259Y395332*
X226320Y395340*
Y394191*
X226328Y393936*
X226335Y393697*
X226343Y393476*
X226351Y393272*
X226359Y393085*
X226367Y392914*
X226375Y392761*
X226383Y392625*
X226391Y392506*
X226399Y392404*
X226413Y392279*
X226429Y392160*
X226447Y392045*
X226466Y391935*
X226487Y391831*
X226510Y391731*
X226534Y391637*
X226561Y391548*
X226589Y391463*
X226618Y391384*
X226650Y391308*
X226682Y391236*
X226716Y391166*
X226752Y391099*
X226789Y391035*
X226827Y390974*
X226867Y390915*
X226908Y390860*
X226950Y390807*
X226993Y390757*
X227038Y390710*
X227084Y390665*
X227131Y390623*
X227179Y390583*
X227228Y390546*
X227277Y390511*
X227328Y390478*
X227380Y390449*
X227432Y390421*
X227485Y390396*
X227540Y390374*
X227596Y390355*
X227653Y390337*
X227711Y390323*
X227770Y390310*
X227831Y390299*
X227893Y390291*
X227956Y390285*
X228020Y390282*
X228085Y390281*
X228172Y390283*
X228257Y390290*
X228340Y390301*
X228421Y390316*
X228501Y390336*
X228578Y390360*
X228654Y390389*
X228728Y390422*
X228800Y390459*
X228870Y390501*
X228938Y390547*
X229003Y390597*
X229063Y390649*
X229120Y390705*
X229173Y390764*
X229222Y390826*
X229268Y390892*
X229311Y390961*
X229349Y391033*
X229384Y391109*
X229415Y391186*
X229443Y391265*
X229468Y391346*
X229489Y391428*
X229508Y391512*
X229523Y391597*
X229534Y391684*
X229543Y391772*
X229548Y391862*
X229549Y391954*
X229547Y392046*
X229542Y392140*
X229533Y392234*
X229520Y392329*
X229504Y392425*
X229484Y392521*
X229460Y392618*
X229433Y392716*
X229402Y392815*
X229368Y392915*
X229331Y393012*
X229291Y393106*
X229247Y393196*
X229201Y393283*
X229151Y393366*
X229098Y393446*
X229042Y393522*
X228983Y393595*
X228921Y393664*
X228856Y393730*
X228789Y393792*
X228719Y393850*
X228648Y393904*
X228574Y393955*
X228499Y394001*
X228421Y394044*
X228342Y394083*
X228260Y394119*
X228177Y394151*
X228091Y394179*
X228004Y394204*
X227916Y394227*
X227828Y394247*
X227738Y394265*
X227648Y394279*
X227557Y394291*
X227465Y394300*
X227373Y394307*
X227279Y394311*
X227184Y394312*
X227101Y394311*
X227017Y394307*
X226933Y394301*
X226847Y394293*
X226761Y394282*
X226674Y394269*
X226587Y394253*
X226499Y394235*
X226410Y394214*
X226320Y394191*
Y395340*
X226396Y395351*
X226529Y395368*
X226660Y395384*
X226788Y395397*
X226913Y395408*
X227035Y395417*
X227154Y395424*
X227270Y395429*
X227384Y395432*
X227494Y395433*
X227644Y395431*
X227793Y395425*
X227939Y395416*
X228084Y395402*
X228226Y395385*
X228367Y395364*
X228505Y395340*
X228642Y395311*
X228777Y395278*
X228909Y395242*
X229040Y395201*
X229168Y395155*
X229293Y395103*
X229415Y395046*
X229534Y394983*
X229651Y394915*
X229765Y394841*
X229876Y394762*
X229984Y394678*
X230089Y394589*
X230192Y394494*
X230290Y394392*
X230383Y394286*
X230472Y394173*
X230556Y394055*
X230636Y393931*
X230711Y393802*
X230782Y393666*
X230849Y393526*
X230911Y393380*
X230968Y393230*
X231019Y393079*
X231064Y392927*
X231102Y392775*
X231135Y392622*
X231162Y392468*
X231183Y392313*
X231198Y392158*
X231207Y392002*
X231210Y391845*
X231209Y391732*
X231204Y391619*
X231195Y391508*
X231183Y391397*
X231168Y391287*
X231150Y391178*
X231128Y391070*
X231103Y390963*
X231074Y390856*
X231042Y390751*
X231007Y390648*
X230968Y390547*
X230925Y390449*
X230879Y390354*
X230829Y390262*
X230775Y390173*
X230717Y390087*
X230655Y390003*
X230590Y389923*
X230521Y389845*
X230449Y389770*
X230374Y389699*
X230295Y389632*
X230214Y389567*
X230130Y389507*
X230042Y389449*
X229952Y389396*
X229859Y389345*
X229763Y389298*
X229663Y389255*
X229562Y389215*
X229459Y389179*
X229355Y389148*
X229249Y389120*
X229142Y389097*
X229033Y389078*
X228923Y389063*
X228811Y389052*
X228698Y389046*
X228583Y389044*
X228514Y389045*
X228445Y389047*
X228377Y389051*
X228309Y389056*
X228242Y389063*
X228175Y389072*
X228108Y389082*
X228042Y389094*
X227976Y389107*
X227911Y389122*
X227847Y389138*
X227783Y389157*
X227721Y389176*
X227659Y389198*
X227599Y389220*
X227539Y389245*
X227480Y389271*
X227422Y389299*
X227365Y389328*
X227309Y389359*
X227254Y389391*
X227201Y389424*
X227150Y389457*
X227100Y389491*
X227053Y389526*
X227007Y389561*
X226963Y389596*
X226920Y389631*
X226880Y389667*
X226841Y389704*
X226803Y389743*
X226763Y389784*
X226721Y389829*
X226678Y389877*
X226634Y389928*
X226587Y389983*
X226540Y390040*
X226491Y390101*
X226440Y390165*
X226388Y390232*
X226440Y389189*
X226337Y389191*
X226238Y389193*
X226144Y389195*
X226055Y389197*
X225970Y389198*
X225889Y389199*
X225814Y389200*
X225742*
X225676Y389201*
X225613*
X225556*
X225494Y389200*
X225428*
X225357Y389199*
X225282Y389198*
X225202Y389197*
X225118Y389195*
X225030Y389193*
X224937Y389191*
X224839Y389189*
X224838Y389484*
X224834Y389803*
X224829Y390147*
X224820Y390515*
X224810Y390907*
X224797Y391323*
X224781Y391763*
X224764Y392228*
X224744Y392717*
X224722Y393230*
X224699Y393743*
X224675Y394235*
X224651Y394705*
X224627Y395153*
X224602Y395579*
X224577Y395983*
X224552Y396365*
X224526Y396724*
X224500Y397062*
X224473Y397378*
X231854Y394050D02*
X231877Y394316D01*
X231946Y394574*
X232064Y394820*
X232234Y395048*
X232459Y395254*
X232740Y395434*
X233081Y395582*
X233484Y395693*
X233952Y395763*
X234486Y395788*
X234740Y395783*
X234981Y395769*
X235208Y395745*
X235422Y395713*
X235624Y395672*
X235813Y395624*
X235989Y395568*
X236153Y395504*
X236306Y395434*
X236446Y395357*
X236609Y395240*
X236747Y395101*
X236863Y394947*
X236958Y394784*
X237033Y394619*
X237090Y394459*
X237130Y394311*
X237154Y394180*
X237164Y394074*
X237160Y393999*
X237145Y394025*
X237097Y394097*
X237011Y394203*
X236880Y394332*
X236701Y394472*
X236468Y394612*
X236175Y394740*
X235818Y394846*
X235391Y394918*
X234889Y394945*
X234683Y394933*
X234489Y394899*
X234309Y394843*
X234145Y394766*
X233999Y394669*
X233875Y394554*
X233774Y394422*
X233699Y394273*
X233652Y394108*
X233636Y393929*
X233663Y393789*
X233739Y393654*
X233753Y393639*
Y390937*
X233768Y390754*
X233812Y390590*
X233885Y390445*
X233988Y390320*
X234120Y390214*
X234282Y390128*
X234473Y390060*
X234693Y390012*
X234943Y389983*
X235222Y389974*
X235413Y389984*
X235585Y390013*
X235735Y390061*
X235866Y390130*
X235977Y390217*
X236067Y390324*
X236138Y390450*
X236188Y390596*
X236218Y390761*
X236228Y390945*
X236214Y391092*
X236170Y391231*
X236097Y391361*
X235995Y391482*
X235864Y391594*
X235704Y391698*
X235514Y391792*
X235296Y391879*
X235048Y391956*
X234771Y392025*
X234657Y392051*
X234545Y392078*
X234436Y392106*
X234330Y392136*
X234226Y392167*
X234126Y392199*
X234028Y392232*
X233934Y392267*
X233842Y392303*
X233753Y392341*
Y393639*
X233863Y393523*
X234030Y393395*
X234237Y393272*
X234480Y393153*
X234757Y393038*
X235064Y392926*
X235397Y392819*
X235753Y392716*
X236133Y392599*
X236472Y392466*
X236771Y392316*
X237031Y392151*
X237250Y391969*
X237430Y391772*
X237570Y391558*
X237669Y391329*
X237729Y391083*
X237749Y390822*
X237727Y390484*
X237662Y390182*
X237553Y389916*
X237401Y389684*
X237204Y389489*
X236965Y389329*
X236681Y389204*
X236354Y389115*
X235983Y389062*
X235568Y389044*
X235347Y389051*
X235137Y389072*
X234936Y389107*
X234746Y389157*
X234566Y389219*
X234397Y389296*
X234237Y389386*
X234088Y389490*
X233949Y389607*
X233820Y389738*
Y389083*
X231854*
Y394050*
X232189Y662852D02*
X233649D01*
X237140Y672361*
Y667336*
X240862*
X239055Y672795*
X238877*
X237140Y667336*
Y672361*
X237300Y672795*
X235669*
Y674268*
X242338*
Y672795*
X240761*
X244324Y662852*
X245902*
Y661220*
X240762*
Y662852*
X242347*
X241349Y665807*
X236649*
X235678Y662852*
X237301*
Y661220*
X232189*
Y662852*
X238393Y392859D02*
X238395Y392977D01*
X238401Y393093*
X238411Y393208*
X238425Y393320*
X238443Y393429*
X238465Y393537*
X238491Y393643*
X238521Y393746*
X238555Y393848*
X238593Y393947*
X238635Y394043*
X238681Y394136*
X238730Y394226*
X238782Y394314*
X238838Y394398*
X238897Y394480*
X238960Y394560*
X239026Y394636*
X239096Y394710*
X239169Y394781*
X239246Y394849*
X239326Y394912*
X239410Y394972*
X239498Y395028*
X239589Y395080*
X239683Y395128*
X239781Y395173*
X239883Y395213*
X239988Y395249*
X239994Y395251*
Y392968*
X242802Y392974*
X242790Y393030*
X242778Y393084*
X242766Y393135*
X242754Y393185*
X242742Y393232*
X242730Y393276*
X242718Y393318*
X242706Y393358*
X242694Y393396*
X242682Y393431*
X242670Y393465*
X242656Y393499*
X242641Y393534*
X242624Y393569*
X242607Y393604*
X242588Y393640*
X242567Y393676*
X242546Y393713*
X242523Y393750*
X242499Y393787*
X242474Y393823*
X242447Y393859*
X242419Y393895*
X242389Y393929*
X242358Y393963*
X242325Y393996*
X242290Y394028*
X242255Y394060*
X242217Y394090*
X242178Y394120*
X242138Y394149*
X242097Y394177*
X242056Y394203*
X242014Y394228*
X241971Y394252*
X241927Y394274*
X241882Y394295*
X241836Y394314*
X241790Y394332*
X241743Y394349*
X241696Y394363*
X241648Y394376*
X241600Y394388*
X241551Y394398*
X241503Y394406*
X241453Y394413*
X241404Y394418*
X241354Y394422*
X241305Y394424*
X241254Y394425*
X241211Y394424*
X241169Y394423*
X241127Y394421*
X241086Y394418*
X241045Y394413*
X241005Y394408*
X240965Y394402*
X240926Y394395*
X240888Y394387*
X240850Y394378*
X240813Y394368*
X240776Y394358*
X240740Y394346*
X240705Y394334*
X240672Y394321*
X240639Y394307*
X240607Y394292*
X240576Y394276*
X240546Y394260*
X240516Y394242*
X240488Y394223*
X240460Y394203*
X240433Y394183*
X240407Y394161*
X240382Y394139*
X240357Y394116*
X240333Y394092*
X240310Y394067*
X240287Y394041*
X240265Y394015*
X240244Y393988*
X240223Y393959*
X240203Y393931*
X240185Y393901*
X240167Y393871*
X240151Y393840*
X240135Y393808*
X240120Y393775*
X240106Y393741*
X240093Y393707*
X240081Y393672*
X240070Y393638*
X240060Y393604*
X240050Y393571*
X240042Y393540*
X240034Y393508*
X240027Y393478*
X240022Y393449*
X240017Y393420*
X240013Y393392*
X240010Y393363*
X240006Y393331*
X240003Y393296*
X240001Y393258*
X239999Y393217*
X239997Y393174*
X239996Y393127*
X239995Y393077*
X239994Y393024*
Y392968*
Y395251*
X240096Y395281*
X240207Y395310*
X240320Y395336*
X240433Y395360*
X240548Y395380*
X240664Y395396*
X240781Y395410*
X240899Y395421*
X241019Y395429*
X241139Y395433*
X241261Y395435*
X241390Y395433*
X241518Y395428*
X241645Y395418*
X241771Y395405*
X241895Y395389*
X242019Y395369*
X242141Y395345*
X242263Y395317*
X242383Y395286*
X242502Y395251*
X242620Y395211*
X242735Y395167*
X242847Y395117*
X242957Y395063*
X243064Y395003*
X243169Y394938*
X243271Y394868*
X243370Y394792*
X243467Y394712*
X243561Y394626*
X243652Y394536*
X243739Y394441*
X243821Y394341*
X243900Y394235*
X243974Y394125*
X244044Y394009*
X244110Y393888*
X244172Y393762*
X244230Y393631*
X244284Y393495*
X244333Y393356*
X244377Y393216*
X244415Y393075*
X244449Y392933*
X244477Y392791*
X244501Y392647*
X244519Y392503*
X244532Y392358*
X244540Y392212*
X244542Y392066*
X244540Y391933*
X244533Y391802*
X244522Y391672*
X244507Y391543*
X244487Y391415*
X244462Y391289*
X244433Y391163*
X244400Y391039*
X244362Y390916*
X244320Y390794*
X244273Y390675*
X244222Y390559*
X244165Y390447*
X244103Y390340*
X244036Y390236*
X243965Y390136*
X243888Y390039*
X243807Y389947*
X243721Y389858*
X243630Y389773*
X243535Y389692*
X243437Y389616*
X243335Y389546*
X243231Y389481*
X243124Y389421*
X243013Y389367*
X242900Y389317*
X242783Y389273*
X242664Y389234*
X242541Y389201*
X242415Y389171*
X242286Y389145*
X242154Y389121*
X242018Y389101*
X241879Y389083*
X241736Y389069*
X241591Y389058*
X241442Y389050*
X241290Y389045*
X241134Y389044*
X241044*
X240954Y389046*
X240865Y389048*
X240775Y389052*
X240686Y389056*
X240596Y389061*
X240507Y389068*
X240418Y389075*
X240329Y389083*
X240240Y389093*
X240149Y389103*
X240054Y389115*
X239955Y389129*
X239852Y389145*
X239745Y389163*
X239634Y389183*
X239519Y389204*
X239399Y389227*
X239276Y389252*
X239148Y389279*
X239120Y389457*
X239093Y389623*
X239068Y389779*
X239044Y389923*
X239021Y390056*
X238999Y390178*
X238979Y390289*
X238961Y390388*
X238943Y390476*
X238927Y390553*
X239058Y390510*
X239186Y390470*
X239310Y390433*
X239430Y390398*
X239547Y390366*
X239660Y390336*
X239769Y390310*
X239875Y390285*
X239977Y390264*
X240075Y390245*
X240171Y390228*
X240266Y390212*
X240359Y390199*
X240451Y390187*
X240541Y390177*
X240630Y390169*
X240718Y390162*
X240804Y390158*
X240889Y390155*
X240972Y390154*
X241043Y390155*
X241114Y390158*
X241186Y390164*
X241257Y390172*
X241329Y390182*
X241401Y390194*
X241474Y390208*
X241546Y390225*
X241619Y390244*
X241692Y390265*
X241764Y390288*
X241835Y390314*
X241903Y390343*
X241969Y390373*
X242033Y390407*
X242095Y390443*
X242155Y390481*
X242213Y390522*
X242268Y390565*
X242322Y390611*
X242374Y390658*
X242423Y390708*
X242469Y390760*
X242513Y390813*
X242555Y390870*
X242594Y390928*
X242630Y390988*
X242665Y391050*
X242696Y391115*
X242725Y391181*
X242751Y391248*
X242774Y391317*
X242794Y391388*
X242812Y391459*
X242827Y391533*
X242839Y391607*
X242849Y391683*
X242856Y391760*
X242860Y391839*
X242861Y391919*
Y391946*
Y391975*
X242860Y392006*
X242859Y392039*
Y392073*
X242857Y392109*
X242856Y392147*
X242855Y392187*
X242853Y392229*
X242851Y392273*
X238452Y392279*
X238441Y392338*
X238431Y392398*
X238422Y392456*
X238414Y392515*
X238408Y392573*
X238403Y392631*
X238398Y392688*
X238396Y392745*
X238394Y392802*
X238393Y392859*
X240458Y247274D02*
X240523Y247575D01*
X241180Y247972*
X242118Y248478*
X242457Y248675*
X242898Y248935*
X243428Y249248*
X244034Y249607*
X244702Y250003*
X245420Y250430*
X246173Y250878*
X246948Y251340*
X247731Y251808*
X248510Y252274*
X250610Y253531*
X252723Y254795*
X254800Y256035*
X256789Y257222*
X258638Y258324*
X260296Y259312*
X261712Y260153*
X262834Y260818*
X263610Y261277*
X263990Y261497*
X264122Y261573*
X264353Y261708*
X264674Y261896*
X265074Y262132*
X265544Y262410*
X266075Y262724*
X266656Y263069*
X267278Y263439*
X267931Y263827*
X268606Y264229*
X272741Y266694*
X273909Y265533*
Y260323*
X273932Y259640*
X273990Y258994*
X274083Y258432*
X274210Y257999*
X274370Y257741*
X274525Y257625*
X274704Y257520*
X274903Y257428*
X275116Y257351*
X275337Y257289*
X275560Y257245*
X275780Y257219*
X275990Y257213*
X276185Y257228*
X276359Y257266*
X276611Y257363*
X276843Y257490*
X277053Y257647*
X277240Y257830*
X277402Y258038*
X277538Y258268*
X277646Y258519*
X277725Y258788*
X277774Y259072*
X277790Y259370*
X277786Y259628*
X277768Y259851*
X277732Y260051*
X277671Y260236*
X277579Y260418*
X277450Y260605*
X277279Y260808*
X277059Y261036*
X276785Y261300*
X276451Y261609*
X276071Y261954*
X275758Y262231*
X275500Y262447*
X275286Y262606*
X275107Y262715*
X274949Y262778*
X274804Y262801*
X274660Y262790*
X274505Y262750*
X274330Y262687*
X274173Y262508*
X274053Y262136*
X273969Y261617*
X273921Y260997*
X273909Y260323*
Y265533*
X274505Y264941*
X274806Y264647*
X275123Y264346*
X275449Y264044*
X275778Y263747*
X276105Y263459*
X276422Y263187*
X276724Y262935*
X277005Y262709*
X277257Y262514*
X277475Y262357*
X277677Y262210*
X277790Y262121*
X277882Y262048*
X277910Y262024*
Y255901*
X277918Y255391*
X277943Y254959*
X277993Y254592*
X278072Y254281*
X278187Y254014*
X278344Y253781*
X278548Y253572*
X278806Y253375*
X279123Y253179*
X279505Y252975*
X279658Y252900*
X279815Y252829*
X279975Y252763*
X280133Y252703*
X280287Y252649*
X280434Y252602*
X280572Y252565*
X280696Y252536*
X280805Y252519*
X280895Y252513*
X281089Y252541*
X281276Y252622*
X281453Y252747*
X281614Y252909*
X281754Y253100*
X281869Y253313*
X281954Y253539*
X282004Y253773*
X282014Y254004*
X281980Y254227*
X281859Y254571*
X281672Y254977*
X281431Y255426*
X281151Y255895*
X280845Y256366*
X280528Y256818*
X280212Y257230*
X279913Y257581*
X279643Y257852*
X279416Y258022*
X279251Y258112*
X279112Y258181*
X278993Y258230*
X278890Y258258*
X278799Y258264*
X278713Y258248*
X278629Y258210*
X278541Y258150*
X278445Y258067*
X278337Y257962*
X278246Y257859*
X278168Y257742*
X278101Y257609*
X278046Y257455*
X278002Y257277*
X277967Y257071*
X277941Y256834*
X277924Y256563*
X277914Y256253*
X277910Y255901*
Y262024*
X278087Y261874*
X278287Y261691*
X278480Y261503*
X278662Y261314*
X278829Y261128*
X278977Y260948*
X279103Y260777*
X279203Y260619*
X279410Y260280*
X279647Y259929*
X279903Y259577*
X280169Y259235*
X280435Y258915*
X280691Y258627*
X280928Y258384*
X281136Y258196*
X281306Y258076*
X281427Y258033*
X281471Y258041*
X281528Y258065*
X281595Y258103*
X281672Y258153*
X281756Y258216*
X281846Y258288*
X281940Y258370*
X282014Y258438*
X282037Y258459*
X282134Y258555*
X282230Y258655*
X282335Y258759*
X282456Y258862*
X282592Y258963*
X282601Y258969*
Y256624*
X282606Y256346*
X282631Y256056*
X282673Y255762*
X282734Y255471*
X282812Y255192*
X282908Y254933*
X283061Y254629*
X283272Y254293*
X283531Y253939*
X283825Y253579*
X284141Y253225*
X284468Y252892*
X284795Y252591*
X285108Y252335*
X285396Y252138*
X285646Y252011*
X286079Y251876*
X286477Y251810*
X286839Y251812*
X287160Y251880*
X287440Y252013*
X287674Y252208*
X287861Y252465*
X287998Y252781*
X288082Y253155*
X288110Y253585*
X288050Y254167*
X287879Y254784*
X287616Y255415*
X287278Y256036*
X286880Y256624*
X286442Y257156*
X285979Y257610*
X285508Y257963*
X285048Y258192*
X284614Y258273*
X284408Y258261*
X284193Y258228*
X283975Y258176*
X283759Y258107*
X283549Y258023*
X283351Y257926*
X283169Y257819*
X283009Y257703*
X282876Y257582*
X282774Y257457*
X282700Y257306*
X282647Y257112*
X282614Y256882*
X282601Y256624*
Y258969*
X282738Y259060*
X282892Y259152*
X283050Y259237*
X283210Y259314*
X283369Y259380*
X283524Y259433*
X283671Y259473*
X284244Y259555*
X284809Y259542*
X285358Y259438*
X285889Y259247*
X286396Y258970*
X286873Y258612*
X287316Y258176*
X287719Y257665*
X288079Y257083*
X288110Y257016*
X288389Y256431*
X288477Y256225*
X288566Y256028*
X288654Y255845*
X288739Y255677*
X288821Y255528*
X288896Y255400*
X288965Y255296*
X289026Y255218*
X289076Y255170*
X289115Y255153*
X289146Y255184*
X289176Y255273*
X289204Y255416*
X289230Y255608*
X289253Y255844*
X289272Y256119*
X289288Y256427*
X289300Y256764*
X289308Y257126*
X289310Y257506*
X289284Y258625*
X289194Y259632*
X289023Y260561*
X288751Y261447*
X288362Y262325*
X287838Y263230*
X287160Y264197*
X286311Y265261*
X285274Y266456*
X284029Y267817*
X283498Y268398*
X283042Y268918*
X282658Y269380*
X282344Y269791*
X282096Y270155*
X281911Y270477*
X281786Y270761*
X281718Y271014*
X281704Y271238*
X281740Y271441*
X281978Y271700*
X282544Y272139*
X283362Y272708*
X284356Y273362*
X285315Y273968*
Y270899*
X285320Y270430*
X285329Y270052*
X285345Y269703*
X285366Y269384*
X285393Y269095*
X285427Y268837*
X285466Y268610*
X285511Y268415*
X285562Y268253*
X285618Y268124*
X285680Y268030*
X285795Y267906*
X285917Y267806*
X286042Y267730*
X286167Y267677*
X286291Y267648*
X286411Y267644*
X286524Y267665*
X286627Y267710*
X286718Y267782*
X286794Y267879*
X286821Y267935*
X286849Y268022*
X286879Y268134*
X286909Y268270*
X286940Y268427*
X286971Y268600*
X287000Y268786*
X287028Y268984*
X287054Y269189*
X287078Y269398*
X287105Y269698*
X287120Y269961*
X287122Y270194*
X287109Y270404*
X287079Y270597*
X287032Y270780*
X286966Y270960*
X286879Y271144*
X286771Y271338*
X286640Y271548*
X286543Y271690*
X286440Y271825*
X286335Y271952*
X286228Y272067*
X286123Y272170*
X286020Y272258*
X285923Y272330*
X285832Y272384*
X285751Y272418*
X285680Y272430*
X285589Y272420*
X285513Y272386*
X285451Y272321*
X285403Y272217*
X285366Y272069*
X285340Y271870*
X285324Y271613*
X285316Y271292*
X285315Y270899*
Y273968*
X285450Y274053*
X286569Y274735*
X287122Y275059*
X287173Y275088*
Y272774*
X287186Y272587*
X287238Y272384*
X287330Y272164*
X287461Y271925*
X287632Y271666*
X287844Y271386*
X288030Y271150*
X288177Y270952*
X288287Y270782*
X288362Y270626*
X288404Y270473*
X288415Y270311*
X288398Y270128*
X288353Y269912*
X288284Y269650*
X288192Y269332*
X288137Y269122*
X288086Y268888*
X288041Y268633*
X288001Y268365*
X287968Y268087*
X287942Y267806*
X287923Y267527*
X287913Y267255*
X287911Y266995*
X287918Y266754*
X287962Y266214*
X288030Y265794*
X288123Y265493*
X288239Y265311*
X288379Y265248*
X288540Y265305*
X288722Y265480*
X288925Y265775*
X289149Y266189*
X289391Y266723*
X289617Y267293*
X289792Y267821*
X289914Y268317*
X289985Y268790*
X290003Y269248*
X289969Y269702*
X289882Y270159*
X289742Y270631*
X289549Y271125*
X289303Y271651*
X289051Y272142*
X288825Y272554*
X288621Y272890*
X288435Y273152*
X288264Y273346*
X288105Y273473*
X287954Y273538*
X287806Y273544*
X287660Y273494*
X287510Y273393*
X287368Y273254*
X287265Y273106*
X287199Y272946*
X287173Y272774*
Y275088*
X287637Y275360*
X288578Y275881*
X289315Y276251*
Y274348*
X289338Y274108*
X289399Y273837*
X289496Y273542*
X289628Y273232*
X289794Y272914*
X289993Y272596*
X290003Y272579*
X290200Y272264*
X290394Y271899*
X290574Y271509*
X290736Y271100*
X290878Y270679*
X291000Y270251*
X291097Y269825*
X291170Y269405*
X291215Y269000*
X291230Y268615*
X291221Y268483*
X291194Y268328*
X291150Y268155*
X291091Y267967*
X291019Y267769*
X290935Y267564*
X290841Y267356*
X290737Y267149*
X290627Y266947*
X290510Y266754*
X290394Y266561*
X290283Y266360*
X290180Y266154*
X290086Y265948*
X290002Y265745*
X289930Y265549*
X289871Y265364*
X289827Y265194*
X289800Y265043*
X289790Y264914*
X289806Y264554*
X289852Y264187*
X289926Y263817*
X290025Y263450*
X290149Y263091*
X290295Y262745*
X290460Y262418*
X290643Y262116*
X290842Y261843*
X291055Y261605*
X291326Y261338*
X291551Y261135*
X291739Y261001*
X291903Y260940*
X292052Y260957*
X292198Y261055*
X292351Y261238*
X292523Y261511*
X292723Y261878*
X292964Y262343*
X293108Y262646*
X293220Y262938*
X293300Y263226*
X293350Y263516*
X293367Y263817*
X293354Y264133*
X293309Y264473*
X293233Y264844*
X293126Y265251*
X292988Y265702*
X292901Y265984*
X292831Y266234*
X292778Y266459*
X292741Y266663*
X292721Y266850*
X292717Y267026*
X292728Y267196*
X292755Y267363*
X292797Y267533*
X292854Y267710*
X292898Y267850*
X292942Y268016*
X292984Y268203*
X293024Y268407*
X293062Y268624*
X293095Y268850*
X293125Y269080*
X293150Y269310*
X293170Y269535*
X293183Y269752*
X293196Y270086*
Y270370*
X293178Y270617*
X293136Y270842*
X293064Y271058*
X292956Y271280*
X292808Y271521*
X292612Y271795*
X292364Y272116*
X292057Y272498*
X291650Y272996*
X291291Y273424*
X290975Y273787*
X290698Y274089*
X290456Y274333*
X290245Y274523*
X290061Y274665*
X289899Y274761*
X289755Y274815*
X289625Y274833*
X289484Y274798*
X289387Y274701*
X289331Y274548*
X289315Y274348*
Y276251*
X289317Y276253*
X289778Y276426*
X290017Y276459*
X290241Y276449*
X290466Y276381*
X290707Y276240*
X290978Y276013*
X291295Y275686*
X291674Y275243*
X292129Y274671*
X292675Y273955*
X293328Y273082*
X293367Y273029*
X294897Y270970*
X294642Y269362*
X294599Y269061*
X294564Y268758*
X294538Y268456*
X294520Y268157*
X294511Y267862*
X294510Y267576*
X294518Y267299*
X294535Y267034*
X294560Y266785*
X294594Y266553*
X294704Y265874*
X294778Y265279*
X294813Y264748*
X294807Y264259*
X294755Y263793*
X294654Y263330*
X294502Y262848*
X294294Y262327*
X294027Y261747*
X293699Y261088*
X293416Y260529*
X293185Y260054*
X292999Y259645*
X292855Y259285*
X292746Y258957*
X292669Y258644*
X292618Y258328*
X292588Y257993*
X292575Y257620*
X292572Y257193*
X292578Y256832*
X292594Y256493*
X292620Y256172*
X292659Y255864*
X292709Y255566*
X292773Y255273*
X292852Y254982*
X292944Y254687*
X293053Y254386*
X293178Y254073*
X293419Y253526*
X293636Y253104*
X293834Y252809*
X294019Y252642*
X294197Y252603*
X294372Y252693*
X294552Y252914*
X294740Y253265*
X294943Y253747*
X295166Y254362*
X295411Y255062*
X295638Y255691*
X295848Y256249*
X296042Y256741*
X296147Y256990*
Y252921*
X296168Y252698*
X296195Y252629*
X296232Y252564*
X296277Y252503*
X296329Y252447*
X296387Y252398*
X296450Y252355*
X296517Y252320*
X296586Y252294*
X296656Y252278*
X296726Y252273*
X296997Y252365*
X297314Y252623*
X297658Y253016*
X298013Y253512*
X298362Y254082*
X298685Y254694*
X298968Y255318*
X299191Y255924*
X299338Y256481*
X299390Y256958*
X299387Y257100*
X299374Y257219*
X299348Y257315*
X299306Y257391*
X299246Y257450*
X299164Y257493*
X299057Y257522*
X298922Y257541*
X298756Y257550*
X298556Y257553*
X298380Y257548*
X298221Y257534*
X298076Y257509*
X297944Y257473*
X297825Y257425*
X297715Y257364*
X297614Y257290*
X297520Y257202*
X297431Y257100*
X297347Y256982*
X297183Y256681*
X297008Y256278*
X296831Y255801*
X296659Y255276*
X296500Y254732*
X296362Y254197*
X296252Y253698*
X296178Y253263*
X296147Y252921*
Y256990*
X296222Y257168*
X296388Y257533*
X296542Y257839*
X296684Y258088*
X296816Y258284*
X296940Y258428*
X297006Y258480*
X297094Y258530*
X297203Y258577*
X297328Y258619*
X297468Y258657*
X297619Y258690*
X297779Y258716*
X297944Y258736*
X298113Y258748*
X298282Y258753*
X298604Y258761*
X298890Y258790*
X299144Y258840*
X299371Y258916*
X299390Y258926*
X299575Y259021*
X299762Y259156*
X299937Y259326*
X300104Y259534*
X300268Y259782*
X300434Y260073*
X300649Y260607*
X300912Y261472*
X301206Y262590*
X301516Y263882*
X301823Y265271*
X302113Y266677*
X302367Y268023*
X302569Y269230*
X302702Y270221*
X302750Y270917*
Y272457*
X300199Y276321*
X299785Y276951*
X299389Y277558*
X299018Y278136*
X298675Y278673*
X298368Y279163*
X298101Y279594*
X297880Y279960*
X297711Y280250*
X297599Y280456*
X297550Y280569*
X297542Y280640*
X297549Y280715*
X297573Y280794*
X297612Y280875*
X297665Y280956*
X297731Y281038*
X297811Y281120*
X297904Y281199*
X298007Y281276*
X298122Y281350*
X298261Y281433*
X298452Y281550*
X298690Y281695*
X298967Y281866*
X299279Y282058*
X299618Y282268*
X299978Y282491*
X300352Y282724*
X300736Y282962*
X301121Y283203*
X303452Y284659*
X305829Y280646*
X306223Y279980*
X306617Y279313*
X307004Y278658*
X307378Y278024*
X307731Y277424*
X308058Y276868*
X308352Y276368*
X308606Y275934*
X308814Y275579*
X308969Y275313*
X309095Y275095*
X309221Y274878*
X309344Y274667*
X309462Y274465*
X309574Y274275*
X309677Y274101*
X309769Y273946*
X309848Y273814*
X309911Y273708*
X309958Y273633*
X310178Y273273*
X310520Y272701*
X310950Y271976*
X311434Y271156*
X311938Y270299*
X312427Y269464*
X312867Y268710*
X313224Y268094*
X313463Y267675*
X313550Y267512*
X313571Y267469*
X313630Y267362*
X313725Y267197*
X313852Y266980*
X314009Y266716*
X314191Y266410*
X314395Y266068*
X314619Y265696*
X314858Y265298*
X315110Y264882*
X315363Y264465*
X315602Y264066*
X315826Y263692*
X316030Y263348*
X316212Y263039*
X316368Y262771*
X316496Y262550*
X316591Y262381*
X316650Y262270*
X316670Y262222*
X316710Y262141*
X316826Y261933*
X317010Y261609*
X317257Y261181*
X317560Y260659*
X317914Y260054*
X318311Y259377*
X318745Y258639*
X319211Y257851*
X319700Y257024*
X320209Y256166*
X320728Y255291*
X321248Y254413*
X321760Y253549*
X322255Y252715*
X322723Y251925*
X323154Y251196*
X323541Y250544*
X323873Y249984*
X324140Y249532*
X324368Y249144*
X324585Y248771*
X324787Y248418*
X324972Y248089*
X325136Y247792*
X325277Y247530*
X325392Y247310*
X325478Y247136*
X325532Y247015*
X325550Y246952*
X324989Y246920*
X323363Y246889*
X320764Y246860*
X317281Y246834*
X313004Y246811*
X308021Y246791*
X302424Y246775*
X296301Y246763*
X289742Y246755*
X282838Y246753*
X270009Y246750*
X259958Y246751*
X252374Y246769*
X246945Y246817*
X243357Y246908*
X241299Y247056*
X240458Y247274*
X247266Y726361D02*
X238082D01*
X236611Y734579*
X245896*
X247266Y726361*
X247315Y389044D02*
X247161Y389046D01*
X247021Y389049*
X246894Y389051*
X246782Y389053*
X246683Y389054*
X246598Y389055*
X246527Y389057*
X246469*
X246426Y389058*
X246396*
X246326*
X246253Y389057*
X246178*
X246099Y389055*
X246017Y389054*
X245932Y389053*
X245844Y389051*
X245753Y389049*
X245658Y389046*
X245561Y389044*
X245537Y390162*
X245328Y395044*
X245186Y397234*
X245286Y397232*
X245383Y397230*
X245477Y397228*
X245568Y397226*
X245657Y397225*
X245742Y397224*
X245823Y397223*
X245902Y397222*
X245978*
X246050*
X246107*
X246170*
X246241Y397223*
X246319Y397224*
X246404Y397225*
X246497Y397226*
X246596Y397228*
X246703Y397230*
X246817Y397232*
X246938Y397234*
X246945Y396844*
X246954Y396440*
X246965Y396021*
X246978Y395588*
X246993Y395141*
X247010Y394679*
X247029Y394204*
X247050Y393714*
X247073Y393209*
X247097Y392691*
X247122Y392181*
X247147Y391703*
X247170Y391257*
X247193Y390844*
X247216Y390463*
X247237Y390114*
X247258Y389798*
X247278Y389514*
X247297Y389263*
X247315Y389044*
X251343Y665713D02*
X251355Y666125D01*
X251393Y666522*
X251455Y666903*
X251543Y667268*
X251656Y667617*
X251793Y667951*
X251956Y668268*
X252144Y668570*
X252357Y668857*
X252595Y669127*
X252852Y669377*
X253122Y669600*
X253200Y669654*
Y665779*
X253208Y665487*
X253233Y665208*
X253275Y664941*
X253333Y664688*
X253407Y664447*
X253499Y664219*
X253607Y664003*
X253731Y663801*
X253872Y663611*
X254030Y663434*
X254201Y663272*
X254380Y663126*
X254568Y662998*
X254765Y662887*
X254972Y662794*
X255187Y662717*
X255411Y662657*
X255643Y662614*
X255885Y662589*
X256136Y662580*
X256315Y662585*
X256490Y662599*
X256661Y662622*
X256826Y662654*
X256987Y662696*
X257143Y662747*
X257295Y662808*
X257442Y662877*
X257584Y662956*
X257721Y663044*
X257852Y663140*
X257977Y663239*
X258093Y663343*
X258203Y663451*
X258305Y663564*
X258400Y663681*
X258487Y663802*
X258568Y663928*
X258640Y664059*
X258706Y664194*
X258765Y664331*
X258817Y664470*
X258864Y664610*
X258904Y664752*
X258938Y664895*
X258966Y665039*
X258988Y665184*
X259003Y665331*
X259012Y665479*
X259015Y665629*
X259006Y665916*
X258980Y666191*
X258935Y666455*
X258872Y666707*
X258792Y666948*
X258693Y667177*
X258577Y667395*
X258442Y667601*
X258290Y667795*
X258120Y667978*
X257938Y668147*
X257750Y668297*
X257557Y668430*
X257357Y668546*
X257152Y668643*
X256942Y668723*
X256725Y668785*
X256503Y668829*
X256276Y668856*
X256042Y668865*
X255823Y668856*
X255609Y668832*
X255399Y668791*
X255195Y668734*
X254995Y668661*
X254800Y668571*
X254610Y668465*
X254424Y668342*
X254243Y668204*
X254067Y668049*
X253903Y667879*
X253755Y667697*
X253625Y667502*
X253512Y667294*
X253417Y667073*
X253339Y666840*
X253278Y666594*
X253235Y666335*
X253209Y666063*
X253200Y665779*
Y669654*
X253406Y669797*
X253703Y669968*
X254013Y670112*
X254336Y670230*
X254672Y670322*
X255022Y670388*
X255385Y670427*
X255761Y670441*
X256134Y670425*
X256496Y670378*
X256847Y670300*
X257186Y670190*
X257515Y670049*
X257832Y669877*
X258138Y669673*
X258432Y669438*
X258715Y669172*
X258987Y668874*
Y670300*
X262298*
Y668715*
X260770*
Y658734*
X262430*
Y657149*
X257224*
Y658734*
X258987*
Y662346*
X258706Y662082*
X258416Y661846*
X258117Y661638*
X257811Y661457*
X257496Y661304*
X257173Y661180*
X256842Y661082*
X256502Y661013*
X256154Y660971*
X255798Y660957*
X255455Y660970*
X255119Y661008*
X254791Y661072*
X254470Y661162*
X254157Y661276*
X253851Y661417*
X253553Y661582*
X253262Y661774*
X252979Y661991*
X252703Y662233*
X252444Y662497*
X252213Y662780*
X252009Y663082*
X251832Y663402*
X251683Y663741*
X251560Y664098*
X251465Y664474*
X251397Y664868*
X251356Y665281*
X251343Y665713*
X252522Y693741D02*
X243352D01*
X239905Y714577*
X249160*
X252522Y693741*
X255358Y676338D02*
X246195D01*
X245301Y681959*
X254464*
X255358Y676338*
X267230Y270744D02*
X267219Y270715D01*
X267184Y270674*
X267130Y270624*
X267056Y270565*
X266966Y270500*
X266861Y270428*
X266743Y270352*
X266614Y270273*
X266476Y270192*
X266330Y270111*
X266142Y270008*
X265881Y269861*
X265555Y269678*
X265172Y269462*
X264743Y269218*
X264275Y268952*
X263777Y268668*
X263258Y268371*
X262726Y268066*
X261619Y267431*
X260985Y267068*
X260301Y266677*
X259583Y266266*
X258845Y265845*
X258100Y265420*
X257364Y265001*
X256651Y264595*
X255975Y264210*
X255350Y263856*
X254759Y263521*
X254179Y263191*
X253619Y262874*
X253088Y262573*
X252596Y262293*
X252152Y262041*
X251764Y261821*
X251442Y261637*
X251194Y261497*
X251030Y261403*
X250900Y261329*
X250748Y261242*
X250579Y261146*
X250397Y261042*
X250205Y260933*
X250007Y260821*
X249806Y260707*
X249608Y260595*
X249414Y260485*
X249230Y260381*
X248860Y260171*
X248358Y259886*
X247713Y259520*
X246918Y259068*
X245962Y258523*
X244835Y257881*
X243528Y257137*
X242032Y256284*
X240336Y255317*
X238430Y254231*
X237943Y253954*
X237476Y253691*
X237035Y253446*
X236627Y253221*
X236259Y253021*
X235937Y252850*
X235669Y252710*
X235461Y252605*
X235319Y252539*
X235250Y252516*
X235148Y252538*
X235087Y252605*
X235066Y252717*
X235086Y252872*
X235144Y253068*
X235240Y253304*
X235375Y253577*
X235547Y253886*
X235756Y254229*
X236000Y254605*
X236299Y255056*
X236633Y255572*
X237037Y256212*
X237549Y257037*
X238206Y258105*
X239042Y259477*
X240096Y261212*
X241403Y263370*
X243001Y266010*
X244924Y269193*
X245439Y270044*
X245972Y270923*
X246512Y271813*
X247051Y272699*
X247578Y273563*
X248082Y274390*
X248554Y275162*
X248985Y275865*
X249363Y276480*
X249680Y276993*
X249974Y277470*
X250289Y277982*
X250618Y278521*
X250954Y279073*
X251291Y279629*
X251623Y280179*
X251942Y280710*
X252244Y281214*
X252520Y281678*
X252765Y282093*
X252990Y282471*
X253211Y282829*
X253423Y283163*
X253623Y283468*
X253808Y283739*
X253974Y283971*
X254118Y284160*
X254237Y284299*
X254327Y284385*
X254385Y284413*
X254461Y284370*
X254604Y284253*
X254807Y284068*
X255064Y283822*
X255369Y283520*
X255716Y283169*
X256097Y282776*
X256508Y282346*
X256941Y281886*
X257390Y281403*
X257883Y280870*
X258442Y280268*
X259053Y279610*
X259703Y278911*
X260379Y278186*
X261069Y277447*
X261758Y276710*
X262433Y275989*
X263082Y275298*
X263690Y274650*
X264263Y274040*
X264806Y273456*
X265314Y272908*
X265778Y272404*
X266190Y271950*
X266545Y271557*
X266834Y271231*
X267049Y270982*
X267184Y270817*
X267230Y270744*
X269974Y726361D02*
X260750D01*
X259380Y734579*
X268605*
X269974Y726361*
X270440Y668715D02*
X268611D01*
Y662805*
X270440*
Y661220*
X264850*
Y662805*
X266829*
Y664803*
X266826Y665163*
X266816Y665501*
X266800Y665815*
X266777Y666107*
X266748Y666375*
X266712Y666622*
X266670Y666845*
X266622Y667045*
X266567Y667223*
X266505Y667378*
X266437Y667517*
X266362Y667647*
X266280Y667768*
X266191Y667881*
X266095Y667984*
X265992Y668079*
X265882Y668164*
X265765Y668241*
X265642Y668309*
X265511Y668368*
X265370Y668419*
X265215Y668465*
X265047Y668506*
X264864Y668542*
X264668Y668572*
X264458Y668596*
X264234Y668615*
X263997Y668629*
X263745Y668637*
X263480Y668640*
X263124*
Y670441*
X263593*
X263795Y670439*
X263988Y670434*
X264173Y670425*
X264349Y670413*
X264516Y670398*
X264674Y670380*
X264824Y670358*
X264965Y670332*
X265097Y670304*
X265220Y670272*
X265339Y670234*
X265456Y670190*
X265572Y670138*
X265687Y670080*
X265801Y670014*
X265913Y669941*
X266024Y669861*
X266134Y669773*
X266243Y669679*
X266351Y669578*
X266455Y669470*
X266555Y669357*
X266650Y669238*
X266741Y669114*
X266827Y668984*
X266908Y668849*
X266984Y668709*
X267056Y668563*
X267123Y668412*
X267185Y668255*
Y670300*
X270440*
Y668715*
X271106Y662805D02*
X272635D01*
Y667007*
X272636Y667223*
X272640Y667426*
X272646Y667617*
X272655Y667797*
X272667Y667964*
X272681Y668119*
X272697Y668263*
X272716Y668394*
X272738Y668513*
X272762Y668621*
X272789Y668721*
X272822Y668821*
X272859Y668918*
X272901Y669015*
X272948Y669110*
X273000Y669203*
X273056Y669295*
X273117Y669386*
X273183Y669476*
X273254Y669564*
X273331Y669649*
X273416Y669732*
X273508Y669811*
X273608Y669887*
X273715Y669960*
X273830Y670030*
X273952Y670096*
X274083Y670159*
X274220Y670219*
X274366Y670276*
X274518Y670329*
X274675Y670376*
X274838Y670417*
X275007Y670453*
X275181Y670484*
X275360Y670509*
X275545Y670528*
X275736Y670542*
X275932Y670550*
X276134Y670553*
X276674Y670532*
X277182Y670468*
X277657Y670362*
X278098Y670214*
X278507Y670023*
X278883Y669790*
X279225Y669514*
X279535Y669196*
X279811Y668836*
X280055Y668433*
X278347Y667983*
X278220Y668186*
X278078Y668368*
X277921Y668528*
X277749Y668667*
X277562Y668785*
X277360Y668881*
X277144Y668956*
X276913Y669010*
X276667Y669042*
X276406Y669052*
X276253Y669049*
X276106Y669040*
X275965Y669025*
X275830Y669004*
X275701Y668977*
X275578Y668944*
X275461Y668905*
X275349Y668860*
X275244Y668809*
X275144Y668752*
X275051Y668691*
X274965Y668629*
X274886Y668565*
X274814Y668500*
X274749Y668433*
X274691Y668365*
X274640Y668295*
X274596Y668224*
X274560Y668151*
X274530Y668077*
X274505Y667998*
X274483Y667914*
X274463Y667823*
X274446Y667726*
X274431Y667622*
X274420Y667512*
X274410Y667395*
X274404Y667272*
X274400Y667143*
X274399Y667007*
Y663537*
X274631Y663330*
X274866Y663145*
X275103Y662982*
X275344Y662841*
X275587Y662721*
X275834Y662623*
X276083Y662547*
X276335Y662492*
X276589Y662460*
X276847Y662449*
X276994Y662453*
X277134Y662466*
X277269Y662488*
X277397Y662518*
X277519Y662557*
X277634Y662604*
X277743Y662660*
X277846Y662725*
X277943Y662798*
X278033Y662880*
X278116Y662969*
X278190Y663061*
X278256Y663158*
X278312Y663258*
X278360Y663363*
X278400Y663472*
X278430Y663585*
X278452Y663703*
X278465Y663824*
X278469Y663950*
X278464Y664084*
X278450Y664213*
X278425Y664338*
X278390Y664457*
X278345Y664571*
X278290Y664680*
X278226Y664784*
X278151Y664883*
X278067Y664977*
X277972Y665066*
X277870Y665148*
X277764Y665221*
X277652Y665286*
X277536Y665342*
X277414Y665389*
X277288Y665428*
X277157Y665458*
X277021Y665480*
X276880Y665493*
X276734Y665497*
X276498Y665488*
X276262Y665461*
X276027Y665416*
X275793Y665353*
X275559Y665272*
X275326Y665173*
X275093Y665056*
X274861Y664921*
X274630Y664768*
X274399Y664597*
Y666107*
X274638Y666253*
X274878Y666384*
X275121Y666499*
X275365Y666599*
X275611Y666684*
X275858Y666753*
X276108Y666807*
X276359Y666845*
X276611Y666868*
X276865Y666876*
X277135Y666868*
X277397Y666843*
X277651Y666801*
X277897Y666743*
X278135Y666667*
X278365Y666576*
X278587Y666467*
X278801Y666342*
X279008Y666200*
X279206Y666041*
X279390Y665870*
X279555Y665690*
X279701Y665502*
X279827Y665304*
X279934Y665099*
X280021Y664884*
X280089Y664661*
X280138Y664429*
X280167Y664189*
X280177Y663940*
X280167Y663693*
X280140Y663455*
X280094Y663227*
X280030Y663007*
X279948Y662796*
X279847Y662594*
X279728Y662401*
X279591Y662217*
X279436Y662042*
X279262Y661877*
X279076Y661723*
X278883Y661586*
X278684Y661465*
X278479Y661360*
X278267Y661272*
X278048Y661199*
X277823Y661143*
X277592Y661102*
X277354Y661078*
X277109Y661070*
X276793Y661083*
X276483Y661120*
X276180Y661183*
X275882Y661271*
X275590Y661384*
X275304Y661522*
X275024Y661686*
X274750Y661874*
X274482Y662088*
X274220Y662327*
Y661220*
X271106*
Y662805*
X275235Y693741D02*
X266067D01*
X262705Y714577*
X271925*
X275235Y693741*
X277761Y716252D02*
X233617D01*
X231968Y724682*
X238382*
X238381Y724687*
X247545*
X247546Y724682*
X261030*
X261029Y724687*
X270254*
Y724682*
X276383*
X277761Y716252*
X278128Y676338D02*
X268903D01*
X268009Y681959*
X277234*
X278128Y676338*
X283094Y683636D02*
X276967D01*
X276968Y683634*
X267743*
Y683636*
X254198*
Y683634*
X245035*
X245034Y683636*
X238253*
X236604Y692066*
X281716*
X283094Y683636*
X291676Y672682D02*
X290035D01*
Y662805*
X291676*
Y661220*
X286677*
Y662805*
X288253*
Y667777*
X287939Y667999*
X287637Y668199*
X287347Y668375*
X287067Y668527*
X286799Y668656*
X286542Y668761*
X286296Y668844*
X286062Y668902*
X285838Y668937*
X285626Y668949*
X285547Y668947*
X285469Y668940*
X285394Y668929*
X285321Y668913*
X285250Y668893*
X285181Y668868*
X285114Y668839*
X285050Y668805*
X284988Y668767*
X284927Y668724*
X284871Y668678*
X284818Y668629*
X284771Y668578*
X284728Y668524*
X284689Y668468*
X284656Y668410*
X284626Y668349*
X284602Y668286*
X284582Y668220*
X284566Y668152*
X284554Y668076*
X284543Y667986*
X284533Y667882*
X284524Y667765*
X284517Y667634*
X284511Y667489*
X284507Y667330*
X284503Y667158*
X284501Y666972*
Y666773*
Y661220*
X281171*
Y662805*
X282719*
Y667392*
X282721Y667623*
X282727Y667842*
X282738Y668050*
X282752Y668247*
X282771Y668432*
X282794Y668606*
X282822Y668769*
X282854Y668920*
X282889Y669060*
X282929Y669188*
X282975Y669309*
X283029Y669424*
X283089Y669535*
X283158Y669641*
X283233Y669743*
X283316Y669839*
X283407Y669931*
X283504Y670018*
X283610Y670100*
X283722Y670178*
X283842Y670249*
X283968Y670313*
X284100Y670369*
X284238Y670418*
X284383Y670459*
X284535Y670493*
X284693Y670519*
X284857Y670538*
X285027Y670549*
X285204Y670553*
X285495Y670540*
X285788Y670501*
X286085Y670437*
X286385Y670346*
X286689Y670229*
X286995Y670087*
X287305Y669919*
X287617Y669725*
X287933Y669505*
X288253Y669259*
Y674268*
X291676*
Y672682*
X300102Y290028D02*
X300064Y289973D01*
X299956Y289877*
X299783Y289744*
X299553Y289577*
X299271Y289380*
X298942Y289159*
X298573Y288915*
X298169Y288655*
X297737Y288381*
X297282Y288098*
X296828Y287818*
X296396Y287551*
X295993Y287302*
X295624Y287075*
X295296Y286872*
X295015Y286698*
X294785Y286556*
X294614Y286450*
X294507Y286384*
X294470Y286361*
X294453Y286382*
X294403Y286444*
X294323Y286544*
X294215Y286678*
X294083Y286842*
X293929Y287034*
X293756Y287250*
X293567Y287485*
X293364Y287738*
X293151Y288004*
X292696Y288554*
X292276Y289014*
X291865Y289396*
X291437Y289712*
X290966Y289975*
X290427Y290197*
X289794Y290390*
X289042Y290566*
X288144Y290739*
X287076Y290920*
X286584Y291000*
X286080Y291082*
X285573Y291165*
X285072Y291247*
X284587Y291327*
X284126Y291403*
X283698Y291474*
X283314Y291538*
X282982Y291593*
X282710Y291639*
X282432Y291685*
X282079Y291741*
X281662Y291805*
X281192Y291877*
X280677Y291954*
X280130Y292035*
X279559Y292118*
X278975Y292203*
X278389Y292286*
X277811Y292368*
X277250Y292447*
X276713Y292525*
X276209Y292600*
X275744Y292671*
X275326Y292737*
X274962Y292796*
X274661Y292847*
X274430Y292889*
X274276Y292921*
X274207Y292942*
X274159Y292960*
X274065Y292984*
X273929Y293013*
X273755Y293046*
X273549Y293083*
X273313Y293122*
X273053Y293164*
X272772Y293207*
X272476Y293251*
X272168Y293295*
X271858Y293340*
X271557Y293388*
X271269Y293438*
X271000Y293489*
X270752Y293539*
X270532Y293589*
X270343Y293636*
X270191Y293681*
X270078Y293721*
X270011Y293757*
X269950Y293796*
X269855Y293848*
X269730Y293911*
X269579Y293984*
X269404Y294064*
X269210Y294150*
X269000Y294241*
X268778Y294335*
X268547Y294431*
X268310Y294526*
X267639Y294826*
X266898Y295213*
X266123Y295664*
X265348Y296154*
X264607Y296658*
X263934Y297154*
X263364Y297615*
X262930Y298019*
X262668Y298340*
X262611Y298555*
X262648Y298640*
X262708Y298761*
X262789Y298913*
X262888Y299094*
X263003Y299298*
X263131Y299521*
X263271Y299760*
X263420Y300010*
X263576Y300266*
X263735Y300526*
X264069Y301064*
X264348Y301515*
X264592Y301909*
X264819Y302279*
X265049Y302655*
X265301Y303069*
X265594Y303553*
X265948Y304139*
X266382Y304858*
X266916Y305741*
X267185Y306187*
X267449Y306624*
X267706Y307048*
X267949Y307449*
X268176Y307823*
X268382Y308161*
X268562Y308457*
X268713Y308704*
X268831Y308895*
X268910Y309023*
X268989Y309149*
X269104Y309334*
X269250Y309571*
X269425Y309854*
X269623Y310176*
X269841Y310530*
X270075Y310910*
X270320Y311310*
X270573Y311722*
X270830Y312141*
X271097Y312575*
X272532Y314915*
X273470Y316446*
X274726Y318493*
X275779Y320205*
X276648Y321612*
X277349Y322740*
X277900Y323618*
X278320Y324274*
X278626Y324735*
X278835Y325030*
X278965Y325187*
X279035Y325233*
X279066Y325225*
X279104Y325201*
X279148Y325164*
X279195Y325115*
X279246Y325054*
X279300Y324982*
X279355Y324902*
X279410Y324815*
X279464Y324721*
X279517Y324623*
X279682Y324326*
X280021Y323742*
X280567Y322818*
X281352Y321499*
X282408Y319732*
X283767Y317465*
X285461Y314642*
X287521Y311212*
X289981Y307120*
X292871Y302313*
X294605Y299428*
X296044Y297032*
X297214Y295078*
X298142Y293523*
X298853Y292320*
X299376Y291426*
X299735Y290794*
X299959Y290381*
X300072Y290140*
X300102Y290028*
X301647Y670872D02*
X301642Y670663D01*
X301627Y670459*
X301602Y670262*
X301567Y670070*
X301522Y669884*
X301466Y669703*
X301401Y669528*
X301326Y669359*
X301241Y669196*
X301145Y669038*
X301042Y668887*
X300931Y668743*
X300813Y668606*
X300689Y668476*
X300558Y668353*
X300420Y668238*
X300275Y668129*
X300123Y668028*
X299965Y667934*
X299799Y667847*
X299621Y667763*
X299425Y667678*
X299211Y667592*
X298978Y667505*
X298728Y667417*
X298459Y667327*
X298172Y667237*
X297866Y667146*
X297543Y667054*
X297201Y666960*
X296909Y666880*
X296636Y666799*
X296382Y666718*
X296148Y666637*
X295932Y666556*
X295737Y666475*
X295560Y666394*
X295403Y666312*
X295265Y666231*
X295147Y666149*
X295044Y666062*
X294951Y665965*
X294869Y665858*
X294799Y665739*
X294739Y665611*
X294690Y665472*
X294652Y665323*
X294625Y665163*
X294608Y664993*
X294603Y664813*
X294609Y664625*
X294629Y664445*
X294663Y664271*
X294709Y664106*
X294769Y663947*
X294843Y663796*
X294929Y663652*
X295029Y663516*
X295142Y663387*
X295269Y663265*
X295405Y663153*
X295547Y663052*
X295695Y662963*
X295850Y662887*
X296010Y662822*
X296176Y662769*
X296348Y662727*
X296527Y662698*
X296711Y662680*
X296901Y662674*
X297273Y662695*
X297630Y662759*
X297973Y662866*
X298301Y663015*
X298615Y663206*
X298915Y663440*
X299200Y663717*
X299470Y664037*
X299726Y664399*
X299968Y664803*
Y665957*
X301600*
Y661220*
X299968*
Y662299*
X299679Y662055*
X299384Y661836*
X299081Y661643*
X298771Y661476*
X298453Y661335*
X298129Y661219*
X297797Y661129*
X297459Y661065*
X297113Y661027*
X296760Y661014*
X296419Y661025*
X296088Y661057*
X295769Y661112*
X295461Y661188*
X295164Y661286*
X294879Y661406*
X294604Y661547*
X294341Y661710*
X294089Y661895*
X293848Y662102*
X293624Y662326*
X293424Y662561*
X293247Y662807*
X293094Y663066*
X292965Y663336*
X292859Y663617*
X292776Y663911*
X292718Y664216*
X292682Y664532*
X292671Y664861*
X292676Y665094*
X292693Y665323*
X292721Y665545*
X292761Y665763*
X292811Y665975*
X292873Y666181*
X292946Y666382*
X293031Y666578*
X293126Y666768*
X293233Y666953*
X293348Y667130*
X293467Y667296*
X293590Y667452*
X293718Y667598*
X293850Y667733*
X293986Y667857*
X294127Y667972*
X294272Y668076*
X294421Y668169*
X294574Y668252*
X294739Y668331*
X294924Y668410*
X295127Y668491*
X295349Y668573*
X295590Y668657*
X295850Y668741*
X296128Y668827*
X296426Y668913*
X296743Y669001*
X297079Y669091*
X297335Y669157*
X297573Y669219*
X297794Y669279*
X297998Y669336*
X298184Y669390*
X298352Y669441*
X298503Y669489*
X298637Y669534*
X298753Y669576*
X298852Y669615*
X298940Y669655*
X299026Y669699*
X299108Y669747*
X299187Y669799*
X299262Y669855*
X299335Y669916*
X299404Y669981*
X299470Y670050*
X299533Y670124*
X299593Y670201*
X299648Y670282*
X299698Y670366*
X299741Y670452*
X299779Y670540*
X299811Y670632*
X299837Y670725*
X299858Y670821*
X299872Y670920*
X299881Y671021*
X299884Y671125*
X299878Y671260*
X299861Y671391*
X299832Y671519*
X299792Y671642*
X299741Y671762*
X299678Y671878*
X299603Y671990*
X299518Y672098*
X299420Y672202*
X299312Y672302*
X299192Y672396*
X299063Y672480*
X298924Y672554*
X298774Y672618*
X298615Y672672*
X298446Y672716*
X298267Y672751*
X298078Y672775*
X297879Y672790*
X297670Y672795*
X297325Y672780*
X296995Y672734*
X296680Y672659*
X296381Y672553*
X296097Y672417*
X295828Y672251*
X295574Y672055*
X295335Y671828*
X295111Y671572*
X294903Y671285*
Y670375*
X293308*
Y674333*
X294903*
Y673461*
X295174Y673653*
X295449Y673826*
X295728Y673977*
X296012Y674109*
X296301Y674221*
X296594Y674312*
X296891Y674383*
X297193Y674433*
X297500Y674464*
X297811Y674474*
X298135Y674464*
X298449Y674435*
X298751Y674386*
X299042Y674317*
X299322Y674229*
X299591Y674121*
X299849Y673994*
X300095Y673847*
X300330Y673680*
X300554Y673494*
X300762Y673291*
X300948Y673075*
X301112Y672846*
X301254Y672604*
X301374Y672348*
X301472Y672079*
X301549Y671797*
X301603Y671502*
X301636Y671194*
X301647Y670872*
X302848Y664831D02*
X308476D01*
Y666613*
X302848*
Y664831*
X310535Y683634D02*
X301311D01*
X301310Y683636*
X285116*
X283707Y692066*
X299880*
X298509Y700150*
X282406*
X280968Y708609*
X297075Y708605*
X295777Y716252*
X279664*
X278254Y724682*
X294347*
X294346Y724687*
X303571*
X310535Y683634*
X320548Y672635D02*
X318859D01*
Y662852*
X320548*
Y661220*
X309704*
Y665225*
X311318*
Y662852*
X316889*
Y667120*
X312040*
Y668752*
X316889*
Y672635*
X311318*
Y670337*
X309704*
Y674268*
X320548*
Y672635*
G37*
G54D10*
X226500Y44500D02*
X258500D01*
Y60500*
X226500*
Y44500*
X239000Y129500D02*
X271000D01*
Y145500*
X239000*
Y129500*
X296500D02*
X328500D01*
Y145500*
X296500*
Y129500*
X309000Y44500D02*
X341000D01*
Y60500*
X309000*
Y44500*
X364000D02*
X396000D01*
Y60500*
X364000*
Y44500*
X366500Y129500D02*
X398500D01*
Y145500*
X366500*
Y129500*
X397000Y22500D02*
X363000D01*
Y15700*
X369000*
Y14700*
G03X378000Y5700I9000*
G01X382000*
G03X391000Y14700J9000*
G01Y15700*
X397000*
Y22500*
X406500Y44500D02*
X438500D01*
Y60500*
X406500*
Y44500*
X446500D02*
X478500D01*
Y60500*
X446500*
Y44500*
X482500Y629000D02*
G03X450000Y661500I32500D01*
X417500Y629000J32500*
X450000Y596500I32500*
X482500Y629000J32500*
G01X499000Y214500D02*
X531000D01*
Y230500*
X499000*
Y214500*
X518334Y303848D02*
X522879D01*
X523333Y299606*
X522879Y300061*
X521515Y300515*
X520152*
X518788Y300061*
X517879Y299152*
X517424Y297788*
Y296727*
X517879Y295364*
X518788Y294455*
X520152Y294000*
X521515*
X522879Y294455*
X523333Y294909*
X523788Y295818*
X526212Y304000D02*
Y296424D01*
X526818Y294909*
X527576Y294455*
X528788Y294000*
X530151*
X531363Y294455*
X531969Y294909*
X532576Y296424*
Y297333*
X539500Y259020D02*
X760500D01*
Y338520*
X539500*
Y259020*
X716500Y184500D02*
X748500D01*
Y200500*
X716500*
Y184500*
X742000Y141500D02*
X758000D01*
Y173500*
X742000*
Y141500*
X784500Y56500D02*
X800500D01*
Y88500*
X784500*
Y56500*
X794500Y284000D02*
X810500D01*
Y316000*
X794500*
Y284000*
X882500Y629000D02*
G03X850000Y661500I32500D01*
X817500Y629000J32500*
X850000Y596500I32500*
X882500Y629000J32500*
G01X924500Y56500D02*
X940500D01*
Y88500*
X924500*
Y56500*
X1042500Y287500D02*
G03X1010000Y320000I32500D01*
X977500Y287500J32500*
X1010000Y255000I32500*
X1042500Y287500J32500*
G01Y542500D02*
G03X1010000Y575000I32500D01*
X977500Y542500J32500*
X1010000Y510000I32500*
X1042500Y542500J32500*
G54D11*
G01X218500Y57045D02*
Y55136D01*
X218864Y54318*
X219409Y53773*
X219955Y53500*
X220773Y53227*
X222227*
X223045Y53500*
X223682Y53773*
X224227Y54318*
X224500Y55136*
Y57045*
X218500*
X218591Y51227D02*
Y48228D01*
X220864Y49864*
Y49046*
X221136Y48500*
X221409Y48228*
X222227Y47955*
X222864*
X223682Y48228*
X224227Y48773*
X224500Y49591*
Y50409*
X224227Y51227*
X223954Y51500*
X223409Y51773*
X231000Y142045D02*
Y140136D01*
X231364Y139318*
X231909Y138773*
X232455Y138500*
X233273Y138227*
X234727*
X235545Y138500*
X236182Y138773*
X236727Y139318*
X237000Y140136*
Y142045*
X231000*
X232455Y136500D02*
X232182D01*
X231637Y136227*
X231364Y135955*
X231000Y135409*
Y134319*
X231364Y133773*
X231637Y133500*
X232182Y133228*
X232727*
X233273Y133500*
X234182Y134046*
X237000Y136773*
Y132955*
X288500Y142045D02*
Y140136D01*
X288864Y139318*
X289409Y138773*
X289955Y138500*
X290773Y138227*
X292227*
X293045Y138500*
X293682Y138773*
X294227Y139318*
X294500Y140136*
Y142045*
X288500*
X288591Y134228D02*
X292500Y136773D01*
Y132955*
X288591Y134228D02*
X294500D01*
X300000Y57045D02*
Y55136D01*
X300364Y54318*
X300909Y53773*
X301455Y53500*
X302273Y53227*
X303727*
X304545Y53500*
X305182Y53773*
X305727Y54318*
X306000Y55136*
Y57045*
X300000*
X300091Y48500D02*
Y51227D01*
X302636Y51500*
X302364Y51227*
X302091Y50409*
Y49591*
X302364Y48773*
X302909Y48228*
X303727Y47955*
X304364*
X305182Y48228*
X305727Y48773*
X306000Y49591*
Y50409*
X305727Y51227*
X305454Y51500*
X304909Y51773*
X356000Y57045D02*
Y55136D01*
X356364Y54318*
X356909Y53773*
X357455Y53500*
X358273Y53227*
X359727*
X360545Y53500*
X361182Y53773*
X361727Y54318*
X362000Y55136*
Y57045*
X356000*
X356091Y51773D02*
Y47955D01*
X362000Y50682*
X358500Y142045D02*
Y140136D01*
X358864Y139318*
X359409Y138773*
X359955Y138500*
X360773Y138227*
X362227*
X363045Y138500*
X363682Y138773*
X364227Y139318*
X364500Y140136*
Y142045*
X358500*
X359409Y133228D02*
X358864Y133500D01*
X358591Y134409*
Y135046*
X358864Y135955*
X359682Y136500*
X361136Y136773*
X362500*
X363682Y136500*
X364227Y135955*
X364500Y135046*
Y134773*
X364227Y133864*
X363682Y133228*
X362864Y132955*
X362500*
X361682Y133228*
X361136Y133864*
X360864Y134773*
Y135046*
X361136Y135955*
X361682Y136500*
X362500Y136773*
X398500Y57045D02*
Y55136D01*
X398864Y54318*
X399409Y53773*
X399955Y53500*
X400773Y53227*
X402227*
X403045Y53500*
X403682Y53773*
X404227Y54318*
X404500Y55136*
Y57045*
X398500*
X398591Y50409D02*
X398864Y51227D01*
X399409Y51500*
X399955*
X400591Y51227*
X400864Y50682*
X401136Y49591*
X401409Y48773*
X401955Y48228*
X402500Y47955*
X403409*
X403954Y48228*
X404227Y48500*
X404500Y49319*
Y50409*
X404227Y51227*
X403954Y51500*
X403409Y51773*
X402500*
X401954Y51500*
X401409Y50955*
X401136Y50137*
X400864Y49046*
X400591Y48500*
X399955Y48228*
X399409*
X398864Y48500*
X398591Y49319*
Y50409*
X407500Y20045D02*
Y18136D01*
X407864Y17318*
X408409Y16773*
X408954Y16500*
X409772Y16227*
X411227*
X412045Y16500*
X412681Y16773*
X413227Y17318*
X413499Y18136*
Y20045*
X407500*
X408682Y14773D02*
X408409Y14409D01*
X407591Y13955*
X413499*
X480500Y57045D02*
Y55136D01*
X480864Y54318*
X481409Y53773*
X481955Y53500*
X482773Y53227*
X484227*
X485045Y53500*
X485682Y53773*
X486227Y54318*
X486500Y55136*
Y57045*
X480500*
X482500Y47955D02*
X483409Y48228D01*
X483955Y48773*
X484227Y49773*
Y50046*
X483954Y50955*
X483409Y51500*
X482500Y51773*
X482227*
X481409Y51500*
X480864Y50955*
X480591Y50046*
Y49773*
X480864Y48773*
X481409Y48228*
X482500Y47955*
X483955*
X485409Y48228*
X486227Y48773*
X486500Y49773*
Y50318*
X486227Y51227*
X485682Y51500*
X491000Y228181D02*
Y226272D01*
X491364Y225454*
X491909Y224909*
X492455Y224636*
X493273Y224363*
X494727*
X495545Y224636*
X496182Y224909*
X496727Y225454*
X497000Y226272*
Y228181*
X491000*
X491909Y217091D02*
X491364Y217364D01*
X491091Y218273*
Y218909*
X491364Y219818*
X492182Y220364*
X493636Y220637*
X495000*
X496182Y220364*
X496727Y219818*
X497000Y218909*
Y218637*
X496727Y217728*
X496182Y217091*
X495364Y216819*
X495000*
X494182Y217091*
X493636Y217728*
X493364Y218637*
Y218909*
X493636Y219818*
X494182Y220364*
X495000Y220637*
X492182Y222909D02*
X491909Y222545D01*
X491091Y222091*
X497000*
X619319Y382000D02*
Y369182D01*
X618501Y366455*
X616865Y364818*
X614410Y364000*
X612774*
X610319Y364818*
X608683Y366455*
X607865Y369182*
Y382000*
X623683Y379273D02*
X625319Y380909D01*
X627773Y382000*
X631046*
X633500Y380909*
X635137Y379273*
Y377636*
X634319Y376000*
X633500Y375182*
X631864Y374091*
X626955Y372455*
X625319Y371636*
X624501Y370818*
X623683Y369182*
Y366455*
X625319Y364818*
X627773Y364000*
X631046*
X633500Y364818*
X635137Y366455*
X650955Y364000D02*
Y382000D01*
X643591*
X641137Y380909*
X640318Y380091*
X639500Y378454*
Y376000*
X640318Y374091*
X641137Y373273*
X643591Y372455*
X650955*
X670318Y377636D02*
Y378454D01*
X669499Y380091*
X668681Y380909*
X667045Y382000*
X663772*
X662136Y380909*
X661318Y380091*
X660500Y378454*
Y376818*
X661318Y375182*
X662954Y372455*
X671136Y364000*
X659682*
X675772Y365637D02*
X676317Y364818D01*
X675772Y364000*
X675499Y364818*
X675772Y365637*
X692135Y364000D02*
Y382000D01*
X686408Y364000*
X680681Y382000*
Y364000*
X708500Y198181D02*
Y196272D01*
X708864Y195454*
X709409Y194909*
X709955Y194636*
X710773Y194363*
X712227*
X713045Y194636*
X713682Y194909*
X714227Y195454*
X714500Y196272*
Y198181*
X708500*
X709682Y192909D02*
X709409Y192545D01*
X708591Y192091*
X714500*
X709955Y190364D02*
X709682D01*
X709137Y190091*
X708864Y189818*
X708500Y189273*
Y188182*
X708864Y187637*
X709137Y187364*
X709682Y187091*
X710227*
X710773Y187364*
X711682Y187910*
X714500Y190637*
Y186819*
X747591Y139409D02*
X744591D01*
X746228Y137136*
X745410*
X744864Y136864*
X744591Y136591*
X744319Y135773*
Y135137*
X744591Y134318*
X745137Y133773*
X745955Y133500*
X746773*
X747591Y133773*
X747864Y134046*
X748137Y134591*
X750409Y138318D02*
X750045Y138591D01*
X749591Y139409*
Y133500*
X755681Y139500D02*
X753772D01*
X752954Y139136*
X752409Y138591*
X752136Y138045*
X751863Y137227*
Y135773*
X752136Y134955*
X752409Y134318*
X752954Y133773*
X753772Y133500*
X755681*
Y139500*
X789000Y97409D02*
X789818Y97136D01*
X790364Y96318*
X790637Y94864*
Y94046*
X790364Y92591*
X789818Y91773*
X789000Y91500*
X788455*
X787637Y91773*
X787091Y92591*
X786819Y94046*
Y94864*
X787091Y96318*
X787637Y97136*
X788455Y97409*
X789000*
X792909Y96318D02*
X792545Y96591D01*
X792091Y97409*
Y91500*
X798181Y97500D02*
X796272D01*
X795454Y97136*
X794909Y96591*
X794636Y96045*
X794363Y95227*
Y93773*
X794636Y92955*
X794909Y92318*
X795454Y91773*
X796272Y91500*
X798181*
Y97500*
X799637Y323909D02*
X795819D01*
X798546Y318000*
X801909Y322818D02*
X801545Y323091D01*
X801091Y323909*
Y318000*
X807181Y324000D02*
X805272D01*
X804454Y323636*
X803909Y323091*
X803636Y322545*
X803363Y321727*
Y320273*
X803636Y319455*
X803909Y318818*
X804454Y318273*
X805272Y318000*
X807181*
Y324000*
X929137Y96318D02*
X928773Y96591D01*
X928319Y97409*
Y91500*
X931409Y96318D02*
X931046Y96591D01*
X930591Y97409*
Y91500*
X936681Y97500D02*
X934772D01*
X933954Y97136*
X933409Y96591*
X933136Y96045*
X932864Y95227*
Y93773*
X933136Y92955*
X933409Y92318*
X933954Y91773*
X934772Y91500*
X936681*
Y97500*
G54D12*
X387500Y800000D02*
X385500D01*
X387500*
X396500D02*
X394500D01*
X396500*
X405500D02*
X403500D01*
X405500*
X414500D02*
X412500D01*
X414500*
X478910Y331500D02*
X355000D01*
Y779500*
X372500*
Y800000*
X378500*
X372500*
Y779500*
X355000*
Y331500*
X478910*
X950000D02*
X495590D01*
X950000*
Y779500*
X932500*
Y800000*
X762500*
Y779500*
X542500*
Y800000*
X421500*
X542500*
Y779500*
X762500*
Y800000*
X932500*
Y779500*
X950000*
Y331500*
G54D13*
X557560Y245500D03*
M02*
