*
G04 Job   : C:\Users\MartinJohansson\OneDrive - E-Sharp AB\DesignLabs\PLM\Projects\ELECTRONICS\Sparrow_IDC_N-TOP\fe_n-top_R3\PCB\Panel\fe_n-top\fe_n-top.pnl*
G04 User  : ESHARP-MARTIN:MartinJohansson*
G04 Layer : Masktop.gts*
G04 Date  : Fri Apr 17 11:27:39 2026*
G04 Soldermask top*
%ICAS*%
%MOMM*%
%FSLAX24Y24*%
%OFA0.0000B0.0000*%
G90*
G74*
%AMVB_RECTANGLE*
21,1,$1,$2,0,0,$3*
%
%ADD11C,1.00000*%
%ADD10C,1.55000*%
%ADD14C,6.35000*%
%ADD13VB_RECTANGLE,1.00000X0.65000X180.00000*%
%ADD12VB_RECTANGLE,1.00000X0.65000X90.00000*%
%ADD15VB_RECTANGLE,1.15000X3.35000X180.00000*%
%ADD16VB_RECTANGLE,1.95000X1.15000X270.00000*%
G01*
G54D10*
X50000Y50000D03*
Y1258000D03*
X141000Y141000D03*
Y621000D03*
Y687000D03*
Y1167000D03*
X871000Y141000D03*
Y621000D03*
Y687000D03*
Y1167000D03*
X937000Y141000D03*
Y621000D03*
Y687000D03*
Y1167000D03*
X1667000Y141000D03*
Y621000D03*
Y687000D03*
Y1167000D03*
X1758000Y50000D03*
X1778000Y1278000D03*
G54D11*
X116000Y363000D03*
Y372000D03*
Y381000D03*
Y390000D03*
Y399000D03*
Y909000D03*
Y918000D03*
Y927000D03*
Y936000D03*
Y945000D03*
X208000Y116000D03*
Y646000D03*
Y662000D03*
Y1192000D03*
X217000Y116000D03*
Y646000D03*
Y662000D03*
Y1192000D03*
X226000Y116000D03*
Y646000D03*
Y662000D03*
Y1192000D03*
X235000Y116000D03*
Y646000D03*
Y662000D03*
Y1192000D03*
X244000Y116000D03*
Y646000D03*
Y662000D03*
Y1192000D03*
X768000Y116000D03*
Y646000D03*
Y662000D03*
Y1192000D03*
X777000Y116000D03*
Y646000D03*
Y662000D03*
Y1192000D03*
X786000Y116000D03*
Y646000D03*
Y662000D03*
Y1192000D03*
X795000Y116000D03*
Y646000D03*
Y662000D03*
Y1192000D03*
X804000Y116000D03*
Y646000D03*
Y662000D03*
Y1192000D03*
X896000Y363000D03*
Y372000D03*
Y381000D03*
Y390000D03*
Y399000D03*
Y909000D03*
Y918000D03*
Y927000D03*
Y936000D03*
Y945000D03*
X912000Y363000D03*
Y372000D03*
Y381000D03*
Y390000D03*
Y399000D03*
Y909000D03*
Y918000D03*
Y927000D03*
Y936000D03*
Y945000D03*
X1004000Y116000D03*
Y646000D03*
Y662000D03*
Y1192000D03*
X1013000Y116000D03*
Y646000D03*
Y662000D03*
Y1192000D03*
X1022000Y116000D03*
Y646000D03*
Y662000D03*
Y1192000D03*
X1031000Y116000D03*
Y646000D03*
Y662000D03*
Y1192000D03*
X1040000Y116000D03*
Y646000D03*
Y662000D03*
Y1192000D03*
X1564000Y116000D03*
Y646000D03*
Y662000D03*
Y1192000D03*
X1573000Y116000D03*
Y646000D03*
Y662000D03*
Y1192000D03*
X1582000Y116000D03*
Y646000D03*
Y662000D03*
Y1192000D03*
X1591000Y116000D03*
Y646000D03*
Y662000D03*
Y1192000D03*
X1600000Y116000D03*
Y646000D03*
Y662000D03*
Y1192000D03*
X1692000Y363000D03*
Y372000D03*
Y381000D03*
Y390000D03*
Y399000D03*
Y909000D03*
Y918000D03*
Y927000D03*
Y936000D03*
Y945000D03*
G54D12*
X163500Y191750D03*
Y209250D03*
Y370500D03*
Y388000D03*
Y549250D03*
Y566750D03*
Y737750D03*
Y755250D03*
Y916500D03*
Y934000D03*
Y1095250D03*
Y1112750D03*
X173500Y191750D03*
Y209250D03*
Y370500D03*
Y388000D03*
Y549250D03*
Y566750D03*
Y737750D03*
Y755250D03*
Y916500D03*
Y934000D03*
Y1095250D03*
Y1112750D03*
X446000Y191750D03*
Y209250D03*
Y370500D03*
Y388000D03*
Y549250D03*
Y566750D03*
Y737750D03*
Y755250D03*
Y916500D03*
Y934000D03*
Y1095250D03*
Y1112750D03*
X456000Y191750D03*
Y209250D03*
Y370500D03*
Y388000D03*
Y549250D03*
Y566750D03*
Y737750D03*
Y755250D03*
Y916500D03*
Y934000D03*
Y1095250D03*
Y1112750D03*
X501000Y259750D03*
Y277250D03*
Y512250D03*
Y529750D03*
Y805750D03*
Y823250D03*
Y1058250D03*
Y1075750D03*
X511000Y259750D03*
Y277250D03*
Y512250D03*
Y529750D03*
Y805750D03*
Y823250D03*
Y1058250D03*
Y1075750D03*
X556000Y191750D03*
Y209250D03*
Y370500D03*
Y388000D03*
Y549250D03*
Y566750D03*
Y737750D03*
Y755250D03*
Y916500D03*
Y934000D03*
Y1095250D03*
Y1112750D03*
X566000Y191750D03*
Y209250D03*
Y370500D03*
Y388000D03*
Y549250D03*
Y566750D03*
Y737750D03*
Y755250D03*
Y916500D03*
Y934000D03*
Y1095250D03*
Y1112750D03*
X838500Y191750D03*
Y209250D03*
Y370500D03*
Y388000D03*
Y549250D03*
Y566750D03*
Y737750D03*
Y755250D03*
Y916500D03*
Y934000D03*
Y1095250D03*
Y1112750D03*
X848500Y191750D03*
Y209250D03*
Y370500D03*
Y388000D03*
Y549250D03*
Y566750D03*
Y737750D03*
Y755250D03*
Y916500D03*
Y934000D03*
Y1095250D03*
Y1112750D03*
X959500Y191750D03*
Y209250D03*
Y370500D03*
Y388000D03*
Y549250D03*
Y566750D03*
Y737750D03*
Y755250D03*
Y916500D03*
Y934000D03*
Y1095250D03*
Y1112750D03*
X969500Y191750D03*
Y209250D03*
Y370500D03*
Y388000D03*
Y549250D03*
Y566750D03*
Y737750D03*
Y755250D03*
Y916500D03*
Y934000D03*
Y1095250D03*
Y1112750D03*
X1242000Y191750D03*
Y209250D03*
Y370500D03*
Y388000D03*
Y549250D03*
Y566750D03*
Y737750D03*
Y755250D03*
Y916500D03*
Y934000D03*
Y1095250D03*
Y1112750D03*
X1252000Y191750D03*
Y209250D03*
Y370500D03*
Y388000D03*
Y549250D03*
Y566750D03*
Y737750D03*
Y755250D03*
Y916500D03*
Y934000D03*
Y1095250D03*
Y1112750D03*
X1297000Y259750D03*
Y277250D03*
Y512250D03*
Y529750D03*
Y805750D03*
Y823250D03*
Y1058250D03*
Y1075750D03*
X1307000Y259750D03*
Y277250D03*
Y512250D03*
Y529750D03*
Y805750D03*
Y823250D03*
Y1058250D03*
Y1075750D03*
X1352000Y191750D03*
Y209250D03*
Y370500D03*
Y388000D03*
Y549250D03*
Y566750D03*
Y737750D03*
Y755250D03*
Y916500D03*
Y934000D03*
Y1095250D03*
Y1112750D03*
X1362000Y191750D03*
Y209250D03*
Y370500D03*
Y388000D03*
Y549250D03*
Y566750D03*
Y737750D03*
Y755250D03*
Y916500D03*
Y934000D03*
Y1095250D03*
Y1112750D03*
X1634500Y191750D03*
Y209250D03*
Y370500D03*
Y388000D03*
Y549250D03*
Y566750D03*
Y737750D03*
Y755250D03*
Y916500D03*
Y934000D03*
Y1095250D03*
Y1112750D03*
X1644500Y191750D03*
Y209250D03*
Y370500D03*
Y388000D03*
Y549250D03*
Y566750D03*
Y737750D03*
Y755250D03*
Y916500D03*
Y934000D03*
Y1095250D03*
Y1112750D03*
G54D13*
X237250Y141000D03*
Y151000D03*
Y248500D03*
Y258500D03*
Y321000D03*
Y331000D03*
Y428500D03*
Y438500D03*
Y498500D03*
Y508500D03*
Y606000D03*
Y616000D03*
Y687000D03*
Y697000D03*
Y794500D03*
Y804500D03*
Y867000D03*
Y877000D03*
Y974500D03*
Y984500D03*
Y1044500D03*
Y1054500D03*
Y1152000D03*
Y1162000D03*
X254750Y141000D03*
Y151000D03*
Y248500D03*
Y258500D03*
Y321000D03*
Y331000D03*
Y428500D03*
Y438500D03*
Y498500D03*
Y508500D03*
Y606000D03*
Y616000D03*
Y687000D03*
Y697000D03*
Y794500D03*
Y804500D03*
Y867000D03*
Y877000D03*
Y974500D03*
Y984500D03*
Y1044500D03*
Y1054500D03*
Y1152000D03*
Y1162000D03*
X364750Y141000D03*
Y151000D03*
Y248500D03*
Y258500D03*
Y321000D03*
Y331000D03*
Y428500D03*
Y438500D03*
Y498500D03*
Y508500D03*
Y606000D03*
Y616000D03*
Y687000D03*
Y697000D03*
Y794500D03*
Y804500D03*
Y867000D03*
Y877000D03*
Y974500D03*
Y984500D03*
Y1044500D03*
Y1054500D03*
Y1152000D03*
Y1162000D03*
X382250Y141000D03*
Y151000D03*
Y248500D03*
Y258500D03*
Y321000D03*
Y331000D03*
Y428500D03*
Y438500D03*
Y498500D03*
Y508500D03*
Y606000D03*
Y616000D03*
Y687000D03*
Y697000D03*
Y794500D03*
Y804500D03*
Y867000D03*
Y877000D03*
Y974500D03*
Y984500D03*
Y1044500D03*
Y1054500D03*
Y1152000D03*
Y1162000D03*
X629750Y141000D03*
Y151000D03*
Y251000D03*
Y261000D03*
Y321000D03*
Y331000D03*
Y428500D03*
Y438500D03*
Y498500D03*
Y508500D03*
Y606000D03*
Y616000D03*
Y687000D03*
Y697000D03*
Y797000D03*
Y807000D03*
Y867000D03*
Y877000D03*
Y974500D03*
Y984500D03*
Y1044500D03*
Y1054500D03*
Y1152000D03*
Y1162000D03*
X647250Y141000D03*
Y151000D03*
Y251000D03*
Y261000D03*
Y321000D03*
Y331000D03*
Y428500D03*
Y438500D03*
Y498500D03*
Y508500D03*
Y606000D03*
Y616000D03*
Y687000D03*
Y697000D03*
Y797000D03*
Y807000D03*
Y867000D03*
Y877000D03*
Y974500D03*
Y984500D03*
Y1044500D03*
Y1054500D03*
Y1152000D03*
Y1162000D03*
X757250Y141000D03*
Y151000D03*
Y251000D03*
Y261000D03*
Y321000D03*
Y331000D03*
Y428500D03*
Y438500D03*
Y498500D03*
Y508500D03*
Y606000D03*
Y616000D03*
Y687000D03*
Y697000D03*
Y797000D03*
Y807000D03*
Y867000D03*
Y877000D03*
Y974500D03*
Y984500D03*
Y1044500D03*
Y1054500D03*
Y1152000D03*
Y1162000D03*
X774750Y141000D03*
Y151000D03*
Y251000D03*
Y261000D03*
Y321000D03*
Y331000D03*
Y428500D03*
Y438500D03*
Y498500D03*
Y508500D03*
Y606000D03*
Y616000D03*
Y687000D03*
Y697000D03*
Y797000D03*
Y807000D03*
Y867000D03*
Y877000D03*
Y974500D03*
Y984500D03*
Y1044500D03*
Y1054500D03*
Y1152000D03*
Y1162000D03*
X1033250Y141000D03*
Y151000D03*
Y248500D03*
Y258500D03*
Y321000D03*
Y331000D03*
Y428500D03*
Y438500D03*
Y498500D03*
Y508500D03*
Y606000D03*
Y616000D03*
Y687000D03*
Y697000D03*
Y794500D03*
Y804500D03*
Y867000D03*
Y877000D03*
Y974500D03*
Y984500D03*
Y1044500D03*
Y1054500D03*
Y1152000D03*
Y1162000D03*
X1050750Y141000D03*
Y151000D03*
Y248500D03*
Y258500D03*
Y321000D03*
Y331000D03*
Y428500D03*
Y438500D03*
Y498500D03*
Y508500D03*
Y606000D03*
Y616000D03*
Y687000D03*
Y697000D03*
Y794500D03*
Y804500D03*
Y867000D03*
Y877000D03*
Y974500D03*
Y984500D03*
Y1044500D03*
Y1054500D03*
Y1152000D03*
Y1162000D03*
X1160750Y141000D03*
Y151000D03*
Y248500D03*
Y258500D03*
Y321000D03*
Y331000D03*
Y428500D03*
Y438500D03*
Y498500D03*
Y508500D03*
Y606000D03*
Y616000D03*
Y687000D03*
Y697000D03*
Y794500D03*
Y804500D03*
Y867000D03*
Y877000D03*
Y974500D03*
Y984500D03*
Y1044500D03*
Y1054500D03*
Y1152000D03*
Y1162000D03*
X1178250Y141000D03*
Y151000D03*
Y248500D03*
Y258500D03*
Y321000D03*
Y331000D03*
Y428500D03*
Y438500D03*
Y498500D03*
Y508500D03*
Y606000D03*
Y616000D03*
Y687000D03*
Y697000D03*
Y794500D03*
Y804500D03*
Y867000D03*
Y877000D03*
Y974500D03*
Y984500D03*
Y1044500D03*
Y1054500D03*
Y1152000D03*
Y1162000D03*
X1425750Y141000D03*
Y151000D03*
Y251000D03*
Y261000D03*
Y321000D03*
Y331000D03*
Y428500D03*
Y438500D03*
Y498500D03*
Y508500D03*
Y606000D03*
Y616000D03*
Y687000D03*
Y697000D03*
Y797000D03*
Y807000D03*
Y867000D03*
Y877000D03*
Y974500D03*
Y984500D03*
Y1044500D03*
Y1054500D03*
Y1152000D03*
Y1162000D03*
X1443250Y141000D03*
Y151000D03*
Y251000D03*
Y261000D03*
Y321000D03*
Y331000D03*
Y428500D03*
Y438500D03*
Y498500D03*
Y508500D03*
Y606000D03*
Y616000D03*
Y687000D03*
Y697000D03*
Y797000D03*
Y807000D03*
Y867000D03*
Y877000D03*
Y974500D03*
Y984500D03*
Y1044500D03*
Y1054500D03*
Y1152000D03*
Y1162000D03*
X1553250Y141000D03*
Y151000D03*
Y251000D03*
Y261000D03*
Y321000D03*
Y331000D03*
Y428500D03*
Y438500D03*
Y498500D03*
Y508500D03*
Y606000D03*
Y616000D03*
Y687000D03*
Y697000D03*
Y797000D03*
Y807000D03*
Y867000D03*
Y877000D03*
Y974500D03*
Y984500D03*
Y1044500D03*
Y1054500D03*
Y1152000D03*
Y1162000D03*
X1570750Y141000D03*
Y151000D03*
Y251000D03*
Y261000D03*
Y321000D03*
Y331000D03*
Y428500D03*
Y438500D03*
Y498500D03*
Y508500D03*
Y606000D03*
Y616000D03*
Y687000D03*
Y697000D03*
Y797000D03*
Y807000D03*
Y867000D03*
Y877000D03*
Y974500D03*
Y984500D03*
Y1044500D03*
Y1054500D03*
Y1152000D03*
Y1162000D03*
G54D14*
X506000Y211000D03*
Y466000D03*
Y757000D03*
Y1012000D03*
X1302000Y211000D03*
Y466000D03*
Y757000D03*
Y1012000D03*
G54D15*
X195200Y173500D03*
Y227500D03*
Y352250D03*
Y406250D03*
Y531000D03*
Y585000D03*
Y719500D03*
Y773500D03*
Y898250D03*
Y952250D03*
Y1077000D03*
Y1131000D03*
X220600Y173500D03*
Y227500D03*
Y352250D03*
Y406250D03*
Y531000D03*
Y585000D03*
Y719500D03*
Y773500D03*
Y898250D03*
Y952250D03*
Y1077000D03*
Y1131000D03*
X246000Y173500D03*
Y227500D03*
Y352250D03*
Y406250D03*
Y531000D03*
Y585000D03*
Y719500D03*
Y773500D03*
Y898250D03*
Y952250D03*
Y1077000D03*
Y1131000D03*
X271400Y173500D03*
Y227500D03*
Y352250D03*
Y406250D03*
Y531000D03*
Y585000D03*
Y719500D03*
Y773500D03*
Y898250D03*
Y952250D03*
Y1077000D03*
Y1131000D03*
X296800Y173500D03*
Y227500D03*
Y352250D03*
Y406250D03*
Y531000D03*
Y585000D03*
Y719500D03*
Y773500D03*
Y898250D03*
Y952250D03*
Y1077000D03*
Y1131000D03*
X322200Y173500D03*
Y227500D03*
Y352250D03*
Y406250D03*
Y531000D03*
Y585000D03*
Y719500D03*
Y773500D03*
Y898250D03*
Y952250D03*
Y1077000D03*
Y1131000D03*
X347600Y173500D03*
Y227500D03*
Y352250D03*
Y406250D03*
Y531000D03*
Y585000D03*
Y719500D03*
Y773500D03*
Y898250D03*
Y952250D03*
Y1077000D03*
Y1131000D03*
X373000Y173500D03*
Y227500D03*
Y352250D03*
Y406250D03*
Y531000D03*
Y585000D03*
Y719500D03*
Y773500D03*
Y898250D03*
Y952250D03*
Y1077000D03*
Y1131000D03*
X398400Y173500D03*
Y227500D03*
Y352250D03*
Y406250D03*
Y531000D03*
Y585000D03*
Y719500D03*
Y773500D03*
Y898250D03*
Y952250D03*
Y1077000D03*
Y1131000D03*
X423800Y173500D03*
Y227500D03*
Y352250D03*
Y406250D03*
Y531000D03*
Y585000D03*
Y719500D03*
Y773500D03*
Y898250D03*
Y952250D03*
Y1077000D03*
Y1131000D03*
X588200Y173500D03*
Y227500D03*
Y352250D03*
Y406250D03*
Y531000D03*
Y585000D03*
Y719500D03*
Y773500D03*
Y898250D03*
Y952250D03*
Y1077000D03*
Y1131000D03*
X613600Y173500D03*
Y227500D03*
Y352250D03*
Y406250D03*
Y531000D03*
Y585000D03*
Y719500D03*
Y773500D03*
Y898250D03*
Y952250D03*
Y1077000D03*
Y1131000D03*
X639000Y173500D03*
Y227500D03*
Y352250D03*
Y406250D03*
Y531000D03*
Y585000D03*
Y719500D03*
Y773500D03*
Y898250D03*
Y952250D03*
Y1077000D03*
Y1131000D03*
X664400Y173500D03*
Y227500D03*
Y352250D03*
Y406250D03*
Y531000D03*
Y585000D03*
Y719500D03*
Y773500D03*
Y898250D03*
Y952250D03*
Y1077000D03*
Y1131000D03*
X689800Y173500D03*
Y227500D03*
Y352250D03*
Y406250D03*
Y531000D03*
Y585000D03*
Y719500D03*
Y773500D03*
Y898250D03*
Y952250D03*
Y1077000D03*
Y1131000D03*
X715200Y173500D03*
Y227500D03*
Y352250D03*
Y406250D03*
Y531000D03*
Y585000D03*
Y719500D03*
Y773500D03*
Y898250D03*
Y952250D03*
Y1077000D03*
Y1131000D03*
X740600Y173500D03*
Y227500D03*
Y352250D03*
Y406250D03*
Y531000D03*
Y585000D03*
Y719500D03*
Y773500D03*
Y898250D03*
Y952250D03*
Y1077000D03*
Y1131000D03*
X766000Y173500D03*
Y227500D03*
Y352250D03*
Y406250D03*
Y531000D03*
Y585000D03*
Y719500D03*
Y773500D03*
Y898250D03*
Y952250D03*
Y1077000D03*
Y1131000D03*
X791400Y173500D03*
Y227500D03*
Y352250D03*
Y406250D03*
Y531000D03*
Y585000D03*
Y719500D03*
Y773500D03*
Y898250D03*
Y952250D03*
Y1077000D03*
Y1131000D03*
X816800Y173500D03*
Y227500D03*
Y352250D03*
Y406250D03*
Y531000D03*
Y585000D03*
Y719500D03*
Y773500D03*
Y898250D03*
Y952250D03*
Y1077000D03*
Y1131000D03*
X991200Y173500D03*
Y227500D03*
Y352250D03*
Y406250D03*
Y531000D03*
Y585000D03*
Y719500D03*
Y773500D03*
Y898250D03*
Y952250D03*
Y1077000D03*
Y1131000D03*
X1016600Y173500D03*
Y227500D03*
Y352250D03*
Y406250D03*
Y531000D03*
Y585000D03*
Y719500D03*
Y773500D03*
Y898250D03*
Y952250D03*
Y1077000D03*
Y1131000D03*
X1042000Y173500D03*
Y227500D03*
Y352250D03*
Y406250D03*
Y531000D03*
Y585000D03*
Y719500D03*
Y773500D03*
Y898250D03*
Y952250D03*
Y1077000D03*
Y1131000D03*
X1067400Y173500D03*
Y227500D03*
Y352250D03*
Y406250D03*
Y531000D03*
Y585000D03*
Y719500D03*
Y773500D03*
Y898250D03*
Y952250D03*
Y1077000D03*
Y1131000D03*
X1092800Y173500D03*
Y227500D03*
Y352250D03*
Y406250D03*
Y531000D03*
Y585000D03*
Y719500D03*
Y773500D03*
Y898250D03*
Y952250D03*
Y1077000D03*
Y1131000D03*
X1118200Y173500D03*
Y227500D03*
Y352250D03*
Y406250D03*
Y531000D03*
Y585000D03*
Y719500D03*
Y773500D03*
Y898250D03*
Y952250D03*
Y1077000D03*
Y1131000D03*
X1143600Y173500D03*
Y227500D03*
Y352250D03*
Y406250D03*
Y531000D03*
Y585000D03*
Y719500D03*
Y773500D03*
Y898250D03*
Y952250D03*
Y1077000D03*
Y1131000D03*
X1169000Y173500D03*
Y227500D03*
Y352250D03*
Y406250D03*
Y531000D03*
Y585000D03*
Y719500D03*
Y773500D03*
Y898250D03*
Y952250D03*
Y1077000D03*
Y1131000D03*
X1194400Y173500D03*
Y227500D03*
Y352250D03*
Y406250D03*
Y531000D03*
Y585000D03*
Y719500D03*
Y773500D03*
Y898250D03*
Y952250D03*
Y1077000D03*
Y1131000D03*
X1219800Y173500D03*
Y227500D03*
Y352250D03*
Y406250D03*
Y531000D03*
Y585000D03*
Y719500D03*
Y773500D03*
Y898250D03*
Y952250D03*
Y1077000D03*
Y1131000D03*
X1384200Y173500D03*
Y227500D03*
Y352250D03*
Y406250D03*
Y531000D03*
Y585000D03*
Y719500D03*
Y773500D03*
Y898250D03*
Y952250D03*
Y1077000D03*
Y1131000D03*
X1409600Y173500D03*
Y227500D03*
Y352250D03*
Y406250D03*
Y531000D03*
Y585000D03*
Y719500D03*
Y773500D03*
Y898250D03*
Y952250D03*
Y1077000D03*
Y1131000D03*
X1435000Y173500D03*
Y227500D03*
Y352250D03*
Y406250D03*
Y531000D03*
Y585000D03*
Y719500D03*
Y773500D03*
Y898250D03*
Y952250D03*
Y1077000D03*
Y1131000D03*
X1460400Y173500D03*
Y227500D03*
Y352250D03*
Y406250D03*
Y531000D03*
Y585000D03*
Y719500D03*
Y773500D03*
Y898250D03*
Y952250D03*
Y1077000D03*
Y1131000D03*
X1485800Y173500D03*
Y227500D03*
Y352250D03*
Y406250D03*
Y531000D03*
Y585000D03*
Y719500D03*
Y773500D03*
Y898250D03*
Y952250D03*
Y1077000D03*
Y1131000D03*
X1511200Y173500D03*
Y227500D03*
Y352250D03*
Y406250D03*
Y531000D03*
Y585000D03*
Y719500D03*
Y773500D03*
Y898250D03*
Y952250D03*
Y1077000D03*
Y1131000D03*
X1536600Y173500D03*
Y227500D03*
Y352250D03*
Y406250D03*
Y531000D03*
Y585000D03*
Y719500D03*
Y773500D03*
Y898250D03*
Y952250D03*
Y1077000D03*
Y1131000D03*
X1562000Y173500D03*
Y227500D03*
Y352250D03*
Y406250D03*
Y531000D03*
Y585000D03*
Y719500D03*
Y773500D03*
Y898250D03*
Y952250D03*
Y1077000D03*
Y1131000D03*
X1587400Y173500D03*
Y227500D03*
Y352250D03*
Y406250D03*
Y531000D03*
Y585000D03*
Y719500D03*
Y773500D03*
Y898250D03*
Y952250D03*
Y1077000D03*
Y1131000D03*
X1612800Y173500D03*
Y227500D03*
Y352250D03*
Y406250D03*
Y531000D03*
Y585000D03*
Y719500D03*
Y773500D03*
Y898250D03*
Y952250D03*
Y1077000D03*
Y1131000D03*
G54D16*
X486000Y626000D03*
Y1172000D03*
X516000Y626000D03*
Y1172000D03*
X546000Y626000D03*
Y1172000D03*
X576000Y626000D03*
Y1172000D03*
X1282000Y626000D03*
Y1172000D03*
X1312000Y626000D03*
Y1172000D03*
X1342000Y626000D03*
Y1172000D03*
X1372000Y626000D03*
Y1172000D03*
M02*
