*
G04 Job   : C:\Users\MartinJohansson\OneDrive - E-Sharp AB\DesignLabs\PLM\Projects\ELECTRONICS\Sparrow_IDC_N-TOP\fe_n-top_R3\PCB\Panel\fe_n-top\fe_n-top.pnl*
G04 User  : ESHARP-MARTIN:MartinJohansson*
G04 Layer : Maskbottom.gbs*
G04 Date  : Fri Apr 17 11:27:39 2026*
G04 Soldermask bottom*
%ICAS*%
%MOMM*%
%FSLAX24Y24*%
%OFA0.0000B0.0000*%
G90*
G74*
%AMVB_RECTANGLE*
21,1,$1,$2,0,0,$3*
%
%AMVB_FINGER0*
$3=$1/2*
$4=$2/2*
$5=0-$4*
1,1,$2,$3-$4,0*
21,1,$1-$4,$2,$5/2,0,0*
%
%AMVB_FINGER90*
$3=$1/2*
$4=$2/2*
$5=0-$4*
1,1,$2,0,$3-$4*
21,1,$2,$1-$4,0,$5/2,0*
%
%AMVB_FINGER180*
$3=$1/2*
$4=$2/2*
1,1,$2,$4-$3,0*
21,1,$1-$4,$2,$4/2,0,0*
%
%AMVB_FINGER270*
$3=$1/2*
$4=$2/2*
1,1,$2,0,$4-$3*
21,1,$2,$1-$4,0,$4/2,0*
%
%ADD11C,1.00000*%
%ADD10C,1.55000*%
%ADD17C,6.35000*%
%ADD28VB_RECTANGLE,3.00000X3.00000X270.00000*%
%ADD16VB_RECTANGLE,0.30000X2.00000X180.00000*%
%ADD70VB_RECTANGLE,0.55000X0.75000X180.00000*%
%ADD23VB_RECTANGLE,0.55000X0.75000X90.00000*%
%ADD21VB_RECTANGLE,0.55000X1.65000X0.00000*%
%ADD71VB_RECTANGLE,0.75000X1.25000X90.00000*%
%ADD22VB_RECTANGLE,0.75000X1.35000X90.00000*%
%ADD18VB_RECTANGLE,0.75000X1.70000X180.00000*%
%ADD15VB_RECTANGLE,0.80000X2.10000X180.00000*%
%ADD12VB_RECTANGLE,0.85000X1.05000X180.00000*%
%ADD72VB_RECTANGLE,0.85000X1.05000X90.00000*%
%ADD13VB_RECTANGLE,1.10000X1.15000X270.00000*%
%ADD20VB_RECTANGLE,1.30000X1.60000X180.00000*%
%ADD29VB_RECTANGLE,1.90000X1.20000X0.00000*%
%ADD14VB_RECTANGLE,1.90000X1.20000X90.00000*%
%ADD19VB_RECTANGLE,2.15000X3.60000X180.00000*%
%ADD24VB_FINGER0,0.90000X0.30000*%
%ADD27VB_FINGER90,0.90000X0.30000*%
%ADD26VB_FINGER180,0.90000X0.30000*%
%ADD25VB_FINGER270,0.90000X0.30000*%
G01*
G54D10*
X50000Y50000D03*
Y1258000D03*
X141000Y141000D03*
Y621000D03*
Y687000D03*
Y1167000D03*
X871000Y141000D03*
Y621000D03*
Y687000D03*
Y1167000D03*
X937000Y141000D03*
Y621000D03*
Y687000D03*
Y1167000D03*
X1667000Y141000D03*
Y621000D03*
Y687000D03*
Y1167000D03*
X1758000Y50000D03*
X1778000Y1278000D03*
G54D11*
X116000Y363000D03*
Y372000D03*
Y381000D03*
Y390000D03*
Y399000D03*
Y909000D03*
Y918000D03*
Y927000D03*
Y936000D03*
Y945000D03*
X208000Y116000D03*
Y646000D03*
Y662000D03*
Y1192000D03*
X217000Y116000D03*
Y646000D03*
Y662000D03*
Y1192000D03*
X226000Y116000D03*
Y646000D03*
Y662000D03*
Y1192000D03*
X235000Y116000D03*
Y646000D03*
Y662000D03*
Y1192000D03*
X244000Y116000D03*
Y646000D03*
Y662000D03*
Y1192000D03*
X768000Y116000D03*
Y646000D03*
Y662000D03*
Y1192000D03*
X777000Y116000D03*
Y646000D03*
Y662000D03*
Y1192000D03*
X786000Y116000D03*
Y646000D03*
Y662000D03*
Y1192000D03*
X795000Y116000D03*
Y646000D03*
Y662000D03*
Y1192000D03*
X804000Y116000D03*
Y646000D03*
Y662000D03*
Y1192000D03*
X896000Y363000D03*
Y372000D03*
Y381000D03*
Y390000D03*
Y399000D03*
Y909000D03*
Y918000D03*
Y927000D03*
Y936000D03*
Y945000D03*
X912000Y363000D03*
Y372000D03*
Y381000D03*
Y390000D03*
Y399000D03*
Y909000D03*
Y918000D03*
Y927000D03*
Y936000D03*
Y945000D03*
X1004000Y116000D03*
Y646000D03*
Y662000D03*
Y1192000D03*
X1013000Y116000D03*
Y646000D03*
Y662000D03*
Y1192000D03*
X1022000Y116000D03*
Y646000D03*
Y662000D03*
Y1192000D03*
X1031000Y116000D03*
Y646000D03*
Y662000D03*
Y1192000D03*
X1040000Y116000D03*
Y646000D03*
Y662000D03*
Y1192000D03*
X1564000Y116000D03*
Y646000D03*
Y662000D03*
Y1192000D03*
X1573000Y116000D03*
Y646000D03*
Y662000D03*
Y1192000D03*
X1582000Y116000D03*
Y646000D03*
Y662000D03*
Y1192000D03*
X1591000Y116000D03*
Y646000D03*
Y662000D03*
Y1192000D03*
X1600000Y116000D03*
Y646000D03*
Y662000D03*
Y1192000D03*
X1692000Y363000D03*
Y372000D03*
Y381000D03*
Y390000D03*
Y399000D03*
Y909000D03*
Y918000D03*
Y927000D03*
Y936000D03*
Y945000D03*
G54D12*
X139000Y246000D03*
Y353500D03*
Y792000D03*
Y899500D03*
X148500Y266000D03*
Y373500D03*
Y812000D03*
Y919500D03*
X158000Y246000D03*
Y353500D03*
Y792000D03*
Y899500D03*
X222750Y373500D03*
Y919500D03*
X224000Y433500D03*
Y503500D03*
Y598500D03*
Y979500D03*
Y1049500D03*
Y1144500D03*
X232250Y393500D03*
Y939500D03*
X233500Y453500D03*
Y483500D03*
Y618500D03*
Y999500D03*
Y1029500D03*
Y1164500D03*
X241750Y373500D03*
Y919500D03*
X243000Y433500D03*
Y503500D03*
Y598500D03*
Y979500D03*
Y1049500D03*
Y1144500D03*
X274000Y373500D03*
Y433500D03*
Y503500D03*
Y598500D03*
Y919500D03*
Y979500D03*
Y1049500D03*
Y1144500D03*
X283500Y393500D03*
Y453500D03*
Y483500D03*
Y618500D03*
Y939500D03*
Y999500D03*
Y1029500D03*
Y1164500D03*
X293000Y373500D03*
Y433500D03*
Y503500D03*
Y598500D03*
Y919500D03*
Y979500D03*
Y1049500D03*
Y1144500D03*
X324000Y373500D03*
Y433500D03*
Y503500D03*
Y598500D03*
Y919500D03*
Y979500D03*
Y1049500D03*
Y1144500D03*
X333500Y393500D03*
Y453500D03*
Y483500D03*
Y618500D03*
Y939500D03*
Y999500D03*
Y1029500D03*
Y1164500D03*
X343000Y373500D03*
Y433500D03*
Y503500D03*
Y598500D03*
Y919500D03*
Y979500D03*
Y1049500D03*
Y1144500D03*
X376500Y373500D03*
Y433500D03*
Y503500D03*
Y598500D03*
Y919500D03*
Y979500D03*
Y1049500D03*
Y1144500D03*
X386000Y393500D03*
Y453500D03*
Y483500D03*
Y618500D03*
Y939500D03*
Y999500D03*
Y1029500D03*
Y1164500D03*
X395500Y373500D03*
Y433500D03*
Y503500D03*
Y598500D03*
Y919500D03*
Y979500D03*
Y1049500D03*
Y1144500D03*
X439000Y156000D03*
Y702000D03*
X448500Y136000D03*
Y682000D03*
X458000Y156000D03*
Y702000D03*
X476500Y156000D03*
Y702000D03*
X486000Y136000D03*
Y682000D03*
X495500Y156000D03*
Y702000D03*
X514000Y156000D03*
Y702000D03*
X523500Y136000D03*
Y682000D03*
X533000Y156000D03*
Y702000D03*
X554000Y156000D03*
Y702000D03*
X563500Y136000D03*
Y682000D03*
X573000Y156000D03*
Y702000D03*
X616500Y188500D03*
Y208500D03*
Y373500D03*
Y433500D03*
Y503500D03*
Y598500D03*
Y734500D03*
Y754500D03*
Y919500D03*
Y979500D03*
Y1049500D03*
Y1144500D03*
X626000Y168500D03*
Y228500D03*
Y393500D03*
Y453500D03*
Y483500D03*
Y618500D03*
Y714500D03*
Y774500D03*
Y939500D03*
Y999500D03*
Y1029500D03*
Y1164500D03*
X635500Y188500D03*
Y208500D03*
Y373500D03*
Y433500D03*
Y503500D03*
Y598500D03*
Y734500D03*
Y754500D03*
Y919500D03*
Y979500D03*
Y1049500D03*
Y1144500D03*
X666500Y188500D03*
Y208500D03*
Y734500D03*
Y754500D03*
X669000Y373500D03*
Y433500D03*
Y503500D03*
Y598500D03*
Y919500D03*
Y979500D03*
Y1049500D03*
Y1144500D03*
X676000Y168500D03*
Y228500D03*
Y714500D03*
Y774500D03*
X678500Y393500D03*
Y453500D03*
Y483500D03*
Y618500D03*
Y939500D03*
Y999500D03*
Y1029500D03*
Y1164500D03*
X685500Y188500D03*
Y208500D03*
Y734500D03*
Y754500D03*
X688000Y373500D03*
Y433500D03*
Y503500D03*
Y598500D03*
Y919500D03*
Y979500D03*
Y1049500D03*
Y1144500D03*
X716500Y188500D03*
Y208500D03*
Y734500D03*
Y754500D03*
X719000Y433500D03*
Y503500D03*
Y598500D03*
Y979500D03*
Y1049500D03*
Y1144500D03*
X720000Y373500D03*
Y919500D03*
X726000Y168500D03*
Y228500D03*
Y714500D03*
Y774500D03*
X728500Y453500D03*
Y483500D03*
Y618500D03*
Y999500D03*
Y1029500D03*
Y1164500D03*
X729500Y393500D03*
Y939500D03*
X735500Y188500D03*
Y208500D03*
Y734500D03*
Y754500D03*
X738000Y433500D03*
Y503500D03*
Y598500D03*
Y979500D03*
Y1049500D03*
Y1144500D03*
X739000Y373500D03*
Y919500D03*
X767500Y373500D03*
Y919500D03*
X769000Y188500D03*
Y208500D03*
Y433500D03*
Y503500D03*
Y598500D03*
Y734500D03*
Y754500D03*
Y979500D03*
Y1049500D03*
Y1144500D03*
X777000Y393500D03*
Y939500D03*
X778500Y168500D03*
Y228500D03*
Y453500D03*
Y483500D03*
Y618500D03*
Y714500D03*
Y774500D03*
Y999500D03*
Y1029500D03*
Y1164500D03*
X786500Y373500D03*
Y919500D03*
X788000Y188500D03*
Y208500D03*
Y433500D03*
Y503500D03*
Y598500D03*
Y734500D03*
Y754500D03*
Y979500D03*
Y1049500D03*
Y1144500D03*
X935000Y246000D03*
Y353500D03*
Y792000D03*
Y899500D03*
X944500Y266000D03*
Y373500D03*
Y812000D03*
Y919500D03*
X954000Y246000D03*
Y353500D03*
Y792000D03*
Y899500D03*
X1018750Y373500D03*
Y919500D03*
X1020000Y433500D03*
Y503500D03*
Y598500D03*
Y979500D03*
Y1049500D03*
Y1144500D03*
X1028250Y393500D03*
Y939500D03*
X1029500Y453500D03*
Y483500D03*
Y618500D03*
Y999500D03*
Y1029500D03*
Y1164500D03*
X1037750Y373500D03*
Y919500D03*
X1039000Y433500D03*
Y503500D03*
Y598500D03*
Y979500D03*
Y1049500D03*
Y1144500D03*
X1070000Y373500D03*
Y433500D03*
Y503500D03*
Y598500D03*
Y919500D03*
Y979500D03*
Y1049500D03*
Y1144500D03*
X1079500Y393500D03*
Y453500D03*
Y483500D03*
Y618500D03*
Y939500D03*
Y999500D03*
Y1029500D03*
Y1164500D03*
X1089000Y373500D03*
Y433500D03*
Y503500D03*
Y598500D03*
Y919500D03*
Y979500D03*
Y1049500D03*
Y1144500D03*
X1120000Y373500D03*
Y433500D03*
Y503500D03*
Y598500D03*
Y919500D03*
Y979500D03*
Y1049500D03*
Y1144500D03*
X1129500Y393500D03*
Y453500D03*
Y483500D03*
Y618500D03*
Y939500D03*
Y999500D03*
Y1029500D03*
Y1164500D03*
X1139000Y373500D03*
Y433500D03*
Y503500D03*
Y598500D03*
Y919500D03*
Y979500D03*
Y1049500D03*
Y1144500D03*
X1172500Y373500D03*
Y433500D03*
Y503500D03*
Y598500D03*
Y919500D03*
Y979500D03*
Y1049500D03*
Y1144500D03*
X1182000Y393500D03*
Y453500D03*
Y483500D03*
Y618500D03*
Y939500D03*
Y999500D03*
Y1029500D03*
Y1164500D03*
X1191500Y373500D03*
Y433500D03*
Y503500D03*
Y598500D03*
Y919500D03*
Y979500D03*
Y1049500D03*
Y1144500D03*
X1235000Y156000D03*
Y702000D03*
X1244500Y136000D03*
Y682000D03*
X1254000Y156000D03*
Y702000D03*
X1272500Y156000D03*
Y702000D03*
X1282000Y136000D03*
Y682000D03*
X1291500Y156000D03*
Y702000D03*
X1310000Y156000D03*
Y702000D03*
X1319500Y136000D03*
Y682000D03*
X1329000Y156000D03*
Y702000D03*
X1350000Y156000D03*
Y702000D03*
X1359500Y136000D03*
Y682000D03*
X1369000Y156000D03*
Y702000D03*
X1412500Y188500D03*
Y208500D03*
Y373500D03*
Y433500D03*
Y503500D03*
Y598500D03*
Y734500D03*
Y754500D03*
Y919500D03*
Y979500D03*
Y1049500D03*
Y1144500D03*
X1422000Y168500D03*
Y228500D03*
Y393500D03*
Y453500D03*
Y483500D03*
Y618500D03*
Y714500D03*
Y774500D03*
Y939500D03*
Y999500D03*
Y1029500D03*
Y1164500D03*
X1431500Y188500D03*
Y208500D03*
Y373500D03*
Y433500D03*
Y503500D03*
Y598500D03*
Y734500D03*
Y754500D03*
Y919500D03*
Y979500D03*
Y1049500D03*
Y1144500D03*
X1462500Y188500D03*
Y208500D03*
Y734500D03*
Y754500D03*
X1465000Y373500D03*
Y433500D03*
Y503500D03*
Y598500D03*
Y919500D03*
Y979500D03*
Y1049500D03*
Y1144500D03*
X1472000Y168500D03*
Y228500D03*
Y714500D03*
Y774500D03*
X1474500Y393500D03*
Y453500D03*
Y483500D03*
Y618500D03*
Y939500D03*
Y999500D03*
Y1029500D03*
Y1164500D03*
X1481500Y188500D03*
Y208500D03*
Y734500D03*
Y754500D03*
X1484000Y373500D03*
Y433500D03*
Y503500D03*
Y598500D03*
Y919500D03*
Y979500D03*
Y1049500D03*
Y1144500D03*
X1512500Y188500D03*
Y208500D03*
Y734500D03*
Y754500D03*
X1515000Y433500D03*
Y503500D03*
Y598500D03*
Y979500D03*
Y1049500D03*
Y1144500D03*
X1516000Y373500D03*
Y919500D03*
X1522000Y168500D03*
Y228500D03*
Y714500D03*
Y774500D03*
X1524500Y453500D03*
Y483500D03*
Y618500D03*
Y999500D03*
Y1029500D03*
Y1164500D03*
X1525500Y393500D03*
Y939500D03*
X1531500Y188500D03*
Y208500D03*
Y734500D03*
Y754500D03*
X1534000Y433500D03*
Y503500D03*
Y598500D03*
Y979500D03*
Y1049500D03*
Y1144500D03*
X1535000Y373500D03*
Y919500D03*
X1563500Y373500D03*
Y919500D03*
X1565000Y188500D03*
Y208500D03*
Y433500D03*
Y503500D03*
Y598500D03*
Y734500D03*
Y754500D03*
Y979500D03*
Y1049500D03*
Y1144500D03*
X1573000Y393500D03*
Y939500D03*
X1574500Y168500D03*
Y228500D03*
Y453500D03*
Y483500D03*
Y618500D03*
Y714500D03*
Y774500D03*
Y999500D03*
Y1029500D03*
Y1164500D03*
X1582500Y373500D03*
Y919500D03*
X1584000Y188500D03*
Y208500D03*
Y433500D03*
Y503500D03*
Y598500D03*
Y734500D03*
Y754500D03*
Y979500D03*
Y1049500D03*
Y1144500D03*
G54D13*
X478500Y330500D03*
Y346500D03*
Y876500D03*
Y892500D03*
X511000Y323000D03*
Y339000D03*
Y869000D03*
Y885000D03*
X533500Y600500D03*
Y616500D03*
Y1146500D03*
Y1162500D03*
X598500Y600500D03*
Y616500D03*
Y1146500D03*
Y1162500D03*
X1274500Y330500D03*
Y346500D03*
Y876500D03*
Y892500D03*
X1307000Y323000D03*
Y339000D03*
Y869000D03*
Y885000D03*
X1329500Y600500D03*
Y616500D03*
Y1146500D03*
Y1162500D03*
X1394500Y600500D03*
Y616500D03*
Y1146500D03*
Y1162500D03*
G54D14*
X423500Y412500D03*
Y958500D03*
X424000Y491000D03*
Y596000D03*
Y1037000D03*
Y1142000D03*
X424500Y358500D03*
Y904500D03*
X425300Y173500D03*
Y221000D03*
Y719500D03*
Y767000D03*
X453500Y412500D03*
Y958500D03*
X454000Y491000D03*
Y596000D03*
Y1037000D03*
Y1142000D03*
X454500Y358500D03*
Y904500D03*
X455300Y173500D03*
Y221000D03*
Y719500D03*
Y767000D03*
X817800Y178500D03*
Y236000D03*
Y358500D03*
Y413500D03*
Y523500D03*
Y591000D03*
Y724500D03*
Y782000D03*
Y904500D03*
Y959500D03*
Y1069500D03*
Y1137000D03*
X847800Y178500D03*
Y236000D03*
Y358500D03*
Y413500D03*
Y523500D03*
Y591000D03*
Y724500D03*
Y782000D03*
Y904500D03*
Y959500D03*
Y1069500D03*
Y1137000D03*
X1219500Y412500D03*
Y958500D03*
X1220000Y491000D03*
Y596000D03*
Y1037000D03*
Y1142000D03*
X1220500Y358500D03*
Y904500D03*
X1221300Y173500D03*
Y221000D03*
Y719500D03*
Y767000D03*
X1249500Y412500D03*
Y958500D03*
X1250000Y491000D03*
Y596000D03*
Y1037000D03*
Y1142000D03*
X1250500Y358500D03*
Y904500D03*
X1251300Y173500D03*
Y221000D03*
Y719500D03*
Y767000D03*
X1613800Y178500D03*
Y236000D03*
Y358500D03*
Y413500D03*
Y523500D03*
Y591000D03*
Y724500D03*
Y782000D03*
Y904500D03*
Y959500D03*
Y1069500D03*
Y1137000D03*
X1643800Y178500D03*
Y236000D03*
Y358500D03*
Y413500D03*
Y523500D03*
Y591000D03*
Y724500D03*
Y782000D03*
Y904500D03*
Y959500D03*
Y1069500D03*
Y1137000D03*
G54D15*
X321000Y261000D03*
Y301000D03*
Y807000D03*
Y847000D03*
X431000Y521000D03*
Y561000D03*
Y1067000D03*
Y1107000D03*
X471000Y261000D03*
Y301000D03*
Y807000D03*
Y847000D03*
X541000Y261000D03*
Y301000D03*
Y807000D03*
Y847000D03*
X581000Y521000D03*
Y561000D03*
Y1067000D03*
Y1107000D03*
X691000Y261000D03*
Y301000D03*
Y807000D03*
Y847000D03*
X1117000Y261000D03*
Y301000D03*
Y807000D03*
Y847000D03*
X1227000Y521000D03*
Y561000D03*
Y1067000D03*
Y1107000D03*
X1267000Y261000D03*
Y301000D03*
Y807000D03*
Y847000D03*
X1337000Y261000D03*
Y301000D03*
Y807000D03*
Y847000D03*
X1377000Y521000D03*
Y561000D03*
Y1067000D03*
Y1107000D03*
X1487000Y261000D03*
Y301000D03*
Y807000D03*
Y847000D03*
G54D16*
X328500Y261000D03*
Y301000D03*
Y807000D03*
Y847000D03*
X333500Y261000D03*
Y301000D03*
Y807000D03*
Y847000D03*
X338500Y261000D03*
Y301000D03*
Y807000D03*
Y847000D03*
X343500Y261000D03*
Y301000D03*
Y807000D03*
Y847000D03*
X348500Y261000D03*
Y301000D03*
Y807000D03*
Y847000D03*
X353500Y261000D03*
Y301000D03*
Y807000D03*
Y847000D03*
X358500Y261000D03*
Y301000D03*
Y807000D03*
Y847000D03*
X363500Y261000D03*
Y301000D03*
Y807000D03*
Y847000D03*
X368500Y261000D03*
Y301000D03*
Y807000D03*
Y847000D03*
X373500Y261000D03*
Y301000D03*
Y807000D03*
Y847000D03*
X378500Y261000D03*
Y301000D03*
Y807000D03*
Y847000D03*
X383500Y261000D03*
Y301000D03*
Y807000D03*
Y847000D03*
X388500Y261000D03*
Y301000D03*
Y807000D03*
Y847000D03*
X393500Y261000D03*
Y301000D03*
Y807000D03*
Y847000D03*
X398500Y261000D03*
Y301000D03*
Y807000D03*
Y847000D03*
X403500Y261000D03*
Y301000D03*
Y807000D03*
Y847000D03*
X408500Y261000D03*
Y301000D03*
Y807000D03*
Y847000D03*
X413500Y261000D03*
Y301000D03*
Y807000D03*
Y847000D03*
X418500Y261000D03*
Y301000D03*
Y807000D03*
Y847000D03*
X423500Y261000D03*
Y301000D03*
Y807000D03*
Y847000D03*
X428500Y261000D03*
Y301000D03*
Y807000D03*
Y847000D03*
X433500Y261000D03*
Y301000D03*
Y807000D03*
Y847000D03*
X438500Y261000D03*
Y301000D03*
Y521000D03*
Y561000D03*
Y807000D03*
Y847000D03*
Y1067000D03*
Y1107000D03*
X443500Y261000D03*
Y301000D03*
Y521000D03*
Y561000D03*
Y807000D03*
Y847000D03*
Y1067000D03*
Y1107000D03*
X448500Y261000D03*
Y301000D03*
Y521000D03*
Y561000D03*
Y807000D03*
Y847000D03*
Y1067000D03*
Y1107000D03*
X453500Y261000D03*
Y301000D03*
Y521000D03*
Y561000D03*
Y807000D03*
Y847000D03*
Y1067000D03*
Y1107000D03*
X458500Y261000D03*
Y301000D03*
Y521000D03*
Y561000D03*
Y807000D03*
Y847000D03*
Y1067000D03*
Y1107000D03*
X463500Y261000D03*
Y301000D03*
Y521000D03*
Y561000D03*
Y807000D03*
Y847000D03*
Y1067000D03*
Y1107000D03*
X468500Y521000D03*
Y561000D03*
Y1067000D03*
Y1107000D03*
X473500Y521000D03*
Y561000D03*
Y1067000D03*
Y1107000D03*
X478500Y521000D03*
Y561000D03*
Y1067000D03*
Y1107000D03*
X483500Y521000D03*
Y561000D03*
Y1067000D03*
Y1107000D03*
X488500Y521000D03*
Y561000D03*
Y1067000D03*
Y1107000D03*
X493500Y521000D03*
Y561000D03*
Y1067000D03*
Y1107000D03*
X498500Y521000D03*
Y561000D03*
Y1067000D03*
Y1107000D03*
X503500Y521000D03*
Y561000D03*
Y1067000D03*
Y1107000D03*
X508500Y521000D03*
Y561000D03*
Y1067000D03*
Y1107000D03*
X513500Y521000D03*
Y561000D03*
Y1067000D03*
Y1107000D03*
X518500Y521000D03*
Y561000D03*
Y1067000D03*
Y1107000D03*
X523500Y521000D03*
Y561000D03*
Y1067000D03*
Y1107000D03*
X528500Y521000D03*
Y561000D03*
Y1067000D03*
Y1107000D03*
X533500Y521000D03*
Y561000D03*
Y1067000D03*
Y1107000D03*
X538500Y521000D03*
Y561000D03*
Y1067000D03*
Y1107000D03*
X543500Y521000D03*
Y561000D03*
Y1067000D03*
Y1107000D03*
X548500Y261000D03*
Y301000D03*
Y521000D03*
Y561000D03*
Y807000D03*
Y847000D03*
Y1067000D03*
Y1107000D03*
X553500Y261000D03*
Y301000D03*
Y521000D03*
Y561000D03*
Y807000D03*
Y847000D03*
Y1067000D03*
Y1107000D03*
X558500Y261000D03*
Y301000D03*
Y521000D03*
Y561000D03*
Y807000D03*
Y847000D03*
Y1067000D03*
Y1107000D03*
X563500Y261000D03*
Y301000D03*
Y521000D03*
Y561000D03*
Y807000D03*
Y847000D03*
Y1067000D03*
Y1107000D03*
X568500Y261000D03*
Y301000D03*
Y521000D03*
Y561000D03*
Y807000D03*
Y847000D03*
Y1067000D03*
Y1107000D03*
X573500Y261000D03*
Y301000D03*
Y521000D03*
Y561000D03*
Y807000D03*
Y847000D03*
Y1067000D03*
Y1107000D03*
X578500Y261000D03*
Y301000D03*
Y807000D03*
Y847000D03*
X583500Y261000D03*
Y301000D03*
Y807000D03*
Y847000D03*
X588500Y261000D03*
Y301000D03*
Y807000D03*
Y847000D03*
X593500Y261000D03*
Y301000D03*
Y807000D03*
Y847000D03*
X598500Y261000D03*
Y301000D03*
Y807000D03*
Y847000D03*
X603500Y261000D03*
Y301000D03*
Y807000D03*
Y847000D03*
X608500Y261000D03*
Y301000D03*
Y807000D03*
Y847000D03*
X613500Y261000D03*
Y301000D03*
Y807000D03*
Y847000D03*
X618500Y261000D03*
Y301000D03*
Y807000D03*
Y847000D03*
X623500Y261000D03*
Y301000D03*
Y807000D03*
Y847000D03*
X628500Y261000D03*
Y301000D03*
Y807000D03*
Y847000D03*
X633500Y261000D03*
Y301000D03*
Y807000D03*
Y847000D03*
X638500Y261000D03*
Y301000D03*
Y807000D03*
Y847000D03*
X643500Y261000D03*
Y301000D03*
Y807000D03*
Y847000D03*
X648500Y261000D03*
Y301000D03*
Y807000D03*
Y847000D03*
X653500Y261000D03*
Y301000D03*
Y807000D03*
Y847000D03*
X658500Y261000D03*
Y301000D03*
Y807000D03*
Y847000D03*
X663500Y261000D03*
Y301000D03*
Y807000D03*
Y847000D03*
X668500Y261000D03*
Y301000D03*
Y807000D03*
Y847000D03*
X673500Y261000D03*
Y301000D03*
Y807000D03*
Y847000D03*
X678500Y261000D03*
Y301000D03*
Y807000D03*
Y847000D03*
X683500Y261000D03*
Y301000D03*
Y807000D03*
Y847000D03*
X1124500Y261000D03*
Y301000D03*
Y807000D03*
Y847000D03*
X1129500Y261000D03*
Y301000D03*
Y807000D03*
Y847000D03*
X1134500Y261000D03*
Y301000D03*
Y807000D03*
Y847000D03*
X1139500Y261000D03*
Y301000D03*
Y807000D03*
Y847000D03*
X1144500Y261000D03*
Y301000D03*
Y807000D03*
Y847000D03*
X1149500Y261000D03*
Y301000D03*
Y807000D03*
Y847000D03*
X1154500Y261000D03*
Y301000D03*
Y807000D03*
Y847000D03*
X1159500Y261000D03*
Y301000D03*
Y807000D03*
Y847000D03*
X1164500Y261000D03*
Y301000D03*
Y807000D03*
Y847000D03*
X1169500Y261000D03*
Y301000D03*
Y807000D03*
Y847000D03*
X1174500Y261000D03*
Y301000D03*
Y807000D03*
Y847000D03*
X1179500Y261000D03*
Y301000D03*
Y807000D03*
Y847000D03*
X1184500Y261000D03*
Y301000D03*
Y807000D03*
Y847000D03*
X1189500Y261000D03*
Y301000D03*
Y807000D03*
Y847000D03*
X1194500Y261000D03*
Y301000D03*
Y807000D03*
Y847000D03*
X1199500Y261000D03*
Y301000D03*
Y807000D03*
Y847000D03*
X1204500Y261000D03*
Y301000D03*
Y807000D03*
Y847000D03*
X1209500Y261000D03*
Y301000D03*
Y807000D03*
Y847000D03*
X1214500Y261000D03*
Y301000D03*
Y807000D03*
Y847000D03*
X1219500Y261000D03*
Y301000D03*
Y807000D03*
Y847000D03*
X1224500Y261000D03*
Y301000D03*
Y807000D03*
Y847000D03*
X1229500Y261000D03*
Y301000D03*
Y807000D03*
Y847000D03*
X1234500Y261000D03*
Y301000D03*
Y521000D03*
Y561000D03*
Y807000D03*
Y847000D03*
Y1067000D03*
Y1107000D03*
X1239500Y261000D03*
Y301000D03*
Y521000D03*
Y561000D03*
Y807000D03*
Y847000D03*
Y1067000D03*
Y1107000D03*
X1244500Y261000D03*
Y301000D03*
Y521000D03*
Y561000D03*
Y807000D03*
Y847000D03*
Y1067000D03*
Y1107000D03*
X1249500Y261000D03*
Y301000D03*
Y521000D03*
Y561000D03*
Y807000D03*
Y847000D03*
Y1067000D03*
Y1107000D03*
X1254500Y261000D03*
Y301000D03*
Y521000D03*
Y561000D03*
Y807000D03*
Y847000D03*
Y1067000D03*
Y1107000D03*
X1259500Y261000D03*
Y301000D03*
Y521000D03*
Y561000D03*
Y807000D03*
Y847000D03*
Y1067000D03*
Y1107000D03*
X1264500Y521000D03*
Y561000D03*
Y1067000D03*
Y1107000D03*
X1269500Y521000D03*
Y561000D03*
Y1067000D03*
Y1107000D03*
X1274500Y521000D03*
Y561000D03*
Y1067000D03*
Y1107000D03*
X1279500Y521000D03*
Y561000D03*
Y1067000D03*
Y1107000D03*
X1284500Y521000D03*
Y561000D03*
Y1067000D03*
Y1107000D03*
X1289500Y521000D03*
Y561000D03*
Y1067000D03*
Y1107000D03*
X1294500Y521000D03*
Y561000D03*
Y1067000D03*
Y1107000D03*
X1299500Y521000D03*
Y561000D03*
Y1067000D03*
Y1107000D03*
X1304500Y521000D03*
Y561000D03*
Y1067000D03*
Y1107000D03*
X1309500Y521000D03*
Y561000D03*
Y1067000D03*
Y1107000D03*
X1314500Y521000D03*
Y561000D03*
Y1067000D03*
Y1107000D03*
X1319500Y521000D03*
Y561000D03*
Y1067000D03*
Y1107000D03*
X1324500Y521000D03*
Y561000D03*
Y1067000D03*
Y1107000D03*
X1329500Y521000D03*
Y561000D03*
Y1067000D03*
Y1107000D03*
X1334500Y521000D03*
Y561000D03*
Y1067000D03*
Y1107000D03*
X1339500Y521000D03*
Y561000D03*
Y1067000D03*
Y1107000D03*
X1344500Y261000D03*
Y301000D03*
Y521000D03*
Y561000D03*
Y807000D03*
Y847000D03*
Y1067000D03*
Y1107000D03*
X1349500Y261000D03*
Y301000D03*
Y521000D03*
Y561000D03*
Y807000D03*
Y847000D03*
Y1067000D03*
Y1107000D03*
X1354500Y261000D03*
Y301000D03*
Y521000D03*
Y561000D03*
Y807000D03*
Y847000D03*
Y1067000D03*
Y1107000D03*
X1359500Y261000D03*
Y301000D03*
Y521000D03*
Y561000D03*
Y807000D03*
Y847000D03*
Y1067000D03*
Y1107000D03*
X1364500Y261000D03*
Y301000D03*
Y521000D03*
Y561000D03*
Y807000D03*
Y847000D03*
Y1067000D03*
Y1107000D03*
X1369500Y261000D03*
Y301000D03*
Y521000D03*
Y561000D03*
Y807000D03*
Y847000D03*
Y1067000D03*
Y1107000D03*
X1374500Y261000D03*
Y301000D03*
Y807000D03*
Y847000D03*
X1379500Y261000D03*
Y301000D03*
Y807000D03*
Y847000D03*
X1384500Y261000D03*
Y301000D03*
Y807000D03*
Y847000D03*
X1389500Y261000D03*
Y301000D03*
Y807000D03*
Y847000D03*
X1394500Y261000D03*
Y301000D03*
Y807000D03*
Y847000D03*
X1399500Y261000D03*
Y301000D03*
Y807000D03*
Y847000D03*
X1404500Y261000D03*
Y301000D03*
Y807000D03*
Y847000D03*
X1409500Y261000D03*
Y301000D03*
Y807000D03*
Y847000D03*
X1414500Y261000D03*
Y301000D03*
Y807000D03*
Y847000D03*
X1419500Y261000D03*
Y301000D03*
Y807000D03*
Y847000D03*
X1424500Y261000D03*
Y301000D03*
Y807000D03*
Y847000D03*
X1429500Y261000D03*
Y301000D03*
Y807000D03*
Y847000D03*
X1434500Y261000D03*
Y301000D03*
Y807000D03*
Y847000D03*
X1439500Y261000D03*
Y301000D03*
Y807000D03*
Y847000D03*
X1444500Y261000D03*
Y301000D03*
Y807000D03*
Y847000D03*
X1449500Y261000D03*
Y301000D03*
Y807000D03*
Y847000D03*
X1454500Y261000D03*
Y301000D03*
Y807000D03*
Y847000D03*
X1459500Y261000D03*
Y301000D03*
Y807000D03*
Y847000D03*
X1464500Y261000D03*
Y301000D03*
Y807000D03*
Y847000D03*
X1469500Y261000D03*
Y301000D03*
Y807000D03*
Y847000D03*
X1474500Y261000D03*
Y301000D03*
Y807000D03*
Y847000D03*
X1479500Y261000D03*
Y301000D03*
Y807000D03*
Y847000D03*
G54D17*
X506000Y211000D03*
Y466000D03*
Y757000D03*
Y1012000D03*
X1302000Y211000D03*
Y466000D03*
Y757000D03*
Y1012000D03*
G54D18*
X129400Y230500D03*
Y338000D03*
Y776500D03*
Y884000D03*
X129500Y176500D03*
Y284000D03*
Y722500D03*
Y830000D03*
X142100Y230500D03*
Y338000D03*
Y776500D03*
Y884000D03*
X142200Y176500D03*
Y284000D03*
Y722500D03*
Y830000D03*
X154900Y176500D03*
Y230500D03*
Y284000D03*
Y338000D03*
Y722500D03*
Y776500D03*
Y830000D03*
Y884000D03*
X167600Y176500D03*
Y230500D03*
Y284000D03*
Y338000D03*
Y722500D03*
Y776500D03*
Y830000D03*
Y884000D03*
X925400Y230500D03*
Y338000D03*
Y776500D03*
Y884000D03*
X925500Y176500D03*
Y284000D03*
Y722500D03*
Y830000D03*
X938100Y230500D03*
Y338000D03*
Y776500D03*
Y884000D03*
X938200Y176500D03*
Y284000D03*
Y722500D03*
Y830000D03*
X950900Y176500D03*
Y230500D03*
Y284000D03*
Y338000D03*
Y722500D03*
Y776500D03*
Y830000D03*
Y884000D03*
X963600Y176500D03*
Y230500D03*
Y284000D03*
Y338000D03*
Y722500D03*
Y776500D03*
Y830000D03*
Y884000D03*
G54D19*
X136400Y210500D03*
Y318000D03*
Y756500D03*
Y864000D03*
X160600Y210500D03*
Y318000D03*
Y756500D03*
Y864000D03*
X932400Y210500D03*
Y318000D03*
Y756500D03*
Y864000D03*
X956600Y210500D03*
Y318000D03*
Y756500D03*
Y864000D03*
G54D20*
X429500Y456000D03*
Y1002000D03*
X437000Y196000D03*
Y742000D03*
X447500Y456000D03*
Y1002000D03*
X455000Y196000D03*
Y742000D03*
X1225500Y456000D03*
Y1002000D03*
X1233000Y196000D03*
Y742000D03*
X1243500Y456000D03*
Y1002000D03*
X1251000Y196000D03*
Y742000D03*
G54D21*
X238250Y149000D03*
Y208000D03*
Y695000D03*
Y754000D03*
X244750Y149000D03*
Y208000D03*
Y695000D03*
Y754000D03*
X251250Y149000D03*
Y208000D03*
Y695000D03*
Y754000D03*
X257750Y149000D03*
Y208000D03*
Y695000D03*
Y754000D03*
X264250Y149000D03*
Y208000D03*
Y695000D03*
Y754000D03*
X270750Y149000D03*
Y208000D03*
Y695000D03*
Y754000D03*
X277250Y149000D03*
Y208000D03*
Y695000D03*
Y754000D03*
X283750Y149000D03*
Y208000D03*
Y695000D03*
Y754000D03*
X300750Y149000D03*
Y208000D03*
Y695000D03*
Y754000D03*
X307250Y149000D03*
Y208000D03*
Y695000D03*
Y754000D03*
X313750Y149000D03*
Y208000D03*
Y695000D03*
Y754000D03*
X320250Y149000D03*
Y208000D03*
Y695000D03*
Y754000D03*
X326750Y149000D03*
Y208000D03*
Y695000D03*
Y754000D03*
X333250Y149000D03*
Y208000D03*
Y695000D03*
Y754000D03*
X339750Y149000D03*
Y208000D03*
Y695000D03*
Y754000D03*
X346250Y149000D03*
Y208000D03*
Y695000D03*
Y754000D03*
X363250Y149000D03*
Y208000D03*
Y695000D03*
Y754000D03*
X369750Y149000D03*
Y208000D03*
Y695000D03*
Y754000D03*
X376250Y149000D03*
Y208000D03*
Y695000D03*
Y754000D03*
X382750Y149000D03*
Y208000D03*
Y695000D03*
Y754000D03*
X389250Y149000D03*
Y208000D03*
Y695000D03*
Y754000D03*
X395750Y149000D03*
Y208000D03*
Y695000D03*
Y754000D03*
X402250Y149000D03*
Y208000D03*
Y695000D03*
Y754000D03*
X408750Y149000D03*
Y208000D03*
Y695000D03*
Y754000D03*
X1034250Y149000D03*
Y208000D03*
Y695000D03*
Y754000D03*
X1040750Y149000D03*
Y208000D03*
Y695000D03*
Y754000D03*
X1047250Y149000D03*
Y208000D03*
Y695000D03*
Y754000D03*
X1053750Y149000D03*
Y208000D03*
Y695000D03*
Y754000D03*
X1060250Y149000D03*
Y208000D03*
Y695000D03*
Y754000D03*
X1066750Y149000D03*
Y208000D03*
Y695000D03*
Y754000D03*
X1073250Y149000D03*
Y208000D03*
Y695000D03*
Y754000D03*
X1079750Y149000D03*
Y208000D03*
Y695000D03*
Y754000D03*
X1096750Y149000D03*
Y208000D03*
Y695000D03*
Y754000D03*
X1103250Y149000D03*
Y208000D03*
Y695000D03*
Y754000D03*
X1109750Y149000D03*
Y208000D03*
Y695000D03*
Y754000D03*
X1116250Y149000D03*
Y208000D03*
Y695000D03*
Y754000D03*
X1122750Y149000D03*
Y208000D03*
Y695000D03*
Y754000D03*
X1129250Y149000D03*
Y208000D03*
Y695000D03*
Y754000D03*
X1135750Y149000D03*
Y208000D03*
Y695000D03*
Y754000D03*
X1142250Y149000D03*
Y208000D03*
Y695000D03*
Y754000D03*
X1159250Y149000D03*
Y208000D03*
Y695000D03*
Y754000D03*
X1165750Y149000D03*
Y208000D03*
Y695000D03*
Y754000D03*
X1172250Y149000D03*
Y208000D03*
Y695000D03*
Y754000D03*
X1178750Y149000D03*
Y208000D03*
Y695000D03*
Y754000D03*
X1185250Y149000D03*
Y208000D03*
Y695000D03*
Y754000D03*
X1191750Y149000D03*
Y208000D03*
Y695000D03*
Y754000D03*
X1198250Y149000D03*
Y208000D03*
Y695000D03*
Y754000D03*
X1204750Y149000D03*
Y208000D03*
Y695000D03*
Y754000D03*
G54D22*
X483000Y599000D03*
Y608500D03*
Y618000D03*
Y1145000D03*
Y1154500D03*
Y1164000D03*
X509000Y599000D03*
Y608500D03*
Y618000D03*
Y1145000D03*
Y1154500D03*
Y1164000D03*
X1279000Y599000D03*
Y608500D03*
Y618000D03*
Y1145000D03*
Y1154500D03*
Y1164000D03*
X1305000Y599000D03*
Y608500D03*
Y618000D03*
Y1145000D03*
Y1154500D03*
Y1164000D03*
G54D23*
X276000Y256500D03*
Y265500D03*
Y291500D03*
Y300500D03*
Y802500D03*
Y811500D03*
Y837500D03*
Y846500D03*
X286000Y256500D03*
Y265500D03*
Y291500D03*
Y300500D03*
Y802500D03*
Y811500D03*
Y837500D03*
Y846500D03*
X421000Y134000D03*
Y143000D03*
Y680000D03*
Y689000D03*
X491000Y329000D03*
Y338000D03*
Y875000D03*
Y884000D03*
X1072000Y256500D03*
Y265500D03*
Y291500D03*
Y300500D03*
Y802500D03*
Y811500D03*
Y837500D03*
Y846500D03*
X1082000Y256500D03*
Y265500D03*
Y291500D03*
Y300500D03*
Y802500D03*
Y811500D03*
Y837500D03*
Y846500D03*
X1217000Y134000D03*
Y143000D03*
Y680000D03*
Y689000D03*
X1287000Y329000D03*
Y338000D03*
Y875000D03*
Y884000D03*
G54D24*
X486000Y367000D03*
Y371000D03*
Y375000D03*
Y379000D03*
Y383000D03*
Y387000D03*
Y391000D03*
Y395000D03*
Y913000D03*
Y917000D03*
Y921000D03*
Y925000D03*
Y929000D03*
Y933000D03*
Y937000D03*
Y941000D03*
X1282000Y367000D03*
Y371000D03*
Y375000D03*
Y379000D03*
Y383000D03*
Y387000D03*
Y391000D03*
Y395000D03*
Y913000D03*
Y917000D03*
Y921000D03*
Y925000D03*
Y929000D03*
Y933000D03*
Y937000D03*
Y941000D03*
G54D25*
X492000Y401000D03*
Y947000D03*
X496000Y401000D03*
Y947000D03*
X500000Y401000D03*
Y947000D03*
X504000Y401000D03*
Y947000D03*
X508000Y401000D03*
Y947000D03*
X512000Y401000D03*
Y947000D03*
X516000Y401000D03*
Y947000D03*
X520000Y401000D03*
Y947000D03*
X1288000Y401000D03*
Y947000D03*
X1292000Y401000D03*
Y947000D03*
X1296000Y401000D03*
Y947000D03*
X1300000Y401000D03*
Y947000D03*
X1304000Y401000D03*
Y947000D03*
X1308000Y401000D03*
Y947000D03*
X1312000Y401000D03*
Y947000D03*
X1316000Y401000D03*
Y947000D03*
G54D26*
X526000Y367000D03*
Y371000D03*
Y375000D03*
Y379000D03*
Y383000D03*
Y387000D03*
Y391000D03*
Y395000D03*
Y913000D03*
Y917000D03*
Y921000D03*
Y925000D03*
Y929000D03*
Y933000D03*
Y937000D03*
Y941000D03*
X1322000Y367000D03*
Y371000D03*
Y375000D03*
Y379000D03*
Y383000D03*
Y387000D03*
Y391000D03*
Y395000D03*
Y913000D03*
Y917000D03*
Y921000D03*
Y925000D03*
Y929000D03*
Y933000D03*
Y937000D03*
Y941000D03*
G54D27*
X492000Y361000D03*
Y907000D03*
X496000Y361000D03*
Y907000D03*
X500000Y361000D03*
Y907000D03*
X504000Y361000D03*
Y907000D03*
X508000Y361000D03*
Y907000D03*
X512000Y361000D03*
Y907000D03*
X516000Y361000D03*
Y907000D03*
X520000Y361000D03*
Y907000D03*
X1288000Y361000D03*
Y907000D03*
X1292000Y361000D03*
Y907000D03*
X1296000Y361000D03*
Y907000D03*
X1300000Y361000D03*
Y907000D03*
X1304000Y361000D03*
Y907000D03*
X1308000Y361000D03*
Y907000D03*
X1312000Y361000D03*
Y907000D03*
X1316000Y361000D03*
Y907000D03*
G54D28*
X506000Y381000D03*
Y927000D03*
X1302000Y381000D03*
Y927000D03*
G54D29*
X188500Y251000D03*
Y281000D03*
Y296000D03*
Y326000D03*
Y797000D03*
Y827000D03*
Y842000D03*
Y872000D03*
X211000Y251000D03*
Y281000D03*
Y296000D03*
Y326000D03*
Y797000D03*
Y827000D03*
Y842000D03*
Y872000D03*
X233500Y241000D03*
Y271000D03*
Y306000D03*
Y336000D03*
Y787000D03*
Y817000D03*
Y852000D03*
Y882000D03*
X256000Y241000D03*
Y271000D03*
Y306000D03*
Y336000D03*
Y787000D03*
Y817000D03*
Y852000D03*
Y882000D03*
X984500Y251000D03*
Y281000D03*
Y296000D03*
Y326000D03*
Y797000D03*
Y827000D03*
Y842000D03*
Y872000D03*
X1007000Y251000D03*
Y281000D03*
Y296000D03*
Y326000D03*
Y797000D03*
Y827000D03*
Y842000D03*
Y872000D03*
X1029500Y241000D03*
Y271000D03*
Y306000D03*
Y336000D03*
Y787000D03*
Y817000D03*
Y852000D03*
Y882000D03*
X1052000Y241000D03*
Y271000D03*
Y306000D03*
Y336000D03*
Y787000D03*
Y817000D03*
Y852000D03*
Y882000D03*
G54D70*
X211500Y133500D03*
Y679500D03*
X220500Y133500D03*
Y679500D03*
X234000Y133500D03*
Y679500D03*
X243000Y133500D03*
Y679500D03*
X246500Y223500D03*
Y769500D03*
X255500Y223500D03*
Y769500D03*
X271500Y133500D03*
Y223500D03*
Y679500D03*
Y769500D03*
X280500Y133500D03*
Y223500D03*
Y679500D03*
Y769500D03*
X291500Y223500D03*
Y769500D03*
X300500Y223500D03*
Y769500D03*
X306500Y133500D03*
Y679500D03*
X311500Y223500D03*
Y769500D03*
X315500Y133500D03*
Y679500D03*
X320500Y223500D03*
Y769500D03*
X329000Y223500D03*
Y769500D03*
X331500Y133500D03*
Y679500D03*
X338000Y223500D03*
Y769500D03*
X340500Y133500D03*
Y679500D03*
X366500Y133500D03*
Y679500D03*
X371500Y223500D03*
Y769500D03*
X375500Y133500D03*
Y679500D03*
X380500Y223500D03*
Y769500D03*
X391500Y223500D03*
Y769500D03*
X396500Y133500D03*
Y679500D03*
X400500Y223500D03*
Y769500D03*
X405500Y133500D03*
Y679500D03*
X526500Y323500D03*
Y333500D03*
Y343500D03*
Y869500D03*
Y879500D03*
Y889500D03*
X535500Y323500D03*
Y333500D03*
Y343500D03*
Y869500D03*
Y879500D03*
Y889500D03*
X536500Y353500D03*
Y899500D03*
X545500Y353500D03*
Y899500D03*
X566500Y586000D03*
Y631000D03*
Y1132000D03*
Y1177000D03*
X575500Y586000D03*
Y631000D03*
Y1132000D03*
Y1177000D03*
X1007500Y133500D03*
Y679500D03*
X1016500Y133500D03*
Y679500D03*
X1030000Y133500D03*
Y679500D03*
X1039000Y133500D03*
Y679500D03*
X1042500Y223500D03*
Y769500D03*
X1051500Y223500D03*
Y769500D03*
X1067500Y133500D03*
Y223500D03*
Y679500D03*
Y769500D03*
X1076500Y133500D03*
Y223500D03*
Y679500D03*
Y769500D03*
X1087500Y223500D03*
Y769500D03*
X1096500Y223500D03*
Y769500D03*
X1102500Y133500D03*
Y679500D03*
X1107500Y223500D03*
Y769500D03*
X1111500Y133500D03*
Y679500D03*
X1116500Y223500D03*
Y769500D03*
X1125000Y223500D03*
Y769500D03*
X1127500Y133500D03*
Y679500D03*
X1134000Y223500D03*
Y769500D03*
X1136500Y133500D03*
Y679500D03*
X1162500Y133500D03*
Y679500D03*
X1167500Y223500D03*
Y769500D03*
X1171500Y133500D03*
Y679500D03*
X1176500Y223500D03*
Y769500D03*
X1187500Y223500D03*
Y769500D03*
X1192500Y133500D03*
Y679500D03*
X1196500Y223500D03*
Y769500D03*
X1201500Y133500D03*
Y679500D03*
X1322500Y323500D03*
Y333500D03*
Y343500D03*
Y869500D03*
Y879500D03*
Y889500D03*
X1331500Y323500D03*
Y333500D03*
Y343500D03*
Y869500D03*
Y879500D03*
Y889500D03*
X1332500Y353500D03*
Y899500D03*
X1341500Y353500D03*
Y899500D03*
X1362500Y586000D03*
Y631000D03*
Y1132000D03*
Y1177000D03*
X1371500Y586000D03*
Y631000D03*
Y1132000D03*
Y1177000D03*
G54D71*
X552000Y599000D03*
Y608500D03*
Y618000D03*
Y1145000D03*
Y1154500D03*
Y1164000D03*
X580000Y599000D03*
Y608500D03*
Y618000D03*
Y1145000D03*
Y1154500D03*
Y1164000D03*
X1348000Y599000D03*
Y608500D03*
Y618000D03*
Y1145000D03*
Y1154500D03*
Y1164000D03*
X1376000Y599000D03*
Y608500D03*
Y618000D03*
Y1145000D03*
Y1154500D03*
Y1164000D03*
G54D72*
X196000Y181000D03*
Y218500D03*
Y727000D03*
Y764500D03*
X216000Y171500D03*
Y190500D03*
Y209000D03*
Y228000D03*
Y717500D03*
Y736500D03*
Y755000D03*
Y774000D03*
X992000Y181000D03*
Y218500D03*
Y727000D03*
Y764500D03*
X1012000Y171500D03*
Y190500D03*
Y209000D03*
Y228000D03*
Y717500D03*
Y736500D03*
Y755000D03*
Y774000D03*
M02*
