*
G04 Job   : C:\Users\MartinJohansson\OneDrive - E-Sharp AB\DesignLabs\PLM\Projects\ELECTRONICS\Sparrow_IDC_N-TOP\fe_n-top_R3\PCB\Panel\fe_n-top\fe_n-top.pnl*
G04 User  : ESHARP-MARTIN:MartinJohansson*
G04 Layer : Pastebottom.gbp*
G04 Date  : Fri Apr 17 11:27:39 2026*
G04 Solderpaste bottom*
%ICAS*%
%MOMM*%
%FSLAX24Y24*%
%OFA0.0000B0.0000*%
G90*
G74*
%AMVB_RECTANGLE*
21,1,$1,$2,0,0,$3*
%
%AMVB_FINGER0*
$3=$1/2*
$4=$2/2*
$5=0-$4*
1,1,$2,$3-$4,0*
21,1,$1-$4,$2,$5/2,0,0*
%
%AMVB_FINGER90*
$3=$1/2*
$4=$2/2*
$5=0-$4*
1,1,$2,0,$3-$4*
21,1,$2,$1-$4,0,$5/2,0*
%
%AMVB_FINGER180*
$3=$1/2*
$4=$2/2*
1,1,$2,$4-$3,0*
21,1,$1-$4,$2,$4/2,0,0*
%
%AMVB_FINGER270*
$3=$1/2*
$4=$2/2*
1,1,$2,0,$4-$3*
21,1,$2,$1-$4,0,$4/2,0*
%
%ADD17C,0.00500*%
%ADD14VB_RECTANGLE,0.23000X1.50000X180.00000*%
%ADD13VB_RECTANGLE,0.35000X1.50000X180.00000*%
%ADD18VB_RECTANGLE,0.40000X0.60000X180.00000*%
%ADD21VB_RECTANGLE,0.40000X0.60000X90.00000*%
%ADD71VB_RECTANGLE,0.40000X1.50000X0.00000*%
%ADD19VB_RECTANGLE,0.60000X1.10000X90.00000*%
%ADD20VB_RECTANGLE,0.60000X1.20000X90.00000*%
%ADD15VB_RECTANGLE,0.60000X1.55000X180.00000*%
%ADD10VB_RECTANGLE,0.70000X0.90000X180.00000*%
%ADD28VB_RECTANGLE,0.70000X0.90000X90.00000*%
%ADD11VB_RECTANGLE,0.95000X1.00000X270.00000*%
%ADD70VB_RECTANGLE,1.15000X1.45000X180.00000*%
%ADD27VB_RECTANGLE,1.75000X1.05000X0.00000*%
%ADD12VB_RECTANGLE,1.75000X1.05000X90.00000*%
%ADD16VB_RECTANGLE,2.00000X3.45000X180.00000*%
%ADD26VB_RECTANGLE,2.85000X2.85000X270.00000*%
%ADD22VB_FINGER0,0.75000X0.20000*%
%ADD25VB_FINGER90,0.75000X0.20000*%
%ADD24VB_FINGER180,0.75000X0.20000*%
%ADD23VB_FINGER270,0.75000X0.20000*%
G01*
G36*
X125500Y188500D02*
X145500D01*
Y223500*
X125500*
Y188500*
Y296000D02*
X145500D01*
Y331000*
X125500*
Y296000*
Y734500D02*
X145500D01*
Y769500*
X125500*
Y734500*
Y842000D02*
X145500D01*
Y877000*
X125500*
Y842000*
X503500Y180101D02*
G02X475101Y208500I2500J30899D01*
G01X484898*
G03X503500Y189898I21102J2500*
G01Y180101*
Y232102D02*
G03X484898Y213500I2500J21102D01*
G01X475101*
G02X503500Y241899I30899J2500*
G01Y232102*
Y435101D02*
G02X475101Y463500I2500J30899D01*
G01X484898*
G03X503500Y444898I21102J2500*
G01Y435101*
Y487102D02*
G03X484898Y468500I2500J21102D01*
G01X475101*
G02X503500Y496899I30899J2500*
G01Y487102*
Y726101D02*
G02X475101Y754500I2500J30899D01*
G01X484898*
G03X503500Y735898I21102J2500*
G01Y726101*
Y778102D02*
G03X484898Y759500I2500J21102D01*
G01X475101*
G02X503500Y787899I30899J2500*
G01Y778102*
Y981101D02*
G02X475101Y1009500I2500J30899D01*
G01X484898*
G03X503500Y990898I21102J2500*
G01Y981101*
Y1033102D02*
G03X484898Y1014500I2500J21102D01*
G01X475101*
G02X503500Y1042899I30899J2500*
G01Y1033102*
X527102Y213500D02*
G03X508500Y232102I21102J2500D01*
G01Y241899*
G02X536899Y213500I2500J30899*
G01X527102*
Y468500D02*
G03X508500Y487102I21102J2500D01*
G01Y496899*
G02X536899Y468500I2500J30899*
G01X527102*
Y759500D02*
G03X508500Y778102I21102J2500D01*
G01Y787899*
G02X536899Y759500I2500J30899*
G01X527102*
Y1014500D02*
G03X508500Y1033102I21102J2500D01*
G01Y1042899*
G02X536899Y1014500I2500J30899*
G01X527102*
X536899Y208500D02*
G02X508500Y180101I30899J2500D01*
G01Y189898*
G03X527102Y208500I2500J21102*
G01X536899*
Y463500D02*
G02X508500Y435101I30899J2500D01*
G01Y444898*
G03X527102Y463500I2500J21102*
G01X536899*
Y754500D02*
G02X508500Y726101I30899J2500D01*
G01Y735898*
G03X527102Y754500I2500J21102*
G01X536899*
Y1009500D02*
G02X508500Y981101I30899J2500D01*
G01Y990898*
G03X527102Y1009500I2500J21102*
G01X536899*
X921500Y188500D02*
X941500D01*
Y223500*
X921500*
Y188500*
Y296000D02*
X941500D01*
Y331000*
X921500*
Y296000*
Y734500D02*
X941500D01*
Y769500*
X921500*
Y734500*
Y842000D02*
X941500D01*
Y877000*
X921500*
Y842000*
X1299500Y180101D02*
G02X1271101Y208500I2500J30899D01*
G01X1280898*
G03X1299500Y189898I21102J2500*
G01Y180101*
Y232102D02*
G03X1280898Y213500I2500J21102D01*
G01X1271101*
G02X1299500Y241899I30899J2500*
G01Y232102*
Y435101D02*
G02X1271101Y463500I2500J30899D01*
G01X1280898*
G03X1299500Y444898I21102J2500*
G01Y435101*
Y487102D02*
G03X1280898Y468500I2500J21102D01*
G01X1271101*
G02X1299500Y496899I30899J2500*
G01Y487102*
Y726101D02*
G02X1271101Y754500I2500J30899D01*
G01X1280898*
G03X1299500Y735898I21102J2500*
G01Y726101*
Y778102D02*
G03X1280898Y759500I2500J21102D01*
G01X1271101*
G02X1299500Y787899I30899J2500*
G01Y778102*
Y981101D02*
G02X1271101Y1009500I2500J30899D01*
G01X1280898*
G03X1299500Y990898I21102J2500*
G01Y981101*
Y1033102D02*
G03X1280898Y1014500I2500J21102D01*
G01X1271101*
G02X1299500Y1042899I30899J2500*
G01Y1033102*
X1323102Y213500D02*
G03X1304500Y232102I21102J2500D01*
G01Y241899*
G02X1332899Y213500I2500J30899*
G01X1323102*
Y468500D02*
G03X1304500Y487102I21102J2500D01*
G01Y496899*
G02X1332899Y468500I2500J30899*
G01X1323102*
Y759500D02*
G03X1304500Y778102I21102J2500D01*
G01Y787899*
G02X1332899Y759500I2500J30899*
G01X1323102*
Y1014500D02*
G03X1304500Y1033102I21102J2500D01*
G01Y1042899*
G02X1332899Y1014500I2500J30899*
G01X1323102*
X1332899Y208500D02*
G02X1304500Y180101I30899J2500D01*
G01Y189898*
G03X1323102Y208500I2500J21102*
G01X1332899*
Y463500D02*
G02X1304500Y435101I30899J2500D01*
G01Y444898*
G03X1323102Y463500I2500J21102*
G01X1332899*
Y754500D02*
G02X1304500Y726101I30899J2500D01*
G01Y735898*
G03X1323102Y754500I2500J21102*
G01X1332899*
Y1009500D02*
G02X1304500Y981101I30899J2500D01*
G01Y990898*
G03X1323102Y1009500I2500J21102*
G01X1332899*
G37*
G54D10*
X139000Y246000D03*
Y353500D03*
Y792000D03*
Y899500D03*
X148500Y266000D03*
Y373500D03*
Y812000D03*
Y919500D03*
X158000Y246000D03*
Y353500D03*
Y792000D03*
Y899500D03*
X222750Y373500D03*
Y919500D03*
X224000Y433500D03*
Y503500D03*
Y598500D03*
Y979500D03*
Y1049500D03*
Y1144500D03*
X232250Y393500D03*
Y939500D03*
X233500Y453500D03*
Y483500D03*
Y618500D03*
Y999500D03*
Y1029500D03*
Y1164500D03*
X241750Y373500D03*
Y919500D03*
X243000Y433500D03*
Y503500D03*
Y598500D03*
Y979500D03*
Y1049500D03*
Y1144500D03*
X274000Y373500D03*
Y433500D03*
Y503500D03*
Y598500D03*
Y919500D03*
Y979500D03*
Y1049500D03*
Y1144500D03*
X283500Y393500D03*
Y453500D03*
Y483500D03*
Y618500D03*
Y939500D03*
Y999500D03*
Y1029500D03*
Y1164500D03*
X293000Y373500D03*
Y433500D03*
Y503500D03*
Y598500D03*
Y919500D03*
Y979500D03*
Y1049500D03*
Y1144500D03*
X324000Y373500D03*
Y433500D03*
Y503500D03*
Y598500D03*
Y919500D03*
Y979500D03*
Y1049500D03*
Y1144500D03*
X333500Y393500D03*
Y453500D03*
Y483500D03*
Y618500D03*
Y939500D03*
Y999500D03*
Y1029500D03*
Y1164500D03*
X343000Y373500D03*
Y433500D03*
Y503500D03*
Y598500D03*
Y919500D03*
Y979500D03*
Y1049500D03*
Y1144500D03*
X376500Y373500D03*
Y433500D03*
Y503500D03*
Y598500D03*
Y919500D03*
Y979500D03*
Y1049500D03*
Y1144500D03*
X386000Y393500D03*
Y453500D03*
Y483500D03*
Y618500D03*
Y939500D03*
Y999500D03*
Y1029500D03*
Y1164500D03*
X395500Y373500D03*
Y433500D03*
Y503500D03*
Y598500D03*
Y919500D03*
Y979500D03*
Y1049500D03*
Y1144500D03*
X439000Y156000D03*
Y702000D03*
X448500Y136000D03*
Y682000D03*
X458000Y156000D03*
Y702000D03*
X476500Y156000D03*
Y702000D03*
X486000Y136000D03*
Y682000D03*
X495500Y156000D03*
Y702000D03*
X514000Y156000D03*
Y702000D03*
X523500Y136000D03*
Y682000D03*
X533000Y156000D03*
Y702000D03*
X554000Y156000D03*
Y702000D03*
X563500Y136000D03*
Y682000D03*
X573000Y156000D03*
Y702000D03*
X616500Y188500D03*
Y208500D03*
Y373500D03*
Y433500D03*
Y503500D03*
Y598500D03*
Y734500D03*
Y754500D03*
Y919500D03*
Y979500D03*
Y1049500D03*
Y1144500D03*
X626000Y168500D03*
Y228500D03*
Y393500D03*
Y453500D03*
Y483500D03*
Y618500D03*
Y714500D03*
Y774500D03*
Y939500D03*
Y999500D03*
Y1029500D03*
Y1164500D03*
X635500Y188500D03*
Y208500D03*
Y373500D03*
Y433500D03*
Y503500D03*
Y598500D03*
Y734500D03*
Y754500D03*
Y919500D03*
Y979500D03*
Y1049500D03*
Y1144500D03*
X666500Y188500D03*
Y208500D03*
Y734500D03*
Y754500D03*
X669000Y373500D03*
Y433500D03*
Y503500D03*
Y598500D03*
Y919500D03*
Y979500D03*
Y1049500D03*
Y1144500D03*
X676000Y168500D03*
Y228500D03*
Y714500D03*
Y774500D03*
X678500Y393500D03*
Y453500D03*
Y483500D03*
Y618500D03*
Y939500D03*
Y999500D03*
Y1029500D03*
Y1164500D03*
X685500Y188500D03*
Y208500D03*
Y734500D03*
Y754500D03*
X688000Y373500D03*
Y433500D03*
Y503500D03*
Y598500D03*
Y919500D03*
Y979500D03*
Y1049500D03*
Y1144500D03*
X716500Y188500D03*
Y208500D03*
Y734500D03*
Y754500D03*
X719000Y433500D03*
Y503500D03*
Y598500D03*
Y979500D03*
Y1049500D03*
Y1144500D03*
X720000Y373500D03*
Y919500D03*
X726000Y168500D03*
Y228500D03*
Y714500D03*
Y774500D03*
X728500Y453500D03*
Y483500D03*
Y618500D03*
Y999500D03*
Y1029500D03*
Y1164500D03*
X729500Y393500D03*
Y939500D03*
X735500Y188500D03*
Y208500D03*
Y734500D03*
Y754500D03*
X738000Y433500D03*
Y503500D03*
Y598500D03*
Y979500D03*
Y1049500D03*
Y1144500D03*
X739000Y373500D03*
Y919500D03*
X767500Y373500D03*
Y919500D03*
X769000Y188500D03*
Y208500D03*
Y433500D03*
Y503500D03*
Y598500D03*
Y734500D03*
Y754500D03*
Y979500D03*
Y1049500D03*
Y1144500D03*
X777000Y393500D03*
Y939500D03*
X778500Y168500D03*
Y228500D03*
Y453500D03*
Y483500D03*
Y618500D03*
Y714500D03*
Y774500D03*
Y999500D03*
Y1029500D03*
Y1164500D03*
X786500Y373500D03*
Y919500D03*
X788000Y188500D03*
Y208500D03*
Y433500D03*
Y503500D03*
Y598500D03*
Y734500D03*
Y754500D03*
Y979500D03*
Y1049500D03*
Y1144500D03*
X935000Y246000D03*
Y353500D03*
Y792000D03*
Y899500D03*
X944500Y266000D03*
Y373500D03*
Y812000D03*
Y919500D03*
X954000Y246000D03*
Y353500D03*
Y792000D03*
Y899500D03*
X1018750Y373500D03*
Y919500D03*
X1020000Y433500D03*
Y503500D03*
Y598500D03*
Y979500D03*
Y1049500D03*
Y1144500D03*
X1028250Y393500D03*
Y939500D03*
X1029500Y453500D03*
Y483500D03*
Y618500D03*
Y999500D03*
Y1029500D03*
Y1164500D03*
X1037750Y373500D03*
Y919500D03*
X1039000Y433500D03*
Y503500D03*
Y598500D03*
Y979500D03*
Y1049500D03*
Y1144500D03*
X1070000Y373500D03*
Y433500D03*
Y503500D03*
Y598500D03*
Y919500D03*
Y979500D03*
Y1049500D03*
Y1144500D03*
X1079500Y393500D03*
Y453500D03*
Y483500D03*
Y618500D03*
Y939500D03*
Y999500D03*
Y1029500D03*
Y1164500D03*
X1089000Y373500D03*
Y433500D03*
Y503500D03*
Y598500D03*
Y919500D03*
Y979500D03*
Y1049500D03*
Y1144500D03*
X1120000Y373500D03*
Y433500D03*
Y503500D03*
Y598500D03*
Y919500D03*
Y979500D03*
Y1049500D03*
Y1144500D03*
X1129500Y393500D03*
Y453500D03*
Y483500D03*
Y618500D03*
Y939500D03*
Y999500D03*
Y1029500D03*
Y1164500D03*
X1139000Y373500D03*
Y433500D03*
Y503500D03*
Y598500D03*
Y919500D03*
Y979500D03*
Y1049500D03*
Y1144500D03*
X1172500Y373500D03*
Y433500D03*
Y503500D03*
Y598500D03*
Y919500D03*
Y979500D03*
Y1049500D03*
Y1144500D03*
X1182000Y393500D03*
Y453500D03*
Y483500D03*
Y618500D03*
Y939500D03*
Y999500D03*
Y1029500D03*
Y1164500D03*
X1191500Y373500D03*
Y433500D03*
Y503500D03*
Y598500D03*
Y919500D03*
Y979500D03*
Y1049500D03*
Y1144500D03*
X1235000Y156000D03*
Y702000D03*
X1244500Y136000D03*
Y682000D03*
X1254000Y156000D03*
Y702000D03*
X1272500Y156000D03*
Y702000D03*
X1282000Y136000D03*
Y682000D03*
X1291500Y156000D03*
Y702000D03*
X1310000Y156000D03*
Y702000D03*
X1319500Y136000D03*
Y682000D03*
X1329000Y156000D03*
Y702000D03*
X1350000Y156000D03*
Y702000D03*
X1359500Y136000D03*
Y682000D03*
X1369000Y156000D03*
Y702000D03*
X1412500Y188500D03*
Y208500D03*
Y373500D03*
Y433500D03*
Y503500D03*
Y598500D03*
Y734500D03*
Y754500D03*
Y919500D03*
Y979500D03*
Y1049500D03*
Y1144500D03*
X1422000Y168500D03*
Y228500D03*
Y393500D03*
Y453500D03*
Y483500D03*
Y618500D03*
Y714500D03*
Y774500D03*
Y939500D03*
Y999500D03*
Y1029500D03*
Y1164500D03*
X1431500Y188500D03*
Y208500D03*
Y373500D03*
Y433500D03*
Y503500D03*
Y598500D03*
Y734500D03*
Y754500D03*
Y919500D03*
Y979500D03*
Y1049500D03*
Y1144500D03*
X1462500Y188500D03*
Y208500D03*
Y734500D03*
Y754500D03*
X1465000Y373500D03*
Y433500D03*
Y503500D03*
Y598500D03*
Y919500D03*
Y979500D03*
Y1049500D03*
Y1144500D03*
X1472000Y168500D03*
Y228500D03*
Y714500D03*
Y774500D03*
X1474500Y393500D03*
Y453500D03*
Y483500D03*
Y618500D03*
Y939500D03*
Y999500D03*
Y1029500D03*
Y1164500D03*
X1481500Y188500D03*
Y208500D03*
Y734500D03*
Y754500D03*
X1484000Y373500D03*
Y433500D03*
Y503500D03*
Y598500D03*
Y919500D03*
Y979500D03*
Y1049500D03*
Y1144500D03*
X1512500Y188500D03*
Y208500D03*
Y734500D03*
Y754500D03*
X1515000Y433500D03*
Y503500D03*
Y598500D03*
Y979500D03*
Y1049500D03*
Y1144500D03*
X1516000Y373500D03*
Y919500D03*
X1522000Y168500D03*
Y228500D03*
Y714500D03*
Y774500D03*
X1524500Y453500D03*
Y483500D03*
Y618500D03*
Y999500D03*
Y1029500D03*
Y1164500D03*
X1525500Y393500D03*
Y939500D03*
X1531500Y188500D03*
Y208500D03*
Y734500D03*
Y754500D03*
X1534000Y433500D03*
Y503500D03*
Y598500D03*
Y979500D03*
Y1049500D03*
Y1144500D03*
X1535000Y373500D03*
Y919500D03*
X1563500Y373500D03*
Y919500D03*
X1565000Y188500D03*
Y208500D03*
Y433500D03*
Y503500D03*
Y598500D03*
Y734500D03*
Y754500D03*
Y979500D03*
Y1049500D03*
Y1144500D03*
X1573000Y393500D03*
Y939500D03*
X1574500Y168500D03*
Y228500D03*
Y453500D03*
Y483500D03*
Y618500D03*
Y714500D03*
Y774500D03*
Y999500D03*
Y1029500D03*
Y1164500D03*
X1582500Y373500D03*
Y919500D03*
X1584000Y188500D03*
Y208500D03*
Y433500D03*
Y503500D03*
Y598500D03*
Y734500D03*
Y754500D03*
Y979500D03*
Y1049500D03*
Y1144500D03*
G54D11*
X478500Y330500D03*
Y346500D03*
Y876500D03*
Y892500D03*
X511000Y323000D03*
Y339000D03*
Y869000D03*
Y885000D03*
X533500Y600500D03*
Y616500D03*
Y1146500D03*
Y1162500D03*
X598500Y600500D03*
Y616500D03*
Y1146500D03*
Y1162500D03*
X1274500Y330500D03*
Y346500D03*
Y876500D03*
Y892500D03*
X1307000Y323000D03*
Y339000D03*
Y869000D03*
Y885000D03*
X1329500Y600500D03*
Y616500D03*
Y1146500D03*
Y1162500D03*
X1394500Y600500D03*
Y616500D03*
Y1146500D03*
Y1162500D03*
G54D12*
X423500Y412500D03*
Y958500D03*
X424000Y491000D03*
Y596000D03*
Y1037000D03*
Y1142000D03*
X424500Y358500D03*
Y904500D03*
X425300Y173500D03*
Y221000D03*
Y719500D03*
Y767000D03*
X453500Y412500D03*
Y958500D03*
X454000Y491000D03*
Y596000D03*
Y1037000D03*
Y1142000D03*
X454500Y358500D03*
Y904500D03*
X455300Y173500D03*
Y221000D03*
Y719500D03*
Y767000D03*
X817800Y178500D03*
Y236000D03*
Y358500D03*
Y413500D03*
Y523500D03*
Y591000D03*
Y724500D03*
Y782000D03*
Y904500D03*
Y959500D03*
Y1069500D03*
Y1137000D03*
X847800Y178500D03*
Y236000D03*
Y358500D03*
Y413500D03*
Y523500D03*
Y591000D03*
Y724500D03*
Y782000D03*
Y904500D03*
Y959500D03*
Y1069500D03*
Y1137000D03*
X1219500Y412500D03*
Y958500D03*
X1220000Y491000D03*
Y596000D03*
Y1037000D03*
Y1142000D03*
X1220500Y358500D03*
Y904500D03*
X1221300Y173500D03*
Y221000D03*
Y719500D03*
Y767000D03*
X1249500Y412500D03*
Y958500D03*
X1250000Y491000D03*
Y596000D03*
Y1037000D03*
Y1142000D03*
X1250500Y358500D03*
Y904500D03*
X1251300Y173500D03*
Y221000D03*
Y719500D03*
Y767000D03*
X1613800Y178500D03*
Y236000D03*
Y358500D03*
Y413500D03*
Y523500D03*
Y591000D03*
Y724500D03*
Y782000D03*
Y904500D03*
Y959500D03*
Y1069500D03*
Y1137000D03*
X1643800Y178500D03*
Y236000D03*
Y358500D03*
Y413500D03*
Y523500D03*
Y591000D03*
Y724500D03*
Y782000D03*
Y904500D03*
Y959500D03*
Y1069500D03*
Y1137000D03*
G54D13*
X322900Y258500D03*
Y303500D03*
Y804500D03*
Y849500D03*
X432900Y518500D03*
Y563500D03*
Y1064500D03*
Y1109500D03*
X469100Y258500D03*
Y303500D03*
Y804500D03*
Y849500D03*
X542900Y258500D03*
Y303500D03*
Y804500D03*
Y849500D03*
X579100Y518500D03*
Y563500D03*
Y1064500D03*
Y1109500D03*
X689100Y258500D03*
Y303500D03*
Y804500D03*
Y849500D03*
X1118900Y258500D03*
Y303500D03*
Y804500D03*
Y849500D03*
X1228900Y518500D03*
Y563500D03*
Y1064500D03*
Y1109500D03*
X1265100Y258500D03*
Y303500D03*
Y804500D03*
Y849500D03*
X1338900Y258500D03*
Y303500D03*
Y804500D03*
Y849500D03*
X1375100Y518500D03*
Y563500D03*
Y1064500D03*
Y1109500D03*
X1485100Y258500D03*
Y303500D03*
Y804500D03*
Y849500D03*
G54D14*
X328500Y258500D03*
Y303500D03*
Y804500D03*
Y849500D03*
X333500Y258500D03*
Y303500D03*
Y804500D03*
Y849500D03*
X338500Y258500D03*
Y303500D03*
Y804500D03*
Y849500D03*
X343500Y258500D03*
Y303500D03*
Y804500D03*
Y849500D03*
X348500Y258500D03*
Y303500D03*
Y804500D03*
Y849500D03*
X353500Y258500D03*
Y303500D03*
Y804500D03*
Y849500D03*
X358500Y258500D03*
Y303500D03*
Y804500D03*
Y849500D03*
X363500Y258500D03*
Y303500D03*
Y804500D03*
Y849500D03*
X368500Y258500D03*
Y303500D03*
Y804500D03*
Y849500D03*
X373500Y258500D03*
Y303500D03*
Y804500D03*
Y849500D03*
X378500Y258500D03*
Y303500D03*
Y804500D03*
Y849500D03*
X383500Y258500D03*
Y303500D03*
Y804500D03*
Y849500D03*
X388500Y258500D03*
Y303500D03*
Y804500D03*
Y849500D03*
X393500Y258500D03*
Y303500D03*
Y804500D03*
Y849500D03*
X398500Y258500D03*
Y303500D03*
Y804500D03*
Y849500D03*
X403500Y258500D03*
Y303500D03*
Y804500D03*
Y849500D03*
X408500Y258500D03*
Y303500D03*
Y804500D03*
Y849500D03*
X413500Y258500D03*
Y303500D03*
Y804500D03*
Y849500D03*
X418500Y258500D03*
Y303500D03*
Y804500D03*
Y849500D03*
X423500Y258500D03*
Y303500D03*
Y804500D03*
Y849500D03*
X428500Y258500D03*
Y303500D03*
Y804500D03*
Y849500D03*
X433500Y258500D03*
Y303500D03*
Y804500D03*
Y849500D03*
X438500Y258500D03*
Y303500D03*
Y518500D03*
Y563500D03*
Y804500D03*
Y849500D03*
Y1064500D03*
Y1109500D03*
X443500Y258500D03*
Y303500D03*
Y518500D03*
Y563500D03*
Y804500D03*
Y849500D03*
Y1064500D03*
Y1109500D03*
X448500Y258500D03*
Y303500D03*
Y518500D03*
Y563500D03*
Y804500D03*
Y849500D03*
Y1064500D03*
Y1109500D03*
X453500Y258500D03*
Y303500D03*
Y518500D03*
Y563500D03*
Y804500D03*
Y849500D03*
Y1064500D03*
Y1109500D03*
X458500Y258500D03*
Y303500D03*
Y518500D03*
Y563500D03*
Y804500D03*
Y849500D03*
Y1064500D03*
Y1109500D03*
X463500Y258500D03*
Y303500D03*
Y518500D03*
Y563500D03*
Y804500D03*
Y849500D03*
Y1064500D03*
Y1109500D03*
X468500Y518500D03*
Y563500D03*
Y1064500D03*
Y1109500D03*
X473500Y518500D03*
Y563500D03*
Y1064500D03*
Y1109500D03*
X478500Y518500D03*
Y563500D03*
Y1064500D03*
Y1109500D03*
X483500Y518500D03*
Y563500D03*
Y1064500D03*
Y1109500D03*
X488500Y518500D03*
Y563500D03*
Y1064500D03*
Y1109500D03*
X493500Y518500D03*
Y563500D03*
Y1064500D03*
Y1109500D03*
X498500Y518500D03*
Y563500D03*
Y1064500D03*
Y1109500D03*
X503500Y518500D03*
Y563500D03*
Y1064500D03*
Y1109500D03*
X508500Y518500D03*
Y563500D03*
Y1064500D03*
Y1109500D03*
X513500Y518500D03*
Y563500D03*
Y1064500D03*
Y1109500D03*
X518500Y518500D03*
Y563500D03*
Y1064500D03*
Y1109500D03*
X523500Y518500D03*
Y563500D03*
Y1064500D03*
Y1109500D03*
X528500Y518500D03*
Y563500D03*
Y1064500D03*
Y1109500D03*
X533500Y518500D03*
Y563500D03*
Y1064500D03*
Y1109500D03*
X538500Y518500D03*
Y563500D03*
Y1064500D03*
Y1109500D03*
X543500Y518500D03*
Y563500D03*
Y1064500D03*
Y1109500D03*
X548500Y258500D03*
Y303500D03*
Y518500D03*
Y563500D03*
Y804500D03*
Y849500D03*
Y1064500D03*
Y1109500D03*
X553500Y258500D03*
Y303500D03*
Y518500D03*
Y563500D03*
Y804500D03*
Y849500D03*
Y1064500D03*
Y1109500D03*
X558500Y258500D03*
Y303500D03*
Y518500D03*
Y563500D03*
Y804500D03*
Y849500D03*
Y1064500D03*
Y1109500D03*
X563500Y258500D03*
Y303500D03*
Y518500D03*
Y563500D03*
Y804500D03*
Y849500D03*
Y1064500D03*
Y1109500D03*
X568500Y258500D03*
Y303500D03*
Y518500D03*
Y563500D03*
Y804500D03*
Y849500D03*
Y1064500D03*
Y1109500D03*
X573500Y258500D03*
Y303500D03*
Y518500D03*
Y563500D03*
Y804500D03*
Y849500D03*
Y1064500D03*
Y1109500D03*
X578500Y258500D03*
Y303500D03*
Y804500D03*
Y849500D03*
X583500Y258500D03*
Y303500D03*
Y804500D03*
Y849500D03*
X588500Y258500D03*
Y303500D03*
Y804500D03*
Y849500D03*
X593500Y258500D03*
Y303500D03*
Y804500D03*
Y849500D03*
X598500Y258500D03*
Y303500D03*
Y804500D03*
Y849500D03*
X603500Y258500D03*
Y303500D03*
Y804500D03*
Y849500D03*
X608500Y258500D03*
Y303500D03*
Y804500D03*
Y849500D03*
X613500Y258500D03*
Y303500D03*
Y804500D03*
Y849500D03*
X618500Y258500D03*
Y303500D03*
Y804500D03*
Y849500D03*
X623500Y258500D03*
Y303500D03*
Y804500D03*
Y849500D03*
X628500Y258500D03*
Y303500D03*
Y804500D03*
Y849500D03*
X633500Y258500D03*
Y303500D03*
Y804500D03*
Y849500D03*
X638500Y258500D03*
Y303500D03*
Y804500D03*
Y849500D03*
X643500Y258500D03*
Y303500D03*
Y804500D03*
Y849500D03*
X648500Y258500D03*
Y303500D03*
Y804500D03*
Y849500D03*
X653500Y258500D03*
Y303500D03*
Y804500D03*
Y849500D03*
X658500Y258500D03*
Y303500D03*
Y804500D03*
Y849500D03*
X663500Y258500D03*
Y303500D03*
Y804500D03*
Y849500D03*
X668500Y258500D03*
Y303500D03*
Y804500D03*
Y849500D03*
X673500Y258500D03*
Y303500D03*
Y804500D03*
Y849500D03*
X678500Y258500D03*
Y303500D03*
Y804500D03*
Y849500D03*
X683500Y258500D03*
Y303500D03*
Y804500D03*
Y849500D03*
X1124500Y258500D03*
Y303500D03*
Y804500D03*
Y849500D03*
X1129500Y258500D03*
Y303500D03*
Y804500D03*
Y849500D03*
X1134500Y258500D03*
Y303500D03*
Y804500D03*
Y849500D03*
X1139500Y258500D03*
Y303500D03*
Y804500D03*
Y849500D03*
X1144500Y258500D03*
Y303500D03*
Y804500D03*
Y849500D03*
X1149500Y258500D03*
Y303500D03*
Y804500D03*
Y849500D03*
X1154500Y258500D03*
Y303500D03*
Y804500D03*
Y849500D03*
X1159500Y258500D03*
Y303500D03*
Y804500D03*
Y849500D03*
X1164500Y258500D03*
Y303500D03*
Y804500D03*
Y849500D03*
X1169500Y258500D03*
Y303500D03*
Y804500D03*
Y849500D03*
X1174500Y258500D03*
Y303500D03*
Y804500D03*
Y849500D03*
X1179500Y258500D03*
Y303500D03*
Y804500D03*
Y849500D03*
X1184500Y258500D03*
Y303500D03*
Y804500D03*
Y849500D03*
X1189500Y258500D03*
Y303500D03*
Y804500D03*
Y849500D03*
X1194500Y258500D03*
Y303500D03*
Y804500D03*
Y849500D03*
X1199500Y258500D03*
Y303500D03*
Y804500D03*
Y849500D03*
X1204500Y258500D03*
Y303500D03*
Y804500D03*
Y849500D03*
X1209500Y258500D03*
Y303500D03*
Y804500D03*
Y849500D03*
X1214500Y258500D03*
Y303500D03*
Y804500D03*
Y849500D03*
X1219500Y258500D03*
Y303500D03*
Y804500D03*
Y849500D03*
X1224500Y258500D03*
Y303500D03*
Y804500D03*
Y849500D03*
X1229500Y258500D03*
Y303500D03*
Y804500D03*
Y849500D03*
X1234500Y258500D03*
Y303500D03*
Y518500D03*
Y563500D03*
Y804500D03*
Y849500D03*
Y1064500D03*
Y1109500D03*
X1239500Y258500D03*
Y303500D03*
Y518500D03*
Y563500D03*
Y804500D03*
Y849500D03*
Y1064500D03*
Y1109500D03*
X1244500Y258500D03*
Y303500D03*
Y518500D03*
Y563500D03*
Y804500D03*
Y849500D03*
Y1064500D03*
Y1109500D03*
X1249500Y258500D03*
Y303500D03*
Y518500D03*
Y563500D03*
Y804500D03*
Y849500D03*
Y1064500D03*
Y1109500D03*
X1254500Y258500D03*
Y303500D03*
Y518500D03*
Y563500D03*
Y804500D03*
Y849500D03*
Y1064500D03*
Y1109500D03*
X1259500Y258500D03*
Y303500D03*
Y518500D03*
Y563500D03*
Y804500D03*
Y849500D03*
Y1064500D03*
Y1109500D03*
X1264500Y518500D03*
Y563500D03*
Y1064500D03*
Y1109500D03*
X1269500Y518500D03*
Y563500D03*
Y1064500D03*
Y1109500D03*
X1274500Y518500D03*
Y563500D03*
Y1064500D03*
Y1109500D03*
X1279500Y518500D03*
Y563500D03*
Y1064500D03*
Y1109500D03*
X1284500Y518500D03*
Y563500D03*
Y1064500D03*
Y1109500D03*
X1289500Y518500D03*
Y563500D03*
Y1064500D03*
Y1109500D03*
X1294500Y518500D03*
Y563500D03*
Y1064500D03*
Y1109500D03*
X1299500Y518500D03*
Y563500D03*
Y1064500D03*
Y1109500D03*
X1304500Y518500D03*
Y563500D03*
Y1064500D03*
Y1109500D03*
X1309500Y518500D03*
Y563500D03*
Y1064500D03*
Y1109500D03*
X1314500Y518500D03*
Y563500D03*
Y1064500D03*
Y1109500D03*
X1319500Y518500D03*
Y563500D03*
Y1064500D03*
Y1109500D03*
X1324500Y518500D03*
Y563500D03*
Y1064500D03*
Y1109500D03*
X1329500Y518500D03*
Y563500D03*
Y1064500D03*
Y1109500D03*
X1334500Y518500D03*
Y563500D03*
Y1064500D03*
Y1109500D03*
X1339500Y518500D03*
Y563500D03*
Y1064500D03*
Y1109500D03*
X1344500Y258500D03*
Y303500D03*
Y518500D03*
Y563500D03*
Y804500D03*
Y849500D03*
Y1064500D03*
Y1109500D03*
X1349500Y258500D03*
Y303500D03*
Y518500D03*
Y563500D03*
Y804500D03*
Y849500D03*
Y1064500D03*
Y1109500D03*
X1354500Y258500D03*
Y303500D03*
Y518500D03*
Y563500D03*
Y804500D03*
Y849500D03*
Y1064500D03*
Y1109500D03*
X1359500Y258500D03*
Y303500D03*
Y518500D03*
Y563500D03*
Y804500D03*
Y849500D03*
Y1064500D03*
Y1109500D03*
X1364500Y258500D03*
Y303500D03*
Y518500D03*
Y563500D03*
Y804500D03*
Y849500D03*
Y1064500D03*
Y1109500D03*
X1369500Y258500D03*
Y303500D03*
Y518500D03*
Y563500D03*
Y804500D03*
Y849500D03*
Y1064500D03*
Y1109500D03*
X1374500Y258500D03*
Y303500D03*
Y804500D03*
Y849500D03*
X1379500Y258500D03*
Y303500D03*
Y804500D03*
Y849500D03*
X1384500Y258500D03*
Y303500D03*
Y804500D03*
Y849500D03*
X1389500Y258500D03*
Y303500D03*
Y804500D03*
Y849500D03*
X1394500Y258500D03*
Y303500D03*
Y804500D03*
Y849500D03*
X1399500Y258500D03*
Y303500D03*
Y804500D03*
Y849500D03*
X1404500Y258500D03*
Y303500D03*
Y804500D03*
Y849500D03*
X1409500Y258500D03*
Y303500D03*
Y804500D03*
Y849500D03*
X1414500Y258500D03*
Y303500D03*
Y804500D03*
Y849500D03*
X1419500Y258500D03*
Y303500D03*
Y804500D03*
Y849500D03*
X1424500Y258500D03*
Y303500D03*
Y804500D03*
Y849500D03*
X1429500Y258500D03*
Y303500D03*
Y804500D03*
Y849500D03*
X1434500Y258500D03*
Y303500D03*
Y804500D03*
Y849500D03*
X1439500Y258500D03*
Y303500D03*
Y804500D03*
Y849500D03*
X1444500Y258500D03*
Y303500D03*
Y804500D03*
Y849500D03*
X1449500Y258500D03*
Y303500D03*
Y804500D03*
Y849500D03*
X1454500Y258500D03*
Y303500D03*
Y804500D03*
Y849500D03*
X1459500Y258500D03*
Y303500D03*
Y804500D03*
Y849500D03*
X1464500Y258500D03*
Y303500D03*
Y804500D03*
Y849500D03*
X1469500Y258500D03*
Y303500D03*
Y804500D03*
Y849500D03*
X1474500Y258500D03*
Y303500D03*
Y804500D03*
Y849500D03*
X1479500Y258500D03*
Y303500D03*
Y804500D03*
Y849500D03*
G54D15*
X129400Y230500D03*
Y338000D03*
Y776500D03*
Y884000D03*
X129500Y176500D03*
Y284000D03*
Y722500D03*
Y830000D03*
X142100Y230500D03*
Y338000D03*
Y776500D03*
Y884000D03*
X142200Y176500D03*
Y284000D03*
Y722500D03*
Y830000D03*
X154900Y176500D03*
Y230500D03*
Y284000D03*
Y338000D03*
Y722500D03*
Y776500D03*
Y830000D03*
Y884000D03*
X167600Y176500D03*
Y230500D03*
Y284000D03*
Y338000D03*
Y722500D03*
Y776500D03*
Y830000D03*
Y884000D03*
X925400Y230500D03*
Y338000D03*
Y776500D03*
Y884000D03*
X925500Y176500D03*
Y284000D03*
Y722500D03*
Y830000D03*
X938100Y230500D03*
Y338000D03*
Y776500D03*
Y884000D03*
X938200Y176500D03*
Y284000D03*
Y722500D03*
Y830000D03*
X950900Y176500D03*
Y230500D03*
Y284000D03*
Y338000D03*
Y722500D03*
Y776500D03*
Y830000D03*
Y884000D03*
X963600Y176500D03*
Y230500D03*
Y284000D03*
Y338000D03*
Y722500D03*
Y776500D03*
Y830000D03*
Y884000D03*
G54D16*
X136400Y210500D03*
Y318000D03*
Y756500D03*
Y864000D03*
X160600Y210500D03*
Y318000D03*
Y756500D03*
Y864000D03*
X932400Y210500D03*
Y318000D03*
Y756500D03*
Y864000D03*
X956600Y210500D03*
Y318000D03*
Y756500D03*
Y864000D03*
G54D17*
X151500Y188500D02*
X171500D01*
Y223500*
X151500*
Y188500*
Y296000D02*
X171500D01*
Y331000*
X151500*
Y296000*
Y734500D02*
X171500D01*
Y769500*
X151500*
Y734500*
Y842000D02*
X171500D01*
Y877000*
X151500*
Y842000*
X947500Y188500D02*
X967500D01*
Y223500*
X947500*
Y188500*
Y296000D02*
X967500D01*
Y331000*
X947500*
Y296000*
Y734500D02*
X967500D01*
Y769500*
X947500*
Y734500*
Y842000D02*
X967500D01*
Y877000*
X947500*
Y842000*
G54D18*
X211500Y133500D03*
Y679500D03*
X220500Y133500D03*
Y679500D03*
X234000Y133500D03*
Y679500D03*
X243000Y133500D03*
Y679500D03*
X246500Y223500D03*
Y769500D03*
X255500Y223500D03*
Y769500D03*
X271500Y133500D03*
Y223500D03*
Y679500D03*
Y769500D03*
X280500Y133500D03*
Y223500D03*
Y679500D03*
Y769500D03*
X291500Y223500D03*
Y769500D03*
X300500Y223500D03*
Y769500D03*
X306500Y133500D03*
Y679500D03*
X311500Y223500D03*
Y769500D03*
X315500Y133500D03*
Y679500D03*
X320500Y223500D03*
Y769500D03*
X329000Y223500D03*
Y769500D03*
X331500Y133500D03*
Y679500D03*
X338000Y223500D03*
Y769500D03*
X340500Y133500D03*
Y679500D03*
X366500Y133500D03*
Y679500D03*
X371500Y223500D03*
Y769500D03*
X375500Y133500D03*
Y679500D03*
X380500Y223500D03*
Y769500D03*
X391500Y223500D03*
Y769500D03*
X396500Y133500D03*
Y679500D03*
X400500Y223500D03*
Y769500D03*
X405500Y133500D03*
Y679500D03*
X526500Y323500D03*
Y333500D03*
Y343500D03*
Y869500D03*
Y879500D03*
Y889500D03*
X535500Y323500D03*
Y333500D03*
Y343500D03*
Y869500D03*
Y879500D03*
Y889500D03*
X536500Y353500D03*
Y899500D03*
X545500Y353500D03*
Y899500D03*
X566500Y586000D03*
Y631000D03*
Y1132000D03*
Y1177000D03*
X575500Y586000D03*
Y631000D03*
Y1132000D03*
Y1177000D03*
X1007500Y133500D03*
Y679500D03*
X1016500Y133500D03*
Y679500D03*
X1030000Y133500D03*
Y679500D03*
X1039000Y133500D03*
Y679500D03*
X1042500Y223500D03*
Y769500D03*
X1051500Y223500D03*
Y769500D03*
X1067500Y133500D03*
Y223500D03*
Y679500D03*
Y769500D03*
X1076500Y133500D03*
Y223500D03*
Y679500D03*
Y769500D03*
X1087500Y223500D03*
Y769500D03*
X1096500Y223500D03*
Y769500D03*
X1102500Y133500D03*
Y679500D03*
X1107500Y223500D03*
Y769500D03*
X1111500Y133500D03*
Y679500D03*
X1116500Y223500D03*
Y769500D03*
X1125000Y223500D03*
Y769500D03*
X1127500Y133500D03*
Y679500D03*
X1134000Y223500D03*
Y769500D03*
X1136500Y133500D03*
Y679500D03*
X1162500Y133500D03*
Y679500D03*
X1167500Y223500D03*
Y769500D03*
X1171500Y133500D03*
Y679500D03*
X1176500Y223500D03*
Y769500D03*
X1187500Y223500D03*
Y769500D03*
X1192500Y133500D03*
Y679500D03*
X1196500Y223500D03*
Y769500D03*
X1201500Y133500D03*
Y679500D03*
X1322500Y323500D03*
Y333500D03*
Y343500D03*
Y869500D03*
Y879500D03*
Y889500D03*
X1331500Y323500D03*
Y333500D03*
Y343500D03*
Y869500D03*
Y879500D03*
Y889500D03*
X1332500Y353500D03*
Y899500D03*
X1341500Y353500D03*
Y899500D03*
X1362500Y586000D03*
Y631000D03*
Y1132000D03*
Y1177000D03*
X1371500Y586000D03*
Y631000D03*
Y1132000D03*
Y1177000D03*
G54D19*
X552000Y599000D03*
Y608500D03*
Y618000D03*
Y1145000D03*
Y1154500D03*
Y1164000D03*
X580000Y599000D03*
Y608500D03*
Y618000D03*
Y1145000D03*
Y1154500D03*
Y1164000D03*
X1348000Y599000D03*
Y608500D03*
Y618000D03*
Y1145000D03*
Y1154500D03*
Y1164000D03*
X1376000Y599000D03*
Y608500D03*
Y618000D03*
Y1145000D03*
Y1154500D03*
Y1164000D03*
G54D20*
X483000Y599000D03*
Y608500D03*
Y618000D03*
Y1145000D03*
Y1154500D03*
Y1164000D03*
X509000Y599000D03*
Y608500D03*
Y618000D03*
Y1145000D03*
Y1154500D03*
Y1164000D03*
X1279000Y599000D03*
Y608500D03*
Y618000D03*
Y1145000D03*
Y1154500D03*
Y1164000D03*
X1305000Y599000D03*
Y608500D03*
Y618000D03*
Y1145000D03*
Y1154500D03*
Y1164000D03*
G54D21*
X276000Y256500D03*
Y265500D03*
Y291500D03*
Y300500D03*
Y802500D03*
Y811500D03*
Y837500D03*
Y846500D03*
X286000Y256500D03*
Y265500D03*
Y291500D03*
Y300500D03*
Y802500D03*
Y811500D03*
Y837500D03*
Y846500D03*
X421000Y134000D03*
Y143000D03*
Y680000D03*
Y689000D03*
X491000Y329000D03*
Y338000D03*
Y875000D03*
Y884000D03*
X1072000Y256500D03*
Y265500D03*
Y291500D03*
Y300500D03*
Y802500D03*
Y811500D03*
Y837500D03*
Y846500D03*
X1082000Y256500D03*
Y265500D03*
Y291500D03*
Y300500D03*
Y802500D03*
Y811500D03*
Y837500D03*
Y846500D03*
X1217000Y134000D03*
Y143000D03*
Y680000D03*
Y689000D03*
X1287000Y329000D03*
Y338000D03*
Y875000D03*
Y884000D03*
G54D22*
X486000Y367000D03*
Y371000D03*
Y375000D03*
Y379000D03*
Y383000D03*
Y387000D03*
Y391000D03*
Y395000D03*
Y913000D03*
Y917000D03*
Y921000D03*
Y925000D03*
Y929000D03*
Y933000D03*
Y937000D03*
Y941000D03*
X1282000Y367000D03*
Y371000D03*
Y375000D03*
Y379000D03*
Y383000D03*
Y387000D03*
Y391000D03*
Y395000D03*
Y913000D03*
Y917000D03*
Y921000D03*
Y925000D03*
Y929000D03*
Y933000D03*
Y937000D03*
Y941000D03*
G54D23*
X492000Y401000D03*
Y947000D03*
X496000Y401000D03*
Y947000D03*
X500000Y401000D03*
Y947000D03*
X504000Y401000D03*
Y947000D03*
X508000Y401000D03*
Y947000D03*
X512000Y401000D03*
Y947000D03*
X516000Y401000D03*
Y947000D03*
X520000Y401000D03*
Y947000D03*
X1288000Y401000D03*
Y947000D03*
X1292000Y401000D03*
Y947000D03*
X1296000Y401000D03*
Y947000D03*
X1300000Y401000D03*
Y947000D03*
X1304000Y401000D03*
Y947000D03*
X1308000Y401000D03*
Y947000D03*
X1312000Y401000D03*
Y947000D03*
X1316000Y401000D03*
Y947000D03*
G54D24*
X526000Y367000D03*
Y371000D03*
Y375000D03*
Y379000D03*
Y383000D03*
Y387000D03*
Y391000D03*
Y395000D03*
Y913000D03*
Y917000D03*
Y921000D03*
Y925000D03*
Y929000D03*
Y933000D03*
Y937000D03*
Y941000D03*
X1322000Y367000D03*
Y371000D03*
Y375000D03*
Y379000D03*
Y383000D03*
Y387000D03*
Y391000D03*
Y395000D03*
Y913000D03*
Y917000D03*
Y921000D03*
Y925000D03*
Y929000D03*
Y933000D03*
Y937000D03*
Y941000D03*
G54D25*
X492000Y361000D03*
Y907000D03*
X496000Y361000D03*
Y907000D03*
X500000Y361000D03*
Y907000D03*
X504000Y361000D03*
Y907000D03*
X508000Y361000D03*
Y907000D03*
X512000Y361000D03*
Y907000D03*
X516000Y361000D03*
Y907000D03*
X520000Y361000D03*
Y907000D03*
X1288000Y361000D03*
Y907000D03*
X1292000Y361000D03*
Y907000D03*
X1296000Y361000D03*
Y907000D03*
X1300000Y361000D03*
Y907000D03*
X1304000Y361000D03*
Y907000D03*
X1308000Y361000D03*
Y907000D03*
X1312000Y361000D03*
Y907000D03*
X1316000Y361000D03*
Y907000D03*
G54D26*
X506000Y381000D03*
Y927000D03*
X1302000Y381000D03*
Y927000D03*
G54D27*
X188500Y251000D03*
Y281000D03*
Y296000D03*
Y326000D03*
Y797000D03*
Y827000D03*
Y842000D03*
Y872000D03*
X211000Y251000D03*
Y281000D03*
Y296000D03*
Y326000D03*
Y797000D03*
Y827000D03*
Y842000D03*
Y872000D03*
X233500Y241000D03*
Y271000D03*
Y306000D03*
Y336000D03*
Y787000D03*
Y817000D03*
Y852000D03*
Y882000D03*
X256000Y241000D03*
Y271000D03*
Y306000D03*
Y336000D03*
Y787000D03*
Y817000D03*
Y852000D03*
Y882000D03*
X984500Y251000D03*
Y281000D03*
Y296000D03*
Y326000D03*
Y797000D03*
Y827000D03*
Y842000D03*
Y872000D03*
X1007000Y251000D03*
Y281000D03*
Y296000D03*
Y326000D03*
Y797000D03*
Y827000D03*
Y842000D03*
Y872000D03*
X1029500Y241000D03*
Y271000D03*
Y306000D03*
Y336000D03*
Y787000D03*
Y817000D03*
Y852000D03*
Y882000D03*
X1052000Y241000D03*
Y271000D03*
Y306000D03*
Y336000D03*
Y787000D03*
Y817000D03*
Y852000D03*
Y882000D03*
G54D28*
X196000Y181000D03*
Y218500D03*
Y727000D03*
Y764500D03*
X216000Y171500D03*
Y190500D03*
Y209000D03*
Y228000D03*
Y717500D03*
Y736500D03*
Y755000D03*
Y774000D03*
X992000Y181000D03*
Y218500D03*
Y727000D03*
Y764500D03*
X1012000Y171500D03*
Y190500D03*
Y209000D03*
Y228000D03*
Y717500D03*
Y736500D03*
Y755000D03*
Y774000D03*
G54D70*
X429500Y456000D03*
Y1002000D03*
X437000Y196000D03*
Y742000D03*
X447500Y456000D03*
Y1002000D03*
X455000Y196000D03*
Y742000D03*
X1225500Y456000D03*
Y1002000D03*
X1233000Y196000D03*
Y742000D03*
X1243500Y456000D03*
Y1002000D03*
X1251000Y196000D03*
Y742000D03*
G54D71*
X238250Y149000D03*
Y208000D03*
Y695000D03*
Y754000D03*
X244750Y149000D03*
Y208000D03*
Y695000D03*
Y754000D03*
X251250Y149000D03*
Y208000D03*
Y695000D03*
Y754000D03*
X257750Y149000D03*
Y208000D03*
Y695000D03*
Y754000D03*
X264250Y149000D03*
Y208000D03*
Y695000D03*
Y754000D03*
X270750Y149000D03*
Y208000D03*
Y695000D03*
Y754000D03*
X277250Y149000D03*
Y208000D03*
Y695000D03*
Y754000D03*
X283750Y149000D03*
Y208000D03*
Y695000D03*
Y754000D03*
X300750Y149000D03*
Y208000D03*
Y695000D03*
Y754000D03*
X307250Y149000D03*
Y208000D03*
Y695000D03*
Y754000D03*
X313750Y149000D03*
Y208000D03*
Y695000D03*
Y754000D03*
X320250Y149000D03*
Y208000D03*
Y695000D03*
Y754000D03*
X326750Y149000D03*
Y208000D03*
Y695000D03*
Y754000D03*
X333250Y149000D03*
Y208000D03*
Y695000D03*
Y754000D03*
X339750Y149000D03*
Y208000D03*
Y695000D03*
Y754000D03*
X346250Y149000D03*
Y208000D03*
Y695000D03*
Y754000D03*
X363250Y149000D03*
Y208000D03*
Y695000D03*
Y754000D03*
X369750Y149000D03*
Y208000D03*
Y695000D03*
Y754000D03*
X376250Y149000D03*
Y208000D03*
Y695000D03*
Y754000D03*
X382750Y149000D03*
Y208000D03*
Y695000D03*
Y754000D03*
X389250Y149000D03*
Y208000D03*
Y695000D03*
Y754000D03*
X395750Y149000D03*
Y208000D03*
Y695000D03*
Y754000D03*
X402250Y149000D03*
Y208000D03*
Y695000D03*
Y754000D03*
X408750Y149000D03*
Y208000D03*
Y695000D03*
Y754000D03*
X1034250Y149000D03*
Y208000D03*
Y695000D03*
Y754000D03*
X1040750Y149000D03*
Y208000D03*
Y695000D03*
Y754000D03*
X1047250Y149000D03*
Y208000D03*
Y695000D03*
Y754000D03*
X1053750Y149000D03*
Y208000D03*
Y695000D03*
Y754000D03*
X1060250Y149000D03*
Y208000D03*
Y695000D03*
Y754000D03*
X1066750Y149000D03*
Y208000D03*
Y695000D03*
Y754000D03*
X1073250Y149000D03*
Y208000D03*
Y695000D03*
Y754000D03*
X1079750Y149000D03*
Y208000D03*
Y695000D03*
Y754000D03*
X1096750Y149000D03*
Y208000D03*
Y695000D03*
Y754000D03*
X1103250Y149000D03*
Y208000D03*
Y695000D03*
Y754000D03*
X1109750Y149000D03*
Y208000D03*
Y695000D03*
Y754000D03*
X1116250Y149000D03*
Y208000D03*
Y695000D03*
Y754000D03*
X1122750Y149000D03*
Y208000D03*
Y695000D03*
Y754000D03*
X1129250Y149000D03*
Y208000D03*
Y695000D03*
Y754000D03*
X1135750Y149000D03*
Y208000D03*
Y695000D03*
Y754000D03*
X1142250Y149000D03*
Y208000D03*
Y695000D03*
Y754000D03*
X1159250Y149000D03*
Y208000D03*
Y695000D03*
Y754000D03*
X1165750Y149000D03*
Y208000D03*
Y695000D03*
Y754000D03*
X1172250Y149000D03*
Y208000D03*
Y695000D03*
Y754000D03*
X1178750Y149000D03*
Y208000D03*
Y695000D03*
Y754000D03*
X1185250Y149000D03*
Y208000D03*
Y695000D03*
Y754000D03*
X1191750Y149000D03*
Y208000D03*
Y695000D03*
Y754000D03*
X1198250Y149000D03*
Y208000D03*
Y695000D03*
Y754000D03*
X1204750Y149000D03*
Y208000D03*
Y695000D03*
Y754000D03*
M02*
