*
G04 Job   : C:\Users\MartinJohansson\OneDrive - E-Sharp AB\DesignLabs\PLM\Projects\ELECTRONICS\Sparrow_Fixture_Electronics\Sparrow_NTop_R3\PCB\Panel\sparrow_n-top\sparrow_n-top.pnl*
G04 User  : ESHARP-MARTIN:MartinJohansson*
G04 Layer : Maskbottom.gbs*
G04 Date  : Fri Dec 12 09:36:39 2025*
G04 Soldermask bottom*
%ICAS*%
%MOMM*%
%FSLAX24Y24*%
%OFA0.0000B0.0000*%
G90*
G74*
%AMVB_RECTANGLE*
21,1,$1,$2,0,0,$3*
%
%ADD11C,1.00000*%
%ADD17C,1.25000*%
%ADD10C,1.55000*%
%ADD16C,1.60000*%
%ADD14C,6.35000*%
%ADD13VB_RECTANGLE,0.30000X2.00000X180.00000*%
%ADD15VB_RECTANGLE,0.55000X1.65000X0.00000*%
%ADD12VB_RECTANGLE,0.80000X2.10000X180.00000*%
G01*
G54D10*
X50000Y50000D03*
Y1258000D03*
X138500Y138500D03*
Y623500D03*
Y684500D03*
Y1169500D03*
X873500Y138500D03*
Y623500D03*
Y684500D03*
Y1169500D03*
X934500Y138500D03*
Y623500D03*
Y684500D03*
Y1169500D03*
X1669500Y138500D03*
Y623500D03*
Y684500D03*
Y1169500D03*
X1758000Y50000D03*
X1778000Y1278000D03*
G54D11*
X32000Y116000D03*
Y1192000D03*
X41000Y116000D03*
Y1192000D03*
X50000Y116000D03*
Y1192000D03*
X59000Y116000D03*
Y1192000D03*
X68000Y116000D03*
Y1192000D03*
X116000Y363000D03*
Y372000D03*
Y381000D03*
Y390000D03*
Y399000D03*
Y909000D03*
Y918000D03*
Y927000D03*
Y936000D03*
Y945000D03*
X208000Y116000D03*
Y646000D03*
Y662000D03*
Y1192000D03*
X217000Y116000D03*
Y646000D03*
Y662000D03*
Y1192000D03*
X226000Y116000D03*
Y646000D03*
Y662000D03*
Y1192000D03*
X235000Y116000D03*
Y646000D03*
Y662000D03*
Y1192000D03*
X244000Y116000D03*
Y646000D03*
Y662000D03*
Y1192000D03*
X768000Y116000D03*
Y646000D03*
Y662000D03*
Y1192000D03*
X777000Y116000D03*
Y646000D03*
Y662000D03*
Y1192000D03*
X786000Y116000D03*
Y646000D03*
Y662000D03*
Y1192000D03*
X795000Y116000D03*
Y646000D03*
Y662000D03*
Y1192000D03*
X804000Y116000D03*
Y646000D03*
Y662000D03*
Y1192000D03*
X896000Y363000D03*
Y372000D03*
Y381000D03*
Y390000D03*
Y399000D03*
Y909000D03*
Y918000D03*
Y927000D03*
Y936000D03*
Y945000D03*
X912000Y363000D03*
Y372000D03*
Y381000D03*
Y390000D03*
Y399000D03*
Y909000D03*
Y918000D03*
Y927000D03*
Y936000D03*
Y945000D03*
X1004000Y116000D03*
Y646000D03*
Y662000D03*
Y1192000D03*
X1013000Y116000D03*
Y646000D03*
Y662000D03*
Y1192000D03*
X1022000Y116000D03*
Y646000D03*
Y662000D03*
Y1192000D03*
X1031000Y116000D03*
Y646000D03*
Y662000D03*
Y1192000D03*
X1040000Y116000D03*
Y646000D03*
Y662000D03*
Y1192000D03*
X1564000Y116000D03*
Y646000D03*
Y662000D03*
Y1192000D03*
X1573000Y116000D03*
Y646000D03*
Y662000D03*
Y1192000D03*
X1582000Y116000D03*
Y646000D03*
Y662000D03*
Y1192000D03*
X1591000Y116000D03*
Y646000D03*
Y662000D03*
Y1192000D03*
X1600000Y116000D03*
Y646000D03*
Y662000D03*
Y1192000D03*
X1692000Y363000D03*
Y372000D03*
Y381000D03*
Y390000D03*
Y399000D03*
Y909000D03*
Y918000D03*
Y927000D03*
Y936000D03*
Y945000D03*
X1740000Y116000D03*
Y1192000D03*
X1749000Y116000D03*
Y1192000D03*
X1758000Y116000D03*
Y1192000D03*
X1767000Y116000D03*
Y1192000D03*
X1776000Y116000D03*
Y1192000D03*
G54D12*
X321000Y261000D03*
Y301000D03*
Y807000D03*
Y847000D03*
X431000Y521000D03*
Y561000D03*
Y1067000D03*
Y1107000D03*
X471000Y261000D03*
Y301000D03*
Y807000D03*
Y847000D03*
X541000Y261000D03*
Y301000D03*
Y807000D03*
Y847000D03*
X581000Y521000D03*
Y561000D03*
Y1067000D03*
Y1107000D03*
X691000Y261000D03*
Y301000D03*
Y807000D03*
Y847000D03*
X1117000Y261000D03*
Y301000D03*
Y807000D03*
Y847000D03*
X1227000Y521000D03*
Y561000D03*
Y1067000D03*
Y1107000D03*
X1267000Y261000D03*
Y301000D03*
Y807000D03*
Y847000D03*
X1337000Y261000D03*
Y301000D03*
Y807000D03*
Y847000D03*
X1377000Y521000D03*
Y561000D03*
Y1067000D03*
Y1107000D03*
X1487000Y261000D03*
Y301000D03*
Y807000D03*
Y847000D03*
G54D13*
X328500Y261000D03*
Y301000D03*
Y807000D03*
Y847000D03*
X333500Y261000D03*
Y301000D03*
Y807000D03*
Y847000D03*
X338500Y261000D03*
Y301000D03*
Y807000D03*
Y847000D03*
X343500Y261000D03*
Y301000D03*
Y807000D03*
Y847000D03*
X348500Y261000D03*
Y301000D03*
Y807000D03*
Y847000D03*
X353500Y261000D03*
Y301000D03*
Y807000D03*
Y847000D03*
X358500Y261000D03*
Y301000D03*
Y807000D03*
Y847000D03*
X363500Y261000D03*
Y301000D03*
Y807000D03*
Y847000D03*
X368500Y261000D03*
Y301000D03*
Y807000D03*
Y847000D03*
X373500Y261000D03*
Y301000D03*
Y807000D03*
Y847000D03*
X378500Y261000D03*
Y301000D03*
Y807000D03*
Y847000D03*
X383500Y261000D03*
Y301000D03*
Y807000D03*
Y847000D03*
X388500Y261000D03*
Y301000D03*
Y807000D03*
Y847000D03*
X393500Y261000D03*
Y301000D03*
Y807000D03*
Y847000D03*
X398500Y261000D03*
Y301000D03*
Y807000D03*
Y847000D03*
X403500Y261000D03*
Y301000D03*
Y807000D03*
Y847000D03*
X408500Y261000D03*
Y301000D03*
Y807000D03*
Y847000D03*
X413500Y261000D03*
Y301000D03*
Y807000D03*
Y847000D03*
X418500Y261000D03*
Y301000D03*
Y807000D03*
Y847000D03*
X423500Y261000D03*
Y301000D03*
Y807000D03*
Y847000D03*
X428500Y261000D03*
Y301000D03*
Y807000D03*
Y847000D03*
X433500Y261000D03*
Y301000D03*
Y807000D03*
Y847000D03*
X438500Y261000D03*
Y301000D03*
Y521000D03*
Y561000D03*
Y807000D03*
Y847000D03*
Y1067000D03*
Y1107000D03*
X443500Y261000D03*
Y301000D03*
Y521000D03*
Y561000D03*
Y807000D03*
Y847000D03*
Y1067000D03*
Y1107000D03*
X448500Y261000D03*
Y301000D03*
Y521000D03*
Y561000D03*
Y807000D03*
Y847000D03*
Y1067000D03*
Y1107000D03*
X453500Y261000D03*
Y301000D03*
Y521000D03*
Y561000D03*
Y807000D03*
Y847000D03*
Y1067000D03*
Y1107000D03*
X458500Y261000D03*
Y301000D03*
Y521000D03*
Y561000D03*
Y807000D03*
Y847000D03*
Y1067000D03*
Y1107000D03*
X463500Y261000D03*
Y301000D03*
Y521000D03*
Y561000D03*
Y807000D03*
Y847000D03*
Y1067000D03*
Y1107000D03*
X468500Y521000D03*
Y561000D03*
Y1067000D03*
Y1107000D03*
X473500Y521000D03*
Y561000D03*
Y1067000D03*
Y1107000D03*
X478500Y521000D03*
Y561000D03*
Y1067000D03*
Y1107000D03*
X483500Y521000D03*
Y561000D03*
Y1067000D03*
Y1107000D03*
X488500Y521000D03*
Y561000D03*
Y1067000D03*
Y1107000D03*
X493500Y521000D03*
Y561000D03*
Y1067000D03*
Y1107000D03*
X498500Y521000D03*
Y561000D03*
Y1067000D03*
Y1107000D03*
X503500Y521000D03*
Y561000D03*
Y1067000D03*
Y1107000D03*
X508500Y521000D03*
Y561000D03*
Y1067000D03*
Y1107000D03*
X513500Y521000D03*
Y561000D03*
Y1067000D03*
Y1107000D03*
X518500Y521000D03*
Y561000D03*
Y1067000D03*
Y1107000D03*
X523500Y521000D03*
Y561000D03*
Y1067000D03*
Y1107000D03*
X528500Y521000D03*
Y561000D03*
Y1067000D03*
Y1107000D03*
X533500Y521000D03*
Y561000D03*
Y1067000D03*
Y1107000D03*
X538500Y521000D03*
Y561000D03*
Y1067000D03*
Y1107000D03*
X543500Y521000D03*
Y561000D03*
Y1067000D03*
Y1107000D03*
X548500Y261000D03*
Y301000D03*
Y521000D03*
Y561000D03*
Y807000D03*
Y847000D03*
Y1067000D03*
Y1107000D03*
X553500Y261000D03*
Y301000D03*
Y521000D03*
Y561000D03*
Y807000D03*
Y847000D03*
Y1067000D03*
Y1107000D03*
X558500Y261000D03*
Y301000D03*
Y521000D03*
Y561000D03*
Y807000D03*
Y847000D03*
Y1067000D03*
Y1107000D03*
X563500Y261000D03*
Y301000D03*
Y521000D03*
Y561000D03*
Y807000D03*
Y847000D03*
Y1067000D03*
Y1107000D03*
X568500Y261000D03*
Y301000D03*
Y521000D03*
Y561000D03*
Y807000D03*
Y847000D03*
Y1067000D03*
Y1107000D03*
X573500Y261000D03*
Y301000D03*
Y521000D03*
Y561000D03*
Y807000D03*
Y847000D03*
Y1067000D03*
Y1107000D03*
X578500Y261000D03*
Y301000D03*
Y807000D03*
Y847000D03*
X583500Y261000D03*
Y301000D03*
Y807000D03*
Y847000D03*
X588500Y261000D03*
Y301000D03*
Y807000D03*
Y847000D03*
X593500Y261000D03*
Y301000D03*
Y807000D03*
Y847000D03*
X598500Y261000D03*
Y301000D03*
Y807000D03*
Y847000D03*
X603500Y261000D03*
Y301000D03*
Y807000D03*
Y847000D03*
X608500Y261000D03*
Y301000D03*
Y807000D03*
Y847000D03*
X613500Y261000D03*
Y301000D03*
Y807000D03*
Y847000D03*
X618500Y261000D03*
Y301000D03*
Y807000D03*
Y847000D03*
X623500Y261000D03*
Y301000D03*
Y807000D03*
Y847000D03*
X628500Y261000D03*
Y301000D03*
Y807000D03*
Y847000D03*
X633500Y261000D03*
Y301000D03*
Y807000D03*
Y847000D03*
X638500Y261000D03*
Y301000D03*
Y807000D03*
Y847000D03*
X643500Y261000D03*
Y301000D03*
Y807000D03*
Y847000D03*
X648500Y261000D03*
Y301000D03*
Y807000D03*
Y847000D03*
X653500Y261000D03*
Y301000D03*
Y807000D03*
Y847000D03*
X658500Y261000D03*
Y301000D03*
Y807000D03*
Y847000D03*
X663500Y261000D03*
Y301000D03*
Y807000D03*
Y847000D03*
X668500Y261000D03*
Y301000D03*
Y807000D03*
Y847000D03*
X673500Y261000D03*
Y301000D03*
Y807000D03*
Y847000D03*
X678500Y261000D03*
Y301000D03*
Y807000D03*
Y847000D03*
X683500Y261000D03*
Y301000D03*
Y807000D03*
Y847000D03*
X1124500Y261000D03*
Y301000D03*
Y807000D03*
Y847000D03*
X1129500Y261000D03*
Y301000D03*
Y807000D03*
Y847000D03*
X1134500Y261000D03*
Y301000D03*
Y807000D03*
Y847000D03*
X1139500Y261000D03*
Y301000D03*
Y807000D03*
Y847000D03*
X1144500Y261000D03*
Y301000D03*
Y807000D03*
Y847000D03*
X1149500Y261000D03*
Y301000D03*
Y807000D03*
Y847000D03*
X1154500Y261000D03*
Y301000D03*
Y807000D03*
Y847000D03*
X1159500Y261000D03*
Y301000D03*
Y807000D03*
Y847000D03*
X1164500Y261000D03*
Y301000D03*
Y807000D03*
Y847000D03*
X1169500Y261000D03*
Y301000D03*
Y807000D03*
Y847000D03*
X1174500Y261000D03*
Y301000D03*
Y807000D03*
Y847000D03*
X1179500Y261000D03*
Y301000D03*
Y807000D03*
Y847000D03*
X1184500Y261000D03*
Y301000D03*
Y807000D03*
Y847000D03*
X1189500Y261000D03*
Y301000D03*
Y807000D03*
Y847000D03*
X1194500Y261000D03*
Y301000D03*
Y807000D03*
Y847000D03*
X1199500Y261000D03*
Y301000D03*
Y807000D03*
Y847000D03*
X1204500Y261000D03*
Y301000D03*
Y807000D03*
Y847000D03*
X1209500Y261000D03*
Y301000D03*
Y807000D03*
Y847000D03*
X1214500Y261000D03*
Y301000D03*
Y807000D03*
Y847000D03*
X1219500Y261000D03*
Y301000D03*
Y807000D03*
Y847000D03*
X1224500Y261000D03*
Y301000D03*
Y807000D03*
Y847000D03*
X1229500Y261000D03*
Y301000D03*
Y807000D03*
Y847000D03*
X1234500Y261000D03*
Y301000D03*
Y521000D03*
Y561000D03*
Y807000D03*
Y847000D03*
Y1067000D03*
Y1107000D03*
X1239500Y261000D03*
Y301000D03*
Y521000D03*
Y561000D03*
Y807000D03*
Y847000D03*
Y1067000D03*
Y1107000D03*
X1244500Y261000D03*
Y301000D03*
Y521000D03*
Y561000D03*
Y807000D03*
Y847000D03*
Y1067000D03*
Y1107000D03*
X1249500Y261000D03*
Y301000D03*
Y521000D03*
Y561000D03*
Y807000D03*
Y847000D03*
Y1067000D03*
Y1107000D03*
X1254500Y261000D03*
Y301000D03*
Y521000D03*
Y561000D03*
Y807000D03*
Y847000D03*
Y1067000D03*
Y1107000D03*
X1259500Y261000D03*
Y301000D03*
Y521000D03*
Y561000D03*
Y807000D03*
Y847000D03*
Y1067000D03*
Y1107000D03*
X1264500Y521000D03*
Y561000D03*
Y1067000D03*
Y1107000D03*
X1269500Y521000D03*
Y561000D03*
Y1067000D03*
Y1107000D03*
X1274500Y521000D03*
Y561000D03*
Y1067000D03*
Y1107000D03*
X1279500Y521000D03*
Y561000D03*
Y1067000D03*
Y1107000D03*
X1284500Y521000D03*
Y561000D03*
Y1067000D03*
Y1107000D03*
X1289500Y521000D03*
Y561000D03*
Y1067000D03*
Y1107000D03*
X1294500Y521000D03*
Y561000D03*
Y1067000D03*
Y1107000D03*
X1299500Y521000D03*
Y561000D03*
Y1067000D03*
Y1107000D03*
X1304500Y521000D03*
Y561000D03*
Y1067000D03*
Y1107000D03*
X1309500Y521000D03*
Y561000D03*
Y1067000D03*
Y1107000D03*
X1314500Y521000D03*
Y561000D03*
Y1067000D03*
Y1107000D03*
X1319500Y521000D03*
Y561000D03*
Y1067000D03*
Y1107000D03*
X1324500Y521000D03*
Y561000D03*
Y1067000D03*
Y1107000D03*
X1329500Y521000D03*
Y561000D03*
Y1067000D03*
Y1107000D03*
X1334500Y521000D03*
Y561000D03*
Y1067000D03*
Y1107000D03*
X1339500Y521000D03*
Y561000D03*
Y1067000D03*
Y1107000D03*
X1344500Y261000D03*
Y301000D03*
Y521000D03*
Y561000D03*
Y807000D03*
Y847000D03*
Y1067000D03*
Y1107000D03*
X1349500Y261000D03*
Y301000D03*
Y521000D03*
Y561000D03*
Y807000D03*
Y847000D03*
Y1067000D03*
Y1107000D03*
X1354500Y261000D03*
Y301000D03*
Y521000D03*
Y561000D03*
Y807000D03*
Y847000D03*
Y1067000D03*
Y1107000D03*
X1359500Y261000D03*
Y301000D03*
Y521000D03*
Y561000D03*
Y807000D03*
Y847000D03*
Y1067000D03*
Y1107000D03*
X1364500Y261000D03*
Y301000D03*
Y521000D03*
Y561000D03*
Y807000D03*
Y847000D03*
Y1067000D03*
Y1107000D03*
X1369500Y261000D03*
Y301000D03*
Y521000D03*
Y561000D03*
Y807000D03*
Y847000D03*
Y1067000D03*
Y1107000D03*
X1374500Y261000D03*
Y301000D03*
Y807000D03*
Y847000D03*
X1379500Y261000D03*
Y301000D03*
Y807000D03*
Y847000D03*
X1384500Y261000D03*
Y301000D03*
Y807000D03*
Y847000D03*
X1389500Y261000D03*
Y301000D03*
Y807000D03*
Y847000D03*
X1394500Y261000D03*
Y301000D03*
Y807000D03*
Y847000D03*
X1399500Y261000D03*
Y301000D03*
Y807000D03*
Y847000D03*
X1404500Y261000D03*
Y301000D03*
Y807000D03*
Y847000D03*
X1409500Y261000D03*
Y301000D03*
Y807000D03*
Y847000D03*
X1414500Y261000D03*
Y301000D03*
Y807000D03*
Y847000D03*
X1419500Y261000D03*
Y301000D03*
Y807000D03*
Y847000D03*
X1424500Y261000D03*
Y301000D03*
Y807000D03*
Y847000D03*
X1429500Y261000D03*
Y301000D03*
Y807000D03*
Y847000D03*
X1434500Y261000D03*
Y301000D03*
Y807000D03*
Y847000D03*
X1439500Y261000D03*
Y301000D03*
Y807000D03*
Y847000D03*
X1444500Y261000D03*
Y301000D03*
Y807000D03*
Y847000D03*
X1449500Y261000D03*
Y301000D03*
Y807000D03*
Y847000D03*
X1454500Y261000D03*
Y301000D03*
Y807000D03*
Y847000D03*
X1459500Y261000D03*
Y301000D03*
Y807000D03*
Y847000D03*
X1464500Y261000D03*
Y301000D03*
Y807000D03*
Y847000D03*
X1469500Y261000D03*
Y301000D03*
Y807000D03*
Y847000D03*
X1474500Y261000D03*
Y301000D03*
Y807000D03*
Y847000D03*
X1479500Y261000D03*
Y301000D03*
Y807000D03*
Y847000D03*
G54D14*
X506000Y211000D03*
Y466000D03*
Y757000D03*
Y1012000D03*
X616000Y167300D03*
Y394700D03*
Y713300D03*
Y940700D03*
X1302000Y211000D03*
Y466000D03*
Y757000D03*
Y1012000D03*
X1412000Y167300D03*
Y394700D03*
Y713300D03*
Y940700D03*
G54D15*
X723250Y389000D03*
Y448000D03*
Y935000D03*
Y994000D03*
X729750Y389000D03*
Y448000D03*
Y935000D03*
Y994000D03*
X736250Y389000D03*
Y448000D03*
Y935000D03*
Y994000D03*
X742750Y389000D03*
Y448000D03*
Y935000D03*
Y994000D03*
X749250Y389000D03*
Y448000D03*
Y935000D03*
Y994000D03*
X755750Y389000D03*
Y448000D03*
Y935000D03*
Y994000D03*
X759750Y206500D03*
Y265500D03*
Y299000D03*
Y358000D03*
Y752500D03*
Y811500D03*
Y845000D03*
Y904000D03*
X762250Y389000D03*
Y448000D03*
Y935000D03*
Y994000D03*
X766250Y206500D03*
Y265500D03*
Y299000D03*
Y358000D03*
Y752500D03*
Y811500D03*
Y845000D03*
Y904000D03*
X768750Y389000D03*
Y448000D03*
Y935000D03*
Y994000D03*
X772750Y206500D03*
Y265500D03*
Y299000D03*
Y358000D03*
Y752500D03*
Y811500D03*
Y845000D03*
Y904000D03*
X779250Y206500D03*
Y265500D03*
Y299000D03*
Y358000D03*
Y752500D03*
Y811500D03*
Y845000D03*
Y904000D03*
X785750Y206500D03*
Y265500D03*
Y299000D03*
Y358000D03*
Y752500D03*
Y811500D03*
Y845000D03*
Y904000D03*
X792250Y206500D03*
Y265500D03*
Y299000D03*
Y358000D03*
Y752500D03*
Y811500D03*
Y845000D03*
Y904000D03*
X798750Y206500D03*
Y265500D03*
Y299000D03*
Y358000D03*
Y752500D03*
Y811500D03*
Y845000D03*
Y904000D03*
X805250Y206500D03*
Y265500D03*
Y299000D03*
Y358000D03*
Y752500D03*
Y811500D03*
Y845000D03*
Y904000D03*
X823250Y389000D03*
Y448000D03*
Y935000D03*
Y994000D03*
X829750Y389000D03*
Y448000D03*
Y935000D03*
Y994000D03*
X836250Y389000D03*
Y448000D03*
Y935000D03*
Y994000D03*
X842750Y389000D03*
Y448000D03*
Y935000D03*
Y994000D03*
X849250Y389000D03*
Y448000D03*
Y935000D03*
Y994000D03*
X855750Y389000D03*
Y448000D03*
Y935000D03*
Y994000D03*
X862250Y389000D03*
Y448000D03*
Y935000D03*
Y994000D03*
X868750Y389000D03*
Y448000D03*
Y935000D03*
Y994000D03*
X1519250Y389000D03*
Y448000D03*
Y935000D03*
Y994000D03*
X1525750Y389000D03*
Y448000D03*
Y935000D03*
Y994000D03*
X1532250Y389000D03*
Y448000D03*
Y935000D03*
Y994000D03*
X1538750Y389000D03*
Y448000D03*
Y935000D03*
Y994000D03*
X1545250Y389000D03*
Y448000D03*
Y935000D03*
Y994000D03*
X1551750Y389000D03*
Y448000D03*
Y935000D03*
Y994000D03*
X1555750Y206500D03*
Y265500D03*
Y299000D03*
Y358000D03*
Y752500D03*
Y811500D03*
Y845000D03*
Y904000D03*
X1558250Y389000D03*
Y448000D03*
Y935000D03*
Y994000D03*
X1562250Y206500D03*
Y265500D03*
Y299000D03*
Y358000D03*
Y752500D03*
Y811500D03*
Y845000D03*
Y904000D03*
X1564750Y389000D03*
Y448000D03*
Y935000D03*
Y994000D03*
X1568750Y206500D03*
Y265500D03*
Y299000D03*
Y358000D03*
Y752500D03*
Y811500D03*
Y845000D03*
Y904000D03*
X1575250Y206500D03*
Y265500D03*
Y299000D03*
Y358000D03*
Y752500D03*
Y811500D03*
Y845000D03*
Y904000D03*
X1581750Y206500D03*
Y265500D03*
Y299000D03*
Y358000D03*
Y752500D03*
Y811500D03*
Y845000D03*
Y904000D03*
X1588250Y206500D03*
Y265500D03*
Y299000D03*
Y358000D03*
Y752500D03*
Y811500D03*
Y845000D03*
Y904000D03*
X1594750Y206500D03*
Y265500D03*
Y299000D03*
Y358000D03*
Y752500D03*
Y811500D03*
Y845000D03*
Y904000D03*
X1601250Y206500D03*
Y265500D03*
Y299000D03*
Y358000D03*
Y752500D03*
Y811500D03*
Y845000D03*
Y904000D03*
X1619250Y389000D03*
Y448000D03*
Y935000D03*
Y994000D03*
X1625750Y389000D03*
Y448000D03*
Y935000D03*
Y994000D03*
X1632250Y389000D03*
Y448000D03*
Y935000D03*
Y994000D03*
X1638750Y389000D03*
Y448000D03*
Y935000D03*
Y994000D03*
X1645250Y389000D03*
Y448000D03*
Y935000D03*
Y994000D03*
X1651750Y389000D03*
Y448000D03*
Y935000D03*
Y994000D03*
X1658250Y389000D03*
Y448000D03*
Y935000D03*
Y994000D03*
X1664750Y389000D03*
Y448000D03*
Y935000D03*
Y994000D03*
G54D16*
X607500Y221000D03*
Y341000D03*
Y767000D03*
Y887000D03*
X1403500Y221000D03*
Y341000D03*
Y767000D03*
Y887000D03*
G54D17*
X627000Y206250D03*
Y355750D03*
Y752250D03*
Y901750D03*
X1423000Y206250D03*
Y355750D03*
Y752250D03*
Y901750D03*
M02*
