*
G04 Job   : C:\Users\MartinJohansson\OneDrive - E-Sharp AB\DesignLabs\PLM\Projects\ELECTRONICS\Sparrow_Fixture_Electronics\Sparrow_NTop_R3\PCB\Panel\sparrow_n-top\sparrow_n-top.pnl*
G04 User  : ESHARP-MARTIN:MartinJohansson*
G04 Layer : Pastebottom.gbp*
G04 Date  : Fri Dec 12 09:36:39 2025*
G04 Solderpaste bottom*
%ICAS*%
%MOMM*%
%FSLAX24Y24*%
%OFA0.0000B0.0000*%
G90*
G74*
%AMVB_RECTANGLE*
21,1,$1,$2,0,0,$3*
%
%ADD11VB_RECTANGLE,0.23000X1.50000X180.00000*%
%ADD10VB_RECTANGLE,0.35000X1.50000X180.00000*%
%ADD12VB_RECTANGLE,0.40000X1.50000X0.00000*%
G01*
G36*
X475101Y213500D02*
G02X503500Y241899I30899J2500D01*
G01Y232102*
G03X484898Y213500I2500J21102*
G01X475101*
Y468500D02*
G02X503500Y496899I30899J2500D01*
G01Y487102*
G03X484898Y468500I2500J21102*
G01X475101*
Y759500D02*
G02X503500Y787899I30899J2500D01*
G01Y778102*
G03X484898Y759500I2500J21102*
G01X475101*
Y1014500D02*
G02X503500Y1042899I30899J2500D01*
G01Y1033102*
G03X484898Y1014500I2500J21102*
G01X475101*
X484898Y208500D02*
G03X503500Y189898I21102J2500D01*
G01Y180101*
G02X475101Y208500I2500J30899*
G01X484898*
Y463500D02*
G03X503500Y444898I21102J2500D01*
G01Y435101*
G02X475101Y463500I2500J30899*
G01X484898*
Y754500D02*
G03X503500Y735898I21102J2500D01*
G01Y726101*
G02X475101Y754500I2500J30899*
G01X484898*
Y1009500D02*
G03X503500Y990898I21102J2500D01*
G01Y981101*
G02X475101Y1009500I2500J30899*
G01X484898*
X508500Y189898D02*
G03X527102Y208500I2500J21102D01*
G01X536899*
G02X508500Y180101I30899J2500*
G01Y189898*
Y241899D02*
G02X536899Y213500I2500J30899D01*
G01X527102*
G03X508500Y232102I21102J2500*
G01Y241899*
Y444898D02*
G03X527102Y463500I2500J21102D01*
G01X536899*
G02X508500Y435101I30899J2500*
G01Y444898*
Y496899D02*
G02X536899Y468500I2500J30899D01*
G01X527102*
G03X508500Y487102I21102J2500*
G01Y496899*
Y735898D02*
G03X527102Y754500I2500J21102D01*
G01X536899*
G02X508500Y726101I30899J2500*
G01Y735898*
Y787899D02*
G02X536899Y759500I2500J30899D01*
G01X527102*
G03X508500Y778102I21102J2500*
G01Y787899*
Y990898D02*
G03X527102Y1009500I2500J21102D01*
G01X536899*
G02X508500Y981101I30899J2500*
G01Y990898*
Y1042899D02*
G02X536899Y1014500I2500J30899D01*
G01X527102*
G03X508500Y1033102I21102J2500*
G01Y1042899*
X1271101Y213500D02*
G02X1299500Y241899I30899J2500D01*
G01Y232102*
G03X1280898Y213500I2500J21102*
G01X1271101*
Y468500D02*
G02X1299500Y496899I30899J2500D01*
G01Y487102*
G03X1280898Y468500I2500J21102*
G01X1271101*
Y759500D02*
G02X1299500Y787899I30899J2500D01*
G01Y778102*
G03X1280898Y759500I2500J21102*
G01X1271101*
Y1014500D02*
G02X1299500Y1042899I30899J2500D01*
G01Y1033102*
G03X1280898Y1014500I2500J21102*
G01X1271101*
X1280898Y208500D02*
G03X1299500Y189898I21102J2500D01*
G01Y180101*
G02X1271101Y208500I2500J30899*
G01X1280898*
Y463500D02*
G03X1299500Y444898I21102J2500D01*
G01Y435101*
G02X1271101Y463500I2500J30899*
G01X1280898*
Y754500D02*
G03X1299500Y735898I21102J2500D01*
G01Y726101*
G02X1271101Y754500I2500J30899*
G01X1280898*
Y1009500D02*
G03X1299500Y990898I21102J2500D01*
G01Y981101*
G02X1271101Y1009500I2500J30899*
G01X1280898*
X1304500Y189898D02*
G03X1323102Y208500I2500J21102D01*
G01X1332899*
G02X1304500Y180101I30899J2500*
G01Y189898*
Y241899D02*
G02X1332899Y213500I2500J30899D01*
G01X1323102*
G03X1304500Y232102I21102J2500*
G01Y241899*
Y444898D02*
G03X1323102Y463500I2500J21102D01*
G01X1332899*
G02X1304500Y435101I30899J2500*
G01Y444898*
Y496899D02*
G02X1332899Y468500I2500J30899D01*
G01X1323102*
G03X1304500Y487102I21102J2500*
G01Y496899*
Y735898D02*
G03X1323102Y754500I2500J21102D01*
G01X1332899*
G02X1304500Y726101I30899J2500*
G01Y735898*
Y787899D02*
G02X1332899Y759500I2500J30899D01*
G01X1323102*
G03X1304500Y778102I21102J2500*
G01Y787899*
Y990898D02*
G03X1323102Y1009500I2500J21102D01*
G01X1332899*
G02X1304500Y981101I30899J2500*
G01Y990898*
Y1042899D02*
G02X1332899Y1014500I2500J30899D01*
G01X1323102*
G03X1304500Y1033102I21102J2500*
G01Y1042899*
G37*
G54D10*
X322900Y258500D03*
Y303500D03*
Y804500D03*
Y849500D03*
X432900Y518500D03*
Y563500D03*
Y1064500D03*
Y1109500D03*
X469100Y258500D03*
Y303500D03*
Y804500D03*
Y849500D03*
X542900Y258500D03*
Y303500D03*
Y804500D03*
Y849500D03*
X579100Y518500D03*
Y563500D03*
Y1064500D03*
Y1109500D03*
X689100Y258500D03*
Y303500D03*
Y804500D03*
Y849500D03*
X1118900Y258500D03*
Y303500D03*
Y804500D03*
Y849500D03*
X1228900Y518500D03*
Y563500D03*
Y1064500D03*
Y1109500D03*
X1265100Y258500D03*
Y303500D03*
Y804500D03*
Y849500D03*
X1338900Y258500D03*
Y303500D03*
Y804500D03*
Y849500D03*
X1375100Y518500D03*
Y563500D03*
Y1064500D03*
Y1109500D03*
X1485100Y258500D03*
Y303500D03*
Y804500D03*
Y849500D03*
G54D11*
X328500Y258500D03*
Y303500D03*
Y804500D03*
Y849500D03*
X333500Y258500D03*
Y303500D03*
Y804500D03*
Y849500D03*
X338500Y258500D03*
Y303500D03*
Y804500D03*
Y849500D03*
X343500Y258500D03*
Y303500D03*
Y804500D03*
Y849500D03*
X348500Y258500D03*
Y303500D03*
Y804500D03*
Y849500D03*
X353500Y258500D03*
Y303500D03*
Y804500D03*
Y849500D03*
X358500Y258500D03*
Y303500D03*
Y804500D03*
Y849500D03*
X363500Y258500D03*
Y303500D03*
Y804500D03*
Y849500D03*
X368500Y258500D03*
Y303500D03*
Y804500D03*
Y849500D03*
X373500Y258500D03*
Y303500D03*
Y804500D03*
Y849500D03*
X378500Y258500D03*
Y303500D03*
Y804500D03*
Y849500D03*
X383500Y258500D03*
Y303500D03*
Y804500D03*
Y849500D03*
X388500Y258500D03*
Y303500D03*
Y804500D03*
Y849500D03*
X393500Y258500D03*
Y303500D03*
Y804500D03*
Y849500D03*
X398500Y258500D03*
Y303500D03*
Y804500D03*
Y849500D03*
X403500Y258500D03*
Y303500D03*
Y804500D03*
Y849500D03*
X408500Y258500D03*
Y303500D03*
Y804500D03*
Y849500D03*
X413500Y258500D03*
Y303500D03*
Y804500D03*
Y849500D03*
X418500Y258500D03*
Y303500D03*
Y804500D03*
Y849500D03*
X423500Y258500D03*
Y303500D03*
Y804500D03*
Y849500D03*
X428500Y258500D03*
Y303500D03*
Y804500D03*
Y849500D03*
X433500Y258500D03*
Y303500D03*
Y804500D03*
Y849500D03*
X438500Y258500D03*
Y303500D03*
Y518500D03*
Y563500D03*
Y804500D03*
Y849500D03*
Y1064500D03*
Y1109500D03*
X443500Y258500D03*
Y303500D03*
Y518500D03*
Y563500D03*
Y804500D03*
Y849500D03*
Y1064500D03*
Y1109500D03*
X448500Y258500D03*
Y303500D03*
Y518500D03*
Y563500D03*
Y804500D03*
Y849500D03*
Y1064500D03*
Y1109500D03*
X453500Y258500D03*
Y303500D03*
Y518500D03*
Y563500D03*
Y804500D03*
Y849500D03*
Y1064500D03*
Y1109500D03*
X458500Y258500D03*
Y303500D03*
Y518500D03*
Y563500D03*
Y804500D03*
Y849500D03*
Y1064500D03*
Y1109500D03*
X463500Y258500D03*
Y303500D03*
Y518500D03*
Y563500D03*
Y804500D03*
Y849500D03*
Y1064500D03*
Y1109500D03*
X468500Y518500D03*
Y563500D03*
Y1064500D03*
Y1109500D03*
X473500Y518500D03*
Y563500D03*
Y1064500D03*
Y1109500D03*
X478500Y518500D03*
Y563500D03*
Y1064500D03*
Y1109500D03*
X483500Y518500D03*
Y563500D03*
Y1064500D03*
Y1109500D03*
X488500Y518500D03*
Y563500D03*
Y1064500D03*
Y1109500D03*
X493500Y518500D03*
Y563500D03*
Y1064500D03*
Y1109500D03*
X498500Y518500D03*
Y563500D03*
Y1064500D03*
Y1109500D03*
X503500Y518500D03*
Y563500D03*
Y1064500D03*
Y1109500D03*
X508500Y518500D03*
Y563500D03*
Y1064500D03*
Y1109500D03*
X513500Y518500D03*
Y563500D03*
Y1064500D03*
Y1109500D03*
X518500Y518500D03*
Y563500D03*
Y1064500D03*
Y1109500D03*
X523500Y518500D03*
Y563500D03*
Y1064500D03*
Y1109500D03*
X528500Y518500D03*
Y563500D03*
Y1064500D03*
Y1109500D03*
X533500Y518500D03*
Y563500D03*
Y1064500D03*
Y1109500D03*
X538500Y518500D03*
Y563500D03*
Y1064500D03*
Y1109500D03*
X543500Y518500D03*
Y563500D03*
Y1064500D03*
Y1109500D03*
X548500Y258500D03*
Y303500D03*
Y518500D03*
Y563500D03*
Y804500D03*
Y849500D03*
Y1064500D03*
Y1109500D03*
X553500Y258500D03*
Y303500D03*
Y518500D03*
Y563500D03*
Y804500D03*
Y849500D03*
Y1064500D03*
Y1109500D03*
X558500Y258500D03*
Y303500D03*
Y518500D03*
Y563500D03*
Y804500D03*
Y849500D03*
Y1064500D03*
Y1109500D03*
X563500Y258500D03*
Y303500D03*
Y518500D03*
Y563500D03*
Y804500D03*
Y849500D03*
Y1064500D03*
Y1109500D03*
X568500Y258500D03*
Y303500D03*
Y518500D03*
Y563500D03*
Y804500D03*
Y849500D03*
Y1064500D03*
Y1109500D03*
X573500Y258500D03*
Y303500D03*
Y518500D03*
Y563500D03*
Y804500D03*
Y849500D03*
Y1064500D03*
Y1109500D03*
X578500Y258500D03*
Y303500D03*
Y804500D03*
Y849500D03*
X583500Y258500D03*
Y303500D03*
Y804500D03*
Y849500D03*
X588500Y258500D03*
Y303500D03*
Y804500D03*
Y849500D03*
X593500Y258500D03*
Y303500D03*
Y804500D03*
Y849500D03*
X598500Y258500D03*
Y303500D03*
Y804500D03*
Y849500D03*
X603500Y258500D03*
Y303500D03*
Y804500D03*
Y849500D03*
X608500Y258500D03*
Y303500D03*
Y804500D03*
Y849500D03*
X613500Y258500D03*
Y303500D03*
Y804500D03*
Y849500D03*
X618500Y258500D03*
Y303500D03*
Y804500D03*
Y849500D03*
X623500Y258500D03*
Y303500D03*
Y804500D03*
Y849500D03*
X628500Y258500D03*
Y303500D03*
Y804500D03*
Y849500D03*
X633500Y258500D03*
Y303500D03*
Y804500D03*
Y849500D03*
X638500Y258500D03*
Y303500D03*
Y804500D03*
Y849500D03*
X643500Y258500D03*
Y303500D03*
Y804500D03*
Y849500D03*
X648500Y258500D03*
Y303500D03*
Y804500D03*
Y849500D03*
X653500Y258500D03*
Y303500D03*
Y804500D03*
Y849500D03*
X658500Y258500D03*
Y303500D03*
Y804500D03*
Y849500D03*
X663500Y258500D03*
Y303500D03*
Y804500D03*
Y849500D03*
X668500Y258500D03*
Y303500D03*
Y804500D03*
Y849500D03*
X673500Y258500D03*
Y303500D03*
Y804500D03*
Y849500D03*
X678500Y258500D03*
Y303500D03*
Y804500D03*
Y849500D03*
X683500Y258500D03*
Y303500D03*
Y804500D03*
Y849500D03*
X1124500Y258500D03*
Y303500D03*
Y804500D03*
Y849500D03*
X1129500Y258500D03*
Y303500D03*
Y804500D03*
Y849500D03*
X1134500Y258500D03*
Y303500D03*
Y804500D03*
Y849500D03*
X1139500Y258500D03*
Y303500D03*
Y804500D03*
Y849500D03*
X1144500Y258500D03*
Y303500D03*
Y804500D03*
Y849500D03*
X1149500Y258500D03*
Y303500D03*
Y804500D03*
Y849500D03*
X1154500Y258500D03*
Y303500D03*
Y804500D03*
Y849500D03*
X1159500Y258500D03*
Y303500D03*
Y804500D03*
Y849500D03*
X1164500Y258500D03*
Y303500D03*
Y804500D03*
Y849500D03*
X1169500Y258500D03*
Y303500D03*
Y804500D03*
Y849500D03*
X1174500Y258500D03*
Y303500D03*
Y804500D03*
Y849500D03*
X1179500Y258500D03*
Y303500D03*
Y804500D03*
Y849500D03*
X1184500Y258500D03*
Y303500D03*
Y804500D03*
Y849500D03*
X1189500Y258500D03*
Y303500D03*
Y804500D03*
Y849500D03*
X1194500Y258500D03*
Y303500D03*
Y804500D03*
Y849500D03*
X1199500Y258500D03*
Y303500D03*
Y804500D03*
Y849500D03*
X1204500Y258500D03*
Y303500D03*
Y804500D03*
Y849500D03*
X1209500Y258500D03*
Y303500D03*
Y804500D03*
Y849500D03*
X1214500Y258500D03*
Y303500D03*
Y804500D03*
Y849500D03*
X1219500Y258500D03*
Y303500D03*
Y804500D03*
Y849500D03*
X1224500Y258500D03*
Y303500D03*
Y804500D03*
Y849500D03*
X1229500Y258500D03*
Y303500D03*
Y804500D03*
Y849500D03*
X1234500Y258500D03*
Y303500D03*
Y518500D03*
Y563500D03*
Y804500D03*
Y849500D03*
Y1064500D03*
Y1109500D03*
X1239500Y258500D03*
Y303500D03*
Y518500D03*
Y563500D03*
Y804500D03*
Y849500D03*
Y1064500D03*
Y1109500D03*
X1244500Y258500D03*
Y303500D03*
Y518500D03*
Y563500D03*
Y804500D03*
Y849500D03*
Y1064500D03*
Y1109500D03*
X1249500Y258500D03*
Y303500D03*
Y518500D03*
Y563500D03*
Y804500D03*
Y849500D03*
Y1064500D03*
Y1109500D03*
X1254500Y258500D03*
Y303500D03*
Y518500D03*
Y563500D03*
Y804500D03*
Y849500D03*
Y1064500D03*
Y1109500D03*
X1259500Y258500D03*
Y303500D03*
Y518500D03*
Y563500D03*
Y804500D03*
Y849500D03*
Y1064500D03*
Y1109500D03*
X1264500Y518500D03*
Y563500D03*
Y1064500D03*
Y1109500D03*
X1269500Y518500D03*
Y563500D03*
Y1064500D03*
Y1109500D03*
X1274500Y518500D03*
Y563500D03*
Y1064500D03*
Y1109500D03*
X1279500Y518500D03*
Y563500D03*
Y1064500D03*
Y1109500D03*
X1284500Y518500D03*
Y563500D03*
Y1064500D03*
Y1109500D03*
X1289500Y518500D03*
Y563500D03*
Y1064500D03*
Y1109500D03*
X1294500Y518500D03*
Y563500D03*
Y1064500D03*
Y1109500D03*
X1299500Y518500D03*
Y563500D03*
Y1064500D03*
Y1109500D03*
X1304500Y518500D03*
Y563500D03*
Y1064500D03*
Y1109500D03*
X1309500Y518500D03*
Y563500D03*
Y1064500D03*
Y1109500D03*
X1314500Y518500D03*
Y563500D03*
Y1064500D03*
Y1109500D03*
X1319500Y518500D03*
Y563500D03*
Y1064500D03*
Y1109500D03*
X1324500Y518500D03*
Y563500D03*
Y1064500D03*
Y1109500D03*
X1329500Y518500D03*
Y563500D03*
Y1064500D03*
Y1109500D03*
X1334500Y518500D03*
Y563500D03*
Y1064500D03*
Y1109500D03*
X1339500Y518500D03*
Y563500D03*
Y1064500D03*
Y1109500D03*
X1344500Y258500D03*
Y303500D03*
Y518500D03*
Y563500D03*
Y804500D03*
Y849500D03*
Y1064500D03*
Y1109500D03*
X1349500Y258500D03*
Y303500D03*
Y518500D03*
Y563500D03*
Y804500D03*
Y849500D03*
Y1064500D03*
Y1109500D03*
X1354500Y258500D03*
Y303500D03*
Y518500D03*
Y563500D03*
Y804500D03*
Y849500D03*
Y1064500D03*
Y1109500D03*
X1359500Y258500D03*
Y303500D03*
Y518500D03*
Y563500D03*
Y804500D03*
Y849500D03*
Y1064500D03*
Y1109500D03*
X1364500Y258500D03*
Y303500D03*
Y518500D03*
Y563500D03*
Y804500D03*
Y849500D03*
Y1064500D03*
Y1109500D03*
X1369500Y258500D03*
Y303500D03*
Y518500D03*
Y563500D03*
Y804500D03*
Y849500D03*
Y1064500D03*
Y1109500D03*
X1374500Y258500D03*
Y303500D03*
Y804500D03*
Y849500D03*
X1379500Y258500D03*
Y303500D03*
Y804500D03*
Y849500D03*
X1384500Y258500D03*
Y303500D03*
Y804500D03*
Y849500D03*
X1389500Y258500D03*
Y303500D03*
Y804500D03*
Y849500D03*
X1394500Y258500D03*
Y303500D03*
Y804500D03*
Y849500D03*
X1399500Y258500D03*
Y303500D03*
Y804500D03*
Y849500D03*
X1404500Y258500D03*
Y303500D03*
Y804500D03*
Y849500D03*
X1409500Y258500D03*
Y303500D03*
Y804500D03*
Y849500D03*
X1414500Y258500D03*
Y303500D03*
Y804500D03*
Y849500D03*
X1419500Y258500D03*
Y303500D03*
Y804500D03*
Y849500D03*
X1424500Y258500D03*
Y303500D03*
Y804500D03*
Y849500D03*
X1429500Y258500D03*
Y303500D03*
Y804500D03*
Y849500D03*
X1434500Y258500D03*
Y303500D03*
Y804500D03*
Y849500D03*
X1439500Y258500D03*
Y303500D03*
Y804500D03*
Y849500D03*
X1444500Y258500D03*
Y303500D03*
Y804500D03*
Y849500D03*
X1449500Y258500D03*
Y303500D03*
Y804500D03*
Y849500D03*
X1454500Y258500D03*
Y303500D03*
Y804500D03*
Y849500D03*
X1459500Y258500D03*
Y303500D03*
Y804500D03*
Y849500D03*
X1464500Y258500D03*
Y303500D03*
Y804500D03*
Y849500D03*
X1469500Y258500D03*
Y303500D03*
Y804500D03*
Y849500D03*
X1474500Y258500D03*
Y303500D03*
Y804500D03*
Y849500D03*
X1479500Y258500D03*
Y303500D03*
Y804500D03*
Y849500D03*
G54D12*
X723250Y389000D03*
Y448000D03*
Y935000D03*
Y994000D03*
X729750Y389000D03*
Y448000D03*
Y935000D03*
Y994000D03*
X736250Y389000D03*
Y448000D03*
Y935000D03*
Y994000D03*
X742750Y389000D03*
Y448000D03*
Y935000D03*
Y994000D03*
X749250Y389000D03*
Y448000D03*
Y935000D03*
Y994000D03*
X755750Y389000D03*
Y448000D03*
Y935000D03*
Y994000D03*
X759750Y206500D03*
Y265500D03*
Y299000D03*
Y358000D03*
Y752500D03*
Y811500D03*
Y845000D03*
Y904000D03*
X762250Y389000D03*
Y448000D03*
Y935000D03*
Y994000D03*
X766250Y206500D03*
Y265500D03*
Y299000D03*
Y358000D03*
Y752500D03*
Y811500D03*
Y845000D03*
Y904000D03*
X768750Y389000D03*
Y448000D03*
Y935000D03*
Y994000D03*
X772750Y206500D03*
Y265500D03*
Y299000D03*
Y358000D03*
Y752500D03*
Y811500D03*
Y845000D03*
Y904000D03*
X779250Y206500D03*
Y265500D03*
Y299000D03*
Y358000D03*
Y752500D03*
Y811500D03*
Y845000D03*
Y904000D03*
X785750Y206500D03*
Y265500D03*
Y299000D03*
Y358000D03*
Y752500D03*
Y811500D03*
Y845000D03*
Y904000D03*
X792250Y206500D03*
Y265500D03*
Y299000D03*
Y358000D03*
Y752500D03*
Y811500D03*
Y845000D03*
Y904000D03*
X798750Y206500D03*
Y265500D03*
Y299000D03*
Y358000D03*
Y752500D03*
Y811500D03*
Y845000D03*
Y904000D03*
X805250Y206500D03*
Y265500D03*
Y299000D03*
Y358000D03*
Y752500D03*
Y811500D03*
Y845000D03*
Y904000D03*
X823250Y389000D03*
Y448000D03*
Y935000D03*
Y994000D03*
X829750Y389000D03*
Y448000D03*
Y935000D03*
Y994000D03*
X836250Y389000D03*
Y448000D03*
Y935000D03*
Y994000D03*
X842750Y389000D03*
Y448000D03*
Y935000D03*
Y994000D03*
X849250Y389000D03*
Y448000D03*
Y935000D03*
Y994000D03*
X855750Y389000D03*
Y448000D03*
Y935000D03*
Y994000D03*
X862250Y389000D03*
Y448000D03*
Y935000D03*
Y994000D03*
X868750Y389000D03*
Y448000D03*
Y935000D03*
Y994000D03*
X1519250Y389000D03*
Y448000D03*
Y935000D03*
Y994000D03*
X1525750Y389000D03*
Y448000D03*
Y935000D03*
Y994000D03*
X1532250Y389000D03*
Y448000D03*
Y935000D03*
Y994000D03*
X1538750Y389000D03*
Y448000D03*
Y935000D03*
Y994000D03*
X1545250Y389000D03*
Y448000D03*
Y935000D03*
Y994000D03*
X1551750Y389000D03*
Y448000D03*
Y935000D03*
Y994000D03*
X1555750Y206500D03*
Y265500D03*
Y299000D03*
Y358000D03*
Y752500D03*
Y811500D03*
Y845000D03*
Y904000D03*
X1558250Y389000D03*
Y448000D03*
Y935000D03*
Y994000D03*
X1562250Y206500D03*
Y265500D03*
Y299000D03*
Y358000D03*
Y752500D03*
Y811500D03*
Y845000D03*
Y904000D03*
X1564750Y389000D03*
Y448000D03*
Y935000D03*
Y994000D03*
X1568750Y206500D03*
Y265500D03*
Y299000D03*
Y358000D03*
Y752500D03*
Y811500D03*
Y845000D03*
Y904000D03*
X1575250Y206500D03*
Y265500D03*
Y299000D03*
Y358000D03*
Y752500D03*
Y811500D03*
Y845000D03*
Y904000D03*
X1581750Y206500D03*
Y265500D03*
Y299000D03*
Y358000D03*
Y752500D03*
Y811500D03*
Y845000D03*
Y904000D03*
X1588250Y206500D03*
Y265500D03*
Y299000D03*
Y358000D03*
Y752500D03*
Y811500D03*
Y845000D03*
Y904000D03*
X1594750Y206500D03*
Y265500D03*
Y299000D03*
Y358000D03*
Y752500D03*
Y811500D03*
Y845000D03*
Y904000D03*
X1601250Y206500D03*
Y265500D03*
Y299000D03*
Y358000D03*
Y752500D03*
Y811500D03*
Y845000D03*
Y904000D03*
X1619250Y389000D03*
Y448000D03*
Y935000D03*
Y994000D03*
X1625750Y389000D03*
Y448000D03*
Y935000D03*
Y994000D03*
X1632250Y389000D03*
Y448000D03*
Y935000D03*
Y994000D03*
X1638750Y389000D03*
Y448000D03*
Y935000D03*
Y994000D03*
X1645250Y389000D03*
Y448000D03*
Y935000D03*
Y994000D03*
X1651750Y389000D03*
Y448000D03*
Y935000D03*
Y994000D03*
X1658250Y389000D03*
Y448000D03*
Y935000D03*
Y994000D03*
X1664750Y389000D03*
Y448000D03*
Y935000D03*
Y994000D03*
M02*
