*
G04 Job   : C:\Users\MartinJohansson\OneDrive - E-Sharp AB\DesignLabs\PLM\Projects\ELECTRONICS\Sparrow_Fixture_Electronics\Sparrow_NTop_R3\PCB\Panel\sparrow_n-top\sparrow_n-top.pnl*
G04 User  : ESHARP-MARTIN:MartinJohansson*
G04 Layer : Pastetop.gtp*
G04 Date  : Fri Dec 12 09:36:39 2025*
G04 Solderpaste top*
%ICAS*%
%MOMM*%
%FSLAX24Y24*%
%OFA0.0000B0.0000*%
G90*
G74*
%AMVB_RECTANGLE*
21,1,$1,$2,0,0,$3*
%
%AMVB_FINGER0*
$3=$1/2*
$4=$2/2*
$5=0-$4*
1,1,$2,$3-$4,0*
21,1,$1-$4,$2,$5/2,0,0*
%
%AMVB_FINGER90*
$3=$1/2*
$4=$2/2*
$5=0-$4*
1,1,$2,0,$3-$4*
21,1,$2,$1-$4,0,$5/2,0*
%
%AMVB_FINGER180*
$3=$1/2*
$4=$2/2*
1,1,$2,$4-$3,0*
21,1,$1-$4,$2,$4/2,0,0*
%
%AMVB_FINGER270*
$3=$1/2*
$4=$2/2*
1,1,$2,0,$4-$3*
21,1,$2,$1-$4,0,$4/2,0*
%
%ADD22C,2.00000*%
%ADD35VB_RECTANGLE,1.80000X1.80000X0.00000*%
%ADD28VB_RECTANGLE,0.25000X0.60000X180.00000*%
%ADD29VB_RECTANGLE,0.25000X0.60000X90.00000*%
%ADD37VB_RECTANGLE,0.25000X0.65000X90.00000*%
%ADD27VB_RECTANGLE,0.28000X0.72500X0.00000*%
%ADD26VB_RECTANGLE,0.28000X0.72500X90.00000*%
%ADD36VB_RECTANGLE,0.30000X1.50000X180.00000*%
%ADD21VB_RECTANGLE,0.30000X1.50000X270.00000*%
%ADD12VB_RECTANGLE,0.40000X0.60000X0.00000*%
%ADD10VB_RECTANGLE,0.40000X0.60000X270.00000*%
%ADD23VB_RECTANGLE,0.40000X1.50000X0.00000*%
%ADD70VB_RECTANGLE,0.60000X1.10000X90.00000*%
%ADD72VB_RECTANGLE,0.60000X1.20000X0.00000*%
%ADD42VB_RECTANGLE,0.60000X1.20000X270.00000*%
%ADD18VB_RECTANGLE,0.60000X1.55000X0.00000*%
%ADD11VB_RECTANGLE,0.62000X0.62000X0.00000*%
%ADD47VB_RECTANGLE,0.62000X0.62000X90.00000*%
%ADD17VB_RECTANGLE,0.63000X0.83000X90.00000*%
%ADD25VB_RECTANGLE,0.70000X0.90000X180.00000*%
%ADD24VB_RECTANGLE,0.85000X0.50000X180.00000*%
%ADD20VB_RECTANGLE,0.85000X0.50000X90.00000*%
%ADD14VB_RECTANGLE,0.95000X1.00000X0.00000*%
%ADD15VB_RECTANGLE,0.95000X1.00000X90.00000*%
%ADD73VB_RECTANGLE,1.00000X1.50000X270.00000*%
%ADD16VB_RECTANGLE,1.15000X1.45000X270.00000*%
%ADD71VB_RECTANGLE,1.50000X2.00000X0.00000*%
%ADD13VB_RECTANGLE,1.50000X2.00000X90.00000*%
%ADD19VB_RECTANGLE,2.00000X3.45000X0.00000*%
%ADD30VB_RECTANGLE,3.30000X1.50000X270.00000*%
%ADD32VB_FINGER0,0.80000X0.20000*%
%ADD33VB_FINGER90,0.80000X0.20000*%
%ADD34VB_FINGER180,0.80000X0.20000*%
%ADD31VB_FINGER270,0.80000X0.20000*%
%ADD39VB_FINGER0,0.85000X0.28000*%
%ADD41VB_FINGER90,0.85000X0.28000*%
%ADD38VB_FINGER180,0.85000X0.28000*%
%ADD40VB_FINGER270,0.85000X0.28000*%
%ADD44VB_FINGER0,0.85000X0.30000*%
%ADD45VB_FINGER90,0.85000X0.30000*%
%ADD46VB_FINGER180,0.85000X0.30000*%
%ADD43VB_FINGER270,0.85000X0.30000*%
G01*
G36*
X128000Y551000D02*
X148000D01*
Y586000*
X128000*
Y551000*
Y1097000D02*
X148000D01*
Y1132000*
X128000*
Y1097000*
X151250Y361750D02*
X162500D01*
Y370500*
X151250*
Y361750*
Y371500D02*
X162500D01*
Y380250*
X151250*
Y371500*
Y907750D02*
X162500D01*
Y916500*
X151250*
Y907750*
Y917500D02*
X162500D01*
Y926250*
X151250*
Y917500*
X154000Y551000D02*
X174000D01*
Y586000*
X154000*
Y551000*
Y1097000D02*
X174000D01*
Y1132000*
X154000*
Y1097000*
X163500Y361750D02*
X174750D01*
Y370500*
X163500*
Y361750*
Y371500D02*
X174750D01*
Y380250*
X163500*
Y371500*
Y907750D02*
X174750D01*
Y916500*
X163500*
Y907750*
Y917500D02*
X174750D01*
Y926250*
X163500*
Y917500*
X206250Y180000D02*
X213000D01*
Y189750*
X206250*
Y180000*
Y190750D02*
X213000D01*
Y200500*
X206250*
Y190750*
Y201500D02*
X213000D01*
Y211250*
X206250*
Y201500*
Y212250D02*
X213000D01*
Y222000*
X206250*
Y212250*
Y726000D02*
X213000D01*
Y735750*
X206250*
Y726000*
Y736750D02*
X213000D01*
Y746500*
X206250*
Y736750*
Y747500D02*
X213000D01*
Y757250*
X206250*
Y747500*
Y758250D02*
X213000D01*
Y768000*
X206250*
Y758250*
X214000Y180000D02*
X220750D01*
Y189750*
X214000*
Y180000*
Y190750D02*
X220750D01*
Y200500*
X214000*
Y190750*
Y201500D02*
X220750D01*
Y211250*
X214000*
Y201500*
Y212250D02*
X220750D01*
Y222000*
X214000*
Y212250*
Y726000D02*
X220750D01*
Y735750*
X214000*
Y726000*
Y736750D02*
X220750D01*
Y746500*
X214000*
Y736750*
Y747500D02*
X220750D01*
Y757250*
X214000*
Y747500*
Y758250D02*
X220750D01*
Y768000*
X214000*
Y758250*
X216750Y361750D02*
X228000D01*
Y370500*
X216750*
Y361750*
Y371500D02*
X228000D01*
Y380250*
X216750*
Y371500*
Y907750D02*
X228000D01*
Y916500*
X216750*
Y907750*
Y917500D02*
X228000D01*
Y926250*
X216750*
Y917500*
X229000Y361750D02*
X240250D01*
Y370500*
X229000*
Y361750*
Y371500D02*
X240250D01*
Y380250*
X229000*
Y371500*
Y907750D02*
X240250D01*
Y916500*
X229000*
Y907750*
Y917500D02*
X240250D01*
Y926250*
X229000*
Y917500*
X349250Y366750D02*
X360500D01*
Y378000*
X349250*
Y366750*
Y379000D02*
X360500D01*
Y390250*
X349250*
Y379000*
Y912750D02*
X360500D01*
Y924000*
X349250*
Y912750*
Y925000D02*
X360500D01*
Y936250*
X349250*
Y925000*
X361500Y366750D02*
X372750D01*
Y378000*
X361500*
Y366750*
Y379000D02*
X372750D01*
Y390250*
X361500*
Y379000*
Y912750D02*
X372750D01*
Y924000*
X361500*
Y912750*
Y925000D02*
X372750D01*
Y936250*
X361500*
Y925000*
X613500Y136401D02*
G02X585101Y164800I2500J30899D01*
G01X594898*
G03X613500Y146198I21102J2500*
G01Y136401*
Y188402D02*
G03X594898Y169800I2500J21102D01*
G01X585101*
G02X613500Y198199I30899J2500*
G01Y188402*
Y363801D02*
G02X585101Y392200I2500J30899D01*
G01X594898*
G03X613500Y373598I21102J2500*
G01Y363801*
Y415802D02*
G03X594898Y397200I2500J21102D01*
G01X585101*
G02X613500Y425599I30899J2500*
G01Y415802*
Y682401D02*
G02X585101Y710800I2500J30899D01*
G01X594898*
G03X613500Y692198I21102J2500*
G01Y682401*
Y734402D02*
G03X594898Y715800I2500J21102D01*
G01X585101*
G02X613500Y744199I30899J2500*
G01Y734402*
Y909801D02*
G02X585101Y938200I2500J30899D01*
G01X594898*
G03X613500Y919598I21102J2500*
G01Y909801*
Y961802D02*
G03X594898Y943200I2500J21102D01*
G01X585101*
G02X613500Y971599I30899J2500*
G01Y961802*
X646899Y164800D02*
G02X618500Y136401I30899J2500D01*
G01Y146198*
G03X637102Y164800I2500J21102*
G01X646899*
Y169800D02*
X637102D01*
G03X618500Y188402I21102J2500*
G01Y198199*
G02X646899Y169800I2500J30899*
G01Y392200D02*
G02X618500Y363801I30899J2500D01*
G01Y373598*
G03X637102Y392200I2500J21102*
G01X646899*
Y397200D02*
X637102D01*
G03X618500Y415802I21102J2500*
G01Y425599*
G02X646899Y397200I2500J30899*
G01Y710800D02*
G02X618500Y682401I30899J2500D01*
G01Y692198*
G03X637102Y710800I2500J21102*
G01X646899*
Y715800D02*
X637102D01*
G03X618500Y734402I21102J2500*
G01Y744199*
G02X646899Y715800I2500J30899*
G01Y938200D02*
G02X618500Y909801I30899J2500D01*
G01Y919598*
G03X637102Y938200I2500J21102*
G01X646899*
Y943200D02*
X637102D01*
G03X618500Y961802I21102J2500*
G01Y971599*
G02X646899Y943200I2500J30899*
G01X738500Y481000D02*
X745500D01*
Y488000*
X738500*
Y481000*
Y489000D02*
X745500D01*
Y496000*
X738500*
Y489000*
Y1027000D02*
X745500D01*
Y1034000*
X738500*
Y1027000*
Y1035000D02*
X745500D01*
Y1042000*
X738500*
Y1035000*
X746500Y481000D02*
X753500D01*
Y488000*
X746500*
Y481000*
Y489000D02*
X753500D01*
Y496000*
X746500*
Y489000*
Y1027000D02*
X753500D01*
Y1034000*
X746500*
Y1027000*
Y1035000D02*
X753500D01*
Y1042000*
X746500*
Y1035000*
X838500Y481000D02*
X845500D01*
Y488000*
X838500*
Y481000*
Y489000D02*
X845500D01*
Y496000*
X838500*
Y489000*
Y1027000D02*
X845500D01*
Y1034000*
X838500*
Y1027000*
Y1035000D02*
X845500D01*
Y1042000*
X838500*
Y1035000*
X846500Y481000D02*
X853500D01*
Y488000*
X846500*
Y481000*
Y489000D02*
X853500D01*
Y496000*
X846500*
Y489000*
Y1027000D02*
X853500D01*
Y1034000*
X846500*
Y1027000*
Y1035000D02*
X853500D01*
Y1042000*
X846500*
Y1035000*
X924000Y551000D02*
X944000D01*
Y586000*
X924000*
Y551000*
Y1097000D02*
X944000D01*
Y1132000*
X924000*
Y1097000*
X947250Y361750D02*
X958500D01*
Y370500*
X947250*
Y361750*
Y371500D02*
X958500D01*
Y380250*
X947250*
Y371500*
Y907750D02*
X958500D01*
Y916500*
X947250*
Y907750*
Y917500D02*
X958500D01*
Y926250*
X947250*
Y917500*
X950000Y551000D02*
X970000D01*
Y586000*
X950000*
Y551000*
Y1097000D02*
X970000D01*
Y1132000*
X950000*
Y1097000*
X959500Y361750D02*
X970750D01*
Y370500*
X959500*
Y361750*
Y371500D02*
X970750D01*
Y380250*
X959500*
Y371500*
Y907750D02*
X970750D01*
Y916500*
X959500*
Y907750*
Y917500D02*
X970750D01*
Y926250*
X959500*
Y917500*
X1002250Y180000D02*
X1009000D01*
Y189750*
X1002250*
Y180000*
Y190750D02*
X1009000D01*
Y200500*
X1002250*
Y190750*
Y201500D02*
X1009000D01*
Y211250*
X1002250*
Y201500*
Y212250D02*
X1009000D01*
Y222000*
X1002250*
Y212250*
Y726000D02*
X1009000D01*
Y735750*
X1002250*
Y726000*
Y736750D02*
X1009000D01*
Y746500*
X1002250*
Y736750*
Y747500D02*
X1009000D01*
Y757250*
X1002250*
Y747500*
Y758250D02*
X1009000D01*
Y768000*
X1002250*
Y758250*
X1010000Y180000D02*
X1016750D01*
Y189750*
X1010000*
Y180000*
Y190750D02*
X1016750D01*
Y200500*
X1010000*
Y190750*
Y201500D02*
X1016750D01*
Y211250*
X1010000*
Y201500*
Y212250D02*
X1016750D01*
Y222000*
X1010000*
Y212250*
Y726000D02*
X1016750D01*
Y735750*
X1010000*
Y726000*
Y736750D02*
X1016750D01*
Y746500*
X1010000*
Y736750*
Y747500D02*
X1016750D01*
Y757250*
X1010000*
Y747500*
Y758250D02*
X1016750D01*
Y768000*
X1010000*
Y758250*
X1012750Y361750D02*
X1024000D01*
Y370500*
X1012750*
Y361750*
Y371500D02*
X1024000D01*
Y380250*
X1012750*
Y371500*
Y907750D02*
X1024000D01*
Y916500*
X1012750*
Y907750*
Y917500D02*
X1024000D01*
Y926250*
X1012750*
Y917500*
X1025000Y361750D02*
X1036250D01*
Y370500*
X1025000*
Y361750*
Y371500D02*
X1036250D01*
Y380250*
X1025000*
Y371500*
Y907750D02*
X1036250D01*
Y916500*
X1025000*
Y907750*
Y917500D02*
X1036250D01*
Y926250*
X1025000*
Y917500*
X1145250Y366750D02*
X1156500D01*
Y378000*
X1145250*
Y366750*
Y379000D02*
X1156500D01*
Y390250*
X1145250*
Y379000*
Y912750D02*
X1156500D01*
Y924000*
X1145250*
Y912750*
Y925000D02*
X1156500D01*
Y936250*
X1145250*
Y925000*
X1157500Y366750D02*
X1168750D01*
Y378000*
X1157500*
Y366750*
Y379000D02*
X1168750D01*
Y390250*
X1157500*
Y379000*
Y912750D02*
X1168750D01*
Y924000*
X1157500*
Y912750*
Y925000D02*
X1168750D01*
Y936250*
X1157500*
Y925000*
X1409500Y136401D02*
G02X1381101Y164800I2500J30899D01*
G01X1390898*
G03X1409500Y146198I21102J2500*
G01Y136401*
Y188402D02*
G03X1390898Y169800I2500J21102D01*
G01X1381101*
G02X1409500Y198199I30899J2500*
G01Y188402*
Y363801D02*
G02X1381101Y392200I2500J30899D01*
G01X1390898*
G03X1409500Y373598I21102J2500*
G01Y363801*
Y415802D02*
G03X1390898Y397200I2500J21102D01*
G01X1381101*
G02X1409500Y425599I30899J2500*
G01Y415802*
Y682401D02*
G02X1381101Y710800I2500J30899D01*
G01X1390898*
G03X1409500Y692198I21102J2500*
G01Y682401*
Y734402D02*
G03X1390898Y715800I2500J21102D01*
G01X1381101*
G02X1409500Y744199I30899J2500*
G01Y734402*
Y909801D02*
G02X1381101Y938200I2500J30899D01*
G01X1390898*
G03X1409500Y919598I21102J2500*
G01Y909801*
Y961802D02*
G03X1390898Y943200I2500J21102D01*
G01X1381101*
G02X1409500Y971599I30899J2500*
G01Y961802*
X1442899Y164800D02*
G02X1414500Y136401I30899J2500D01*
G01Y146198*
G03X1433102Y164800I2500J21102*
G01X1442899*
Y169800D02*
X1433102D01*
G03X1414500Y188402I21102J2500*
G01Y198199*
G02X1442899Y169800I2500J30899*
G01Y392200D02*
G02X1414500Y363801I30899J2500D01*
G01Y373598*
G03X1433102Y392200I2500J21102*
G01X1442899*
Y397200D02*
X1433102D01*
G03X1414500Y415802I21102J2500*
G01Y425599*
G02X1442899Y397200I2500J30899*
G01Y710800D02*
G02X1414500Y682401I30899J2500D01*
G01Y692198*
G03X1433102Y710800I2500J21102*
G01X1442899*
Y715800D02*
X1433102D01*
G03X1414500Y734402I21102J2500*
G01Y744199*
G02X1442899Y715800I2500J30899*
G01Y938200D02*
G02X1414500Y909801I30899J2500D01*
G01Y919598*
G03X1433102Y938200I2500J21102*
G01X1442899*
Y943200D02*
X1433102D01*
G03X1414500Y961802I21102J2500*
G01Y971599*
G02X1442899Y943200I2500J30899*
G01X1534500Y481000D02*
X1541500D01*
Y488000*
X1534500*
Y481000*
Y489000D02*
X1541500D01*
Y496000*
X1534500*
Y489000*
Y1027000D02*
X1541500D01*
Y1034000*
X1534500*
Y1027000*
Y1035000D02*
X1541500D01*
Y1042000*
X1534500*
Y1035000*
X1542500Y481000D02*
X1549500D01*
Y488000*
X1542500*
Y481000*
Y489000D02*
X1549500D01*
Y496000*
X1542500*
Y489000*
Y1027000D02*
X1549500D01*
Y1034000*
X1542500*
Y1027000*
Y1035000D02*
X1549500D01*
Y1042000*
X1542500*
Y1035000*
X1634500Y481000D02*
X1641500D01*
Y488000*
X1634500*
Y481000*
Y489000D02*
X1641500D01*
Y496000*
X1634500*
Y489000*
Y1027000D02*
X1641500D01*
Y1034000*
X1634500*
Y1027000*
Y1035000D02*
X1641500D01*
Y1042000*
X1634500*
Y1035000*
X1642500Y481000D02*
X1649500D01*
Y488000*
X1642500*
Y481000*
Y489000D02*
X1649500D01*
Y496000*
X1642500*
Y489000*
Y1027000D02*
X1649500D01*
Y1034000*
X1642500*
Y1027000*
Y1035000D02*
X1649500D01*
Y1042000*
X1642500*
Y1035000*
G37*
G54D10*
X146000Y439000D03*
Y448000D03*
Y461500D03*
Y470500D03*
Y985000D03*
Y994000D03*
Y1007500D03*
Y1016500D03*
X148500Y399000D03*
Y408000D03*
Y945000D03*
Y954000D03*
X173500Y331500D03*
Y340500D03*
Y877500D03*
Y886500D03*
X183500Y334000D03*
Y343000D03*
Y546500D03*
Y555500D03*
Y880000D03*
Y889000D03*
Y1092500D03*
Y1101500D03*
X193500Y546500D03*
Y555500D03*
Y1092500D03*
Y1101500D03*
X223500Y324000D03*
Y333000D03*
Y870000D03*
Y879000D03*
X233500Y324000D03*
Y333000D03*
Y870000D03*
Y879000D03*
X258500Y524000D03*
Y533000D03*
Y549000D03*
Y558000D03*
Y581500D03*
Y590500D03*
Y1070000D03*
Y1079000D03*
Y1095000D03*
Y1104000D03*
Y1127500D03*
Y1136500D03*
X266000Y324000D03*
Y333000D03*
Y870000D03*
Y879000D03*
X318500Y614000D03*
Y623000D03*
Y1160000D03*
Y1169000D03*
X324500Y461500D03*
Y470500D03*
Y1007500D03*
Y1016500D03*
X331000Y574000D03*
Y583000D03*
Y1120000D03*
Y1129000D03*
X344000Y461500D03*
Y470500D03*
Y1007500D03*
Y1016500D03*
X346000Y574000D03*
Y583000D03*
Y1120000D03*
Y1129000D03*
X348500Y424000D03*
Y433000D03*
Y970000D03*
Y979000D03*
X356000Y469000D03*
Y478000D03*
Y1015000D03*
Y1024000D03*
X358500Y324000D03*
Y333000D03*
Y424000D03*
Y433000D03*
Y870000D03*
Y879000D03*
Y970000D03*
Y979000D03*
X368500Y424000D03*
Y433000D03*
Y970000D03*
Y979000D03*
X371000Y581500D03*
Y590500D03*
Y1127500D03*
Y1136500D03*
X426000Y496500D03*
Y505500D03*
Y514000D03*
Y523000D03*
Y534000D03*
Y543000D03*
Y551500D03*
Y560500D03*
Y1042500D03*
Y1051500D03*
Y1060000D03*
Y1069000D03*
Y1080000D03*
Y1089000D03*
Y1097500D03*
Y1106500D03*
X506000Y394000D03*
Y403000D03*
Y940000D03*
Y949000D03*
X541000Y329000D03*
Y338000D03*
Y875000D03*
Y884000D03*
X551000Y329000D03*
Y338000D03*
Y875000D03*
Y884000D03*
X556000Y394000D03*
Y403000D03*
Y940000D03*
Y949000D03*
X593500Y624000D03*
Y633000D03*
Y1170000D03*
Y1179000D03*
X601000Y446500D03*
Y455500D03*
Y992500D03*
Y1001500D03*
X606000Y624000D03*
Y633000D03*
Y1170000D03*
Y1179000D03*
X618500Y446500D03*
Y455500D03*
Y992500D03*
Y1001500D03*
X643500Y444000D03*
Y453000D03*
Y990000D03*
Y999000D03*
X651000Y326500D03*
Y335500D03*
Y872500D03*
Y881500D03*
X688500Y231500D03*
Y240500D03*
Y324000D03*
Y333000D03*
Y777500D03*
Y786500D03*
Y870000D03*
Y879000D03*
X718500Y231500D03*
Y240500D03*
Y324000D03*
Y333000D03*
Y777500D03*
Y786500D03*
Y870000D03*
Y879000D03*
X733500Y616500D03*
Y625500D03*
Y1162500D03*
Y1171500D03*
X736000Y591500D03*
Y600500D03*
Y1137500D03*
Y1146500D03*
X741000Y231500D03*
Y240500D03*
Y324000D03*
Y333000D03*
Y432900D03*
Y441900D03*
Y777500D03*
Y786500D03*
Y870000D03*
Y879000D03*
Y978900D03*
Y987900D03*
X746000Y571500D03*
Y580500D03*
Y1117500D03*
Y1126500D03*
X751000Y432900D03*
Y441900D03*
Y978900D03*
Y987900D03*
X756000Y571500D03*
Y580500D03*
Y1117500D03*
Y1126500D03*
X771000Y231500D03*
Y240500D03*
Y324000D03*
Y333000D03*
Y777500D03*
Y786500D03*
Y870000D03*
Y879000D03*
X793500Y231500D03*
Y240500D03*
Y324000D03*
Y333000D03*
Y777500D03*
Y786500D03*
Y870000D03*
Y879000D03*
X823500Y231500D03*
Y240500D03*
Y324000D03*
Y333000D03*
Y777500D03*
Y786500D03*
Y870000D03*
Y879000D03*
X836000Y571500D03*
Y580500D03*
Y1117500D03*
Y1126500D03*
X841000Y431500D03*
Y440500D03*
Y977500D03*
Y986500D03*
X846000Y231500D03*
Y240500D03*
Y324000D03*
Y333000D03*
Y571500D03*
Y580500D03*
Y777500D03*
Y786500D03*
Y870000D03*
Y879000D03*
Y1117500D03*
Y1126500D03*
X851000Y431500D03*
Y440500D03*
Y977500D03*
Y986500D03*
X876000Y231500D03*
Y240500D03*
Y324000D03*
Y333000D03*
Y777500D03*
Y786500D03*
Y870000D03*
Y879000D03*
X942000Y439000D03*
Y448000D03*
Y461500D03*
Y470500D03*
Y985000D03*
Y994000D03*
Y1007500D03*
Y1016500D03*
X944500Y399000D03*
Y408000D03*
Y945000D03*
Y954000D03*
X969500Y331500D03*
Y340500D03*
Y877500D03*
Y886500D03*
X979500Y334000D03*
Y343000D03*
Y546500D03*
Y555500D03*
Y880000D03*
Y889000D03*
Y1092500D03*
Y1101500D03*
X989500Y546500D03*
Y555500D03*
Y1092500D03*
Y1101500D03*
X1019500Y324000D03*
Y333000D03*
Y870000D03*
Y879000D03*
X1029500Y324000D03*
Y333000D03*
Y870000D03*
Y879000D03*
X1054500Y524000D03*
Y533000D03*
Y549000D03*
Y558000D03*
Y581500D03*
Y590500D03*
Y1070000D03*
Y1079000D03*
Y1095000D03*
Y1104000D03*
Y1127500D03*
Y1136500D03*
X1062000Y324000D03*
Y333000D03*
Y870000D03*
Y879000D03*
X1114500Y614000D03*
Y623000D03*
Y1160000D03*
Y1169000D03*
X1120500Y461500D03*
Y470500D03*
Y1007500D03*
Y1016500D03*
X1127000Y574000D03*
Y583000D03*
Y1120000D03*
Y1129000D03*
X1140000Y461500D03*
Y470500D03*
Y1007500D03*
Y1016500D03*
X1142000Y574000D03*
Y583000D03*
Y1120000D03*
Y1129000D03*
X1144500Y424000D03*
Y433000D03*
Y970000D03*
Y979000D03*
X1152000Y469000D03*
Y478000D03*
Y1015000D03*
Y1024000D03*
X1154500Y324000D03*
Y333000D03*
Y424000D03*
Y433000D03*
Y870000D03*
Y879000D03*
Y970000D03*
Y979000D03*
X1164500Y424000D03*
Y433000D03*
Y970000D03*
Y979000D03*
X1167000Y581500D03*
Y590500D03*
Y1127500D03*
Y1136500D03*
X1222000Y496500D03*
Y505500D03*
Y514000D03*
Y523000D03*
Y534000D03*
Y543000D03*
Y551500D03*
Y560500D03*
Y1042500D03*
Y1051500D03*
Y1060000D03*
Y1069000D03*
Y1080000D03*
Y1089000D03*
Y1097500D03*
Y1106500D03*
X1302000Y394000D03*
Y403000D03*
Y940000D03*
Y949000D03*
X1337000Y329000D03*
Y338000D03*
Y875000D03*
Y884000D03*
X1347000Y329000D03*
Y338000D03*
Y875000D03*
Y884000D03*
X1352000Y394000D03*
Y403000D03*
Y940000D03*
Y949000D03*
X1389500Y624000D03*
Y633000D03*
Y1170000D03*
Y1179000D03*
X1397000Y446500D03*
Y455500D03*
Y992500D03*
Y1001500D03*
X1402000Y624000D03*
Y633000D03*
Y1170000D03*
Y1179000D03*
X1414500Y446500D03*
Y455500D03*
Y992500D03*
Y1001500D03*
X1439500Y444000D03*
Y453000D03*
Y990000D03*
Y999000D03*
X1447000Y326500D03*
Y335500D03*
Y872500D03*
Y881500D03*
X1484500Y231500D03*
Y240500D03*
Y324000D03*
Y333000D03*
Y777500D03*
Y786500D03*
Y870000D03*
Y879000D03*
X1514500Y231500D03*
Y240500D03*
Y324000D03*
Y333000D03*
Y777500D03*
Y786500D03*
Y870000D03*
Y879000D03*
X1529500Y616500D03*
Y625500D03*
Y1162500D03*
Y1171500D03*
X1532000Y591500D03*
Y600500D03*
Y1137500D03*
Y1146500D03*
X1537000Y231500D03*
Y240500D03*
Y324000D03*
Y333000D03*
Y432900D03*
Y441900D03*
Y777500D03*
Y786500D03*
Y870000D03*
Y879000D03*
Y978900D03*
Y987900D03*
X1542000Y571500D03*
Y580500D03*
Y1117500D03*
Y1126500D03*
X1547000Y432900D03*
Y441900D03*
Y978900D03*
Y987900D03*
X1552000Y571500D03*
Y580500D03*
Y1117500D03*
Y1126500D03*
X1567000Y231500D03*
Y240500D03*
Y324000D03*
Y333000D03*
Y777500D03*
Y786500D03*
Y870000D03*
Y879000D03*
X1589500Y231500D03*
Y240500D03*
Y324000D03*
Y333000D03*
Y777500D03*
Y786500D03*
Y870000D03*
Y879000D03*
X1619500Y231500D03*
Y240500D03*
Y324000D03*
Y333000D03*
Y777500D03*
Y786500D03*
Y870000D03*
Y879000D03*
X1632000Y571500D03*
Y580500D03*
Y1117500D03*
Y1126500D03*
X1637000Y431500D03*
Y440500D03*
Y977500D03*
Y986500D03*
X1642000Y231500D03*
Y240500D03*
Y324000D03*
Y333000D03*
Y571500D03*
Y580500D03*
Y777500D03*
Y786500D03*
Y870000D03*
Y879000D03*
Y1117500D03*
Y1126500D03*
X1647000Y431500D03*
Y440500D03*
Y977500D03*
Y986500D03*
X1672000Y231500D03*
Y240500D03*
Y324000D03*
Y333000D03*
Y777500D03*
Y786500D03*
Y870000D03*
Y879000D03*
G54D11*
X171500Y310903D03*
Y856903D03*
X174000Y201000D03*
Y747000D03*
X180500Y310903D03*
Y856903D03*
X183000Y201000D03*
Y747000D03*
X211500Y311000D03*
Y857000D03*
X216500Y523000D03*
Y606000D03*
Y1069000D03*
Y1152000D03*
X220500Y311000D03*
Y857000D03*
X225500Y523000D03*
Y606000D03*
Y1069000D03*
Y1152000D03*
X236500Y311000D03*
Y857000D03*
X244000Y206000D03*
Y752000D03*
X245500Y311000D03*
Y857000D03*
X253000Y206000D03*
Y752000D03*
X276500Y311000D03*
Y857000D03*
X285500Y311000D03*
Y857000D03*
X301500Y633500D03*
Y1179500D03*
X310500Y633500D03*
Y1179500D03*
X399000Y391000D03*
Y937000D03*
X408000Y391000D03*
Y937000D03*
X699000Y231000D03*
Y323500D03*
Y777000D03*
Y869500D03*
X708000Y231000D03*
Y323500D03*
Y777000D03*
Y869500D03*
X721500Y451000D03*
Y997000D03*
X730500Y451000D03*
Y997000D03*
X731500Y513500D03*
Y536000D03*
Y1059500D03*
Y1082000D03*
X740500Y513500D03*
Y536000D03*
Y1059500D03*
Y1082000D03*
X741500Y451000D03*
Y997000D03*
X750500Y451000D03*
Y997000D03*
X751500Y231000D03*
Y323500D03*
Y513500D03*
Y526000D03*
Y777000D03*
Y869500D03*
Y1059500D03*
Y1072000D03*
X760500Y231000D03*
Y323500D03*
Y513500D03*
Y526000D03*
Y777000D03*
Y869500D03*
Y1059500D03*
Y1072000D03*
X761500Y451000D03*
Y997000D03*
X770500Y451000D03*
Y997000D03*
X804000Y231000D03*
Y323650D03*
Y777000D03*
Y869650D03*
X813000Y231000D03*
Y323650D03*
Y777000D03*
Y869650D03*
X821500Y451000D03*
Y997000D03*
X830500Y451000D03*
Y997000D03*
X831500Y513500D03*
Y536000D03*
Y1059500D03*
Y1082000D03*
X840500Y513500D03*
Y536000D03*
Y1059500D03*
Y1082000D03*
X841500Y451000D03*
Y997000D03*
X850500Y451000D03*
Y997000D03*
X851500Y513500D03*
Y526000D03*
Y1059500D03*
Y1072000D03*
X856500Y231000D03*
Y323500D03*
Y777000D03*
Y869500D03*
X860500Y513500D03*
Y526000D03*
Y1059500D03*
Y1072000D03*
X861500Y451000D03*
Y997000D03*
X865500Y231000D03*
Y323500D03*
Y777000D03*
Y869500D03*
X870500Y451000D03*
Y997000D03*
X967500Y310903D03*
Y856903D03*
X970000Y201000D03*
Y747000D03*
X976500Y310903D03*
Y856903D03*
X979000Y201000D03*
Y747000D03*
X1007500Y311000D03*
Y857000D03*
X1012500Y523000D03*
Y606000D03*
Y1069000D03*
Y1152000D03*
X1016500Y311000D03*
Y857000D03*
X1021500Y523000D03*
Y606000D03*
Y1069000D03*
Y1152000D03*
X1032500Y311000D03*
Y857000D03*
X1040000Y206000D03*
Y752000D03*
X1041500Y311000D03*
Y857000D03*
X1049000Y206000D03*
Y752000D03*
X1072500Y311000D03*
Y857000D03*
X1081500Y311000D03*
Y857000D03*
X1097500Y633500D03*
Y1179500D03*
X1106500Y633500D03*
Y1179500D03*
X1195000Y391000D03*
Y937000D03*
X1204000Y391000D03*
Y937000D03*
X1495000Y231000D03*
Y323500D03*
Y777000D03*
Y869500D03*
X1504000Y231000D03*
Y323500D03*
Y777000D03*
Y869500D03*
X1517500Y451000D03*
Y997000D03*
X1526500Y451000D03*
Y997000D03*
X1527500Y513500D03*
Y536000D03*
Y1059500D03*
Y1082000D03*
X1536500Y513500D03*
Y536000D03*
Y1059500D03*
Y1082000D03*
X1537500Y451000D03*
Y997000D03*
X1546500Y451000D03*
Y997000D03*
X1547500Y231000D03*
Y323500D03*
Y513500D03*
Y526000D03*
Y777000D03*
Y869500D03*
Y1059500D03*
Y1072000D03*
X1556500Y231000D03*
Y323500D03*
Y513500D03*
Y526000D03*
Y777000D03*
Y869500D03*
Y1059500D03*
Y1072000D03*
X1557500Y451000D03*
Y997000D03*
X1566500Y451000D03*
Y997000D03*
X1600000Y231000D03*
Y323650D03*
Y777000D03*
Y869650D03*
X1609000Y231000D03*
Y323650D03*
Y777000D03*
Y869650D03*
X1617500Y451000D03*
Y997000D03*
X1626500Y451000D03*
Y997000D03*
X1627500Y513500D03*
Y536000D03*
Y1059500D03*
Y1082000D03*
X1636500Y513500D03*
Y536000D03*
Y1059500D03*
Y1082000D03*
X1637500Y451000D03*
Y997000D03*
X1646500Y451000D03*
Y997000D03*
X1647500Y513500D03*
Y526000D03*
Y1059500D03*
Y1072000D03*
X1652500Y231000D03*
Y323500D03*
Y777000D03*
Y869500D03*
X1656500Y513500D03*
Y526000D03*
Y1059500D03*
Y1072000D03*
X1657500Y451000D03*
Y997000D03*
X1661500Y231000D03*
Y323500D03*
Y777000D03*
Y869500D03*
X1666500Y451000D03*
Y997000D03*
G54D12*
X144000Y201000D03*
Y747000D03*
X149000Y191000D03*
Y737000D03*
X151500Y311000D03*
Y857000D03*
X153000Y201000D03*
Y747000D03*
X158000Y191000D03*
Y737000D03*
X160500Y311000D03*
Y857000D03*
X181500Y321000D03*
Y867000D03*
X184000Y531000D03*
Y566000D03*
Y1077000D03*
Y1112000D03*
X190500Y321000D03*
Y867000D03*
X191500Y311000D03*
Y857000D03*
X193000Y531000D03*
Y566000D03*
Y1077000D03*
Y1112000D03*
X200500Y311000D03*
Y857000D03*
X201500Y403500D03*
Y949500D03*
X204000Y323500D03*
Y333500D03*
Y869500D03*
Y879500D03*
X210500Y403500D03*
Y949500D03*
X213000Y323500D03*
Y333500D03*
Y869500D03*
Y879500D03*
X244000Y186000D03*
Y196000D03*
Y323500D03*
Y333500D03*
Y732000D03*
Y742000D03*
Y869500D03*
Y879500D03*
X253000Y186000D03*
Y196000D03*
Y323500D03*
Y333500D03*
Y732000D03*
Y742000D03*
Y869500D03*
Y879500D03*
X256500Y311000D03*
Y857000D03*
X259000Y568500D03*
Y1114500D03*
X265500Y311000D03*
Y857000D03*
X266500Y206000D03*
Y216000D03*
Y752000D03*
Y762000D03*
X268000Y568500D03*
Y1114500D03*
X275500Y206000D03*
Y216000D03*
Y752000D03*
Y762000D03*
X296500Y311000D03*
Y857000D03*
X305500Y311000D03*
Y857000D03*
X306500Y358500D03*
Y368500D03*
Y378500D03*
Y388500D03*
Y398500D03*
Y904500D03*
Y914500D03*
Y924500D03*
Y934500D03*
Y944500D03*
X315500Y358500D03*
Y368500D03*
Y378500D03*
Y388500D03*
Y398500D03*
Y904500D03*
Y914500D03*
Y924500D03*
Y934500D03*
Y944500D03*
X329000Y411000D03*
Y957000D03*
X331500Y331000D03*
Y341000D03*
Y601000D03*
Y611000D03*
Y621000D03*
Y631000D03*
Y877000D03*
Y887000D03*
Y1147000D03*
Y1157000D03*
Y1167000D03*
Y1177000D03*
X338000Y411000D03*
Y957000D03*
X340500Y331000D03*
Y341000D03*
Y601000D03*
Y611000D03*
Y621000D03*
Y631000D03*
Y877000D03*
Y887000D03*
Y1147000D03*
Y1157000D03*
Y1167000D03*
Y1177000D03*
X376500Y331000D03*
Y341000D03*
Y877000D03*
Y887000D03*
X384000Y411000D03*
Y421000D03*
Y957000D03*
Y967000D03*
X385500Y331000D03*
Y341000D03*
Y877000D03*
Y887000D03*
X393000Y411000D03*
Y421000D03*
Y957000D03*
Y967000D03*
X394000Y481000D03*
Y1027000D03*
X399000Y401000D03*
Y947000D03*
X403000Y481000D03*
Y1027000D03*
X408000Y401000D03*
Y947000D03*
X554000Y603500D03*
Y616000D03*
Y1149500D03*
Y1162000D03*
X563000Y603500D03*
Y616000D03*
Y1149500D03*
Y1162000D03*
X564000Y243500D03*
Y258500D03*
Y288500D03*
Y298500D03*
Y789500D03*
Y804500D03*
Y834500D03*
Y844500D03*
X573000Y243500D03*
Y258500D03*
Y288500D03*
Y298500D03*
Y789500D03*
Y804500D03*
Y834500D03*
Y844500D03*
X601500Y543500D03*
Y1089500D03*
X610500Y543500D03*
Y1089500D03*
X619000Y543500D03*
Y1089500D03*
X628000Y543500D03*
Y1089500D03*
X662600Y453500D03*
Y999500D03*
X663500Y288500D03*
Y834500D03*
X664000Y241000D03*
Y258000D03*
Y269000D03*
Y304000D03*
Y787000D03*
Y804000D03*
Y815000D03*
Y850000D03*
X671600Y453500D03*
Y999500D03*
X672500Y288500D03*
Y834500D03*
X673000Y241000D03*
Y258000D03*
Y269000D03*
Y304000D03*
Y787000D03*
Y804000D03*
Y815000D03*
Y850000D03*
X689000Y543500D03*
Y1089500D03*
X698000Y543500D03*
Y1089500D03*
X699000Y241000D03*
Y333500D03*
Y787000D03*
Y879500D03*
X708000Y241000D03*
Y333500D03*
Y787000D03*
Y879500D03*
X731500Y526000D03*
Y1072000D03*
X740500Y526000D03*
Y1072000D03*
X751500Y241000D03*
Y333500D03*
Y787000D03*
Y879500D03*
X760500Y241000D03*
Y333500D03*
Y787000D03*
Y879500D03*
X774000Y583500D03*
Y1129500D03*
X781500Y571000D03*
Y1117000D03*
X783000Y583500D03*
Y1129500D03*
X790500Y571000D03*
Y1117000D03*
X791500Y590500D03*
Y601000D03*
Y611000D03*
Y621000D03*
Y1136500D03*
Y1147000D03*
Y1157000D03*
Y1167000D03*
X800500Y590500D03*
Y601000D03*
Y611000D03*
Y621000D03*
Y1136500D03*
Y1147000D03*
Y1157000D03*
Y1167000D03*
X801500Y571000D03*
Y1117000D03*
X804000Y241000D03*
Y333500D03*
Y787000D03*
Y879500D03*
X809000Y583500D03*
Y1129500D03*
X810500Y571000D03*
Y1117000D03*
X813000Y241000D03*
Y333500D03*
Y787000D03*
Y879500D03*
X818000Y583500D03*
Y1129500D03*
X831500Y526000D03*
Y1072000D03*
X840500Y526000D03*
Y1072000D03*
X856500Y241000D03*
Y333500D03*
Y787000D03*
Y879500D03*
X865500Y241000D03*
Y333500D03*
Y787000D03*
Y879500D03*
X940000Y201000D03*
Y747000D03*
X945000Y191000D03*
Y737000D03*
X947500Y311000D03*
Y857000D03*
X949000Y201000D03*
Y747000D03*
X954000Y191000D03*
Y737000D03*
X956500Y311000D03*
Y857000D03*
X977500Y321000D03*
Y867000D03*
X980000Y531000D03*
Y566000D03*
Y1077000D03*
Y1112000D03*
X986500Y321000D03*
Y867000D03*
X987500Y311000D03*
Y857000D03*
X989000Y531000D03*
Y566000D03*
Y1077000D03*
Y1112000D03*
X996500Y311000D03*
Y857000D03*
X997500Y403500D03*
Y949500D03*
X1000000Y323500D03*
Y333500D03*
Y869500D03*
Y879500D03*
X1006500Y403500D03*
Y949500D03*
X1009000Y323500D03*
Y333500D03*
Y869500D03*
Y879500D03*
X1040000Y186000D03*
Y196000D03*
Y323500D03*
Y333500D03*
Y732000D03*
Y742000D03*
Y869500D03*
Y879500D03*
X1049000Y186000D03*
Y196000D03*
Y323500D03*
Y333500D03*
Y732000D03*
Y742000D03*
Y869500D03*
Y879500D03*
X1052500Y311000D03*
Y857000D03*
X1055000Y568500D03*
Y1114500D03*
X1061500Y311000D03*
Y857000D03*
X1062500Y206000D03*
Y216000D03*
Y752000D03*
Y762000D03*
X1064000Y568500D03*
Y1114500D03*
X1071500Y206000D03*
Y216000D03*
Y752000D03*
Y762000D03*
X1092500Y311000D03*
Y857000D03*
X1101500Y311000D03*
Y857000D03*
X1102500Y358500D03*
Y368500D03*
Y378500D03*
Y388500D03*
Y398500D03*
Y904500D03*
Y914500D03*
Y924500D03*
Y934500D03*
Y944500D03*
X1111500Y358500D03*
Y368500D03*
Y378500D03*
Y388500D03*
Y398500D03*
Y904500D03*
Y914500D03*
Y924500D03*
Y934500D03*
Y944500D03*
X1125000Y411000D03*
Y957000D03*
X1127500Y331000D03*
Y341000D03*
Y601000D03*
Y611000D03*
Y621000D03*
Y631000D03*
Y877000D03*
Y887000D03*
Y1147000D03*
Y1157000D03*
Y1167000D03*
Y1177000D03*
X1134000Y411000D03*
Y957000D03*
X1136500Y331000D03*
Y341000D03*
Y601000D03*
Y611000D03*
Y621000D03*
Y631000D03*
Y877000D03*
Y887000D03*
Y1147000D03*
Y1157000D03*
Y1167000D03*
Y1177000D03*
X1172500Y331000D03*
Y341000D03*
Y877000D03*
Y887000D03*
X1180000Y411000D03*
Y421000D03*
Y957000D03*
Y967000D03*
X1181500Y331000D03*
Y341000D03*
Y877000D03*
Y887000D03*
X1189000Y411000D03*
Y421000D03*
Y957000D03*
Y967000D03*
X1190000Y481000D03*
Y1027000D03*
X1195000Y401000D03*
Y947000D03*
X1199000Y481000D03*
Y1027000D03*
X1204000Y401000D03*
Y947000D03*
X1350000Y603500D03*
Y616000D03*
Y1149500D03*
Y1162000D03*
X1359000Y603500D03*
Y616000D03*
Y1149500D03*
Y1162000D03*
X1360000Y243500D03*
Y258500D03*
Y288500D03*
Y298500D03*
Y789500D03*
Y804500D03*
Y834500D03*
Y844500D03*
X1369000Y243500D03*
Y258500D03*
Y288500D03*
Y298500D03*
Y789500D03*
Y804500D03*
Y834500D03*
Y844500D03*
X1397500Y543500D03*
Y1089500D03*
X1406500Y543500D03*
Y1089500D03*
X1415000Y543500D03*
Y1089500D03*
X1424000Y543500D03*
Y1089500D03*
X1458600Y453500D03*
Y999500D03*
X1459500Y288500D03*
Y834500D03*
X1460000Y241000D03*
Y258000D03*
Y269000D03*
Y304000D03*
Y787000D03*
Y804000D03*
Y815000D03*
Y850000D03*
X1467600Y453500D03*
Y999500D03*
X1468500Y288500D03*
Y834500D03*
X1469000Y241000D03*
Y258000D03*
Y269000D03*
Y304000D03*
Y787000D03*
Y804000D03*
Y815000D03*
Y850000D03*
X1485000Y543500D03*
Y1089500D03*
X1494000Y543500D03*
Y1089500D03*
X1495000Y241000D03*
Y333500D03*
Y787000D03*
Y879500D03*
X1504000Y241000D03*
Y333500D03*
Y787000D03*
Y879500D03*
X1527500Y526000D03*
Y1072000D03*
X1536500Y526000D03*
Y1072000D03*
X1547500Y241000D03*
Y333500D03*
Y787000D03*
Y879500D03*
X1556500Y241000D03*
Y333500D03*
Y787000D03*
Y879500D03*
X1570000Y583500D03*
Y1129500D03*
X1577500Y571000D03*
Y1117000D03*
X1579000Y583500D03*
Y1129500D03*
X1586500Y571000D03*
Y1117000D03*
X1587500Y590500D03*
Y601000D03*
Y611000D03*
Y621000D03*
Y1136500D03*
Y1147000D03*
Y1157000D03*
Y1167000D03*
X1596500Y590500D03*
Y601000D03*
Y611000D03*
Y621000D03*
Y1136500D03*
Y1147000D03*
Y1157000D03*
Y1167000D03*
X1597500Y571000D03*
Y1117000D03*
X1600000Y241000D03*
Y333500D03*
Y787000D03*
Y879500D03*
X1605000Y583500D03*
Y1129500D03*
X1606500Y571000D03*
Y1117000D03*
X1609000Y241000D03*
Y333500D03*
Y787000D03*
Y879500D03*
X1614000Y583500D03*
Y1129500D03*
X1627500Y526000D03*
Y1072000D03*
X1636500Y526000D03*
Y1072000D03*
X1652500Y241000D03*
Y333500D03*
Y787000D03*
Y879500D03*
X1661500Y241000D03*
Y333500D03*
Y787000D03*
Y879500D03*
G54D13*
X286000Y436000D03*
Y466000D03*
Y982000D03*
Y1012000D03*
X713500Y571000D03*
Y601000D03*
Y1117000D03*
Y1147000D03*
X873500Y571000D03*
Y601000D03*
Y1117000D03*
Y1147000D03*
X1082000Y436000D03*
Y466000D03*
Y982000D03*
Y1012000D03*
X1509500Y571000D03*
Y601000D03*
Y1117000D03*
Y1147000D03*
X1669500Y571000D03*
Y601000D03*
Y1117000D03*
Y1147000D03*
G54D14*
X145500Y328500D03*
Y874500D03*
X161500Y328500D03*
Y874500D03*
X193750Y236000D03*
Y782000D03*
X209750Y236000D03*
Y782000D03*
X215500Y166000D03*
Y712000D03*
X231500Y166000D03*
Y712000D03*
X941500Y328500D03*
Y874500D03*
X957500Y328500D03*
Y874500D03*
X989750Y236000D03*
Y782000D03*
X1005750Y236000D03*
Y782000D03*
X1011500Y166000D03*
Y712000D03*
X1027500Y166000D03*
Y712000D03*
G54D15*
X168500Y150500D03*
Y166500D03*
Y696500D03*
Y712500D03*
X258500Y240500D03*
Y256500D03*
Y786500D03*
Y802500D03*
X266000Y350500D03*
Y366500D03*
Y896500D03*
Y912500D03*
X291000Y330500D03*
Y346500D03*
Y876500D03*
Y892500D03*
X416000Y353000D03*
Y369000D03*
Y899000D03*
Y915000D03*
X778500Y535500D03*
Y551500D03*
Y1081500D03*
Y1097500D03*
X801000Y408000D03*
Y424000D03*
Y954000D03*
Y970000D03*
X876000Y408000D03*
Y424000D03*
Y954000D03*
Y970000D03*
X878500Y535500D03*
Y551500D03*
Y1081500D03*
Y1097500D03*
X964500Y150500D03*
Y166500D03*
Y696500D03*
Y712500D03*
X1054500Y240500D03*
Y256500D03*
Y786500D03*
Y802500D03*
X1062000Y350500D03*
Y366500D03*
Y896500D03*
Y912500D03*
X1087000Y330500D03*
Y346500D03*
Y876500D03*
Y892500D03*
X1212000Y353000D03*
Y369000D03*
Y899000D03*
Y915000D03*
X1574500Y535500D03*
Y551500D03*
Y1081500D03*
Y1097500D03*
X1597000Y408000D03*
Y424000D03*
Y954000D03*
Y970000D03*
X1672000Y408000D03*
Y424000D03*
Y954000D03*
Y970000D03*
X1674500Y535500D03*
Y551500D03*
Y1081500D03*
Y1097500D03*
G54D16*
X138500Y152000D03*
Y170000D03*
Y698000D03*
Y716000D03*
X175250Y217000D03*
Y235000D03*
Y763000D03*
Y781000D03*
X188500Y582000D03*
Y600000D03*
Y1128000D03*
Y1146000D03*
X193500Y139500D03*
Y157500D03*
Y685500D03*
Y703500D03*
X233500Y244500D03*
Y262500D03*
Y790500D03*
Y808500D03*
X288500Y237000D03*
Y255000D03*
Y783000D03*
Y801000D03*
X413500Y612000D03*
Y630000D03*
Y1158000D03*
Y1176000D03*
X466000Y602000D03*
Y620000D03*
Y1148000D03*
Y1166000D03*
X598500Y584500D03*
Y602500D03*
Y1130500D03*
Y1148500D03*
X934500Y152000D03*
Y170000D03*
Y698000D03*
Y716000D03*
X971250Y217000D03*
Y235000D03*
Y763000D03*
Y781000D03*
X984500Y582000D03*
Y600000D03*
Y1128000D03*
Y1146000D03*
X989500Y139500D03*
Y157500D03*
Y685500D03*
Y703500D03*
X1029500Y244500D03*
Y262500D03*
Y790500D03*
Y808500D03*
X1084500Y237000D03*
Y255000D03*
Y783000D03*
Y801000D03*
X1209500Y612000D03*
Y630000D03*
Y1158000D03*
Y1176000D03*
X1262000Y602000D03*
Y620000D03*
Y1148000D03*
Y1166000D03*
X1394500Y584500D03*
Y602500D03*
Y1130500D03*
Y1148500D03*
G54D17*
X397500Y583500D03*
Y1129500D03*
X424500Y583500D03*
Y1129500D03*
X1193500Y583500D03*
Y1129500D03*
X1220500Y583500D03*
Y1129500D03*
G54D18*
X131900Y539000D03*
Y593000D03*
Y1085000D03*
Y1139000D03*
X144600Y539000D03*
Y593000D03*
Y1085000D03*
Y1139000D03*
X157300Y539000D03*
Y1085000D03*
X157400Y593000D03*
Y1139000D03*
X170000Y539000D03*
Y1085000D03*
X170100Y593000D03*
Y1139000D03*
X206950Y537500D03*
Y591500D03*
Y1083500D03*
Y1137500D03*
X219650Y537500D03*
Y591500D03*
Y1083500D03*
Y1137500D03*
X232350Y537500D03*
Y591500D03*
Y1083500D03*
Y1137500D03*
X245050Y537500D03*
Y591500D03*
Y1083500D03*
Y1137500D03*
X927900Y539000D03*
Y593000D03*
Y1085000D03*
Y1139000D03*
X940600Y539000D03*
Y593000D03*
Y1085000D03*
Y1139000D03*
X953300Y539000D03*
Y1085000D03*
X953400Y593000D03*
Y1139000D03*
X966000Y539000D03*
Y1085000D03*
X966100Y593000D03*
Y1139000D03*
X1002950Y537500D03*
Y591500D03*
Y1083500D03*
Y1137500D03*
X1015650Y537500D03*
Y591500D03*
Y1083500D03*
Y1137500D03*
X1028350Y537500D03*
Y591500D03*
Y1083500D03*
Y1137500D03*
X1041050Y537500D03*
Y591500D03*
Y1083500D03*
Y1137500D03*
G54D19*
X138900Y573000D03*
Y1119000D03*
X163100Y573000D03*
Y1119000D03*
X934900Y573000D03*
Y1119000D03*
X959100Y573000D03*
Y1119000D03*
G54D20*
X561000Y212250D03*
Y229750D03*
Y332250D03*
Y349750D03*
Y758250D03*
Y775750D03*
Y878250D03*
Y895750D03*
X571000Y212250D03*
Y229750D03*
Y332250D03*
Y349750D03*
Y758250D03*
Y775750D03*
Y878250D03*
Y895750D03*
X661000Y212250D03*
Y229750D03*
Y332250D03*
Y349750D03*
Y758250D03*
Y775750D03*
Y878250D03*
Y895750D03*
X671000Y212250D03*
Y229750D03*
Y332250D03*
Y349750D03*
Y758250D03*
Y775750D03*
Y878250D03*
Y895750D03*
X1357000Y212250D03*
Y229750D03*
Y332250D03*
Y349750D03*
Y758250D03*
Y775750D03*
Y878250D03*
Y895750D03*
X1367000Y212250D03*
Y229750D03*
Y332250D03*
Y349750D03*
Y758250D03*
Y775750D03*
Y878250D03*
Y895750D03*
X1457000Y212250D03*
Y229750D03*
Y332250D03*
Y349750D03*
Y758250D03*
Y775750D03*
Y878250D03*
Y895750D03*
X1467000Y212250D03*
Y229750D03*
Y332250D03*
Y349750D03*
Y758250D03*
Y775750D03*
Y878250D03*
Y895750D03*
G54D21*
X161500Y438500D03*
Y443500D03*
Y448500D03*
Y453500D03*
Y458500D03*
Y463500D03*
Y468500D03*
Y473500D03*
Y478500D03*
Y483500D03*
Y488500D03*
Y493500D03*
Y984500D03*
Y989500D03*
Y994500D03*
Y999500D03*
Y1004500D03*
Y1009500D03*
Y1014500D03*
Y1019500D03*
Y1024500D03*
Y1029500D03*
Y1034500D03*
Y1039500D03*
X245500Y438500D03*
Y443500D03*
Y448500D03*
Y453500D03*
Y458500D03*
Y463500D03*
Y468500D03*
Y473500D03*
Y478500D03*
Y483500D03*
Y488500D03*
Y493500D03*
Y984500D03*
Y989500D03*
Y994500D03*
Y999500D03*
Y1004500D03*
Y1009500D03*
Y1014500D03*
Y1019500D03*
Y1024500D03*
Y1029500D03*
Y1034500D03*
Y1039500D03*
X597503Y233499D03*
Y238499D03*
Y243499D03*
Y248499D03*
Y253499D03*
Y258499D03*
Y263499D03*
Y268499D03*
Y273499D03*
Y278499D03*
Y283499D03*
Y288499D03*
Y293499D03*
Y298499D03*
Y303499D03*
Y308499D03*
Y313499D03*
Y318499D03*
Y323499D03*
Y328499D03*
Y779499D03*
Y784499D03*
Y789499D03*
Y794499D03*
Y799499D03*
Y804499D03*
Y809499D03*
Y814499D03*
Y819499D03*
Y824499D03*
Y829499D03*
Y834499D03*
Y839499D03*
Y844499D03*
Y849499D03*
Y854499D03*
Y859499D03*
Y864499D03*
Y869499D03*
Y874499D03*
X634503Y233499D03*
Y238499D03*
Y243499D03*
Y248499D03*
Y253499D03*
Y258499D03*
Y263499D03*
Y268499D03*
Y273499D03*
Y278499D03*
Y283499D03*
Y288499D03*
Y293499D03*
Y298499D03*
Y303499D03*
Y308499D03*
Y313499D03*
Y318499D03*
Y323499D03*
Y328499D03*
Y779499D03*
Y784499D03*
Y789499D03*
Y794499D03*
Y799499D03*
Y804499D03*
Y809499D03*
Y814499D03*
Y819499D03*
Y824499D03*
Y829499D03*
Y834499D03*
Y839499D03*
Y844499D03*
Y849499D03*
Y854499D03*
Y859499D03*
Y864499D03*
Y869499D03*
Y874499D03*
X957500Y438500D03*
Y443500D03*
Y448500D03*
Y453500D03*
Y458500D03*
Y463500D03*
Y468500D03*
Y473500D03*
Y478500D03*
Y483500D03*
Y488500D03*
Y493500D03*
Y984500D03*
Y989500D03*
Y994500D03*
Y999500D03*
Y1004500D03*
Y1009500D03*
Y1014500D03*
Y1019500D03*
Y1024500D03*
Y1029500D03*
Y1034500D03*
Y1039500D03*
X1041500Y438500D03*
Y443500D03*
Y448500D03*
Y453500D03*
Y458500D03*
Y463500D03*
Y468500D03*
Y473500D03*
Y478500D03*
Y483500D03*
Y488500D03*
Y493500D03*
Y984500D03*
Y989500D03*
Y994500D03*
Y999500D03*
Y1004500D03*
Y1009500D03*
Y1014500D03*
Y1019500D03*
Y1024500D03*
Y1029500D03*
Y1034500D03*
Y1039500D03*
X1393503Y233499D03*
Y238499D03*
Y243499D03*
Y248499D03*
Y253499D03*
Y258499D03*
Y263499D03*
Y268499D03*
Y273499D03*
Y278499D03*
Y283499D03*
Y288499D03*
Y293499D03*
Y298499D03*
Y303499D03*
Y308499D03*
Y313499D03*
Y318499D03*
Y323499D03*
Y328499D03*
Y779499D03*
Y784499D03*
Y789499D03*
Y794499D03*
Y799499D03*
Y804499D03*
Y809499D03*
Y814499D03*
Y819499D03*
Y824499D03*
Y829499D03*
Y834499D03*
Y839499D03*
Y844499D03*
Y849499D03*
Y854499D03*
Y859499D03*
Y864499D03*
Y869499D03*
Y874499D03*
X1430503Y233499D03*
Y238499D03*
Y243499D03*
Y248499D03*
Y253499D03*
Y258499D03*
Y263499D03*
Y268499D03*
Y273499D03*
Y278499D03*
Y283499D03*
Y288499D03*
Y293499D03*
Y298499D03*
Y303499D03*
Y308499D03*
Y313499D03*
Y318499D03*
Y323499D03*
Y328499D03*
Y779499D03*
Y784499D03*
Y789499D03*
Y794499D03*
Y799499D03*
Y804499D03*
Y809499D03*
Y814499D03*
Y819499D03*
Y824499D03*
Y829499D03*
Y834499D03*
Y839499D03*
Y844499D03*
Y849499D03*
Y854499D03*
Y859499D03*
Y864499D03*
Y869499D03*
Y874499D03*
G54D22*
X627000Y206250D03*
Y355750D03*
Y752250D03*
Y901750D03*
X1423000Y206250D03*
Y355750D03*
Y752250D03*
Y901750D03*
G54D23*
X311500Y496500D03*
Y555500D03*
Y1042500D03*
Y1101500D03*
X318000Y496500D03*
Y555500D03*
Y1042500D03*
Y1101500D03*
X324500Y496500D03*
Y555500D03*
Y1042500D03*
Y1101500D03*
X331000Y496500D03*
Y555500D03*
Y1042500D03*
Y1101500D03*
X337500Y496500D03*
Y555500D03*
Y1042500D03*
Y1101500D03*
X344000Y496500D03*
Y555500D03*
Y1042500D03*
Y1101500D03*
X350500Y496500D03*
Y555500D03*
Y1042500D03*
Y1101500D03*
X371500Y496500D03*
Y555500D03*
Y1042500D03*
Y1101500D03*
X378000Y496500D03*
Y555500D03*
Y1042500D03*
Y1101500D03*
X384500Y496500D03*
Y555500D03*
Y1042500D03*
Y1101500D03*
X391000Y496500D03*
Y555500D03*
Y1042500D03*
Y1101500D03*
X397500Y496500D03*
Y555500D03*
Y1042500D03*
Y1101500D03*
X404000Y496500D03*
Y555500D03*
Y1042500D03*
Y1101500D03*
X410500Y496500D03*
Y555500D03*
Y1042500D03*
Y1101500D03*
X589000Y469000D03*
Y528000D03*
Y1015000D03*
Y1074000D03*
X595500Y469000D03*
Y528000D03*
Y1015000D03*
Y1074000D03*
X602000Y469000D03*
Y528000D03*
Y1015000D03*
Y1074000D03*
X608500Y469000D03*
Y528000D03*
Y1015000D03*
Y1074000D03*
X615000Y469000D03*
Y528000D03*
Y1015000D03*
Y1074000D03*
X621500Y469000D03*
Y528000D03*
Y1015000D03*
Y1074000D03*
X628000Y469000D03*
Y528000D03*
Y1015000D03*
Y1074000D03*
X649000Y469000D03*
Y528000D03*
Y1015000D03*
Y1074000D03*
X655500Y469000D03*
Y528000D03*
Y1015000D03*
Y1074000D03*
X662000Y469000D03*
Y528000D03*
Y1015000D03*
Y1074000D03*
X668500Y469000D03*
Y528000D03*
Y1015000D03*
Y1074000D03*
X675000Y469000D03*
Y528000D03*
Y1015000D03*
Y1074000D03*
X681500Y469000D03*
Y528000D03*
Y1015000D03*
Y1074000D03*
X688000Y469000D03*
Y528000D03*
Y1015000D03*
Y1074000D03*
X1107500Y496500D03*
Y555500D03*
Y1042500D03*
Y1101500D03*
X1114000Y496500D03*
Y555500D03*
Y1042500D03*
Y1101500D03*
X1120500Y496500D03*
Y555500D03*
Y1042500D03*
Y1101500D03*
X1127000Y496500D03*
Y555500D03*
Y1042500D03*
Y1101500D03*
X1133500Y496500D03*
Y555500D03*
Y1042500D03*
Y1101500D03*
X1140000Y496500D03*
Y555500D03*
Y1042500D03*
Y1101500D03*
X1146500Y496500D03*
Y555500D03*
Y1042500D03*
Y1101500D03*
X1167500Y496500D03*
Y555500D03*
Y1042500D03*
Y1101500D03*
X1174000Y496500D03*
Y555500D03*
Y1042500D03*
Y1101500D03*
X1180500Y496500D03*
Y555500D03*
Y1042500D03*
Y1101500D03*
X1187000Y496500D03*
Y555500D03*
Y1042500D03*
Y1101500D03*
X1193500Y496500D03*
Y555500D03*
Y1042500D03*
Y1101500D03*
X1200000Y496500D03*
Y555500D03*
Y1042500D03*
Y1101500D03*
X1206500Y496500D03*
Y555500D03*
Y1042500D03*
Y1101500D03*
X1385000Y469000D03*
Y528000D03*
Y1015000D03*
Y1074000D03*
X1391500Y469000D03*
Y528000D03*
Y1015000D03*
Y1074000D03*
X1398000Y469000D03*
Y528000D03*
Y1015000D03*
Y1074000D03*
X1404500Y469000D03*
Y528000D03*
Y1015000D03*
Y1074000D03*
X1411000Y469000D03*
Y528000D03*
Y1015000D03*
Y1074000D03*
X1417500Y469000D03*
Y528000D03*
Y1015000D03*
Y1074000D03*
X1424000Y469000D03*
Y528000D03*
Y1015000D03*
Y1074000D03*
X1445000Y469000D03*
Y528000D03*
Y1015000D03*
Y1074000D03*
X1451500Y469000D03*
Y528000D03*
Y1015000D03*
Y1074000D03*
X1458000Y469000D03*
Y528000D03*
Y1015000D03*
Y1074000D03*
X1464500Y469000D03*
Y528000D03*
Y1015000D03*
Y1074000D03*
X1471000Y469000D03*
Y528000D03*
Y1015000D03*
Y1074000D03*
X1477500Y469000D03*
Y528000D03*
Y1015000D03*
Y1074000D03*
X1484000Y469000D03*
Y528000D03*
Y1015000D03*
Y1074000D03*
G54D24*
X164750Y618500D03*
Y628500D03*
Y1164500D03*
Y1174500D03*
X182250Y618500D03*
Y628500D03*
Y1164500D03*
Y1174500D03*
X204750Y618500D03*
Y628500D03*
Y1164500D03*
Y1174500D03*
X222250Y618500D03*
Y628500D03*
Y1164500D03*
Y1174500D03*
X244750Y618500D03*
Y628500D03*
Y1164500D03*
Y1174500D03*
X262250Y618500D03*
Y628500D03*
Y1164500D03*
Y1174500D03*
X960750Y618500D03*
Y628500D03*
Y1164500D03*
Y1174500D03*
X978250Y618500D03*
Y628500D03*
Y1164500D03*
Y1174500D03*
X1000750Y618500D03*
Y628500D03*
Y1164500D03*
Y1174500D03*
X1018250Y618500D03*
Y628500D03*
Y1164500D03*
Y1174500D03*
X1040750Y618500D03*
Y628500D03*
Y1164500D03*
Y1174500D03*
X1058250Y618500D03*
Y628500D03*
Y1164500D03*
Y1174500D03*
G54D25*
X161500Y278500D03*
Y824500D03*
X171000Y298500D03*
Y844500D03*
X180500Y278500D03*
Y824500D03*
X199000Y278500D03*
Y824500D03*
X208500Y298500D03*
Y844500D03*
X218000Y278500D03*
Y824500D03*
X239000Y278500D03*
Y824500D03*
X248500Y298500D03*
Y844500D03*
X258000Y278500D03*
Y824500D03*
X276500Y278500D03*
Y824500D03*
X286000Y298500D03*
Y844500D03*
X295500Y278500D03*
Y824500D03*
X957500Y278500D03*
Y824500D03*
X967000Y298500D03*
Y844500D03*
X976500Y278500D03*
Y824500D03*
X995000Y278500D03*
Y824500D03*
X1004500Y298500D03*
Y844500D03*
X1014000Y278500D03*
Y824500D03*
X1035000Y278500D03*
Y824500D03*
X1044500Y298500D03*
Y844500D03*
X1054000Y278500D03*
Y824500D03*
X1072500Y278500D03*
Y824500D03*
X1082000Y298500D03*
Y844500D03*
X1091500Y278500D03*
Y824500D03*
G54D26*
X749000Y601000D03*
Y606000D03*
Y611000D03*
Y616000D03*
Y1147000D03*
Y1152000D03*
Y1157000D03*
Y1162000D03*
X778000Y601000D03*
Y606000D03*
Y611000D03*
Y616000D03*
Y1147000D03*
Y1152000D03*
Y1157000D03*
Y1162000D03*
X814000Y601000D03*
Y606000D03*
Y611000D03*
Y616000D03*
Y1147000D03*
Y1152000D03*
Y1157000D03*
Y1162000D03*
X843000Y601000D03*
Y606000D03*
Y611000D03*
Y616000D03*
Y1147000D03*
Y1152000D03*
Y1157000D03*
Y1162000D03*
X1545000Y601000D03*
Y606000D03*
Y611000D03*
Y616000D03*
Y1147000D03*
Y1152000D03*
Y1157000D03*
Y1162000D03*
X1574000Y601000D03*
Y606000D03*
Y611000D03*
Y616000D03*
Y1147000D03*
Y1152000D03*
Y1157000D03*
Y1162000D03*
X1610000Y601000D03*
Y606000D03*
Y611000D03*
Y616000D03*
Y1147000D03*
Y1152000D03*
Y1157000D03*
Y1162000D03*
X1639000Y601000D03*
Y606000D03*
Y611000D03*
Y616000D03*
Y1147000D03*
Y1152000D03*
Y1157000D03*
Y1162000D03*
G54D27*
X756000Y594000D03*
Y623000D03*
Y1140000D03*
Y1169000D03*
X761000Y594000D03*
Y623000D03*
Y1140000D03*
Y1169000D03*
X766000Y594000D03*
Y623000D03*
Y1140000D03*
Y1169000D03*
X771000Y594000D03*
Y623000D03*
Y1140000D03*
Y1169000D03*
X821000Y594000D03*
Y623000D03*
Y1140000D03*
Y1169000D03*
X826000Y594000D03*
Y623000D03*
Y1140000D03*
Y1169000D03*
X831000Y594000D03*
Y623000D03*
Y1140000D03*
Y1169000D03*
X836000Y594000D03*
Y623000D03*
Y1140000D03*
Y1169000D03*
X1552000Y594000D03*
Y623000D03*
Y1140000D03*
Y1169000D03*
X1557000Y594000D03*
Y623000D03*
Y1140000D03*
Y1169000D03*
X1562000Y594000D03*
Y623000D03*
Y1140000D03*
Y1169000D03*
X1567000Y594000D03*
Y623000D03*
Y1140000D03*
Y1169000D03*
X1617000Y594000D03*
Y623000D03*
Y1140000D03*
Y1169000D03*
X1622000Y594000D03*
Y623000D03*
Y1140000D03*
Y1169000D03*
X1627000Y594000D03*
Y623000D03*
Y1140000D03*
Y1169000D03*
X1632000Y594000D03*
Y623000D03*
Y1140000D03*
Y1169000D03*
G54D28*
X738500Y474500D03*
Y502500D03*
Y1020500D03*
Y1048500D03*
X743500Y474500D03*
Y502500D03*
Y1020500D03*
Y1048500D03*
X748500Y474500D03*
Y502500D03*
Y1020500D03*
Y1048500D03*
X753500Y474500D03*
Y502500D03*
Y1020500D03*
Y1048500D03*
X838500Y474500D03*
Y502500D03*
Y1020500D03*
Y1048500D03*
X843500Y474500D03*
Y502500D03*
Y1020500D03*
Y1048500D03*
X848500Y474500D03*
Y502500D03*
Y1020500D03*
Y1048500D03*
X853500Y474500D03*
Y502500D03*
Y1020500D03*
Y1048500D03*
X1534500Y474500D03*
Y502500D03*
Y1020500D03*
Y1048500D03*
X1539500Y474500D03*
Y502500D03*
Y1020500D03*
Y1048500D03*
X1544500Y474500D03*
Y502500D03*
Y1020500D03*
Y1048500D03*
X1549500Y474500D03*
Y502500D03*
Y1020500D03*
Y1048500D03*
X1634500Y474500D03*
Y502500D03*
Y1020500D03*
Y1048500D03*
X1639500Y474500D03*
Y502500D03*
Y1020500D03*
Y1048500D03*
X1644500Y474500D03*
Y502500D03*
Y1020500D03*
Y1048500D03*
X1649500Y474500D03*
Y502500D03*
Y1020500D03*
Y1048500D03*
G54D29*
X732000Y481000D03*
Y486000D03*
Y491000D03*
Y496000D03*
Y1027000D03*
Y1032000D03*
Y1037000D03*
Y1042000D03*
X760000Y481000D03*
Y486000D03*
Y491000D03*
Y496000D03*
Y1027000D03*
Y1032000D03*
Y1037000D03*
Y1042000D03*
X832000Y481000D03*
Y486000D03*
Y491000D03*
Y496000D03*
Y1027000D03*
Y1032000D03*
Y1037000D03*
Y1042000D03*
X860000Y481000D03*
Y486000D03*
Y491000D03*
Y496000D03*
Y1027000D03*
Y1032000D03*
Y1037000D03*
Y1042000D03*
X1528000Y481000D03*
Y486000D03*
Y491000D03*
Y496000D03*
Y1027000D03*
Y1032000D03*
Y1037000D03*
Y1042000D03*
X1556000Y481000D03*
Y486000D03*
Y491000D03*
Y496000D03*
Y1027000D03*
Y1032000D03*
Y1037000D03*
Y1042000D03*
X1628000Y481000D03*
Y486000D03*
Y491000D03*
Y496000D03*
Y1027000D03*
Y1032000D03*
Y1037000D03*
Y1042000D03*
X1656000Y481000D03*
Y486000D03*
Y491000D03*
Y496000D03*
Y1027000D03*
Y1032000D03*
Y1037000D03*
Y1042000D03*
G54D30*
X687500Y601000D03*
Y1147000D03*
X1483500Y601000D03*
Y1147000D03*
G54D31*
X280500Y618500D03*
Y1164500D03*
X284500Y618500D03*
Y1164500D03*
X288500Y618500D03*
Y1164500D03*
X292500Y618500D03*
Y1164500D03*
X296500Y618500D03*
Y1164500D03*
X1076500Y618500D03*
Y1164500D03*
X1080500Y618500D03*
Y1164500D03*
X1084500Y618500D03*
Y1164500D03*
X1088500Y618500D03*
Y1164500D03*
X1092500Y618500D03*
Y1164500D03*
G54D32*
X273500Y595500D03*
Y599500D03*
Y603500D03*
Y607500D03*
Y611500D03*
Y1141500D03*
Y1145500D03*
Y1149500D03*
Y1153500D03*
Y1157500D03*
X1069500Y595500D03*
Y599500D03*
Y603500D03*
Y607500D03*
Y611500D03*
Y1141500D03*
Y1145500D03*
Y1149500D03*
Y1153500D03*
Y1157500D03*
G54D33*
X280500Y588500D03*
Y1134500D03*
X284500Y588500D03*
Y1134500D03*
X288500Y588500D03*
Y1134500D03*
X292500Y588500D03*
Y1134500D03*
X296500Y588500D03*
Y1134500D03*
X1076500Y588500D03*
Y1134500D03*
X1080500Y588500D03*
Y1134500D03*
X1084500Y588500D03*
Y1134500D03*
X1088500Y588500D03*
Y1134500D03*
X1092500Y588500D03*
Y1134500D03*
G54D34*
X303500Y595500D03*
Y599500D03*
Y603500D03*
Y607500D03*
Y611500D03*
Y1141500D03*
Y1145500D03*
Y1149500D03*
Y1153500D03*
Y1157500D03*
X1099500Y595500D03*
Y599500D03*
Y603500D03*
Y607500D03*
Y611500D03*
Y1141500D03*
Y1145500D03*
Y1149500D03*
Y1153500D03*
Y1157500D03*
G54D35*
X288500Y603500D03*
Y1149500D03*
X1084500Y603500D03*
Y1149500D03*
G54D36*
X176000Y424000D03*
Y508000D03*
Y970000D03*
Y1054000D03*
X181000Y424000D03*
Y508000D03*
Y970000D03*
Y1054000D03*
X186000Y424000D03*
Y508000D03*
Y970000D03*
Y1054000D03*
X191000Y424000D03*
Y508000D03*
Y970000D03*
Y1054000D03*
X196000Y424000D03*
Y508000D03*
Y970000D03*
Y1054000D03*
X201000Y424000D03*
Y508000D03*
Y970000D03*
Y1054000D03*
X206000Y424000D03*
Y508000D03*
Y970000D03*
Y1054000D03*
X211000Y424000D03*
Y508000D03*
Y970000D03*
Y1054000D03*
X216000Y424000D03*
Y508000D03*
Y970000D03*
Y1054000D03*
X221000Y424000D03*
Y508000D03*
Y970000D03*
Y1054000D03*
X226000Y424000D03*
Y508000D03*
Y970000D03*
Y1054000D03*
X231000Y424000D03*
Y508000D03*
Y970000D03*
Y1054000D03*
X972000Y424000D03*
Y508000D03*
Y970000D03*
Y1054000D03*
X977000Y424000D03*
Y508000D03*
Y970000D03*
Y1054000D03*
X982000Y424000D03*
Y508000D03*
Y970000D03*
Y1054000D03*
X987000Y424000D03*
Y508000D03*
Y970000D03*
Y1054000D03*
X992000Y424000D03*
Y508000D03*
Y970000D03*
Y1054000D03*
X997000Y424000D03*
Y508000D03*
Y970000D03*
Y1054000D03*
X1002000Y424000D03*
Y508000D03*
Y970000D03*
Y1054000D03*
X1007000Y424000D03*
Y508000D03*
Y970000D03*
Y1054000D03*
X1012000Y424000D03*
Y508000D03*
Y970000D03*
Y1054000D03*
X1017000Y424000D03*
Y508000D03*
Y970000D03*
Y1054000D03*
X1022000Y424000D03*
Y508000D03*
Y970000D03*
Y1054000D03*
X1027000Y424000D03*
Y508000D03*
Y970000D03*
Y1054000D03*
G54D37*
X199250Y181000D03*
Y186000D03*
Y191000D03*
Y196000D03*
Y201000D03*
Y206000D03*
Y211000D03*
Y216000D03*
Y221000D03*
Y727000D03*
Y732000D03*
Y737000D03*
Y742000D03*
Y747000D03*
Y752000D03*
Y757000D03*
Y762000D03*
Y767000D03*
X227750Y181000D03*
Y186000D03*
Y191000D03*
Y196000D03*
Y201000D03*
Y206000D03*
Y211000D03*
Y216000D03*
Y221000D03*
Y727000D03*
Y732000D03*
Y737000D03*
Y742000D03*
Y747000D03*
Y752000D03*
Y757000D03*
Y762000D03*
Y767000D03*
X995250Y181000D03*
Y186000D03*
Y191000D03*
Y196000D03*
Y201000D03*
Y206000D03*
Y211000D03*
Y216000D03*
Y221000D03*
Y727000D03*
Y732000D03*
Y737000D03*
Y742000D03*
Y747000D03*
Y752000D03*
Y757000D03*
Y762000D03*
Y767000D03*
X1023750Y181000D03*
Y186000D03*
Y191000D03*
Y196000D03*
Y201000D03*
Y206000D03*
Y211000D03*
Y216000D03*
Y221000D03*
Y727000D03*
Y732000D03*
Y737000D03*
Y742000D03*
Y747000D03*
Y752000D03*
Y757000D03*
Y762000D03*
Y767000D03*
G54D38*
X182750Y363500D03*
Y378500D03*
Y909500D03*
Y924500D03*
X248250Y363500D03*
Y378500D03*
Y909500D03*
Y924500D03*
X978750Y363500D03*
Y378500D03*
Y909500D03*
Y924500D03*
X1044250Y363500D03*
Y378500D03*
Y909500D03*
Y924500D03*
G54D39*
X143250Y363500D03*
Y378500D03*
Y909500D03*
Y924500D03*
X208750Y363500D03*
Y378500D03*
Y909500D03*
Y924500D03*
X939250Y363500D03*
Y378500D03*
Y909500D03*
Y924500D03*
X1004750Y363500D03*
Y378500D03*
Y909500D03*
Y924500D03*
G54D40*
X150500Y388250D03*
Y934250D03*
X155500Y388250D03*
Y934250D03*
X160500Y388250D03*
Y934250D03*
X165500Y388250D03*
Y934250D03*
X170500Y388250D03*
Y934250D03*
X175500Y388250D03*
Y934250D03*
X216000Y388250D03*
Y934250D03*
X221000Y388250D03*
Y934250D03*
X226000Y388250D03*
Y934250D03*
X231000Y388250D03*
Y934250D03*
X236000Y388250D03*
Y934250D03*
X241000Y388250D03*
Y934250D03*
X946500Y388250D03*
Y934250D03*
X951500Y388250D03*
Y934250D03*
X956500Y388250D03*
Y934250D03*
X961500Y388250D03*
Y934250D03*
X966500Y388250D03*
Y934250D03*
X971500Y388250D03*
Y934250D03*
X1012000Y388250D03*
Y934250D03*
X1017000Y388250D03*
Y934250D03*
X1022000Y388250D03*
Y934250D03*
X1027000Y388250D03*
Y934250D03*
X1032000Y388250D03*
Y934250D03*
X1037000Y388250D03*
Y934250D03*
G54D41*
X150500Y353750D03*
Y899750D03*
X155500Y353750D03*
Y899750D03*
X160500Y353750D03*
Y899750D03*
X165500Y353750D03*
Y899750D03*
X170500Y353750D03*
Y899750D03*
X175500Y353750D03*
Y899750D03*
X216000Y353750D03*
Y899750D03*
X221000Y353750D03*
Y899750D03*
X226000Y353750D03*
Y899750D03*
X231000Y353750D03*
Y899750D03*
X236000Y353750D03*
Y899750D03*
X241000Y353750D03*
Y899750D03*
X946500Y353750D03*
Y899750D03*
X951500Y353750D03*
Y899750D03*
X956500Y353750D03*
Y899750D03*
X961500Y353750D03*
Y899750D03*
X966500Y353750D03*
Y899750D03*
X971500Y353750D03*
Y899750D03*
X1012000Y353750D03*
Y899750D03*
X1017000Y353750D03*
Y899750D03*
X1022000Y353750D03*
Y899750D03*
X1027000Y353750D03*
Y899750D03*
X1032000Y353750D03*
Y899750D03*
X1037000Y353750D03*
Y899750D03*
G54D42*
X370000Y446500D03*
Y465500D03*
Y992500D03*
Y1011500D03*
X396000Y446500D03*
Y456000D03*
Y465500D03*
Y992500D03*
Y1002000D03*
Y1011500D03*
X415500Y444000D03*
Y453500D03*
Y463000D03*
Y990000D03*
Y999500D03*
Y1009000D03*
X441500Y444000D03*
Y463000D03*
Y990000D03*
Y1009000D03*
X1166000Y446500D03*
Y465500D03*
Y992500D03*
Y1011500D03*
X1192000Y446500D03*
Y456000D03*
Y465500D03*
Y992500D03*
Y1002000D03*
Y1011500D03*
X1211500Y444000D03*
Y453500D03*
Y463000D03*
Y990000D03*
Y999500D03*
Y1009000D03*
X1237500Y444000D03*
Y463000D03*
Y990000D03*
Y1009000D03*
G54D43*
X348500Y398000D03*
Y944000D03*
X353500Y398000D03*
Y944000D03*
X358500Y398000D03*
Y944000D03*
X363500Y398000D03*
Y944000D03*
X368500Y398000D03*
Y944000D03*
X373500Y398000D03*
Y944000D03*
X1144500Y398000D03*
Y944000D03*
X1149500Y398000D03*
Y944000D03*
X1154500Y398000D03*
Y944000D03*
X1159500Y398000D03*
Y944000D03*
X1164500Y398000D03*
Y944000D03*
X1169500Y398000D03*
Y944000D03*
G54D44*
X341500Y366000D03*
Y371000D03*
Y376000D03*
Y381000D03*
Y386000D03*
Y391000D03*
Y912000D03*
Y917000D03*
Y922000D03*
Y927000D03*
Y932000D03*
Y937000D03*
X1137500Y366000D03*
Y371000D03*
Y376000D03*
Y381000D03*
Y386000D03*
Y391000D03*
Y912000D03*
Y917000D03*
Y922000D03*
Y927000D03*
Y932000D03*
Y937000D03*
G54D45*
X348500Y359000D03*
Y905000D03*
X353500Y359000D03*
Y905000D03*
X358500Y359000D03*
Y905000D03*
X363500Y359000D03*
Y905000D03*
X368500Y359000D03*
Y905000D03*
X373500Y359000D03*
Y905000D03*
X1144500Y359000D03*
Y905000D03*
X1149500Y359000D03*
Y905000D03*
X1154500Y359000D03*
Y905000D03*
X1159500Y359000D03*
Y905000D03*
X1164500Y359000D03*
Y905000D03*
X1169500Y359000D03*
Y905000D03*
G54D46*
X380500Y366000D03*
Y371000D03*
Y376000D03*
Y381000D03*
Y386000D03*
Y391000D03*
Y912000D03*
Y917000D03*
Y922000D03*
Y927000D03*
Y932000D03*
Y937000D03*
X1176500Y366000D03*
Y371000D03*
Y376000D03*
Y381000D03*
Y386000D03*
Y391000D03*
Y912000D03*
Y917000D03*
Y922000D03*
Y927000D03*
Y932000D03*
Y937000D03*
G54D47*
X173500Y181500D03*
Y190500D03*
Y727500D03*
Y736500D03*
X253500Y216500D03*
Y225500D03*
Y762500D03*
Y771500D03*
X653500Y444000D03*
Y453000D03*
Y990000D03*
Y999000D03*
X969500Y181500D03*
Y190500D03*
Y727500D03*
Y736500D03*
X1049500Y216500D03*
Y225500D03*
Y762500D03*
Y771500D03*
X1449500Y444000D03*
Y453000D03*
Y990000D03*
Y999000D03*
G54D70*
X504500Y601500D03*
Y611000D03*
Y620500D03*
Y1147500D03*
Y1157000D03*
Y1166500D03*
X532500Y601500D03*
Y611000D03*
Y620500D03*
Y1147500D03*
Y1157000D03*
Y1166500D03*
X1300500Y601500D03*
Y611000D03*
Y620500D03*
Y1147500D03*
Y1157000D03*
Y1166500D03*
X1328500Y601500D03*
Y611000D03*
Y620500D03*
Y1147500D03*
Y1157000D03*
Y1166500D03*
G54D71*
X181000Y258500D03*
Y804500D03*
X211000Y258500D03*
Y804500D03*
X216000Y143500D03*
Y689500D03*
X246000Y143500D03*
Y689500D03*
X688500Y206000D03*
Y266000D03*
Y298500D03*
Y358500D03*
Y752000D03*
Y812000D03*
Y844500D03*
Y904500D03*
X718500Y206000D03*
Y266000D03*
Y298500D03*
Y358500D03*
Y752000D03*
Y812000D03*
Y844500D03*
Y904500D03*
X741000Y206000D03*
Y266000D03*
Y298500D03*
Y358500D03*
Y752000D03*
Y812000D03*
Y844500D03*
Y904500D03*
X771000Y206000D03*
Y266000D03*
Y298500D03*
Y358500D03*
Y752000D03*
Y812000D03*
Y844500D03*
Y904500D03*
X793500Y206000D03*
Y266000D03*
Y298500D03*
Y358500D03*
Y752000D03*
Y812000D03*
Y844500D03*
Y904500D03*
X823500Y206000D03*
Y266000D03*
Y298500D03*
Y358500D03*
Y752000D03*
Y812000D03*
Y844500D03*
Y904500D03*
X846000Y206000D03*
Y266000D03*
Y298500D03*
Y358500D03*
Y752000D03*
Y812000D03*
Y844500D03*
Y904500D03*
X876000Y206000D03*
Y266000D03*
Y298500D03*
Y358500D03*
Y752000D03*
Y812000D03*
Y844500D03*
Y904500D03*
X977000Y258500D03*
Y804500D03*
X1007000Y258500D03*
Y804500D03*
X1012000Y143500D03*
Y689500D03*
X1042000Y143500D03*
Y689500D03*
X1484500Y206000D03*
Y266000D03*
Y298500D03*
Y358500D03*
Y752000D03*
Y812000D03*
Y844500D03*
Y904500D03*
X1514500Y206000D03*
Y266000D03*
Y298500D03*
Y358500D03*
Y752000D03*
Y812000D03*
Y844500D03*
Y904500D03*
X1537000Y206000D03*
Y266000D03*
Y298500D03*
Y358500D03*
Y752000D03*
Y812000D03*
Y844500D03*
Y904500D03*
X1567000Y206000D03*
Y266000D03*
Y298500D03*
Y358500D03*
Y752000D03*
Y812000D03*
Y844500D03*
Y904500D03*
X1589500Y206000D03*
Y266000D03*
Y298500D03*
Y358500D03*
Y752000D03*
Y812000D03*
Y844500D03*
Y904500D03*
X1619500Y206000D03*
Y266000D03*
Y298500D03*
Y358500D03*
Y752000D03*
Y812000D03*
Y844500D03*
Y904500D03*
X1642000Y206000D03*
Y266000D03*
Y298500D03*
Y358500D03*
Y752000D03*
Y812000D03*
Y844500D03*
Y904500D03*
X1672000Y206000D03*
Y266000D03*
Y298500D03*
Y358500D03*
Y752000D03*
Y812000D03*
Y844500D03*
Y904500D03*
G54D72*
X274000Y513000D03*
Y539000D03*
Y1059000D03*
Y1085000D03*
X283500Y513000D03*
Y539000D03*
Y1059000D03*
Y1085000D03*
X293000Y513000D03*
Y539000D03*
Y1059000D03*
Y1085000D03*
X521500Y368000D03*
Y394000D03*
Y914000D03*
Y940000D03*
X531000Y368000D03*
Y394000D03*
Y914000D03*
Y940000D03*
X540500Y368000D03*
Y394000D03*
Y914000D03*
Y940000D03*
X792250Y488000D03*
Y514000D03*
Y1034000D03*
Y1060000D03*
X801750Y488000D03*
Y1034000D03*
X811250Y488000D03*
Y514000D03*
Y1034000D03*
Y1060000D03*
X1070000Y513000D03*
Y539000D03*
Y1059000D03*
Y1085000D03*
X1079500Y513000D03*
Y539000D03*
Y1059000D03*
Y1085000D03*
X1089000Y513000D03*
Y539000D03*
Y1059000D03*
Y1085000D03*
X1317500Y368000D03*
Y394000D03*
Y914000D03*
Y940000D03*
X1327000Y368000D03*
Y394000D03*
Y914000D03*
Y940000D03*
X1336500Y368000D03*
Y394000D03*
Y914000D03*
Y940000D03*
X1588250Y488000D03*
Y514000D03*
Y1034000D03*
Y1060000D03*
X1597750Y488000D03*
Y1034000D03*
X1607250Y488000D03*
Y514000D03*
Y1034000D03*
Y1060000D03*
G54D73*
X624500Y578000D03*
Y601000D03*
Y624000D03*
Y1124000D03*
Y1147000D03*
Y1170000D03*
X1420500Y578000D03*
Y601000D03*
Y624000D03*
Y1124000D03*
Y1147000D03*
Y1170000D03*
M02*
